<?xml version="1.0" encoding="UTF-8" standalone="no"?>
<!-- Created with Inkscape (http://www.inkscape.org/) -->

<svg
   width="500mm"
   height="300mm"
   viewBox="0 0 500 300"
   version="1.1"
   id="svg10268"
   sodipodi:docname="birthday_1.svg"
   inkscape:version="1.1 (c68e22c387, 2021-05-23)"
   xmlns:inkscape="http://www.inkscape.org/namespaces/inkscape"
   xmlns:sodipodi="http://sodipodi.sourceforge.net/DTD/sodipodi-0.dtd"
   xmlns="http://www.w3.org/2000/svg"
   xmlns:svg="http://www.w3.org/2000/svg">
  <sodipodi:namedview
     id="namedview10270"
     pagecolor="#ffffff"
     bordercolor="#666666"
     borderopacity="1.0"
     inkscape:pageshadow="2"
     inkscape:pageopacity="0.0"
     inkscape:pagecheckerboard="0"
     inkscape:document-units="mm"
     showgrid="false"
     inkscape:zoom="0.33540614"
     inkscape:cx="478.52433"
     inkscape:cy="314.54403"
     inkscape:window-width="1920"
     inkscape:window-height="1009"
     inkscape:window-x="1912"
     inkscape:window-y="-8"
     inkscape:window-maximized="1"
     inkscape:current-layer="layer1" />
  <defs
     id="defs10265" />
  <g
     inkscape:label="Layer 1"
     inkscape:groupmode="layer"
     id="layer1">
    <g
       id="g6007"
       transform="matrix(3.0063667,0,0,-3.1254366,-666.96219,952.68426)">
      <path
         d="m 288.047,274.356 c 0.29,-0.845 1.223,-3.441 1.337,-3.985 0.099,-0.478 0.142,-1.033 0.432,-1.439 0.914,-1.28 2.016,-2.495 2.978,-3.758 0.271,-0.354 0.547,-0.715 0.914,-0.968 0.563,-0.388 1.38,-0.455 2.203,-0.439 l -0.124,-0.218 c -0.159,-0.271 -0.333,-0.534 -0.516,-0.79 -0.335,-0.47 -0.755,-0.964 -1.199,-1.425 -0.346,-0.359 1.192,-1.791 0.82,-2.087 -0.066,0.106 -0.145,-0.723 -1.384,0.667 -0.7,2.371 -3.907,5.687 -5.102,7.776 -0.49,0.855 -0.685,1.728 -0.84,2.694 -0.168,1.044 -0.494,2.061 -0.584,3.117 0.174,0.165 0.582,0.511 1.065,0.855"
         style="fill:#f8a378;fill-opacity:1;fill-rule:nonzero;stroke:none;stroke-width:0.1"
         id="path1234" />
      <path
         d="m 286.275,275.562 c 0.137,-0.106 0.265,-0.221 0.397,-0.331 0.044,0.595 -0.599,1.178 -0.373,1.82 0.037,0.102 0.154,0.136 0.236,0.062 0.201,-0.181 0.294,-0.408 0.362,-0.648 -0.031,0.258 -0.044,0.516 0.011,0.779 0.021,0.1 0.168,0.142 0.236,0.062 0.113,-0.133 0.193,-0.281 0.253,-0.439 l 0.031,0.147 c 0.035,0.124 0.19,0.13 0.257,0.034 0.386,-0.545 0.223,-1.21 0.348,-1.82 0.093,0.212 0.127,0.457 0.247,0.659 0.073,0.122 0.256,0.066 0.262,-0.072 0.019,-0.447 -0.003,-0.906 -0.134,-1.333 -0.033,-0.559 -0.451,-1.213 -0.973,-1.293 -0.332,-0.051 -0.601,0.169 -0.734,0.46 -0.104,0.229 -0.101,0.483 -0.158,0.724 -0.084,0.361 -0.287,0.674 -0.46,0.996 -0.061,0.112 0.073,0.285 0.192,0.193"
         style="fill:#f8a378;fill-opacity:1;fill-rule:nonzero;stroke:none;stroke-width:0.1"
         id="path1236" />
      <path
         d="m 387.845,219.961 c 0,-5.999 -37.104,-10.861 -82.874,-10.861 -45.77,0 -82.875,4.862 -82.875,10.861 0,5.998 37.105,10.86 82.875,10.86 45.77,0 82.874,-4.862 82.874,-10.86"
         style="fill:#f4f5f5;fill-opacity:1;fill-rule:nonzero;stroke:none;stroke-width:0.1"
         id="path1238" />
      <path
         d="m 340.175,225.741 -0.568,-0.096 -3.022,17.813 0.568,0.096 3.022,-17.813"
         style="fill:#211c1d;fill-opacity:1;fill-rule:nonzero;stroke:none;stroke-width:0.1"
         id="path1240" />
      <path
         d="m 320.8,225.741 0.569,-0.096 3.021,17.813 -0.568,0.096 -3.022,-17.813"
         style="fill:#211c1d;fill-opacity:1;fill-rule:nonzero;stroke:none;stroke-width:0.1"
         id="path1242" />
      <path
         d="m 341.038,244.572 c 0,-1.596 -4.718,-2.89 -10.538,-2.89 -5.82,0 -10.539,1.294 -10.539,2.89 0,1.595 4.719,2.889 10.539,2.889 5.82,0 10.538,-1.294 10.538,-2.889"
         style="fill:#eca90f;fill-opacity:1;fill-rule:nonzero;stroke:none;stroke-width:0.1"
         id="path1244" />
      <path
         d="m 341.038,246.124 c 0,-1.596 -4.718,-2.89 -10.538,-2.89 -5.82,0 -10.539,1.294 -10.539,2.89 0,1.596 4.719,2.889 10.539,2.889 5.82,0 10.538,-1.293 10.538,-2.889"
         style="fill:#f9d859;fill-opacity:1;fill-rule:nonzero;stroke:none;stroke-width:0.1"
         id="path1246" />
      <path
         d="m 306.911,225.741 -0.568,-0.096 -3.022,17.813 0.569,0.096 3.021,-17.813"
         style="fill:#211c1d;fill-opacity:1;fill-rule:nonzero;stroke:none;stroke-width:0.1"
         id="path1248" />
      <path
         d="m 287.537,225.741 0.568,-0.096 3.022,17.813 -0.569,0.096 -3.021,-17.813"
         style="fill:#211c1d;fill-opacity:1;fill-rule:nonzero;stroke:none;stroke-width:0.1"
         id="path1250" />
      <path
         d="m 307.774,244.572 c 0,-1.596 -4.718,-2.89 -10.538,-2.89 -5.82,0 -10.538,1.294 -10.538,2.89 0,1.595 4.718,2.889 10.538,2.889 5.82,0 10.538,-1.294 10.538,-2.889"
         style="fill:#eca90f;fill-opacity:1;fill-rule:nonzero;stroke:none;stroke-width:0.1"
         id="path1252" />
      <path
         d="m 307.774,246.124 c 0,-1.596 -4.718,-2.89 -10.538,-2.89 -5.82,0 -10.538,1.294 -10.538,2.89 0,1.596 4.718,2.889 10.538,2.889 5.82,0 10.538,-1.293 10.538,-2.889"
         style="fill:#f9d859;fill-opacity:1;fill-rule:nonzero;stroke:none;stroke-width:0.1"
         id="path1254" />
      <path
         d="m 244.626,219.794 -0.568,-0.096 -3.022,17.813 0.569,0.096 3.021,-17.813"
         style="fill:#211c1d;fill-opacity:1;fill-rule:nonzero;stroke:none;stroke-width:0.1"
         id="path1256" />
      <path
         d="m 235.253,224.055 -0.577,-0.001 -0.027,18.068 h 0.576 l 0.028,-18.067"
         style="fill:#211c1d;fill-opacity:1;fill-rule:nonzero;stroke:none;stroke-width:0.1"
         id="path1258" />
      <path
         d="m 225.251,219.794 0.569,-0.096 3.021,17.813 -0.568,0.096 -3.022,-17.813"
         style="fill:#211c1d;fill-opacity:1;fill-rule:nonzero;stroke:none;stroke-width:0.1"
         id="path1260" />
      <path
         d="m 245.489,238.625 c 0,-1.596 -4.718,-2.89 -10.538,-2.89 -5.82,0 -10.538,1.294 -10.538,2.89 0,0.971 0,0.771 0,1.552 1.723,0.337 8.26,1.337 10.538,1.337 3.736,0 8.667,-0.533 10.538,-1.337 0,-0.593 0,-0.981 0,-1.552"
         style="fill:#eca90f;fill-opacity:1;fill-rule:nonzero;stroke:none;stroke-width:0.1"
         id="path1262" />
      <path
         d="m 245.489,240.177 c 0,-1.596 -4.718,-2.89 -10.538,-2.89 -5.82,0 -10.538,1.294 -10.538,2.89 0,1.596 4.718,2.889 10.538,2.889 5.82,0 10.538,-1.293 10.538,-2.889"
         style="fill:#f9d859;fill-opacity:1;fill-rule:nonzero;stroke:none;stroke-width:0.1"
         id="path1264" />
      <path
         d="m 323.167,244.046 c 0,0 -1.402,-2.522 12.22,-1.12 -1.489,5.062 -12.22,1.12 -12.22,1.12"
         style="fill:#191b39;fill-opacity:1;fill-rule:nonzero;stroke:none;stroke-width:0.1"
         id="path1266" />
      <path
         d="m 339.487,254.822 1.734,-0.053 c -0.295,0.751 -0.209,0.679 -0.565,2.144 -0.296,1.213 -0.365,1.476 -1.207,2.247 -0.681,0.624 -0.827,1.842 -1.088,3.061 l -0.008,-0.028 c -0.047,-0.15 -0.094,-0.299 -0.141,-0.449 l -0.006,-0.021 -0.05,-0.177 c -0.035,-0.131 -0.066,-0.273 -0.095,-0.407 -0.005,-0.025 -0.041,-0.208 -0.061,-0.306 l -0.047,-0.336 c -0.083,-0.734 -0.108,-0.457 -0.164,-1.194 -0.018,-0.242 0.085,-1.014 0.153,-1.168 0.527,-1.186 0.76,-2.647 1.545,-3.313"
         style="fill:#f8a378;fill-opacity:1;fill-rule:nonzero;stroke:none;stroke-width:0.1"
         id="path1268" />
      <path
         d="m 337.135,269.09 c -0.075,2.76 -1.227,5.907 -0.899,8.463 0.268,2.083 0.437,5.117 -0.5,6.851 -0.996,1.845 -2.697,2.173 -4.193,2.527 -1.381,0.327 -3.596,-0.161 -4.7,-1.52 -1.012,-1.246 -0.901,-3.114 -1.027,-5.165 -0.067,-1.077 0.543,-3.812 0.622,-4.158 -0.022,-0.099 -0.038,-0.203 -0.046,-0.313 -0.105,-1.607 -0.038,-3.218 -0.01,-4.828 0.024,-1.409 -0.119,-2.901 0.149,-4.271 0.444,-2.264 1.748,-3.596 3.184,-3.984 0.965,-0.261 1.928,-0.181 2.882,0.144 0.891,0.303 1.75,0.804 2.644,1.083 0.226,0.07 0.421,0.146 0.593,0.233 l -0.147,2.528 0.524,-2.285 c 0.553,0.46 0.738,1.208 0.869,2.702 0.058,0.665 0.073,1.33 0.055,1.993"
         style="fill:#f03e33;fill-opacity:1;fill-rule:nonzero;stroke:none;stroke-width:0.1"
         id="path1270" />
      <path
         d="m 310.321,254.603 c 0.87,-0.043 1.901,-0.192 2.709,-0.646 0.072,0.076 0.147,0.159 0.245,0.25 0.205,0.192 0.433,0.326 0.381,0.611 -0.023,0.126 -0.09,0.258 -0.185,0.379 l 0.071,0.013 c 0.336,0.079 0.16,0.489 -0.175,0.409 -0.126,-0.029 -0.26,-0.032 -0.398,-0.023 l -0.098,0.019 -0.136,0.031 -0.093,0.001 -0.11,0.002 c -0.103,0.015 -0.205,0.029 -0.302,0.035 -1.313,0.09 -5.619,-0.672 -4.436,-1.172 0.842,0.047 1.681,0.134 2.527,0.091"
         style="fill:#f8a378;fill-opacity:1;fill-rule:nonzero;stroke:none;stroke-width:0.1"
         id="path1272" />
      <path
         d="m 329.961,272.436 c 0.714,-0.668 2.277,-0.94 2.945,0.018 0.314,-0.014 0.64,0.312 0.529,0.825 l -0.033,0.154 c -0.003,0.085 -0.019,0.174 -0.051,0.264 -0.053,0.311 -0.09,0.626 -0.125,0.94 -0.015,0.127 -0.029,0.253 -0.045,0.38 l -10e-4,0.248 c 0.003,0.186 -0.038,0.331 -0.105,0.436 l -0.016,0.077 -0.044,0.198 c -0.172,0.701 -0.861,0.564 -0.989,-0.003 -0.121,-0.069 -0.226,-0.198 -0.283,-0.398 l -0.027,-0.104 c -0.035,-0.152 -0.054,-0.31 -0.06,-0.471 l -0.005,-0.002 -0.015,-0.007 c -0.183,0.13 -0.424,0.119 -0.588,-0.069 l -0.234,0.03 -0.051,0.093 -0.063,0.194 c -0.219,0.458 -0.8,0.289 -0.92,-0.212 -0.027,-0.105 -0.032,-0.226 -0.008,-0.358 0.026,-0.151 0.042,-0.303 0.05,-0.457 -0.009,-0.122 -0.018,-0.244 -0.028,-0.366 v -10e-4 c -0.017,-0.22 -0.033,-0.438 -0.039,-0.659 -0.05,-0.259 -10e-4,-0.555 0.206,-0.75"
         style="fill:#f8a378;fill-opacity:1;fill-rule:nonzero;stroke:none;stroke-width:0.1"
         id="path1274" />
      <path
         d="m 329.772,274.669 c 0.026,-0.151 0.042,-0.303 0.05,-0.457 -0.009,-0.122 -0.018,-0.244 -0.028,-0.366 v -10e-4 c 0,0 1.163,-2.212 3.557,-0.148 -0.015,0.127 -0.154,1.193 -0.17,1.32 l -10e-4,0.248 c 0.003,0.186 -0.038,0.331 -0.105,0.436 l -0.016,0.077 -1.343,-0.307 -1.016,-0.232 -0.92,-0.212 c -0.027,-0.105 -0.032,-0.226 -0.008,-0.358"
         style="fill:#f28c73;fill-opacity:1;fill-rule:nonzero;stroke:none;stroke-width:0.1"
         id="path1276" />
      <path
         d="m 327.293,283.24 c 0.157,0.17 0.361,0.32 0.622,0.443 0.504,0.239 1.315,0.039 1.847,0.155 0.91,0.199 2.185,0.62 2.955,-0.092 0.715,-0.663 0.598,-1.721 0.746,-2.644 0.031,-0.193 0.073,-0.383 0.121,-0.571 l 0.026,0.027 c 0.198,0.19 0.437,0.302 0.714,0.306 0.208,0.002 0.467,-0.134 0.514,-0.357 0.156,-0.733 -0.198,-1.409 -0.728,-1.903 l -0.014,-0.013 c 0.05,-0.31 0.071,-0.628 0.04,-0.957 -0.109,-1.145 -0.819,-1.976 -1.564,-2.792 -0.688,-0.753 -1.519,-0.911 -2.495,-0.656 -0.989,0.257 -1.486,0.974 -1.9,1.858 -0.449,0.961 -0.865,1.906 -0.935,2.974 -0.085,1.311 -0.925,3.162 0.051,4.222"
         style="fill:#f8a378;fill-opacity:1;fill-rule:nonzero;stroke:none;stroke-width:0.1"
         id="path1278" />
      <path
         d="m 323.557,263.344 c -0.232,-0.321 -0.459,-0.645 -0.678,-0.974 -0.706,-1.059 -1.055,-2.222 -2.304,-2.696 -1.375,-0.522 -2.714,-1.128 -4.004,-1.833 -1.335,-0.731 -2.91,-1.541 -3.955,-2.674 -0.256,-0.278 -0.313,-0.24 -0.321,-0.612 -0.023,-1.096 2.153,-0.057 2.758,0.125 1.085,0.328 2.162,0.682 3.228,1.064 0.254,0.09 0.516,0.181 0.781,0.273 1.273,0.444 2.631,0.943 3.594,1.838 0.752,0.699 1.46,1.468 2.192,2.2 -0.539,1.031 -1.023,2.149 -1.291,3.289"
         style="fill:#f8a378;fill-opacity:1;fill-rule:nonzero;stroke:none;stroke-width:0.1"
         id="path1280" />
      <path
         d="m 326.146,269.452 c 0.029,0.867 -0.027,1.732 -0.221,2.607 0.343,0.134 0.712,0.224 1.085,0.299 0.177,0.035 0.355,0.067 0.531,0.099 0.387,0.069 0.766,0.137 1.115,0.235 0.536,0.153 0.986,0.275 1.511,0.014 0.296,-0.147 0.582,-0.337 0.91,-0.374 0.589,-0.066 0.89,0.345 1.346,0.603 0.187,0.107 0.371,0.158 0.567,0.181 0.432,0.048 0.953,-0.347 1.346,-0.499 0.505,-0.193 1.018,-0.367 1.532,-0.535 l 0.027,-0.008 c 0.197,-0.066 0.395,-0.13 0.591,-0.193 0.192,-0.063 0.384,-0.126 0.575,-0.189 l 0.23,-0.09 c 0.348,-0.16 0.55,-0.394 0.626,-0.824 0.034,-0.189 0.038,-0.377 0.025,-0.563 l -0.151,-0.135 c -0.334,-0.414 -0.51,-0.861 -0.629,-1.335 0.01,-0.083 0.006,-0.171 -0.016,-0.265 -0.099,-0.417 -0.21,-0.835 -0.258,-1.26 -0.032,-0.292 -0.175,-0.53 -0.418,-0.64 -0.084,-0.037 -0.178,-0.06 -0.285,-0.064 -0.285,-0.013 -0.566,-0.003 -0.846,0.018 -0.4,0.032 -0.796,0.089 -1.196,0.143 -0.097,0.013 -0.196,0.025 -0.294,0.036 -0.178,0.02 -0.356,0.034 -0.534,0.046 l -0.155,-0.229 c -1.325,-1.127 -3.241,-1.29 -4.523,-10e-4 l -0.144,0.254 c -0.184,0.008 -0.368,0.019 -0.551,0.035 -0.198,-0.187 -0.49,-0.261 -0.794,-0.073 -0.495,0.307 -0.894,0.877 -1.056,1.485 -0.094,0.351 -0.109,0.715 -0.018,1.046 l 0.072,0.176"
         style="fill:#f8a378;fill-opacity:1;fill-rule:nonzero;stroke:none;stroke-width:0.1"
         id="path1282" />
      <path
         d="m 336.839,255.237 c -0.443,1.369 -1.082,2.857 -0.969,4.208 0.044,0.522 0.188,1.012 0.364,1.492 0.084,0.229 0.175,0.456 0.265,0.683 0.063,-0.163 0.128,-0.325 0.192,-0.486 0.389,-0.964 1.457,-4.319 1.672,-5.346 0.032,-0.158 1.04,-0.08 1.67,0.026 0.188,0.031 0.4,0.067 0.613,0.139 0.592,0.202 0.164,3.153 -0.005,3.755 -0.197,0.703 -0.447,1.406 -0.583,2.111 -0.306,1.591 -0.347,3.169 -0.465,4.78 -0.111,1.503 -0.299,3.207 -1.185,4.481 -0.561,0.807 -4.401,0.251 -7.558,0.396 -2.395,0.11 -4.297,1.029 -4.642,0.908 -1.141,-0.4 -1.707,-1.366 -2.145,-2.436 -0.431,-1.052 -0.679,-2.161 -0.992,-3.25 -0.438,-1.515 -0.452,-3.138 -0.981,-4.624 -0.246,-0.69 -9.52,-5.743 -9.153,-6.428 0.322,-0.601 0.683,-1.28 1.12,-1.793 0.345,-0.407 10.165,4.369 10.431,4.721 0.437,0.579 0.741,1.233 0.989,1.917 0.111,0.307 0.211,0.62 0.306,0.935 0.105,-0.181 0.205,-0.361 0.288,-0.55 0.132,-0.299 0.222,-0.619 0.226,-0.986 0.009,-1.078 -0.455,-2.105 -0.741,-3.128 -0.449,-1.605 -1.185,-3.573 -1.167,-5.257 0,-0.138 0.015,-0.254 0.053,-0.329 l 0.091,-0.17 c 0.505,-0.833 1.5,-1.07 2.378,-1.299 2.718,-0.707 5.726,-1.495 8.499,-0.612 0.982,0.313 2.037,0.81 2.309,1.899 0.233,0.933 -0.413,2.483 -0.636,3.401 -0.067,0.274 -0.151,0.555 -0.244,0.842"
         style="fill:#26285e;fill-opacity:1;fill-rule:nonzero;stroke:none;stroke-width:0.1"
         id="path1284" />
      <path
         d="m 326.716,261.163 c -0.29,-0.014 -0.497,-0.131 -0.645,-0.287 -0.083,0.189 -0.183,0.369 -0.288,0.55 -0.095,-0.315 -0.195,-0.628 -0.306,-0.935 -0.44,1.167 -1.275,3.895 -0.039,5.132 -1.173,-2.84 1.278,-4.46 1.278,-4.46"
         style="fill:#191b39;fill-opacity:1;fill-rule:nonzero;stroke:none;stroke-width:0.1"
         id="path1286" />
      <path
         d="m 334.875,260.74 c 0,0 0.84,0.423 1.624,0.88 -0.09,-0.227 -0.181,-0.454 -0.265,-0.683 -0.638,-0.2 -1.359,-0.197 -1.359,-0.197"
         style="fill:#191b39;fill-opacity:1;fill-rule:nonzero;stroke:none;stroke-width:0.1"
         id="path1288" />
      <path
         d="m 337.076,261.487 c -0.089,-0.143 -0.224,-0.26 -0.385,-0.353 -0.064,0.161 -0.129,0.323 -0.192,0.486 0.768,0.448 0.059,3.586 0.03,3.716 0.038,-0.114 1.007,-3.108 0.547,-3.849"
         style="fill:#191b39;fill-opacity:1;fill-rule:nonzero;stroke:none;stroke-width:0.1"
         id="path1290" />
      <path
         d="m 331.978,223.907 c -0.22,0.879 -0.502,1.733 -0.997,2.521 -0.276,0.401 -0.574,0.578 -0.85,0.226 0.039,0.05 -0.543,0.343 -0.684,0.237 -0.25,-0.187 -0.231,-0.972 -0.259,-1.322 -0.081,-0.995 -0.066,-2.021 0.041,-3.049 -0.009,-0.56 0.163,-1.172 0.216,-1.68 0.033,-0.309 0.107,-0.659 0.374,-0.856 l 0.247,-0.103 c 0.213,-0.363 0.605,-0.464 0.933,-0.201 0.144,-0.082 0.305,-0.115 0.48,-0.036 0.17,0.076 0.274,0.234 0.366,0.396 0.121,-0.043 0.245,-0.058 0.379,0.004 0.204,0.095 0.323,0.334 0.354,0.545 0.082,0.549 -0.1,1.082 -0.218,1.612 -0.128,0.571 -0.242,1.144 -0.382,1.706"
         style="fill:#f8a378;fill-opacity:1;fill-rule:nonzero;stroke:none;stroke-width:0.1"
         id="path1292" />
      <path
         d="m 335.934,223.618 c -0.017,0.123 -0.04,0.243 -0.069,0.359 -0.263,1.064 -0.624,2.098 -1.072,3.069 -0.149,0.324 -0.407,1.076 -0.709,1.182 -0.171,0.061 -0.619,-0.384 -0.565,-0.42 -0.385,0.256 -0.605,0.002 -0.725,-0.457 -0.211,-0.805 -0.116,-2.241 -0.064,-2.681 0.019,-0.155 0.041,-0.313 0.068,-0.472 0.05,-0.411 0.153,-0.815 0.252,-1.223 0.102,-0.42 0.148,-0.849 0.243,-1.27 0.059,-0.265 0.139,-0.606 0.396,-0.748 0.209,-0.116 0.391,-0.053 0.538,0.077 0.126,-0.136 0.268,-0.235 0.509,-0.205 0.158,0.019 0.272,0.086 0.353,0.181 0.15,0.043 0.282,0.137 0.394,0.268 0.159,0.112 0.286,0.297 0.347,0.507 0.272,0.114 0.36,0.488 0.332,0.837 -0.027,0.334 -0.106,0.673 -0.228,0.996"
         style="fill:#f8a378;fill-opacity:1;fill-rule:nonzero;stroke:none;stroke-width:0.1"
         id="path1294" />
      <path
         d="m 325.388,244.484 c 0,0 1.782,0.758 2.972,0.758 1.19,0.001 2.694,-0.141 2.694,-0.141 l -2.297,-2.334 -3.369,1.717"
         style="fill:#f28c73;fill-opacity:1;fill-rule:nonzero;stroke:none;stroke-width:0.1"
         id="path1296" />
      <path
         d="m 334.186,238.676 c -0.207,2.279 0.088,6.09 -3.132,6.425 -0.707,0.074 -1.378,0.305 -2.193,0.012 -0.409,-0.704 0,-2.855 0.188,-3.694 0.532,-2.368 1.084,-4.721 1.53,-7.112 0.157,-0.844 0.426,-1.653 0.715,-2.456 0.39,-1.354 0.811,-2.698 1.183,-4.06 0.013,-0.092 0.035,-0.174 0.067,-0.248 0.085,-0.318 0.168,-0.638 0.247,-0.959 0.103,-0.421 0.577,-0.61 0.944,-0.526 0.422,0.098 0.645,0.491 0.648,0.922 0.001,0.154 0.001,0.308 0.001,0.463 0.11,0.148 0.176,0.341 0.166,0.576 -0.15,3.551 -0.042,7.118 -0.364,10.657"
         style="fill:#f8a378;fill-opacity:1;fill-rule:nonzero;stroke:none;stroke-width:0.1"
         id="path1298" />
      <path
         d="m 331.019,226.603 -0.029,0.256 c -0.156,1.411 -0.26,2.824 -0.397,4.234 -0.028,0.859 -0.076,1.716 -0.24,2.561 -0.465,2.392 -0.817,4.792 -1.195,7.199 -0.314,2.002 -0.564,3.638 -2.987,3.756 -0.635,0.031 -1.47,-0.537 -1.797,-0.884 -0.322,-0.341 -0.06,-2.407 0.11,-3.405 0.234,-1.373 0.553,-2.731 0.945,-4.067 0.999,-3.406 2.405,-6.666 3.567,-10.014 0.077,-0.222 0.209,-0.374 0.364,-0.467 0.057,-0.143 0.113,-0.286 0.171,-0.428 0.161,-0.397 0.51,-0.673 0.934,-0.594 0.369,0.069 0.737,0.435 0.678,0.866 -0.045,0.329 -0.086,0.658 -0.124,0.987"
         style="fill:#f8a378;fill-opacity:1;fill-rule:nonzero;stroke:none;stroke-width:0.1"
         id="path1300" />
      <path
         d="m 333.335,220.365 c -0.657,0.917 -0.729,2.391 -0.515,3.388 0.37,-0.609 0.569,-1.453 1.419,-1.543 0.709,-0.076 1.328,0.395 1.507,1.077 0.08,0.309 0.073,0.631 0.017,0.943 -0.049,0.272 -0.116,0.541 -0.189,0.802 0.536,-0.589 0.74,-1.423 0.855,-2.19 0.106,-0.71 0.244,-1.574 0.036,-2.274 -0.317,-1.07 -1.54,-1.302 -2.457,-0.808 -0.272,0.147 -0.494,0.355 -0.673,0.605"
         style="fill:#211c1d;fill-opacity:1;fill-rule:nonzero;stroke:none;stroke-width:0.1"
         id="path1302" />
      <path
         d="m 333.087,219.751 c 0.226,1.106 -0.309,2.481 -0.911,3.304 -0.089,-0.707 0.073,-1.558 -0.666,-1.987 -0.617,-0.358 -1.375,-0.181 -1.816,0.37 -0.199,0.249 -0.324,0.546 -0.4,0.854 -0.066,0.268 -0.114,0.541 -0.154,0.809 -0.249,-0.756 -0.096,-1.601 0.112,-2.348 0.192,-0.692 0.418,-1.537 0.893,-2.092 0.726,-0.848 1.937,-0.561 2.573,0.264 0.189,0.244 0.307,0.525 0.369,0.826"
         style="fill:#211c1d;fill-opacity:1;fill-rule:nonzero;stroke:none;stroke-width:0.1"
         id="path1304" />
      <path
         d="m 341.002,255.559 c -0.456,0.408 -1.253,0.255 -1.783,0.147 -0.501,-0.103 -0.701,-0.5 -0.754,-1.123 -0.036,-0.421 0.469,-0.461 0.505,-0.04 l 0.017,0.15 c 0.017,-0.143 0.126,-0.267 0.234,-0.293 0.502,-0.12 1.14,-0.337 1.647,-0.09 0.455,0.222 0.519,0.906 0.134,1.249"
         style="fill:#f8a378;fill-opacity:1;fill-rule:nonzero;stroke:none;stroke-width:0.1"
         id="path1306" />
      <path
         d="m 337.394,248.28 c 1.036,2.632 1.576,5.245 -2.246,5.364 l -0.187,0.004 c -0.579,0.005 -1.19,-0.043 -1.765,-0.074 -1.646,-0.088 -3.32,-0.018 -4.97,-0.094 -0.388,-0.018 -0.772,-0.033 -1.128,-0.082 -2.323,-0.316 -3.678,-1.829 -3.978,-4.056 -0.177,-1.316 -0.558,-4.61 0.092,-5.777 0.856,-1.537 1.3,3.203 9.451,1.186 0.413,-0.102 2.732,-2.083 2.724,-1.825 -0.03,1.036 1.309,3.581 2.007,5.354"
         style="fill:#26285e;fill-opacity:1;fill-rule:nonzero;stroke:none;stroke-width:0.1"
         id="path1308" />
      <path
         d="m 272.667,225.741 -0.569,-0.096 -3.021,17.813 0.568,0.096 3.022,-17.813"
         style="fill:#211c1d;fill-opacity:1;fill-rule:nonzero;stroke:none;stroke-width:0.1"
         id="path1310" />
      <path
         d="m 253.292,225.741 0.568,-0.096 3.022,17.813 -0.568,0.096 -3.022,-17.813"
         style="fill:#211c1d;fill-opacity:1;fill-rule:nonzero;stroke:none;stroke-width:0.1"
         id="path1312" />
      <path
         d="m 344.056,222.738 h 2.272 l -5.202,28.104 h -4.006 l 6.936,-28.104"
         style="fill:#7c2623;fill-opacity:1;fill-rule:nonzero;stroke:none;stroke-width:0.1"
         id="path1314" />
      <path
         d="m 273.53,244.572 c 0,-1.596 -4.719,-2.89 -10.539,-2.89 -5.82,0 -10.538,1.294 -10.538,2.89 0,1.595 4.718,2.889 10.538,2.889 5.82,0 10.539,-1.294 10.539,-2.889"
         style="fill:#eca90f;fill-opacity:1;fill-rule:nonzero;stroke:none;stroke-width:0.1"
         id="path1316" />
      <path
         d="m 273.53,246.124 c 0,-1.596 -4.719,-2.89 -10.539,-2.89 -5.82,0 -10.538,1.294 -10.538,2.89 0,1.596 4.718,2.889 10.538,2.889 5.82,0 10.539,-1.293 10.539,-2.889"
         style="fill:#f9d859;fill-opacity:1;fill-rule:nonzero;stroke:none;stroke-width:0.1"
         id="path1318" />
      <path
         d="m 250.419,222.738 h -2.272 l 5.202,28.104 h 4.006 l -6.936,-28.104"
         style="fill:#7c2623;fill-opacity:1;fill-rule:nonzero;stroke:none;stroke-width:0.1"
         id="path1320" />
      <path
         d="m 249.527,241.901 c 0.615,-1.011 0.802,-2.679 0.74,-3.86 -0.061,-1.182 -0.357,-2.338 -0.651,-3.484 -0.253,-0.984 -0.506,-1.968 -0.758,-2.952 -0.206,-0.8 -0.417,-1.614 -0.849,-2.318 -0.113,-0.183 -0.364,-0.371 -0.51,-0.214 -0.63,0.69 -0.665,1.721 -0.637,2.655 0.069,2.343 0.315,4.681 0.735,6.988 0.175,0.956 -1.328,2.054 -1.669,2.965 -0.206,0.55 -0.661,2.256 0.53,1.865 0.761,-0.25 2.667,-0.985 3.069,-1.645"
         style="fill:#f28c73;fill-opacity:1;fill-rule:nonzero;stroke:none;stroke-width:0.1"
         id="path1322" />
      <path
         d="m 246.68,230.341 c 0.522,-0.048 0.376,-0.849 -0.142,-0.802 0.19,-0.017 -0.02,-0.067 -0.116,-0.156 l -0.17,-0.22 c -0.038,-0.273 0.538,-0.671 0.696,-0.818 0.558,-0.526 1.141,-1.024 1.708,-1.539 0.37,-0.337 0.722,-0.722 1.139,-1.005 0.401,-0.271 0.688,-0.294 0.992,0.116 0.311,0.422 0.93,-0.107 0.62,-0.527 -1.182,-1.6 -2.809,0.38 -3.738,1.208 -0.462,0.412 -0.928,0.82 -1.376,1.247 -0.316,0.302 -0.727,0.629 -0.83,1.076 -0.147,0.645 0.544,1.48 1.217,1.42"
         style="fill:#181c1b;fill-opacity:1;fill-rule:nonzero;stroke:none;stroke-width:0.1"
         id="path1324" />
      <path
         d="m 249.461,229.222 c 0.822,-0.742 1.868,-1.502 2.158,-2.575 0.399,-1.47 -0.972,-1.681 -1.987,-1.088 -0.509,0.298 -0.923,0.731 -1.329,1.158 -0.697,0.733 -1.394,1.466 -2.091,2.199 -0.568,0.597 -0.238,1.442 0.569,1.642 0.663,0.164 2.456,-1.207 2.68,-1.336"
         style="fill:#181c1b;fill-opacity:1;fill-rule:nonzero;stroke:none;stroke-width:0.1"
         id="path1326" />
      <path
         d="m 268.371,243.686 c 0,0 0.387,7.854 -1.379,9.177 -1.766,1.323 -4.66,-2.765 -4.66,-2.765 0,0 0.561,-6.987 1.728,-8.019 1.166,-1.033 4.311,1.607 4.311,1.607"
         style="fill:#26285e;fill-opacity:1;fill-rule:nonzero;stroke:none;stroke-width:0.1"
         id="path1328" />
      <path
         d="m 256.889,273.448 c 3.245,0.44 6.499,0.808 9.748,1.212 l -0.289,1.841 c -0.024,0.108 -0.055,0.209 -0.093,0.302 0.026,0.355 0.219,3.15 -0.009,4.205 -0.434,2.009 -0.604,3.872 -1.792,4.952 -1.296,1.177 -3.559,1.327 -4.875,0.796 -1.426,-0.575 -3.058,-1.155 -3.766,-3.128 -0.666,-1.856 -0.042,-4.829 0.536,-6.849 0.149,-0.522 0.491,-2.75 0.54,-3.331"
         style="fill:#602015;fill-opacity:1;fill-rule:nonzero;stroke:none;stroke-width:0.1"
         id="path1330" />
      <path
         d="m 262.784,272.397 c -0.713,-0.668 -2.277,-0.941 -2.944,0.018 -0.315,-0.014 -0.641,0.312 -0.53,0.825 l 0.033,0.154 c 0.003,0.085 0.019,0.174 0.052,0.264 0.052,0.311 0.089,0.625 0.125,0.94 0.015,0.127 0.029,0.253 0.045,0.38 l 10e-4,0.248 c -0.004,0.186 0.037,0.331 0.105,0.436 l 0.016,0.077 0.044,0.198 c 0.171,0.7 0.86,0.564 0.988,-0.004 0.121,-0.068 0.226,-0.197 0.284,-0.398 l 0.026,-0.103 c 0.035,-0.152 0.054,-0.31 0.06,-0.471 l 0.005,-0.002 0.015,-0.007 c 0.184,0.13 0.425,0.119 0.588,-0.069 l 0.234,0.03 0.051,0.093 0.063,0.193 c 0.219,0.458 0.8,0.29 0.92,-0.211 0.027,-0.105 0.032,-0.226 0.009,-0.358 -0.027,-0.151 -0.043,-0.303 -0.051,-0.457 0.009,-0.122 0.019,-0.244 0.028,-0.366 v -0.001 c 0.017,-0.22 0.033,-0.439 0.039,-0.659 0.05,-0.259 10e-4,-0.555 -0.206,-0.75"
         style="fill:#f8a378;fill-opacity:1;fill-rule:nonzero;stroke:none;stroke-width:0.1"
         id="path1332" />
      <path
         d="m 262.974,274.63 c -0.027,-0.151 -0.043,-0.303 -0.051,-0.457 0.009,-0.122 0.019,-0.244 0.028,-0.366 v -0.001 c 0,0 -1.163,-2.213 -3.556,-0.148 0.015,0.127 0.154,1.193 0.17,1.32 l 10e-4,0.248 c -0.004,0.186 0.037,0.331 0.105,0.436 l 0.016,0.077 1.342,-0.307 1.016,-0.233 0.92,-0.211 c 0.027,-0.105 0.032,-0.226 0.009,-0.358"
         style="fill:#f28c73;fill-opacity:1;fill-rule:nonzero;stroke:none;stroke-width:0.1"
         id="path1334" />
      <path
         d="m 264.335,283.745 c -0.18,0.145 -0.404,0.263 -0.681,0.346 -0.534,0.16 -1.306,-0.16 -1.85,-0.125 -0.929,0.06 -2.253,0.285 -2.907,-0.535 -0.607,-0.763 -0.333,-1.792 -0.34,-2.727 -0.002,-0.195 -0.015,-0.389 -0.034,-0.582 l -0.03,0.023 c -0.224,0.158 -0.478,0.233 -0.752,0.195 -0.205,-0.029 -0.441,-0.203 -0.454,-0.43 -0.044,-0.748 0.407,-1.364 1.006,-1.772 l 0.016,-0.01 c -0.003,-0.315 0.024,-0.632 0.104,-0.953 0.279,-1.115 1.107,-1.831 1.966,-2.525 0.793,-0.641 1.638,-0.673 2.565,-0.274 0.939,0.403 1.323,1.186 1.599,2.123 0.3,1.017 0.569,2.014 0.477,3.081 -0.112,1.308 0.439,3.265 -0.685,4.165"
         style="fill:#f8a378;fill-opacity:1;fill-rule:nonzero;stroke:none;stroke-width:0.1"
         id="path1336" />
      <path
         d="m 266.599,269.412 c -0.028,0.868 0.027,1.733 0.221,2.608 -0.343,0.134 -0.712,0.224 -1.085,0.299 -0.177,0.035 -0.354,0.067 -0.531,0.099 -0.387,0.069 -0.766,0.137 -1.115,0.235 -0.536,0.152 -0.985,0.275 -1.511,0.013 -0.296,-0.146 -0.582,-0.336 -0.91,-0.373 -0.589,-0.066 -0.889,0.344 -1.345,0.603 -0.188,0.106 -0.372,0.158 -0.567,0.181 -0.433,0.048 -0.954,-0.348 -1.347,-0.499 -0.505,-0.193 -1.018,-0.367 -1.532,-0.535 l -0.027,-0.008 c -0.196,-0.066 -0.394,-0.13 -0.591,-0.194 -0.192,-0.062 -0.383,-0.125 -0.575,-0.188 l -0.23,-0.09 c -0.348,-0.16 -0.55,-0.395 -0.626,-0.824 -0.034,-0.189 -0.037,-0.377 -0.024,-0.564 l 0.15,-0.134 c 0.334,-0.415 0.51,-0.861 0.63,-1.335 -0.011,-0.083 -0.007,-0.171 0.016,-0.265 0.098,-0.417 0.209,-0.835 0.257,-1.261 0.033,-0.291 0.175,-0.529 0.418,-0.639 0.084,-0.037 0.179,-0.06 0.286,-0.064 0.284,-0.014 0.566,-0.003 0.845,0.018 0.4,0.032 0.796,0.089 1.196,0.143 0.098,0.013 0.196,0.025 0.294,0.036 0.178,0.02 0.356,0.034 0.534,0.046 l 0.155,-0.229 c 1.325,-1.127 3.241,-1.29 4.523,-0.002 l 0.144,0.255 c 0.184,0.008 0.368,0.019 0.551,0.035 0.198,-0.187 0.49,-0.261 0.794,-0.073 0.495,0.306 0.894,0.877 1.056,1.485 0.094,0.351 0.109,0.715 0.018,1.046 l -0.072,0.175"
         style="fill:#f8a378;fill-opacity:1;fill-rule:nonzero;stroke:none;stroke-width:0.1"
         id="path1338" />
      <path
         d="m 255.906,255.198 c 0.443,1.369 1.083,2.856 0.969,4.208 -0.044,0.522 -0.188,1.012 -0.364,1.492 -0.084,0.228 -0.175,0.456 -0.265,0.683 -0.063,-0.163 -0.127,-0.325 -0.192,-0.487 -0.389,-0.963 -1.456,-4.318 -1.671,-5.345 -0.033,-0.158 -1.041,-0.08 -1.671,0.026 -0.188,0.031 -0.4,0.067 -0.613,0.139 -0.592,0.202 -0.164,3.153 0.005,3.755 0.198,0.703 0.447,1.406 0.583,2.111 0.306,1.591 0.347,3.169 0.466,4.78 0.11,1.502 0.298,3.207 1.184,4.481 0.561,0.807 4.402,0.251 7.558,0.396 2.395,0.11 4.298,1.029 4.642,0.908 1.141,-0.401 1.707,-1.366 2.145,-2.436 0.431,-1.052 0.679,-2.161 0.992,-3.25 0.438,-1.515 0.452,-3.138 0.981,-4.624 0.246,-0.69 2.951,-5.743 2.584,-6.428 -0.322,-0.601 -0.683,-1.28 -1.121,-1.794 -0.345,-0.406 -3.595,4.37 -3.861,4.722 -0.437,0.579 -0.741,1.233 -0.989,1.917 -0.111,0.306 -0.21,0.62 -0.306,0.934 -0.105,-0.18 -0.205,-0.36 -0.288,-0.549 -0.132,-0.299 -0.222,-0.619 -0.225,-0.986 -0.01,-1.078 0.454,-2.105 0.74,-3.128 0.45,-1.605 1.186,-3.573 1.168,-5.257 -0.001,-0.138 -0.016,-0.254 -0.054,-0.329 l -0.091,-0.17 c -0.505,-0.833 -1.5,-1.07 -2.378,-1.299 -2.717,-0.708 -5.726,-1.495 -8.499,-0.612 -0.982,0.313 -2.037,0.81 -2.309,1.899 -0.233,0.933 0.413,2.482 0.636,3.4 0.067,0.275 0.152,0.556 0.244,0.843"
         style="fill:#94cfd8;fill-opacity:1;fill-rule:nonzero;stroke:none;stroke-width:0.1"
         id="path1340" />
      <path
         d="m 266.029,261.124 c 0.29,-0.015 0.497,-0.131 0.645,-0.287 0.083,0.189 0.183,0.369 0.288,0.549 0.096,-0.314 0.195,-0.628 0.306,-0.934 0.44,1.167 1.275,3.895 0.039,5.132 1.174,-2.84 -1.278,-4.46 -1.278,-4.46"
         style="fill:#72abb6;fill-opacity:1;fill-rule:nonzero;stroke:none;stroke-width:0.1"
         id="path1342" />
      <path
         d="m 257.87,260.701 c 0,0 -0.84,0.423 -1.624,0.88 0.09,-0.228 0.181,-0.455 0.265,-0.683 0.638,-0.201 1.359,-0.197 1.359,-0.197"
         style="fill:#72abb6;fill-opacity:1;fill-rule:nonzero;stroke:none;stroke-width:0.1"
         id="path1344" />
      <path
         d="m 255.669,261.448 c 0.089,-0.143 0.224,-0.26 0.385,-0.354 0.065,0.162 0.129,0.324 0.192,0.487 -0.768,0.447 -0.059,3.586 -0.03,3.715 -0.037,-0.113 -1.007,-3.107 -0.547,-3.848"
         style="fill:#72abb6;fill-opacity:1;fill-rule:nonzero;stroke:none;stroke-width:0.1"
         id="path1346" />
      <path
         d="m 260.767,223.867 c 0.22,0.88 0.503,1.734 0.998,2.522 0.275,0.401 0.573,0.578 0.849,0.226 -0.039,0.05 0.543,0.343 0.685,0.237 0.249,-0.187 0.23,-0.973 0.259,-1.322 0.08,-0.995 0.066,-2.021 -0.042,-3.049 0.009,-0.56 -0.163,-1.172 -0.216,-1.68 -0.033,-0.309 -0.107,-0.66 -0.374,-0.856 l -0.246,-0.104 c -0.213,-0.362 -0.606,-0.463 -0.934,-0.2 -0.144,-0.083 -0.305,-0.115 -0.48,-0.036 -0.17,0.076 -0.274,0.234 -0.366,0.396 -0.121,-0.044 -0.245,-0.059 -0.379,0.004 -0.204,0.095 -0.322,0.333 -0.354,0.545 -0.082,0.549 0.101,1.082 0.219,1.612 0.127,0.571 0.241,1.143 0.381,1.705"
         style="fill:#f8a378;fill-opacity:1;fill-rule:nonzero;stroke:none;stroke-width:0.1"
         id="path1348" />
      <path
         d="m 256.811,223.579 c 0.018,0.123 0.041,0.243 0.069,0.359 0.263,1.064 0.625,2.098 1.072,3.069 0.149,0.324 0.407,1.076 0.709,1.182 0.172,0.06 0.62,-0.384 0.565,-0.42 0.385,0.256 0.605,0.002 0.725,-0.457 0.211,-0.805 0.116,-2.241 0.064,-2.681 -0.019,-0.155 -0.041,-0.313 -0.068,-0.472 -0.05,-0.412 -0.153,-0.815 -0.252,-1.223 -0.102,-0.421 -0.148,-0.849 -0.242,-1.27 -0.06,-0.265 -0.14,-0.606 -0.397,-0.749 -0.209,-0.115 -0.391,-0.052 -0.538,0.078 -0.126,-0.136 -0.268,-0.235 -0.509,-0.206 -0.158,0.02 -0.272,0.087 -0.352,0.182 -0.151,0.043 -0.282,0.137 -0.395,0.268 -0.159,0.112 -0.286,0.297 -0.347,0.507 -0.272,0.114 -0.36,0.488 -0.332,0.837 0.027,0.334 0.106,0.673 0.228,0.996"
         style="fill:#f8a378;fill-opacity:1;fill-rule:nonzero;stroke:none;stroke-width:0.1"
         id="path1350" />
      <path
         d="m 258.559,238.637 c 0.207,2.279 -0.087,6.09 3.132,6.425 0.707,0.074 1.378,0.305 2.193,0.012 0.409,-0.704 0,-2.855 -0.188,-3.694 -0.531,-2.369 -1.084,-4.721 -1.53,-7.112 -0.157,-0.844 -0.426,-1.653 -0.715,-2.456 -0.274,-0.76 -0.073,-7.114 -3.499,-4.805 -1.312,0.885 -0.057,3.663 -0.034,5.154 0.034,2.16 0.445,4.322 0.641,6.476"
         style="fill:#26285e;fill-opacity:1;fill-rule:nonzero;stroke:none;stroke-width:0.1"
         id="path1352" />
      <path
         d="m 261.192,226.82 c 0.156,1.411 1.036,5.95 1.2,6.795 0.465,2.392 0.817,4.792 1.195,7.199 0.314,2.002 0.565,3.638 2.988,3.756 0.634,0.031 1.47,-0.537 1.796,-0.884 0.322,-0.341 0.061,-2.407 -0.11,-3.406 -0.234,-1.372 -0.553,-2.73 -0.945,-4.066 -0.573,-1.954 -1.756,-9.845 -3.152,-10.844 -1.832,-1.312 -2.98,1.375 -2.972,1.45"
         style="fill:#26285e;fill-opacity:1;fill-rule:nonzero;stroke:none;stroke-width:0.1"
         id="path1354" />
      <path
         d="m 259.411,220.326 c 0.657,0.917 0.728,2.391 0.514,3.388 -0.369,-0.61 -0.568,-1.453 -1.419,-1.544 -0.709,-0.075 -1.328,0.396 -1.506,1.078 -0.081,0.309 -0.074,0.631 -0.018,0.943 0.049,0.272 0.116,0.541 0.189,0.802 -0.536,-0.59 -0.74,-1.423 -0.855,-2.19 -0.106,-0.71 -0.244,-1.574 -0.036,-2.274 0.317,-1.07 1.54,-1.302 2.457,-0.808 0.272,0.147 0.495,0.355 0.674,0.605"
         style="fill:#211c1d;fill-opacity:1;fill-rule:nonzero;stroke:none;stroke-width:0.1"
         id="path1356" />
      <path
         d="m 259.658,219.712 c -0.226,1.106 0.309,2.481 0.911,3.304 0.089,-0.707 -0.073,-1.559 0.667,-1.988 0.617,-0.358 1.374,-0.18 1.815,0.371 0.199,0.249 0.324,0.546 0.4,0.853 0.066,0.269 0.114,0.542 0.154,0.81 0.249,-0.756 0.096,-1.601 -0.112,-2.348 -0.192,-0.692 -0.418,-1.537 -0.893,-2.092 -0.726,-0.848 -1.937,-0.561 -2.573,0.264 -0.189,0.244 -0.307,0.525 -0.369,0.826"
         style="fill:#211c1d;fill-opacity:1;fill-rule:nonzero;stroke:none;stroke-width:0.1"
         id="path1358" />
      <path
         d="m 273.312,253.78 c -0.129,0.066 -0.151,0.271 -0.268,0.356 l -10e-4,0.001 c 0.091,0.025 0.182,0.053 0.272,0.084 l 0.096,0.015 0.26,-0.017 c 0.08,-0.195 0.17,-0.385 0.265,-0.573 -0.204,0.036 -0.474,0.058 -0.624,0.134 z m 0.642,1.882 c -0.156,0.032 -0.326,0.047 -0.509,0.055 -0.469,0.022 -0.947,0.042 -1.4,-0.081 -0.503,-0.136 -1.12,-0.599 -1.242,-1.134 -0.005,-0.095 -0.005,-0.19 -10e-4,-0.284 0.002,-0.113 -0.009,-0.222 -0.031,-0.326 0.104,-0.135 0.208,-0.249 0.408,-0.355 0.295,-0.156 0.609,-0.28 0.93,-0.371 0.629,-0.178 1.367,-0.265 1.979,0.018 l 0.067,0.051 0.11,-0.197 c 0.132,-0.236 0.523,-0.244 0.605,0.043 0.162,0.564 0.124,1.244 -0.041,1.8 -0.148,0.497 -0.459,0.697 -0.875,0.781"
         style="fill:#f8a378;fill-opacity:1;fill-rule:nonzero;stroke:none;stroke-width:0.1"
         id="path1360" />
      <path
         d="m 261.709,254.266 c -0.13,0.066 -0.151,0.271 -0.269,0.356 l -10e-4,10e-4 c 0.092,0.025 0.182,0.052 0.272,0.083 l 0.096,0.016 0.26,-0.018 c 0.08,-0.195 0.17,-0.385 0.265,-0.572 -0.204,0.036 -0.474,0.057 -0.623,0.134 z m 0.642,1.882 c -0.156,0.031 -0.327,0.047 -0.51,0.055 -0.469,0.022 -0.947,0.042 -1.4,-0.081 -0.503,-0.137 -1.119,-0.6 -1.242,-1.135 -0.004,-0.094 -0.005,-0.189 -0.001,-0.284 0.002,-0.112 -0.009,-0.221 -0.03,-0.326 0.104,-0.134 0.207,-0.248 0.407,-0.354 0.295,-0.157 0.609,-0.28 0.93,-0.371 0.629,-0.178 1.367,-0.265 1.979,0.018 l 0.068,0.05 0.109,-0.196 c 0.133,-0.236 0.523,-0.245 0.606,0.043 0.161,0.563 0.123,1.243 -0.042,1.8 -0.148,0.497 -0.458,0.697 -0.874,0.781"
         style="fill:#f8a378;fill-opacity:1;fill-rule:nonzero;stroke:none;stroke-width:0.1"
         id="path1362" />
      <path
         d="m 251.89,258.418 8.706,-2.37 -0.376,-1.24 c 0,0 -7.532,-0.406 -8.153,0.404 -0.622,0.811 -0.177,3.206 -0.177,3.206"
         style="fill:#94cfd8;fill-opacity:1;fill-rule:nonzero;stroke:none;stroke-width:0.1"
         id="path1364" />
      <path
         d="m 258.194,282.156 6.866,0.469 c 0,0 0.048,2.441 -2.052,2.441 -2.1,0 -5.113,-0.899 -4.814,-2.91"
         style="fill:#602015;fill-opacity:1;fill-rule:nonzero;stroke:none;stroke-width:0.1"
         id="path1366" />
      <path
         d="m 259.168,242.727 c 0,0 -4.95,5.319 -3.623,8.342 1.328,3.023 7.825,0 7.825,0 l 0.689,-7.104 -4.891,-1.238"
         style="fill:#26285e;fill-opacity:1;fill-rule:nonzero;stroke:none;stroke-width:0.1"
         id="path1368" />
      <path
         d="m 248.809,240.991 c 0.615,-1.011 0.154,-3.097 0.092,-4.279 -0.061,-1.181 -0.357,-2.337 -0.651,-3.483 -0.253,-0.984 -0.506,-1.968 -0.758,-2.953 -0.206,-0.8 -0.417,-1.613 -0.849,-2.317 -0.113,-0.183 -0.364,-0.371 -0.51,-0.214 -0.63,0.69 -0.665,1.721 -0.638,2.654 0.07,2.344 -0.361,4.273 0.911,7.945 0.318,0.919 -4.299,0.562 -2.66,1.401 -0.206,0.55 1.203,3.164 2.395,2.773 0.76,-0.25 2.266,-0.866 2.668,-1.527"
         style="fill:#f8a378;fill-opacity:1;fill-rule:nonzero;stroke:none;stroke-width:0.1"
         id="path1370" />
      <path
         d="m 246.678,243.736 c -0.727,-0.315 -0.224,-0.837 -0.7,-1.47 -0.094,-0.126 -1.33,-0.245 -1.459,-0.336 -0.136,-0.097 -0.304,-0.138 -0.468,-0.168 -0.558,-0.103 -1.133,-0.108 -1.693,-0.016 -0.598,0.099 -1.171,0.308 -1.741,0.515 -0.241,0.088 -0.499,0.188 -0.639,0.403 -0.14,0.215 -0.126,0.504 -0.014,0.735 0.111,0.231 0.307,0.41 0.516,0.558 1.585,1.114 4.531,0.43 6.198,-0.221"
         style="fill:#72abb6;fill-opacity:1;fill-rule:nonzero;stroke:none;stroke-width:0.1"
         id="path1372" />
      <path
         d="m 245.395,229.994 c 0.564,-0.132 0.281,-0.984 -0.277,-0.854 0.204,-0.048 -0.032,-0.07 -0.151,-0.153 l -0.219,-0.213 c -0.083,-0.293 0.485,-0.816 0.634,-1.001 0.529,-0.659 1.09,-1.293 1.63,-1.943 0.353,-0.424 0.679,-0.899 1.09,-1.271 0.396,-0.358 0.707,-0.428 1.102,-0.025 0.404,0.412 0.999,-0.26 0.597,-0.671 -1.537,-1.567 -3.01,0.845 -3.898,1.891 -0.442,0.521 -0.889,1.038 -1.313,1.574 -0.299,0.378 -0.697,0.798 -0.741,1.302 -0.062,0.727 0.821,1.534 1.546,1.364"
         style="fill:#181c1b;fill-opacity:1;fill-rule:nonzero;stroke:none;stroke-width:0.1"
         id="path1374" />
      <path
         d="m 234.699,245.059 c -0.269,-1.253 -0.525,-2.618 0.042,-3.766 0.762,-1.545 2.712,-2.081 4.435,-2.082 1.722,-0.001 4.088,0.138 5.748,-0.322 0.136,-0.038 0.286,-0.08 0.415,-0.021 0.151,0.069 0.212,0.249 0.256,0.409 0.269,0.989 0.375,2.23 0.546,3.241 -0.888,0.348 -3.264,0.394 -4.191,0.612 -0.882,0.209 -0.77,0.523 -1.594,0.9 -1.288,0.589 -2.736,0.824 -4.144,0.673 -0.564,-0.061 -1.281,-0.109 -1.544,0.394 0.159,-0.219 0.319,-0.437 0.479,-0.656 l -0.448,0.618"
         style="fill:#94cfd8;fill-opacity:1;fill-rule:nonzero;stroke:none;stroke-width:0.1"
         id="path1376" />
      <path
         d="m 248.262,228.346 c 0.784,-0.936 1.809,-1.927 1.963,-3.143 0.21,-1.667 -1.32,-1.687 -2.338,-0.883 -0.51,0.402 -0.896,0.938 -1.274,1.467 -0.649,0.908 -1.298,1.815 -1.947,2.723 -0.528,0.739 -0.039,1.611 0.873,1.706 0.749,0.077 2.498,-1.695 2.723,-1.87"
         style="fill:#252323;fill-opacity:1;fill-rule:nonzero;stroke:none;stroke-width:0.1"
         id="path1378" />
      <path
         d="m 234.265,245.258 c 0.213,-0.41 0.541,-0.729 0.885,-1.003 0.336,-0.266 0.692,-0.496 1.062,-0.687 0.921,-0.479 1.934,-0.727 2.944,-0.738 1.071,-0.012 3.393,-0.056 3.854,1.354 0.14,0.428 0.132,0.898 0.123,1.354 -0.079,3.421 -0.18,6.856 -0.422,10.267 -0.17,2.392 -0.492,5.175 -2.399,6.606 -0.493,0.592 -1.594,0.663 -2.446,0.568 0.495,0.604 -0.388,0.341 -0.547,0.282 -0.503,-0.184 -1.064,-0.716 -1.441,-1.086 -0.925,-0.91 -1.378,-2.253 -0.583,-3.411 l 0.073,-0.075 c -0.071,-1.181 0.008,-2.438 0.046,-3.573 0.017,-0.502 0.026,-0.98 0.011,-1.417 -0.063,-1.811 -0.181,-3.642 -0.472,-5.432 -0.022,-0.133 -0.044,-0.266 -0.068,-0.399 -0.058,-0.327 -0.123,-0.653 -0.194,-0.976 -0.121,-0.551 -0.262,-1.097 -0.426,-1.634"
         style="fill:#26285e;fill-opacity:1;fill-rule:nonzero;stroke:none;stroke-width:0.1"
         id="path1380" />
      <path
         d="m 234.265,245.258 c 0.213,-0.41 0.541,-0.729 0.885,-1.003 0.336,-0.266 0.692,-0.496 1.062,-0.687 0.097,1.65 0.376,5.653 0.908,7.833 0.683,2.793 0.323,4.576 0.323,4.576 l -0.723,-2.032 -1.306,1.171 c 0.017,-0.502 0.026,-0.98 0.011,-1.417 -0.063,-1.811 -0.181,-3.642 -0.472,-5.432 -0.166,-1.02 -0.388,-2.028 -0.688,-3.009"
         style="fill:#191b39;fill-opacity:1;fill-rule:nonzero;stroke:none;stroke-width:0.1"
         id="path1382" />
      <path
         d="m 239.776,271.27 -0.009,0.022 0.039,0.029 z m -2.296,-3.262 -0.021,-0.06 c -0.084,-0.268 0.204,-0.403 0.411,-0.317 0.102,-0.192 0.411,-0.266 0.528,-0.014 l 0.103,0.221 0.18,0.043 0.089,0.057 c 0.106,-0.059 0.241,-0.057 0.342,0.067 l 0.017,0.02 c 0.107,-0.121 0.301,-0.169 0.443,-0.015 0.894,0.969 1.552,2.195 1.8,3.495 0.06,0.314 -0.332,0.451 -0.509,0.274 -0.076,0.094 -0.203,0.129 -0.314,0.11 l 0.182,0.158 c 0.285,0.26 -0.161,0.659 -0.443,0.402 -0.664,-0.605 -1.51,-1.027 -2.076,-1.738 -0.542,-0.682 -0.745,-1.536 -0.924,-2.37 -0.037,-0.171 0.064,-0.289 0.192,-0.333"
         style="fill:#f8a378;fill-opacity:1;fill-rule:nonzero;stroke:none;stroke-width:0.1"
         id="path1384" />
      <path
         d="m 236.493,265.476 c 0.483,-0.646 0.987,-0.991 0.891,-1.896 -0.06,-0.556 -0.16,-0.557 0.323,-0.907 0.36,-0.259 0.73,-0.506 1.11,-0.735 0.16,-0.096 1.581,-0.589 1.633,-0.468 l 0.101,0.263 c 0.141,0.403 0.22,0.829 0.196,1.22 l -0.003,0.059 -0.003,0.015 0.226,-0.022 c 0.365,-0.044 0.739,-0.03 1.101,0.005 0.54,0.052 0.956,0.119 1.413,0.439 0.343,0.241 0.509,0.622 0.594,1.02 0.101,0.485 0.069,1 0.265,1.464 0.06,0.145 0.134,0.301 0.257,0.405 0.158,0.134 0.245,0.077 0.368,0.171 0.34,0.262 0.375,0.619 0.157,0.902 -0.414,0.536 -0.661,0.625 -0.833,1.306 -0.234,0.925 0.051,2.77 -0.598,3.54 -0.654,0.775 -2.356,0.661 -3.323,0.562 -2.293,-0.236 -4.716,-2.844 -4.643,-5.171 0.024,-0.779 0.301,-1.548 0.768,-2.172"
         style="fill:#f8a378;fill-opacity:1;fill-rule:nonzero;stroke:none;stroke-width:0.1"
         id="path1386" />
      <path
         d="m 244.038,270.661 c 0.818,0.238 1.468,0.976 1.6,1.817 -0.44,-0.172 -0.941,-0.181 -1.387,-0.026 0.418,0.324 0.626,0.897 0.513,1.414 -0.519,-0.446 -1.287,-0.47 -1.95,-0.302 -0.662,0.169 -1.273,0.499 -1.929,0.693 -0.991,0.293 -2.1,0.254 -3.016,-0.224 -0.916,-0.478 -1.605,-1.421 -1.663,-2.452 -0.484,0.117 -0.995,0.117 -1.478,-0.002 0.291,-0.19 0.583,-0.379 0.874,-0.569 -1.062,-1.098 -1.427,-2.818 -0.904,-4.253 0.137,-0.375 0.332,-0.734 0.607,-1.024 0.597,-0.632 1.556,-0.936 1.918,-1.727 -0.017,0.038 0.815,1.215 0.973,1.296 1.133,0.586 0.649,2.947 1.133,3.45 0.294,0.305 1.112,0.444 1.413,0.756 0.486,0.504 0.682,1.181 0.977,1.792 0.633,-0.566 1.468,-0.886 2.319,-0.639"
         style="fill:#252323;fill-opacity:1;fill-rule:nonzero;stroke:none;stroke-width:0.1"
         id="path1388" />
      <path
         d="m 239.228,267.147 c 0,0 -1.214,0.772 -0.911,1.785 0.304,1.013 1.233,-0.261 1.233,-0.261 0,0 -0.567,-0.756 -0.322,-1.524"
         style="fill:#f8a378;fill-opacity:1;fill-rule:nonzero;stroke:none;stroke-width:0.1"
         id="path1390" />
      <path
         d="m 238.604,264.283 c 0.103,-0.709 0.507,-1.339 0.961,-1.892 0.17,-0.206 0.353,-0.409 0.591,-0.53 0.123,-0.064 0.258,-0.102 0.395,-0.128 0.141,0.403 0.22,0.829 0.196,1.22 -0.174,0.114 -0.359,0.216 -0.558,0.306 -0.318,0.144 -1.526,0.622 -1.585,1.024"
         style="fill:#f28c73;fill-opacity:1;fill-rule:nonzero;stroke:none;stroke-width:0.1"
         id="path1392" />
      <path
         d="m 231.103,242.266 c 0.822,0.462 1.037,1.584 1.158,2.555 0.207,1.669 0.414,3.344 0.418,5.023 0,0.12 0,0.243 0.041,0.356 0.046,0.128 0.139,0.23 0.209,0.345 0.138,0.224 0.187,0.493 0.231,0.754 0.127,0.747 0.24,1.496 0.339,2.247 0.078,0.589 0.014,1.477 0.271,2.016 0.38,0.794 1.854,0.34 2.226,-0.305 0.238,-0.412 0.151,-0.946 0.044,-1.425 -0.279,-1.255 -0.64,-2.493 -1.077,-3.701 -0.135,-0.371 -0.277,-0.741 -0.362,-1.127 -0.084,-0.377 -0.112,-0.764 -0.157,-1.147 -0.189,-1.593 -0.683,-3.148 -1.402,-4.575 -0.145,-0.287 -0.301,-0.575 -0.363,-0.891 l -1.576,-0.125"
         style="fill:#f8a378;fill-opacity:1;fill-rule:nonzero;stroke:none;stroke-width:0.1"
         id="path1394" />
      <path
         d="m 236.72,253.945 c -0.152,0.013 1.202,3.334 1.274,3.563 0.533,1.697 1.381,4.582 -1.16,4.601 -1.909,0.014 -2.878,-2.491 -3.288,-4.202 -0.167,-0.698 -0.612,-2.273 -0.203,-2.883 0.565,-0.842 2.516,-1.003 3.377,-1.079"
         style="fill:#26285e;fill-opacity:1;fill-rule:nonzero;stroke:none;stroke-width:0.1"
         id="path1396" />
      <path
         d="m 232.198,243.217 c -1.767,-0.087 -2.412,-0.228 -3.822,-1.286 l 0.033,-0.083 c 0.409,0.035 0.841,0.3 1.213,0.476 l -1.556,-0.66 c -0.111,-0.033 -0.101,-0.195 0.013,-0.212 0.509,-0.074 1.162,0.263 1.613,0.513 -0.502,-0.053 -1.31,-0.393 -1.756,-0.63 l 0.045,-0.133 c 0.477,0.069 1.259,0.412 1.682,0.644 -0.389,-0.072 -1.076,-0.475 -1.401,-0.7 l 0.05,-0.146 c 0.655,0.051 1.616,0.413 2.193,0.726 0.004,-0.278 -0.558,-0.629 -0.675,-0.881 -0.075,-0.161 0.1,-0.323 0.256,-0.238 0.716,0.39 2.124,1.098 2.593,1.784 l -0.481,0.826"
         style="fill:#f8a378;fill-opacity:1;fill-rule:nonzero;stroke:none;stroke-width:0.1"
         id="path1398" />
      <path
         d="m 294.12,273.809 c -0.996,1.79 -3.598,0.842 -4.367,-0.678 -0.532,-1.05 -0.429,-2.461 0.181,-3.444 0.547,-0.88 1.487,-1.834 0.991,-2.951 0.117,-0.03 0.24,-0.03 0.358,0.014 1.054,0.39 0.971,1.587 0.795,2.496 -0.185,0.957 -0.44,3.659 1.346,4.32 0.38,0.141 -0.137,-1.072 0.181,-1.163 0.893,-0.257 1.306,1.065 0.515,1.406"
         style="fill:#45241b;fill-opacity:1;fill-rule:nonzero;stroke:none;stroke-width:0.1"
         id="path1400" />
      <path
         d="m 296.775,267.994 c -0.914,0.704 -1.582,1.568 -1.505,2.763 0.027,0.434 0.092,0.864 0.22,1.282 0.06,0.199 0.131,0.395 0.254,0.565 0.085,0.117 0.127,0.124 0.234,0.146 0.8,0.16 0.647,1.221 0.009,1.432 l -0.006,0.002 c -1.956,0.909 -3.26,-1.428 -3.509,-3.055 -0.322,-2.103 1.737,-4.627 3.912,-4.531 0.791,0.035 0.969,0.951 0.391,1.396"
         style="fill:#45241b;fill-opacity:1;fill-rule:nonzero;stroke:none;stroke-width:0.1"
         id="path1402" />
      <path
         d="m 296.328,232.374 c -0.003,0.486 -0.051,0.967 -0.248,1.44 -0.115,0.243 -0.28,0.374 -0.514,0.225 0.033,0.021 -0.297,0.248 -0.406,0.211 -0.191,-0.066 -0.303,-0.477 -0.377,-0.656 -0.209,-0.508 -0.362,-1.044 -0.455,-1.593 -0.094,-0.29 -0.079,-0.63 -0.125,-0.902 -0.028,-0.165 -0.035,-0.357 0.107,-0.493 l 0.143,-0.085 c 0.081,-0.216 0.319,-0.318 0.573,-0.223 0.08,-0.061 0.179,-0.099 0.306,-0.08 0.121,0.018 0.214,0.087 0.299,0.16 0.071,-0.038 0.149,-0.062 0.246,-0.046 0.147,0.023 0.262,0.133 0.315,0.238 0.141,0.276 0.106,0.577 0.114,0.867 0.007,0.314 0.024,0.627 0.022,0.937"
         style="fill:#f8a378;fill-opacity:1;fill-rule:nonzero;stroke:none;stroke-width:0.1"
         id="path1404" />
      <path
         d="m 300.95,231.535 -0.002,0.196 c -0.046,0.587 -0.16,1.166 -0.339,1.721 -0.06,0.186 -0.14,0.607 -0.327,0.692 -0.106,0.048 -0.457,-0.143 -0.425,-0.168 -0.224,0.172 -0.4,0.06 -0.535,-0.171 -0.237,-0.404 -0.347,-1.17 -0.366,-1.407 l -0.012,-0.256 c -0.016,-0.221 0.003,-0.444 0.02,-0.669 0.016,-0.231 -0.005,-0.461 0.007,-0.693 0.007,-0.145 0.019,-0.333 0.172,-0.432 0.124,-0.081 0.253,-0.066 0.365,-0.011 0.068,-0.084 0.15,-0.15 0.313,-0.157 0.106,-0.005 0.19,0.019 0.255,0.062 0.105,0.008 0.203,0.044 0.294,0.103 0.118,0.044 0.224,0.129 0.29,0.234 0.194,0.034 0.298,0.222 0.321,0.409 0.023,0.179 0.011,0.365 -0.031,0.547"
         style="fill:#f8a378;fill-opacity:1;fill-rule:nonzero;stroke:none;stroke-width:0.1"
         id="path1406" />
      <path
         d="m 300.37,255.294 c -0.323,-0.144 -0.649,-0.291 -0.946,-0.466 -0.437,-0.257 -0.643,-0.635 -0.767,-1.063 l -0.05,-0.191 c -0.027,-0.116 -0.049,-0.234 -0.07,-0.354 -0.199,-1.128 -0.167,-2.266 -0.052,-3.392 0,-0.098 0,-0.196 0.002,-0.295 0.043,-2.651 0.101,-5.304 0.216,-7.95 0.056,-1.3 0.126,-2.594 0.132,-3.897 0.002,-0.46 0.071,-0.913 0.151,-1.364 0.081,-0.751 0.181,-1.5 0.251,-2.255 l 0.012,-0.137 c 0.015,-0.176 0.029,-0.352 0.041,-0.529 0.014,-0.232 0.263,-0.377 0.479,-0.368 0.249,0.011 0.415,0.197 0.461,0.424 l 0.049,0.244 c 0.077,0.067 0.134,0.163 0.153,0.288 0.281,1.886 0.71,3.757 0.892,5.653 0.095,0.981 0.113,1.962 0.043,2.939 -0.065,0.916 -0.299,1.842 -0.235,2.765 0.019,0.272 0.059,0.54 0.112,0.807 0.168,0.401 0.268,0.828 0.421,1.225 0.292,0.76 0.508,1.544 0.725,2.32 l 0.069,0.259 c -0.78,1.747 -1.532,3.51 -2.089,5.337"
         style="fill:#f8a378;fill-opacity:1;fill-rule:nonzero;stroke:none;stroke-width:0.1"
         id="path1408" />
      <path
         d="m 297.65,253.865 0.002,0.038 c -0.109,0.366 -0.298,0.688 -0.668,0.918 -0.4,0.248 -0.858,0.442 -1.283,0.649 -0.33,0.162 -0.7,0.335 -1.077,0.404 -0.351,-0.849 -0.744,-1.687 -0.983,-2.563 l -0.083,-0.162 0.012,-0.209 c 0.058,-0.864 0.127,-1.723 0.269,-2.578 0.142,-0.85 0.341,-1.688 0.561,-2.522 0.216,-0.82 0.436,-1.645 0.456,-2.497 0.021,-0.925 -0.253,-1.85 -0.36,-2.767 -0.114,-0.977 -0.142,-1.959 -0.093,-2.942 0.093,-1.9 0.43,-3.776 0.621,-5.666 0.013,-0.126 0.065,-0.222 0.138,-0.29 l 0.037,-0.245 c 0.035,-0.227 0.191,-0.414 0.436,-0.427 0.214,-0.011 0.467,0.132 0.492,0.364 0.019,0.177 0.041,0.354 0.065,0.53 l 0.018,0.137 c 0.104,0.754 0.237,1.503 0.352,2.255 0.101,0.451 0.19,0.903 0.213,1.364 0.065,1.304 0.194,2.599 0.31,3.9 0.163,1.829 0.299,3.662 0.423,5.495 -0.164,2.264 0.138,4.548 0.142,6.814"
         style="fill:#f8a378;fill-opacity:1;fill-rule:nonzero;stroke:none;stroke-width:0.1"
         id="path1410" />
      <path
         d="m 296.056,234.045 c -0.189,-0.173 -0.71,-0.073 -0.923,0.027 -0.244,0.115 -0.465,-0.189 -0.221,-0.304 0.382,-0.179 1.126,-0.272 1.454,0.028 0.185,0.17 -0.123,0.42 -0.31,0.249"
         style="fill:#292427;fill-opacity:1;fill-rule:nonzero;stroke:none;stroke-width:0.1"
         id="path1412" />
      <path
         d="m 300.304,233.965 c -0.268,-0.171 -0.644,-0.212 -0.932,-0.054 -0.235,0.129 -0.453,-0.178 -0.22,-0.305 0.462,-0.253 1.053,-0.152 1.467,0.112 0.222,0.142 -0.095,0.387 -0.315,0.247"
         style="fill:#292427;fill-opacity:1;fill-rule:nonzero;stroke:none;stroke-width:0.1"
         id="path1414" />
      <path
         d="m 300.624,268.129 c -0.095,0.726 -0.377,1.416 -0.504,2.137 -0.07,0.393 -0.133,0.78 -0.264,1.158 -0.121,0.351 -0.312,0.679 -0.419,1.035 -0.097,0.321 -0.349,0.572 -0.712,0.514 l -0.185,-0.067 c -0.281,0.268 -0.649,0.442 -1.131,0.462 -1.176,0.05 -2.247,-0.717 -2.67,-1.799 -0.311,-0.795 -0.274,-1.687 -0.019,-2.505 0.154,-0.165 0.248,-0.392 0.273,-0.635 0.06,-0.603 0.205,-1.194 0.347,-1.785 0.338,-0.292 0.733,-0.513 1.145,-0.746 0.829,-0.468 1.852,-1.034 2.827,-0.675 1.118,0.412 1.45,1.846 1.312,2.906"
         style="fill:#f8a378;fill-opacity:1;fill-rule:nonzero;stroke:none;stroke-width:0.1"
         id="path1416" />
      <path
         d="m 298.707,274.09 c -1.048,0.555 -2.114,0.482 -3.221,0.162 -0.448,-0.13 -0.597,-0.503 -0.517,-0.848 -0.223,-0.03 -0.433,-0.145 -0.525,-0.352 -0.318,-0.715 -0.199,-1.274 -0.084,-2.018 0.026,-0.17 0.041,-0.274 -0.035,-0.392 -0.119,-0.183 -0.391,-0.333 -0.538,-0.499 -0.64,-0.72 0.409,-1.795 1.053,-1.071 0.367,0.414 0.845,0.671 0.992,1.246 0.088,0.341 0.052,0.684 -0.006,1.027 -0.032,0.185 -0.117,0.422 -0.132,0.641 0.21,-0.351 0.339,-0.802 0.483,-1.122 0.125,-0.281 0.557,-0.454 0.845,-0.352 0.781,0.275 1.536,0.789 2.381,0.823 0.309,0.013 0.664,0.215 0.729,0.545 0.2,1.015 -0.595,1.77 -1.425,2.21"
         style="fill:#45241b;fill-opacity:1;fill-rule:nonzero;stroke:none;stroke-width:0.1"
         id="path1418" />
      <path
         d="m 295.476,268.802 c 0,0 -1.282,0.822 -1.242,0.01 0.04,-0.813 1.231,-1.373 1.231,-1.373 l 0.011,1.363"
         style="fill:#f8a378;fill-opacity:1;fill-rule:nonzero;stroke:none;stroke-width:0.1"
         id="path1420" />
      <path
         d="m 297.914,265.396 c -0.152,0.843 -0.355,1.68 -0.749,2.447 -0.223,0.432 -0.67,0.471 -1.004,0.294 l -0.033,0.059 c -0.484,0.831 -1.82,0.142 -1.331,-0.696 l 0.082,-0.169 0.002,-0.006 0.036,-0.111 c 0.054,-0.183 0.109,-0.365 0.162,-0.549 0.116,-0.401 0.237,-0.802 0.388,-1.192 0.104,-0.649 0.202,-1.386 0.602,-1.874 0.401,-0.488 0.999,-0.465 1.562,-0.333 0.3,0.071 0.599,0.362 0.591,0.692 -0.011,0.516 -0.174,0.963 -0.308,1.438"
         style="fill:#f8a378;fill-opacity:1;fill-rule:nonzero;stroke:none;stroke-width:0.1"
         id="path1422" />
      <path
         d="m 305.469,275.154 c -0.289,-0.846 -1.223,-3.442 -1.336,-3.985 -0.1,-0.479 -0.143,-1.034 -0.432,-1.44 -0.915,-1.28 -2.016,-2.495 -2.979,-3.758 -0.27,-0.354 -0.546,-0.715 -0.913,-0.968 -0.564,-0.388 -1.381,-0.455 -2.204,-0.439 l 0.124,-0.218 c 0.16,-0.271 0.334,-0.534 0.516,-0.789 0.336,-0.471 0.756,-0.964 1.2,-1.426 0.345,-0.359 0.728,-0.721 1.1,-1.018 0.067,0.107 0.14,0.213 0.225,0.321 0.701,2.371 3.146,4.964 4.341,7.053 0.49,0.855 0.685,1.728 0.84,2.694 0.168,1.044 0.493,2.061 0.583,3.118 -0.173,0.164 -0.581,0.51 -1.065,0.855"
         style="fill:#f8a378;fill-opacity:1;fill-rule:nonzero;stroke:none;stroke-width:0.1"
         id="path1424" />
      <path
         d="m 304.638,248.675 c -2.534,-3.433 -12.831,-1.896 -12.831,-1.896 0,0 1.533,4.258 1.692,10.638 v 0.001 c 0.004,0.161 0.006,0.322 0.009,0.483 0.014,0.777 0.013,1.552 -0.006,2.314 0.954,4.163 -0.036,4.183 -0.036,4.183 0,0 -0.093,0.372 1.345,0.381 0.107,10e-4 0.222,-0.002 0.345,-0.009 0.104,-0.006 0.214,-0.015 0.329,-0.027 1.733,-2.335 2.693,-0.057 2.693,-0.057 l 0.083,0.013 c 0.055,0.007 0.145,0.016 0.293,0.03 0.134,0.013 0.317,0.03 0.565,0.052 0.607,-2.817 1.737,-2.916 1.737,-2.916 0,0 -0.115,-1.088 0.224,-3.248 0.026,-0.166 0.054,-0.339 0.086,-0.517 0.453,-2.556 1.058,-4.303 3.472,-9.425"
         style="fill:#db125b;fill-opacity:1;fill-rule:nonzero;stroke:none;stroke-width:0.1"
         id="path1426" />
      <path
         d="m 299.943,231.486 c -0.337,-0.016 -0.676,0.038 -1.013,0.079 l -0.055,-0.144 c -0.129,-0.451 0.026,-1.008 0.395,-1.287 0.708,-0.535 1.651,-0.022 1.816,0.801 0.061,0.303 -0.033,0.564 -0.213,0.764 -0.293,-0.119 -0.601,-0.196 -0.93,-0.213"
         style="fill:#292427;fill-opacity:1;fill-rule:nonzero;stroke:none;stroke-width:0.1"
         id="path1428" />
      <path
         d="m 295.281,231.486 c 0.338,-0.016 0.677,0.038 1.014,0.079 l 0.055,-0.144 c 0.129,-0.451 -0.026,-1.008 -0.396,-1.287 -0.708,-0.535 -1.65,-0.022 -1.815,0.801 -0.061,0.303 0.033,0.564 0.213,0.764 0.293,-0.119 0.601,-0.196 0.929,-0.213"
         style="fill:#292427;fill-opacity:1;fill-rule:nonzero;stroke:none;stroke-width:0.1"
         id="path1430" />
      <path
         d="M 353.566,247.054 H 240.999 v 3.715 h 112.567 v -3.715"
         style="fill:#7c2623;fill-opacity:1;fill-rule:nonzero;stroke:none;stroke-width:0.1"
         id="path1432" />
      <path
         d="M 349.431,244.873 H 245.134 v 2.42 h 104.297 v -2.42"
         style="fill:#5a1a1b;fill-opacity:1;fill-rule:nonzero;stroke:none;stroke-width:0.1"
         id="path1434" />
      <path
         d="m 350.839,216.769 h 2.272 l -5.202,28.104 h -4.006 l 6.936,-28.104"
         style="fill:#7c2623;fill-opacity:1;fill-rule:nonzero;stroke:none;stroke-width:0.1"
         id="path1436" />
      <path
         d="m 240.999,250.769 9.583,3.915 h 91.178 l 11.806,-3.915 H 240.999"
         style="fill:#a1342a;fill-opacity:1;fill-rule:nonzero;stroke:none;stroke-width:0.1"
         id="path1438" />
      <path
         d="m 289.02,210.229 -0.568,-0.096 -3.022,17.812 0.569,0.097 3.021,-17.813"
         style="fill:#211c1d;fill-opacity:1;fill-rule:nonzero;stroke:none;stroke-width:0.1"
         id="path1440" />
      <path
         d="m 279.647,214.49 -0.577,-0.001 -0.027,18.067 0.576,10e-4 0.028,-18.067"
         style="fill:#211c1d;fill-opacity:1;fill-rule:nonzero;stroke:none;stroke-width:0.1"
         id="path1442" />
      <path
         d="m 269.645,210.229 0.569,-0.096 3.022,17.812 -0.569,0.097 -3.022,-17.813"
         style="fill:#211c1d;fill-opacity:1;fill-rule:nonzero;stroke:none;stroke-width:0.1"
         id="path1444" />
      <path
         d="m 289.883,229.059 c 0,-1.596 -4.718,-2.889 -10.538,-2.889 -5.82,0 -10.538,1.293 -10.538,2.889 0,0.972 0,0.771 0,1.552 1.723,0.337 8.26,1.338 10.538,1.338 3.736,0 8.667,-0.534 10.538,-1.338 0,-0.593 0,-0.981 0,-1.552"
         style="fill:#eca90f;fill-opacity:1;fill-rule:nonzero;stroke:none;stroke-width:0.1"
         id="path1446" />
      <path
         d="m 289.883,230.611 c 0,-1.596 -4.718,-2.889 -10.538,-2.889 -5.82,0 -10.538,1.293 -10.538,2.889 0,1.596 4.718,2.89 10.538,2.89 5.82,0 10.538,-1.294 10.538,-2.89"
         style="fill:#f9d859;fill-opacity:1;fill-rule:nonzero;stroke:none;stroke-width:0.1"
         id="path1448" />
      <path
         d="m 253.802,254.14 -0.241,0.045 0.071,0.028 c 0.105,0.048 0.068,0.207 -0.048,0.206 l -0.523,0.061 0.143,0.02 0.008,0.089 c -1.651,0.619 -2.267,0.305 -4.03,0.16 -1.906,-0.157 -2.185,0.071 -3.992,-0.151 -0.918,1.629 -1.768,2.918 -2.754,4.325 0.144,-0.821 0.218,-1.662 0.275,-2.461 0.056,-0.791 0.104,-1.584 0.146,-2.378 0.433,-0.436 0.857,-0.856 1.205,-1.251 0.124,-0.141 0.253,-0.297 0.435,-0.344 0.106,-0.026 0.217,-0.012 0.325,0.003 2.49,0.358 2.839,-0.089 4.93,1.308 0.643,-0.526 1.394,-0.79 2.191,-0.962 0.174,-0.038 0.296,0.167 0.179,0.3 -0.183,0.209 -0.821,0.387 -0.896,0.655 0.642,-0.138 1.666,-0.215 2.309,-0.08 l 0.007,0.154 c -0.114,0.038 -0.265,0.082 -0.431,0.124 0.256,-0.016 0.499,-0.017 0.685,0.009 l 0.006,0.14"
         style="fill:#f8a378;fill-opacity:1;fill-rule:nonzero;stroke:none;stroke-width:0.1"
         id="path1450" />
      <path
         d="m 243.931,256.714 c -0.362,0.743 -0.724,1.486 -1.086,2.229 -0.372,0.763 -0.794,1.812 -1.491,2.348 0.999,-1.515 1.224,-3.619 1.357,-5.486 0.016,-0.228 0.03,-0.456 0.045,-0.685 l 0.137,0.099 c 0.399,0.308 0.711,0.713 1.005,1.122 l 0.087,0.187 -0.054,0.186"
         style="fill:#191b39;fill-opacity:1;fill-rule:nonzero;stroke:none;stroke-width:0.1"
         id="path1452" />
      <path
         d="m 243.646,216.769 h -2.271 l 5.201,28.104 h 4.006 l -6.936,-28.104"
         style="fill:#7c2623;fill-opacity:1;fill-rule:nonzero;stroke:none;stroke-width:0.1"
         id="path1454" />
      <path
         d="m 307.241,276.359 c -0.136,-0.106 -0.264,-0.221 -0.397,-0.331 -0.044,0.595 0.6,1.178 0.373,1.82 -0.036,0.102 -0.153,0.136 -0.235,0.062 -0.201,-0.181 -0.295,-0.408 -0.362,-0.648 0.031,0.258 0.044,0.516 -0.012,0.779 -0.021,0.1 -0.168,0.142 -0.235,0.063 -0.113,-0.134 -0.193,-0.282 -0.254,-0.439 l -0.031,0.146 c -0.034,0.124 -0.189,0.13 -0.257,0.034 -0.386,-0.545 -0.222,-1.209 -0.347,-1.82 -0.093,0.212 -0.127,0.457 -0.247,0.659 -0.074,0.123 -0.257,0.066 -0.263,-0.071 -0.018,-0.448 0.003,-0.907 0.135,-1.334 0.033,-0.559 0.451,-1.213 0.973,-1.293 0.332,-0.051 0.601,0.169 0.733,0.46 0.105,0.229 0.102,0.483 0.158,0.724 0.085,0.361 0.288,0.674 0.461,0.996 0.06,0.112 -0.073,0.285 -0.193,0.193"
         style="fill:#f8a378;fill-opacity:1;fill-rule:nonzero;stroke:none;stroke-width:0.1"
         id="path1456" />
      <path
         d="m 297.744,274.301 c 0,0 -0.345,-1.816 -4.352,-1.305 l 0.014,0.566 0.022,0.881 0.036,1.443 0.033,1.362 0.07,2.844 1.278,-1.772 0.612,-0.849 0.736,-1.019 0.447,-0.62 1.104,-1.531"
         style="fill:#eca90f;fill-opacity:1;fill-rule:nonzero;stroke:none;stroke-width:0.1"
         id="path1458" />
      <path
         d="m 295.243,277.292 c -0.577,-0.456 -1.154,-0.912 -1.732,-1.368 l -0.047,-0.038 0.033,1.362 c 0.449,0.357 0.899,0.714 1.348,1.072 l 0.612,-0.849 -0.214,-0.179"
         style="fill:#db125b;fill-opacity:1;fill-rule:nonzero;stroke:none;stroke-width:0.1"
         id="path1460" />
      <path
         d="m 296.64,275.832 c -0.114,-0.183 -0.262,-0.35 -0.412,-0.499 -0.737,-0.727 -1.784,-1.502 -2.804,-1.767 l -0.018,-0.004 0.022,0.881 c 0.321,0.042 2.511,1.821 2.765,2.009 l 0.447,-0.62"
         style="fill:#db125b;fill-opacity:1;fill-rule:nonzero;stroke:none;stroke-width:0.1"
         id="path1462" />
      <path
         d="m 241.514,273.956 c 0,0 -0.289,-2.053 -4.809,-1.696 l -0.015,0.635 -0.022,0.988 -0.038,1.621 -0.035,1.527 -0.074,3.192 1.527,-1.917 0.732,-0.919 0.879,-1.103 0.535,-0.671 1.32,-1.657"
         style="fill:#eca90f;fill-opacity:1;fill-rule:nonzero;stroke:none;stroke-width:0.1"
         id="path1464" />
      <path
         d="m 238.55,277.175 c -0.623,-0.542 -1.246,-1.084 -1.869,-1.626 l -0.051,-0.045 -0.035,1.527 c 0.484,0.425 0.969,0.85 1.453,1.275 l 0.732,-0.919 -0.23,-0.212"
         style="fill:#db125b;fill-opacity:1;fill-rule:nonzero;stroke:none;stroke-width:0.1"
         id="path1466" />
      <path
         d="m 240.194,275.613 c -0.118,-0.211 -0.275,-0.407 -0.436,-0.581 -0.787,-0.855 -1.918,-1.779 -3.048,-2.131 l -0.02,-0.006 -0.022,0.988 c 0.357,0.064 2.716,2.177 2.991,2.401 l 0.535,-0.671"
         style="fill:#db125b;fill-opacity:1;fill-rule:nonzero;stroke:none;stroke-width:0.1"
         id="path1468" />
      <path
         d="m 298.745,245.175 c -0.996,0.332 -1.787,0.81 -2.799,1.148 -1.742,0.584 -3.172,1.3 -4.967,1.668 -0.128,0.026 -0.26,0.053 -0.372,0.121 -0.127,0.077 -0.216,0.198 -0.323,0.299 -0.21,0.195 -0.487,0.306 -0.757,0.41 -0.772,0.298 -1.549,0.581 -2.331,0.849 -0.613,0.211 -1.577,0.335 -2.097,0.727 -0.768,0.578 0.037,2.056 0.808,2.315 0.492,0.165 1.045,-0.044 1.533,-0.261 1.283,-0.571 2.529,-1.225 3.726,-1.954 0.368,-0.225 0.733,-0.457 1.128,-0.632 0.385,-0.171 0.793,-0.285 1.193,-0.417 1.663,-0.546 3.22,-1.412 4.591,-2.49 0.276,-0.217 0.55,-0.446 0.875,-0.582 l -0.208,-1.201"
         style="fill:#f8a378;fill-opacity:1;fill-rule:nonzero;stroke:none;stroke-width:0.1"
         id="path1470" />
      <path
         d="m 298.02,246.144 c 1.248,1.473 1.798,1.939 3.652,2.459 l 0.05,-0.084 c -0.303,-0.332 -0.819,-0.529 -1.218,-0.735 l 1.605,0.909 c 0.101,0.075 0.236,-0.041 0.174,-0.151 -0.273,-0.49 -0.999,-0.833 -1.514,-1.057 0.379,0.4 1.21,0.874 1.711,1.103 l 0.086,-0.127 c -0.377,-0.367 -1.193,-0.817 -1.675,-1.03 0.321,0.289 1.125,0.617 1.537,0.749 l 0.092,-0.14 c -0.478,-0.534 -1.43,-1.126 -2.084,-1.419 0.238,-0.188 0.915,0.067 1.212,0.001 0.189,-0.042 0.213,-0.301 0.036,-0.38 -0.813,-0.362 -2.033,-1.115 -2.939,-1.067 l -0.725,0.969"
         style="fill:#f8a378;fill-opacity:1;fill-rule:nonzero;stroke:none;stroke-width:0.1"
         id="path1472" />
      <path
         d="m 277.016,232.33 c 0.191,1.032 0.156,1.956 0.348,3.005 0.332,1.807 0.397,3.405 0.943,5.154 0.039,0.125 0.08,0.253 0.075,0.384 -0.006,0.148 -0.07,0.285 -0.105,0.428 -0.07,0.278 -0.033,0.574 0.007,0.86 0.112,0.82 0.241,1.637 0.384,2.451 0.112,0.639 0.47,1.543 0.378,2.187 -0.134,0.952 -1.818,0.962 -2.417,0.413 -0.383,-0.35 -0.467,-0.936 -0.513,-1.469 -0.121,-1.398 -0.151,-2.805 -0.092,-4.206 0.018,-0.431 0.045,-0.863 0.008,-1.292 -0.037,-0.421 -0.135,-0.832 -0.213,-1.246 -0.326,-1.72 -0.322,-3.501 -0.041,-5.223 0.057,-0.346 0.124,-0.697 0.086,-1.047 l 1.152,-0.399"
         style="fill:#f8a378;fill-opacity:1;fill-rule:nonzero;stroke:none;stroke-width:0.1"
         id="path1474" />
      <path
         d="m 276.518,233.433 c -1.893,-0.38 -2.566,-0.636 -3.918,-2.006 l 0.049,-0.085 c 0.437,0.105 0.859,0.461 1.232,0.71 l -1.572,-0.964 c -0.115,-0.053 -0.078,-0.227 0.048,-0.226 0.561,0.002 1.212,0.472 1.658,0.814 -0.533,-0.139 -1.351,-0.636 -1.793,-0.964 l 0.069,-0.137 c 0.504,0.153 1.293,0.65 1.712,0.968 -0.408,-0.141 -1.084,-0.687 -1.399,-0.983 l 0.078,-0.148 c 0.699,0.16 1.677,0.706 2.25,1.137 0.049,-0.299 -0.501,-0.768 -0.587,-1.059 -0.055,-0.186 0.16,-0.333 0.315,-0.216 0.711,0.536 1.96,1.24 2.356,2.056 l -0.498,1.103"
         style="fill:#f8a378;fill-opacity:1;fill-rule:nonzero;stroke:none;stroke-width:0.1"
         id="path1476" />
      <path
         d="m 282.713,217.752 c 0.067,0.227 0.215,0.363 0.388,0.423 0.087,0.648 0.199,1.292 0.339,1.93 0.298,1.357 0.716,2.687 1.249,3.97 0.175,0.423 1.706,4.103 2.104,3.961 -1.345,0.481 -2.618,1.141 -3.732,2.051 -0.474,0.388 -0.402,1.201 0,1.603 l 0.103,0.091 c -0.171,0.219 -0.315,0.451 -0.42,0.693 -0.3,0.695 0.597,1.384 1.216,1.432 0.343,0.027 0.672,-0.123 0.98,-0.276 1.37,-0.68 3.52,-1.624 4.333,-2.95 0.902,-1.468 0.044,-3.29 -0.507,-4.715 -0.595,-1.539 -1.219,-3.07 -1.995,-4.528 -0.387,-0.727 -0.811,-1.435 -1.288,-2.108 -0.214,-0.302 -0.447,-0.586 -0.628,-0.904 -0.092,-0.164 -0.681,-0.982 -0.635,-1.131 0.094,-0.3 0.137,-0.613 0.221,-0.916 0.1,-0.365 0.191,-0.717 0.184,-1.1 -0.01,-0.539 -0.729,-0.905 -1.12,-0.464 -0.359,0.404 -0.538,0.958 -0.775,1.439 -0.126,0.258 -0.236,0.516 -0.225,0.808 0.01,0.258 0.137,0.453 0.208,0.691"
         style="fill:#f8a378;fill-opacity:1;fill-rule:nonzero;stroke:none;stroke-width:0.1"
         id="path1478" />
      <path
         d="m 288.2,234.081 -0.043,0.171 c -0.274,1.522 2.024,0.425 2.556,0.139 2.12,-1.136 3.378,-3.066 2.915,-5.497 -0.304,-1.592 -0.613,-3.232 -0.931,-4.84 -0.162,-0.818 -0.325,-1.636 -0.5,-2.451 -0.163,-0.759 -0.45,-1.488 -0.562,-2.259 0.267,-0.071 0.524,-0.198 0.756,-0.341 0.109,-0.067 0.214,-0.139 0.322,-0.208 l 0.147,-0.09 c 0.042,-0.024 0.301,-0.149 0.037,-0.038 0.286,-0.12 0.515,-0.243 0.678,-0.521 0.142,-0.243 0.202,-0.601 0.114,-0.873 l -0.011,-0.03 c -0.214,0.043 -0.428,0.087 -0.642,0.136 -1.043,0.24 -1.935,0.775 -3.003,0.846 -0.009,0.126 0.002,0.251 0.039,0.366 0.029,0.09 0.066,0.172 0.109,0.247 -0.075,0.152 -0.122,0.314 -0.152,0.481 -0.032,0.173 -0.047,0.35 -0.06,0.525 -0.126,1.722 -0.128,3.453 -0.004,5.174 0.024,0.328 0.413,3.931 0.682,4.624 -1.099,0.688 -2.044,1.598 -2.908,2.559 -0.625,0.694 -0.19,1.604 0.461,1.88"
         style="fill:#f8a378;fill-opacity:1;fill-rule:nonzero;stroke:none;stroke-width:0.1"
         id="path1480" />
      <path
         d="m 283.448,236.261 c 0.051,0.578 -0.185,3.073 0.68,3.203 0.228,0.035 0.467,-0.138 0.474,-0.342 0.672,0.326 1.345,0.652 2.017,0.978 0.294,0.142 1.033,0.796 1.345,0.764 0.485,-0.051 0.594,-0.762 0.623,-1.093 0.04,-0.452 -0.052,-0.905 -0.049,-1.358 0.006,-0.841 0.376,-1.666 0.981,-2.312 0.637,-0.68 1.566,-0.957 2.227,-1.604 0.88,-0.861 -0.589,-1.075 -1.281,-1.338 -1.099,-0.418 -2.198,-0.836 -3.297,-1.253 -0.168,-0.064 -0.342,-0.129 -0.524,-0.128 -0.831,0.007 -2.283,1.362 -2.723,1.919 -0.579,0.733 -0.549,1.712 -0.473,2.564"
         style="fill:#191b39;fill-opacity:1;fill-rule:nonzero;stroke:none;stroke-width:0.1"
         id="path1482" />
      <path
         d="m 279.217,234.303 c 0.051,0.577 -0.185,3.072 0.679,3.203 0.228,0.034 0.467,-0.139 0.475,-0.343 0.672,0.326 1.345,0.652 2.017,0.978 0.294,0.143 1.033,0.796 1.344,0.764 0.243,-0.025 0.391,-0.216 0.483,-0.441 0.332,-0.045 0.635,-0.232 0.759,-0.599 0.318,-0.945 0.21,-2.126 -0.18,-3.071 0.139,-0.231 0.305,-0.45 0.494,-0.652 0.362,-0.386 2.68,-1.464 2.454,-2.014 -0.221,-0.536 -1.397,-0.946 -1.864,-1.332 -0.43,-0.355 -0.807,-0.76 -1.115,-1.202 -0.347,-0.497 -0.27,-0.777 -0.877,-0.652 -0.603,0.123 -1.273,0.736 -1.803,1.028 -0.87,0.479 -1.797,1.015 -2.393,1.769 -0.579,0.733 -0.549,1.711 -0.473,2.564"
         style="fill:#26285e;fill-opacity:1;fill-rule:nonzero;stroke:none;stroke-width:0.1"
         id="path1484" />
      <path
         d="m 283.244,256.373 c 0.138,0.441 -0.073,0.981 -0.59,1.222 -1.33,0.618 -2.398,1.504 -2.635,3.007 -0.087,0.547 -0.126,1.098 -0.084,1.651 0.02,0.264 0.054,0.526 0.159,0.772 0.072,0.169 0.122,0.189 0.249,0.245 0.948,0.422 0.462,1.696 -0.388,1.779 l -0.007,0.002 c -2.347,0.51 -3.38,-1.929 -3.504,-3.945 -0.052,-0.241 -0.1,-0.482 -0.147,-0.722 -0.158,-0.807 -0.194,-1.612 -0.291,-2.425 -0.023,-0.2 -0.008,-0.043 -10e-4,-0.006 l -0.038,-0.169 c -0.039,-0.147 -0.076,-0.296 -0.115,-0.443 -0.077,-0.292 -0.153,-0.582 -0.198,-0.88 -0.366,-2.429 2.873,-2.547 4.531,-2.455 0.964,0.053 2.126,0.134 2.972,0.658 0.657,0.405 0.609,1.307 0.087,1.709"
         style="fill:#45241b;fill-opacity:1;fill-rule:nonzero;stroke:none;stroke-width:0.1"
         id="path1486" />
      <path
         d="m 287.389,258.833 c -0.319,0.874 -0.861,1.651 -1.219,2.509 -0.195,0.468 -0.382,0.931 -0.649,1.364 -0.248,0.401 -0.575,0.755 -0.807,1.166 -0.21,0.371 -0.593,0.613 -1.026,0.439 l -0.212,-0.134 c -0.423,0.254 -0.928,0.368 -1.53,0.259 -1.473,-0.265 -2.588,-1.514 -2.812,-2.975 -0.164,-1.072 0.13,-2.167 0.674,-3.111 0.237,-0.162 0.417,-0.417 0.515,-0.712 0.242,-0.73 0.587,-1.423 0.927,-2.116 0.5,-0.269 1.051,-0.433 1.627,-0.607 1.159,-0.35 2.584,-0.767 3.693,-0.051 1.272,0.822 1.285,2.693 0.819,3.969"
         style="fill:#f8a378;fill-opacity:1;fill-rule:nonzero;stroke:none;stroke-width:0.1"
         id="path1488" />
      <path
         d="m 283.355,265.691 c -1.454,0.397 -2.756,0.011 -4.04,-0.694 -0.52,-0.286 -0.6,-0.79 -0.405,-1.196 -0.268,-0.099 -0.496,-0.3 -0.553,-0.582 -0.197,-0.975 0.107,-1.636 0.456,-2.526 0.08,-0.204 0.128,-0.329 0.066,-0.496 -0.097,-0.26 -0.392,-0.521 -0.529,-0.769 -0.592,-1.07 1.922,-2.224 1.604,-1.034 -0.82,3.067 0.375,1.524 2.306,2.391 0.96,0.432 1.686,1.406 2.724,1.684 0.379,0.102 0.763,0.451 0.752,0.879 -0.034,1.314 -1.23,2.029 -2.381,2.343"
         style="fill:#45241b;fill-opacity:1;fill-rule:nonzero;stroke:none;stroke-width:0.1"
         id="path1490" />
      <path
         d="m 280.818,258.235 c 0,0 -1.818,0.663 -1.542,-0.333 0.275,-0.996 1.907,-1.36 1.907,-1.36 l -0.365,1.693"
         style="fill:#f8a378;fill-opacity:1;fill-rule:nonzero;stroke:none;stroke-width:0.1"
         id="path1492" />
      <path
         d="m 284.625,254.106 c -0.193,1.072 -0.451,2.136 -0.952,3.111 -0.283,0.549 -0.852,0.599 -1.276,0.373 l -0.041,0.075 c -0.616,1.056 -2.314,0.181 -1.693,-0.884 l 0.105,-0.215 0.003,-0.007 0.045,-0.141 c 0.069,-0.233 0.138,-0.465 0.206,-0.698 0.147,-0.51 0.301,-1.02 0.493,-1.516 0.133,-0.824 0.257,-1.761 0.765,-2.381 0.509,-0.62 1.269,-0.592 1.985,-0.423 0.382,0.09 0.761,0.459 0.752,0.879 -0.015,0.656 -0.222,1.223 -0.392,1.827"
         style="fill:#f8a378;fill-opacity:1;fill-rule:nonzero;stroke:none;stroke-width:0.1"
         id="path1494" />
      <path
         d="m 288.758,244.834 c -0.04,0.226 -0.076,0.446 -0.109,0.657 -0.352,2.244 -0.319,2.655 -0.295,3.067 0.313,0.058 0.596,0.241 0.776,0.531 0.196,0.317 0.28,1.62 0.446,1.946 0.154,0.299 0.298,0.606 0.357,0.928 -0.436,0.189 -0.861,0.423 -1.296,0.701 -0.481,0.307 -1.02,0.704 -1.428,0.812 -0.238,0.063 -0.269,0.062 -0.638,0.071 -0.347,0.009 -0.694,0 -1.041,-0.001 -0.125,-0.001 -0.238,0.017 -0.341,0.046 l -0.123,-0.013 c -0.097,-0.012 -0.106,-0.016 -0.106,-0.017 0,0 -1.22,-3.253 -3.422,-0.285 -0.147,0.015 -0.286,0.026 -0.418,0.033 -0.157,0.01 -0.303,0.013 -0.439,0.012 -0.529,-0.003 -0.911,-0.074 -1.188,-0.174 -0.26,-0.004 -0.521,-0.108 -0.732,-0.291 l -0.235,-0.172 c -0.209,-0.214 -0.428,-0.42 -0.655,-0.619 -0.7,-1.177 -1.295,-2.434 -1.721,-3.741 v -10e-4 c -0.37,-0.448 -0.408,-1.152 0.257,-1.482 0.755,-0.375 1.771,-0.919 2.63,-0.907 0,-0.45 -0.003,-0.902 -0.011,-1.354 -0.004,-0.205 -0.008,-0.409 -0.012,-0.615 v -0.001 c -0.066,-2.624 -0.254,-5.246 -0.479,-7.592 3.962,-0.567 8.204,0.542 11.881,2.051 -0.85,2.579 -1.358,4.718 -1.658,6.41"
         style="fill:#94cfd8;fill-opacity:1;fill-rule:nonzero;stroke:none;stroke-width:0.1"
         id="path1496" />
      <path
         d="m 289.813,218.777 c 0.075,0.114 0.054,0.481 0.216,0.542 0.449,-0.52 1.403,-1.039 2.249,-1.048 0.427,-0.005 0.779,0.165 0.973,0.408 l 0.164,-0.05 c 0.734,-0.231 1.34,-0.566 1.602,-1.122 0.182,-0.387 -0.212,-0.91 -0.792,-0.987 -1.042,-0.139 -2.045,0.136 -2.987,0.567 -0.431,0.198 -0.926,0.376 -1.264,0.722 -0.277,0.284 -0.348,0.685 -0.161,0.968"
         style="fill:#db125b;fill-opacity:1;fill-rule:nonzero;stroke:none;stroke-width:0.1"
         id="path1498" />
      <path
         d="m 282.646,218.548 c 0.136,0.004 0.424,0.233 0.567,0.136 -0.166,-0.666 -0.041,-1.746 0.439,-2.442 0.242,-0.352 0.584,-0.541 0.893,-0.561 l 0.055,-0.162 c 0.234,-0.734 0.308,-1.422 0.005,-1.956 -0.212,-0.372 -0.866,-0.351 -1.263,0.079 -0.714,0.772 -1.067,1.75 -1.257,2.768 -0.087,0.466 -0.226,0.973 -0.137,1.45 0.072,0.389 0.359,0.678 0.698,0.688"
         style="fill:#db125b;fill-opacity:1;fill-rule:nonzero;stroke:none;stroke-width:0.1"
         id="path1500" />
      <path
         d="m 277.769,264.01 c 0,0 1.42,-1.181 4.188,1.76 l -0.37,0.428 -0.577,0.666 -0.945,1.092 -0.892,1.029 -1.862,2.151 0.14,-2.18 0.067,-1.045 0.08,-1.254 0.049,-0.763 0.122,-1.884"
         style="fill:#eca90f;fill-opacity:1;fill-rule:nonzero;stroke:none;stroke-width:0.1"
         id="path1502" />
      <path
         d="m 277.797,267.909 c 0.736,0.016 1.471,0.031 2.207,0.046 l 0.061,0.001 -0.892,1.029 c -0.574,-0.01 -1.148,-0.019 -1.722,-0.029 l 0.067,-1.045 c 0.092,-0.005 0.186,-0.003 0.279,-0.002"
         style="fill:#db125b;fill-opacity:1;fill-rule:nonzero;stroke:none;stroke-width:0.1"
         id="path1504" />
      <path
         d="m 277.647,265.894 c 0.204,-0.068 0.425,-0.104 0.636,-0.123 1.031,-0.092 2.331,-0.025 3.287,0.419 l 0.017,0.008 -0.577,0.666 c -0.274,-0.172 -3.096,-0.19 -3.412,-0.207 l 0.049,-0.763"
         style="fill:#db125b;fill-opacity:1;fill-rule:nonzero;stroke:none;stroke-width:0.1"
         id="path1506" />
      <path
         d="m 249.876,256.972 c 0,0 1.44,0.818 3.72,0 -0.981,-1.487 -1.487,-1.487 -1.487,-1.487 l -2.233,1.487"
         style="fill:#a4a6a9;fill-opacity:1;fill-rule:nonzero;stroke:none;stroke-width:0.1"
         id="path1508" />
      <path
         d="m 250.496,252.5 -0.62,4.472 c 0,0 1.86,-0.724 3.72,0 -0.517,-2.792 -0.62,-4.51 -0.62,-4.51 0,0 -1.55,-0.54 -2.48,0.038"
         style="fill:#d3d4d3;fill-opacity:1;fill-rule:nonzero;stroke:none;stroke-width:0.1"
         id="path1510" />
      <path
         d="m 269.012,258.641 c 0,0 1.44,0.819 3.72,0 -0.981,-1.487 -1.486,-1.487 -1.486,-1.487 l -2.234,1.487"
         style="fill:#a4a6a9;fill-opacity:1;fill-rule:nonzero;stroke:none;stroke-width:0.1"
         id="path1512" />
      <path
         d="m 269.632,254.17 -0.62,4.471 c 0,0 1.86,-0.723 3.72,0 -0.517,-2.791 -0.62,-4.51 -0.62,-4.51 0,0 -1.55,-0.54 -2.48,0.039"
         style="fill:#d3d4d3;fill-opacity:1;fill-rule:nonzero;stroke:none;stroke-width:0.1"
         id="path1514" />
      <path
         d="m 300.918,258.641 c 0,0 1.44,0.819 3.72,0 -0.981,-1.487 -1.487,-1.487 -1.487,-1.487 l -2.233,1.487"
         style="fill:#a4a6a9;fill-opacity:1;fill-rule:nonzero;stroke:none;stroke-width:0.1"
         id="path1516" />
      <path
         d="m 301.538,254.17 -0.62,4.471 c 0,0 1.86,-0.723 3.72,0 -0.517,-2.791 -0.62,-4.51 -0.62,-4.51 0,0 -1.55,-0.54 -2.48,0.039"
         style="fill:#d3d4d3;fill-opacity:1;fill-rule:nonzero;stroke:none;stroke-width:0.1"
         id="path1518" />
      <path
         d="m 291.127,256.09 c 0,0 1.44,0.818 3.72,0 -0.981,-1.487 -1.486,-1.487 -1.486,-1.487 l -2.234,1.487"
         style="fill:#a4a6a9;fill-opacity:1;fill-rule:nonzero;stroke:none;stroke-width:0.1"
         id="path1520" />
      <path
         d="m 291.747,251.619 -0.62,4.471 c 0,0 1.86,-0.723 3.72,0 -0.517,-2.792 -0.62,-4.51 -0.62,-4.51 0,0 -1.55,-0.54 -2.48,0.039"
         style="fill:#d3d4d3;fill-opacity:1;fill-rule:nonzero;stroke:none;stroke-width:0.1"
         id="path1522" />
      <path
         d="m 335.927,258.46 c 0,0 1.44,0.818 3.72,0 -0.981,-1.487 -1.486,-1.487 -1.486,-1.487 l -2.234,1.487"
         style="fill:#a4a6a9;fill-opacity:1;fill-rule:nonzero;stroke:none;stroke-width:0.1"
         id="path1524" />
      <path
         d="m 336.547,253.988 -0.62,4.472 c 0,0 1.86,-0.724 3.72,0 -0.516,-2.792 -0.62,-4.51 -0.62,-4.51 0,0 -1.55,-0.541 -2.48,0.038"
         style="fill:#d3d4d3;fill-opacity:1;fill-rule:nonzero;stroke:none;stroke-width:0.1"
         id="path1526" />
      <path
         d="m 374.171,228.828 c -0.125,0.72 -1.222,0.415 -1.097,-0.302 l 0.003,-0.014 0.002,-0.03 0.02,-0.251 c 0.016,-0.228 0.026,-0.457 0.033,-0.686 0.018,-0.58 0.018,-1.162 -0.005,-1.742 -0.021,-0.553 -0.052,-1.092 -0.154,-1.6 -0.022,-0.111 -0.047,-0.222 -0.079,-0.33 l -0.046,-0.143 -0.003,-0.006 -0.008,-0.021 -0.012,-0.022 c -0.513,-0.134 -0.659,-0.97 -0.036,-1.09 1.343,-0.259 1.4,1.91 1.453,2.747 0.072,1.137 0.125,2.361 -0.071,3.49"
         style="fill:#bbbcbd;fill-opacity:1;fill-rule:nonzero;stroke:none;stroke-width:0.1"
         id="path1528" />
      <path
         d="m 371.414,301.876 c -0.797,0.67 -1.913,1.119 -2.771,0.3 -0.409,-0.391 0.212,-1.011 0.621,-0.621 0.341,0.326 0.805,0.227 1.205,-0.039 -0.194,-0.07 -0.342,-0.257 -0.271,-0.513 0.173,-0.627 0.51,-1.193 0.614,-1.843 0.043,-0.271 0.267,-0.354 0.474,-0.303 -0.078,-0.432 -0.191,-0.857 -0.277,-1.246 -0.199,-0.894 -0.411,-1.864 -0.868,-2.667 -0.158,-0.279 -0.328,-0.552 -0.485,-0.831 -0.103,-0.184 -0.291,-0.447 -0.264,-0.672 0.063,-0.533 0.877,-0.559 0.88,-0.062 l 0.001,0.017 -0.003,0.045 0.003,-0.044 0.011,0.032 0.109,0.203 c 0.101,0.182 0.209,0.361 0.314,0.54 0.182,0.309 0.354,0.611 0.485,0.946 0.497,1.278 0.789,2.648 0.99,4.002 0.146,0.98 0.038,2.077 -0.768,2.756"
         style="fill:#7c2623;fill-opacity:1;fill-rule:nonzero;stroke:none;stroke-width:0.1"
         id="path1530" />
      <path
         d="m 370.272,293.379 0.001,0.011 -0.001,-0.011"
         style="fill:#7c2623;fill-opacity:1;fill-rule:nonzero;stroke:none;stroke-width:0.1"
         id="path1532" />
      <path
         d="m 370.273,293.39 v 0.007 -0.007"
         style="fill:#7c2623;fill-opacity:1;fill-rule:nonzero;stroke:none;stroke-width:0.1"
         id="path1534" />
      <path
         d="m 371.955,230.116 -0.229,0.134 c -0.321,0.092 -0.589,-0.113 -0.7,-0.398 -0.065,-0.165 -0.134,-0.327 -0.207,-0.489 -0.396,-1.903 -1.436,-3.739 -1.361,-5.689 l 0.184,-0.238 c 0.677,-0.758 1.87,-0.964 2.749,-0.443 0.893,0.529 1.255,1.657 1.382,2.628 0.163,1.244 0.249,2.512 0.259,3.766 0.009,1.04 -1.343,1.212 -2.077,0.729"
         style="fill:#26285e;fill-opacity:1;fill-rule:nonzero;stroke:none;stroke-width:0.1"
         id="path1536" />
      <path
         d="m 365.947,227.193 c -0.303,-0.18 -0.682,-0.257 -1.043,-0.262 -1.851,-0.027 -3.77,-0.114 -5.449,0.004 -0.845,0.06 -1.627,0.171 -2.311,0.367 -0.501,0.145 -0.59,0.713 -0.286,1.081 0.458,0.556 1.219,0.708 1.934,0.826 0.226,0.038 0.448,0.072 0.654,0.114 1.063,0.219 2.129,0.437 3.202,0.604 0.351,0.055 0.706,0.109 1.062,0.127 0.092,0.004 0.184,0.005 0.276,0.009 l 0.208,0.001 0.016,0.076 c 0.068,0.242 0.105,0.491 0.141,0.74 0.065,0.458 0.648,0.705 1.048,0.595 0.482,-0.133 0.66,-0.593 0.594,-1.048 l -0.018,-0.127 c 0.066,-0.148 0.126,-0.302 0.181,-0.455 0.149,-0.414 0.254,-0.813 0.309,-1.026 0.216,-0.851 -0.065,-1.355 -0.518,-1.626"
         style="fill:#26285e;fill-opacity:1;fill-rule:nonzero;stroke:none;stroke-width:0.1"
         id="path1538" />
      <path
         d="m 366.465,228.819 c -0.055,0.213 -0.16,0.612 -0.309,1.026 -0.211,-0.478 -0.413,-0.954 -0.461,-1.482 -0.039,-0.431 0.057,-0.813 0.249,-1.164 -0.303,-0.184 -0.677,-0.263 -1.04,-0.268 -1.851,-0.027 -3.77,-0.114 -5.449,0.004 0.148,0.159 0.243,0.372 0.226,0.576 -0.05,0.596 -0.388,1.278 -0.889,1.698 -0.715,-0.118 -1.476,-0.27 -1.934,-0.826 l -0.133,-0.252 c -0.102,-0.215 -0.134,-0.447 -0.102,-0.683 0.033,-0.248 0.135,-0.442 0.27,-0.633 l 0.132,-0.172 c 0.079,-0.083 0.201,-0.145 0.326,-0.182 0.444,-0.159 1.068,-0.155 1.428,-0.202 0.847,-0.109 4.825,-0.06 5.942,0.136 0.41,0.072 1.217,0.093 1.545,0.364 0.199,0.165 0.28,0.531 0.298,0.921 0.021,0.433 -0.037,0.895 -0.099,1.139"
         style="fill:#bbbcbd;fill-opacity:1;fill-rule:nonzero;stroke:none;stroke-width:0.1"
         id="path1540" />
      <path
         d="m 362.496,229.536 -0.066,0.033 0.115,0.228 c 0.138,0.1 0.492,-0.135 0.585,-0.293 -0.209,-0.015 -0.439,-0.042 -0.634,0.032 z m -0.981,-0.15 c 0.104,0.121 0.235,0.213 0.363,0.309 l 0.032,0.023 0.011,0.008 0.015,0.046 c 0.076,0.085 0.276,-0.126 0.393,-0.23 -0.036,-0.115 -0.065,-0.229 -0.11,-0.297 -0.228,-0.058 -0.478,0.045 -0.704,0.141 z m -0.301,-0.273 c -0.162,-0.177 -0.365,-0.093 -0.547,0.045 0.056,0.145 0.137,0.351 0.293,0.344 0.125,-0.006 0.279,-0.092 0.395,-0.136 l 0.034,-0.013 z m -0.84,-0.24 c -0.094,-0.015 -0.248,0.085 -0.366,0.162 0.052,0.104 0.188,0.357 0.301,0.334 l 0.112,-0.102 0.155,-0.133 c -0.041,-0.113 -0.094,-0.243 -0.202,-0.261 z m -0.596,-0.156 c -0.145,0.13 -0.13,0.357 -0.235,0.514 0.085,-0.065 0.181,-0.118 0.272,-0.172 l 0.094,-0.056 c -0.045,-0.093 -0.086,-0.189 -0.131,-0.286 z m 3.451,0.762 c -0.048,0.201 -0.415,0.431 -0.614,0.424 -0.139,-0.005 -0.209,-0.133 -0.26,-0.281 l -0.195,0.176 c -0.127,0.101 -0.267,0.144 -0.32,-0.031 -0.122,-0.091 -0.252,-0.179 -0.356,-0.29 l -0.047,-0.059 -0.126,0.05 c -0.144,0.053 -0.354,0.182 -0.501,0.077 -0.094,-0.068 -0.146,-0.198 -0.192,-0.299 l -0.015,-0.038 c -0.103,0.087 -0.198,0.184 -0.269,0.248 l -0.05,0.007 c -0.16,-0.102 -0.258,-0.237 -0.338,-0.387 l -0.041,0.025 c -0.131,0.075 -0.276,0.149 -0.383,0.256 l -0.068,-0.035 -0.021,0.015 -0.041,-0.071 c 0.233,-0.136 0.148,-0.491 0.38,-0.647 l 0.056,0.015 c 0.052,0.108 0.096,0.22 0.146,0.329 l 0.262,-0.14 c 0.232,-0.092 0.321,0.073 0.402,0.263 l 0.195,-0.117 c 0.168,-0.073 0.315,-0.05 0.439,0.087 l 0.193,0.266 c 0.26,-0.106 0.554,-0.239 0.824,-0.141 l 0.022,0.061 0.09,0.226 0.006,0.019 c 0.23,-0.122 0.537,-0.074 0.783,-0.06 l 0.039,0.052"
         style="fill:#ffffff;fill-opacity:1;fill-rule:nonzero;stroke:none;stroke-width:0.1"
         id="path1542" />
      <path
         d="m 368.167,258.938 c 0.542,2.84 1.011,5.656 0.826,8.544 -0.07,1.09 -2.027,1.098 -1.957,0 0.021,-0.33 0.033,-0.659 0.037,-0.986 l -0.003,0.015 c -0.15,0.605 -0.237,1.203 -0.209,1.823 0.01,0.22 -0.061,0.396 -0.181,0.527 -0.03,0.499 -0.495,0.977 -1.198,0.78 -0.491,-0.137 -0.971,-0.293 -1.439,-0.469 -0.319,0.588 -1.085,0.691 -1.395,-0.125 l -0.31,-0.08 c -0.305,-0.85 -0.317,-1.761 -0.359,-2.643 -0.026,-0.579 -0.287,-1.153 -0.365,-1.727 -0.054,-0.396 -0.111,-0.791 -0.157,-1.187 -0.32,-2.761 -0.659,-5.519 -0.977,-8.279 -0.196,-1.709 -0.39,-3.418 -0.542,-5.13 -0.16,-1.812 0.114,-3.305 0.429,-5.094 0.42,-2.379 0.659,-4.908 0.856,-7.357 0.108,-1.329 0.204,-2.659 0.32,-3.988 0.08,-0.911 0.117,-2.53 0.167,-3.503 0.565,-0.136 1.188,-0.186 1.778,-0.205 0.77,-0.025 2.669,-0.101 3.408,0.049 0.146,0.189 -0.438,11.455 -0.455,13.044 -0.008,0.822 -0.125,1.65 -0.199,2.476 -0.152,1.111 -0.342,2.221 -0.407,3.334 -0.007,0.257 -0.002,0.697 -0.076,0.949 0.151,0.378 0.293,0.76 0.427,1.144 0.919,2.633 1.466,5.396 1.981,8.088"
         style="fill:#181c1b;fill-opacity:1;fill-rule:nonzero;stroke:none;stroke-width:0.1"
         id="path1544" />
      <path
         d="m 370.248,288.414 c -0.015,-0.572 -0.187,-1.055 -0.653,-1.311 -0.528,-0.29 -1.849,-5.84 -2.458,-5.874 -0.978,-0.056 -1.944,5.461 -1.937,6.605 0.001,0.137 0.001,0.644 0.007,1.257 0.006,0.51 0.016,1.094 0.035,1.603 0.028,0.689 0.071,1.239 0.145,1.272 0.369,0.166 0.88,0.092 1.149,-0.2 l 0.229,-0.056 c 0.141,-0.053 0.269,-0.142 0.37,-0.267 h 0.017 c 0.103,0.043 0.215,0.068 0.329,0.076 0.206,0.195 0.503,0.28 0.782,0.242 0.269,0.124 0.602,0.138 0.861,0.013 -0.056,0.027 0.012,0.236 0.112,0.324 0.101,-0.474 0.212,-0.948 0.334,-1.419 0.195,-0.763 0.419,-1.521 0.678,-2.265"
         style="fill:#f8a378;fill-opacity:1;fill-rule:nonzero;stroke:none;stroke-width:0.1"
         id="path1546" />
      <path
         d="m 369.57,290.679 c -1.522,-2.654 -3.55,-2 -4.363,-1.588 0.006,0.51 0.016,1.094 0.035,1.603 0.162,0.117 0.777,0.553 1.523,1.016 0.141,-0.053 0.269,-0.142 0.37,-0.267 h 0.017 c 0.103,0.043 0.215,0.068 0.329,0.076 0.206,0.195 0.503,0.28 0.782,0.242 0.269,0.124 0.602,0.138 0.861,0.013 -0.056,0.027 0.012,0.236 0.112,0.324 0.101,-0.474 0.212,-0.948 0.334,-1.419"
         style="fill:#f28c73;fill-opacity:1;fill-rule:nonzero;stroke:none;stroke-width:0.1"
         id="path1548" />
      <path
         d="m 370.377,294.133 c 0.13,0.407 0.425,0.325 0.653,0.554 0.439,0.442 0.755,1.328 0.487,1.915 -0.215,0.469 -0.656,0.813 -1.193,0.706 l -0.082,-0.02 c 0.027,0.247 0.074,0.495 0.157,0.748 10e-4,0.285 -0.003,0.567 -0.01,0.847 -0.06,0.123 -0.121,0.246 -0.192,0.363 -0.386,0.637 -1.382,0.884 -2.092,0.925 -1.775,0.104 -3.648,-0.838 -5.326,0.093 l -0.071,-0.261 c -0.192,-1.514 0.223,-3.133 0.413,-4.613 0.051,-0.389 0.084,-0.779 0.12,-1.167 0.061,-0.369 0.113,-0.739 0.135,-1.113 v -0.005 c 0.116,-0.703 0.313,-1.38 0.72,-2.004 0.077,-0.291 0.188,-0.568 0.329,-0.794 0.42,-0.673 1.238,-0.72 1.953,-0.719 0.685,0.002 1.41,0.027 1.924,0.542 0.491,0.493 0.942,1.15 1.322,1.731 0.454,0.693 0.501,1.484 0.753,2.272"
         style="fill:#f8a378;fill-opacity:1;fill-rule:nonzero;stroke:none;stroke-width:0.1"
         id="path1550" />
      <path
         d="m 372.757,228.476 -0.376,-0.105 -0.175,-0.023 c -0.263,0.199 -0.56,0.356 -0.846,0.517 0.167,0.133 0.417,0.168 0.634,0.189 0.408,-0.203 0.832,-0.451 0.763,-0.578 z m -0.874,-0.743 c -0.156,0.128 -0.371,0.225 -0.485,0.397 0.258,0.052 0.522,0.087 0.783,0.118 0.15,-0.116 0.286,-0.249 0.399,-0.404 -0.202,-0.069 -0.406,-0.13 -0.612,-0.186 z m 0.127,-0.27 0.214,-0.283 c -0.013,-0.093 -0.236,-0.171 -0.32,-0.205 l -0.011,-0.004 c -0.141,0.161 -0.319,0.298 -0.477,0.44 0.171,0.046 0.341,0.091 0.512,0.137 z m -0.041,-0.771 c -0.13,0.004 -0.256,0.034 -0.383,0.058 0.092,0.038 0.187,0.072 0.28,0.108 z m 0.644,2.48 c -0.089,0.008 -0.178,0.014 -0.268,0.008 -0.113,-0.007 -0.226,-0.017 -0.338,-0.03 -0.14,0.072 -0.282,0.14 -0.426,0.204 0.351,-0.013 0.698,-0.075 1.032,-0.182 z m 0.263,-0.735 0.017,0.066 c -0.132,0.208 -0.343,0.344 -0.553,0.466 l -0.178,0.099 c 0.264,0.018 0.517,-0.016 0.781,-0.013 l 0.024,0.09 c -0.516,0.213 -1.066,0.321 -1.624,0.307 l -0.024,-0.09 c 0.065,-0.026 0.278,-0.117 0.52,-0.233 -0.213,-0.031 -0.445,-0.08 -0.597,-0.238 l 0.01,-0.076 c 0.271,-0.153 0.558,-0.301 0.815,-0.482 l -0.047,-0.006 c -0.237,-0.029 -0.477,-0.066 -0.711,-0.116 l -0.028,-0.071 c 0.106,-0.224 0.353,-0.358 0.557,-0.517 -0.177,-0.047 -0.355,-0.093 -0.532,-0.142 l -0.021,-0.08 c 0.157,-0.152 0.36,-0.295 0.516,-0.466 -0.137,-0.052 -0.274,-0.099 -0.405,-0.165 l 0.025,-0.089 c 0.204,-0.022 0.396,-0.093 0.603,-0.086 l 0.045,0.049 0.009,0.043 -0.122,0.207 c 0.139,0.059 0.272,0.129 0.383,0.239 l 0.007,0.058 c -0.091,0.131 -0.19,0.268 -0.302,0.389 0.211,0.058 0.42,0.119 0.627,0.192 l 0.028,0.071 c -0.109,0.162 -0.241,0.3 -0.387,0.422 0.197,0.024 0.396,0.059 0.564,0.172"
         style="fill:#ffffff;fill-opacity:1;fill-rule:nonzero;stroke:none;stroke-width:0.1"
         id="path1552" />
      <path
         d="m 375.433,230.01 c -1.358,-0.06 -4.503,-0.071 -5.863,-0.072 l -0.724,28.906 c -1.528,0.078 -1.897,1.729 -1.978,2.986 -0.079,1.227 0.123,2.433 0.137,3.655 l 0.006,0.09 c -0.078,0.551 -0.113,1.11 -0.114,1.663 -0.005,1.043 1.757,1.093 1.94,0.159 1.413,1.019 3.031,1.754 4.789,2.244 0.223,0.062 0.421,0.057 0.589,0.005 0.049,-0.623 0.165,-1.229 0.313,-1.828 0.173,-0.694 0.388,-1.376 0.593,-2.062 0.039,-0.35 0.083,-0.702 0.131,-1.056 -0.001,-0.335 -0.002,-0.697 -0.002,-1.084 -0.002,-4.963 0.08,-13.869 0.616,-19.472 0.622,-6.5 -0.117,-12.153 -0.433,-14.134"
         style="fill:#252323;fill-opacity:1;fill-rule:nonzero;stroke:none;stroke-width:0.1"
         id="path1554" />
      <path
         d="m 375.252,264.7 c -0.001,-0.335 -0.002,-0.697 -0.002,-1.084 l -0.093,0.011 c -1.613,0.242 -3.077,1.352 -2.543,2.89 0.118,0.34 0.374,0.544 0.673,0.634 0.158,0.377 0.586,0.597 1.064,0.652 l 0.177,0.015 c 0.173,-0.694 0.388,-1.376 0.593,-2.062 0.039,-0.35 0.083,-0.702 0.131,-1.056"
         style="fill:#181c1b;fill-opacity:1;fill-rule:nonzero;stroke:none;stroke-width:0.1"
         id="path1556" />
      <path
         d="m 361.672,264.606 -0.058,-0.009 c 0.078,0.574 0.152,1.148 0.178,1.727 0.042,0.882 0.053,1.793 0.359,2.643 l 0.08,-0.014 c 0.166,-0.04 0.301,-0.111 0.406,-0.201 0.257,0.026 0.528,-0.035 0.736,-0.172 0.142,-0.092 0.239,-0.203 0.298,-0.326 l 0.229,-0.027 c 0.447,-0.107 0.67,-0.443 0.718,-0.822 0.182,-1.446 -1.49,-2.527 -2.946,-2.799"
         style="fill:#181c1b;fill-opacity:1;fill-rule:nonzero;stroke:none;stroke-width:0.1"
         id="path1558" />
      <path
         d="m 373.163,224.891 c -0.329,0.18 -0.753,0.249 -1.089,0.291 -0.644,0.08 -1.323,0.071 -1.948,-0.113 -1.181,-0.348 -1.044,-1.515 -0.832,-2.511 0.446,-0.401 1.085,-0.481 1.809,-0.502 0.642,-0.018 1.74,-0.131 2.253,0.346 0.507,0.472 0.453,1.406 0.189,1.974 -0.086,0.183 -0.22,0.356 -0.382,0.515"
         style="fill:#bbbcbd;fill-opacity:1;fill-rule:nonzero;stroke:none;stroke-width:0.1"
         id="path1560" />
      <path
         d="m 370.767,299.135 c -0.087,0.205 -0.274,0.378 -0.475,0.433 -0.401,0.11 -0.72,-0.137 -0.863,-0.49 -0.409,-1.009 0.081,-1.767 0.489,-2.591 0.245,-0.495 0.018,-0.719 -0.058,-1.179 -0.026,-0.157 0.146,-0.978 0.508,-0.515 0.232,0.296 0.458,0.645 0.555,0.977 0.234,0.799 1.131,3.531 1.131,3.531 l -1.287,-0.166"
         style="fill:#7c2623;fill-opacity:1;fill-rule:nonzero;stroke:none;stroke-width:0.1"
         id="path1562" />
      <path
         d="m 358.094,281.027 c 0.625,1.486 1.401,2.964 1.983,4.433 0.273,0.687 0.519,1.374 1.06,1.905 0.959,0.943 2.644,1.073 3.927,0.99 l 0.074,-0.264 0.02,-0.029 1.691,-5.3 3.322,5.525 0.077,0.127 c -0.025,-0.053 2.204,-0.205 2.38,-0.226 0.867,-0.105 1.76,-0.346 2.536,-0.665 1.043,-0.428 2.093,-0.712 2.727,-1.728 0.418,-0.671 0.632,-1.497 0.885,-2.241 0.287,-0.844 0.557,-1.695 0.813,-2.549 0.372,-1.238 0.757,-2.486 1.069,-3.746 -1.238,-0.986 -2.778,-1.619 -4.338,-1.725 -0.387,0.761 -0.778,1.52 -1.168,2.28 -0.382,0.744 -0.746,1.5 -1.057,2.275 -0.012,-2.621 0.375,-11.473 0.501,-11.754 0.112,-0.251 0.793,-2.671 0.632,-2.832 l -0.076,-0.071 c -0.587,-0.515 -1.517,-0.635 -2.245,-0.85 -0.806,-0.238 -1.615,-0.467 -2.438,-0.641 -1.567,-0.332 -3.216,-0.444 -4.763,-0.147 -1.643,0.314 -4.23,0.86 -3.945,3.067 0.43,3.327 0.584,6.838 0.029,11.66 -0.053,-0.099 -0.106,-0.199 -0.16,-0.298 -0.482,-0.891 -0.965,-1.783 -1.441,-2.677 -0.916,0.561 -1.713,1.327 -2.354,2.182 -0.181,0.241 -0.355,0.494 -0.514,0.757 0.31,0.871 0.488,1.864 0.773,2.542"
         style="fill:#94cfd8;fill-opacity:1;fill-rule:nonzero;stroke:none;stroke-width:0.1"
         id="path1564" />
      <path
         d="m 375.228,265.503 -0.076,-0.071 c -0.406,0.611 -1.042,1.264 -1.332,1.96 -2.088,5.002 -0.689,11.388 0.311,13.671 -0.013,-0.183 -0.021,-0.366 -0.028,-0.549 -0.071,-1.87 0.359,-11.88 0.493,-12.179 0.112,-0.251 0.793,-2.671 0.632,-2.832"
         style="fill:#72abb6;fill-opacity:1;fill-rule:nonzero;stroke:none;stroke-width:0.1"
         id="path1566" />
      <path
         d="m 370.786,301.674 c -0.138,0.266 -0.391,0.311 -0.604,0.226 -0.078,0.091 -0.191,0.149 -0.311,0.169 -0.048,0.281 -0.152,0.551 -0.326,0.791 -0.143,0.197 -0.37,0.305 -0.6,0.239 -0.159,0.26 -0.419,0.431 -0.819,0.418 -0.347,-0.01 -0.655,-0.182 -0.91,-0.436 l -0.114,0.087 c -0.354,0.232 -0.721,0.223 -1.048,0.078 -0.123,0.371 -0.373,0.659 -0.856,0.68 -0.356,0.015 -0.711,-0.171 -0.998,-0.444 -0.027,0.317 -0.126,0.628 -0.296,0.896 -0.066,0.105 -0.147,0.207 -0.262,0.252 -0.123,0.049 -0.263,0.022 -0.39,-0.015 -0.49,-0.142 -0.936,-0.432 -1.268,-0.818 -0.321,0.25 -0.847,0.276 -1.183,0.014 -0.465,-0.363 -0.553,-1.067 -0.336,-1.615 0.082,-0.206 0.204,-0.4 0.369,-0.547 -0.33,0.187 -0.83,0.019 -1.008,-0.337 -0.202,-0.405 -0.044,-0.92 0.277,-1.241 0.242,-0.242 0.558,-0.391 0.889,-0.49 l -0.197,-0.142 c -0.231,-0.302 -0.183,-0.78 0.102,-1.031 0.269,-0.236 0.711,-0.236 0.986,-0.011 -0.192,-0.21 -0.041,-0.63 0.25,-0.711 0.313,-0.086 0.645,0.127 0.809,0.408 0.11,0.188 0.162,0.42 0.118,0.631 0.176,-0.276 0.706,-0.279 0.992,-0.038 0.337,0.283 0.498,0.732 0.83,1.021 0.965,-0.952 2.334,-1.478 3.688,-1.418 0.419,0.018 0.912,0.162 1.07,0.528 l 0.099,0.015 0.023,0.007 c 0.178,-0.247 0.563,-0.292 0.8,-0.048 0.208,-0.066 0.452,-0.019 0.602,0.219 0.499,0.794 0.008,1.921 -0.378,2.663"
         style="fill:#7c2623;fill-opacity:1;fill-rule:nonzero;stroke:none;stroke-width:0.1"
         id="path1568" />
      <path
         d="m 367.223,283.383 -0.086,-19.726 -0.776,0.036 0.488,19.069 0.374,0.621"
         style="fill:#72abb6;fill-opacity:1;fill-rule:nonzero;stroke:none;stroke-width:0.1"
         id="path1570" />
      <path
         d="m 367.223,282.738 3.492,5.608 -0.467,0.068 -3.399,-5.652 0.374,-0.024"
         style="fill:#72abb6;fill-opacity:1;fill-rule:nonzero;stroke:none;stroke-width:0.1"
         id="path1572" />
      <path
         d="m 365.21,289.302 -1.164,-0.94 0.233,-3.629 1.18,2.002 -0.249,2.567"
         style="fill:#72abb6;fill-opacity:1;fill-rule:nonzero;stroke:none;stroke-width:0.1"
         id="path1574" />
      <path
         d="m 359.797,274.418 c -0.003,-0.027 -0.783,-2.783 -0.925,-3.298 -0.241,-0.874 -0.896,-3.846 -1.033,-4.005 -0.837,-0.004 -1.481,-0.154 -2.074,0.317 0.223,2.074 -0.235,6.68 0.128,7.883 0.084,0.278 0.188,0.562 0.327,0.823 0.181,0.083 0.646,1.191 0.831,1.266 0.012,-0.23 2.464,-2.878 2.746,-2.986"
         style="fill:#f8a378;fill-opacity:1;fill-rule:nonzero;stroke:none;stroke-width:0.1"
         id="path1576" />
      <path
         d="m 363.652,288.342 v -7.114 h 7.39 v 7.088 l 0.574,-0.047 v -7.701 l 2.528,-3.164 1.028,-11.227 c 0,0 -1.689,-11.982 -1.94,-15.408 -8.479,-1.518 -13.766,0.641 -13.766,0.641 0,0 2.008,14.453 2.506,18.145 0.498,3.692 -0.142,8.071 -0.142,8.071 l 1.293,3.437 v 7.209 l 0.529,0.07"
         style="fill:#eca90f;fill-opacity:1;fill-rule:nonzero;stroke:none;stroke-width:0.1"
         id="path1578" />
      <path
         d="m 360.444,275.634 0.121,-0.163 c 0.047,-0.105 0.034,-0.226 0.012,-0.339 -0.102,-0.518 -0.376,-1 -0.769,-1.353 l -0.107,-0.071 -0.207,0.022 c -0.772,0.267 -1.427,0.804 -1.954,1.428 -0.527,0.624 -0.938,1.336 -1.345,2.043 l -0.069,0.183 0.094,0.23 c 0.332,0.489 0.638,1.061 1.046,1.483 0.556,-0.335 1.1,-1.216 1.564,-1.717 0.538,-0.582 1.084,-1.157 1.614,-1.746"
         style="fill:#72abb6;fill-opacity:1;fill-rule:nonzero;stroke:none;stroke-width:0.1"
         id="path1580" />
      <path
         d="m 371.138,265.235 c 2.035,1.761 5.964,3.686 8.012,5.431 0.646,0.381 1.566,0.756 1.953,1.399 0.468,0.778 -0.059,2.496 0.062,2.571 -1.24,0.835 -1.983,-0.368 -2.651,0.947 -0.932,-0.998 -1.877,-1.983 -2.852,-2.936 -0.933,-0.913 -1.893,-1.798 -2.892,-2.636 -0.772,-0.648 -3.115,-3.243 -3.089,-3.557 0.08,-0.957 1.112,-1.517 1.457,-1.219"
         style="fill:#f8a378;fill-opacity:1;fill-rule:nonzero;stroke:none;stroke-width:0.1"
         id="path1582" />
      <path
         d="m 380.826,277.626 c 0.385,-0.667 0.504,-1.448 0.616,-2.209 0.021,-0.143 0.042,-0.291 -0.005,-0.428 -0.048,-0.142 -0.162,-0.25 -0.272,-0.353 -0.713,-0.662 -1.463,-1.345 -2.398,-1.614 -0.485,-0.14 -1.834,0.405 -2.339,0.386 -0.324,0.715 0.033,0.915 -0.177,1.67 -0.227,0.817 0.316,0.74 1.016,0.829 0.678,0.087 1.337,0.271 1.953,0.571 0.165,0.08 1.707,0.969 1.606,1.148"
         style="fill:#72abb6;fill-opacity:1;fill-rule:nonzero;stroke:none;stroke-width:0.1"
         id="path1584" />
      <path
         d="m 369.08,264.185 c 0,-1.122 -3.798,-2.032 -8.483,-2.032 -4.686,0 -8.484,0.91 -8.484,2.032 0,1.123 3.798,2.033 8.484,2.033 4.685,0 8.483,-0.91 8.483,-2.033"
         style="fill:#181c1b;fill-opacity:1;fill-rule:nonzero;stroke:none;stroke-width:0.1"
         id="path1586" />
      <path
         d="m 356.087,268.537 c 0,0 -1.527,-1.641 -1.346,-2.73 0.063,-0.385 0.811,-1.405 1.238,-1.969 0.13,-0.172 0.398,-0.139 0.482,0.061 0.269,0.637 0.757,1.741 0.954,1.843 0.279,0.143 0.081,-0.704 0.406,-1.073 0.325,-0.368 0.473,-0.139 0.473,-0.139 0,0 -0.421,1.428 -0.231,1.565 0.19,0.138 0.621,1.087 -0.16,1.912 -0.781,0.826 -1.816,0.53 -1.816,0.53"
         style="fill:#f8a378;fill-opacity:1;fill-rule:nonzero;stroke:none;stroke-width:0.1"
         id="path1588" />
      <path
         d="m 369.08,264.597 c 0,-1.123 -3.798,-2.033 -8.483,-2.033 -4.686,0 -8.484,0.91 -8.484,2.033 0,1.122 3.798,2.032 8.484,2.032 4.685,0 8.483,-0.91 8.483,-2.032"
         style="fill:#252323;fill-opacity:1;fill-rule:nonzero;stroke:none;stroke-width:0.1"
         id="path1590" />
      <path
         d="m 371.453,265.341 c 0,0 -1.013,-2.424 -1.509,-2.662 -0.351,-0.168 -1.614,-0.167 -2.32,-0.153 -0.217,0.005 -0.347,0.242 -0.235,0.427 0.358,0.591 0.966,1.634 0.933,1.854 -0.047,0.309 -0.618,-0.348 -1.107,-0.301 -0.489,0.047 -0.39,0.301 -0.39,0.301 0,0 1.403,0.497 1.403,0.732 0,0.234 0.515,1.14 1.642,0.992 1.127,-0.148 1.583,-1.19 1.583,-1.19"
         style="fill:#f8a378;fill-opacity:1;fill-rule:nonzero;stroke:none;stroke-width:0.1"
         id="path1592" />
      <path
         d="m 357.639,267.011 c 0,0 0.214,-1.597 0.491,-1.468 0.278,0.129 0.073,1.83 0.073,1.83 l -0.564,-0.362"
         style="fill:#f8a378;fill-opacity:1;fill-rule:nonzero;stroke:none;stroke-width:0.1"
         id="path1594" />
      <path
         d="m 371.453,279.108 h -3.101 v 0.459 h 3.101 v -0.459"
         style="fill:#d3d4d3;fill-opacity:1;fill-rule:nonzero;stroke:none;stroke-width:0.1"
         id="path1596" />
      <path
         d="m 369.957,289.302 1.659,-1.033 -0.4,-3.63 -2.034,2.002 0.775,2.661"
         style="fill:#72abb6;fill-opacity:1;fill-rule:nonzero;stroke:none;stroke-width:0.1"
         id="path1598" />
      <path
         d="m 354.466,269.479 v -4.324 c 0,-0.492 2.745,-0.89 6.131,-0.89 3.386,0 6.131,0.398 6.131,0.89 v 4.324 h -12.262"
         style="fill:#a1342a;fill-opacity:1;fill-rule:nonzero;stroke:none;stroke-width:0.1"
         id="path1600" />
      <path
         d="m 366.728,269.479 c 0,-0.492 -2.745,-0.89 -6.131,-0.89 -3.386,0 -6.131,0.398 -6.131,0.89 0,0.491 2.745,0.89 6.131,0.89 3.386,0 6.131,-0.399 6.131,-0.89"
         style="fill:#5a1a1b;fill-opacity:1;fill-rule:nonzero;stroke:none;stroke-width:0.1"
         id="path1602" />
      <path
         d="m 354.466,268.21 c 0,0 1.786,-0.743 6.131,-0.743 4.345,0 6.131,0.743 6.131,0.743 v -0.586 c 0,0 -1.794,-0.748 -6.131,-0.748 -4.337,0 -6.131,0.667 -6.131,0.667 v 0.667"
         style="fill:#db125b;fill-opacity:1;fill-rule:nonzero;stroke:none;stroke-width:0.1"
         id="path1604" />
      <path
         d="m 354.466,266.876 c 0,0 1.786,-0.744 6.131,-0.744 4.345,0 6.131,0.744 6.131,0.744 v -0.587 c 0,0 -1.794,-0.748 -6.131,-0.748 -4.337,0 -6.131,0.668 -6.131,0.668 v 0.667"
         style="fill:#db125b;fill-opacity:1;fill-rule:nonzero;stroke:none;stroke-width:0.1"
         id="path1606" />
      <path
         d="m 357.198,272.256 c 0,0 -0.313,0.206 0,0.706 0.313,-0.332 0,-0.706 0,-0.706"
         style="fill:#f9d859;fill-opacity:1;fill-rule:nonzero;stroke:none;stroke-width:0.1"
         id="path1608" />
      <path
         d="m 357.308,269.686 h -0.219 v 2.566 h 0.219 v -2.566"
         style="fill:#d3d4d3;fill-opacity:1;fill-rule:nonzero;stroke:none;stroke-width:0.1"
         id="path1610" />
      <path
         d="m 363.94,272.256 c 0,0 -0.312,0.206 0,0.706 0.313,-0.332 0,-0.706 0,-0.706"
         style="fill:#f9d859;fill-opacity:1;fill-rule:nonzero;stroke:none;stroke-width:0.1"
         id="path1612" />
      <path
         d="m 364.05,269.686 h -0.219 v 2.566 h 0.219 v -2.566"
         style="fill:#d3d4d3;fill-opacity:1;fill-rule:nonzero;stroke:none;stroke-width:0.1"
         id="path1614" />
      <path
         d="m 359.026,271.831 c 0,0 -0.312,0.206 0,0.707 0.313,-0.333 0,-0.707 0,-0.707"
         style="fill:#f9d859;fill-opacity:1;fill-rule:nonzero;stroke:none;stroke-width:0.1"
         id="path1616" />
      <path
         d="m 359.136,269.262 h -0.219 v 2.566 h 0.219 v -2.566"
         style="fill:#d3d4d3;fill-opacity:1;fill-rule:nonzero;stroke:none;stroke-width:0.1"
         id="path1618" />
      <path
         d="m 361.922,271.822 c 0,0 -0.312,0.206 0,0.706 0.313,-0.332 0,-0.706 0,-0.706"
         style="fill:#f9d859;fill-opacity:1;fill-rule:nonzero;stroke:none;stroke-width:0.1"
         id="path1620" />
      <path
         d="m 362.032,269.252 h -0.219 v 2.566 h 0.219 v -2.566"
         style="fill:#d3d4d3;fill-opacity:1;fill-rule:nonzero;stroke:none;stroke-width:0.1"
         id="path1622" />
      <path
         d="m 360.597,272.385 c 0,0 -0.313,0.206 0,0.706 0.313,-0.332 0,-0.706 0,-0.706"
         style="fill:#f9d859;fill-opacity:1;fill-rule:nonzero;stroke:none;stroke-width:0.1"
         id="path1624" />
      <path
         d="m 360.706,269.815 h -0.219 v 2.566 h 0.219 v -2.566"
         style="fill:#d3d4d3;fill-opacity:1;fill-rule:nonzero;stroke:none;stroke-width:0.1"
         id="path1626" />
    </g>
  </g>
</svg>
