<?xml version="1.0" encoding="UTF-8" standalone="no"?>
<!-- Created with Inkscape (http://www.inkscape.org/) -->

<svg
   width="300mm"
   height="300mm"
   viewBox="0 0 300 300"
   version="1.1"
   id="svg10268"
   sodipodi:docname="couple_dinner.svg"
   inkscape:version="1.1 (c68e22c387, 2021-05-23)"
   xmlns:inkscape="http://www.inkscape.org/namespaces/inkscape"
   xmlns:sodipodi="http://sodipodi.sourceforge.net/DTD/sodipodi-0.dtd"
   xmlns="http://www.w3.org/2000/svg"
   xmlns:svg="http://www.w3.org/2000/svg">
  <sodipodi:namedview
     id="namedview10270"
     pagecolor="#ffffff"
     bordercolor="#666666"
     borderopacity="1.0"
     inkscape:pageshadow="2"
     inkscape:pageopacity="0.0"
     inkscape:pagecheckerboard="0"
     inkscape:document-units="mm"
     showgrid="false"
     inkscape:zoom="0.33540614"
     inkscape:cx="478.52433"
     inkscape:cy="314.54403"
     inkscape:window-width="1920"
     inkscape:window-height="1009"
     inkscape:window-x="1912"
     inkscape:window-y="-8"
     inkscape:window-maximized="1"
     inkscape:current-layer="layer1" />
  <defs
     id="defs10265" />
  <g
     inkscape:label="Layer 1"
     inkscape:groupmode="layer"
     id="layer1">
    <g
       id="g6361"
       transform="matrix(3.1222888,0,0,-3.67698,-16.568747,673.27222)">
      <path
         d="m 6.85117,112.45 c 0,-5.237 20.91363,-9.482 46.71173,-9.482 25.798,0 46.7121,4.245 46.7121,9.482 0,5.237 -20.9141,9.482 -46.7121,9.482 -25.7981,0 -46.71173,-4.245 -46.71173,-9.482"
         style="fill:#f4f5f5;fill-opacity:1;fill-rule:nonzero;stroke:none;stroke-width:0.1"
         id="path1628" />
      <path
         d="m 96.1297,149.994 h 0.5629 v -20.342 h -0.5629 v 20.342"
         style="fill:#5a1a1b;fill-opacity:1;fill-rule:nonzero;stroke:none;stroke-width:0.1"
         id="path1630" />
      <path
         d="m 93.9707,152.528 h 0.5633 v -20.341 h -0.5633 v 20.341"
         style="fill:#5a1a1b;fill-opacity:1;fill-rule:nonzero;stroke:none;stroke-width:0.1"
         id="path1632" />
      <path
         d="m 91.8121,153.186 h 0.5629 v -20.342 h -0.5629 v 20.342"
         style="fill:#5a1a1b;fill-opacity:1;fill-rule:nonzero;stroke:none;stroke-width:0.1"
         id="path1634" />
      <path
         d="m 89.6531,153.844 h 0.5633 v -20.342 h -0.5633 v 20.342"
         style="fill:#5a1a1b;fill-opacity:1;fill-rule:nonzero;stroke:none;stroke-width:0.1"
         id="path1636" />
      <path
         d="m 81.8055,129.652 -3.4645,5.07 0.0176,1.294 3.4469,-5.138 v -1.226"
         style="fill:#a1342a;fill-opacity:1;fill-rule:nonzero;stroke:none;stroke-width:0.1"
         id="path1638" />
      <path
         d="m 97.4434,151.379 -9.0102,4.18 1.0324,0.123 8.541,-4.051 v -5.791 l -0.5632,0.018 v 5.521"
         style="fill:#a1342a;fill-opacity:1;fill-rule:nonzero;stroke:none;stroke-width:0.1"
         id="path1640" />
      <path
         d="m 97.4434,151.379 v -5.521 l -9.0102,4.883 v 4.818 l 9.0102,-4.18"
         style="fill:#7c2623;fill-opacity:1;fill-rule:nonzero;stroke:none;stroke-width:0.1"
         id="path1642" />
      <path
         d="m 94.7773,130.265 h 1.0336 v -20.342 h -1.0336 v 20.342"
         style="fill:#5a1a1b;fill-opacity:1;fill-rule:nonzero;stroke:none;stroke-width:0.1"
         id="path1644" />
      <path
         d="m 89.6418,135.192 h 1.0336 V 114.85 h -1.0336 v 20.342"
         style="fill:#5a1a1b;fill-opacity:1;fill-rule:nonzero;stroke:none;stroke-width:0.1"
         id="path1646" />
      <path
         d="m 82.6957,130.265 h 1.0332 v -20.342 h -1.0332 v 20.342"
         style="fill:#5a1a1b;fill-opacity:1;fill-rule:nonzero;stroke:none;stroke-width:0.1"
         id="path1648" />
      <path
         d="m 90.0891,136.016 6.6035,-5.138 c 0,0 -14.8871,-0.151 -14.8871,0 0,0.151 -3.4469,5.138 -3.4469,5.138 h 11.7305"
         style="fill:#a1342a;fill-opacity:1;fill-rule:nonzero;stroke:none;stroke-width:0.1"
         id="path1650" />
      <path
         d="m 96.6926,130.878 v -1.226 H 81.8055 v 1.226 h 14.8871"
         style="fill:#7c2623;fill-opacity:1;fill-rule:nonzero;stroke:none;stroke-width:0.1"
         id="path1652" />
      <path
         d="m 76.7012,132.335 c 0,0 -1.4028,-2.522 12.2195,-1.12 -1.4887,5.062 -12.2195,1.12 -12.2195,1.12"
         style="fill:#bd1553;fill-opacity:1;fill-rule:nonzero;stroke:none;stroke-width:0.1"
         id="path1654" />
      <path
         d="m 90.9277,136.568 c 1.0364,2.633 1.5758,5.246 -2.2457,5.365 l -0.1875,0.004 c -0.5793,0.005 -1.1902,-0.043 -1.7644,-0.074 -1.6465,-0.089 -3.3207,-0.018 -4.9707,-0.094 -0.3871,-0.018 -0.184,3.097 -0.5403,3.048 -2.3226,-0.316 -4.2656,-4.959 -4.5652,-7.186 -0.1769,-1.317 -0.5578,-4.611 0.0914,-5.778 0.8567,-1.537 1.3008,3.204 9.4516,1.187 0.4133,-0.102 2.7312,-2.083 2.7238,-1.825 -0.0305,1.035 1.3094,3.581 2.007,5.353"
         style="fill:#db125b;fill-opacity:1;fill-rule:nonzero;stroke:none;stroke-width:0.1"
         id="path1656" />
      <path
         d="m 85.5113,112.195 c -0.2191,0.88 -0.5019,1.734 -0.9968,2.522 -0.2758,0.401 -0.5739,0.578 -0.85,0.226 0.0394,0.05 -0.5422,0.343 -0.684,0.236 -0.2496,-0.186 -0.2309,-0.972 -0.259,-1.321 -0.0805,-0.995 -0.066,-2.021 0.0414,-3.05 -0.009,-0.559 0.1629,-1.171 0.2164,-1.679 0.0324,-0.309 0.1066,-0.66 0.3738,-0.857 l 0.2461,-0.103 c 0.2129,-0.363 0.6055,-0.463 0.9336,-0.201 0.1442,-0.082 0.3047,-0.114 0.4805,-0.035 0.1691,0.076 0.2734,0.234 0.3656,0.396 0.1207,-0.044 0.2449,-0.059 0.3789,0.004 0.2039,0.095 0.3227,0.333 0.3539,0.544 0.0824,0.55 -0.1004,1.083 -0.2183,1.612 -0.1274,0.572 -0.2418,1.144 -0.3821,1.706"
         style="fill:#f8a378;fill-opacity:1;fill-rule:nonzero;stroke:none;stroke-width:0.1"
         id="path1658" />
      <path
         d="m 89.4676,111.907 c -0.0172,0.123 -0.0403,0.243 -0.0688,0.359 -0.2629,1.064 -0.6246,2.098 -1.0718,3.069 -0.1497,0.324 -0.4071,1.076 -0.709,1.182 -0.1715,0.06 -0.6196,-0.384 -0.5649,-0.42 -0.3847,0.255 -0.6051,0.002 -0.7254,-0.458 -0.2109,-0.804 -0.116,-2.241 -0.0636,-2.681 0.0183,-0.154 0.041,-0.312 0.0675,-0.471 0.0504,-0.412 0.1536,-0.816 0.2524,-1.223 0.1019,-0.421 0.1476,-0.849 0.2422,-1.27 0.0597,-0.265 0.1394,-0.606 0.3968,-0.749 0.209,-0.115 0.3911,-0.052 0.5375,0.078 0.1266,-0.136 0.2688,-0.235 0.5094,-0.206 0.1578,0.02 0.2719,0.087 0.3524,0.182 0.1504,0.043 0.282,0.136 0.3949,0.268 0.1586,0.112 0.2851,0.297 0.3465,0.506 0.2718,0.115 0.3605,0.488 0.332,0.837 -0.0269,0.334 -0.1059,0.674 -0.2281,0.997"
         style="fill:#f8a378;fill-opacity:1;fill-rule:nonzero;stroke:none;stroke-width:0.1"
         id="path1660" />
      <path
         d="m 78.9223,132.773 c 0,0 1.782,0.757 2.9715,0.758 1.1898,0.001 2.6937,-0.141 2.6937,-0.141 l -2.2965,-2.335 -3.3687,1.718"
         style="fill:#f28c73;fill-opacity:1;fill-rule:nonzero;stroke:none;stroke-width:0.1"
         id="path1662" />
      <path
         d="m 87.7199,126.964 c -0.207,2.279 0.0875,6.091 -3.1324,6.426 -0.7066,0.073 -1.3777,0.305 -2.1926,0.012 -0.4094,-0.704 -4e-4,-2.855 0.1879,-3.694 0.5317,-2.369 1.0844,-4.721 1.5297,-7.112 0.1574,-0.844 0.4266,-1.653 0.7156,-2.456 0.3899,-1.354 0.811,-2.698 1.1828,-4.061 0.0125,-0.091 0.0352,-0.174 0.0664,-0.247 0.0856,-0.319 0.1688,-0.638 0.2469,-0.959 0.1031,-0.421 0.5778,-0.611 0.9449,-0.526 0.4219,0.097 0.6442,0.491 0.6473,0.921 0.0012,0.155 0.0012,0.309 0.0016,0.464 0.1097,0.148 0.1758,0.34 0.166,0.576 -0.15,3.55 -0.0418,7.118 -0.3641,10.656"
         style="fill:#f8a378;fill-opacity:1;fill-rule:nonzero;stroke:none;stroke-width:0.1"
         id="path1664" />
      <path
         d="m 84.5531,114.891 -0.0297,0.256 c -0.1558,1.411 -0.2601,2.824 -0.3968,4.235 -0.0274,0.859 -0.0758,1.716 -0.2399,2.561 -0.4648,2.392 -0.8168,4.792 -1.1945,7.199 -0.3145,2.002 -0.5649,3.638 -2.9879,3.756 -0.634,0.031 -1.4699,-0.538 -1.7965,-0.884 -0.3219,-0.342 -0.0605,-2.408 0.1098,-3.406 0.2344,-1.373 0.5535,-2.73 0.9457,-4.067 0.9988,-3.405 2.4047,-6.665 3.5664,-10.013 0.0773,-0.222 0.2086,-0.374 0.3644,-0.467 0.0567,-0.143 0.1129,-0.286 0.1707,-0.428 0.1606,-0.398 0.5094,-0.673 0.9336,-0.594 0.3696,0.069 0.7375,0.434 0.6782,0.866 -0.0453,0.328 -0.0856,0.657 -0.1235,0.986"
         style="fill:#f8a378;fill-opacity:1;fill-rule:nonzero;stroke:none;stroke-width:0.1"
         id="path1666" />
      <path
         d="m 86.8684,108.654 c -0.6571,0.917 -0.7286,2.391 -0.5145,3.388 0.3695,-0.61 0.5684,-1.453 1.4188,-1.544 0.7089,-0.075 1.3285,0.396 1.5066,1.078 0.0805,0.309 0.0738,0.631 0.0176,0.943 -0.0489,0.272 -0.116,0.541 -0.1887,0.802 0.5352,-0.59 0.7398,-1.423 0.8547,-2.19 0.1059,-0.71 0.2441,-1.574 0.0363,-2.275 -0.3176,-1.07 -1.5402,-1.301 -2.4574,-0.807 -0.2723,0.146 -0.4945,0.355 -0.6734,0.605"
         style="fill:#211c1d;fill-opacity:1;fill-rule:nonzero;stroke:none;stroke-width:0.1"
         id="path1668" />
      <path
         d="m 86.6203,108.04 c 0.2266,1.105 -0.3086,2.48 -0.9101,3.304 -0.0891,-0.707 0.0726,-1.559 -0.6668,-1.988 -0.6168,-0.358 -1.3746,-0.18 -1.8153,0.371 -0.1992,0.249 -0.3242,0.545 -0.4,0.853 -0.066,0.269 -0.1144,0.542 -0.1543,0.81 -0.2488,-0.757 -0.0961,-1.601 0.1117,-2.348 0.1926,-0.692 0.418,-1.537 0.8934,-2.092 0.7258,-0.848 1.9367,-0.561 2.5731,0.263 0.1886,0.245 0.307,0.526 0.3683,0.827"
         style="fill:#211c1d;fill-opacity:1;fill-rule:nonzero;stroke:none;stroke-width:0.1"
         id="path1670" />
      <path
         d="m 25.9348,173.951 c 1.0636,0.896 1.309,2.963 0.684,4.169 -0.3704,0.713 0.7089,1.347 1.08,0.631 0.4758,-0.917 0.5481,-1.985 0.4082,-2.994 -0.1359,-0.982 -0.5078,-2.034 -1.2879,-2.69 -0.6121,-0.516 -1.5015,0.365 -0.8843,0.884"
         style="fill:#45241b;fill-opacity:1;fill-rule:nonzero;stroke:none;stroke-width:0.1"
         id="path1672" />
      <path
         d="m 17.2336,178.487 c 0.5582,0.557 1.4164,-0.277 0.9187,-0.848 0.3411,-0.041 0.679,-0.338 0.5961,-0.778 -0.0953,-0.503 -0.2535,-1 -0.4086,-1.498 0.3211,0.012 0.6563,-0.189 0.6657,-0.603 0.0175,-0.788 -0.2461,-1.499 -0.0239,-2.28 0.2188,-0.767 0.6028,-1.468 0.9934,-2.159 l 0.05,-0.109 c 0.1734,-0.042 0.3355,-0.153 0.4195,-0.297 0.1864,-0.319 0.0477,-0.654 -0.2242,-0.856 -0.789,-0.586 -1.9324,0.494 -2.4586,0.995 -0.748,0.712 -1.0664,1.566 -1.1734,2.521 l -0.1578,0.137 -0.1157,0.129 c -1.1941,1.667 -0.4293,4.299 0.9188,5.646"
         style="fill:#532d20;fill-opacity:1;fill-rule:nonzero;stroke:none;stroke-width:0.1"
         id="path1674" />
      <path
         d="m 19.5508,173.142 c -0.0469,-0.249 -0.1938,-0.391 -0.3723,-0.445 -1.3258,1.234 -1.9945,3.098 -2.3531,4.901 l 0.0184,0.064 c 0.28,0.952 0.8621,1.777 1.6242,2.336 0.93,0.682 2.0855,0.73 3.1707,0.76 0.2551,0.008 0.5097,0.011 0.7636,0.007 0.2293,0.061 0.4602,0.115 0.6926,0.158 0.7992,0.148 1.6781,0.237 2.4571,-0.071 0.7007,-0.276 1.2332,-0.991 1.4503,-1.79 0.4196,0.082 0.9407,-0.253 0.8067,-0.802 -0.032,-0.131 -0.0735,-0.257 -0.1227,-0.38 -0.1976,-0.953 -0.3488,-1.888 -1.1441,-2.548 -0.8535,-0.707 -1.9942,-0.766 -3.0563,-0.758 -0.8257,0.007 -1.698,0.074 -2.5125,-0.09 -0.7933,-0.161 -1.2699,-0.524 -1.4226,-1.342"
         style="fill:#532d20;fill-opacity:1;fill-rule:nonzero;stroke:none;stroke-width:0.1"
         id="path1676" />
      <path
         d="m 57.1234,150.799 c -0.1781,3.258 -0.1812,6.561 -0.0097,9.819 l 0.0039,0.069 c 0.0672,1.273 0.1367,2.589 -0.409,3.715 -0.1332,0.275 -0.3039,0.537 -0.4691,0.791 l -0.2317,0.356 0.1574,0.102 0.2317,-0.356 c 0.1683,-0.258 0.3422,-0.526 0.4804,-0.811 0.5668,-1.17 0.4961,-2.51 0.4278,-3.807 l -0.0039,-0.069 c -0.1711,-3.251 -0.168,-6.548 0.0093,-9.798 l -0.1871,-0.011"
         style="fill:#5a1a1b;fill-opacity:1;fill-rule:nonzero;stroke:none;stroke-width:0.1"
         id="path1678" />
      <path
         d="M 70.6531,144.292 V 116.44 h -2.0914 v 27.852 h 2.0914"
         style="fill:#5a1a1b;fill-opacity:1;fill-rule:nonzero;stroke:none;stroke-width:0.1"
         id="path1680" />
      <path
         d="m 55.6547,140.878 v -33.15 h -2.0914 v 33.15 h 2.0914"
         style="fill:#5a1a1b;fill-opacity:1;fill-rule:nonzero;stroke:none;stroke-width:0.1"
         id="path1682" />
      <path
         d="m 10.6781,149.994 h -0.5633 v -20.342 h 0.5633 v 20.342"
         style="fill:#5a1a1b;fill-opacity:1;fill-rule:nonzero;stroke:none;stroke-width:0.1"
         id="path1684" />
      <path
         d="m 12.8367,152.528 h -0.5633 v -20.341 h 0.5633 v 20.341"
         style="fill:#5a1a1b;fill-opacity:1;fill-rule:nonzero;stroke:none;stroke-width:0.1"
         id="path1686" />
      <path
         d="m 14.9953,153.186 h -0.5629 v -20.342 h 0.5629 v 20.342"
         style="fill:#5a1a1b;fill-opacity:1;fill-rule:nonzero;stroke:none;stroke-width:0.1"
         id="path1688" />
      <path
         d="M 17.1543,153.844 H 16.591 v -20.342 h 0.5633 v 20.342"
         style="fill:#5a1a1b;fill-opacity:1;fill-rule:nonzero;stroke:none;stroke-width:0.1"
         id="path1690" />
      <path
         d="m 25.0023,129.652 3.4641,5.07 -0.0176,1.294 -3.4465,-5.138 v -1.226"
         style="fill:#a1342a;fill-opacity:1;fill-rule:nonzero;stroke:none;stroke-width:0.1"
         id="path1692" />
      <path
         d="m 9.36406,151.379 9.01014,4.18 -1.0324,0.123 -8.54102,-4.051 v -5.791 l 0.56328,0.018 v 5.521"
         style="fill:#a1342a;fill-opacity:1;fill-rule:nonzero;stroke:none;stroke-width:0.1"
         id="path1694" />
      <path
         d="m 9.36406,151.379 v -5.521 l 9.01014,4.883 v 4.818 l -9.01014,-4.18"
         style="fill:#7c2623;fill-opacity:1;fill-rule:nonzero;stroke:none;stroke-width:0.1"
         id="path1696" />
      <path
         d="m 12.0301,130.265 h -1.0336 v -20.342 h 1.0336 v 20.342"
         style="fill:#5a1a1b;fill-opacity:1;fill-rule:nonzero;stroke:none;stroke-width:0.1"
         id="path1698" />
      <path
         d="M 17.1656,135.192 H 16.132 V 114.85 h 1.0336 v 20.342"
         style="fill:#5a1a1b;fill-opacity:1;fill-rule:nonzero;stroke:none;stroke-width:0.1"
         id="path1700" />
      <path
         d="m 24.1117,130.265 h -1.0332 v -20.342 h 1.0332 v 20.342"
         style="fill:#5a1a1b;fill-opacity:1;fill-rule:nonzero;stroke:none;stroke-width:0.1"
         id="path1702" />
      <path
         d="m 16.7184,136.016 -6.6036,-5.138 c 0,0 14.8875,-0.151 14.8875,0 0,0.151 3.4465,5.138 3.4465,5.138 H 16.7184"
         style="fill:#a1342a;fill-opacity:1;fill-rule:nonzero;stroke:none;stroke-width:0.1"
         id="path1704" />
      <path
         d="m 10.1148,130.878 v -1.226 h 14.8875 v 1.226 H 10.1148"
         style="fill:#7c2623;fill-opacity:1;fill-rule:nonzero;stroke:none;stroke-width:0.1"
         id="path1706" />
      <path
         d="m 40.477,144.405 v -27.511 h -2.0911 v 27.511 h 2.0911"
         style="fill:#5a1a1b;fill-opacity:1;fill-rule:nonzero;stroke:none;stroke-width:0.1"
         id="path1708" />
      <path
         d="m 42.0895,116.261 6.4054,-1.318 c 0.5274,-0.108 0.9094,-0.567 0.9207,-1.105 0.0133,-0.637 -0.4922,-1.164 -1.1289,-1.177 l -9.0508,-0.19 c -0.7191,-0.015 -1.2765,0.625 -1.1629,1.336 l 0.2329,1.456 c 0.0879,0.55 0.5574,0.959 1.1148,0.971 l 2.4121,0.05 0.2567,-0.023"
         style="fill:#181c1b;fill-opacity:1;fill-rule:nonzero;stroke:none;stroke-width:0.1"
         id="path1710" />
      <path
         d="m 38.6797,113.473 6.8199,-1.373 c 0.659,-0.133 0.9109,-0.798 0.6133,-1.548 -0.325,-0.818 -1.1777,-1.419 -1.8984,-1.404 l -7.5981,0.158 c -0.4496,0.009 -0.859,0.565 -0.8711,1.203 l -0.0277,1.474 c -0.0117,0.624 0.2777,1.146 0.7012,1.207 l 2.0257,0.29 0.2352,-0.007"
         style="fill:#181c1b;fill-opacity:1;fill-rule:nonzero;stroke:none;stroke-width:0.1"
         id="path1712" />
      <path
         d="m 31.8441,132.433 c 1.5164,1.156 2.943,2.504 4.034,4.078 1.8899,-5.089 7.0231,-19.429 6.85,-19.905 -0.2398,-0.661 -0.7308,-1.238 -1.1832,-1.764 -0.9386,-1.091 -2.0972,-0.921 -3.3961,-1.527 -0.4386,-0.205 -5.3738,14.255 -6.9441,18.644 0.2152,0.156 0.4285,0.313 0.6394,0.474"
         style="fill:#191b39;fill-opacity:1;fill-rule:nonzero;stroke:none;stroke-width:0.1"
         id="path1714" />
      <path
         d="m 90.6688,157.379 c -0.0754,2.76 -1.2274,5.906 -0.8993,8.462 0.268,2.084 0.4375,5.117 -0.4996,6.852 -0.9965,1.845 -2.6969,2.172 -4.1929,2.527 -1.3817,0.326 -3.5965,-0.161 -4.7,-1.52 -1.0125,-1.246 -0.9008,-3.114 -1.0278,-5.165 -0.0664,-1.077 0.5438,-3.812 0.6231,-4.159 -0.0231,-0.098 -0.0387,-0.202 -0.0461,-0.312 -0.1055,-1.607 -0.0379,-3.218 -0.0102,-4.828 0.0242,-1.409 -0.1195,-2.902 0.1488,-4.271 0.4442,-2.264 1.7485,-3.597 3.184,-3.984 0.9649,-0.261 1.9278,-0.181 2.8825,0.143 0.8906,0.304 1.7492,0.805 2.6437,1.084 0.2254,0.07 0.4211,0.146 0.5926,0.233 l -0.1465,2.528 0.5234,-2.285 c 0.5532,0.459 0.7383,1.208 0.8692,2.701 0.0582,0.666 0.073,1.331 0.0551,1.994"
         style="fill:#181c1b;fill-opacity:1;fill-rule:nonzero;stroke:none;stroke-width:0.1"
         id="path1716" />
      <path
         d="m 25.2668,128.274 c 0.2738,0.102 0.5461,0.208 0.8164,0.317 1.7344,0.7 3.4176,1.551 5.0137,2.538 3.2152,-6.799 6.9328,-14.533 8.8707,-17.946 0.2211,-0.39 -3.2895,-2.676 -4.7063,-2.768 -0.709,-0.046 -1.0691,0.818 -1.3508,1.427 -0.4519,0.977 -4.6406,9.01 -8.6437,16.432"
         style="fill:#26285e;fill-opacity:1;fill-rule:nonzero;stroke:none;stroke-width:0.1"
         id="path1718" />
      <path
         d="m 83.4949,160.725 c 0.7137,-0.669 2.277,-0.941 2.9446,0.018 0.3144,-0.015 0.6402,0.312 0.5293,0.825 l -0.0329,0.153 c -0.0027,0.086 -0.0187,0.175 -0.0515,0.265 -0.0528,0.311 -0.0895,0.625 -0.125,0.94 -0.0149,0.126 -0.0289,0.253 -0.0449,0.38 l -0.0012,0.248 c 0.0039,0.185 -0.0375,0.331 -0.1051,0.436 l -0.0156,0.077 -0.0442,0.198 c -0.1718,0.7 -0.8609,0.564 -0.9886,-0.004 -0.1211,-0.068 -0.2262,-0.197 -0.2832,-0.398 l -0.0262,-0.103 c -0.0359,-0.152 -0.0547,-0.311 -0.0602,-0.471 l -0.0058,-0.002 -0.0149,-0.007 c -0.1832,0.13 -0.4242,0.119 -0.5875,-0.069 l -0.234,0.03 -0.0515,0.093 -0.0629,0.193 c -0.2188,0.458 -0.7996,0.289 -0.9195,-0.211 -0.0274,-0.105 -0.0321,-0.226 -0.0086,-0.358 0.0261,-0.152 0.0422,-0.304 0.0508,-0.458 -0.0094,-0.122 -0.0188,-0.244 -0.0282,-0.366 v -10e-4 c -0.0172,-0.219 -0.0332,-0.438 -0.0394,-0.658 -0.05,-0.259 -0.0012,-0.555 0.2062,-0.75"
         style="fill:#f8a378;fill-opacity:1;fill-rule:nonzero;stroke:none;stroke-width:0.1"
         id="path1720" />
      <path
         d="m 83.3055,162.958 c 0.0261,-0.152 0.0422,-0.304 0.0508,-0.458 -0.0094,-0.122 -0.0188,-0.244 -0.0282,-0.366 v -10e-4 c 0,0 1.1629,-2.212 3.5563,-0.147 -0.0153,0.127 -0.1539,1.193 -0.1699,1.32 l -0.0012,0.248 c 0.0039,0.185 -0.0375,0.331 -0.1051,0.436 l -0.0156,0.077 -1.3422,-0.307 -1.0168,-0.233 -0.9195,-0.211 c -0.0274,-0.105 -0.0321,-0.226 -0.0086,-0.358"
         style="fill:#f28c73;fill-opacity:1;fill-rule:nonzero;stroke:none;stroke-width:0.1"
         id="path1722" />
      <path
         d="m 80.827,171.528 c 0.157,0.17 0.3605,0.32 0.6214,0.444 0.5039,0.239 1.3157,0.038 1.8473,0.155 0.9102,0.199 2.1848,0.62 2.9547,-0.093 0.7156,-0.662 0.5984,-1.721 0.7461,-2.644 0.0308,-0.193 0.0734,-0.382 0.1219,-0.57 l 0.0254,0.026 c 0.1976,0.191 0.4375,0.303 0.714,0.306 0.2074,0.003 0.4668,-0.134 0.5141,-0.356 0.1554,-0.734 -0.1977,-1.41 -0.7285,-1.904 l -0.0141,-0.012 c 0.05,-0.311 0.0715,-0.628 0.0402,-0.957 -0.1082,-1.145 -0.8187,-1.976 -1.564,-2.793 -0.6875,-0.753 -1.5184,-0.91 -2.495,-0.656 -0.989,0.258 -1.4863,0.974 -1.8996,1.859 -0.4492,0.961 -0.8652,1.905 -0.9351,2.974 -0.0852,1.311 -0.9246,3.162 0.0512,4.221"
         style="fill:#f8a378;fill-opacity:1;fill-rule:nonzero;stroke:none;stroke-width:0.1"
         id="path1724" />
      <path
         d="m 31.2047,131.959 c -0.3922,1.844 -11.0727,2.777 -11.3469,4.233 -0.0855,0.456 0.0563,0.92 0.4621,1.141 -0.1847,1.451 -0.289,2.911 -0.2441,4.393 0.0332,1.096 1.743,1.147 1.7097,0.043 -0.0101,-0.331 -0.0117,-0.661 -0.0074,-0.991 l 0.0032,0.016 c 0.1148,0.611 0.1757,1.213 0.1355,1.834 -0.0145,0.221 0.043,0.399 0.1445,0.533 0.0133,0.502 0.4075,0.992 1.0266,0.81 0.4324,-0.126 0.8559,-0.273 1.2691,-0.439 0.2645,0.597 1.3407,0.728 1.6325,-0.084 l 0.0265,-0.079 c 0.2887,-0.847 0.3215,-1.761 0.3809,-2.645 3.1797,-2.562 9.2683,-2.378 9.4812,-4.213 0.7121,-6.132 -2.9347,-4.281 -4.6734,-4.552"
         style="fill:#191b39;fill-opacity:1;fill-rule:nonzero;stroke:none;stroke-width:0.1"
         id="path1726" />
      <path
         d="m 79.6801,157.74 c 0.0281,0.867 -0.0274,1.733 -0.2215,2.608 0.3437,0.134 0.7125,0.224 1.0852,0.299 0.1773,0.035 0.3546,0.067 0.5312,0.099 0.3867,0.069 0.7656,0.137 1.1148,0.235 0.536,0.152 0.9856,0.275 1.5114,0.013 0.2957,-0.146 0.5816,-0.337 0.9093,-0.373 0.5895,-0.066 0.8899,0.344 1.3458,0.602 0.1878,0.107 0.3718,0.159 0.5671,0.181 0.4325,0.048 0.9536,-0.347 1.3469,-0.498 0.5051,-0.193 1.0172,-0.367 1.5317,-0.535 l 0.0273,-0.008 c 0.1961,-0.066 0.3941,-0.13 0.5902,-0.194 0.1926,-0.063 0.384,-0.125 0.5754,-0.188 l 0.2301,-0.09 c 0.348,-0.16 0.55,-0.395 0.6258,-0.825 0.034,-0.188 0.0375,-0.376 0.0246,-0.563 l -0.1504,-0.134 c -0.334,-0.415 -0.5105,-0.862 -0.6297,-1.336 0.0106,-0.082 0.0067,-0.17 -0.016,-0.264 -0.0984,-0.417 -0.2094,-0.836 -0.257,-1.261 -0.0328,-0.292 -0.1754,-0.529 -0.4188,-0.639 -0.0836,-0.037 -0.1781,-0.06 -0.2851,-0.065 -0.2844,-0.013 -0.5661,-0.002 -0.8457,0.019 -0.4,0.032 -0.7961,0.088 -1.1957,0.143 -0.0977,0.013 -0.1961,0.025 -0.2938,0.035 -0.1781,0.02 -0.3562,0.035 -0.5344,0.047 l -0.1554,-0.229 c -1.3246,-1.128 -3.2407,-1.29 -4.5223,-0.002 l -0.1445,0.254 c -0.184,0.009 -0.3676,0.02 -0.5508,0.036 -0.1981,-0.187 -0.4903,-0.261 -0.7942,-0.074 -0.4945,0.307 -0.8933,0.878 -1.0558,1.486 -0.0938,0.351 -0.109,0.714 -0.018,1.046 l 0.0723,0.175"
         style="fill:#f8a378;fill-opacity:1;fill-rule:nonzero;stroke:none;stroke-width:0.1"
         id="path1728" />
      <path
         d="m 23.3313,138.436 c -0.0684,-0.909 1.9792,-2.199 1.2632,-2.637 0.0047,-0.506 6.5203,-3.305 6.5024,-4.67 -0.5262,-2.855 -5.2278,-2.696 -5.8301,-2.855 -11.1984,3.121 -10.5023,6.31 -10.6336,7.102 -0.2687,1.622 0.2496,3.291 0.5285,4.912 0.1176,0.684 0.2821,1.576 0.7516,2.091 l -0.0028,0.107 c -0.0046,0.106 -0.0097,0.211 -0.0167,0.315 -0.0153,0.234 0.046,0.422 0.1531,0.565 0.014,0.531 0.432,1.05 1.0867,0.857 1.6394,-0.48 3.1566,-1.223 4.4914,-2.273 0.1438,0.998 1.7746,0.986 1.7992,-0.122 0.0188,-0.845 -0.0226,-1.704 -0.1625,-2.538 -0.0027,-0.674 0.1196,-0.183 0.0696,-0.854"
         style="fill:#26285e;fill-opacity:1;fill-rule:nonzero;stroke:none;stroke-width:0.1"
         id="path1730" />
      <path
         d="m 79.3172,149.714 c 0.1051,-0.18 0.2043,-0.36 0.2879,-0.549 0.1312,-0.299 0.2215,-0.619 0.2254,-0.986 0.0093,-1.078 -0.4543,-2.106 -0.7407,-3.129 -0.4496,-1.605 -1.1855,-3.572 -1.1675,-5.257 7e-4,-0.138 0.016,-0.253 0.0535,-0.328 l 0.091,-0.17 c 0.5051,-0.833 1.5,-1.07 2.3785,-1.299 2.7172,-0.708 5.725,-1.495 8.4988,-0.612 0.9817,0.313 2.0368,0.81 2.3086,1.899 0.2328,0.933 -0.4129,2.482 -0.6359,3.4 -0.0668,0.274 -0.1512,0.556 -0.2441,0.843 -0.443,1.369 -1.0825,2.856 -0.9688,4.208 0.0441,0.522 0.1879,1.012 0.3641,1.492 0.0836,0.228 0.1746,0.455 0.2648,0.682 0.0629,-0.162 0.1277,-0.324 0.1926,-0.486 0.3883,-0.964 1.4559,-4.318 1.6711,-5.345 0.0328,-0.158 0.4105,-0.186 1.0406,-0.08 0.1875,0.031 1.1024,1.439 1.3152,1.511 0.5922,0.202 0.0915,1.886 -0.0777,2.489 -0.1973,0.703 -0.4469,1.406 -0.5828,2.11 -0.3059,1.591 -0.3473,3.17 -0.4652,4.781 -0.111,1.502 -0.2989,3.207 -1.1848,4.48 -0.5609,0.808 -4.4016,0.252 -7.5578,0.397 -2.3949,0.11 -4.2977,1.029 -4.6418,0.908 l -0.425,-10.959"
         style="fill:#db125b;fill-opacity:1;fill-rule:nonzero;stroke:none;stroke-width:0.1"
         id="path1732" />
      <path
         d="m 29.241,143.529 v -31.503 c 0,0 6.1703,-5.588 25.368,-5.588 19.1976,0 24.7328,4.493 24.7328,4.493 l 0.6352,32.598 H 29.241"
         style="fill:#eca90f;fill-opacity:1;fill-rule:nonzero;stroke:none;stroke-width:0.1"
         id="path1734" />
      <path
         d="m 31.6715,145.508 c 4.066,1.567 12.8078,2.651 22.9375,2.651 10.1297,0 18.8715,-1.084 22.9379,-2.651 h 2.4301 v -1.979 c 0,-2.558 -11.3579,-4.631 -25.368,-4.631 -14.0106,0 -25.368,2.073 -25.368,4.631 v 1.979 h 2.4305"
         style="fill:#eca90f;fill-opacity:1;fill-rule:nonzero;stroke:none;stroke-width:0.1"
         id="path1736" />
      <path
         d="m 29.241,145.508 c 0,-2.557 11.3574,-4.63 25.368,-4.63 14.0101,0 25.368,2.073 25.368,4.63 0,2.558 -11.3579,4.631 -25.368,4.631 -14.0106,0 -25.368,-2.073 -25.368,-4.631"
         style="fill:#f9d859;fill-opacity:1;fill-rule:nonzero;stroke:none;stroke-width:0.1"
         id="path1738" />
      <path
         d="m 39.3496,146.375 c 0.757,0.474 1.8688,0.671 2.8102,0.779 0.5961,0.068 1.109,0.006 1.5886,-0.131 0.4856,-0.056 0.9114,-0.219 1.2387,-0.509 L 45,146.508 l 0.1016,-0.06 c 0.7004,-0.3 0.6461,-1.184 0.6089,-1.743 -0.0289,-0.428 -0.9234,-0.409 -0.9035,0.016 -0.1777,-0.083 -0.4172,-0.058 -0.5629,0.039 -0.5226,-0.287 -1.0863,-0.483 -1.7207,-0.413 -0.0562,-0.04 -0.1293,-0.072 -0.2242,-0.088 -0.6531,-0.11 -1.3035,-0.144 -1.9258,0.017 -0.2418,0.062 -0.4609,0.154 -0.623,0.299 -0.1992,0.179 -0.1563,0.4 -0.2934,0.59 l -0.0476,0.193 c -0.4196,0.218 -0.5942,0.683 -0.0598,1.017"
         style="fill:#f8a378;fill-opacity:1;fill-rule:nonzero;stroke:none;stroke-width:0.1"
         id="path1740" />
      <path
         d="m 39.2445,147.212 1.0993,-0.18 -0.4493,-2.645 -1.3273,0.305 0.6773,2.52"
         style="fill:#94cfd8;fill-opacity:1;fill-rule:nonzero;stroke:none;stroke-width:0.1"
         id="path1742" />
      <path
         d="m 19.2555,164.243 c 0.0308,-0.609 0.2265,-1.117 0.7293,-1.376 0.5691,-0.294 1.2886,-0.559 1.9371,-0.579 1.041,-0.033 2.7531,0.258 2.7144,1.475 -0.0047,0.145 -0.0183,0.683 -0.0418,1.335 -0.0195,0.542 -0.0457,1.163 -0.08,1.703 -0.0481,0.732 -0.1094,1.315 -0.1887,1.348 -0.3969,0.166 -0.9371,0.074 -1.2156,-0.243 l -0.2418,-0.066 c -0.1485,-0.061 -0.2825,-0.158 -0.386,-0.294 l -0.0179,-0.001 c -0.1106,0.044 -0.2301,0.067 -0.352,0.072 -0.2242,0.201 -0.5422,0.284 -0.8379,0.236 -0.2894,0.125 -0.6433,0.13 -0.9148,-0.009 0.0586,0.03 -0.0196,0.25 -0.1289,0.341 -0.0942,-0.507 -0.1993,-1.013 -0.3161,-1.517 -0.1871,-0.816 -0.4046,-1.628 -0.6593,-2.425"
         style="fill:#f8a378;fill-opacity:1;fill-rule:nonzero;stroke:none;stroke-width:0.1"
         id="path1744" />
      <path
         d="m 19.9148,166.668 c 1.6891,-2.78 3.827,-2.03 4.6797,-1.57 -0.0195,0.542 -0.0457,1.163 -0.08,1.703 -0.1758,0.119 -0.8411,0.567 -1.6461,1.039 -0.1485,-0.061 -0.2825,-0.158 -0.386,-0.294 l -0.0179,-0.001 c -0.1106,0.044 -0.2301,0.067 -0.352,0.072 -0.2242,0.201 -0.5422,0.284 -0.8379,0.236 -0.2894,0.125 -0.6433,0.13 -0.9148,-0.009 0.0586,0.03 -0.0196,0.25 -0.1289,0.341 -0.0942,-0.507 -0.1993,-1.013 -0.3161,-1.517"
         style="fill:#f28c73;fill-opacity:1;fill-rule:nonzero;stroke:none;stroke-width:0.1"
         id="path1746" />
      <path
         d="m 14.6102,137.227 c 0,0 8.8183,-2.145 11.875,0.439 1.4882,1.258 -5.8567,4.027 -5.8567,4.027 l -5.4668,-1.405 -0.5515,-3.061"
         style="fill:#191b39;fill-opacity:1;fill-rule:nonzero;stroke:none;stroke-width:0.1"
         id="path1748" />
      <path
         d="m 25.1438,164.452 -0.252,-0.111 c -0.1648,-0.092 -0.2391,-0.228 -0.2484,-0.369 -0.2899,-0.421 -0.9106,-0.904 -2.2383,-0.976 -2.4203,-0.129 -3.1496,1.246 -3.1496,1.246 l -0.0563,-0.035 c -0.1058,0.062 -0.239,0.082 -0.3922,0.032 -1.0738,-0.355 -2.28,-0.485 -3.3535,-0.926 l -0.0523,-0.022 c -0.2785,-0.079 -0.5543,-0.174 -0.8297,-0.276 -0.5985,-0.221 1.5836,-9.043 1.5582,-9.498 -0.0742,-1.324 -0.207,-2.646 -0.3184,-3.967 -0.125,-1.494 -0.1886,-2.999 -0.3527,-4.489 -0.0359,-0.323 -0.0691,-0.648 -0.0762,-0.972 -0.1433,-0.603 -0.159,-2.168 0.0266,-2.785 0.1633,-0.541 0.4496,-0.136 0.8308,-0.535 0.352,-0.371 4.2735,-0.833 5.9957,-0.948 1.7016,-0.113 3.5036,-0.367 4.6879,0.903 0.6829,0.732 1.1911,0.825 1.4129,1.799 0.2719,1.189 -0.5691,8.794 -0.5726,9.373 -0.0071,1.123 -0.0875,2.349 0.0699,3.497 -0.0086,2.859 1.643,9.169 -2.6898,9.059"
         style="fill:#94cfd8;fill-opacity:1;fill-rule:nonzero;stroke:none;stroke-width:0.1"
         id="path1750" />
      <path
         d="m 17.8078,163.965 c 0,0 4.6539,-9.896 4.675,-10.721 0.0184,-0.723 0.95,-11.091 1.1817,-13.66 0.0277,-0.306 -0.2188,-2.292 -0.5258,-2.281 -1.7375,0.062 -7.3742,-0.038 -8.4856,0.902 0.2969,4.773 0.6063,15.679 0.6063,15.679 0,0 -3.0496,8.747 -1.8949,9.1 3.2054,0.981 4.4433,0.981 4.4433,0.981"
         style="fill:#26285e;fill-opacity:1;fill-rule:nonzero;stroke:none;stroke-width:0.1"
         id="path1752" />
      <path
         d="m 22.1406,154.557 -3.3336,9.682 -2.2371,-0.274 c -0.1703,-0.044 -0.257,-0.234 -0.1785,-0.392 l 6.275,-12.453 -0.1914,1.946 c -0.0051,0.515 -0.1187,1.023 -0.3344,1.491"
         style="fill:#191b39;fill-opacity:1;fill-rule:nonzero;stroke:none;stroke-width:0.1"
         id="path1754" />
      <path
         d="m 25.1438,164.452 c 0,0 3.0218,-0.261 4.2433,-2.028 1.2211,-1.766 3.0742,-12.943 3.0742,-12.943 l 7.1578,-1.66 -0.4671,-4.125 c 0,0 -9.184,1.336 -9.8954,2.173 -0.7117,0.838 -1.3273,5.577 -1.3273,5.577 l 0.5371,-11.862 c 0,0 -0.5648,-2.094 -3.634,-1.924 -0.9535,0.052 -0.8406,15.674 -0.8406,15.674 l 1.152,11.118"
         style="fill:#26285e;fill-opacity:1;fill-rule:nonzero;stroke:none;stroke-width:0.1"
         id="path1756" />
      <path
         d="m 24.0355,151.615 -0.0542,2.129 1.1625,10.708 c 0,0 1.4308,-0.005 2.3609,-0.412 -0.9422,-3.634 -3.4692,-12.425 -3.4692,-12.425"
         style="fill:#191b39;fill-opacity:1;fill-rule:nonzero;stroke:none;stroke-width:0.1"
         id="path1758" />
      <path
         d="m 23.0559,163.013 -3.5157,2.181 -0.7332,-0.955 3.2047,-2.824 1.0442,1.598"
         style="fill:#72abb6;fill-opacity:1;fill-rule:nonzero;stroke:none;stroke-width:0.1"
         id="path1760" />
      <path
         d="m 23.0559,163.013 0.8789,-1.371 1.209,2.81 -0.3844,0.65 -1.7035,-2.089"
         style="fill:#72abb6;fill-opacity:1;fill-rule:nonzero;stroke:none;stroke-width:0.1"
         id="path1762" />
      <path
         d="m 19.0703,170.458 c -0.1512,0.434 -0.4652,0.338 -0.716,0.577 -0.484,0.463 -0.8469,1.406 -0.575,2.043 0.2176,0.51 0.6816,0.891 1.2609,0.791 l 0.0887,-0.019 c -0.0359,0.264 -0.0934,0.53 -0.1887,0.798 -0.0089,0.306 -0.0121,0.609 -0.0129,0.91 0.0614,0.134 0.1235,0.268 0.1969,0.396 0.3969,0.694 1.4598,0.986 2.2207,1.05 1.9031,0.16 3.9399,-0.8 5.716,0.245 0.0313,-0.091 0.0594,-0.184 0.0832,-0.279 0.2473,-1.62 -0.1543,-3.37 -0.3179,-4.963 -0.0434,-0.42 -0.0684,-0.84 -0.0969,-1.256 -0.0555,-0.398 -0.1008,-0.797 -0.1141,-1.199 l -4e-4,-0.006 c -0.105,-0.758 -0.2976,-1.49 -0.7175,-2.171 -0.0754,-0.314 -0.1868,-0.615 -0.3317,-0.861 -0.4332,-0.734 -1.3105,-0.808 -2.0769,-0.826 -0.7364,-0.017 -1.5153,-0.01 -2.0817,0.53 -0.5406,0.515 -1.0422,1.208 -1.4664,1.821 -0.5058,0.732 -0.5785,1.581 -0.8703,2.419"
         style="fill:#f8a378;fill-opacity:1;fill-rule:nonzero;stroke:none;stroke-width:0.1"
         id="path1764" />
      <path
         d="m 25.2668,135.255 -1.9086,-2.516 -4.468,3.797 5.7043,-0.737 0.6723,-0.544"
         style="fill:#191b39;fill-opacity:1;fill-rule:nonzero;stroke:none;stroke-width:0.1"
         id="path1766" />
      <path
         d="m 23.0559,163.013 1.0441,-23.291 -0.4355,-0.138 -0.9981,23.154 0.3895,0.275"
         style="fill:#72abb6;fill-opacity:1;fill-rule:nonzero;stroke:none;stroke-width:0.1"
         id="path1768" />
      <path
         d="m 24.4516,134.757 0.0593,0.18 c -0.2718,0.334 -0.1824,0.789 0.4957,0.881 0.9614,0.131 2.1028,-0.098 3.0375,-0.342 0.3282,-0.086 0.6094,-0.197 0.8598,-0.327 0.7328,-0.193 1.4231,-0.53 1.9199,-0.992 0.5871,-0.546 0.5797,-1.15 0.8719,-1.785 l 0.1313,-0.253 c 0.0925,-0.224 -0.2106,-0.402 -0.4586,-0.376 l -0.1168,-0.165 c -0.1102,-0.087 -0.0946,-0.064 -0.2586,-0.081 -0.2653,-0.026 -0.6145,0.074 -0.8532,0.154 0.4665,-0.157 -0.1984,-0.809 -0.571,-0.376 -0.6352,0.738 -2.8079,1.429 -2.8149,1.454 -0.4242,0.116 -0.7961,0.309 -1.1523,0.531 l -0.0196,0.015 c -0.275,0.108 -0.5312,0.239 -0.759,0.404 -0.191,0.139 -0.3457,0.294 -0.4179,0.475 -0.0883,0.222 0.0711,0.394 0.0465,0.603"
         style="fill:#f8a378;fill-opacity:1;fill-rule:nonzero;stroke:none;stroke-width:0.1"
         id="path1770" />
      <path
         d="m 25.2125,136.59 0.9055,-0.649 -1.5754,-2.171 -1.0547,0.862 1.7246,1.958"
         style="fill:#94cfd8;fill-opacity:1;fill-rule:nonzero;stroke:none;stroke-width:0.1"
         id="path1772" />
      <path
         d="m 13.0934,162.804 c 0,0 -2.0887,-3.401 0.0097,-17.563 0.2426,-1.636 10.2801,-11.567 10.2801,-11.567 l 2.7438,3.629 -8.4411,9.25 -1.7703,8.964 -2.8222,7.287"
         style="fill:#26285e;fill-opacity:1;fill-rule:nonzero;stroke:none;stroke-width:0.1"
         id="path1774" />
      <path
         d="m 15.9156,155.517 2.4692,-8.964 4.9984,-6.266 -5.6973,5.818 -1.7703,9.412"
         style="fill:#191b39;fill-opacity:1;fill-rule:nonzero;stroke:none;stroke-width:0.1"
         id="path1776" />
      <path
         d="m 41.325,145.66 c 0.7984,-0.171 1.7031,-0.208 2.3969,-0.683 0.2633,-0.181 0.2804,-0.553 0,-0.73 -0.7809,-0.493 -1.8578,0.076 -2.5348,0.516 l -0.098,0.086 c -0.5164,0.123 -0.2914,0.924 0.2359,0.811"
         style="fill:#f8a378;fill-opacity:1;fill-rule:nonzero;stroke:none;stroke-width:0.1"
         id="path1778" />
      <path
         d="m 56.3707,154.89 -0.7039,5.139 h 2.8156 l -0.7039,-5.139 c 0,0 2.9567,-2.464 1.5488,-4.904 -1.4078,-2.44 -2.2527,-2.065 -2.2527,-2.065 0,0 -0.8445,-0.375 -2.2527,2.065 -1.4078,2.44 1.5488,4.904 1.5488,4.904"
         style="fill:#94cfd8;fill-opacity:1;fill-rule:nonzero;stroke:none;stroke-width:0.1"
         id="path1780" />
      <path
         d="m 55.677,165.69 c -0.3317,0.067 -0.6629,0.205 -0.9965,0.298 -0.127,0.094 -0.2504,0.192 -0.3668,0.298 -0.2676,0.244 -0.5239,0.582 -0.4418,0.935 0.6191,-0.216 1.1711,-0.62 1.5636,-1.146 -0.2371,0.606 -0.4773,1.226 -0.5019,1.876 0.441,-0.126 0.7117,-0.562 0.9059,-0.978 0.1527,-0.328 0.3871,-0.935 0.2558,-1.355 -0.139,0.021 -0.2789,0.044 -0.4183,0.072"
         style="fill:#bd1553;fill-opacity:1;fill-rule:nonzero;stroke:none;stroke-width:0.1"
         id="path1782" />
      <path
         d="m 55.8945,167.613 c -0.2785,0.062 -0.305,-0.941 -0.3398,-1.227 -0.0727,0.245 -1.1317,1.632 -1.3051,1.028 -0.1516,-0.529 0.5363,-1.205 0.902,-1.472 -0.2996,0.219 -0.745,0.554 -1.1371,0.53 -0.4336,-0.027 -0.5231,-0.437 -0.2192,-0.699 0.4625,-0.398 1.6344,-0.526 2.2094,-0.36 0.4023,0.115 0.4008,0.368 0.4082,0.763 0.0078,0.405 -0.0691,0.885 -0.3063,1.239 -0.0836,0.124 -0.1535,0.185 -0.2121,0.198"
         style="fill:#db125b;fill-opacity:1;fill-rule:nonzero;stroke:none;stroke-width:0.1"
         id="path1784" />
      <path
         d="m 55.468,151.729 v -5.638 c 0,-0.263 -0.1633,-0.488 -0.3938,-0.578 L 54.848,145.47 h -3.646 c -0.3426,0 -0.6204,0.278 -0.6204,0.621 v 5.638 l 4e-4,0.051 8e-4,0.041 0.0016,0.048 0.0027,0.056 0.002,0.028 0.0023,0.035 0.0024,0.034 0.0093,0.095 v 0.002 l 0.0047,0.041 0.0063,0.048 0.005,0.038 0.0016,0.011 0.0063,0.041 0.0097,0.058 0.0121,0.066 0.0141,0.068 0.0156,0.067 0.0164,0.068 0.0121,0.045 0.0067,0.025 0.0125,0.043 0.0117,0.04 0.0144,0.046 c 0.1125,0.352 0.2786,0.686 0.4954,0.991 0.5921,0.833 0.9101,1.829 0.9101,2.851 v 4.527 h 1.734 v -4.527 c 0,-0.296 0.0266,-0.589 0.0789,-0.877 0.0383,-0.21 0.0895,-0.417 0.1543,-0.619 0.1535,-0.481 0.3813,-0.939 0.6773,-1.355 0.3579,-0.503 0.5786,-1.088 0.645,-1.697 0.0136,-0.128 0.0207,-0.258 0.0207,-0.389"
         style="fill:#1e2719;fill-opacity:1;fill-rule:nonzero;stroke:none;stroke-width:0.1"
         id="path1786" />
      <path
         d="m 52.1578,158.317 h 1.73398 v 2.48164 H 52.1578 Z"
         style="fill:#db125b;fill-opacity:1;fill-rule:nonzero;stroke:none;stroke-width:0.1"
         id="path1788" />
      <path
         d="m 53.8918,161.696 v -0.503 h -1.734 v 0.503 c 0,0.158 0.1281,0.285 0.286,0.285 h 1.1625 c 0.1578,0 0.2855,-0.127 0.2855,-0.285"
         style="fill:#db125b;fill-opacity:1;fill-rule:nonzero;stroke:none;stroke-width:0.1"
         id="path1790" />
      <path
         d="m 54.0691,161.359 v -0.765 l -0.1296,-0.13 h -1.829 l -0.1296,0.13 v 0.765 l 0.1296,0.13 h 1.829 l 0.1296,-0.13"
         style="fill:#bd1553;fill-opacity:1;fill-rule:nonzero;stroke:none;stroke-width:0.1"
         id="path1792" />
      <path
         d="m 55.468,151.729 v -3.253 h -4.8864 v 3.253 c 0,0.131 0.0075,0.261 0.0215,0.389 h 4.8442 c 0.0136,-0.128 0.0207,-0.258 0.0207,-0.389"
         style="fill:#f4f5f5;fill-opacity:1;fill-rule:nonzero;stroke:none;stroke-width:0.1"
         id="path1794" />
      <path
         d="m 52.9648,149.799 c -0.0554,0.006 -0.2335,0.029 -0.2121,0.257 0.0164,0.162 0.1258,0.371 0.2137,0.571 0.1078,0.249 -0.0422,0.235 -0.2851,-0.069 -0.0848,-0.105 -0.3145,-0.46 -0.3633,-0.578 -0.0512,-0.119 -0.1485,-0.066 -0.1231,-0.027 0.0219,0.045 0.2149,0.339 0.2692,0.785 0.0214,0.174 -0.0934,0.165 -0.2,0.032 -0.2352,-0.291 -0.3024,-0.455 -0.4875,-0.865 l -0.111,-0.008 c 0.1149,0.178 0.2985,0.637 0.3297,0.857 0.0742,0.538 -0.6012,0.159 -0.732,-0.2 -0.1137,-0.314 0.0715,-0.463 0.25,-0.398 0.1726,0.065 0.3012,0.401 0.0863,0.373 l 0.0067,0.028 c 0.2253,0.032 0.1972,-0.305 -0.0946,-0.427 -0.2,-0.082 -0.4551,0.116 -0.3199,0.438 0.1945,0.454 0.9316,0.721 0.8816,0.183 l -0.0703,-0.268 0.018,-0.015 c 0.0781,0.142 0.1242,0.21 0.2199,0.327 0.1039,0.125 0.327,0.179 0.3055,-0.05 -0.0164,-0.173 -0.0774,-0.337 -0.1324,-0.505 0.055,0.086 0.1566,0.229 0.2672,0.367 0.3121,0.39 0.5148,0.302 0.3593,-0.008 -0.1176,-0.234 -0.3687,-0.792 -0.0543,-0.778 l -0.0215,-0.022"
         style="fill:#1e2719;fill-opacity:1;fill-rule:nonzero;stroke:none;stroke-width:0.1"
         id="path1796" />
      <path
         d="m 53.1523,150.311 -0.0812,-0.127 0.1434,0.06 c 0.1105,0.093 0.1039,0.268 -0.0622,0.067 z m -0.0554,-0.363 -0.1297,0.13 0.1039,0.252 0.2312,0.088 -0.0742,-0.197 -0.1664,-0.06 0.0461,-0.185 c 0.1188,0 0.1914,0.16 0.2227,0.231 l 0.0246,-0.001 c -0.05,-0.108 -0.1082,-0.258 -0.2582,-0.258"
         style="fill:#1e2719;fill-opacity:1;fill-rule:nonzero;stroke:none;stroke-width:0.1"
         id="path1798" />
      <path
         d="m 53.5074,149.955 c -0.0461,-0.011 -0.1281,0.029 -0.0742,0.17 l 0.0836,0.159 -0.1039,0.064 -0.016,-0.044 -0.1637,-0.298 -0.0105,0.017 c 0.1066,0.141 0.1808,0.345 0.2078,0.496 0.0133,0.076 0.1011,0.042 0.0824,-0.049 l -0.0742,-0.09 0.1863,0.005 -0.0285,-0.104 -0.077,-0.293 0.1676,0.226 0.016,-0.014 -0.1957,-0.245"
         style="fill:#1e2719;fill-opacity:1;fill-rule:nonzero;stroke:none;stroke-width:0.1"
         id="path1800" />
      <path
         d="m 53.984,150.7 c -0.066,-0.093 -0.1715,-0.335 -0.2133,-0.443 0.0957,0.097 0.193,0.257 0.2457,0.382 0.027,0.062 0.0406,0.165 -0.0324,0.061 z m -0.2242,-0.486 -0.0282,-0.089 c -0.0406,-0.162 0.0676,-0.185 0.1391,-0.085 l 0.1,0.171 0.0199,-0.007 c -0.0336,-0.071 -0.1039,-0.253 -0.2402,-0.253 -0.1512,0 -0.0863,0.185 -0.0633,0.266 0.0418,0.151 0.127,0.345 0.2051,0.476 0.0961,0.161 0.2418,0.142 0.1445,-0.074 -0.0621,-0.139 -0.1445,-0.285 -0.2769,-0.405"
         style="fill:#1e2719;fill-opacity:1;fill-rule:nonzero;stroke:none;stroke-width:0.1"
         id="path1802" />
      <path
         d="m 54.057,150.204 c -0.0527,-0.11 -0.0648,-0.205 -0.0164,-0.22 l 0.0918,0.034 -0.0215,0.066 0.0473,0.058 0.0406,-0.04 -0.0027,-0.015 0.0418,0.073 c 0.0527,0.111 0.0594,0.207 0.0109,0.221 -0.0582,0.017 -0.1418,-0.07 -0.1918,-0.177 z m 0.177,-0.24 -0.0867,0.035 -0.1172,-0.046 c -0.1028,0.003 -0.1176,0.126 -0.0664,0.246 0.0527,0.124 0.1648,0.23 0.2566,0.227 0.1027,-10e-4 0.1176,-0.126 0.066,-0.246 l -0.1133,-0.159 0.0637,-0.034 0.1891,0.232 0.0203,-0.012 c -0.0231,-0.051 -0.0988,-0.243 -0.2121,-0.243"
         style="fill:#1e2719;fill-opacity:1;fill-rule:nonzero;stroke:none;stroke-width:0.1"
         id="path1804" />
      <path
         d="m 54.6902,150.664 -0.0961,-0.198 h 0.0676 l 0.0676,0.138 c 0.0258,0.057 0.0445,0.177 -0.0391,0.06 z m -0.1093,-0.227 -0.0731,-0.18 0.1363,0.18 z m 0.1726,0 h -0.0781 l -0.1797,-0.223 -0.0309,-0.138 c -0.0203,-0.09 0.0418,-0.103 0.0864,-0.07 l 0.1429,0.204 0.0176,-0.008 c -0.0594,-0.124 -0.0824,-0.161 -0.132,-0.211 -0.0731,-0.07 -0.2067,-0.047 -0.1867,0.101 0.0125,0.092 0.0625,0.239 0.1054,0.345 h -0.0703 l 0.0028,0.029 h 0.0812 l 0.0984,0.192 c 0.093,0.164 0.2391,0.141 0.1391,-0.075 l -0.0578,-0.117 h 0.0645 l -0.0028,-0.029"
         style="fill:#1e2719;fill-opacity:1;fill-rule:nonzero;stroke:none;stroke-width:0.1"
         id="path1806" />
      <path
         d="m 54.9758,152.502 c -0.0758,0 -0.2129,0.668 -0.6504,1.618 0,0 0.7883,-0.836 0.7094,-1.419 -0.0188,-0.137 -0.036,-0.199 -0.059,-0.199"
         style="fill:#acb4a6;fill-opacity:1;fill-rule:nonzero;stroke:none;stroke-width:0.1"
         id="path1808" />
      <path
         d="M 51.5277,145.47 H 51.202 c -0.3426,0 -0.6204,0.278 -0.6204,0.621 v 2.385 h 0.9461 v -3.006 m -0.941,6.45 4e-4,0.005 4e-4,0.004 c -4e-4,-0.003 -4e-4,-0.006 -8e-4,-0.009 m 1.1078,0.198 h -1.0914 v 0.001 l 0.0047,0.041 0.0063,0.048 0.005,0.038 0.0016,0.011 0.0063,0.041 0.0097,0.058 0.0121,0.066 0.0141,0.068 0.0156,0.067 0.0164,0.068 0.0121,0.045 0.0067,0.025 0.0125,0.043 0.0117,0.04 0.0144,0.046 c 0.1125,0.352 0.2786,0.686 0.4954,0.991 0.5921,0.833 0.9101,1.829 0.9101,2.851 v 1.651 h 0.4731 v -2.995 c 0,-0.777 -0.1895,-1.541 -0.5516,-2.228 -0.1645,-0.311 -0.293,-0.639 -0.3848,-0.976"
         style="fill:#1b2217;fill-opacity:1;fill-rule:nonzero;stroke:none;stroke-width:0.1"
         id="path1810" />
      <path
         d="m 52.1578,158.317 h 0.473047 v 2.14688 H 52.1578 Z"
         style="fill:#b3164b;fill-opacity:1;fill-rule:nonzero;stroke:none;stroke-width:0.1"
         id="path1812" />
      <path
         d="m 52.6309,161.489 h -0.4731 v 0.207 c 0,0.158 0.1281,0.285 0.286,0.285 h 0.1871 v -0.492"
         style="fill:#b3164b;fill-opacity:1;fill-rule:nonzero;stroke:none;stroke-width:0.1"
         id="path1814" />
      <path
         d="m 52.6309,160.464 h -0.5204 l -0.1296,0.13 v 0.765 l 0.1296,0.13 h 0.0473 0.4731 v -1.025"
         style="fill:#981543;fill-opacity:1;fill-rule:nonzero;stroke:none;stroke-width:0.1"
         id="path1816" />
      <path
         d="m 51.5277,148.476 h -0.9461 v 3.253 l 4e-4,0.051 8e-4,0.041 0.0016,0.048 0.0023,0.051 c 4e-4,0.003 4e-4,0.006 8e-4,0.009 l 0.0016,0.024 0.0023,0.035 0.0024,0.034 0.0093,0.095 v 0.001 h 1.0914 c -0.0093,-0.035 -0.0183,-0.069 -0.0269,-0.104 -0.0867,-0.35 -0.1336,-0.709 -0.1395,-1.071 -0.1402,-0.087 -0.2699,-0.22 -0.3363,-0.375 -0.1145,-0.273 0.0512,-0.457 0.2258,-0.457 0.0316,0 0.0637,0.007 0.0941,0.019 0.0055,0.002 0.0106,0.005 0.016,0.007 v -1.661 m -0.0964,1.665 c -0.1465,0 -0.2641,0.147 -0.168,0.413 0.0437,0.12 0.1476,0.242 0.2644,0.331 0,-0.006 0,-0.013 0,-0.019 v -0.704 c -0.005,-0.002 -0.0097,-0.004 -0.0144,-0.006 -0.0278,-0.01 -0.0555,-0.015 -0.082,-0.015"
         style="fill:#c6c7c6;fill-opacity:1;fill-rule:nonzero;stroke:none;stroke-width:0.1"
         id="path1818" />
      <path
         d="m 51.4176,150.111 c -0.1746,0 -0.3403,0.184 -0.2258,0.457 0.0664,0.155 0.1961,0.288 0.3363,0.375 -4e-4,-0.019 -4e-4,-0.039 -4e-4,-0.058 -0.1168,-0.089 -0.2207,-0.211 -0.2644,-0.331 -0.0961,-0.266 0.0215,-0.413 0.168,-0.413 0.0265,0 0.0542,0.005 0.082,0.015 0.0047,0.002 0.0094,0.004 0.0144,0.006 v -0.025 c -0.0054,-0.002 -0.0105,-0.005 -0.016,-0.007 -0.0304,-0.012 -0.0625,-0.019 -0.0941,-0.019"
         style="fill:#1b2217;fill-opacity:1;fill-rule:nonzero;stroke:none;stroke-width:0.1"
         id="path1820" />
      <path
         d="m 46.1289,148.089 c 0,-1.431 -2.0039,-1.517 -2.0039,-1.517 0,0 -2.0039,0.086 -2.0039,1.517 0,0.236 0.0273,0.487 0.0715,0.743 0.1023,0.597 0.2937,1.221 0.4355,1.754 h 2.9938 c 0.05,-0.186 0.1051,-0.383 0.1605,-0.585 0.1043,-0.38 0.2086,-0.78 0.275,-1.169 0.0442,-0.256 0.0715,-0.507 0.0715,-0.743"
         style="fill:#94cfd8;fill-opacity:1;fill-rule:nonzero;stroke:none;stroke-width:0.1"
         id="path1822" />
      <path
         d="m 45.7387,143.782 -0.9004,0.056 c -0.2891,0.018 -0.5328,0.232 -0.5762,0.518 l -0.0066,0.086 v 1.475 c 0,0.364 0.2429,0.681 0.5929,0.782 0.5739,0.165 1.2801,0.541 1.2801,1.389 0,0.203 -0.0199,0.415 -0.0531,0.633 h -3.9008 c -0.0328,-0.218 -0.0531,-0.43 -0.0531,-0.633 0,-0.848 0.7062,-1.224 1.2801,-1.389 0.35,-0.101 0.5929,-0.418 0.5929,-0.782 v -1.475 l -0.0066,-0.086 c -0.0434,-0.286 -0.2871,-0.5 -0.5762,-0.518 l -0.9004,-0.056 h 3.2274"
         style="fill:#94cfd8;fill-opacity:1;fill-rule:nonzero;stroke:none;stroke-width:0.1"
         id="path1824" />
      <path
         d="m 46.1289,148.089 c 0,-1.431 -2.0039,-1.517 -2.0039,-1.517 0,0 -2.0039,0.086 -2.0039,1.517 0,0.236 0.0273,0.487 0.0715,0.743 h 3.8648 c 0.0442,-0.256 0.0715,-0.507 0.0715,-0.743"
         style="fill:#bd1553;fill-opacity:1;fill-rule:nonzero;stroke:none;stroke-width:0.1"
         id="path1826" />
      <path
         d="m 45.7422,148.832 h -0.6317 c -0.1,0.493 -0.2464,1.182 -0.3625,1.754 h 0.6036 c 0.1254,-0.578 0.2867,-1.27 0.3906,-1.754"
         style="fill:#b5e0e6;fill-opacity:1;fill-rule:nonzero;stroke:none;stroke-width:0.1"
         id="path1828" />
      <path
         d="m 44.777,146.896 c 0,0 0.496,0.919 0.4437,1.343 -0.0121,0.096 -0.0535,0.313 -0.1102,0.593 h 0.6317 c 0.0676,-0.314 0.1105,-0.541 0.1039,-0.593 -0.0262,-0.203 -0.4172,-1.018 -1.0691,-1.343"
         style="fill:#d03b87;fill-opacity:1;fill-rule:nonzero;stroke:none;stroke-width:0.1"
         id="path1830" />
      <path
         d="m 66.9008,143.929 c -0.1516,0.002 -0.3317,-0.035 -0.4672,-0.029 -0.5461,0.022 -1.043,0.093 -1.591,0.048 -0.5266,-0.044 -1.0508,-0.117 -1.5707,-0.209 -0.4832,-0.086 -0.9696,-0.184 -1.4375,-0.334 -0.1539,-0.049 -0.6688,-0.17 -0.7035,-0.38 -0.0153,-0.092 0.0929,-0.231 0.1964,-0.225 0.8418,0.048 1.6809,0.134 2.5278,0.092 0.4176,-0.021 0.8719,-0.067 1.3207,-0.158 -0.6516,0.004 -1.3332,0.011 -1.3649,0.011 -0.3625,0 -0.3632,-0.563 0,-0.563 0.7301,0 1.4641,-0.045 2.1926,-0.037 0.3512,0.003 0.8274,0.074 0.9141,0.447 0.1679,0.147 0.3152,0.279 0.2719,0.514 -0.0235,0.126 -0.0895,0.259 -0.1844,0.38 l 0.0707,0.013 c 0.2887,0.068 0.1777,0.359 -0.0477,0.416 l -0.1273,0.014"
         style="fill:#f8a378;fill-opacity:1;fill-rule:nonzero;stroke:none;stroke-width:0.1"
         id="path1832" />
      <path
         d="m 77.091,151.633 c -0.232,-0.321 -0.459,-0.645 -0.6785,-0.975 -0.7062,-1.059 -1.0547,-2.221 -2.3043,-2.695 -1.3742,-0.522 -2.7133,-1.128 -4.0031,-1.834 -1.3356,-0.73 -2.911,-1.54 -3.9551,-2.673 -0.2566,-0.278 -0.3133,-0.241 -0.3211,-0.612 -0.023,-1.096 2.1527,-0.058 2.7582,0.125 1.0848,0.327 2.1613,0.682 3.2281,1.063 0.2536,0.091 0.5157,0.181 0.7809,0.274 1.2727,0.443 2.6305,0.943 3.5937,1.837 0.7524,0.699 1.4602,1.469 2.1918,2.201 -0.5394,1.031 -1.0226,2.149 -1.2906,3.289"
         style="fill:#f8a378;fill-opacity:1;fill-rule:nonzero;stroke:none;stroke-width:0.1"
         id="path1834" />
      <path
         d="m 79.7422,160.673 c -1.1414,-0.401 -1.7074,-1.367 -2.1457,-2.436 -0.4309,-1.053 -0.6785,-2.161 -0.9918,-3.25 -0.4375,-1.516 -1.6719,-4.452 -2.2012,-5.938 -0.2461,-0.69 -8.3004,-4.429 -7.9332,-5.115 0.3219,-0.6 0.6828,-1.279 1.1203,-1.793 0.3453,-0.406 8.9453,3.056 9.211,3.408 0.4375,0.579 1.9617,2.547 2.2093,3.23 0.111,0.307 0.2106,0.621 0.3063,0.935 l 0.425,10.959"
         style="fill:#db125b;fill-opacity:1;fill-rule:nonzero;stroke:none;stroke-width:0.1"
         id="path1836" />
      <path
         d="m 80.25,149.451 c -0.2902,-0.014 -0.4977,-0.13 -0.6449,-0.286 -0.0836,0.189 -0.1828,0.369 -0.2879,0.549 -0.0957,-0.314 -0.1953,-0.628 -0.3063,-0.935 -0.4402,1.168 -1.2754,3.895 -0.0394,5.133 -1.1731,-2.841 1.2785,-4.461 1.2785,-4.461"
         style="fill:#bd1553;fill-opacity:1;fill-rule:nonzero;stroke:none;stroke-width:0.1"
         id="path1838" />
      <path
         d="m 88.409,149.029 c 0,0 0.8402,0.422 1.6238,0.879 -0.0902,-0.227 -0.1812,-0.454 -0.2648,-0.682 -0.6379,-0.201 -1.359,-0.197 -1.359,-0.197"
         style="fill:#bd1553;fill-opacity:1;fill-rule:nonzero;stroke:none;stroke-width:0.1"
         id="path1840" />
      <path
         d="m 90.6102,149.776 c -0.0895,-0.143 -0.2247,-0.26 -0.3848,-0.354 -0.0649,0.162 -0.1297,0.324 -0.1926,0.486 0.7676,0.448 0.059,3.587 0.0301,3.716 0.0375,-0.113 1.007,-3.107 0.5473,-3.848"
         style="fill:#bd1553;fill-opacity:1;fill-rule:nonzero;stroke:none;stroke-width:0.1"
         id="path1842" />
      <path
         d="m 83.4262,140.068 c 0.1238,-0.255 0.3863,-0.421 0.6601,-0.494 0.2739,-0.074 0.5621,-0.067 0.8453,-0.061 -0.9847,-0.053 -1.9656,-0.171 -2.9347,-0.353 0.3551,-0.214 0.7961,-0.281 1.1992,-0.182 -0.3953,-0.047 -0.7906,-0.095 -1.1856,-0.142 0.3829,-0.267 0.8735,-0.374 1.3325,-0.291 -0.4149,0.002 -0.8297,-0.107 -1.1895,-0.313 0.5766,-0.314 1.2828,-0.186 1.925,-0.049 -0.2375,-0.064 -0.4746,-0.129 -0.7117,-0.194 0.2957,-0.303 0.793,-0.23 1.2062,-0.134 0.4532,0.105 0.9063,0.211 1.3594,0.316 0.7168,0.166 1.5336,0.414 1.8172,1.093 0.1324,0.318 0.1172,0.758 -0.0824,1.049 -0.3219,0.468 -0.6559,0.172 -1.1348,0.046 -1.0101,-0.266 -2.064,-0.366 -3.1062,-0.291"
         style="fill:#f8a378;fill-opacity:1;fill-rule:nonzero;stroke:none;stroke-width:0.1"
         id="path1844" />
      <path
         d="m 94.534,145.79 c 0,0 -1.7473,-3.845 -6.4488,-6.892 -0.5403,1.248 -1.2145,1.685 -1.2145,1.685 0,0 5.0676,7.718 5.5043,7.686 0.4367,-0.033 2.159,-2.479 2.159,-2.479"
         style="fill:#db125b;fill-opacity:1;fill-rule:nonzero;stroke:none;stroke-width:0.1"
         id="path1846" />
      <path
         d="m 85.6891,173.14 c -0.3989,0.031 -0.7661,0.018 -1.0328,-0.033 -0.5567,-0.106 -1.0946,-0.322 -1.6606,-0.354 -0.7199,-0.041 -2.0117,0.732 -2.1465,-0.357 -0.1148,-0.929 1.0043,-1.997 1.6742,-2.466 1.0735,-0.752 2.502,-0.897 3.7649,-1.045 0.3406,-0.04 0.8113,-0.13 1.0515,0.189 0.3379,0.449 0.2286,0.885 0.3719,1.364 0.1133,0.377 0.0367,0.143 0.2516,0.436 1.0754,1.471 -0.8125,2.156 -2.2742,2.266"
         style="fill:#181c1b;fill-opacity:1;fill-rule:nonzero;stroke:none;stroke-width:0.1"
         id="path1848" />
      <path
         d="m 64.1895,146.223 c 0,-1.43 -2.004,-1.517 -2.004,-1.517 0,0 -2.0039,0.087 -2.0039,1.517 0,0.237 0.027,0.487 0.0711,0.743 0.1024,0.597 0.2938,1.221 0.4356,1.755 h 2.9941 c 0.0496,-0.186 0.1051,-0.383 0.1606,-0.586 0.1043,-0.379 0.2082,-0.78 0.275,-1.169 0.0441,-0.256 0.0715,-0.506 0.0715,-0.743"
         style="fill:#94cfd8;fill-opacity:1;fill-rule:nonzero;stroke:none;stroke-width:0.1"
         id="path1850" />
      <path
         d="m 63.7988,141.917 -0.9004,0.056 c -0.289,0.018 -0.5324,0.231 -0.5761,0.518 l -0.0067,0.085 v 1.475 c 0,0.364 0.243,0.682 0.593,0.782 0.5738,0.165 1.2801,0.541 1.2801,1.39 0,0.202 -0.0199,0.415 -0.0528,0.632 h -3.9007 c -0.0332,-0.217 -0.0532,-0.43 -0.0532,-0.632 0,-0.849 0.7063,-1.225 1.2801,-1.39 0.35,-0.1 0.593,-0.418 0.593,-0.782 v -1.475 l -0.0067,-0.085 c -0.0437,-0.287 -0.2871,-0.5 -0.5761,-0.518 l -0.9004,-0.056 h 3.2269"
         style="fill:#94cfd8;fill-opacity:1;fill-rule:nonzero;stroke:none;stroke-width:0.1"
         id="path1852" />
      <path
         d="m 64.1895,146.223 c 0,-1.43 -2.004,-1.517 -2.004,-1.517 0,0 -2.0039,0.087 -2.0039,1.517 0,0.237 0.027,0.487 0.0711,0.743 h 3.8653 c 0.0441,-0.256 0.0715,-0.506 0.0715,-0.743"
         style="fill:#bd1553;fill-opacity:1;fill-rule:nonzero;stroke:none;stroke-width:0.1"
         id="path1854" />
      <path
         d="m 62.8086,148.721 h 0.603125 v 0 z"
         style="fill:#fae48a;fill-opacity:1;fill-rule:nonzero;stroke:none;stroke-width:0.1"
         id="path1856" />
      <path
         d="m 63.8023,146.966 h -0.6316 c -0.0996,0.493 -0.2465,1.182 -0.3621,1.755 h 0.6031 c 0.1254,-0.579 0.2871,-1.27 0.3906,-1.755"
         style="fill:#b5e0e6;fill-opacity:1;fill-rule:nonzero;stroke:none;stroke-width:0.1"
         id="path1858" />
      <path
         d="m 62.8371,145.031 c 0,0 0.4965,0.918 0.4438,1.342 -0.0118,0.096 -0.0536,0.313 -0.1102,0.593 h 0.6316 c 0.0676,-0.314 0.111,-0.541 0.1043,-0.593 -0.0261,-0.203 -0.4171,-1.018 -1.0695,-1.342"
         style="fill:#d03b87;fill-opacity:1;fill-rule:nonzero;stroke:none;stroke-width:0.1"
         id="path1860" />
    </g>
  </g>
</svg>
