<?xml version="1.0" encoding="UTF-8" standalone="no"?>
<!-- Created with Inkscape (http://www.inkscape.org/) -->

<svg
   width="300mm"
   height="300mm"
   viewBox="0 0 300 300"
   version="1.1"
   id="svg10268"
   sodipodi:docname="kitty_party.svg"
   inkscape:version="1.1 (c68e22c387, 2021-05-23)"
   xmlns:inkscape="http://www.inkscape.org/namespaces/inkscape"
   xmlns:sodipodi="http://sodipodi.sourceforge.net/DTD/sodipodi-0.dtd"
   xmlns="http://www.w3.org/2000/svg"
   xmlns:svg="http://www.w3.org/2000/svg">
  <sodipodi:namedview
     id="namedview10270"
     pagecolor="#ffffff"
     bordercolor="#666666"
     borderopacity="1.0"
     inkscape:pageshadow="2"
     inkscape:pageopacity="0.0"
     inkscape:pagecheckerboard="0"
     inkscape:document-units="mm"
     showgrid="false"
     inkscape:zoom="0.33540614"
     inkscape:cx="478.52433"
     inkscape:cy="314.54403"
     inkscape:window-width="1920"
     inkscape:window-height="1009"
     inkscape:window-x="1912"
     inkscape:window-y="-8"
     inkscape:window-maximized="1"
     inkscape:current-layer="layer1" />
  <defs
     id="defs10265" />
  <g
     inkscape:label="Layer 1"
     inkscape:groupmode="layer"
     id="layer1">
    <g
       id="g5627"
       transform="matrix(3.6826476,0,0,-4.1633156,-23.691751,1605.2111)">
      <path
         d="m 87.7664,321.041 c 0,-4.028 -18.2164,-7.295 -40.6875,-7.295 -22.4711,0 -40.68749,3.267 -40.68749,7.295 0,4.029 18.21639,7.296 40.68749,7.296 22.4711,0 40.6875,-3.267 40.6875,-7.296"
         style="fill:#f4f5f5;fill-opacity:1;fill-rule:nonzero;stroke:none;stroke-width:0.1"
         id="path258" />
      <path
         d="M 8.45625,357.677 H 7.89336 v -20.341 h 0.56289 v 20.341"
         style="fill:#5a1a1b;fill-opacity:1;fill-rule:nonzero;stroke:none;stroke-width:0.1"
         id="path260" />
      <path
         d="M 10.6152,360.213 H 10.052 v -20.342 h 0.5632 v 20.342"
         style="fill:#5a1a1b;fill-opacity:1;fill-rule:nonzero;stroke:none;stroke-width:0.1"
         id="path262" />
      <path
         d="m 12.7738,360.87 h -0.5633 v -20.341 h 0.5633 v 20.341"
         style="fill:#5a1a1b;fill-opacity:1;fill-rule:nonzero;stroke:none;stroke-width:0.1"
         id="path264" />
      <path
         d="m 14.9324,361.528 h -0.5629 v -20.342 h 0.5629 v 20.342"
         style="fill:#5a1a1b;fill-opacity:1;fill-rule:nonzero;stroke:none;stroke-width:0.1"
         id="path266" />
      <path
         d="m 22.7805,337.336 3.464,5.069 -0.0172,1.295 -3.4468,-5.138 v -1.226"
         style="fill:#a1342a;fill-opacity:1;fill-rule:nonzero;stroke:none;stroke-width:0.1"
         id="path268" />
      <path
         d="m 7.14219,359.063 9.01051,4.18 -1.0324,0.123 -8.541,-4.052 v -5.79 l 0.56289,0.018 v 5.521"
         style="fill:#a1342a;fill-opacity:1;fill-rule:nonzero;stroke:none;stroke-width:0.1"
         id="path270" />
      <path
         d="m 7.14219,359.063 v -5.521 l 9.01051,4.883 v 4.818 l -9.01051,-4.18"
         style="fill:#7c2623;fill-opacity:1;fill-rule:nonzero;stroke:none;stroke-width:0.1"
         id="path272" />
      <path
         d="M 9.8082,337.948 H 8.775 v -20.341 h 1.0332 v 20.341"
         style="fill:#5a1a1b;fill-opacity:1;fill-rule:nonzero;stroke:none;stroke-width:0.1"
         id="path274" />
      <path
         d="m 14.9438,342.876 h -1.0333 v -20.342 h 1.0333 v 20.342"
         style="fill:#5a1a1b;fill-opacity:1;fill-rule:nonzero;stroke:none;stroke-width:0.1"
         id="path276" />
      <path
         d="m 21.8902,337.948 h -1.0336 v -20.341 h 1.0336 v 20.341"
         style="fill:#5a1a1b;fill-opacity:1;fill-rule:nonzero;stroke:none;stroke-width:0.1"
         id="path278" />
      <path
         d="m 14.4965,343.7 -6.60314,-5.138 c 0,0 14.88714,-0.151 14.88714,0 0,0.151 3.4468,5.138 3.4468,5.138 H 14.4965"
         style="fill:#a1342a;fill-opacity:1;fill-rule:nonzero;stroke:none;stroke-width:0.1"
         id="path280" />
      <path
         d="m 7.89336,338.562 v -1.226 H 22.7805 v 1.226 H 7.89336"
         style="fill:#7c2623;fill-opacity:1;fill-rule:nonzero;stroke:none;stroke-width:0.1"
         id="path282" />
      <path
         d="m 85.8168,357.677 h 0.5633 v -20.341 h -0.5633 v 20.341"
         style="fill:#5a1a1b;fill-opacity:1;fill-rule:nonzero;stroke:none;stroke-width:0.1"
         id="path284" />
      <path
         d="m 83.6582,360.213 h 0.5633 v -20.342 h -0.5633 v 20.342"
         style="fill:#5a1a1b;fill-opacity:1;fill-rule:nonzero;stroke:none;stroke-width:0.1"
         id="path286" />
      <path
         d="m 81.4992,360.87 h 0.5633 v -20.341 h -0.5633 v 20.341"
         style="fill:#5a1a1b;fill-opacity:1;fill-rule:nonzero;stroke:none;stroke-width:0.1"
         id="path288" />
      <path
         d="m 79.3406,361.528 h 0.5633 v -20.342 h -0.5633 v 20.342"
         style="fill:#5a1a1b;fill-opacity:1;fill-rule:nonzero;stroke:none;stroke-width:0.1"
         id="path290" />
      <path
         d="m 71.4926,337.336 -3.4641,5.069 0.0176,1.295 3.4465,-5.138 v -1.226"
         style="fill:#a1342a;fill-opacity:1;fill-rule:nonzero;stroke:none;stroke-width:0.1"
         id="path292" />
      <path
         d="m 87.1309,359.063 -9.0106,4.18 1.0324,0.123 8.5414,-4.052 v -5.79 l -0.5632,0.018 v 5.521"
         style="fill:#a1342a;fill-opacity:1;fill-rule:nonzero;stroke:none;stroke-width:0.1"
         id="path294" />
      <path
         d="m 87.1309,359.063 v -5.521 l -9.0106,4.883 v 4.818 l 9.0106,-4.18"
         style="fill:#7c2623;fill-opacity:1;fill-rule:nonzero;stroke:none;stroke-width:0.1"
         id="path296" />
      <path
         d="m 84.4648,337.948 h 1.0336 v -20.341 h -1.0336 v 20.341"
         style="fill:#5a1a1b;fill-opacity:1;fill-rule:nonzero;stroke:none;stroke-width:0.1"
         id="path298" />
      <path
         d="m 79.3293,342.876 h 1.0336 v -20.342 h -1.0336 v 20.342"
         style="fill:#5a1a1b;fill-opacity:1;fill-rule:nonzero;stroke:none;stroke-width:0.1"
         id="path300" />
      <path
         d="m 72.3828,337.948 h 1.0336 v -20.341 h -1.0336 v 20.341"
         style="fill:#5a1a1b;fill-opacity:1;fill-rule:nonzero;stroke:none;stroke-width:0.1"
         id="path302" />
      <path
         d="m 79.7766,343.7 6.6035,-5.138 c 0,0 -14.8875,-0.151 -14.8875,0 0,0.151 -3.4465,5.138 -3.4465,5.138 h 11.7305"
         style="fill:#a1342a;fill-opacity:1;fill-rule:nonzero;stroke:none;stroke-width:0.1"
         id="path304" />
      <path
         d="m 86.3801,338.562 v -1.226 H 71.4926 v 1.226 h 14.8875"
         style="fill:#7c2623;fill-opacity:1;fill-rule:nonzero;stroke:none;stroke-width:0.1"
         id="path306" />
      <path
         d="m 30.7871,355.773 v -29.168 h 2.091 v 29.168 h -2.091"
         style="fill:#5a1a1b;fill-opacity:1;fill-rule:nonzero;stroke:none;stroke-width:0.1"
         id="path308" />
      <path
         d="m 60.8969,355.773 v -29.168 h 2.091 v 29.168 h -2.091"
         style="fill:#5a1a1b;fill-opacity:1;fill-rule:nonzero;stroke:none;stroke-width:0.1"
         id="path310" />
      <path
         d="m 14.209,323.342 c -0.3383,-0.693 -0.9707,-1.594 -1.6082,-1.161 -0.5844,0.397 -0.8004,1.707 -0.6367,2.394 0.164,0.688 0.6082,1.271 1.0738,1.802 0.4652,0.532 0.9699,1.043 1.2969,1.669 0.2035,0.39 0.4312,0.887 0.8703,0.895 -0.1844,-1.028 -0.4485,-2.168 -0.4137,-3.215 0.0258,-0.773 -0.2336,-1.67 -0.5824,-2.384"
         style="fill:#5a1a1b;fill-opacity:1;fill-rule:nonzero;stroke:none;stroke-width:0.1"
         id="path312" />
      <path
         d="m 14.941,325.407 c -0.2402,-0.486 -0.8441,-1.723 -1.3828,-1.78 -0.3902,-0.042 -0.7605,0.264 -0.882,0.637 -0.1211,0.374 0.2968,1.429 0.4726,1.78 0.1754,0.351 0.4325,0.653 0.6723,0.964 0.3152,0.408 0.6039,0.836 0.8637,1.281 0.0933,0.161 0.1863,0.327 0.3277,0.447 0.1438,0.121 0.3262,0.185 0.5043,0.248 0.2145,0.074 0.4293,0.148 0.6437,0.223 l 0.1524,0.022 0.1348,-0.113 c 0.1625,-0.218 0.4613,-0.596 0.475,-0.882 0.016,-0.343 -0.359,-0.604 -0.5704,-0.841 -0.5406,-0.608 -1.0484,-1.254 -1.4113,-1.986"
         style="fill:#f8a378;fill-opacity:1;fill-rule:nonzero;stroke:none;stroke-width:0.1"
         id="path314" />
      <path
         d="m 17.8,322.031 c -0.2152,-0.474 -0.4309,-1.03 -0.1961,-1.494 0.1527,-0.302 0.4875,-0.552 0.441,-0.886 -0.0449,-0.322 -0.4515,-0.484 -0.7636,-0.394 -0.3125,0.09 -0.4043,0.594 -0.6165,0.84 -0.521,0.605 -1.0668,1.314 -0.9765,2.107 0.0695,0.61 0.3695,0.875 0.4777,1.479 0.102,0.567 -0.032,1.297 0.4613,1.594 0.1973,0.118 0.4426,0.12 0.6579,0.202 0.3261,0.123 0.6175,0.435 0.9586,0.361 1.6781,-0.365 -0.1114,-3.076 -0.4438,-3.809"
         style="fill:#f8a378;fill-opacity:1;fill-rule:nonzero;stroke:none;stroke-width:0.1"
         id="path316" />
      <path
         d="m 24.5188,351.02 c 0.1527,-1.788 1.8367,-3.007 3.4085,-3.872 1.5719,-0.864 3.3411,-1.789 3.9305,-3.483 0.5332,-1.533 -0.0879,-3.219 -0.859,-4.647 -2.2554,-4.179 -5.8992,-7.593 -10.216,-9.573 -1.3437,-0.616 -2.7719,-1.11 -3.9215,-2.04 -0.4582,0.585 -1.9726,1.513 -1.3523,1.922 5.0219,3.305 8.3449,10.166 13.2777,12.166 -1.5789,1.448 -3.914,1.566 -6.0332,1.875 -2.1195,0.31 -4.5082,1.159 -5.1957,3.187 -0.4926,1.452 0.1891,3.209 1.532,3.95 0.6442,0.355 1.3907,0.486 2.1258,0.508 1.1699,0.035 2.3473,-0.194 3.4188,-0.665 l -0.1156,0.672"
         style="fill:#72abb6;fill-opacity:1;fill-rule:nonzero;stroke:none;stroke-width:0.1"
         id="path318" />
      <path
         d="m 13.7965,351.36 c -0.5457,-1.168 -1.0973,-2.353 -1.3453,-3.637 -0.3121,-1.614 -0.043,-3.457 0.9379,-4.744 1.2738,-1.671 2.7156,-1.343 4.5441,-1.545 2.277,-0.25 4.2422,-0.563 7.3164,-0.841 -0.4875,0 -2.518,-3.804 -2.8547,-4.373 -1.9246,-3.258 -3.2187,-6.901 -5.0371,-10.227 0.382,-0.395 1.866,-1.639 2.1746,-1.172 1.0051,1.525 2.3149,3.129 3.5172,4.456 2.207,2.437 4.0152,5.271 5.4453,8.321 0.7285,1.554 2.9184,5.08 1.4,6.692 -1.7426,1.85 -4.3414,1.928 -6.6156,2.099 -0.8418,0.063 -2.5746,-0.125 -3.0539,0.724 -0.5027,0.891 0.2738,2.792 0.5398,3.667 -2.3761,0.352 -4.7656,0.592 -7.1605,0.722 l 0.1918,-0.142"
         style="fill:#94cfd8;fill-opacity:1;fill-rule:nonzero;stroke:none;stroke-width:0.1"
         id="path320" />
      <path
         d="m 30.9297,362.277 c 0.1144,0.336 0.1773,0.689 0.1855,1.043 0.0118,0.495 -0.075,1.024 0.1598,1.46 0.3891,0.724 1.3898,0.774 2.1063,1.175 0.2539,-0.117 0.1316,-0.525 -0.1004,-0.681 -0.2317,-0.156 -0.5399,-0.222 -0.6926,-0.456 0.5484,0.294 1.2347,0.525 1.3461,0.31 0.0953,-0.183 0.9965,-0.428 -0.2332,-0.972 0.3715,0.197 0.7636,0.355 1.1683,0.469 0.1387,-0.07 0.0571,-0.283 -0.0511,-0.395 -0.3598,-0.371 -0.852,-0.61 -1.3661,-0.664 0.5868,0.148 1.1989,0.193 1.8004,0.134 -0.1,-0.354 -0.5304,-0.467 -0.8828,-0.57 -0.4144,-0.122 -0.8097,-0.31 -1.1652,-0.556 -0.368,-0.254 -0.7051,-0.574 -1.1313,-0.709 -0.4261,-0.135 -0.9886,0.003 -1.1316,0.427 0.0762,-0.163 0.1523,-0.327 0.2285,-0.49 l -0.2406,0.475"
         style="fill:#f8a378;fill-opacity:1;fill-rule:nonzero;stroke:none;stroke-width:0.1"
         id="path322" />
      <path
         d="m 16.9344,384.828 c 0.0629,-0.14 0.0769,-0.302 0.039,-0.451 -0.2304,0.541 -0.7875,0.902 -1.3695,0.984 -0.5816,0.082 -1.1789,-0.089 -1.6875,-0.382 -0.7738,-0.448 -1.3887,-1.229 -1.4762,-2.118 0.1188,0.305 0.3832,0.548 0.6969,0.642 -0.5781,-0.915 -0.7949,-2.027 -0.7523,-3.108 0.0211,-0.538 0.1043,-1.077 0.2922,-1.581 0.3668,-0.984 1.1046,-1.778 1.6429,-2.68 0.1676,-0.28 0.318,-0.579 0.3715,-0.9 0.0531,-0.323 -0.0016,-0.675 -0.209,-0.927 -0.2355,-0.286 -0.6383,-0.401 -1.0047,-0.347 -0.3664,0.053 -0.6976,0.255 -0.9691,0.508 0.2144,-0.472 0.6695,-0.804 1.1625,-0.961 0.6187,-0.198 1.3148,-0.143 1.8945,0.15 0.5801,0.294 1.0367,0.822 1.2434,1.438 0.0883,0.264 0.1324,0.541 0.1519,0.818 0.0215,0.307 0.0125,0.62 -0.0812,0.913 -0.0981,0.306 -0.2832,0.575 -0.4699,0.837 -0.3727,0.522 -0.7618,1.037 -1.0633,1.603 -0.3016,0.567 -0.5149,1.195 -0.5051,1.837 0.0039,0.269 0.05,0.545 0.1969,0.77 0.2316,0.356 0.6601,0.516 1.0308,0.723 0.7325,0.408 1.8204,1.389 0.8653,2.232"
         style="fill:#7c2623;fill-opacity:1;fill-rule:nonzero;stroke:none;stroke-width:0.1"
         id="path324" />
      <path
         d="m 17.4516,382.85 c -0.0414,0.316 -0.2567,0.685 -0.4688,0.739 -0.4992,0.127 -1.6012,-0.725 -1.3457,-1.256 0.2027,-0.422 0.6539,-0.312 1.0059,-0.167 0.3078,0.128 0.8633,0.268 0.8086,0.684"
         style="fill:#4e69bb;fill-opacity:1;fill-rule:nonzero;stroke:none;stroke-width:0.1"
         id="path326" />
      <path
         d="m 22.1523,375.165 c 1.4942,2.124 2.0247,4.673 0.0977,6.689 -0.707,0.743 -1.6191,1.27 -2.7141,1.413 -1.0023,0.131 -1.9062,-0.136 -2.7109,-0.621 l -0.0523,-0.013 c -2.4481,-0.732 -2.8219,-3.519 -2.1766,-5.68 0.2504,-0.84 0.7855,-1.551 1.3289,-2.224 0.527,-0.652 1.0859,-1.302 1.441,-2.068 0.2445,-0.527 0.3735,-1.066 0.4055,-1.618 0.5379,-0.054 1.0781,-0.089 1.618,-0.109 0.4535,1.639 1.7839,2.84 2.7628,4.231"
         style="fill:#a1342a;fill-opacity:1;fill-rule:nonzero;stroke:none;stroke-width:0.1"
         id="path328" />
      <path
         d="m 20.0262,369.597 c -0.6668,-0.625 -2.1289,-0.879 -2.7528,0.017 -0.2941,-0.013 -0.5984,0.292 -0.4949,0.771 l 0.0309,0.144 0.048,0.248 c 0.0492,0.29 0.0832,0.584 0.1168,0.878 0.0141,0.118 0.0274,0.237 0.0422,0.356 l 8e-4,0.231 c -0.0035,0.174 0.0351,0.31 0.0984,0.408 l 0.0149,0.072 0.041,0.185 c 0.1605,0.655 0.8047,0.528 0.9242,-0.003 0.1133,-0.064 0.2113,-0.184 0.2648,-0.372 l 0.0247,-0.097 c 0.0336,-0.142 0.0511,-0.29 0.0562,-0.44 l 0.0055,-0.002 0.014,-0.007 c 0.1711,0.122 0.3965,0.111 0.5493,-0.064 l 0.2183,0.028 0.0485,0.087 0.0585,0.181 c 0.2047,0.428 0.7481,0.27 0.8602,-0.198 0.0254,-0.098 0.0297,-0.211 0.0078,-0.335 -0.0246,-0.141 -0.0394,-0.283 -0.0472,-0.427 0.0085,-0.115 0.0175,-0.229 0.0261,-0.343 v -0.001 c 0.016,-0.205 0.0309,-0.409 0.0371,-0.616 0.0465,-0.242 8e-4,-0.518 -0.1933,-0.701"
         style="fill:#f8a378;fill-opacity:1;fill-rule:nonzero;stroke:none;stroke-width:0.1"
         id="path330" />
      <path
         d="m 22.25,381.854 c -0.1727,-0.843 -0.602,-1.583 -1.4926,-1.895 -0.7941,-0.279 -1.8324,-0.053 -2.5308,0.373 -0.8278,0.504 -1.3532,1.356 -1.4543,2.301 l 0.0527,0.013 c 0.8047,0.485 1.7086,0.752 2.7109,0.621 1.095,-0.143 2.0071,-0.67 2.7141,-1.413"
         style="fill:#7c2623;fill-opacity:1;fill-rule:nonzero;stroke:none;stroke-width:0.1"
         id="path332" />
      <path
         d="m 20.2035,371.685 c -0.0246,-0.141 -0.0394,-0.283 -0.0472,-0.427 0.0085,-0.115 0.0175,-0.229 0.0261,-0.343 v -0.001 c 0,0 -1.0871,-2.068 -3.325,-0.137 0.0141,0.118 0.1442,1.115 0.159,1.234 l 8e-4,0.231 c -0.0035,0.174 0.0351,0.31 0.0984,0.408 l 0.0149,0.072 1.2547,-0.287 0.9503,-0.217 0.8602,-0.198 c 0.0254,-0.098 0.0297,-0.211 0.0078,-0.335"
         style="fill:#f28c73;fill-opacity:1;fill-rule:nonzero;stroke:none;stroke-width:0.1"
         id="path334" />
      <path
         d="m 22.2824,379.816 c -0.1535,0.152 -0.35,0.284 -0.5988,0.389 -0.4805,0.202 -1.2305,-0.019 -1.732,0.068 -0.8578,0.148 -2.0661,0.49 -2.7559,-0.208 -0.641,-0.648 -0.4883,-1.632 -0.5883,-2.501 -0.0207,-0.181 -0.0527,-0.36 -0.0898,-0.537 l -0.025,0.023 c -0.1922,0.17 -0.4211,0.264 -0.6797,0.257 -0.1941,-0.007 -0.4305,-0.144 -0.4652,-0.355 -0.1153,-0.691 0.2425,-1.308 0.7586,-1.748 l 0.0136,-0.01 c -0.034,-0.293 -0.0406,-0.59 0.002,-0.896 0.1484,-1.065 0.8465,-1.812 1.5761,-2.544 0.6731,-0.675 1.4555,-0.788 2.3575,-0.51 0.9133,0.281 1.348,0.971 1.6976,1.814 0.3801,0.916 0.7297,1.815 0.7512,2.817 0.0254,1.227 0.7336,2.991 -0.2219,3.941"
         style="fill:#f8a378;fill-opacity:1;fill-rule:nonzero;stroke:none;stroke-width:0.1"
         id="path336" />
      <path
         d="m 25.0836,351.371 c -0.2531,0.754 -0.5969,1.472 -0.8539,2.224 -0.2809,0.82 -0.3887,1.73 -0.3488,2.595 0.0761,1.649 0.5925,3.228 0.8656,4.846 l 0.0086,0.05 0.0012,0.034 c 0.0046,0.1 0.0195,0.2 0.0265,0.3 0.0121,0.175 0.0192,0.351 0.0164,0.526 -0.0031,0.2 -0.0203,0.399 -0.0375,0.597 l -0.0062,0.055 -0.0278,0.176 c -0.1332,0.776 -0.3461,1.536 -0.5496,2.296 -0.4394,1.642 -0.7418,3.25 -0.5222,4.938 -0.8313,0.244 -1.7891,0.21 -2.5961,0.363 -0.5118,0.097 -0.941,0.174 -1.4086,-0.113 -0.2629,-0.162 -0.5137,-0.362 -0.816,-0.424 -0.5434,-0.11 -0.8575,0.247 -1.3032,0.45 -0.184,0.083 -0.3597,0.116 -0.5433,0.121 -0.4067,0.009 -0.8586,-0.403 -1.2125,-0.576 -0.8055,-0.394 -1.6383,-0.732 -2.4606,-1.088 -0.4433,-0.193 -0.6789,-0.434 -0.7215,-0.923 -0.0582,-0.668 0.2676,-1.284 0.3524,-1.932 0.1152,-0.884 0.234,-1.758 0.4367,-2.628 0.3965,-1.699 1.0883,-3.313 1.457,-5.019 0.3086,-1.427 0.25,-2.566 -0.2449,-3.92 -0.3234,-0.885 -0.6473,-1.771 -0.9711,-2.656 -0.1613,-0.442 -0.5144,-0.918 -0.5383,-1.399 -0.0492,-1.002 2.0344,-1.298 2.7317,-1.505 1.5746,-0.466 3.2062,-0.858 4.8465,-0.991 1.0019,-0.08 2.0308,-0.091 3.0125,0.155 0.4964,0.124 1.2191,0.365 1.7254,0.755 -0.0352,0.706 -0.0891,1.412 -0.15,2.117 -0.0497,0.194 -0.1043,0.386 -0.1684,0.576"
         style="fill:#f8a378;fill-opacity:1;fill-rule:nonzero;stroke:none;stroke-width:0.1"
         id="path338" />
      <path
         d="m 80.8773,377.941 c -0.0285,0.163 -0.0519,0.324 -0.0738,0.484 -0.1762,1.305 -0.2805,2.627 -1.0238,3.784 -2.0031,3.116 -7.575,2.991 -9.1871,-0.499 -0.3281,-0.71 -0.3059,-1.45 -0.209,-2.205 0.5473,-1.459 0.6789,-3.038 -0.0055,-4.482 -0.2644,-0.557 -0.7129,-1.1 -1.284,-1.373 l 0.0723,-0.094 0.0363,-0.051 0.0313,-0.032 0.2285,-0.251 c 2.3531,-2.449 5.8008,-2.572 8.8902,-1.795 1.0446,0.263 2.034,0.722 2.9739,1.243 0.6527,0.362 1.655,0.937 1.8519,1.737 -1.6465,0.272 -2.1152,2.05 -2.3012,3.534"
         style="fill:#181c1b;fill-opacity:1;fill-rule:nonzero;stroke:none;stroke-width:0.1"
         id="path340" />
      <path
         d="m 74.1586,370.586 c 0.6672,-0.625 2.1289,-0.88 2.7531,0.016 0.2938,-0.013 0.5985,0.293 0.4949,0.772 l -0.0308,0.144 -0.0485,0.247 c -0.0488,0.291 -0.0832,0.585 -0.1164,0.879 -0.014,0.118 -0.0273,0.236 -0.0421,0.355 l -8e-4,0.232 c 0.0035,0.174 -0.0352,0.31 -0.0985,0.408 l -0.0148,0.072 -0.0414,0.185 c -0.1606,0.655 -0.8047,0.527 -0.9238,-0.003 -0.1133,-0.064 -0.2118,-0.185 -0.2653,-0.373 l -0.0246,-0.096 c -0.0332,-0.142 -0.0508,-0.291 -0.0562,-0.441 l -0.0051,-10e-4 -0.0141,-0.007 c -0.1711,0.121 -0.3965,0.111 -0.5492,-0.064 l -0.2187,0.028 -0.0481,0.086 -0.059,0.181 c -0.2043,0.428 -0.7476,0.271 -0.8597,-0.197 -0.0258,-0.098 -0.0301,-0.212 -0.0082,-0.336 0.0246,-0.141 0.0398,-0.283 0.0476,-0.427 -0.009,-0.114 -0.0176,-0.228 -0.0266,-0.342 v -10e-4 c -0.0156,-0.205 -0.0304,-0.41 -0.0367,-0.616 -0.0465,-0.242 -8e-4,-0.519 0.193,-0.701"
         style="fill:#f8a378;fill-opacity:1;fill-rule:nonzero;stroke:none;stroke-width:0.1"
         id="path342" />
      <path
         d="m 73.9813,372.673 c 0.0246,-0.141 0.0398,-0.283 0.0476,-0.427 -0.009,-0.114 -0.0176,-0.228 -0.0266,-0.342 v -10e-4 c 0,0 1.0875,-2.069 3.325,-0.138 -0.0136,0.119 -0.1437,1.115 -0.1585,1.234 l -8e-4,0.232 c 0.0035,0.174 -0.0352,0.31 -0.0985,0.408 l -0.0148,0.072 -1.2551,-0.287 -0.9504,-0.218 -0.8597,-0.197 c -0.0258,-0.098 -0.0301,-0.212 -0.0082,-0.336"
         style="fill:#f28c73;fill-opacity:1;fill-rule:nonzero;stroke:none;stroke-width:0.1"
         id="path344" />
      <path
         d="m 71.6641,380.687 c 0.1464,0.159 0.3371,0.299 0.5812,0.415 0.4707,0.223 1.2297,0.036 1.727,0.144 0.8507,0.186 2.0429,0.581 2.7625,-0.086 0.6691,-0.619 0.5597,-1.609 0.6976,-2.472 0.0289,-0.18 0.0688,-0.358 0.1137,-0.533 l 0.0238,0.025 c 0.1852,0.178 0.4094,0.282 0.668,0.285 0.1941,0.003 0.4363,-0.125 0.4805,-0.333 0.1453,-0.686 -0.1848,-1.318 -0.6813,-1.78 l -0.0129,-0.011 c 0.0469,-0.291 0.0668,-0.587 0.0375,-0.895 -0.1012,-1.07 -0.7656,-1.848 -1.4625,-2.611 -0.6429,-0.704 -1.4195,-0.851 -2.3324,-0.614 -0.925,0.242 -1.3898,0.911 -1.7762,1.738 -0.4203,0.899 -0.8093,1.782 -0.8742,2.781 -0.0801,1.226 -0.8648,2.956 0.0477,3.947"
         style="fill:#f8a378;fill-opacity:1;fill-rule:nonzero;stroke:none;stroke-width:0.1"
         id="path346" />
      <path
         d="m 70.6441,352.069 c -0.5558,-0.811 -1.5086,-1.239 -2.4218,-1.605 -2.059,-0.825 -4.1664,-1.529 -6.3075,-2.109 -1.0203,-0.276 -2.0558,-0.526 -3.0132,-0.975 -1.1563,-0.541 -2.1661,-1.356 -3.07,-2.257 -2.148,-2.143 -3.764,-4.736 -5.2125,-7.383 -0.7265,-1.328 -3.207,-5.389 -3.8031,-7.605 -0.2316,-0.861 0.5625,-0.099 0.8125,-1.176 1.9395,1.896 3.441,2.964 5.0797,4.8 2.1359,2.393 3.7481,5.196 5.5547,7.846 0.518,0.76 1.0789,1.533 1.8789,1.987 0.7066,0.401 1.5344,0.517 2.3395,0.625 1.7074,0.229 3.4144,0.458 5.1218,0.687 1.3301,0.179 2.6735,0.36 3.9313,0.828 1.2578,0.468 2.441,1.255 3.1379,2.402 0.6203,1.02 0.7511,2.481 -0.1039,3.315 -0.8067,0.787 -2.0914,0.704 -3.2125,0.59 -0.3192,-0.033 -0.7473,-0.342 -0.5082,-0.556 l -0.2036,0.586"
         style="fill:#191b39;fill-opacity:1;fill-rule:nonzero;stroke:none;stroke-width:0.1"
         id="path348" />
      <path
         d="m 80.3746,345.821 c -0.1617,-1.04 -0.5074,-2.162 -1.4023,-2.715 -0.4227,-0.261 -0.9219,-0.363 -1.4118,-0.445 -4.4609,-0.748 -8.4546,-0.669 -12.9714,-0.913 -0.6004,-0.033 -3.1305,0.214 -3.6922,0 -0.3371,-1.309 -1.1082,-2.357 -1.8438,-3.985 -1.7863,-3.958 -4.2961,-7.586 -7.3679,-10.654 -0.4743,-0.474 -1.1297,-0.971 -1.7497,-0.717 -0.532,0.219 -0.8292,0.938 -1.4042,0.937 1.9187,3.241 3.6468,6.594 5.1714,10.038 0.9176,2.072 2.7016,5.913 4.4227,7.387 1.5359,1.314 9.7117,1.752 12.2937,1.771 1.1563,0.009 2.627,0.138 2.9856,1.237 0.1969,0.603 -0.0391,1.345 0.3527,1.844 0.186,0.237 0.4766,0.363 0.7582,0.47 1.0977,0.417 4.4106,1.592 5.5184,0.883 1.0101,-0.647 0.5051,-4.079 0.3406,-5.138"
         style="fill:#26285e;fill-opacity:1;fill-rule:nonzero;stroke:none;stroke-width:0.1"
         id="path350" />
      <path
         d="m 70.5242,367.631 c -0.0851,-0.31 -0.0711,-0.649 0.0168,-0.977 0.1516,-0.569 0.5246,-1.102 0.9871,-1.39 0.2844,-0.175 0.5574,-0.106 0.7422,0.069 1.2508,-0.105 2.5207,-0.024 3.7731,-0.019 0.5859,0.002 1.1687,-0.014 1.7504,-0.079 0.0914,-0.01 0.1835,-0.021 0.275,-0.034 0.3738,-0.051 0.7441,-0.103 1.1179,-0.133 0.2613,-0.02 0.5246,-0.03 0.7906,-0.018 0.1,0.005 0.1887,0.026 0.2668,0.061 0.2274,0.103 0.3606,0.325 0.3914,0.598 0.0446,0.397 0.1485,0.788 0.2403,1.178 l 0.0148,0.247 c 0.1117,0.444 0.2766,0.861 0.5891,1.249 l 0.1402,0.126 c 0.0125,0.175 0.009,0.35 -0.0226,0.526 -0.0711,0.402 -0.2598,0.622 -0.5856,0.771 l -0.2148,0.084 c -0.1789,0.059 -0.3578,0.118 -0.5379,0.176 -0.1832,0.06 -0.3688,0.12 -0.552,0.181 l -0.0254,0.008 c -0.4808,0.157 -0.9601,0.32 -1.4324,0.5 -0.3676,0.141 -0.8547,0.511 -1.259,0.466 -0.1828,-0.021 -0.3547,-0.069 -0.53,-0.169 -0.4266,-0.241 -0.7075,-0.625 -1.2586,-0.563 -0.3063,0.034 -0.5739,0.212 -0.8504,0.349 -0.4914,0.245 -0.9117,0.13 -1.4129,-0.013 -0.3266,-0.091 -0.6809,-0.155 -1.0426,-0.22 -0.1648,-0.03 -0.3309,-0.059 -0.4965,-0.092 -0.3484,-0.07 -0.6933,-0.154 -1.0144,-0.28 0.1816,-0.818 0.2332,-1.627 0.207,-2.438 l -0.0676,-0.164"
         style="fill:#f8a378;fill-opacity:1;fill-rule:nonzero;stroke:none;stroke-width:0.1"
         id="path352" />
      <path
         d="m 83.0754,366.537 c -0.0274,0.271 -0.1078,0.69 -0.232,1.143 -0.2579,0.938 -0.7024,2.02 -1.2457,2.226 -0.7336,0.278 -2.3965,0.412 -3.1317,0.96 -0.1152,0.014 -0.2297,0.042 -0.3437,0.084 -1.1375,-1.612 -3.8953,-2.095 -4.9215,-0.073 l -0.0801,0.228 c -0.118,0.007 -0.2391,0.006 -0.3641,-0.007 -0.3644,-0.034 -0.7273,-0.092 -1.0894,-0.146 l -0.0274,-0.004 -0.0949,-0.011 c -0.2117,-0.027 -0.4242,-0.055 -0.6332,-0.1 -0.6445,-0.141 -1.2344,-0.429 -1.7066,-0.842 -0.2535,-1.435 -0.7731,-2.803 -1.386,-4.127 0.0797,-0.198 0.1743,-0.384 0.2735,-0.547 0.3316,-0.543 0.7769,-0.824 1.05,-1.269 0.1422,-0.232 0.0461,-1.007 0.1066,-1.312 0.0969,-0.488 0.2375,-1.009 0.4574,-1.456 0.3879,-0.789 0.9145,-1.313 0.9235,-2.271 0.009,-1.008 -0.4242,-1.969 -0.6926,-2.926 -0.4203,-1.5 -1.1078,-3.339 -1.0914,-4.915 0.0012,-0.128 0.0148,-0.236 0.0496,-0.307 l 0.0856,-0.158 c 0.4722,-0.78 1.4023,-1.001 2.2238,-1.215 2.5406,-0.662 5.3531,-1.398 7.9465,-0.572 0.9179,0.292 1.9043,0.757 2.1586,1.775 0.2179,0.872 -0.386,2.321 -0.595,3.179 -0.0625,0.256 -0.141,0.52 -0.2281,0.789 -0.4141,1.279 -1.0117,2.67 -0.9055,3.933 0.1168,1.388 0.9555,2.579 1.1758,3.943 0.0797,0.496 0.0106,0.937 -0.1183,1.366 0.4464,0.204 0.88,0.438 1.2855,0.717 0.8113,0.557 1.2461,0.968 1.1508,1.915"
         style="fill:#94cfd8;fill-opacity:1;fill-rule:nonzero;stroke:none;stroke-width:0.1"
         id="path354" />
      <path
         d="m 49.8578,325.285 c 0.1016,0.173 1.132,1.151 1.132,1.151 0,0 -1.4546,1.739 -1.9386,1.932 -0.484,0.194 -1.3004,-1.544 -1.3004,-1.544 l 2.107,-1.539"
         style="fill:#f9d859;fill-opacity:1;fill-rule:nonzero;stroke:none;stroke-width:0.1"
         id="path356" />
      <path
         d="m 49.6781,324.854 c 0.2668,0.53 -0.5961,0.861 -0.8617,0.333 l -0.0051,-0.01 -0.0129,-0.021 -0.1082,-0.173 c -0.1,-0.157 -0.2043,-0.311 -0.3101,-0.463 -0.2696,-0.388 -0.5508,-0.767 -0.8465,-1.134 -0.2813,-0.35 -0.5621,-0.687 -0.8742,-0.969 l -0.2117,-0.177 -0.0989,-0.07 -0.0047,-0.004 -0.0156,-0.009 -0.018,-0.009 c -0.4,0.161 -0.8992,-0.314 -0.5511,-0.693 0.7504,-0.819 1.8367,0.568 2.2765,1.089 0.5965,0.706 1.2239,1.479 1.6422,2.31"
         style="fill:#bbbcbd;fill-opacity:1;fill-rule:nonzero;stroke:none;stroke-width:0.1"
         id="path358" />
      <path
         d="m 48.9242,326.873 c -0.2847,0.182 -0.5836,0.307 -0.8019,0.17 -0.1219,-0.077 -0.2461,-0.149 -0.3715,-0.219 -1.1789,-1.05 -2.7453,-1.744 -3.6399,-3.051 l 0.0051,-0.245 c 0.0742,-0.821 0.7531,-1.533 1.5778,-1.619 0.839,-0.086 1.6207,0.473 2.173,1.046 0.7078,0.732 1.3777,1.517 1.991,2.33 0.3676,0.487 0.1426,0.821 -0.2957,1.123 -0.1644,0.113 -0.3961,0.31 -0.6379,0.465"
         style="fill:#292427;fill-opacity:1;fill-rule:nonzero;stroke:none;stroke-width:0.1"
         id="path360" />
      <path
         d="m 48.5852,325.308 -0.2961,0.113 -0.125,0.07 c -0.075,0.257 -0.1926,0.503 -0.302,0.747 0.1734,0.005 0.3543,-0.093 0.5051,-0.184 0.1683,-0.33 0.3246,-0.697 0.218,-0.746 z m -0.9289,-0.062 c -0.0407,0.159 -0.1333,0.326 -0.1243,0.494 0.1934,-0.091 0.3825,-0.196 0.568,-0.302 0.041,-0.149 0.066,-0.3 0.0645,-0.457 -0.1653,0.053 -0.3282,0.112 -0.4895,0.175 z m -0.0481,-0.237 0.0027,-0.288 -0.3078,0.021 -0.0093,0.002 c -0.0137,0.174 -0.0641,0.349 -0.0977,0.518 0.1332,-0.052 0.266,-0.106 0.3996,-0.158 z m -0.3996,-0.483 -0.2219,0.223 0.2352,-0.065 z m 1.6195,1.305 -0.1711,0.135 -0.2347,0.144 c -0.0567,0.115 -0.1164,0.228 -0.1793,0.34 0.2226,-0.179 0.4187,-0.387 0.5851,-0.619 z m -0.184,-0.606 0.043,0.034 c 0.0145,0.201 -0.057,0.391 -0.1351,0.573 l -0.068,0.15 c 0.1805,-0.116 0.3293,-0.261 0.5031,-0.387 l 0.0586,0.048 c -0.2332,0.388 -0.5394,0.724 -0.9102,0.986 l -0.0585,-0.048 c 0.0289,-0.048 0.1238,-0.21 0.2261,-0.403 -0.1543,0.083 -0.3297,0.163 -0.5054,0.133 l -0.0297,-0.054 c 0.1023,-0.231 0.2183,-0.466 0.2984,-0.709 l -0.0336,0.02 c -0.1687,0.095 -0.3433,0.187 -0.5199,0.268 l -0.0527,-0.033 c -0.0391,-0.198 0.0578,-0.404 0.1132,-0.607 -0.1382,0.055 -0.2765,0.111 -0.4156,0.165 l -0.0523,-0.042 c 0.0293,-0.175 0.0922,-0.366 0.1109,-0.553 -0.1141,0.032 -0.2266,0.068 -0.3437,0.088 l -0.027,-0.07 c 0.1223,-0.113 0.2141,-0.252 0.3516,-0.348 l 0.0535,0.01 0.0262,0.024 0.0207,0.194 c 0.1195,-0.029 0.2398,-0.048 0.3652,-0.03 l 0.0332,0.035 c 0.0035,0.129 0.0055,0.267 -0.009,0.399 0.1652,-0.064 0.3317,-0.125 0.5016,-0.177 l 0.0527,0.032 c 0.0074,0.159 -0.0125,0.312 -0.0484,0.463 0.1406,-0.08 0.2871,-0.153 0.4511,-0.161"
         style="fill:#ffffff;fill-opacity:1;fill-rule:nonzero;stroke:none;stroke-width:0.1"
         id="path362" />
      <path
         d="m 47.116,322.773 c -0.1277,0.277 -0.3711,0.527 -0.5695,0.717 -0.3813,0.364 -0.8281,0.687 -1.3254,0.869 -0.9383,0.344 -1.4129,-0.483 -1.7566,-1.235 0.0964,-0.478 0.475,-0.839 0.9367,-1.202 0.4097,-0.323 1.0718,-0.927 1.6367,-0.865 0.5586,0.063 0.975,0.698 1.0773,1.196 0.0332,0.161 0.0297,0.339 8e-4,0.52"
         style="fill:#bbbcbd;fill-opacity:1;fill-rule:nonzero;stroke:none;stroke-width:0.1"
         id="path364" />
      <path
         d="m 48.3059,326.783 c -0.0442,0.174 -0.0746,0.378 0.041,0.516 0.091,0.108 0.2465,0.138 0.3875,0.128 0.3847,-0.026 0.7097,-0.281 1.0082,-0.525 0.1699,-0.139 0.3551,-0.309 0.3523,-0.528 -0.0035,-0.276 -0.3246,-0.458 -0.5976,-0.421 -0.2735,0.036 -0.5004,0.221 -0.7118,0.398 -0.1472,0.123 -0.2949,0.247 -0.4421,0.37 l 0.0461,-0.127 -0.0836,0.189"
         style="fill:#292427;fill-opacity:1;fill-rule:nonzero;stroke:none;stroke-width:0.1"
         id="path366" />
      <path
         d="m 47.5273,328.768 c 0.1278,0.132 1.3008,0.816 1.3008,0.816 0,0 -1.159,1.662 -1.6058,1.891 -0.4469,0.229 -1.5297,-1.123 -1.5297,-1.123 l 1.8347,-1.584"
         style="fill:#f9d859;fill-opacity:1;fill-rule:nonzero;stroke:none;stroke-width:0.1"
         id="path368" />
      <path
         d="m 47.4859,328.127 c 0.3481,0.411 0.4891,1.241 0.1426,0.832 l -0.8457,0.221 -0.3219,-0.376 -0.1343,-0.132 c -0.1239,-0.118 -0.2512,-0.233 -0.3801,-0.347 -0.3274,-0.29 -0.666,-0.571 -1.016,-0.841 -0.3336,-0.257 -0.6649,-0.502 -1.0176,-0.697 l -0.2371,-0.12 -0.109,-0.046 -0.0051,-0.002 -0.0168,-0.006 -0.0191,-0.005 c -0.3692,0.19 -0.9375,-0.142 -0.6547,-0.509 0.6105,-0.792 1.9039,0.229 2.4207,0.607 0.702,0.514 1.6488,0.778 2.1941,1.421"
         style="fill:#bbbcbd;fill-opacity:1;fill-rule:nonzero;stroke:none;stroke-width:0.1"
         id="path370" />
      <path
         d="m 46.8586,330.232 c -0.252,0.193 -0.527,0.339 -0.7645,0.253 -0.1324,-0.048 -0.2664,-0.092 -0.4015,-0.133 -1.3313,-0.725 -2.9883,-1.097 -4.0797,-2.077 l -0.034,-0.207 c -0.0574,-0.702 0.4992,-1.393 1.3,-1.577 0.8145,-0.188 1.675,0.178 2.3117,0.584 0.8153,0.521 1.602,1.092 2.3367,1.693 0.4407,0.361 0.2715,0.672 -0.1128,0.986 -0.1442,0.118 -0.3418,0.315 -0.5559,0.478"
         style="fill:#292427;fill-opacity:1;fill-rule:nonzero;stroke:none;stroke-width:0.1"
         id="path372" />
      <path
         d="m 45.8145,329.214 -0.2743,0.136 -0.1121,0.075 c -0.0336,0.227 -0.1101,0.45 -0.1793,0.67 0.1719,-0.018 0.3348,-0.126 0.4696,-0.223 0.1132,-0.301 0.2093,-0.631 0.0961,-0.658 z m -0.9266,0.074 c -0.0149,0.139 -0.0797,0.293 -0.0441,0.433 0.1761,-0.103 0.346,-0.217 0.5125,-0.332 0.0167,-0.13 0.0171,-0.262 -0.0094,-0.394 -0.1547,0.068 -0.3059,0.14 -0.4551,0.215 z m -0.0856,-0.194 -0.0433,-0.242 -0.3004,0.059 -0.009,0.003 c 0.0141,0.149 -0.0074,0.303 -0.0141,0.45 0.1235,-0.062 0.2461,-0.125 0.3696,-0.188 z m -0.4714,-0.352 -0.1836,0.219 0.2218,-0.088 z m 1.807,0.879 -0.1477,0.138 -0.2086,0.153 c -0.0378,0.104 -0.0789,0.208 -0.123,0.31 0.191,-0.181 0.3519,-0.383 0.4793,-0.601 z m -0.2785,-0.485 0.048,0.023 c 0.0461,0.167 0.0059,0.337 -0.0422,0.5 l -0.0433,0.136 c 0.1597,-0.122 0.2836,-0.264 0.4351,-0.394 l 0.0657,0.032 c -0.1688,0.359 -0.4172,0.684 -0.7418,0.955 l -0.0653,-0.033 c 0.0207,-0.044 0.0887,-0.194 0.159,-0.37 -0.1391,0.091 -0.2996,0.182 -0.4777,0.181 l -0.0383,-0.041 c 0.0644,-0.209 0.1418,-0.423 0.182,-0.638 l -0.0301,0.02 c -0.1511,0.104 -0.3089,0.205 -0.4707,0.297 l -0.057,-0.02 c -0.0703,-0.162 -0.0074,-0.349 0.0152,-0.527 -0.1281,0.065 -0.2554,0.131 -0.3839,0.195 l -0.0586,-0.028 c 8e-4,-0.151 0.0324,-0.321 0.0215,-0.481 -0.1075,0.043 -0.2129,0.088 -0.3254,0.121 l -0.0379,-0.056 c 0.1027,-0.111 0.1711,-0.241 0.2918,-0.34 l 0.0539,10e-4 0.0301,0.017 0.0511,0.16 c 0.1133,-0.041 0.2293,-0.073 0.3563,-0.075 l 0.0379,0.025 c 0.0246,0.109 0.0476,0.224 0.055,0.338 0.1532,-0.077 0.3075,-0.151 0.4665,-0.218 l 0.0574,0.02 c 0.0328,0.133 0.0375,0.265 0.0258,0.396 0.1265,-0.086 0.2593,-0.168 0.4199,-0.196"
         style="fill:#ffffff;fill-opacity:1;fill-rule:nonzero;stroke:none;stroke-width:0.1"
         id="path374" />
      <path
         d="m 43.9348,327.594 -0.0496,0.08 c -0.3145,0.52 -0.7668,1.183 -1.3891,1.353 -0.4867,0.133 -0.9289,-0.202 -1.2223,-0.556 -0.3425,-0.414 -0.5144,-0.75 -0.1746,-1.22 0.4125,-0.572 1.2207,-1.493 1.9836,-1.525 0.5613,-0.024 1.0738,0.455 1.2543,0.861 0.0945,0.213 -0.243,0.752 -0.4023,1.007"
         style="fill:#bbbcbd;fill-opacity:1;fill-rule:nonzero;stroke:none;stroke-width:0.1"
         id="path376" />
      <path
         d="m 45.7914,330.349 c 0.0379,0.176 0.0754,0.353 0.1133,0.529 0.0219,0.104 0.0449,0.21 0.0996,0.301 0.1305,0.217 0.4223,0.298 0.6684,0.238 0.2461,-0.06 0.4488,-0.236 0.6054,-0.435 0.0852,-0.109 0.161,-0.228 0.1879,-0.363 0.0442,-0.221 -0.0515,-0.451 -0.1992,-0.621 -0.1477,-0.17 -0.343,-0.291 -0.5348,-0.409 l -0.18,-0.06 -0.1836,0.169 c -0.1293,0.223 -0.259,0.447 -0.3883,0.67 l -0.1887,-0.019"
         style="fill:#292427;fill-opacity:1;fill-rule:nonzero;stroke:none;stroke-width:0.1"
         id="path378" />
      <path
         d="m 24.6703,358.357 c -0.2297,-1.103 -0.2867,-2.249 -0.1199,-3.364 0.0629,-0.425 0.1613,-0.845 0.2297,-1.269 0.0316,-0.197 0.0597,-0.394 0.0879,-0.591 l 0.0211,-0.154 c 0.0148,-0.113 0.0289,-0.225 0.0437,-0.338 0.1063,-0.815 0.209,-1.63 0.3676,-2.437 0.0406,-0.508 0.0766,-1.017 0.1012,-1.526 -0.5055,-0.39 -1.2289,-0.631 -1.7246,-0.755 -0.9821,-0.246 -2.0106,-0.236 -3.0125,-0.154 -1.6403,0.132 -3.2727,0.524 -4.8469,0.99 -0.3055,0.091 -0.8778,0.199 -1.4192,0.375 -0.6949,0.227 -1.3398,0.567 -1.3129,1.13 0.0239,0.481 0.3774,0.957 0.5391,1.399 0.3238,0.886 0.6477,1.771 0.9703,2.656 0.4953,1.354 0.5539,2.492 0.2449,3.92 -0.164,0.761 -0.3929,1.503 -0.6308,2.243 0.2754,0.682 0.4687,1.392 0.5441,2.125 l 8e-4,0.009 c 0.0266,0.255 0.0387,0.513 0.0344,0.773 -0.0113,0.786 -0.1582,1.588 -0.2852,2.361 -0.1625,0.988 -0.4222,2.196 -1.0199,3.063 0.3898,0.167 0.7813,0.332 1.1699,0.502 l 0.2008,-0.168 c 1.4473,-1.07 3.3481,-1.406 5.0953,-1.063 1.3258,0.259 2.4141,1.012 3.1778,2.044 0.3105,-0.053 0.6125,-0.13 0.8921,-0.25 0.036,-1.302 -0.0375,-2.61 0.4668,-3.848 0.609,-1.493 1.9161,-3.266 1.3586,-4.959 -0.1414,-0.429 -0.4527,-0.688 -0.6687,-1.051 l -0.0254,-0.043 -0.0055,-0.008 c -0.1418,-0.256 -0.2394,-0.565 -0.3148,-0.876 -0.0621,-0.253 -0.1113,-0.507 -0.1598,-0.736"
         style="fill:#db125b;fill-opacity:1;fill-rule:nonzero;stroke:none;stroke-width:0.1"
         id="path380" />
      <path
         d="m 15.993,358.923 c 0.3504,-1.631 0.4238,-4.321 0,-5.375 -0.3196,-0.794 -1.1871,-3.253 -1.5946,-4.414 -0.6949,0.227 -1.3398,0.567 -1.3129,1.13 0.0239,0.481 0.3774,0.957 0.5391,1.399 0.3238,0.886 0.6477,1.771 0.9703,2.656 0.4953,1.354 0.5539,2.492 0.2449,3.92 -0.164,0.761 -0.3929,1.503 -0.6308,2.243 0.2754,0.682 0.4687,1.392 0.5441,2.125 -0.014,-0.24 0.102,-2.899 1.2399,-3.053 1.1566,-0.156 1.9402,0 1.9402,0 0,0 -0.873,-0.874 -1.9402,-0.631"
         style="fill:#bd1553;fill-opacity:1;fill-rule:nonzero;stroke:none;stroke-width:0.1"
         id="path382" />
      <path
         d="M 23.9988,346.985 V 316.44 h 2.091 v 30.545 h -2.091"
         style="fill:#5a1a1b;fill-opacity:1;fill-rule:nonzero;stroke:none;stroke-width:0.1"
         id="path384" />
      <path
         d="M 74.6648,348.841 H 19.373 l 8.7297,9.33 h 40.0149 l 6.5472,-9.33"
         style="fill:#a1342a;fill-opacity:1;fill-rule:nonzero;stroke:none;stroke-width:0.1"
         id="path386" />
      <path
         d="m 19.373,348.841 v -1.836 h 55.2918 v 1.836 H 19.373"
         style="fill:#7c2623;fill-opacity:1;fill-rule:nonzero;stroke:none;stroke-width:0.1"
         id="path388" />
      <path
         d="m 26.2445,353.92 12.3399,-5.079 h 17.8035 l 12.2523,5.475 -14.7078,3.855 H 42.207 L 26.2445,353.92"
         style="fill:#f9d859;fill-opacity:1;fill-rule:nonzero;stroke:none;stroke-width:0.1"
         id="path390" />
      <path
         d="m 38.5844,348.841 8.4344,-12.112 9.3691,12.112 z"
         style="fill:#eca90f;fill-opacity:1;fill-rule:nonzero;stroke:none;stroke-width:0.1"
         id="path392" />
      <path
         d="m 25.1758,360.02 -0.0254,-0.043 -0.0055,-0.008 c -0.1418,-0.256 -0.2394,-0.565 -0.3148,-0.876 -0.4266,-0.025 -0.9707,0.071 -1.6594,0.376 0.7977,-0.127 1.482,0.168 2.0051,0.551"
         style="fill:#bd1553;fill-opacity:1;fill-rule:nonzero;stroke:none;stroke-width:0.1"
         id="path394" />
      <path
         d="m 32.1117,363.506 c -0.1094,0.244 -0.1324,0.54 -0.0031,0.774 0.0973,0.176 0.2672,0.299 0.4312,0.415 l 0.2102,0.121 0.2371,-0.003 0.2164,-0.173 0.0727,-0.038 0.0586,-0.068 c 0.0933,-0.118 0.2543,-0.154 0.3785,-0.238 0.1394,-0.094 0.2316,-0.255 0.2422,-0.424 l -0.0242,-0.156 -0.0735,-0.098 c -0.0875,-0.088 -0.1941,-0.155 -0.3109,-0.198 l -0.1692,-0.013 -0.091,0.062 c -0.166,0.135 -0.3797,0.211 -0.5941,0.212 -0.2145,0.001 -0.4285,-0.075 -0.5953,-0.209 l 0.0144,0.034"
         style="fill:#f28c73;fill-opacity:1;fill-rule:nonzero;stroke:none;stroke-width:0.1"
         id="path396" />
      <path
         d="m 33.841,366.065 c 0,0 0.1473,-3.976 2.7977,-3.976 2.6504,0 2.6504,3.976 2.6504,3.976 H 33.841"
         style="fill:#e9eae9;fill-opacity:1;fill-rule:nonzero;stroke:none;stroke-width:0.1"
         id="path398" />
      <path
         d="m 39.2883,366.065 c 0,-0.104 -0.2309,-0.199 -0.6149,-0.273 -0.5004,-0.098 -1.2574,-0.159 -2.1074,-0.159 -0.8504,0 -1.6094,0.061 -2.1097,0.159 -0.384,0.074 -0.6153,0.169 -0.6153,0.273 0,0.24 1.2195,0.433 2.725,0.433 1.5031,0 2.7223,-0.193 2.7223,-0.433"
         style="fill:#d3d4d3;fill-opacity:1;fill-rule:nonzero;stroke:none;stroke-width:0.1"
         id="path400" />
      <path
         d="m 38.6734,365.792 c -0.5004,-0.098 -1.2574,-0.159 -2.1074,-0.159 -0.8504,0 -1.6094,0.061 -2.1097,0.159 0.5003,0.097 1.2593,0.159 2.1097,0.159 0.85,0 1.607,-0.062 2.1074,-0.159"
         style="fill:#6a5f50;fill-opacity:1;fill-rule:nonzero;stroke:none;stroke-width:0.1"
         id="path402" />
      <path
         d="m 34.1305,365.037 -0.2907,0.324 c -0.1871,0.185 -0.4628,0.23 -0.6878,0.086 -0.4415,-0.283 -0.3707,-1.573 0,-1.979 0.366,-0.4 1.2773,0.28 1.3035,0.3 l -0.1016,0.309 c -0.216,-0.079 -0.3613,-0.272 -0.5953,-0.326 -0.4246,-0.097 -0.5512,0.246 -0.5785,0.587 -0.0184,0.222 -0.0449,0.733 0.2199,0.839 0.1305,0.052 0.2844,0.008 0.3941,-0.079 0.1102,-0.088 0.1832,-0.213 0.2454,-0.339 -0.0821,0.164 0.1605,0.127 0.091,0.278"
         style="fill:#e9eae9;fill-opacity:1;fill-rule:nonzero;stroke:none;stroke-width:0.1"
         id="path404" />
      <path
         d="m 32.9781,364.911 c -0.1984,-0.118 -0.3886,-0.308 -0.5258,-0.494 l -0.0164,-0.15 0.0528,-0.02 c 0.307,-0.053 0.6101,0.092 0.8879,0.233 0.1582,0.079 0.316,0.159 0.4738,0.24 l 0.1062,0.136 -0.0539,0.069 c -0.1125,0.127 -0.2199,0.367 -0.3949,0.31 -0.168,-0.055 -0.3793,-0.23 -0.5297,-0.324"
         style="fill:#f8a378;fill-opacity:1;fill-rule:nonzero;stroke:none;stroke-width:0.1"
         id="path406" />
      <path
         d="m 33.2844,364.582 c -0.2192,-0.074 -0.4449,-0.22 -0.6188,-0.373 l -0.0472,-0.143 0.0472,-0.031 c 0.2895,-0.116 0.6157,-0.038 0.9172,0.041 0.1188,0.031 0.543,0.085 0.5852,0.16 -0.0328,0.217 -0.0809,0.442 -0.1684,0.6 -0.1758,-0.019 -0.5488,-0.194 -0.7152,-0.254"
         style="fill:#f8a378;fill-opacity:1;fill-rule:nonzero;stroke:none;stroke-width:0.1"
         id="path408" />
      <path
         d="m 25.2223,353.851 c -0.1239,-0.255 -0.3868,-0.421 -0.6606,-0.494 -0.2738,-0.073 -0.5617,-0.067 -0.8453,-0.061 0.9848,-0.053 1.966,-0.171 2.9352,-0.353 -0.3555,-0.214 -0.7965,-0.281 -1.1993,-0.182 0.3954,-0.047 0.7903,-0.095 1.1856,-0.142 -0.3828,-0.267 -0.8734,-0.374 -1.3324,-0.291 0.4144,0.002 0.8297,-0.107 1.1894,-0.313 -0.5765,-0.314 -1.2832,-0.186 -1.9254,-0.049 0.2375,-0.064 0.4746,-0.129 0.7121,-0.194 -0.2961,-0.303 -0.7933,-0.23 -1.2062,-0.134 -0.4531,0.105 -0.9066,0.211 -1.3598,0.316 -0.7164,0.167 -1.5336,0.414 -1.8168,1.093 -0.1328,0.318 -0.1172,0.758 0.0825,1.049 0.3214,0.468 0.6554,0.172 1.1343,0.046 1.0106,-0.266 2.0645,-0.366 3.1067,-0.291"
         style="fill:#f8a378;fill-opacity:1;fill-rule:nonzero;stroke:none;stroke-width:0.1"
         id="path410" />
      <path
         d="m 56.3988,357.969 c 0.0176,-0.283 0.1981,-0.536 0.4235,-0.708 0.2254,-0.172 0.4941,-0.275 0.759,-0.377 -0.9313,0.325 -1.884,0.588 -2.8497,0.787 0.2477,-0.332 0.6301,-0.562 1.0407,-0.623 -0.3836,0.106 -0.7672,0.212 -1.1508,0.318 0.2527,-0.391 0.666,-0.677 1.1223,-0.775 -0.3829,0.16 -0.8083,0.217 -1.2196,0.163 0.4145,-0.51 1.1168,-0.659 1.7625,-0.776 -0.2437,0.03 -0.4879,0.06 -0.732,0.09 0.1586,-0.393 0.6465,-0.513 1.0648,-0.582 0.4594,-0.074 0.9188,-0.149 1.3778,-0.223 0.7261,-0.118 1.5761,-0.2 2.0961,0.321 0.2433,0.244 0.3964,0.657 0.3218,1.002 -0.1195,0.555 -0.5414,0.408 -1.032,0.473 -1.0355,0.137 -2.0484,0.445 -2.9844,0.91"
         style="fill:#f8a378;fill-opacity:1;fill-rule:nonzero;stroke:none;stroke-width:0.1"
         id="path412" />
      <path
         d="m 31.6137,362.233 c -0.1035,0.023 -0.7199,0.249 -0.6918,0.374 -0.4528,-2.018 -1.6574,-2.988 -2.6168,-4.82 -0.2793,2.654 -0.9344,4.016 -1.4863,6.388 -0.3899,1.676 -0.8278,3.453 -1.8516,4.87 -0.425,0.589 -0.8055,0.858 -1.125,0.901 l 0.1769,-0.068 c 0.036,-1.302 -0.0375,-2.61 0.4668,-3.848 0.609,-1.493 1.9161,-3.266 1.3586,-4.959 -0.1414,-0.429 -0.4527,-0.688 -0.6687,-1.051 l -0.0254,-0.043 -0.0055,-0.008 c -0.1418,-0.256 -0.2394,-0.565 -0.3148,-0.876 l -0.034,-0.145 c 0.3742,-0.862 0.8309,-1.696 1.2836,-2.519 0.5254,-0.954 1.3219,-2.052 2.3992,-1.897 0.9004,0.131 2.4332,2.817 2.7852,3.656 0.3449,0.823 0.7062,1.655 0.9379,2.519 0.1074,0.401 0.2617,0.806 0.3058,1.353 -0.2918,-0.006 -0.6019,0.105 -0.8941,0.173"
         style="fill:#bd1553;fill-opacity:1;fill-rule:nonzero;stroke:none;stroke-width:0.1"
         id="path414" />
      <path
         d="m 11.1797,364.572 c -0.6106,-1.967 -0.2828,-5.974 -0.6785,-7.995 -0.0524,-0.268 -0.1024,-0.547 -0.0324,-0.81 0.0894,-0.335 0.3585,-0.59 0.6359,-0.798 1.3445,-1.009 3.2664,-0.98 4.8883,-1.421 1.657,-0.45 3.6668,-0.96 4.4773,-0.98 0.8102,-0.021 0.8488,1.284 0.9031,2.093 0.02,0.293 -8.0324,1.839 -7.8531,2.28 0.6887,1.69 1.0395,3.963 1.3356,5.273 0.3191,1.41 0.0867,2.877 -0.2164,4.268 -0.2286,1.048 -0.645,3.168 -1.7657,1.848 -0.8683,-1.023 -1.3043,-2.502 -1.6941,-3.758"
         style="fill:#bd1553;fill-opacity:1;fill-rule:nonzero;stroke:none;stroke-width:0.1"
         id="path416" />
      <path
         d="m 16.6359,323.513 c -0.1496,-0.429 -0.3015,-0.874 -0.2726,-1.328 0.0285,-0.454 0.2847,-0.926 0.7176,-1.065 0.1527,-0.05 0.3203,-0.057 0.4582,-0.138 0.1015,-0.06 0.1769,-0.155 0.2504,-0.247 0.1753,-0.222 0.3546,-0.451 0.4339,-0.723 0.0789,-0.271 0.0352,-0.599 -0.1816,-0.781 -0.2133,-0.179 -0.5367,-0.17 -0.7891,-0.052 -0.2519,0.118 -0.4492,0.326 -0.6394,0.529 -0.4508,0.48 -0.5899,0.831 -0.8735,1.425 -0.1203,0.252 -0.2085,0.526 -0.2003,0.805 0.0191,0.647 0.2703,1.314 0.323,1.959 0.0965,1.183 0.4969,1.665 1.3121,1.587 0,-0.941 -0.3641,-1.47 -0.5387,-1.971"
         style="fill:#5a1a1b;fill-opacity:1;fill-rule:nonzero;stroke:none;stroke-width:0.1"
         id="path418" />
      <path
         d="m 79.5543,363.51 c -0.3945,-1.604 -0.7895,-3.207 -1.184,-4.811 -0.0855,-0.347 -0.1789,-0.71 -0.418,-0.977 -0.28,-0.313 -0.7105,-0.437 -1.1222,-0.521 -1.8731,-0.381 -7.4762,-2.368 -8.566,-2.355 l -0.1278,0.007 c 0.0793,-0.221 0.1266,-0.447 0.1364,-0.664 0.0164,-0.366 -0.1094,-0.767 -0.3098,-1.102 3.4023,0.142 6.791,0.606 10.1047,1.389 0.8562,0.203 1.7515,0.451 2.3703,1.076 0.5504,0.556 0.8039,1.332 1.0262,2.082 0.6996,2.357 1.1539,5.897 1.5925,8.317 l -3.5023,-2.441"
         style="fill:#f8a378;fill-opacity:1;fill-rule:nonzero;stroke:none;stroke-width:0.1"
         id="path420" />
      <path
         d="m 69.9375,356.087 c 0.2684,0.957 0.7016,1.918 0.6926,2.926 -0.009,0.958 -0.5356,1.482 -0.9235,2.271 -0.2199,0.447 -0.3605,0.968 -0.4574,1.456 -0.0605,0.305 0.0356,1.08 -0.1066,1.312 -0.2731,0.445 -0.7184,0.726 -1.05,1.269 -0.0992,0.163 -0.2735,-4.469 -0.1684,-6.92 0.0207,-0.476 -7.482,-1.522 -7.509,-1.815 -0.0734,-0.807 -1.6488,-1.197 -0.8453,-1.304 0.8035,-0.107 3.6719,-0.027 5.3789,0.157 1.6422,0.177 3.4992,-0.139 4.9735,0.595 l 0.0152,0.053"
         style="fill:#f8a378;fill-opacity:1;fill-rule:nonzero;stroke:none;stroke-width:0.1"
         id="path422" />
      <path
         d="m 67.1305,355.242 c -0.3731,0.13 -0.7883,0.242 -1.1539,0.094 -0.1551,-0.063 -0.2887,-0.169 -0.4196,-0.273 -0.8562,-0.681 -1.7129,-1.361 -2.5691,-2.042 0.525,-0.001 1.0476,0.201 1.4359,0.554 -0.3488,-0.209 -0.6976,-0.418 -1.0465,-0.627 0.1524,-0.131 0.386,-0.061 0.5692,0.022 0.391,0.178 0.766,0.392 1.1183,0.638 -0.4628,-0.267 -0.9218,-0.542 -1.3761,-0.824 0.2691,-0.17 0.6226,-0.053 0.9117,0.082 0.3437,0.161 0.6781,0.343 1,0.545 -0.4418,-0.165 -0.8316,-0.467 -1.1004,-0.855 0.4625,0.07 0.9133,0.214 1.3301,0.427 0.2613,0.133 0.5207,0.297 0.8133,0.321 0.4109,0.034 0.7902,-0.212 1.1964,-0.283 0.3625,-0.063 0.7657,0.032 1.0137,0.304 1.0012,1.099 -1.0672,1.689 -1.723,1.917"
         style="fill:#f8a378;fill-opacity:1;fill-rule:nonzero;stroke:none;stroke-width:0.1"
         id="path424" />
      <path
         d="m 36.9074,351.919 c 0,-0.882 -1.9547,-1.597 -4.3664,-1.597 -2.4113,0 -4.366,0.715 -4.366,1.597 0,0.881 1.9547,1.596 4.366,1.596 2.4117,0 4.3664,-0.715 4.3664,-1.596"
         style="fill:#e9eae9;fill-opacity:1;fill-rule:nonzero;stroke:none;stroke-width:0.1"
         id="path426" />
      <path
         d="m 35.2527,351.919 c 0,-0.548 -1.214,-0.992 -2.7117,-0.992 -1.4972,0 -2.7113,0.444 -2.7113,0.992 0,0.547 1.2141,0.991 2.7113,0.991 1.4977,0 2.7117,-0.444 2.7117,-0.991"
         style="fill:#d3d4d3;fill-opacity:1;fill-rule:nonzero;stroke:none;stroke-width:0.1"
         id="path428" />
      <path
         d="m 29.9508,351.659 c -0.4703,0.022 -0.1867,0.923 -0.2539,1.389 l 0.0054,0.113 0.1758,0.088 c 1.6125,0.218 3.1371,0.915 4.7571,1.066 0.1175,-0.774 0.0773,-1.571 -0.1172,-2.329 l -0.0985,-0.189 -0.1711,-0.05 c 0,0 -1.8746,-0.204 -4.2976,-0.088"
         style="fill:#a1342a;fill-opacity:1;fill-rule:nonzero;stroke:none;stroke-width:0.1"
         id="path430" />
      <path
         d="m 31.952,354.652 c 0.0933,0.046 0.189,0.091 0.2921,0.106 0.1145,0.017 0.2305,-0.006 0.3442,-0.029 0.6773,-0.134 1.3547,-0.268 2.032,-0.402 -0.7789,-0.265 -1.5598,-0.531 -2.3637,-0.707 -0.4226,-0.093 -0.85,-0.16 -1.2773,-0.227 -0.5004,-0.079 -1.841,-0.504 -1.0762,0.037 0.4727,0.333 1.5305,0.964 2.0489,1.222"
         style="fill:#5a1a1b;fill-opacity:1;fill-rule:nonzero;stroke:none;stroke-width:0.1"
         id="path432" />
      <path
         d="m 33.0902,353.079 c 0.4395,0.113 0.8758,0.24 1.3235,0.315 l 0.2875,0.008 c 0.0332,-0.04 -0.0364,-0.513 -0.0371,-0.669 -1.4286,-10e-4 -3.5629,-0.348 -4.9536,-0.674 0,0.306 0,0.306 0,0.484 0.8649,0.114 2.5348,0.318 3.3797,0.536"
         style="fill:#db125b;fill-opacity:1;fill-rule:nonzero;stroke:none;stroke-width:0.1"
         id="path434" />
      <path
         d="m 58.9332,351.238 c 0,-0.542 1.2004,-0.981 2.6813,-0.981 1.4808,0 2.6812,0.439 2.6812,0.981 0,0.541 -1.2004,0.98 -2.6812,0.98 -1.4809,0 -2.6813,-0.439 -2.6813,-0.98"
         style="fill:#e9eae9;fill-opacity:1;fill-rule:nonzero;stroke:none;stroke-width:0.1"
         id="path436" />
      <path
         d="m 59.9492,351.238 c 0,-0.337 0.7457,-0.609 1.6653,-0.609 0.9199,0 1.6652,0.272 1.6652,0.609 0,0.335 -0.7453,0.608 -1.6652,0.608 -0.9196,0 -1.6653,-0.273 -1.6653,-0.608"
         style="fill:#d3d4d3;fill-opacity:1;fill-rule:nonzero;stroke:none;stroke-width:0.1"
         id="path438" />
      <path
         d="m 34.7102,356.771 c 0,-0.542 1.2003,-0.981 2.6812,-0.981 1.4809,0 2.6813,0.439 2.6813,0.981 0,0.541 -1.2004,0.98 -2.6813,0.98 -1.4809,0 -2.6812,-0.439 -2.6812,-0.98"
         style="fill:#e9eae9;fill-opacity:1;fill-rule:nonzero;stroke:none;stroke-width:0.1"
         id="path440" />
      <path
         d="m 35.7262,356.771 c 0,-0.337 0.7453,-0.609 1.6652,-0.609 0.9195,0 1.6652,0.272 1.6652,0.609 0,0.336 -0.7457,0.609 -1.6652,0.609 -0.9199,0 -1.6652,-0.273 -1.6652,-0.609"
         style="fill:#d3d4d3;fill-opacity:1;fill-rule:nonzero;stroke:none;stroke-width:0.1"
         id="path442" />
      <path
         d="m 50.1582,355.72 c 0,-0.881 1.9547,-1.596 4.366,-1.596 2.4113,0 4.3664,0.715 4.3664,1.596 0,0.882 -1.9551,1.597 -4.3664,1.597 -2.4113,0 -4.366,-0.715 -4.366,-1.597"
         style="fill:#e9eae9;fill-opacity:1;fill-rule:nonzero;stroke:none;stroke-width:0.1"
         id="path444" />
      <path
         d="m 51.8125,355.72 c 0,-0.547 1.2141,-0.991 2.7117,-0.991 1.4977,0 2.7117,0.444 2.7117,0.991 0,0.548 -1.214,0.992 -2.7117,0.992 -1.4976,0 -2.7117,-0.444 -2.7117,-0.992"
         style="fill:#d3d4d3;fill-opacity:1;fill-rule:nonzero;stroke:none;stroke-width:0.1"
         id="path446" />
      <path
         d="m 56.9129,355.889 c -0.1547,0.15 -0.2051,0.377 -0.102,0.575 -0.1418,0.168 -0.155,0.427 -0.032,0.606 l -0.0781,0.061 c -1.4352,0.274 -2.8145,0.85 -4.2703,0.986 -0.1176,-0.774 -0.0774,-1.571 0.1172,-2.329 l 0.0984,-0.189 0.1711,-0.051 c 0,0 1.7598,-0.191 4.073,-0.098 -0.0625,0.142 -0.0668,0.311 0.0227,0.439"
         style="fill:#a1342a;fill-opacity:1;fill-rule:nonzero;stroke:none;stroke-width:0.1"
         id="path448" />
      <path
         d="m 56.7785,357.07 c -0.1367,0.099 -0.2465,0.235 -0.3097,0.414 l -0.0473,0.226 c -0.4656,0.285 -0.9887,0.585 -1.3078,0.743 -0.0934,0.046 -0.1891,0.092 -0.2922,0.107 -0.1145,0.016 -0.2309,-0.006 -0.3442,-0.029 -0.6773,-0.134 -1.3546,-0.268 -2.032,-0.402 0.7789,-0.265 1.5598,-0.531 2.3637,-0.708 0.4223,-0.092 0.85,-0.159 1.2769,-0.227 0.1688,-0.026 0.4321,-0.092 0.6786,-0.146 l 0.014,0.022"
         style="fill:#5a1a1b;fill-opacity:1;fill-rule:nonzero;stroke:none;stroke-width:0.1"
         id="path450" />
      <path
         d="m 56.7918,356.418 c -0.9012,0.118 -2.1305,0.285 -2.8164,0.462 -0.4395,0.113 -0.8762,0.241 -1.3234,0.316 l -0.2875,0.008 c -0.0332,-0.041 0.0359,-0.513 0.0371,-0.669 1.2632,-0.001 3.0773,-0.273 4.4422,-0.562 -0.0883,0.131 -0.1122,0.293 -0.052,0.445"
         style="fill:#db125b;fill-opacity:1;fill-rule:nonzero;stroke:none;stroke-width:0.1"
         id="path452" />
      <path
         d="m 64.3383,354.931 c 0,0 -0.1469,-3.975 -2.7973,-3.975 -2.6504,0 -2.6504,3.975 -2.6504,3.975 h 5.4477"
         style="fill:#e9eae9;fill-opacity:1;fill-rule:nonzero;stroke:none;stroke-width:0.1"
         id="path454" />
      <path
         d="m 58.8914,354.931 c 0,-0.104 0.2309,-0.199 0.6149,-0.273 0.5003,-0.098 1.2574,-0.159 2.1074,-0.159 0.8504,0 1.6093,0.061 2.1097,0.159 0.384,0.074 0.6149,0.169 0.6149,0.273 0,0.24 -1.2192,0.433 -2.7246,0.433 -1.5032,0 -2.7223,-0.193 -2.7223,-0.433"
         style="fill:#d3d4d3;fill-opacity:1;fill-rule:nonzero;stroke:none;stroke-width:0.1"
         id="path456" />
      <path
         d="m 59.5063,354.658 c 0.5003,-0.098 1.2574,-0.159 2.1074,-0.159 0.8504,0 1.6093,0.061 2.1097,0.159 -0.5004,0.097 -1.2593,0.159 -2.1097,0.159 -0.85,0 -1.6071,-0.062 -2.1074,-0.159"
         style="fill:#6a5f50;fill-opacity:1;fill-rule:nonzero;stroke:none;stroke-width:0.1"
         id="path458" />
      <path
         d="m 64.0492,353.903 0.2906,0.324 c 0.1872,0.186 0.4629,0.23 0.6875,0.086 0.4418,-0.283 0.3711,-1.572 0,-1.979 -0.3656,-0.4 -1.2769,0.28 -1.3031,0.3 l 0.1012,0.31 c 0.2164,-0.08 0.3617,-0.273 0.5957,-0.326 0.4246,-0.098 0.5512,0.245 0.5789,0.587 0.018,0.221 0.0445,0.732 -0.2203,0.838 -0.1305,0.052 -0.2844,0.008 -0.3945,-0.079 -0.1098,-0.088 -0.1829,-0.213 -0.245,-0.339 0.0821,0.164 -0.1605,0.127 -0.091,0.278"
         style="fill:#e9eae9;fill-opacity:1;fill-rule:nonzero;stroke:none;stroke-width:0.1"
         id="path460" />
      <path
         d="m 56.4867,353.523 c -0.6633,0.231 -0.7332,0.752 -0.6539,1.25 0.1551,-0.225 0.3098,-0.45 0.4645,-0.676 -0.0598,0.274 -0.1196,0.548 -0.1793,0.821 0.1738,-0.237 0.3472,-0.475 0.5211,-0.713 -0.0496,0.297 -0.0993,0.595 -0.1493,0.891 0.2247,-0.144 0.4473,-0.402 0.5098,-0.662 0.0625,-0.26 -0.0242,-0.53 0.0156,-0.794 0.07,-0.464 0.2434,-0.911 0.5039,-1.301 0.0727,-0.109 0.5442,-0.979 0.5844,-1.103 0.0563,-0.173 0.0082,-0.382 -0.1887,-0.435 -0.1398,-0.037 -0.2945,0.029 -0.3867,0.14 -0.2023,0.245 -0.4605,1.286 -0.5097,1.564 -0.0266,0.15 -0.0856,0.293 -0.1524,0.429 -0.064,0.13 -0.2426,0.542 -0.3793,0.589"
         style="fill:#a4a6a9;fill-opacity:1;fill-rule:nonzero;stroke:none;stroke-width:0.1"
         id="path462" />
      <path
         d="m 37.1348,352.963 c -0.2442,-0.659 -0.7668,-0.718 -1.2629,-0.629 0.2285,0.151 0.4566,0.301 0.6851,0.451 -0.275,-0.054 -0.55,-0.108 -0.8246,-0.163 0.2414,0.169 0.4824,0.338 0.7239,0.507 -0.2981,-0.044 -0.5961,-0.087 -0.8946,-0.131 0.1496,0.222 0.4121,0.439 0.6735,0.496 0.2609,0.057 0.5289,-0.035 0.7937,-0.001 0.4652,0.061 0.9164,0.225 1.3113,0.477 0.1102,0.071 0.9903,0.525 1.1153,0.562 0.1738,0.053 0.3816,0 0.4304,-0.197 0.0344,-0.141 -0.0347,-0.294 -0.148,-0.384 -0.2492,-0.197 -1.2945,-0.434 -1.5742,-0.478 -0.15,-0.023 -0.2953,-0.079 -0.4321,-0.143 -0.1312,-0.062 -0.5464,-0.232 -0.5968,-0.367"
         style="fill:#a4a6a9;fill-opacity:1;fill-rule:nonzero;stroke:none;stroke-width:0.1"
         id="path464" />
      <path
         d="M 68.0285,346.985 V 316.44 h 2.0914 v 30.545 h -2.0914"
         style="fill:#5a1a1b;fill-opacity:1;fill-rule:nonzero;stroke:none;stroke-width:0.1"
         id="path466" />
    </g>
  </g>
</svg>
