<svg id="visual" viewBox="0 0 960 540" width="960" height="540" xmlns="http://www.w3.org/2000/svg" xmlns:xlink="http://www.w3.org/1999/xlink" version="1.1"><rect x="0" y="0" width="960" height="540" fill="#66cdb1"></rect><g transform="translate(452.52117514887766 256.3837157594611)"><path d="M221.9 -236.1C259.4 -232.9 242.5 -136.3 264.6 -42C286.7 52.2 348 144.2 320.4 178.4C292.9 212.6 176.5 189 89.5 201.5C2.4 213.9 -55.4 262.5 -114.8 263.4C-174.2 264.4 -235.2 217.7 -259.2 158.3C-283.1 98.9 -270.1 26.8 -255.9 -43.6C-241.6 -114 -226.2 -182.6 -183.4 -184.9C-140.6 -187.2 -70.3 -123.1 10.9 -136.2C92.1 -149.2 184.3 -239.3 221.9 -236.1" fill="#00c3d7"></path></g></svg>