<svg id="visual" viewBox="0 0 900 600" width="900" height="600" xmlns="http://www.w3.org/2000/svg" xmlns:xlink="http://www.w3.org/1999/xlink" version="1.1"><rect x="0" y="0" width="900" height="600" fill="#fff"></rect><path d="M0 417L11.5 409.3C23 401.7 46 386.3 69 402.8C92 419.3 115 467.7 138.2 479.5C161.3 491.3 184.7 466.7 207.8 442.3C231 418 254 394 277 388.8C300 383.7 323 397.3 346 424.3C369 451.3 392 491.7 415.2 501.8C438.3 512 461.7 492 484.8 478.5C508 465 531 458 554 448C577 438 600 425 623 414.5C646 404 669 396 692.2 414.3C715.3 432.7 738.7 477.3 761.8 475.2C785 473 808 424 831 405C854 386 877 397 888.5 402.5L900 408L900 601L888.5 601C877 601 854 601 831 601C808 601 785 601 761.8 601C738.7 601 715.3 601 692.2 601C669 601 646 601 623 601C600 601 577 601 554 601C531 601 508 601 484.8 601C461.7 601 438.3 601 415.2 601C392 601 369 601 346 601C323 601 300 601 277 601C254 601 231 601 207.8 601C184.7 601 161.3 601 138.2 601C115 601 92 601 69 601C46 601 23 601 11.5 601L0 601Z" fill="#42a08f" stroke-linecap="round" stroke-linejoin="miter"></path></svg>