<svg id="visual" viewBox="0 0 900 600" width="900" height="600" xmlns="http://www.w3.org/2000/svg" xmlns:xlink="http://www.w3.org/1999/xlink" version="1.1"><rect x="0" y="0" width="900" height="600" fill="#d9dc41"></rect><path d="M0 519L8.3 498.3C16.7 477.7 33.3 436.3 50 414.5C66.7 392.7 83.3 390.3 100 389.3C116.7 388.3 133.3 388.7 150 389.8C166.7 391 183.3 393 200 402.2C216.7 411.3 233.3 427.7 250 438C266.7 448.3 283.3 452.7 300 461.3C316.7 470 333.3 483 350 469.8C366.7 456.7 383.3 417.3 400 410.5C416.7 403.7 433.3 429.3 450 437C466.7 444.7 483.3 434.3 500 420.2C516.7 406 533.3 388 550 385C566.7 382 583.3 394 600 400.8C616.7 407.7 633.3 409.3 650 430.7C666.7 452 683.3 493 700 510C716.7 527 733.3 520 750 491.7C766.7 463.3 783.3 413.7 800 402.3C816.7 391 833.3 418 850 436.7C866.7 455.3 883.3 465.7 891.7 470.8L900 476L900 601L891.7 601C883.3 601 866.7 601 850 601C833.3 601 816.7 601 800 601C783.3 601 766.7 601 750 601C733.3 601 716.7 601 700 601C683.3 601 666.7 601 650 601C633.3 601 616.7 601 600 601C583.3 601 566.7 601 550 601C533.3 601 516.7 601 500 601C483.3 601 466.7 601 450 601C433.3 601 416.7 601 400 601C383.3 601 366.7 601 350 601C333.3 601 316.7 601 300 601C283.3 601 266.7 601 250 601C233.3 601 216.7 601 200 601C183.3 601 166.7 601 150 601C133.3 601 116.7 601 100 601C83.3 601 66.7 601 50 601C33.3 601 16.7 601 8.3 601L0 601Z" fill="#66CDB1" stroke-linecap="round" stroke-linejoin="miter"></path></svg>