<svg xmlns="http://www.w3.org/2000/svg" xmlns:xlink="http://www.w3.org/1999/xlink" id="visual" width="900" height="600" version="1.1" viewBox="0 0 900 600"><path fill="#be8b5d" d="M0 73L53 31L106 91L159 79L212 85L265 25L318 43L371 85L424 37L476 67L529 85L582 13L635 73L688 19L741 73L794 73L847 13L900 37L900 0L847 0L794 0L741 0L688 0L635 0L582 0L529 0L476 0L424 0L371 0L318 0L265 0L212 0L159 0L106 0L53 0L0 0Z"/><path fill="#b78458" d="M0 223L53 187L106 265L159 205L212 211L265 235L318 181L371 157L424 109L476 193L529 235L582 91L635 139L688 199L741 205L794 217L847 79L900 205L900 35L847 11L794 71L741 71L688 17L635 71L582 11L529 83L476 65L424 35L371 83L318 41L265 23L212 83L159 77L106 89L53 29L0 71Z"/><path fill="#b07d54" d="M0 283L53 193L106 283L159 259L212 259L265 277L318 205L371 193L424 151L476 241L529 289L582 121L635 187L688 205L741 253L794 271L847 109L900 235L900 203L847 77L794 215L741 203L688 197L635 137L582 89L529 233L476 191L424 107L371 155L318 179L265 233L212 209L159 203L106 263L53 185L0 221Z"/><path fill="#a97750" d="M0 313L53 229L106 319L159 325L212 283L265 319L318 259L371 211L424 199L476 289L529 319L582 163L635 229L688 229L741 283L794 337L847 157L900 259L900 233L847 107L794 269L741 251L688 203L635 185L582 119L529 287L476 239L424 149L371 191L318 203L265 275L212 257L159 257L106 281L53 191L0 281Z"/><path fill="#a2704b" d="M0 379L53 265L106 361L159 337L212 295L265 331L318 289L371 229L424 247L476 313L529 361L582 181L635 259L688 265L741 307L794 349L847 187L900 295L900 257L847 155L794 335L741 281L688 227L635 227L582 161L529 317L476 287L424 197L371 209L318 257L265 317L212 281L159 323L106 317L53 227L0 311Z"/><path fill="#9b6a47" d="M0 445L53 343L106 427L159 367L212 409L265 433L318 379L371 373L424 409L476 421L529 409L582 433L635 397L688 319L741 457L794 439L847 463L900 391L900 293L847 185L794 347L741 305L688 263L635 257L582 179L529 359L476 311L424 245L371 227L318 287L265 329L212 293L159 335L106 359L53 263L0 377Z"/><path fill="#946343" d="M0 451L53 385L106 469L159 385L212 451L265 445L318 421L371 391L424 427L476 451L529 433L582 457L635 439L688 331L741 475L794 475L847 487L900 415L900 389L847 461L794 437L741 455L688 317L635 395L582 431L529 407L476 419L424 407L371 371L318 377L265 431L212 407L159 365L106 425L53 341L0 443Z"/><path fill="#8d5d3e" d="M0 487L53 463L106 553L159 463L212 529L265 469L318 457L371 487L424 499L476 511L529 481L582 511L635 481L688 409L741 487L794 529L847 511L900 505L900 413L847 485L794 473L741 473L688 329L635 437L582 455L529 431L476 449L424 425L371 389L318 419L265 443L212 449L159 383L106 467L53 383L0 449Z"/><path fill="#86573a" d="M0 511L53 481L106 559L159 499L212 559L265 493L318 463L371 541L424 505L476 547L529 493L582 553L635 511L688 463L741 541L794 571L847 559L900 523L900 503L847 509L794 527L741 485L688 407L635 479L582 509L529 479L476 509L424 497L371 485L318 455L265 467L212 527L159 461L106 551L53 461L0 485Z"/><path fill="#7f5136" d="M0 601L53 601L106 601L159 601L212 601L265 601L318 601L371 601L424 601L476 601L529 601L582 601L635 601L688 601L741 601L794 601L847 601L900 601L900 521L847 557L794 569L741 539L688 461L635 509L582 551L529 491L476 545L424 503L371 539L318 461L265 491L212 557L159 497L106 557L53 479L0 509Z"/></svg>