<svg id="visual" viewBox="0 0 900 600" width="900" height="600" xmlns="http://www.w3.org/2000/svg" xmlns:xlink="http://www.w3.org/1999/xlink" version="1.1"><rect x="0" y="0" width="900" height="600" fill="#fff"></rect><g transform="translate(467.76591774039684 321.7103128222985)"><path d="M122.2 -177.6C155 -144.3 175.9 -104.1 200.5 -58.1C225.1 -12.2 253.3 39.7 240 77.2C226.7 114.6 171.8 137.8 124.9 147.6C78 157.3 39 153.7 -7.4 163.9C-53.9 174.2 -107.8 198.3 -155.3 188.8C-202.9 179.2 -244.1 136 -264.5 83.5C-285 31 -284.7 -30.7 -257 -73.5C-229.4 -116.3 -174.3 -140.3 -126.9 -168.9C-79.5 -197.5 -39.8 -230.7 2.4 -234.1C44.7 -237.5 89.3 -211 122.2 -177.6" fill="#3ac3d6"></path></g></svg>