<svg xmlns="http://www.w3.org/2000/svg" xmlns:xlink="http://www.w3.org/1999/xlink" id="visual" width="900" height="600" version="1.1" viewBox="0 0 900 600"><path fill="#64d5e4" d="M0 73L12.5 76C25 79 50 85 75 85C100 85 125 79 150 81C175 83 200 93 225 97C250 101 275 99 300 87C325 75 350 53 375 50C400 47 425 63 450 63C475 63 500 47 525 47C550 47 575 63 600 64C625 65 650 51 675 52C700 53 725 69 750 77C775 85 800 85 825 80C850 75 875 65 887.5 60L900 55L900 0L887.5 0C875 0 850 0 825 0C800 0 775 0 750 0C725 0 700 0 675 0C650 0 625 0 600 0C575 0 550 0 525 0C500 0 475 0 450 0C425 0 400 0 375 0C350 0 325 0 300 0C275 0 250 0 225 0C200 0 175 0 150 0C125 0 100 0 75 0C50 0 25 0 12.5 0L0 0Z"/><path fill="#25c6d9" d="M0 103L12.5 108C25 113 50 123 75 124C100 125 125 117 150 122C175 127 200 145 225 155C250 165 275 167 300 155C325 143 350 117 375 108C400 99 425 107 450 109C475 111 500 107 525 105C550 103 575 103 600 101C625 99 650 95 675 99C700 103 725 115 750 118C775 121 800 115 825 110C850 105 875 101 887.5 99L900 97L900 53L887.5 58C875 63 850 73 825 78C800 83 775 83 750 75C725 67 700 51 675 50C650 49 625 63 600 62C575 61 550 45 525 45C500 45 475 61 450 61C425 61 400 45 375 48C350 51 325 73 300 85C275 97 250 99 225 95C200 91 175 81 150 79C125 77 100 83 75 83C50 83 25 77 12.5 74L0 71Z"/><path fill="#00a0b0" d="M0 187L12.5 206C25 225 50 263 75 269C100 275 125 249 150 250C175 251 200 279 225 286C250 293 275 279 300 275C325 271 350 277 375 279C400 281 425 279 450 269C475 259 500 241 525 237C550 233 575 243 600 247C625 251 650 249 675 257C700 265 725 283 750 293C775 303 800 305 825 303C850 301 875 295 887.5 292L900 289L900 95L887.5 97C875 99 850 103 825 108C800 113 775 119 750 116C725 113 700 101 675 97C650 93 625 97 600 99C575 101 550 101 525 103C500 105 475 109 450 107C425 105 400 97 375 106C350 115 325 141 300 153C275 165 250 163 225 153C200 143 175 125 150 120C125 115 100 123 75 122C50 121 25 111 12.5 106L0 101Z"/><path fill="#008f9d" d="M0 271L12.5 288C25 305 50 339 75 344C100 349 125 325 150 330C175 335 200 369 225 373C250 377 275 351 300 339C325 327 350 329 375 341C400 353 425 375 450 375C475 375 500 353 525 347C550 341 575 351 600 350C625 349 650 337 675 337C700 337 725 349 750 355C775 361 800 361 825 359C850 357 875 353 887.5 351L900 349L900 287L887.5 290C875 293 850 299 825 301C800 303 775 301 750 291C725 281 700 263 675 255C650 247 625 249 600 245C575 241 550 231 525 235C500 239 475 257 450 267C425 277 400 279 375 277C350 275 325 269 300 273C275 277 250 291 225 284C200 277 175 249 150 248C125 247 100 273 75 267C50 261 25 223 12.5 204L0 185Z"/><path fill="#00a0b0" d="M0 331L12.5 347C25 363 50 395 75 397C100 399 125 371 150 372C175 373 200 403 225 404C250 405 275 377 300 367C325 357 350 365 375 378C400 391 425 409 450 413C475 417 500 407 525 400C550 393 575 389 600 381C625 373 650 361 675 365C700 369 725 389 750 401C775 413 800 417 825 413C850 409 875 397 887.5 391L900 385L900 347L887.5 349C875 351 850 355 825 357C800 359 775 359 750 353C725 347 700 335 675 335C650 335 625 347 600 348C575 349 550 339 525 345C500 351 475 373 450 373C425 373 400 351 375 339C350 327 325 325 300 337C275 349 250 375 225 371C200 367 175 333 150 328C125 323 100 347 75 342C50 337 25 303 12.5 286L0 269Z"/><path fill="#25c6d9" d="M0 523L12.5 522C25 521 50 519 75 518C100 517 125 517 150 526C175 535 200 553 225 556C250 559 275 547 300 538C325 529 350 523 375 527C400 531 425 545 450 550C475 555 500 551 525 549C550 547 575 547 600 548C625 549 650 551 675 550C700 549 725 545 750 545C775 545 800 549 825 545C850 541 875 529 887.5 523L900 517L900 383L887.5 389C875 395 850 407 825 411C800 415 775 411 750 399C725 387 700 367 675 363C650 359 625 371 600 379C575 387 550 391 525 398C500 405 475 415 450 411C425 407 400 389 375 376C350 363 325 355 300 365C275 375 250 403 225 402C200 401 175 371 150 370C125 369 100 397 75 395C50 393 25 361 12.5 345L0 329Z"/><path fill="#64d5e4" d="M0 601L12.5 601C25 601 50 601 75 601C100 601 125 601 150 601C175 601 200 601 225 601C250 601 275 601 300 601C325 601 350 601 375 601C400 601 425 601 450 601C475 601 500 601 525 601C550 601 575 601 600 601C625 601 650 601 675 601C700 601 725 601 750 601C775 601 800 601 825 601C850 601 875 601 887.5 601L900 601L900 515L887.5 521C875 527 850 539 825 543C800 547 775 543 750 543C725 543 700 547 675 548C650 549 625 547 600 546C575 545 550 545 525 547C500 549 475 553 450 548C425 543 400 529 375 525C350 521 325 527 300 536C275 545 250 557 225 554C200 551 175 533 150 524C125 515 100 515 75 516C50 517 25 519 12.5 520L0 521Z"/></svg>