<?xml version="1.0" encoding="UTF-8" standalone="no"?>
<!-- Created with Inkscape (http://www.inkscape.org/) -->

<svg
   width="210mm"
   height="197mm"
   viewBox="0 0 210 197"
   version="1.1"
   id="svg15605"
   inkscape:version="1.1 (c68e22c387, 2021-05-23)"
   sodipodi:docname="archery.svg"
   xmlns:inkscape="http://www.inkscape.org/namespaces/inkscape"
   xmlns:sodipodi="http://sodipodi.sourceforge.net/DTD/sodipodi-0.dtd"
   xmlns="http://www.w3.org/2000/svg"
   xmlns:svg="http://www.w3.org/2000/svg">
  <sodipodi:namedview
     id="namedview15607"
     pagecolor="#ffffff"
     bordercolor="#666666"
     borderopacity="1.0"
     inkscape:pageshadow="2"
     inkscape:pageopacity="0.0"
     inkscape:pagecheckerboard="0"
     inkscape:document-units="mm"
     showgrid="false"
     inkscape:zoom="0.67081229"
     inkscape:cx="263.11384"
     inkscape:cy="561.25984"
     inkscape:window-width="1920"
     inkscape:window-height="1009"
     inkscape:window-x="1912"
     inkscape:window-y="-8"
     inkscape:window-maximized="1"
     inkscape:current-layer="layer1" />
  <defs
     id="defs15602">
    <clipPath
       clipPathUnits="userSpaceOnUse"
       id="clipPath28785">
      <path
         d="M 43.3797,62.7765 H 87.5574 V 43.5291 H 43.3797 Z"
         id="path28783" />
    </clipPath>
    <clipPath
       clipPathUnits="userSpaceOnUse"
       id="clipPath28801">
      <path
         d="m 119.932,77.1392 h 66.01 V 35.6307 h -66.01 z"
         id="path28799" />
    </clipPath>
    <clipPath
       clipPathUnits="userSpaceOnUse"
       id="clipPath28877">
      <path
         d="m 111.992,78.0952 h 7.94 V 37.1121 h -7.94 z"
         id="path28875" />
    </clipPath>
    <clipPath
       clipPathUnits="userSpaceOnUse"
       id="clipPath28893">
      <path
         d="m 45.8039,116.471 h 8.0657 V 75.2533 h -8.0657 z"
         id="path28891" />
    </clipPath>
    <clipPath
       clipPathUnits="userSpaceOnUse"
       id="clipPath28909">
      <path
         d="M 24.0069,78.1566 H 53.7437 V 67.3015 H 24.0069 Z"
         id="path28907" />
    </clipPath>
    <clipPath
       clipPathUnits="userSpaceOnUse"
       id="clipPath28925">
      <path
         d="M 90.1953,40.4807 H 119.932 V 28.9263 H 90.1953 Z"
         id="path28923" />
    </clipPath>
    <clipPath
       clipPathUnits="userSpaceOnUse"
       id="clipPath28941">
      <path
         d="M 52.4113,179.651 H 91.9995 V 56.0665 H 52.4113 Z"
         id="path28939" />
    </clipPath>
    <clipPath
       clipPathUnits="userSpaceOnUse"
       id="clipPath29021">
      <path
         d="M 44.8959,234.584 H 214.582 v -96.77 H 44.8959 Z"
         id="path29019" />
    </clipPath>
    <clipPath
       clipPathUnits="userSpaceOnUse"
       id="clipPath39961">
      <path
         d="M 0,306 H 1009 V 0 H 0 Z"
         id="path39959" />
    </clipPath>
    <clipPath
       clipPathUnits="userSpaceOnUse"
       id="clipPath39973">
      <path
         d="M 378.489,81.1556 H 427.52 V 46.9722 h -49.031 z"
         id="path39971" />
    </clipPath>
    <clipPath
       clipPathUnits="userSpaceOnUse"
       id="clipPath39989">
      <path
         d="m 378.489,110.169 h 71.065 v -57.42 h -71.065 z"
         id="path39987" />
    </clipPath>
    <clipPath
       clipPathUnits="userSpaceOnUse"
       id="clipPath40005">
      <path
         d="m 384.666,160.289 h 85.202 V 72.6065 h -85.202 z"
         id="path40003" />
    </clipPath>
    <clipPath
       clipPathUnits="userSpaceOnUse"
       id="clipPath40061">
      <path
         d="m 284.906,52.7322 h 11.358 V 40.5777 h -11.358 z"
         id="path40059" />
    </clipPath>
    <clipPath
       clipPathUnits="userSpaceOnUse"
       id="clipPath40109">
      <path
         d="m 323.084,44.5654 h 7.56 V 30.9102 h -7.56 z"
         id="path40107" />
    </clipPath>
    <clipPath
       clipPathUnits="userSpaceOnUse"
       id="clipPath40161">
      <path
         d="m 290.962,190.584 h 37.826 v -55.945 h -37.826 z"
         id="path40159" />
    </clipPath>
    <clipPath
       clipPathUnits="userSpaceOnUse"
       id="clipPath40229">
      <path
         d="m 309.489,214.944 h 23.7 v -6.641 h -23.7 z"
         id="path40227" />
    </clipPath>
    <clipPath
       clipPathUnits="userSpaceOnUse"
       id="clipPath40249">
      <path
         d="m 309.489,213.847 h 23.687 v -5.544 h -23.687 z"
         id="path40247" />
    </clipPath>
    <clipPath
       clipPathUnits="userSpaceOnUse"
       id="clipPath40305">
      <path
         d="m 349.971,169.424 h 9.322 v -51.46 h -9.322 z"
         id="path40303" />
    </clipPath>
    <clipPath
       clipPathUnits="userSpaceOnUse"
       id="clipPath40321">
      <path
         d="m 351.994,157.599 h 6.451 v -10.005 h -6.451 z"
         id="path40319" />
    </clipPath>
    <clipPath
       clipPathUnits="userSpaceOnUse"
       id="clipPath40337">
      <path
         d="m 351.994,138.912 h 6.869 v -10.289 h -6.869 z"
         id="path40335" />
    </clipPath>
    <clipPath
       clipPathUnits="userSpaceOnUse"
       id="clipPath40361">
      <path
         d="m 298.869,176.264 h 3.876 v -4.931 h -3.876 z"
         id="path40359" />
    </clipPath>
    <clipPath
       clipPathUnits="userSpaceOnUse"
       id="clipPath40393">
      <path
         d="m 364.451,135.376 h 4.584 v -2.241 h -4.584 z"
         id="path40391" />
    </clipPath>
  </defs>
  <g
     inkscape:label="Layer 1"
     inkscape:groupmode="layer"
     id="layer1">
    <g
       id="g39955"
       transform="matrix(1.0188077,0,0,-0.87515233,-270.80433,201.17781)"
       inkscape:export-filename="C:\Users\Karmavir Joshi\g39955.png"
       inkscape:export-xdpi="96"
       inkscape:export-ydpi="96">
      <g
         id="g39957"
         clip-path="url(#clipPath39961)">
        <g
           id="g39963"
           transform="translate(450.7856,157.4577)">
          <path
             d="m 0,0 c -7.663,4.437 -18.252,3.808 -29.954,-2.949 -23.389,-13.506 -42.346,-46.347 -42.343,-73.354 0.002,-13.551 4.78,-23.052 12.493,-27.454 2.008,-1.145 4.579,-2.734 6.602,-3.904 7.662,-4.43 18.246,-3.798 29.941,2.955 23.386,13.504 42.343,46.345 42.343,73.353 0,13.497 -4.737,22.975 -12.395,27.4"
             style="fill:#3e885c;fill-opacity:1;fill-rule:nonzero;stroke:none"
             id="path39965" />
        </g>
        <g
           id="g39967">
          <g
             id="g39969" />
          <g
             id="g39981">
            <g
               clip-path="url(#clipPath39973)"
               opacity="0.199997"
               id="g39979">
              <g
                 transform="translate(378.4888,81.1559)"
                 id="g39977">
                <path
                   d="m 0,0 v -0.001 c 0.001,-13.552 4.78,-23.053 12.493,-27.454 2.008,-1.146 4.579,-2.734 6.602,-3.904 7.661,-4.43 18.243,-3.798 29.936,2.952 z"
                   style="fill:#100f0d;fill-opacity:1;fill-rule:nonzero;stroke:none"
                   id="path39975" />
              </g>
            </g>
          </g>
        </g>
        <g
           id="g39983">
          <g
             id="g39985" />
          <g
             id="g39997">
            <g
               clip-path="url(#clipPath39989)"
               opacity="0.100006"
               id="g39995">
              <g
                 transform="translate(384.6655,110.1686)"
                 id="g39993">
                <path
                   d="M 0,0 C -3.919,-9.676 -6.178,-19.691 -6.177,-29.013 L 42.854,-57.42 c 0.002,0.001 0.003,0.002 0.005,0.003 8.07,4.66 15.612,11.624 22.03,19.854 z"
                   style="fill:#100f0d;fill-opacity:1;fill-rule:nonzero;stroke:none"
                   id="path39991" />
              </g>
            </g>
          </g>
        </g>
        <g
           id="g39999">
          <g
             id="g40001" />
          <g
             id="g40013">
            <g
               clip-path="url(#clipPath40005)"
               opacity="0.399994"
               id="g40011">
              <g
                 transform="translate(449.5542,72.6061)"
                 id="g40009">
                <path
                   d="m 0,0 c 12.181,15.622 20.313,35.811 20.313,53.499 0,13.496 -4.737,22.975 -12.394,27.399 l -6.688,3.954 c -7.663,4.437 -18.252,3.807 -29.953,-2.95 -15.317,-8.844 -28.731,-25.98 -36.167,-44.339 z"
                   style="fill:#ffffff;fill-opacity:1;fill-rule:nonzero;stroke:none"
                   id="path40007" />
              </g>
            </g>
          </g>
        </g>
        <g
           id="g40015"
           transform="translate(427.5186,150.5553)">
          <path
             d="m 0,0 c -23.385,-13.512 -42.346,-46.347 -42.343,-73.354 0.003,-27.006 18.964,-37.953 42.349,-24.45 C 23.392,-84.3 42.373,-51.459 42.35,-24.45 42.326,2.554 23.365,13.5 0,0"
             style="fill:#3e885c;fill-opacity:1;fill-rule:nonzero;stroke:none"
             id="path40017" />
        </g>
        <g
           id="g40019"
           transform="translate(427.5195,138.3376)">
          <path
             d="m 0,0 c -17.545,-10.131 -31.767,-34.767 -31.764,-55.026 0.002,-20.26 14.225,-28.471 31.768,-18.342 17.543,10.13 31.765,34.766 31.765,55.026 C 31.769,1.919 17.545,10.131 0,0"
             style="fill:#fcfcfd;fill-opacity:1;fill-rule:nonzero;stroke:none"
             id="path40021" />
        </g>
        <g
           id="g40023"
           transform="translate(427.52,127.2165)">
          <path
             d="m 0,0 c -12.226,-7.06 -22.136,-24.227 -22.134,-38.345 0.002,-14.117 9.913,-19.839 22.137,-12.78 12.225,7.059 22.134,24.226 22.134,38.344 C 22.137,1.337 12.226,7.06 0,0"
             style="fill:#3e885c;fill-opacity:1;fill-rule:nonzero;stroke:none"
             id="path40025" />
        </g>
        <g
           id="g40027"
           transform="translate(427.521,115.8034)">
          <path
             d="m 0,0 c -6.768,-3.907 -12.253,-13.41 -12.252,-21.225 0.001,-7.814 5.487,-10.981 12.253,-7.074 6.767,3.907 12.252,13.409 12.252,21.225 C 12.253,0.74 6.767,3.907 0,0"
             style="fill:#fcfcfd;fill-opacity:1;fill-rule:nonzero;stroke:none"
             id="path40029" />
        </g>
        <g
           id="g40031"
           transform="translate(427.5215,107.6227)">
          <path
             d="m 0,0 c -2.855,-1.648 -5.169,-5.657 -5.168,-8.953 0,-3.297 2.314,-4.633 5.168,-2.985 2.855,1.649 5.169,5.657 5.169,8.954 C 5.169,0.312 2.854,1.648 0,0"
             style="fill:#3f5461;fill-opacity:1;fill-rule:nonzero;stroke:none"
             id="path40033" />
        </g>
        <g
           id="g40035"
           transform="translate(322.0801,26.0798)">
          <path
             d="m 0,0 c 0.04,-1.571 0.588,-4.897 2.891,-6.542 2.302,-1.645 4.641,-0.804 5.628,-0.256 0.987,0.549 3.024,2.166 3.024,7.35 z"
             style="fill:#3f5461;fill-opacity:1;fill-rule:nonzero;stroke:none"
             id="path40037" />
        </g>
        <g
           id="g40039"
           transform="translate(321.9536,29.5895)">
          <path
             d="m 0,0 c -0.097,-2.745 0.177,-4.714 0.864,-6.454 0.687,-1.74 2.556,-4.021 4.56,-4.021 2.003,0 4.22,0.572 5.55,3.866 1.108,2.744 0.636,5.634 0.318,7.542 z"
             style="fill:#ededed;fill-opacity:1;fill-rule:nonzero;stroke:none"
             id="path40041" />
        </g>
        <g
           id="g40043"
           transform="translate(291.6929,80.069)">
          <path
             d="m 0,0 c 0,0 0.558,-24.896 0.27,-27.351 -0.27,-2.298 -1.097,-3.46 -2.528,-5.666 -1.938,-2.988 -4.474,-4.996 -7.595,-7.161 0.4,-1.178 4.06,-1.263 5.901,-0.441 2.943,1.313 5.889,3.371 6.903,4.067 2.564,1.763 6.111,3.135 6.25,5.949 0.019,0.351 -0.02,0.554 -0.036,0.611 0.151,2.368 2.351,11.753 4.14,20.054 1.788,8.301 1.734,17.283 0.643,21.852 L 18.284,35.513 0,37.888 C -0.852,23.646 -0.153,7.516 0,0"
             style="fill:#f794a4;fill-opacity:1;fill-rule:nonzero;stroke:none"
             id="path40045" />
        </g>
        <g
           id="g40047"
           transform="translate(277.0781,35.113)">
          <path
             d="m 0,0 c -0.151,-0.646 -0.13,-1.101 2.109,-2.143 2.298,-1.069 5.727,-1.321 8.723,-0.852 2.995,0.469 5.767,2.925 7.15,4.696 1.383,1.772 4.041,3.313 5.769,4.091 1.728,0.779 2.104,1.113 2.022,1.687 C 25.69,8.052 25.34,9.576 25.34,9.576 Z"
             style="fill:#ededed;fill-opacity:1;fill-rule:nonzero;stroke:none"
             id="path40049" />
        </g>
        <g
           id="g40051"
           transform="translate(302.8184,47.0534)">
          <path
             d="m 0,0 c -0.258,1.903 -0.98,2.822 -0.859,4.348 0.116,1.467 -0.7,1.334 -0.7,1.334 L -1.713,4.827 C -1.838,4.268 -2.182,4.071 -2.483,3.654 -3.157,2.723 -3.205,2.024 -4.036,1.807 -4.905,1.58 -4.892,3.035 -5.795,3.114 -6.092,3.141 -6.402,2.984 -6.731,2.715 c 0.149,0.48 0.21,0.884 0.154,1.169 -0.183,0.927 -2.374,1.284 -3.916,1.709 -1.541,0.425 -0.935,-0.788 -1.611,-2.28 -0.677,-1.49 -4.355,-6.342 -5.808,-7.813 0,0 -2.105,-1.7 -4.092,-2.922 -1.987,-1.222 -2.68,-1.586 -3.257,-1.899 -0.576,-0.314 -0.813,-1.628 -0.58,-2.437 0.233,-0.809 4.402,-3.089 9.071,-2.418 4.67,0.671 6.162,2.568 7.955,4.935 1.792,2.368 3.949,3.538 5.146,4.04 1.196,0.503 2.523,1.114 3.391,2.01 0,0 0.537,1.288 0.278,3.191"
             style="fill:#3e885c;fill-opacity:1;fill-rule:nonzero;stroke:none"
             id="path40053" />
        </g>
        <g
           id="g40055">
          <g
             id="g40057" />
          <g
             id="g40069">
            <g
               clip-path="url(#clipPath40061)"
               opacity="0.100006"
               id="g40067">
              <g
                 transform="translate(284.9062,42.5534)"
                 id="g40065">
                <path
                   d="m 0,0 c 1.453,1.471 5.131,6.323 5.808,7.813 0.676,1.492 0.07,2.705 1.611,2.28 C 8.961,9.668 11.152,9.311 11.335,8.384 11.518,7.457 10.592,5.382 8.689,2.896 6.785,0.41 3.261,-1.976 3.261,-1.976 Z"
                   style="fill:#100f0d;fill-opacity:1;fill-rule:nonzero;stroke:none"
                   id="path40063" />
              </g>
            </g>
          </g>
        </g>
        <g
           id="g40071"
           transform="translate(277.835,36.8805)">
          <path
             d="m 0,0 c 0.812,-0.287 1.703,-0.588 1.712,-0.912 0.01,-0.325 -0.108,-2.136 0.292,-2.772 0.4,-0.635 0.936,-0.841 1.725,-0.979 0.788,-0.139 4.194,-0.437 6.237,0.017 2.043,0.454 3.96,1.346 5.871,3.262 1.911,1.916 2.311,2.887 4.74,4.277 2.428,1.389 3.314,1.562 4.403,2.428 0,0 0.115,-0.459 0.127,-0.765 0,0 -0.346,-0.465 -1.119,-0.798 C 23.216,3.425 20.566,2.341 19.484,1.52 18.402,0.699 17.135,-0.715 16.061,-1.88 14.986,-3.044 12.592,-4.703 9.942,-5.14 c -2.65,-0.435 -6.236,-0.236 -8.51,0.801 -2.273,1.037 -2.352,1.54 -2.532,1.842 -0.178,0.302 -0.123,2.031 0.043,2.398 C -0.892,0.269 -0.583,0.205 0,0"
             style="fill:#3f5461;fill-opacity:1;fill-rule:nonzero;stroke:none"
             id="path40073" />
        </g>
        <g
           id="g40075"
           transform="translate(288.9541,41.237)">
          <path
             d="m 0,0 c -1.58,1.33 -2.978,1.881 -3.63,1.764 0,0 -0.524,-0.236 -0.669,-0.647 0,0 1.265,-0.055 3.512,-1.776 0,0 0.697,0.019 0.787,0.659"
             style="fill:#3f5461;fill-opacity:1;fill-rule:nonzero;stroke:none"
             id="path40077" />
        </g>
        <g
           id="g40079"
           transform="translate(286.7441,44.696)">
          <path
             d="m 0,0 c 1.211,-0.108 2.686,-0.778 4.397,-2.009 0,0 0.554,0.03 0.742,0.658 0,0 -2.277,2.027 -4.58,2.061 C 0.559,0.71 -0.002,0.459 0,0"
             style="fill:#3f5461;fill-opacity:1;fill-rule:nonzero;stroke:none"
             id="path40081" />
        </g>
        <g
           id="g40083"
           transform="translate(288.5601,47.0719)">
          <path
             d="m 0,0 c 1.049,0.302 3.867,-1.377 4.669,-2.272 0,0 0.658,-0.05 0.751,0.745 0,0 -2.195,2.332 -4.772,2.429 C 0.648,0.902 -0.087,0.633 0,0"
             style="fill:#3f5461;fill-opacity:1;fill-rule:nonzero;stroke:none"
             id="path40085" />
        </g>
        <g
           id="g40087"
           transform="translate(290.127,49.3366)">
          <path
             d="m 0,0 c 0.514,0.051 3.373,-0.287 4.943,-1.992 0,0 0.554,0.157 0.61,0.797 0,0 -1.905,2.161 -5.045,2.062 C 0.508,0.867 0.115,0.595 0,0"
             style="fill:#3f5461;fill-opacity:1;fill-rule:nonzero;stroke:none"
             id="path40089" />
        </g>
        <g
           id="g40091"
           transform="translate(318.0977,67.6882)">
          <path
             d="m 0,0 c 1.753,-8.24 4.322,-19.765 4.589,-24.557 0.091,-1.145 0.936,-12.489 1.38,-15.072 0.444,-2.583 5.64,-2.832 6.153,1.566 0.341,2.926 0.261,12.195 0.208,13.603 -0.281,7.481 0.446,18.869 0.473,28.406 0.028,9.537 -1.458,14.036 -1.607,18.447 -0.148,4.41 -0.609,31.549 -0.611,31.439 C 10.584,53.721 -8.5,50.269 -8.5,50.269 c 0,0 3.95,-26.784 4.473,-30.857 C -3.505,15.338 -1.753,8.239 0,0"
             style="fill:#f794a4;fill-opacity:1;fill-rule:nonzero;stroke:none"
             id="path40093" />
        </g>
        <g
           id="g40095"
           transform="translate(330.3501,45.6198)">
          <path
             d="m 0,0 c 0.8,-0.081 0.872,-3.162 1.431,-7.05 0.528,-3.677 0.724,-3.757 1.262,-6.76 0.524,-2.922 0.853,-4.912 -0.456,-7.783 -2.413,-5.292 -7.132,-4.04 -9.04,-0.754 -1.867,3.216 -1.716,5.667 -1.404,9.106 0.322,3.555 -0.041,4.902 -0.098,7.61 -0.055,2.588 -0.314,5.121 0.394,5.387 0.036,-0.24 0.131,-0.656 0.214,-1.31 0.11,-0.875 0.023,-1.612 0.472,-1.639 0,0 -0.026,0.661 -0.038,0.998 -0.01,0.293 -0.009,0.612 0.246,0.787 0.413,0.28 1.967,0.227 3.336,0.317 1.348,0.088 2.718,-0.005 2.881,-0.058 0.189,-0.063 0.511,-0.141 0.536,-0.738 0.019,-0.469 0.066,-1.111 0.066,-1.111 0.233,-0.009 0.267,0.289 0.271,0.374 0.02,0.416 -0.028,0.721 -0.031,1.205 C 0.042,-1.194 0.008,-0.221 0,0"
             style="fill:#3e885c;fill-opacity:1;fill-rule:nonzero;stroke:none"
             id="path40097" />
        </g>
        <g
           id="g40099"
           transform="translate(325.1016,20.0329)">
          <path
             d="m 0,0 c 0.512,-0.361 1.405,0.229 1.363,1.114 -0.042,0.885 0.822,0.78 1.791,0.822 0.969,0.042 1.685,0.294 1.769,-0.59 0.084,-0.885 0.524,-1.361 1.2,-0.973 0,0 -0.631,-1.323 -2.906,-1.492 C 0.942,-1.287 0,0 0,0"
             style="fill:#3f5461;fill-opacity:1;fill-rule:nonzero;stroke:none"
             id="path40101" />
        </g>
        <g
           id="g40103">
          <g
             id="g40105" />
          <g
             id="g40117">
            <g
               clip-path="url(#clipPath40109)"
               opacity="0.100006"
               id="g40115">
              <g
                 transform="translate(330.0859,43.7331)"
                 id="g40113">
                <path
                   d="m 0,0 c -0.025,0.597 -0.347,0.675 -0.536,0.737 -0.163,0.054 -1.533,0.147 -2.88,0.059 -1.37,-0.09 -2.924,-0.037 -3.336,-0.317 -0.256,-0.175 -0.257,-0.495 -0.247,-0.788 0.012,-0.337 0.038,-0.998 0.038,-0.998 0.132,-1.843 1.28,-10.149 1.492,-11.516 0,0 2.993,0.369 6.028,0.427 C 0.535,-12.101 0.066,-1.111 0.066,-1.111 0.066,-1.111 0.02,-0.47 0,0"
                   style="fill:#100f0d;fill-opacity:1;fill-rule:nonzero;stroke:none"
                   id="path40111" />
              </g>
            </g>
          </g>
        </g>
        <g
           id="g40119"
           transform="translate(324.353,30.3747)">
          <path
             d="m 0,0 c 1.893,0.462 4.989,0.619 6.643,0.365 0.115,0.405 0.106,0.83 0,1.273 -2.285,0.155 -4.57,0 -6.856,-0.467 C -0.283,0.632 -0.188,0.266 0,0"
             style="fill:#3f5461;fill-opacity:1;fill-rule:nonzero;stroke:none"
             id="path40121" />
        </g>
        <g
           id="g40123"
           transform="translate(324.0239,33.5798)">
          <path
             d="m 0,0 c 1.953,0.476 4.982,0.688 6.877,0.423 0.281,0.514 0.19,0.907 0,1.268 C 4.519,1.852 2.139,1.689 -0.22,1.208 -0.289,0.699 -0.275,0.252 0,0"
             style="fill:#3f5461;fill-opacity:1;fill-rule:nonzero;stroke:none"
             id="path40125" />
        </g>
        <g
           id="g40127"
           transform="translate(323.6948,36.7839)">
          <path
             d="m 0,0 c 2.013,0.491 4.976,0.758 7.11,0.481 0.127,0.394 0.13,0.815 0,1.264 C 4.679,1.911 2.205,1.742 -0.227,1.246 -0.3,0.706 -0.268,0.255 0,0"
             style="fill:#3f5461;fill-opacity:1;fill-rule:nonzero;stroke:none"
             id="path40129" />
        </g>
        <g
           id="g40131"
           transform="translate(322.8467,40.1423)">
          <path
             d="m 0,0 c 2.074,0.506 5.489,0.673 7.863,0.386 0.239,0.444 0.271,0.868 0,1.26 C 5.359,1.815 2.271,1.795 -0.233,1.283 -0.311,0.705 -0.247,0.264 0,0"
             style="fill:#3f5461;fill-opacity:1;fill-rule:nonzero;stroke:none"
             id="path40133" />
        </g>
        <g
           id="g40135"
           transform="translate(290.1357,96.111)">
          <path
             d="m 0,0 c -0.013,16.309 1.988,41.688 3.938,55.306 l 31.421,-1.22 c 2.097,-5.305 3.501,-8.601 3.899,-19.882 0.737,-20.934 1.163,-37.165 1.163,-37.165 0,0 -1.499,-1.831 -8.402,-2.996 -4.667,-0.788 -9.286,0.585 -9.286,0.585 -1.254,10.737 -2.892,24.025 -2.892,24.025 L 16.933,-1.673 C 12.305,-2.436 3.58,-1.967 0,0"
             style="fill:#33414b;fill-opacity:1;fill-rule:nonzero;stroke:none"
             id="path40137" />
        </g>
        <g
           id="g40139"
           transform="translate(309.9766,114.7643)">
          <path
             d="m 0,0 -1.585,13.355 c 0,0 -6.863,1.436 -10.495,6.054 0,0 1.186,-5.359 8.374,-7.842 L -1.764,0.081 -2.908,-20.326 Z"
             style="fill:#252d33;fill-opacity:1;fill-rule:nonzero;stroke:none"
             id="path40141" />
        </g>
        <g
           id="g40143"
           transform="translate(304.0049,190.5846)">
          <path
             d="m 0,0 c -4.498,1.295 -6.465,1.456 -12.008,1.947 -6.654,0.59 -19.892,1.396 -22.672,0.342 -2.778,-1.053 -3.341,-1.8 -3.134,-2.886 0.208,-1.086 9.267,-6.599 9.267,-6.599 0,0 10.89,-1.876 16.639,-3.161 5.586,-1.249 5.543,-3.163 5.543,-3.163 z"
             style="fill:#f794a4;fill-opacity:1;fill-rule:nonzero;stroke:none"
             id="path40145" />
        </g>
        <g
           id="g40147"
           transform="translate(278.4136,190.0729)">
          <path
             d="M 0,0 2.442,-7.644 C 3.977,-7.923 5.696,-8.24 7.405,-8.567 5.7,-4.937 2.332,-0.943 0,0"
             style="fill:#f47889;fill-opacity:1;fill-rule:nonzero;stroke:none"
             id="path40149" />
        </g>
        <g
           id="g40151"
           transform="translate(294.4917,162.8395)">
          <path
             d="m 0,0 -1.551,-17.884 c 0.829,-3.157 5.737,-7.084 12.118,-8.812 9.596,-2.6 20.134,-1.97 23.73,2.98 -0.853,7.413 -2.959,11.664 -3.116,17.987 l 2.163,13.631 c 0,0 -2.224,4.68 -1.261,14.324 L 9.513,27.745 C 7.592,27.366 2.445,21.639 -1.214,16.404 -4.581,11.589 -4.359,5.234 0,0"
             style="fill:#3e885c;fill-opacity:1;fill-rule:nonzero;stroke:none"
             id="path40153" />
        </g>
        <g
           id="g40155">
          <g
             id="g40157" />
          <g
             id="g40169">
            <g
               clip-path="url(#clipPath40161)"
               opacity="0.300003"
               id="g40167">
              <g
                 transform="translate(294.4917,162.8395)"
                 id="g40165">
                <path
                   d="m 0,0 -1.551,-17.884 c 0.829,-3.157 5.737,-7.084 12.118,-8.812 9.596,-2.6 20.134,-1.97 23.73,2.98 -0.853,7.413 -2.959,11.664 -3.116,17.987 l 2.163,13.631 c 0,0 -2.224,4.68 -1.261,14.324 L 9.513,27.745 C 7.592,27.366 2.445,21.639 -1.214,16.404 -4.581,11.589 -4.359,5.234 0,0"
                   style="fill:#100f0d;fill-opacity:1;fill-rule:nonzero;stroke:none"
                   id="path40163" />
              </g>
            </g>
          </g>
        </g>
        <g
           id="g40171"
           transform="translate(307.1748,191.8805)">
          <path
             d="m 0,0 c -0.922,1.232 -2.422,0.934 -4.612,3.722 -3.047,3.878 -4.552,13.134 0.843,17.428 1.734,7.398 10.591,8.375 17.612,6.159 6.855,-2.163 9.008,-10.566 6.083,-15.177 z"
             style="fill:#252d33;fill-opacity:1;fill-rule:nonzero;stroke:none"
             id="path40173" />
        </g>
        <g
           id="g40175"
           transform="translate(306.8877,192.6657)">
          <path
             d="m 0,0 c -1.283,-2.057 -2.472,-3.134 -4.937,-3.521 0.038,-2.17 -1.188,-3.285 -3.146,-3.909 0.051,-1.933 -0.71,-3.261 -2.457,-4.084 0.264,-1.758 -0.43,-3.052 -1.631,-4.299 0.894,-1.783 1.362,-3.412 0.355,-5.211 0.643,-0.819 1.087,-1.14 1.208,-2.379 0.121,-1.24 -0.547,-3.076 -1.949,-3.619 0.338,0.83 0.752,1.261 -0.055,2.213 -0.806,0.952 -1.519,2.121 -0.579,3.483 -2.105,1.342 -1.769,3.673 -1.202,5.737 -1.126,2.095 -0.67,3.867 1.168,5.297 -0.612,2.29 0.345,3.811 2.476,4.642 -0.733,2.123 0.914,3.654 2.493,4.736 -0.43,3.846 2.237,5.906 5.519,7.108 C -1.805,4.135 -0.886,2.08 0,0"
             style="fill:#252d33;fill-opacity:1;fill-rule:nonzero;stroke:none"
             id="path40177" />
        </g>
        <g
           id="g40179"
           transform="translate(302.0425,203.3493)">
          <path
             d="m 0,0 c 0.979,1.047 2.584,1.108 3.423,-0.151 0.283,-0.425 0.452,-0.917 0.726,-1.348 0.274,-0.432 0.701,-0.818 1.211,-0.837 0.387,-0.015 0.818,0.147 1.021,0.477 0.283,0.462 0.288,1.044 0.358,1.424 1.254,6.814 3.434,8.853 8.143,7.293 2.318,1.843 3.625,2.588 6.145,2.188 2.75,-0.437 4.596,-1.846 3.897,-10.863 -0.546,-7.046 -2.769,-9.853 -4.47,-10.787 -1.193,-0.655 -2.862,-0.667 -5.21,-0.338 v -4.015 c 0,0 -1,-4.949 -11.388,-6.966 -0.317,2.083 -0.066,5.256 0.946,7.463 v 10.611 c 0,0 -1.664,-1.74 -3.57,-0.17 C -0.743,-4.392 -1.461,-1.562 0,0"
             style="fill:#f794a4;fill-opacity:1;fill-rule:nonzero;stroke:none"
             id="path40181" />
        </g>
        <g
           id="g40183"
           transform="translate(316.9248,210.2077)">
          <path
             d="m 0,0 c -2.058,-1.456 -2.733,-6.442 -5.137,-7.655 -3.92,-1.978 -6.322,0.645 -6.322,0.645 0,0 3.002,-1.106 4.972,0.505 2.443,2 1.338,5.279 4.198,7.712 z"
             style="fill:#252d33;fill-opacity:1;fill-rule:nonzero;stroke:none"
             id="path40185" />
        </g>
        <g
           id="g40187"
           transform="translate(316.9585,202.6247)">
          <path
             d="m 0,0 c 0.035,-0.57 -0.404,-1.074 -0.981,-1.125 -0.578,-0.052 -1.074,0.37 -1.108,0.94 -0.035,0.571 0.404,1.075 0.982,1.126 C -0.53,0.992 -0.035,0.57 0,0"
             style="fill:#252d33;fill-opacity:1;fill-rule:nonzero;stroke:none"
             id="path40189" />
        </g>
        <g
           id="g40191"
           transform="translate(325.395,205.0798)">
          <path
             d="M 0,0 -2.414,-0.616 C -2.611,0.049 -2.23,0.727 -1.563,0.897 -0.897,1.067 -0.197,0.665 0,0"
             style="fill:#252d33;fill-opacity:1;fill-rule:nonzero;stroke:none"
             id="path40193" />
        </g>
        <g
           id="g40195"
           transform="translate(317.2051,204.2907)">
          <path
             d="m 0,0 -2.338,0.861 c 0.215,0.66 0.913,1.002 1.559,0.764 C -0.134,1.388 0.215,0.659 0,0"
             style="fill:#252d33;fill-opacity:1;fill-rule:nonzero;stroke:none"
             id="path40197" />
        </g>
        <g
           id="g40199"
           transform="translate(317.1421,196.2975)">
          <path
             d="M 0,0 1.911,-0.719 C 1.73,-1.259 1.134,-1.574 0.504,-1.275 -0.004,-1.034 -0.18,-0.539 0,0"
             style="fill:#f47889;fill-opacity:1;fill-rule:nonzero;stroke:none"
             id="path40201" />
        </g>
        <g
           id="g40203"
           transform="translate(325.1719,202.6217)">
          <path
             d="m 0,0 c 0.034,-0.552 -0.391,-1.039 -0.949,-1.089 -0.558,-0.049 -1.037,0.359 -1.071,0.91 -0.034,0.553 0.391,1.04 0.948,1.089 C -0.514,0.959 -0.034,0.552 0,0"
             style="fill:#252d33;fill-opacity:1;fill-rule:nonzero;stroke:none"
             id="path40205" />
        </g>
        <g
           id="g40207"
           transform="translate(319.7266,204.1462)">
          <path
             d="m 0,0 -0.296,-6.451 3.498,0.346 z"
             style="fill:#f47889;fill-opacity:1;fill-rule:nonzero;stroke:none"
             id="path40209" />
        </g>
        <g
           id="g40211"
           transform="translate(317.2861,190.4069)">
          <path
             d="m 0,0 c -2.473,0.456 -7.415,2.516 -8.257,4.5 0,0 -0.155,-1.779 1.657,-3.238 C -4.47,-0.455 0,-1.406 0,-1.406 Z"
             style="fill:#f47889;fill-opacity:1;fill-rule:nonzero;stroke:none"
             id="path40213" />
        </g>
        <g
           id="g40215"
           transform="translate(328.353,208.3473)">
          <path
             d="m 0,0 c -0.031,0.011 -0.061,0.021 -0.092,0.031 -5.34,2.094 -12.241,2.01 -18.193,0.115 -0.193,-0.056 -0.388,-0.125 -0.582,-0.189 l -0.006,10e-4 c -4.982,-1.469 -8.725,-5.337 -9.464,-6.294 C -29.936,-1.032 -29.143,8.979 -17.347,12 -9.25,14.073 -3.793,10.313 -1.703,6.659 -0.72,4.94 -0.09,1.169 0,0"
             style="fill:#3e885c;fill-opacity:1;fill-rule:nonzero;stroke:none"
             id="path40217" />
        </g>
        <g
           id="g40219"
           transform="translate(309.5024,209.401)">
          <path
             d="M 0,0 C 0.295,0.206 1.881,2.844 6.741,4.8 9.74,6.008 15.56,5.456 18.161,5.132 22.717,4.565 23.702,3.477 23.687,2.799 23.683,2.638 23.667,1.893 23.67,1.723 23.673,1.553 23.613,1.407 23.528,1.301 22.732,0.339 18.852,-1.056 18.852,-1.056 13.319,1.141 6.097,0.993 -0.013,-1.098 Z"
             style="fill:#3e885c;fill-opacity:1;fill-rule:nonzero;stroke:none"
             id="path40221" />
        </g>
        <g
           id="g40223">
          <g
             id="g40225" />
          <g
             id="g40237">
            <g
               clip-path="url(#clipPath40229)"
               opacity="0.149994"
               id="g40235">
              <g
                 transform="translate(309.5024,209.401)"
                 id="g40233">
                <path
                   d="M 0,0 C 0.295,0.206 1.881,2.844 6.741,4.8 9.74,6.008 15.56,5.456 18.161,5.132 22.717,4.565 23.702,3.477 23.687,2.799 23.683,2.638 23.667,1.893 23.67,1.723 23.673,1.553 23.613,1.407 23.528,1.301 22.732,0.339 18.852,-1.056 18.852,-1.056 13.319,1.141 6.097,0.993 -0.013,-1.098 Z"
                   style="fill:#100f0d;fill-opacity:1;fill-rule:nonzero;stroke:none"
                   id="path40231" />
              </g>
            </g>
          </g>
        </g>
        <g
           id="g40239"
           transform="translate(309.4893,208.3034)">
          <path
             d="m 0,0 c 6.11,2.091 13.333,2.238 18.865,0.042 0,0 3.88,1.395 4.676,2.356 0.428,0.534 0.256,2.033 -5.38,2.734 C 15.56,5.456 9.74,6.008 6.741,4.8 1.881,2.844 0.295,0.207 0,0"
             style="fill:#3e885c;fill-opacity:1;fill-rule:nonzero;stroke:none"
             id="path40241" />
        </g>
        <g
           id="g40243">
          <g
             id="g40245" />
          <g
             id="g40257">
            <g
               clip-path="url(#clipPath40249)"
               opacity="0.300003"
               id="g40255">
              <g
                 transform="translate(309.4893,208.3034)"
                 id="g40253">
                <path
                   d="m 0,0 c 6.11,2.091 13.333,2.238 18.865,0.042 0,0 3.88,1.395 4.676,2.356 0.428,0.534 0.256,2.033 -5.38,2.734 C 15.56,5.456 9.74,6.008 6.741,4.8 1.881,2.844 0.295,0.207 0,0"
                   style="fill:#100f0d;fill-opacity:1;fill-rule:nonzero;stroke:none"
                   id="path40251" />
              </g>
            </g>
          </g>
        </g>
        <g
           id="g40259"
           transform="translate(298.6597,173.3884)">
          <path
             d="m 0,0 c -0.331,0.187 -1.98,1.146 -1.98,1.146 0,0 -0.555,0.014 -0.528,-0.851 0.028,-0.865 1.095,-1.446 1.095,-1.446 z"
             style="fill:#f47889;fill-opacity:1;fill-rule:nonzero;stroke:none"
             id="path40261" />
        </g>
        <g
           id="g40263"
           transform="translate(326.5752,185.0651)">
          <path
             d="m 0,0 c 5.551,-1.677 6.434,-3.169 8.605,-8.801 2.069,-5.363 6.229,-18.666 6.229,-18.666 4.038,-5.033 9.004,-13.394 13.432,-15.662 l -2.9,-8.257 c -0.613,0.615 -2.931,1.037 -4.224,4.106 -0.5,1.128 -10.137,7.791 -11.885,9.259 -3.21,2.693 -3.213,2.919 -4.664,5.977 -1.743,3.675 -8.108,17.721 -8.108,17.721 0,0 -2.458,9.485 3.515,14.323"
             style="fill:#f794a4;fill-opacity:1;fill-rule:nonzero;stroke:none"
             id="path40265" />
        </g>
        <g
           id="g40267"
           transform="translate(353.3765,142.068)">
          <path
             d="m 0,0 c 2.07,-0.074 3.252,-0.696 4.665,-1.512 1.411,-0.815 6.175,-3.882 6.868,-4.295 0.693,-0.412 1.304,-1.471 -1.189,-1.192 -1.367,0.153 -4.675,1.674 -4.675,1.674 0,0 0.206,-3.042 -1.81,-4.207 -2.017,-1.164 -4.252,-0.735 -4.876,0 -0.625,0.734 -0.365,4.431 -0.365,4.431 z"
             style="fill:#f47889;fill-opacity:1;fill-rule:nonzero;stroke:none"
             id="path40269" />
        </g>
        <g
           id="g40271"
           transform="translate(334.2959,83.2594)">
          <path
             d="M 0,0 -37.726,91.57 0.046,139.637 0.577,139.221 -36.953,91.463 0.623,0.257 Z"
             style="fill:#e3e2e0;fill-opacity:1;fill-rule:nonzero;stroke:none"
             id="path40273" />
        </g>
        <g
           id="g40275"
           transform="translate(334.3799,222.7926)">
          <path
             d="m 0,0 c -2.355,-1.589 -2.738,-4.742 -2.738,-7.521 0,-7.746 6.054,-16.192 9.236,-22.515 3.452,-6.862 8.16,-14.898 11.116,-26.193 l -0.818,0.473 c -2.956,11.294 -7.664,19.329 -11.116,26.192 -3.181,6.323 -9.236,14.77 -9.236,22.515 0,2.778 0.383,5.932 2.739,7.522 z"
             style="fill:#33414b;fill-opacity:1;fill-rule:nonzero;stroke:none"
             id="path40277" />
        </g>
        <g
           id="g40279"
           transform="translate(334.3799,222.7926)">
          <path
             d="m 0,0 c -2.355,-1.589 -2.738,-4.742 -2.738,-7.521 0,-7.746 6.054,-16.192 9.236,-22.515 3.452,-6.862 8.16,-14.898 11.116,-26.193 l 2.738,1.582 c -2.956,11.294 -7.664,19.33 -11.116,26.191 -3.181,6.324 -9.26,13.829 -10.332,21.5 -0.3,2.146 -0.075,6.051 2.281,7.641 z"
             style="fill:#e3e2e0;fill-opacity:1;fill-rule:nonzero;stroke:none"
             id="path40281" />
        </g>
        <g
           id="g40283"
           transform="translate(334.7471,223.9489)">
          <path
             d="m 0,0 -1.185,-0.684 0.818,-0.472 1.184,0.684 z"
             style="fill:#3f5461;fill-opacity:1;fill-rule:nonzero;stroke:none"
             id="path40285" />
        </g>
        <g
           id="g40287"
           transform="translate(333.5625,83.6462)">
          <path
             d="m 0,0 c -2.355,4.309 -2.738,7.904 -2.738,10.683 0,7.745 6.054,9.201 9.236,11.851 3.452,2.876 8.16,5.475 11.116,13.355 l 0.818,-0.472 C 15.475,27.536 10.767,24.937 7.315,22.062 4.134,19.411 -1.921,17.956 -1.921,10.211 c 0,-2.778 0.383,-6.374 2.738,-10.684 z"
             style="fill:#33414b;fill-opacity:1;fill-rule:nonzero;stroke:none"
             id="path40289" />
        </g>
        <g
           id="g40291"
           transform="translate(354.7319,120.6442)">
          <path
             d="m 0,0 c -2.956,-7.881 -7.664,-10.479 -11.116,-13.355 -3.181,-2.651 -10.487,-5.541 -10.487,-13.052 0,-2.779 0.08,-6.071 2.436,-10.379 l -1.185,-0.685 c -2.356,4.31 -2.738,7.906 -2.738,10.684 0,7.745 6.054,9.2 9.236,11.85 3.452,2.876 8.16,5.475 11.116,13.356 z"
             style="fill:#e3e2e0;fill-opacity:1;fill-rule:nonzero;stroke:none"
             id="path40293" />
        </g>
        <g
           id="g40295"
           transform="translate(358.0229,137.1432)">
          <path
             d="m 0,0 c 0.796,1.548 1.27,2.304 1.27,4.618 0,2.315 -0.474,3.618 -1.27,6.085 -0.795,2.466 -0.2,4.335 0.134,5.994 0.334,1.659 0.586,3.025 -0.461,7.417 -1.076,4.517 -2.602,8.47 -3.416,8.148 -0.014,-0.005 -0.028,-0.012 -0.041,-0.02 -0.548,-0.323 -2.723,-1.572 -2.735,-1.58 -0.551,-0.317 -0.345,-2.524 -0.163,-5.423 0.149,-2.358 -0.367,-4.521 -1.37,-4.971 0,0 0.975,-1.619 1.445,-5.379 0.614,-4.93 -0.375,-6.661 -0.375,-6.661 0,0 1.905,-1.048 1.905,-3.107 0,-2.058 -1.905,-0.906 -1.905,-0.906 0,0 0.989,-2.874 0.375,-7.094 -0.47,-3.22 -1.445,-3.712 -1.445,-3.712 1.003,-1.608 1.519,-4.366 1.37,-6.554 -0.186,-2.748 -0.398,-4.745 0.201,-5.672 0.252,-0.391 0.572,-0.451 0.927,-0.249 0.504,0.286 2.385,1.379 2.74,1.582 0.789,0.45 1.745,2.192 2.487,4.45 1.047,3.184 0.795,4.841 0.461,6.886 C -0.2,-4.104 -0.795,-1.547 0,0"
             style="fill:#3e885c;fill-opacity:1;fill-rule:nonzero;stroke:none"
             id="path40297" />
        </g>
        <g
           id="g40299">
          <g
             id="g40301" />
          <g
             id="g40313">
            <g
               clip-path="url(#clipPath40305)"
               opacity="0.199997"
               id="g40311">
              <g
                 transform="translate(358.0229,137.1432)"
                 id="g40309">
                <path
                   d="m 0,0 c 0.796,1.548 1.27,2.304 1.27,4.618 0,2.315 -0.474,3.618 -1.27,6.085 -0.795,2.466 -0.2,4.335 0.134,5.994 0.334,1.659 0.586,3.025 -0.461,7.417 -1.076,4.517 -2.602,8.47 -3.416,8.148 -0.014,-0.005 -0.028,-0.012 -0.041,-0.02 -0.548,-0.323 -2.723,-1.572 -2.735,-1.58 -0.551,-0.317 -0.345,-2.524 -0.163,-5.423 0.149,-2.358 -0.367,-4.521 -1.37,-4.971 0,0 0.975,-1.619 1.445,-5.379 0.614,-4.93 -0.375,-6.661 -0.375,-6.661 0,0 1.905,-1.048 1.905,-3.107 0,-2.058 -1.905,-0.906 -1.905,-0.906 0,0 0.989,-2.874 0.375,-7.094 -0.47,-3.22 -1.445,-3.712 -1.445,-3.712 1.003,-1.608 1.519,-4.366 1.37,-6.554 -0.186,-2.748 -0.398,-4.745 0.201,-5.672 0.252,-0.391 0.572,-0.451 0.927,-0.249 0.504,0.286 2.385,1.379 2.74,1.582 0.789,0.45 1.745,2.192 2.487,4.45 1.047,3.184 0.795,4.841 0.461,6.886 C -0.2,-4.104 -0.795,-1.547 0,0"
                   style="fill:#100f0d;fill-opacity:1;fill-rule:nonzero;stroke:none"
                   id="path40307" />
              </g>
            </g>
          </g>
        </g>
        <g
           id="g40315">
          <g
             id="g40317" />
          <g
             id="g40329">
            <g
               clip-path="url(#clipPath40321)"
               opacity="0.199997"
               id="g40327">
              <g
                 transform="translate(351.9946,147.5944)"
                 id="g40325">
                <path
                   d="m 0,0 5.657,3.266 c 0.069,1.097 0.322,2.072 0.505,2.98 0.216,1.074 0.396,2.03 0.213,3.758 L 0,6.323 Z"
                   style="fill:#100f0d;fill-opacity:1;fill-rule:nonzero;stroke:none"
                   id="path40323" />
              </g>
            </g>
          </g>
        </g>
        <g
           id="g40331">
          <g
             id="g40333" />
          <g
             id="g40345">
            <g
               clip-path="url(#clipPath40337)"
               opacity="0.199997"
               id="g40343">
              <g
                 transform="translate(358.8633,138.9128)"
                 id="g40341">
                <path
                   d="m 0,0 -6.869,-3.966 v -6.323 l 5.978,3.451 c -0.311,1.806 -0.61,3.784 0.051,5.068 0.347,0.675 0.628,1.202 0.84,1.77"
                   style="fill:#100f0d;fill-opacity:1;fill-rule:nonzero;stroke:none"
                   id="path40339" />
              </g>
            </g>
          </g>
        </g>
        <g
           id="g40347"
           transform="translate(352.9458,142.2643)">
          <path
             d="m 0,0 c 0,-2.058 -1.905,-0.906 -1.905,-0.906 0,0 0.989,-2.874 0.375,-7.094 -0.47,-3.22 -1.445,-3.712 -1.445,-3.712 1.003,-1.608 1.519,-4.366 1.371,-6.554 -0.187,-2.748 -0.398,-4.745 0.2,-5.672 0.814,-1.262 2.34,0.929 3.416,4.203 1.047,3.183 0.795,4.839 0.461,6.884 -0.334,2.046 -0.93,4.602 -0.134,6.149 0.796,1.548 1.27,2.304 1.27,4.618 0,2.315 -0.474,3.618 -1.27,6.085 -0.796,2.466 -0.2,4.335 0.134,5.994 0.334,1.659 0.586,3.025 -0.461,7.417 -1.076,4.517 -2.602,8.47 -3.416,8.148 -0.598,-0.237 -0.387,-2.479 -0.2,-5.442 0.148,-2.358 -0.368,-4.521 -1.371,-4.972 0,0 0.975,-1.618 1.445,-5.378 C -0.916,4.838 -1.905,3.106 -1.905,3.106 -1.905,3.106 0,2.059 0,0"
             style="fill:#3e885c;fill-opacity:1;fill-rule:nonzero;stroke:none"
             id="path40349" />
        </g>
        <g
           id="g40351"
           transform="translate(302.7446,171.3327)">
          <path
             d="m 0,0 -2.793,4.838 c -1.119,0.646 -1.734,-2.225 0,-3.226 z"
             style="fill:#3e885c;fill-opacity:1;fill-rule:nonzero;stroke:none"
             id="path40353" />
        </g>
        <g
           id="g40355">
          <g
             id="g40357" />
          <g
             id="g40369">
            <g
               clip-path="url(#clipPath40361)"
               opacity="0.5"
               id="g40367">
              <g
                 transform="translate(302.7446,171.3327)"
                 id="g40365">
                <path
                   d="m 0,0 -2.793,4.838 c -1.119,0.646 -1.734,-2.225 0,-3.226 z"
                   style="fill:#ffffff;fill-opacity:1;fill-rule:nonzero;stroke:none"
                   id="path40363" />
              </g>
            </g>
          </g>
        </g>
        <g
           id="g40371"
           transform="translate(302.7065,171.4294)">
          <path
             d="m 0,0 -2.738,-1.581 c -1.178,0.681 -0.86,3.658 0,3.162 z"
             style="fill:#3e885c;fill-opacity:1;fill-rule:nonzero;stroke:none"
             id="path40373" />
        </g>
        <g
           id="g40375"
           transform="translate(365.5161,134.777)">
          <path
             d="m 0,0 -71.193,41.104 0.338,0.584 L 0.337,0.584 Z"
             style="fill:#33414b;fill-opacity:1;fill-rule:nonzero;stroke:none"
             id="path40377" />
        </g>
        <g
           id="g40379"
           transform="translate(295.0542,176.1725)">
          <path
             d="m 0,0 c 0,-0.311 -0.252,-0.562 -0.562,-0.562 -0.311,0 -0.563,0.251 -0.563,0.562 0,0.311 0.252,0.562 0.563,0.562 C -0.252,0.562 0,0.311 0,0"
             style="fill:#3f5461;fill-opacity:1;fill-rule:nonzero;stroke:none"
             id="path40381" />
        </g>
        <g
           id="g40383"
           transform="translate(365.1533,135.3757)">
          <path
             d="m 0,0 c -0.929,-0.066 -0.668,-1.636 -0.668,-1.636 l 4.55,-0.605 z"
             style="fill:#3e885c;fill-opacity:1;fill-rule:nonzero;stroke:none"
             id="path40385" />
        </g>
        <g
           id="g40387">
          <g
             id="g40389" />
          <g
             id="g40401">
            <g
               clip-path="url(#clipPath40393)"
               opacity="0.199997"
               id="g40399">
              <g
                 transform="translate(365.1533,135.3757)"
                 id="g40397">
                <path
                   d="m 0,0 c -0.929,-0.066 -0.668,-1.636 -0.668,-1.636 l 4.55,-0.605 z"
                   style="fill:#100f0d;fill-opacity:1;fill-rule:nonzero;stroke:none"
                   id="path40395" />
              </g>
            </g>
          </g>
        </g>
        <g
           id="g40403"
           transform="translate(364.4849,137.7848)">
          <path
             d="M 0,0 C 0,0 -0.26,-1.271 0.668,-2.409 L 4.55,-4.65 Z"
             style="fill:#3e885c;fill-opacity:1;fill-rule:nonzero;stroke:none"
             id="path40405" />
        </g>
        <g
           id="g40407"
           transform="translate(358.7876,131.9323)">
          <path
             d="m 0,0 c 0.234,-0.44 0.223,-2.269 0,-2.768 -0.223,-0.499 -1.511,-1.122 -2.57,-1.454 -1.06,-0.333 -1.486,-0.556 -1.429,0.251 0.057,0.809 1.121,1.183 1.784,1.474 0.662,0.29 0.7,0.574 0.65,1.014 0,0 0.521,1.362 1.565,1.483"
             style="fill:#f47889;fill-opacity:1;fill-rule:nonzero;stroke:none"
             id="path40409" />
        </g>
        <g
           id="g40411"
           transform="translate(359.0459,136.7428)">
          <path
             d="m 0,0 c 0.432,-0.221 0.924,-1.502 0.387,-2.375 0,0 0.522,-0.497 -0.234,-1.825 -0.756,-1.328 -2.172,-2.249 -2.504,-2.446 -0.332,-0.195 -2.907,-0.064 -3.918,0 -1.01,0.066 -1.731,0.991 -0.85,1.718 0,0 -1.268,0.223 -1.758,0.76 -0.49,0.538 0.196,1.532 1.76,1.663 1.565,0.13 2.552,-0.201 4.14,0.195 1.59,0.397 2.302,1.099 2.977,2.31"
             style="fill:#f794a4;fill-opacity:1;fill-rule:nonzero;stroke:none"
             id="path40413" />
        </g>
        <g
           id="g40415"
           transform="translate(356.3394,131.3522)">
          <path
             d="m 0,0 c 1.746,0.642 2.448,2.327 2.448,2.327 0,0 -1.485,-1.465 -2.629,-1.864 -1.144,-0.401 -3.211,-0.143 -4.231,0 C -4.64,0.275 -4.757,0.074 -4.794,-0.121 -4.769,-0.125 -1.739,-0.64 0,0"
             style="fill:#f47889;fill-opacity:1;fill-rule:nonzero;stroke:none"
             id="path40417" />
        </g>
        <g
           id="g40419"
           transform="translate(284.7954,180.8581)">
          <path
             d="m 0,0 c 1.892,-2.318 3.478,-3.282 4.475,-2.934 0.996,0.349 1.469,0.928 3.107,0.841 1.638,-0.088 2.798,-0.225 4.195,-0.321 1.396,-0.096 1.93,0.036 1.93,0.036 0,0 0.579,-0.635 -0.483,-1.763 -1.061,-1.128 -2.175,-0.611 -3.425,-0.693 -1.25,-0.082 -0.521,-0.685 0.343,-1.549 0.863,-0.863 1.632,-1.55 1.847,-1.57 0.827,-0.077 1.875,0.483 1.875,0.483 0,0 0.977,-0.601 1.001,-1.128 0.023,-0.525 0.048,-0.917 -1.351,-1.544 0,0 0.627,-1.012 -0.145,-1.736 0,0 1.054,-1.938 -1.21,-2.199 0,0 0.04,-0.311 -0.069,-0.622 -0.085,-0.243 -0.236,-0.529 -1.121,-0.596 -2.239,-0.169 -4.094,-0.291 -4.556,-0.181 -0.605,0.146 -3.61,2.971 -4.864,4.225 -1.255,1.255 -3.427,3.052 -5.115,4.349 -1.688,1.296 -8.213,6.01 -10.351,8.045 -3,2.856 -3.864,5.378 -4.349,6.55 -0.728,1.764 -0.598,3.628 3.392,3.38 2.202,-0.136 5.491,0.419 7.91,-1.346 C -4.815,8.157 -1.158,1.419 0,0"
             style="fill:#f794a4;fill-opacity:1;fill-rule:nonzero;stroke:none"
             id="path40421" />
        </g>
        <g
           id="g40423"
           transform="translate(298.3091,170.7165)">
          <path
             d="m 0,0 c -1.208,-0.521 -2.334,-0.646 -2.77,-0.621 -0.436,0.026 -1.852,1.116 -1.852,1.116 0,0 1.344,-1.671 1.707,-1.707 0.173,-0.017 2.469,0.366 3.123,0.658 C 0.132,-0.286 0,0 0,0"
             style="fill:#f47889;fill-opacity:1;fill-rule:nonzero;stroke:none"
             id="path40425" />
        </g>
        <g
           id="g40427"
           transform="translate(298.1646,168.9801)">
          <path
             d="m 0,0 c -0.466,-0.51 -3.64,-0.736 -4.173,-0.575 -0.51,0.153 -0.714,0.45 -0.714,0.45 0,0 0.41,-0.894 1.157,-0.932 1.065,-0.054 2.676,0.152 3.206,0.414 C 0,-0.383 0,0 0,0"
             style="fill:#f47889;fill-opacity:1;fill-rule:nonzero;stroke:none"
             id="path40429" />
        </g>
        <g
           id="g40431"
           transform="translate(296.9546,166.78)">
          <path
             d="m 0,0 c -0.567,-0.087 -2.656,-0.243 -3.144,-0.185 -0.487,0.059 -0.741,0.086 -0.741,0.086 0,0 0.405,-0.495 1.422,-0.495 1.018,0 2.437,0.138 2.437,0.138 C 0.006,-0.305 0.015,-0.153 0,0"
             style="fill:#f47889;fill-opacity:1;fill-rule:nonzero;stroke:none"
             id="path40433" />
        </g>
      </g>
    </g>
  </g>
</svg>
