<?xml version="1.0" encoding="UTF-8" standalone="no"?>
<!-- Created with Inkscape (http://www.inkscape.org/) -->

<svg
   width="323mm"
   height="210mm"
   viewBox="0 0 323 210"
   version="1.1"
   id="svg22161"
   inkscape:version="1.1 (c68e22c387, 2021-05-23)"
   sodipodi:docname="bumper.svg"
   xmlns:inkscape="http://www.inkscape.org/namespaces/inkscape"
   xmlns:sodipodi="http://sodipodi.sourceforge.net/DTD/sodipodi-0.dtd"
   xmlns="http://www.w3.org/2000/svg"
   xmlns:svg="http://www.w3.org/2000/svg"
   xmlns:rdf="http://www.w3.org/1999/02/22-rdf-syntax-ns#"
   xmlns:cc="http://creativecommons.org/ns#"
   xmlns:dc="http://purl.org/dc/elements/1.1/">
  <defs
     id="defs22156">
    <clipPath
       clipPathUnits="userSpaceOnUse"
       id="clipPath50171">
      <path
         d="m 354.505,126.225 h 89.559 V 74.5075 h -89.559 z"
         id="path50169" />
    </clipPath>
    <clipPath
       clipPathUnits="userSpaceOnUse"
       id="clipPath50351">
      <path
         d="m 283.911,162.225 h 83.412 v -48.168 h -83.412 z"
         id="path50349" />
    </clipPath>
    <clipPath
       clipPathUnits="userSpaceOnUse"
       id="clipPath2512">
      <path
         d="M 14.0328,131.355 H 124.035 V 67.8323 H 14.0328 Z"
         id="path2510" />
    </clipPath>
  </defs>
  <sodipodi:namedview
     id="base"
     pagecolor="#ffffff"
     bordercolor="#666666"
     borderopacity="1.0"
     inkscape:pageopacity="0.0"
     inkscape:pageshadow="2"
     inkscape:zoom="0.35"
     inkscape:cx="144.28571"
     inkscape:cy="561.42857"
     inkscape:document-units="mm"
     inkscape:pagecheckerboard="0"
     showgrid="false"
     inkscape:window-width="1920"
     inkscape:window-height="1009"
     inkscape:window-x="1912"
     inkscape:window-y="-8"
     inkscape:window-maximized="1"
     inkscape:current-layer="svg22161" />
  <metadata
     id="metadata22159">
    <rdf:RDF>
      <cc:Work
         rdf:about="">
        <dc:format>image/svg+xml</dc:format>
        <dc:type
           rdf:resource="http://purl.org/dc/dcmitype/StillImage" />
      </cc:Work>
    </rdf:RDF>
  </metadata>
  <g
     id="g55847"
     transform="matrix(3.6039132,0,0,3.7243151,-521.86769,-819.8909)"
     inkscape:export-filename="C:\Users\Karmavir Joshi\g55847.png"
     inkscape:export-xdpi="96"
     inkscape:export-ydpi="96">
    <g
       id="g50165"
       transform="matrix(0.35277777,0,0,-0.35277777,45.104017,296.45715)">
      <g
         id="g50167" />
      <g
         id="g50179">
        <g
           clip-path="url(#clipPath50171)"
           id="g50177">
          <g
             transform="translate(403.1416,123.0313)"
             id="g50175">
            <path
               d="m 0,0 -43.104,-24.897 c -8.196,-4.732 -7.168,-12.997 2.295,-18.459 l 1.122,-0.648 c 9.463,-5.464 23.777,-6.057 31.973,-1.325 l 43.104,24.896 c 8.195,4.732 7.168,12.996 -2.296,18.459 l -1.122,0.648 C 22.509,4.138 8.195,4.731 0,0"
               style="fill:#ababaa;fill-opacity:1;fill-rule:nonzero;stroke:none"
               id="path50173" />
          </g>
        </g>
      </g>
    </g>
    <g
       id="g50181"
       transform="matrix(0.35277777,0,0,-0.35277777,188.5545,253.9681)">
      <path
         d="m 0,0 -40.804,-23.568 c -7.758,-4.479 -6.785,-12.302 2.173,-17.475 l 1.062,-0.612 c 8.958,-5.172 22.508,-5.734 30.266,-1.255 l 40.804,23.568 c 7.758,4.479 6.785,12.302 -2.173,17.475 l -1.062,0.612 C 21.308,3.917 7.757,4.479 0,0"
         style="fill:#221b1a;fill-opacity:1;fill-rule:nonzero;stroke:none"
         id="path50183" />
    </g>
    <g
       id="g50185"
       transform="matrix(0.35277777,0,0,-0.35277777,202.31802,255.2345)">
      <path
         d="m 0,0 c 0,0 0.994,-6.853 -0.218,-10.009 -1.213,-3.157 -52.59,-29.861 -52.59,-29.861 l -31.878,11.026 c 0,0 -0.492,4.545 -0.094,8.833 C -82.292,-20.227 0,0 0,0"
         style="fill:#221b1a;fill-opacity:1;fill-rule:nonzero;stroke:none"
         id="path50187" />
    </g>
    <g
       id="g50189"
       transform="matrix(0.35277777,0,0,-0.35277777,175.02374,265.87985)">
      <path
         d="M 0,0 1.062,-0.613 C 10.02,-5.784 23.57,-6.347 31.328,-1.867 L 72.132,21.7 c 5.195,3 6.474,7.498 4.063,11.696 -0.358,0.625 -0.798,1.242 -1.318,1.847 -0.826,0.958 -1.854,1.885 -3.082,2.756 -0.568,0.405 -1.18,0.797 -1.836,1.175 l -1.063,0.614 c -2.736,1.58 -5.903,2.731 -9.201,3.437 -4.721,1.011 -9.714,1.118 -14.11,0.28 -2.583,-0.493 -4.96,-1.311 -6.954,-2.462 l -9.704,-5.612 c -3.53,-3.003 -11.32,-6.955 -11.32,-6.955 0,0 -0.135,0.077 -0.367,0.207 L 16.503,28.257 10.36,24.711 -2.173,17.475 C -2.528,17.269 -2.865,17.058 -3.183,16.839 -3.853,16.381 -4.442,15.893 -4.95,15.383 -5.215,15.117 -5.458,14.845 -5.68,14.568 -9.263,10.091 -7.239,4.18 0,0"
         style="fill:#2b2020;fill-opacity:1;fill-rule:nonzero;stroke:none"
         id="path50191" />
    </g>
    <g
       id="g50193"
       transform="matrix(0.35277777,0,0,-0.35277777,181.43833,267.03326)">
      <path
         d="m 0,0 c 4.894,0 9.351,1.018 12.55,2.864 l 40.804,23.569 c 2.251,1.299 3.755,2.938 4.35,4.741 0.558,1.693 0.308,3.537 -0.724,5.333 -0.321,0.56 -0.72,1.119 -1.188,1.662 -0.776,0.901 -1.741,1.764 -2.867,2.561 -0.536,0.382 -1.121,0.757 -1.743,1.117 l -1.064,0.614 c -2.535,1.463 -5.597,2.605 -8.855,3.303 -2.523,0.541 -5.105,0.815 -7.673,0.815 -2.078,0 -4.084,-0.182 -5.965,-0.541 -2.536,-0.484 -4.751,-1.266 -6.582,-2.323 L 11.431,38.156 C 7.802,35.108 0.283,31.28 -0.038,31.117 l -0.569,-0.289 -0.33,0.187 -18.825,-10.869 c -0.329,-0.19 -0.643,-0.388 -0.93,-0.585 -0.601,-0.413 -1.138,-0.855 -1.598,-1.316 -0.231,-0.23 -0.446,-0.472 -0.645,-0.719 -1.244,-1.555 -1.703,-3.26 -1.362,-5.07 0.525,-2.786 2.907,-5.528 6.709,-7.723 l 1.063,-0.615 C -11.992,1.501 -5.968,0 0,0"
         style="fill:#352827;fill-opacity:1;fill-rule:nonzero;stroke:none"
         id="path50195" />
    </g>
    <g
       id="g50197"
       transform="matrix(0.35277777,0,0,-0.35277777,199.7976,257.07625)">
      <path
         d="m 0,0 -42.329,-24.434 c -5.893,-3.409 -16.194,-2.978 -22.998,0.949 l -0.038,0.018 -1.909,1.107 -2.251,1.297 c -0.064,0.038 -0.121,0.069 -0.184,0.113 -0.708,0.411 -1.347,0.853 -1.916,1.315 -4.787,3.832 -4.768,8.84 0.449,11.851 l 12.489,7.208 7.423,4.287 22.417,12.944 c 2.321,1.341 5.324,2.087 8.53,2.251 2.517,0.146 5.154,-0.076 7.683,-0.638 2.435,-0.538 4.768,-1.398 6.791,-2.568 L -1.65,13.278 C 5.16,9.352 5.9,3.401 0,0"
         style="fill:#ed1f24;fill-opacity:1;fill-rule:nonzero;stroke:none"
         id="path50199" />
    </g>
    <g
       id="g50201"
       transform="matrix(0.35277777,0,0,-0.35277777,173.28465,261.90458)">
      <path
         d="m 0,0 c 0.001,-0.007 0.002,-0.017 0.003,-0.025 0,-0.002 0.001,-0.003 0.001,-0.003 0.065,-0.576 0.333,-1.745 0.333,-1.745 l 30.985,-7.641 47.81,28.662 0.004,0.003 c 0,0 0.039,1.427 0.055,3.221 0.015,1.644 0.01,3.599 -0.065,5.04 -0.037,0.742 -0.094,1.347 -0.175,1.707 -0.004,0.018 -0.008,0.038 -0.013,0.057 l -0.003,0.011 c -0.011,0.041 -0.023,0.084 -0.035,0.126 -0.006,0.025 -0.013,0.049 -0.022,0.072 -0.006,0.03 -0.016,0.058 -0.026,0.087 -0.508,1.622 -1.81,3.57 -1.81,3.57 l -0.003,10e-4 -1.661,0.934 -9.007,5.072 -2.787,1.569 -0.004,0.002 c -0.003,0 -0.005,10e-4 -0.008,10e-4 -0.009,0.002 -0.017,0.003 -0.025,0.005 -0.422,0.086 -4.486,0.854 -10.352,0.091 C 53.125,40.809 53.056,40.801 52.987,40.79 52.735,40.757 52.233,39.753 51.975,39.713 51.521,39.476 50.4,39.651 48.392,38.472 46.953,37.626 45.185,36.58 43.184,35.393 41.67,34.494 40.023,33.516 38.286,32.48 38.06,32.347 37.832,32.212 37.604,32.075 37.47,31.319 37.283,30.529 37.023,29.769 c -0.211,-0.625 -0.474,-1.231 -0.797,-1.781 -0.201,-0.342 -0.423,-0.662 -0.673,-0.953 -0.282,-0.329 -0.649,-0.681 -1.079,-1.047 -3.531,-3.002 -11.32,-6.955 -11.32,-6.955 0,0 -0.135,0.077 -0.368,0.207 -0.43,0.24 -1.19,0.665 -2.039,1.131 -0.464,0.254 -0.955,0.522 -1.432,0.777 -0.271,-0.162 -0.542,-0.324 -0.811,-0.484 -2.056,-1.231 -4.043,-2.422 -5.9,-3.535 C 5.404,12.815 0.129,9.647 0.129,9.647 V 9.644 C 0.124,9.587 0.074,8.988 0.016,8.099 -0.037,7.286 -0.095,6.231 -0.133,5.126 -0.198,3.246 -0.2,1.224 0,0"
         style="fill:#ed1f24;fill-opacity:1;fill-rule:nonzero;stroke:none"
         id="path50203" />
    </g>
    <g
       id="g50205"
       transform="matrix(0.35277777,0,0,-0.35277777,173.33013,258.50253)">
      <path
         d="m 0,0 v 0.004 c 0.387,1.734 1.655,2.453 3.846,3.718 l 8.169,5.542 c 0.104,0.127 2.875,3.358 2.875,3.358 l 1.381,-0.114 0.636,-0.141 0.476,-0.14 c 0.398,-0.127 2.771,-1.246 3.235,-1.499 0.849,-0.466 1.609,-0.891 2.039,-1.131 0.233,-0.13 0.368,-0.207 0.368,-0.207 0,0 7.789,3.953 11.32,6.955 0.43,0.366 0.797,0.717 1.079,1.047 0.25,0.291 0.472,0.61 0.673,0.953 0.323,0.55 0.586,1.155 0.798,1.78 0.259,0.761 0.446,1.551 0.58,2.307 0.107,0.611 0.181,1.199 0.231,1.732 l 0.955,0.552 0.724,2.696 c 0,0 3.698,0.904 6.225,1.316 2.533,0.648 3.932,1.1 5.168,1.689 0.232,0.109 1.822,0.697 2.08,0.729 0.069,0.011 0.138,0.019 0.208,0.028 1.722,0.205 3.531,0.233 5.346,0.09 2.685,-0.212 5.382,-0.801 7.83,-1.758 1.03,-0.404 2.016,-0.872 2.938,-1.404 l 4.195,-2.422 c 0.688,-0.396 1.312,-0.813 1.874,-1.246 0.887,-0.682 1.62,-1.403 2.194,-2.146 0.598,-0.771 1.025,-1.563 1.28,-2.359 0.01,-0.03 0.02,-0.058 0.027,-0.087 0.008,-0.024 0.015,-0.047 0.021,-0.072 0.012,-0.042 0.024,-0.085 0.035,-0.126 l 0.003,-0.011 c 0.005,-0.02 0.009,-0.039 0.013,-0.058 0.149,-0.571 0.209,-1.143 0.175,-1.707 -0.061,-1.115 -0.477,-2.2 -1.252,-3.193 -0.62,-0.794 -1.664,-1.175 -2.585,-1.553 -1.211,-0.498 -2.459,-0.903 -3.731,-1.213 -1.366,-0.332 -2.817,-0.629 -4.227,-0.67 -0.597,-0.017 -3.066,-0.255 -3.066,-0.87 0,-0.828 -0.147,-5.405 -1.666,-7.539 -0.937,-1.315 -2.109,-2.52 -4.514,-4.135 -2.785,-1.867 -8.117,-4.684 -9.871,-5.368 -4.902,-1.91 -5.425,1.677 -6.635,0.018 -1.181,-1.619 -3.277,-2.223 -4.948,-3.188 -1.267,-0.731 -2.535,-1.463 -3.801,-2.194 -5.897,-3.404 -16.195,-2.978 -23.003,0.953 l -4.195,2.422 c -1.67,0.963 -2.973,2.049 -3.904,3.187 -0.474,0.58 -0.851,1.173 -1.131,1.772 -0.334,0.717 -0.529,1.441 -0.581,2.158 C -0.151,-1.024 -0.115,-0.507 0,0"
         style="fill:#ee2d24;fill-opacity:1;fill-rule:nonzero;stroke:none"
         id="path50207" />
    </g>
    <g
       id="g50209"
       transform="matrix(0.35277777,0,0,-0.35277777,199.79103,252.28482)">
      <path
         d="m 0,0 -0.348,-0.196 -0.746,-0.43 h -0.007 l -1.802,-1.043 -12.077,0.594 -19.021,-18.546 -6.311,-3.649 -8.151,-4.705 c -4.281,-2.472 -11.54,-2.358 -16.807,0.14 -0.398,0.189 -0.778,0.392 -1.151,0.606 l -0.518,0.297 -1.455,0.835 c -0.449,0.26 -0.866,0.532 -1.246,0.817 -0.607,0.442 -1.125,0.903 -1.555,1.384 -0.506,0.563 -0.892,1.145 -1.158,1.739 -0.347,0.759 -0.486,1.537 -0.417,2.283 0.133,1.562 1.151,3.028 3.086,4.147 l 8.429,4.864 6.128,3.541 0.739,0.424 c 0.847,-0.468 1.606,-0.892 2.036,-1.132 0.234,-0.127 0.367,-0.203 0.367,-0.203 0,0 7.791,3.952 11.325,6.956 0.431,0.36 0.797,0.715 1.076,1.044 0.252,0.29 0.474,0.613 0.676,0.954 0.323,0.55 0.582,1.157 0.797,1.777 l 0.632,0.366 7.531,4.351 5.736,3.313 2.99,1.727 c 1.284,0.74 2.89,1.201 4.629,1.385 1.606,0.171 3.326,0.107 5.002,-0.184 0.013,0 0.019,0 0.025,-0.006 1.157,-0.202 2.29,-0.512 3.352,-0.936 h 0.006 c 0.632,-0.252 1.246,-0.55 1.815,-0.879 l 0.613,-0.354 2.491,-1.435 2.22,-1.278 C -1.056,8.562 -1.037,8.55 -1.024,8.537 0.335,7.746 1.315,6.823 1.903,5.875 2.15,5.477 2.327,5.065 2.434,4.66 2.896,2.94 2.105,1.221 0,0"
         style="fill:#ef3423;fill-opacity:1;fill-rule:nonzero;stroke:none"
         id="path50211" />
    </g>
    <g
       id="g50213"
       transform="matrix(0.35277777,0,0,-0.35277777,193.7325,256.65838)">
      <path
         d="m 0,0 c -0.4,-0.452 -0.907,-0.796 -1.419,-1.116 -0.873,-0.546 -1.783,-1.034 -2.719,-1.463 -1.049,-0.48 -2.131,-0.882 -3.216,-1.275 -3.009,-1.088 -6.046,-2.1 -9.107,-3.034 -1.291,-0.394 -2.54,-0.629 -3.691,0.17 -0.477,0.331 -0.976,0.632 -1.47,0.936 -2.331,1.433 -4.698,2.806 -7.063,4.182 -2.644,1.539 -5.294,3.068 -7.943,4.598 -1.359,0.785 -2.817,1.499 -4.105,2.398 -0.739,0.515 -2.734,1.39 -2.471,1.694 l 0.263,0.304 2.82,-0.826 7.053,-3.46 c 0.055,0 0.179,0.231 0.223,0.262 0.195,0.141 0.369,0.082 0.612,0.09 0.547,0.018 1.094,0.003 1.642,0.038 1.132,0.073 2.26,0.25 3.343,0.589 1.302,0.408 2.52,1.041 3.729,1.672 0.68,0.354 1.366,0.713 1.943,1.217 0.982,0.858 1.571,2.068 2.126,3.249 0.425,0.903 0.847,1.819 1.044,2.798 0.164,0.813 0.169,1.648 0.165,2.477 -0.005,0.874 -0.019,1.748 -0.044,2.621 -0.01,0.397 -0.546,1.673 -0.427,1.819 -0.133,0.147 -1.363,1.387 -1.316,1.455 0.043,0.063 0.857,1.22 2.63,1.039 1.823,-0.187 3.589,-0.944 4.49,-0.944 0.901,0 5.869,1.433 5.869,1.433 0,0 8.116,-0.208 13.775,-4.353 5.659,-4.144 8.586,-6.241 7.537,-7.841 C 11.485,10.13 8.526,8.51 5.614,9.394 5.225,9.512 4.841,9.694 4.578,10.005 4.442,10.165 4.344,10.354 4.2,10.506 3.833,10.894 3.244,10.976 2.711,10.936 2.585,10.926 2.45,10.907 2.359,10.82 2.247,10.715 2.234,10.543 2.23,10.389 2.167,8.285 2.137,6.176 2.334,4.081 2.369,3.703 2.507,3.084 2.298,2.737 2.15,2.489 1.803,2.355 1.593,2.157 0.936,1.534 0.596,0.671 0,0"
         style="fill:#ef3423;fill-opacity:1;fill-rule:nonzero;stroke:none"
         id="path50215" />
    </g>
    <g
       id="g50217"
       transform="matrix(0.35277777,0,0,-0.35277777,183.29179,259.64355)">
      <path
         d="m 0,0 6.457,-2.41 c 0,0 3.527,2.303 3.924,3.743 0.046,0.17 0.145,0.303 0.265,0.414 0.901,0.84 3.01,0.612 -6.466,7.48 -2.891,2.095 -5.358,3.502 -7.422,4.436 -1.185,-0.64 -1.971,-1.039 -1.971,-1.039 0,0 -0.135,0.077 -0.368,0.207 -0.43,0.24 -1.19,0.665 -2.039,1.131 -0.464,0.254 -0.955,0.521 -1.431,0.777 -0.167,0.09 -0.331,0.178 -0.492,0.265 -0.418,0.22 -0.806,0.309 -1.164,0.412 -0.507,-0.046 -0.754,-0.134 -0.754,-0.134 0,0 -0.04,-0.086 -0.109,-0.237 -0.447,-0.97 -1.778,-4.196 -4.172,-5.773 C -16.582,8.72 0,0 0,0"
         style="fill:#ef3423;fill-opacity:1;fill-rule:nonzero;stroke:none"
         id="path50219" />
    </g>
    <g
       id="g50221"
       transform="matrix(0.35277777,0,0,-0.35277777,199.42965,249.27312)">
      <path
         d="m 0,0 c -1.322,-0.323 -4.376,-1.385 -6.709,-2.194 -2.043,-0.709 -3.643,-1.259 -4.882,-1.658 -1.707,-0.549 -2.725,-0.815 -3.25,-0.815 -1.398,0 -4.022,-0.398 -4.66,-0.493 -8.961,-4.484 -22.347,-11.249 -24.004,-12.274 -0.537,-0.999 -2.593,-4.559 -4.591,-6.621 -0.816,-0.847 -2.997,-2.301 -5.76,-4.148 -3.554,-2.371 -10.162,-6.791 -10.39,-8.163 v -0.006 c -0.164,-1.581 -0.126,-5.957 -0.076,-9.214 l -1.909,1.107 c -0.044,3.124 -0.057,6.823 0.101,8.315 0.025,0.222 0.095,0.449 0.215,0.695 0.967,2.025 5.078,4.882 11.002,8.841 2.454,1.644 4.775,3.193 5.457,3.895 1.993,2.061 4.143,5.906 4.357,6.355 0.184,0.366 0.354,0.715 24.883,12.976 l 0.127,0.069 0.145,0.02 c 0.038,0.005 0.284,0.049 0.67,0.1 1.063,0.165 3.149,0.442 4.433,0.442 0.708,0.007 4.641,1.367 7.506,2.366 2.181,0.759 3.838,1.322 5.071,1.714 l 2.22,-1.278 C -0.032,0.024 -0.013,0.013 0,0"
         style="fill:#edeeed;fill-opacity:1;fill-rule:nonzero;stroke:none"
         id="path50223" />
    </g>
    <g
       id="g50225"
       transform="matrix(0.35277777,0,0,-0.35277777,181.89137,255.50357)">
      <path
         d="m 0,0 c -0.164,-0.247 -0.329,-0.5 -0.506,-0.747 -0.689,-0.999 -1.46,-2.004 -2.225,-2.795 -0.816,-0.847 -2.998,-2.308 -5.761,-4.154 -3.548,-2.371 -10.162,-6.791 -10.383,-8.158 -0.171,-1.63 -0.133,-6.266 -0.076,-9.554 -0.708,0.411 -1.347,0.853 -1.916,1.315 -0.044,3.15 -0.05,6.918 0.108,8.436 0.208,2.042 4.578,5.102 11.211,9.542 0.556,0.367 1.1,0.733 1.619,1.081 1.802,1.214 3.313,2.27 3.838,2.814 0.841,0.866 1.707,2.049 2.447,3.161 C -1.113,0.594 -0.562,0.277 0,0"
         style="fill:#edeeed;fill-opacity:1;fill-rule:nonzero;stroke:none"
         id="path50227" />
    </g>
    <g
       id="g50229"
       transform="matrix(0.35277777,0,0,-0.35277777,197.75205,248.30507)">
      <path
         d="m 0,0 c -1.467,-0.411 -4.186,-1.354 -6.304,-2.093 -4.838,-1.682 -7.222,-2.472 -8.133,-2.472 -1.397,0 -4.021,-0.393 -4.66,-0.494 -2.39,-1.195 -5.096,-2.554 -7.815,-3.926 0.253,0.657 0.063,1.46 -0.437,1.909 2.214,1.113 4.711,2.371 7.538,3.781 l 0.133,0.064 0.139,0.025 c 0.139,0.018 3.364,0.537 5.102,0.537 0.709,0.007 4.642,1.372 7.513,2.365 1.859,0.652 3.332,1.158 4.489,1.536 h 0.007 C -1.796,0.98 -1.183,0.683 -0.613,0.354 Z"
         style="fill:#edeeed;fill-opacity:1;fill-rule:nonzero;stroke:none"
         id="path50231" />
    </g>
    <g
       id="g50233"
       transform="matrix(0.35277777,0,0,-0.35277777,181.32188,255.11876)">
      <path
         d="m 0,0 5.614,-3.43 0.974,-0.599 0.781,-0.476 1.154,-0.701 6.939,-4.234 1.857,-2.965 c 0.124,-0.114 0.238,-0.227 0.362,-0.34 0.452,-0.443 0.894,-0.895 1.347,-1.348 l 0.012,-0.011 c 0.508,-0.509 1.018,-0.996 1.561,-1.471 0.238,-0.204 0.532,-0.306 0.838,-0.397 0.068,-0.022 0.135,-0.033 0.204,-0.055 1.03,-0.25 2.434,-0.397 3.441,0.033 h 0.011 c 1.517,0.656 3.769,1.755 5.999,2.988 2.241,1.235 4.449,2.604 5.898,3.792 0.396,0.328 0.747,0.646 1.052,0.962 1.562,1.551 2.185,2.943 2.491,4.233 0.09,0.34 0.147,0.68 0.204,1.008 0.181,1.121 0.181,2.253 0.237,3.373 0.034,0.895 -0.068,1.212 -0.316,2.027 -0.137,0.419 -0.262,0.838 -0.397,1.257 -0.305,0.984 -0.657,2.093 -1.346,2.863 -0.816,0.905 -2.084,1.516 -3.114,2.128 -3.464,2.037 -6.927,4.064 -10.391,6.101 -0.566,0.328 -1.132,0.657 -1.72,0.962 -1.551,0.816 -3.192,1.438 -4.902,1.857 -0.747,0.181 -1.539,0.475 -2.252,0.181 -0.476,-0.193 -0.929,-0.476 -1.393,-0.714 0,0 0.034,-1.029 -0.09,-2.456 C 14.998,14.037 14.93,13.447 14.817,12.836 14.692,12.09 14.5,11.297 14.24,10.539 14.025,9.905 13.765,9.305 13.447,8.75 13.244,8.41 13.018,8.094 12.768,7.799 12.485,7.471 12.123,7.12 11.692,6.758 9.282,4.709 4.89,2.208 2.343,0.838 1.155,0.192 0.374,-0.203 0.374,-0.203 0.374,-0.203 0.238,-0.124 0,0"
         style="fill:#b91f24;fill-opacity:1;fill-rule:nonzero;stroke:none"
         id="path50235" />
    </g>
    <g
       id="g50237"
       transform="matrix(0.35277777,0,0,-0.35277777,183.92154,256.70799)">
      <path
         d="M 0,0 1.154,-0.701 8.093,-4.936 9.95,-7.9 c 0.124,-0.114 0.238,-0.227 0.362,-0.34 0.452,-0.443 0.894,-0.895 1.347,-1.348 l 0.011,-0.011 c 0.509,-0.509 1.019,-0.996 1.562,-1.471 0.238,-0.204 0.532,-0.306 0.838,-0.397 0.068,-0.022 0.135,-0.033 0.204,-0.055 1.03,-0.25 2.434,-0.397 3.441,0.033 h 0.011 c 1.517,0.656 3.769,1.755 5.999,2.988 2.241,1.234 4.449,2.604 5.898,3.792 0.396,0.328 0.747,0.646 1.052,0.962 -0.249,0.272 -0.498,0.476 -0.69,0.611 C 28.514,-2.094 14.364,7.811 12.734,7.539 11.591,7.347 4.323,2.773 0,0"
         style="fill:#9d1b20;fill-opacity:1;fill-rule:nonzero;stroke:none"
         id="path50239" />
    </g>
    <g
       id="g50241"
       transform="matrix(0.35277777,0,0,-0.35277777,194.23944,252.27138)">
      <path
         d="m 0,0 c -3.464,2.037 -6.927,4.063 -10.391,6.101 -0.566,0.328 -1.132,0.657 -1.72,0.961 -1.551,0.816 -3.193,1.439 -4.902,1.857 -0.747,0.182 -1.539,0.476 -2.252,0.182 -0.476,-0.193 -0.929,-0.476 -1.393,-0.713 0,0 0.034,-1.031 -0.09,-2.457 -0.057,-0.532 -0.125,-1.12 -0.238,-1.732 -0.125,-0.747 -0.317,-1.539 -0.577,-2.298 -0.215,-0.633 -0.476,-1.234 -0.793,-1.788 -0.203,-0.34 -0.43,-0.656 -0.679,-0.951 -0.283,-0.328 -0.645,-0.68 -1.075,-1.041 -2.411,-2.049 -6.803,-4.551 -9.35,-5.921 -1.035,-0.561 -1.759,-0.933 -1.93,-1.02 l -1.227,0.749 c 0.238,-0.124 0.374,-0.203 0.374,-0.203 0,0 0.781,0.395 1.969,1.041 2.547,1.37 6.939,3.871 9.35,5.92 0.43,0.362 0.793,0.712 1.075,1.041 0.25,0.294 0.476,0.611 0.68,0.951 0.317,0.554 0.577,1.155 0.792,1.789 0.26,0.758 0.453,1.551 0.577,2.297 0.113,0.611 0.181,1.201 0.238,1.732 0.125,1.427 0.09,2.456 0.09,2.456 0.465,0.237 0.917,0.521 1.393,0.714 0.713,0.294 1.506,0 2.252,-0.182 1.71,-0.419 3.351,-1.041 4.902,-1.856 0.588,-0.306 1.154,-0.634 1.72,-0.962 C -7.741,4.63 -4.277,2.603 -0.813,0.565 -0.034,0.103 0.881,-0.361 1.634,-0.952 1.087,-0.61 0.514,-0.306 0,0"
         style="fill:#ee2d24;fill-opacity:1;fill-rule:nonzero;stroke:none"
         id="path50243" />
    </g>
    <g
       id="g50245"
       transform="matrix(0.35277777,0,0,-0.35277777,179.51457,254.20513)">
      <path
         d="m 0,0 c -0.05,0.015 -0.1,0.029 -0.148,0.045 l 5.274,-2.63 C 4.696,-2.345 3.936,-1.92 3.087,-1.454 2.623,-1.2 2.132,-0.933 1.656,-0.677 1.489,-0.587 1.325,-0.499 1.164,-0.412 0.746,-0.192 0.358,-0.104 0,0"
         style="fill:#ef3423;fill-opacity:1;fill-rule:nonzero;stroke:none"
         id="path50247" />
    </g>
    <g
       id="g50249"
       transform="matrix(0.35277777,0,0,-0.35277777,178.5839,254.05009)">
      <path
         d="M 0,0 2.49,-0.395 C 1.879,-0.2 1.458,-0.117 1.378,-0.113 0.8,-0.09 0.007,0 0,0"
         style="fill:#ef3423;fill-opacity:1;fill-rule:nonzero;stroke:none"
         id="path50251" />
    </g>
    <g
       id="g50253"
       transform="matrix(0.35277777,0,0,-0.35277777,196.97569,248.98476)">
      <path
         d="m 0,0 c -0.535,0.31 -1.406,0.308 -1.944,-0.003 -0.539,-0.311 -0.541,-0.813 -0.006,-1.123 0.534,-0.309 1.405,-0.307 1.944,0.004 C 0.532,-0.812 0.535,-0.309 0,0"
         style="fill:#ed1f24;fill-opacity:1;fill-rule:nonzero;stroke:none"
         id="path50255" />
    </g>
    <g
       id="g50257"
       transform="matrix(0.35277777,0,0,-0.35277777,195.85742,248.96547)">
      <path
         d="M 0,0 0.408,-0.003 C 0.947,0.307 1.815,0.308 2.35,0 2.36,-0.007 2.367,-0.014 2.377,-0.02 l 0.372,-0.002 v -0.541 0 C 2.746,-0.766 2.612,-0.968 2.344,-1.122 1.805,-1.434 0.935,-1.436 0.399,-1.126 0.131,-0.972 -0.002,-0.768 0,-0.563 v 0 z"
         style="fill:#1f1e1d;fill-opacity:1;fill-rule:nonzero;stroke:none"
         id="path50259" />
    </g>
    <g
       id="g50261"
       transform="matrix(0.35277777,0,0,-0.35277777,196.68631,248.77497)">
      <path
         d="m 0,0 c -0.535,0.309 -1.405,0.308 -1.943,-0.004 -0.539,-0.309 -0.542,-0.813 -0.007,-1.122 0.535,-0.309 1.405,-0.308 1.944,0.004 C 0.532,-0.812 0.535,-0.309 0,0"
         style="fill:#383738;fill-opacity:1;fill-rule:nonzero;stroke:none"
         id="path50263" />
    </g>
    <g
       id="g50265"
       transform="matrix(0.35277777,0,0,-0.35277777,196.11512,238.17131)">
      <path
         d="M 0,0 0.191,-0.002 C 0.444,0.144 0.851,0.145 1.101,0 1.106,-0.004 1.109,-0.007 1.114,-0.01 L 1.288,-0.011 V -30.543 C 1.287,-30.638 1.224,-30.732 1.098,-30.805 0.846,-30.95 0.438,-30.951 0.187,-30.807 0.061,-30.733 0,-30.639 0,-30.543 Z"
         style="fill:#1f1e1d;fill-opacity:1;fill-rule:nonzero;stroke:none"
         id="path50267" />
    </g>
    <g
       id="g50269"
       transform="matrix(0.35277777,0,0,-0.35277777,196.50357,238.08206)">
      <path
         d="m 0,0 c -0.25,0.145 -0.659,0.144 -0.911,-0.002 -0.253,-0.145 -0.254,-0.381 -0.003,-0.525 0.251,-0.145 0.659,-0.145 0.911,0.002 C 0.25,-0.381 0.25,-0.146 0,0"
         style="fill:#383738;fill-opacity:1;fill-rule:nonzero;stroke:none"
         id="path50271" />
    </g>
    <g
       id="g50273"
       transform="matrix(0.35277777,0,0,-0.35277777,196.24378,238.17544)">
      <path
         d="M 0,0 H 0.558 V 1.094 C 0.556,1.152 0.432,6.117 3.134,7.687 L 2.854,8.168 C -0.137,6.432 -0.007,1.303 0,1.084 Z"
         style="fill:#919292;fill-opacity:1;fill-rule:nonzero;stroke:none"
         id="path50275" />
    </g>
    <g
       id="g50277"
       transform="matrix(0.35277777,0,0,-0.35277777,173.22884,261.15662)">
      <path
         d="m 0,0 c 0.008,-0.425 0.019,-0.84 0.036,-1.208 0.075,-1.675 0.473,-2.739 1.475,-4.091 1.001,-1.351 1.153,-1.965 7.911,-5.875 6.758,-3.91 13.434,-3.394 14.945,-3.442 0.938,-0.03 1.961,1.462 2.019,2.307 0.13,1.886 0.829,4.209 -3.884,4.671 -0.477,0.047 -0.983,0.173 -1.541,0.24 -7.839,0.919 -9.569,2.406 -15.3,5.757 C -0.07,1.712 0.062,4.713 0.062,4.713 L -0.007,3.117 C -0.007,3.117 -0.026,1.504 0,0"
         style="fill:#b91f24;fill-opacity:1;fill-rule:nonzero;stroke:none"
         id="path50279" />
    </g>
    <g
       id="g50281"
       transform="matrix(0.35277777,0,0,-0.35277777,173.21159,260.46556)">
      <path
         d="M 0,0 C 0.079,-0.237 0.182,-0.476 0.283,-0.68 0.498,-1.144 0.713,-1.494 0.724,-1.652 0.77,-2.061 0.917,-2.434 1.37,-3.033 1.585,-3.316 1.698,-3.521 1.743,-3.781 1.822,-4.087 1.822,-4.46 1.834,-5.105 1.845,-5.807 1.675,-6.351 1.54,-6.667 1.969,-6.894 2.196,-5.569 2.105,-4.381 2.015,-3.102 1.822,-1.518 1.687,-1.358 1.551,-1.2 1.438,-1.041 1.324,-0.871 0.928,-0.328 0.645,0.215 0.464,0.656 0.17,1.29 0.068,1.721 0.068,1.721 0.068,1.721 0.023,0.962 0,0"
         style="fill:#d16c1c;fill-opacity:1;fill-rule:nonzero;stroke:none"
         id="path50283" />
    </g>
    <g
       id="g50285"
       transform="matrix(0.35277777,0,0,-0.35277777,186.35087,259.44131)">
      <path
         d="m 0,0 v 0 c -0.401,0.534 -1.643,0.473 -2.758,-0.138 l -10.54,-5.758 c -1.116,-0.611 -1.701,-1.546 -1.3,-2.081 0.402,-0.534 1.643,-0.471 2.759,0.138 l 10.54,5.76 C -0.183,-1.47 0.401,-0.534 0,0"
         style="fill:#f1493d;fill-opacity:1;fill-rule:nonzero;stroke:none"
         id="path50287" />
    </g>
    <g
       id="g50289"
       transform="matrix(0.35277777,0,0,-0.35277777,200.2785,251.26198)">
      <path
         d="m 0,0 v 0 c -0.351,0.562 -1.021,0.809 -1.49,0.549 l -4.424,-2.45 c -0.468,-0.26 -0.564,-0.931 -0.212,-1.493 0.351,-0.56 1.021,-0.808 1.489,-0.548 l 4.424,2.45 C 0.255,-1.232 0.351,-0.562 0,0"
         style="fill:#f1493d;fill-opacity:1;fill-rule:nonzero;stroke:none"
         id="path50291" />
    </g>
    <g
       id="g50293"
       transform="matrix(0.35277777,0,0,-0.35277777,184.32875,256.71592)">
      <path
         d="m 0,0 v -0.679 l 4.652,-2.842 2.287,-1.392 0.226,-0.362 1.63,-2.603 c 0.125,-0.113 0.238,-0.226 0.362,-0.34 0.453,-0.442 0.895,-0.894 1.347,-1.347 l 0.012,-0.011 c 0.509,-0.51 1.019,-0.996 1.562,-1.472 0.238,-0.204 0.532,-0.306 0.838,-0.396 2.603,1.222 12.371,5.921 13.719,8.127 0.441,0.724 0.634,1.37 0.679,1.924 0.011,0.091 0.011,0.182 0.011,0.272 v 0.012 c 0,1.234 -0.69,1.958 -0.69,1.958 L 24.111,2.389 13.255,8.987 11.704,7.67 11.251,7.443 1.505,3.181 C 0.6,2.739 0.011,1.811 0.011,0.804 0,0.543 0,0.271 0,0"
         style="fill:#352827;fill-opacity:1;fill-rule:nonzero;stroke:none"
         id="path50295" />
    </g>
    <g
       id="g50297"
       transform="matrix(0.35277777,0,0,-0.35277777,184.32875,256.71592)">
      <path
         d="m 0,0 c 0.713,-0.702 1.687,-1.37 2.615,-2.049 0.51,-0.373 1.234,-0.894 2.037,-1.472 0.792,-0.565 1.676,-1.188 2.513,-1.754 1.472,-0.996 2.83,-1.868 3.441,-2.082 1.313,-0.488 14.705,2.139 12.961,7.029 0,0 -11.568,7.715 -11.863,7.783 -0.101,0.023 -0.237,0.011 -0.453,-0.012 L 1.505,3.181 C 0.6,2.739 0.011,1.811 0.011,0.804 0,0.543 0,0.271 0,0"
         style="fill:#312423;fill-opacity:1;fill-rule:nonzero;stroke:none"
         id="path50299" />
    </g>
    <g
       id="g50301"
       transform="matrix(0.35277777,0,0,-0.35277777,188.4577,254.01012)">
      <path
         d="m 0,0 v -0.215 c 0,0 9.576,-6.097 12.44,-8.202 0.464,-0.351 0.759,-0.566 0.793,-0.623 0.283,-0.397 1.709,-1.302 2.377,-0.023 0,0.012 0.011,0.012 0.011,0.023 v 0.249 0.012 c 0,1.8 -0.023,12.338 0,12.518 0.011,0.149 0.403,1.382 -0.853,2.536 -0.34,0.329 -0.804,0.657 -1.404,1.008 -2.183,1.283 -7.873,4.355 -10.197,5.605 -0.746,0.4 -1.651,0.415 -2.392,0.003 C 0.431,12.697 0.124,12.457 0,12.173 -0.316,11.437 -0.056,1.551 0,0"
         style="fill:#352827;fill-opacity:1;fill-rule:nonzero;stroke:none"
         id="path50303" />
    </g>
    <g
       id="g50305"
       transform="matrix(0.35277777,0,0,-0.35277777,188.86596,249.71582)">
      <path
         d="m 0,0 v 0 c 0.327,0.435 1.337,0.384 2.245,-0.112 l 8.58,-4.689 c 0.908,-0.496 1.383,-1.258 1.057,-1.692 -0.326,-0.436 -1.337,-0.385 -2.245,0.112 L 1.058,-1.693 C 0.149,-1.197 -0.327,-0.436 0,0"
         style="fill:#413433;fill-opacity:1;fill-rule:nonzero;stroke:none"
         id="path50307" />
    </g>
    <g
       id="g50309"
       transform="matrix(0.35277777,0,0,-0.35277777,188.0386,260.09416)">
      <path
         d="m 0,0 c 0.509,-0.51 1.019,-0.996 1.562,-1.472 0.238,-0.204 0.532,-0.305 0.837,-0.396 2.603,1.222 12.372,5.921 13.72,8.127 0.441,0.724 0.633,1.37 0.679,1.925 0,0.011 0.011,0.011 0.011,0.022 v 0.249 0.012 c 0,1.8 -0.023,12.338 0,12.518 0.011,0.149 0,2.71 -1.053,2.162 h -0.011 c 0,0 -1.958,0.443 -2.106,-1.674 -0.079,-1.211 -0.068,-5.795 -0.044,-9.508 0,-1.178 0.01,-2.264 0.033,-3.136 0,-1.223 -0.576,0.42 -0.576,0.42 0,0 -9.761,-5.903 -12.783,-7.035 C -0.162,2.056 0.249,0.271 0,0"
         style="fill:#2b2020;fill-opacity:1;fill-rule:nonzero;stroke:none"
         id="path50311" />
    </g>
    <g
       id="g50313"
       transform="matrix(0.35277777,0,0,-0.35277777,183.3209,254.08798)">
      <path
         d="m 0,0 c 0,0 -0.002,-0.011 -0.002,-0.038 0,-0.73 1.717,-2.924 4.514,-4.841 2.377,-1.629 3.694,-1.806 3.875,-1.685 0,0.727 -1.717,2.922 -4.514,4.84 C 1.781,-0.291 0.511,0.016 0.114,0.016 0.059,0.016 0.021,0.01 0,0 m 3.873,-5.812 c -2.428,1.663 -5.009,4.252 -5.009,5.774 0,0.441 0.211,0.805 0.575,0.997 C 0.764,1.656 3.657,-0.203 4.512,-0.79 6.939,-2.454 9.52,-5.044 9.52,-6.564 9.52,-7.006 9.31,-7.37 8.945,-7.562 8.741,-7.669 8.5,-7.716 8.235,-7.716 c -1.457,0 -3.638,1.407 -4.362,1.904"
         style="fill:#2b2020;fill-opacity:1;fill-rule:nonzero;stroke:none"
         id="path50315" />
    </g>
    <g
       id="g50317"
       transform="matrix(0.35277777,0,0,-0.35277777,186.27852,256.59637)">
      <path
         d="M 0,0 0.612,0.951 -4.491,4.245 -7.838,7.908 -8.672,7.145 -5.166,3.333 Z"
         style="fill:#2b2020;fill-opacity:1;fill-rule:nonzero;stroke:none"
         id="path50319" />
    </g>
    <g
       id="g50321"
       transform="matrix(0.35277777,0,0,-0.35277777,183.30248,256.32868)">
      <path
         d="M 0,0 0.974,-0.6 3.996,2.672 3.159,3.43 Z"
         style="fill:#2b2020;fill-opacity:1;fill-rule:nonzero;stroke:none"
         id="path50323" />
    </g>
    <g
       id="g50325"
       transform="matrix(0.35277777,0,0,-0.35277777,178.96198,265.40925)">
      <path
         d="m 0,0 c 0.339,-1.223 1.936,-1.268 3.361,-1.494 2.367,-0.351 4.947,-0.318 4.947,-0.318 0,0 0.148,0.069 0.351,0.262 0.419,0.396 1.03,1.313 0.928,3.203 C 9.44,4.415 6.203,3.464 1.449,4.415 0.113,2.151 -0.227,0.815 0,0"
         style="fill:#e8eb3c;fill-opacity:1;fill-rule:nonzero;stroke:none"
         id="path50327" />
    </g>
    <g
       id="g50329"
       transform="matrix(0.35277777,0,0,-0.35277777,173.23572,261.53561)">
      <path
         d="m 0,0 c 0.215,-1.653 0.882,-3.034 1.37,-3.544 0.033,-0.033 0.067,-0.067 0.101,-0.09 0.43,-0.226 0.656,1.098 0.566,2.286 C 1.946,-0.068 1.754,1.516 1.619,1.675 0.384,3.169 0,4.754 0,4.754 0,4.754 -0.045,3.995 -0.068,3.033 -0.103,2.048 -0.113,0.837 0,0"
         style="fill:#e8eb3c;fill-opacity:1;fill-rule:nonzero;stroke:none"
         id="path50331" />
    </g>
    <g
       id="g50333"
       transform="matrix(0.35277777,0,0,-0.35277777,178.96198,265.40925)">
      <path
         d="M 0,0 C 0.282,-0.022 0.554,0.034 0.792,0.17 2.184,0.951 1.618,0.759 3.033,0.317 4.448,-0.136 6.61,0.17 7.652,-0.283 8.365,-0.589 8.591,-1.2 8.659,-1.55 9.078,-1.154 9.689,-0.237 9.587,1.653 9.44,4.415 6.203,3.464 1.449,4.415 0.113,2.151 -0.227,0.815 0,0"
         style="fill:#d16c1c;fill-opacity:1;fill-rule:nonzero;stroke:none"
         id="path50335" />
    </g>
    <g
       id="g50337"
       transform="matrix(0.35277777,0,0,-0.35277777,173.30737,260.63331)">
      <path
         d="M 0,0 C 0,-0.067 0,-0.136 0.012,-0.204 0.023,-0.6 0.08,-0.951 0.17,-1.154 l 0.997,-2.287 c 0.113,-0.238 0.226,-0.17 0.305,0.135 0.034,0.103 0.068,0.239 0.079,0.397 0.011,0.159 0.023,0.328 0.023,0.498 0,0.487 -0.057,0.962 -0.158,1.2 L 1.053,-0.396 C 0.657,0.147 0.374,0.69 0.192,1.132 0.113,1.03 0.068,0.826 0.034,0.544 0.012,0.373 0,0.181 0,0"
         style="fill:#e8eb3c;fill-opacity:1;fill-rule:nonzero;stroke:none"
         id="path50339" />
    </g>
    <g
       id="g50341"
       transform="matrix(0.35277777,0,0,-0.35277777,180.13764,265.12883)">
      <path
         d="M 0,0 4.383,-0.481 C 4.996,-0.549 5.552,-0.104 5.62,0.51 5.687,1.122 5.241,1.679 4.628,1.746 L 0.245,2.228 C -0.368,2.295 -0.924,1.849 -0.992,1.236 -1.059,0.624 -0.613,0.067 0,0"
         style="fill:#e8eb3c;fill-opacity:1;fill-rule:nonzero;stroke:none"
         id="path50343" />
    </g>
    <g
       id="g50345"
       transform="matrix(0.35277777,0,0,-0.35277777,45.104017,296.45715)">
      <g
         id="g50347" />
      <g
         id="g50359">
        <g
           clip-path="url(#clipPath50351)"
           id="g50357">
          <g
             transform="translate(322.0244,159.25)"
             id="g50355">
            <path
               d="m 0,0 40.146,-23.188 c 7.632,-4.407 6.675,-12.104 -2.138,-17.192 l -1.046,-0.604 c -8.813,-5.088 -22.145,-5.641 -29.777,-1.234 l -40.146,23.188 c -7.632,4.407 -6.676,12.104 2.138,17.192 l 1.045,0.604 C -20.965,3.854 -7.633,4.406 0,0"
               style="fill:#ababaa;fill-opacity:1;fill-rule:nonzero;stroke:none"
               id="path50353" />
          </g>
        </g>
      </g>
    </g>
    <g
       id="g50361"
       transform="matrix(0.35277777,0,0,-0.35277777,162.43603,241.12823)">
      <path
         d="m 0,0 38.004,-21.95 c 7.225,-4.172 6.319,-11.459 -2.024,-16.276 l -0.989,-0.57 c -8.344,-4.817 -20.964,-5.341 -28.189,-1.169 l -38.003,21.95 c -7.226,4.172 -6.319,11.458 2.023,16.275 l 0.99,0.571 C -19.846,3.648 -7.225,4.172 0,0"
         style="fill:#221b1a;fill-opacity:1;fill-rule:nonzero;stroke:none"
         id="path50363" />
    </g>
    <g
       id="g50365"
       transform="matrix(0.35277777,0,0,-0.35277777,149.61736,242.30784)">
      <path
         d="m 0,0 c 0,0 -0.926,-6.382 0.203,-9.322 1.129,-2.941 48.98,-27.812 48.98,-27.812 l 29.69,10.271 c 0,0 0.458,4.231 0.087,8.226 C 76.643,-18.838 0,0 0,0"
         style="fill:#221b1a;fill-opacity:1;fill-rule:nonzero;stroke:none"
         id="path50367" />
    </g>
    <g
       id="g50369"
       transform="matrix(0.35277777,0,0,-0.35277777,175.03803,252.22213)">
      <path
         d="M 0,0 -0.989,-0.572 C -9.332,-5.388 -21.952,-5.911 -29.177,-1.74 l -38.004,21.95 c -4.839,2.794 -6.03,6.983 -3.784,10.894 0.333,0.581 0.743,1.156 1.228,1.718 0.769,0.894 1.726,1.757 2.87,2.568 0.53,0.378 1.1,0.743 1.71,1.094 l 0.99,0.573 c 2.549,1.471 5.498,2.543 8.57,3.2 4.397,0.943 9.047,1.042 13.14,0.262 2.407,-0.46 4.621,-1.222 6.478,-2.294 l 9.038,-5.227 c 3.288,-2.797 10.543,-6.477 10.543,-6.477 0,0 0.126,0.071 0.342,0.192 l 0.686,-0.396 5.722,-3.303 11.672,-6.74 C 2.354,16.083 2.669,15.886 2.965,15.683 3.588,15.255 4.137,14.801 4.61,14.326 4.857,14.079 5.084,13.825 5.291,13.567 8.627,9.397 6.742,3.893 0,0"
         style="fill:#2b2020;fill-opacity:1;fill-rule:nonzero;stroke:none"
         id="path50371" />
    </g>
    <g
       id="g50373"
       transform="matrix(0.35277777,0,0,-0.35277777,169.0637,253.29666)">
      <path
         d="m 0,0 c -4.558,0 -8.709,0.947 -11.688,2.668 l -38.003,21.95 c -2.097,1.21 -3.498,2.737 -4.051,4.416 -0.521,1.576 -0.288,3.294 0.673,4.967 0.299,0.521 0.671,1.043 1.107,1.548 0.723,0.84 1.621,1.642 2.67,2.386 0.499,0.355 1.044,0.705 1.624,1.04 l 0.99,0.571 c 2.362,1.363 5.214,2.428 8.248,3.077 2.349,0.504 4.754,0.759 7.146,0.759 1.935,0 3.804,-0.17 5.555,-0.503 2.362,-0.451 4.426,-1.18 6.131,-2.164 l 8.952,-5.178 c 3.38,-2.839 10.383,-6.404 10.682,-6.556 l 0.53,-0.269 0.307,0.174 17.533,-10.122 c 0.307,-0.178 0.599,-0.363 0.866,-0.546 0.561,-0.383 1.061,-0.795 1.488,-1.225 0.215,-0.215 0.416,-0.439 0.6,-0.67 1.16,-1.448 1.586,-3.037 1.269,-4.722 C 22.141,9.007 19.921,6.452 16.381,4.408 L 15.391,3.836 C 11.169,1.398 5.559,0 0,0"
         style="fill:#352827;fill-opacity:1;fill-rule:nonzero;stroke:none"
         id="path50375" />
    </g>
    <g
       id="g50377"
       transform="matrix(0.35277777,0,0,-0.35277777,175.54963,250.43136)">
      <path
         d="m 0,0 c -0.524,-0.437 -1.119,-0.86 -1.779,-1.249 -0.106,-0.07 -0.212,-0.135 -0.324,-0.2 l -1.943,-1.119 -1.779,-1.031 -0.188,-0.106 c -6.337,-3.663 -15.931,-4.058 -21.42,-0.889 l -39.423,22.762 c -5.489,3.169 -4.8,8.705 1.537,12.368 l 3.91,2.256 c 6.337,3.657 15.931,4.058 21.42,0.889 l 19.777,-11.419 3.498,-2.021 16.149,-9.322 C 4.24,8.145 4.311,3.551 0,0"
         style="fill:#458732;fill-opacity:1;fill-rule:nonzero;stroke:none"
         id="path50379" />
    </g>
    <g
       id="g50381"
       transform="matrix(0.35277777,0,0,-0.35277777,176.65791,248.5197)">
      <path
         d="m 0,0 c -0.001,-0.008 -0.002,-0.017 -0.003,-0.024 0,-0.002 -0.001,-0.003 -0.001,-0.003 -0.061,-0.537 -0.31,-1.625 -0.31,-1.625 L -29.172,-8.77 -73.7,17.926 l -0.004,0.003 c 0,0 -0.037,1.329 -0.051,3 -0.015,1.532 -0.01,3.351 0.06,4.694 0.034,0.69 0.087,1.255 0.163,1.589 0.004,0.018 0.008,0.035 0.012,0.054 0,0.003 0.002,0.006 0.002,0.006 0.011,0.042 0.022,0.082 0.033,0.122 0.006,0.022 0.013,0.044 0.02,0.067 0.007,0.027 0.016,0.054 0.025,0.081 0.474,1.51 1.686,3.324 1.686,3.324 l 0.003,0.001 1.547,0.871 8.389,4.723 2.595,1.461 c 0,0 10e-4,0 0.004,0.001 l 0.008,0.003 c 0.007,10e-4 0.015,10e-4 0.023,0.004 0.393,0.079 4.178,0.795 9.641,0.086 0.065,-0.009 0.129,-0.017 0.193,-0.026 0.236,-0.031 0.703,-0.967 0.944,-1.004 0.423,-0.221 1.466,-0.056 3.337,-1.157 1.34,-0.787 2.987,-1.761 4.85,-2.867 1.409,-0.836 2.944,-1.748 4.562,-2.712 0.21,-0.124 0.423,-0.251 0.636,-0.377 0.124,-0.704 0.298,-1.44 0.54,-2.148 0.197,-0.582 0.441,-1.146 0.743,-1.659 0.186,-0.318 0.394,-0.617 0.626,-0.887 0.263,-0.306 0.604,-0.635 1.005,-0.975 3.288,-2.797 10.544,-6.477 10.544,-6.477 0,0 0.126,0.071 0.342,0.192 0.4,0.224 1.109,0.619 1.899,1.054 0.432,0.236 0.889,0.485 1.333,0.723 0.253,-0.151 0.505,-0.302 0.756,-0.451 1.915,-1.147 3.765,-2.256 5.495,-3.293 C -5.034,11.935 -0.12,8.985 -0.12,8.985 V 8.981 C -0.115,8.929 -0.069,8.371 -0.015,7.542 0.034,6.785 0.088,5.802 0.124,4.773 0.185,3.023 0.186,1.139 0,0"
         style="fill:#458732;fill-opacity:1;fill-rule:nonzero;stroke:none"
         id="path50383" />
    </g>
    <g
       id="g50385"
       transform="matrix(0.35277777,0,0,-0.35277777,176.61555,245.35122)">
      <path
         d="m 0,0 v 0.004 c -0.36,1.613 -1.542,2.283 -3.582,3.462 l -7.608,5.161 c -0.098,0.119 -2.678,3.128 -2.678,3.128 -0.003,-0.001 -1.286,-0.107 -1.286,-0.107 l -0.593,-0.13 -0.443,-0.131 c -0.37,-0.118 -2.581,-1.159 -3.013,-1.396 -0.79,-0.434 -1.499,-0.83 -1.899,-1.053 -0.216,-0.122 -0.342,-0.193 -0.342,-0.193 0,0 -7.256,3.681 -10.544,6.478 -0.401,0.34 -0.741,0.669 -1.005,0.974 -0.232,0.271 -0.44,0.57 -0.626,0.888 -0.301,0.513 -0.546,1.076 -0.743,1.658 -0.242,0.708 -0.416,1.444 -0.54,2.149 -0.101,0.569 -0.169,1.117 -0.216,1.613 l -0.889,0.514 -0.675,2.511 c 0,0 -3.444,0.842 -5.797,1.226 -2.359,0.602 -3.662,1.024 -4.814,1.572 -0.216,0.103 -1.697,0.651 -1.937,0.681 -0.064,0.009 -0.129,0.016 -0.194,0.025 -1.603,0.191 -3.288,0.217 -4.978,0.083 -2.501,-0.197 -5.014,-0.746 -7.293,-1.638 -0.96,-0.375 -1.878,-0.811 -2.737,-1.306 l -3.907,-2.256 c -0.64,-0.369 -1.222,-0.758 -1.745,-1.16 -0.826,-0.636 -1.508,-1.308 -2.044,-1.999 -0.556,-0.719 -0.954,-1.456 -1.192,-2.197 -0.009,-0.028 -0.018,-0.054 -0.025,-0.082 -0.007,-0.022 -0.014,-0.044 -0.02,-0.067 -0.011,-0.039 -0.022,-0.079 -0.032,-0.118 0,0 -0.002,-0.007 -0.002,-0.01 -0.005,-0.018 -0.009,-0.035 -0.013,-0.054 -0.139,-0.532 -0.195,-1.064 -0.163,-1.588 0.057,-1.039 0.445,-2.049 1.166,-2.975 0.577,-0.739 1.55,-1.095 2.408,-1.446 1.127,-0.464 2.291,-0.841 3.475,-1.13 1.272,-0.31 2.624,-0.585 3.936,-0.624 0.556,-0.017 2.856,-0.238 2.856,-0.81 0,-0.771 0.137,-5.035 1.552,-7.022 0.873,-1.226 1.964,-2.348 4.204,-3.85 2.594,-1.739 7.559,-4.364 9.193,-5.001 4.566,-1.779 5.053,1.562 6.18,0.017 1.1,-1.508 3.052,-2.071 4.608,-2.969 1.181,-0.681 2.361,-1.362 3.541,-2.043 5.492,-3.171 15.083,-2.774 21.423,0.887 l 3.907,2.256 c 1.555,0.897 2.77,1.908 3.637,2.968 0.441,0.54 0.792,1.093 1.053,1.65 0.311,0.668 0.493,1.343 0.541,2.011 C 0.141,-0.954 0.107,-0.473 0,0"
         style="fill:#5bb334;fill-opacity:1;fill-rule:nonzero;stroke:none"
         id="path50387" />
    </g>
    <g
       id="g50389"
       transform="matrix(0.35277777,0,0,-0.35277777,175.74288,246.84121)">
      <path
         d="M 0,0 C -0.589,-1.308 -1.826,-2.592 -3.687,-3.663 L -5.524,-4.724 C -10.472,-7.58 -17.963,-7.892 -22.25,-5.418 l -7.592,4.381 -5.877,3.398 -17.716,17.28 -11.248,-0.56 -1.685,0.978 -0.695,0.401 -0.317,0.182 c -1.968,1.13 -2.703,2.733 -2.274,4.34 0.1,0.377 0.265,0.754 0.495,1.125 0.224,0.366 0.506,0.725 0.854,1.073 0.506,0.506 1.142,0.995 1.914,1.436 l 0.66,0.383 1.431,0.824 2.868,1.656 c 0.041,0.023 0.082,0.046 0.129,0.07 1.39,0.783 3.016,1.325 4.688,1.62 h 0.024 c 1.561,0.276 3.162,0.336 4.664,0.171 1.614,-0.171 3.11,-0.601 4.305,-1.29 l 2.786,-1.608 5.342,-3.087 7.014,-4.051 0.589,-0.335 c 0.2,-0.583 0.441,-1.149 0.748,-1.661 0.183,-0.319 0.389,-0.619 0.624,-0.89 0.265,-0.3 0.607,-0.63 1.007,-0.972 3.286,-2.797 10.542,-6.478 10.542,-6.478 0,0 0.124,0.071 0.342,0.194 0.4,0.225 1.107,0.619 1.896,1.055 l 0.689,-0.401 5.707,-3.292 7.851,-4.535 C -0.684,4.953 0.265,3.58 0.395,2.132 0.453,1.431 0.324,0.713 0,0"
         style="fill:#79ca2a;fill-opacity:1;fill-rule:nonzero;stroke:none"
         id="path50391" />
    </g>
    <g
       id="g50393"
       transform="matrix(0.35277777,0,0,-0.35277777,157.61342,243.63383)">
      <path
         d="m 0,0 c 0.373,-0.421 0.845,-0.741 1.321,-1.04 0.815,-0.508 1.66,-0.964 2.533,-1.362 0.977,-0.447 1.985,-0.822 2.995,-1.188 2.803,-1.013 5.631,-1.956 8.483,-2.825 1.202,-0.367 2.365,-0.586 3.437,0.158 0.444,0.308 0.909,0.589 1.369,0.872 2.171,1.335 4.376,2.614 6.578,3.896 2.463,1.433 4.931,2.856 7.399,4.281 1.265,0.731 2.622,1.396 3.823,2.233 0.687,0.48 2.546,1.295 2.301,1.578 L 39.994,6.886 37.367,6.117 30.799,2.896 c -0.052,0 -0.167,0.214 -0.208,0.244 -0.182,0.13 -0.344,0.075 -0.57,0.083 -0.51,0.015 -1.019,0.002 -1.53,0.036 -1.054,0.067 -2.104,0.231 -3.114,0.548 -1.212,0.38 -2.346,0.969 -3.472,1.557 -0.633,0.329 -1.272,0.663 -1.81,1.133 -0.914,0.799 -1.463,1.926 -1.979,3.025 -0.396,0.842 -0.789,1.696 -0.973,2.607 -0.153,0.758 -0.158,1.535 -0.154,2.308 0.005,0.813 0.018,1.626 0.04,2.441 0.011,0.369 0.51,1.558 0.399,1.693 0.123,0.137 1.269,1.292 1.226,1.356 -0.04,0.058 -0.799,1.136 -2.45,0.968 -1.698,-0.175 -3.342,-0.88 -4.182,-0.88 -0.839,0 -5.466,1.335 -5.466,1.335 0,0 -7.559,-0.194 -12.829,-4.054 -5.27,-3.86 -7.998,-5.813 -7.02,-7.305 2.596,-0.555 5.352,-2.065 8.064,-1.242 0.363,0.11 0.721,0.28 0.965,0.569 0.127,0.15 0.219,0.326 0.353,0.467 0.342,0.361 0.89,0.437 1.386,0.4 0.117,-0.008 0.243,-0.027 0.328,-0.107 0.105,-0.099 0.116,-0.259 0.12,-0.402 C -2.019,7.717 -1.99,5.752 -2.174,3.801 -2.207,3.449 -2.334,2.872 -2.141,2.549 -2.002,2.318 -1.679,2.193 -1.484,2.009 -0.871,1.429 -0.555,0.625 0,0"
         style="fill:#79ca2a;fill-opacity:1;fill-rule:nonzero;stroke:none"
         id="path50395" />
    </g>
    <g
       id="g50397"
       transform="matrix(0.35277777,0,0,-0.35277777,167.33756,246.41404)">
      <path
         d="m 0,0 -6.013,-2.245 c 0,0 -3.285,2.144 -3.655,3.486 -0.043,0.158 -0.136,0.281 -0.248,0.385 -0.838,0.782 -2.802,0.571 6.023,6.968 2.693,1.951 4.991,3.261 6.913,4.132 1.103,-0.597 1.835,-0.968 1.835,-0.968 0,0 0.126,0.071 0.343,0.192 0.4,0.224 1.109,0.619 1.899,1.054 0.432,0.236 0.889,0.485 1.333,0.724 0.155,0.084 0.308,0.165 0.459,0.245 0.388,0.206 0.75,0.288 1.084,0.385 0.471,-0.044 0.702,-0.125 0.702,-0.125 0,0 0.036,-0.081 0.101,-0.22 0.416,-0.905 1.656,-3.909 3.886,-5.377 C 15.443,8.121 0,0 0,0"
         style="fill:#79ca2a;fill-opacity:1;fill-rule:nonzero;stroke:none"
         id="path50399" />
    </g>
    <g
       id="g50401"
       transform="matrix(0.35277777,0,0,-0.35277777,166.54519,242.47421)">
      <path
         d="m 0,0 c -0.33,-0.2 -0.666,-0.389 -1.013,-0.56 -3.752,2.003 -13.905,7.133 -21.049,10.702 -0.595,0.094 -3.039,0.46 -4.34,0.46 -0.848,0 -3.063,0.735 -7.574,2.302 -2.586,0.895 -6.125,2.126 -6.761,2.138 -0.247,-0.006 -0.777,-0.089 -1.496,-0.241 0.506,0.506 1.143,0.995 1.914,1.436 l 0.66,0.383 c 1.166,-0.301 3.121,-0.96 6.266,-2.05 2.674,-0.924 6.331,-2.196 6.991,-2.202 1.625,0 4.629,-0.483 4.753,-0.501 l 0.135,-0.023 0.123,-0.059 C -7.792,4.982 -2.238,2.12 0.07,0.843 -0.024,0.571 -0.047,0.277 0,0"
         style="fill:#edeeed;fill-opacity:1;fill-rule:nonzero;stroke:none"
         id="path50403" />
    </g>
    <g
       id="g50405"
       transform="matrix(0.35277777,0,0,-0.35277777,174.12232,251.33744)">
      <path
         d="m 0,0 -1.779,-1.03 c 0.035,2.798 0.042,5.977 -0.088,7.238 -0.212,1.271 -6.366,5.389 -9.676,7.597 -2.568,1.719 -4.6,3.08 -5.366,3.87 -1.266,1.301 -2.555,3.256 -3.409,4.67 0.382,0.212 0.765,0.435 1.124,0.676 0.124,0.089 0.242,0.183 0.365,0.272 0.796,-1.319 2.026,-3.187 3.193,-4.394 0.63,-0.654 2.791,-2.096 5.076,-3.622 C -4.376,11.143 -0.312,8.293 -0.112,6.391 0.012,5.206 0.029,2.557 0,0"
         style="fill:#edeeed;fill-opacity:1;fill-rule:nonzero;stroke:none"
         id="path50407" />
    </g>
    <g
       id="g50409"
       transform="matrix(0.35277777,0,0,-0.35277777,162.52698,238.43519)">
      <path
         d="m 0,0 c -0.742,0 -1.225,-0.63 -1.296,-1.325 -1.861,0.936 -3.675,1.844 -5.324,2.668 -0.594,0.094 -3.039,0.459 -4.34,0.459 -0.848,0 -3.062,0.742 -7.574,2.302 -2.585,0.902 -6.131,2.133 -6.767,2.145 -0.247,-0.006 -0.795,-0.095 -1.537,-0.254 l 2.868,1.655 c 0.041,0.024 0.083,0.047 0.13,0.071 1.195,-0.335 3.056,-0.96 5.883,-1.944 2.674,-0.93 6.337,-2.202 6.997,-2.208 1.619,0 4.623,-0.477 4.752,-0.501 L -6.072,3.045 -5.954,2.986 C -3.763,1.891 -1.791,0.901 0,0"
         style="fill:#edeeed;fill-opacity:1;fill-rule:nonzero;stroke:none"
         id="path50411" />
    </g>
    <g
       id="g50413"
       transform="matrix(0.35277777,0,0,-0.35277777,175.54963,250.43136)">
      <path
         d="m 0,0 c -0.524,-0.437 -1.119,-0.86 -1.779,-1.249 0.042,2.868 0.053,6.237 -0.088,7.539 -0.206,1.272 -6.361,5.389 -9.67,7.603 -2.574,1.719 -4.606,3.074 -5.365,3.863 -1.225,1.261 -2.456,3.116 -3.31,4.506 -0.054,0.082 -0.1,0.165 -0.148,0.241 0.107,0.047 0.207,0.101 0.313,0.142 0.023,0.011 0.035,0.017 0.052,0.023 0.012,0.006 0.03,0.012 0.054,0.023 0.259,0.101 0.512,0.195 0.777,0.271 0.177,0.054 0.342,0.112 0.489,0.171 0.536,-0.877 1.231,-1.944 1.961,-2.892 0.353,-0.459 0.718,-0.888 1.078,-1.254 0.63,-0.654 2.791,-2.096 5.082,-3.628 C -4.376,11.225 -0.306,8.374 -0.106,6.479 0.018,5.282 0.029,2.579 0,0"
         style="fill:#edeeed;fill-opacity:1;fill-rule:nonzero;stroke:none"
         id="path50415" />
    </g>
    <g
       id="g50417"
       transform="matrix(0.35277777,0,0,-0.35277777,169.17239,242.19965)">
      <path
         d="m 0,0 -5.229,-3.195 -0.907,-0.559 -0.728,-0.442 -1.074,-0.655 -6.463,-3.942 -1.729,-2.763 c -0.117,-0.105 -0.222,-0.211 -0.337,-0.315 -0.422,-0.411 -0.834,-0.833 -1.255,-1.255 l -0.011,-0.011 c -0.474,-0.473 -0.949,-0.926 -1.454,-1.37 -0.222,-0.19 -0.496,-0.285 -0.781,-0.369 -0.063,-0.021 -0.127,-0.032 -0.19,-0.053 -0.959,-0.231 -2.266,-0.369 -3.204,0.032 h -0.011 c -1.413,0.612 -3.51,1.634 -5.587,2.783 -2.088,1.149 -4.144,2.426 -5.493,3.532 -0.369,0.306 -0.696,0.601 -0.981,0.896 -1.454,1.445 -2.034,2.741 -2.319,3.943 -0.084,0.316 -0.137,0.633 -0.19,0.938 -0.168,1.044 -0.168,2.098 -0.221,3.142 -0.031,0.833 0.063,1.128 0.295,1.887 0.127,0.39 0.243,0.78 0.369,1.171 0.285,0.917 0.612,1.95 1.254,2.667 0.76,0.842 1.94,1.413 2.9,1.982 3.226,1.897 6.452,3.784 9.678,5.682 0.527,0.305 1.054,0.611 1.602,0.896 1.444,0.759 2.973,1.339 4.566,1.729 0.695,0.169 1.433,0.443 2.097,0.169 0.443,-0.179 0.865,-0.443 1.297,-0.665 0,0 -0.032,-0.959 0.084,-2.288 0.053,-0.495 0.116,-1.043 0.222,-1.612 0.116,-0.696 0.295,-1.434 0.537,-2.141 0.2,-0.59 0.443,-1.149 0.739,-1.665 0.189,-0.316 0.399,-0.612 0.632,-0.885 0.263,-0.306 0.601,-0.633 1.001,-0.971 2.246,-1.907 6.336,-4.238 8.709,-5.514 1.106,-0.6 1.833,-0.969 1.833,-0.969 0,0 0.127,0.074 0.349,0.19"
         style="fill:#2f6d2f;fill-opacity:1;fill-rule:nonzero;stroke:none"
         id="path50419" />
    </g>
    <g
       id="g50421"
       transform="matrix(0.35277777,0,0,-0.35277777,166.75103,243.68001)">
      <path
         d="m 0,0 -1.075,-0.654 -6.463,-3.943 -1.729,-2.762 c -0.116,-0.106 -0.221,-0.211 -0.337,-0.316 -0.421,-0.411 -0.833,-0.833 -1.254,-1.255 l -0.011,-0.01 c -0.474,-0.474 -0.949,-0.927 -1.455,-1.371 -0.221,-0.19 -0.495,-0.285 -0.78,-0.369 -0.063,-0.021 -0.127,-0.032 -0.19,-0.052 -0.959,-0.232 -2.267,-0.37 -3.205,0.031 h -0.01 c -1.413,0.612 -3.511,1.635 -5.588,2.783 -2.087,1.149 -4.143,2.426 -5.492,3.532 -0.369,0.306 -0.696,0.601 -0.981,0.897 0.233,0.253 0.464,0.442 0.643,0.569 1.371,0.97 14.549,10.194 16.067,9.941 C -10.795,6.842 -4.027,2.583 0,0"
         style="fill:#3e8132;fill-opacity:1;fill-rule:nonzero;stroke:none"
         id="path50423" />
    </g>
    <g
       id="g50425"
       transform="matrix(0.35277777,0,0,-0.35277777,157.14126,239.54796)">
      <path
         d="m 0,0 c 3.226,1.897 6.452,3.784 9.678,5.683 0.528,0.305 1.054,0.61 1.603,0.895 1.444,0.76 2.972,1.339 4.565,1.729 0.695,0.169 1.433,0.443 2.097,0.169 0.443,-0.18 0.865,-0.443 1.297,-0.664 0,0 -0.032,-0.96 0.084,-2.289 0.053,-0.495 0.116,-1.043 0.222,-1.612 0.116,-0.695 0.295,-1.433 0.537,-2.14 0.201,-0.59 0.443,-1.149 0.739,-1.666 0.189,-0.316 0.4,-0.612 0.632,-0.885 0.263,-0.306 0.601,-0.633 1.002,-0.971 2.245,-1.908 6.336,-4.237 8.708,-5.513 0.963,-0.523 1.638,-0.87 1.797,-0.951 l 1.143,0.698 c -0.222,-0.116 -0.349,-0.19 -0.349,-0.19 0,0 -0.727,0.369 -1.833,0.97 -2.373,1.275 -6.463,3.606 -8.709,5.513 -0.4,0.338 -0.738,0.665 -1.001,0.971 -0.233,0.274 -0.443,0.569 -0.632,0.886 -0.296,0.515 -0.538,1.074 -0.739,1.665 -0.242,0.707 -0.421,1.444 -0.537,2.14 -0.106,0.57 -0.169,1.118 -0.222,1.613 -0.116,1.328 -0.084,2.288 -0.084,2.288 -0.432,0.222 -0.854,0.485 -1.297,0.664 -0.664,0.274 -1.402,0 -2.097,-0.169 C 15.011,8.444 13.482,7.864 12.038,7.105 11.49,6.82 10.963,6.515 10.436,6.209 7.21,4.312 3.984,2.425 0.758,0.527 0.032,0.096 -0.82,-0.337 -1.521,-0.887 -1.012,-0.568 -0.479,-0.284 0,0"
         style="fill:#5bb334;fill-opacity:1;fill-rule:nonzero;stroke:none"
         id="path50427" />
    </g>
    <g
       id="g50429"
       transform="matrix(0.35277777,0,0,-0.35277777,170.85567,241.34871)">
      <path
         d="m 0,0 c 0.046,0.013 0.092,0.026 0.137,0.041 l -4.912,-2.449 c 0.4,0.223 1.109,0.619 1.899,1.054 0.433,0.236 0.89,0.485 1.334,0.723 0.155,0.084 0.308,0.165 0.458,0.245 C -0.695,-0.18 -0.334,-0.098 0,0"
         style="fill:#79ca2a;fill-opacity:1;fill-rule:nonzero;stroke:none"
         id="path50431" />
    </g>
    <g
       id="g50433"
       transform="matrix(0.35277777,0,0,-0.35277777,171.72231,241.20471)">
      <path
         d="m 0,0 -2.319,-0.367 c 0.569,0.18 0.961,0.259 1.035,0.262 C -0.745,-0.083 -0.007,0 0,0"
         style="fill:#79ca2a;fill-opacity:1;fill-rule:nonzero;stroke:none"
         id="path50435" />
    </g>
    <g
       id="g50437"
       transform="matrix(0.35277777,0,0,-0.35277777,176.70995,247.82342)">
      <path
         d="m 0,0 c -0.008,-0.395 -0.018,-0.781 -0.034,-1.125 -0.07,-1.56 -0.44,-2.551 -1.373,-3.81 -0.933,-1.258 -1.073,-1.83 -7.368,-5.471 -6.294,-3.643 -12.513,-3.162 -13.92,-3.206 -0.873,-0.029 -1.826,1.36 -1.88,2.147 -0.121,1.757 -0.773,3.921 3.617,4.352 0.445,0.044 0.916,0.161 1.435,0.222 7.302,0.857 8.913,2.241 14.251,5.363 5.337,3.122 5.214,5.918 5.214,5.918 L 0.006,2.903 C 0.006,2.903 0.024,1.4 0,0"
         style="fill:#2f6d2f;fill-opacity:1;fill-rule:nonzero;stroke:none"
         id="path50439" />
    </g>
    <g
       id="g50441"
       transform="matrix(0.35277777,0,0,-0.35277777,154.48251,236.86148)">
      <path
         d="M 0,0 C 0.499,0.288 1.309,0.287 1.811,-0.003 2.312,-0.292 2.315,-0.76 1.816,-1.048 1.318,-1.336 0.507,-1.335 0.006,-1.045 -0.495,-0.756 -0.498,-0.287 0,0"
         style="fill:#458732;fill-opacity:1;fill-rule:nonzero;stroke:none"
         id="path50443" />
    </g>
    <g
       id="g50445"
       transform="matrix(0.35277777,0,0,-0.35277777,155.52416,236.84321)">
      <path
         d="m 0,0 -0.38,-0.004 c -0.502,0.289 -1.311,0.29 -1.808,0.003 -0.01,-0.005 -0.016,-0.012 -0.026,-0.018 l -0.347,-0.002 v -0.504 h 10e-4 c 0.002,-0.189 0.127,-0.377 0.377,-0.521 0.502,-0.29 1.312,-0.291 1.81,-0.004 0.25,0.145 0.374,0.334 0.373,0.525 v 0 z"
         style="fill:#1f1e1d;fill-opacity:1;fill-rule:nonzero;stroke:none"
         id="path50447" />
    </g>
    <g
       id="g50449"
       transform="matrix(0.35277777,0,0,-0.35277777,154.75211,236.6658)">
      <path
         d="M 0,0 C 0.498,0.287 1.309,0.286 1.81,-0.004 2.312,-0.293 2.314,-0.761 1.816,-1.049 1.318,-1.337 0.507,-1.335 0.005,-1.046 -0.496,-0.756 -0.499,-0.288 0,0"
         style="fill:#383738;fill-opacity:1;fill-rule:nonzero;stroke:none"
         id="path50451" />
    </g>
    <g
       id="g50453"
       transform="matrix(0.35277777,0,0,-0.35277777,155.28403,226.7901)">
      <path
         d="M 0,0 -0.178,-0.002 C -0.413,0.133 -0.792,0.134 -1.025,-0.001 -1.03,-0.003 -1.033,-0.007 -1.033,-0.007 L -1.2,-0.011 v -28.435 c 0.002,-0.088 0.06,-0.177 0.178,-0.244 0.234,-0.136 0.614,-0.137 0.848,-0.002 0.117,0.067 0.174,0.157 0.174,0.246 z"
         style="fill:#1f1e1d;fill-opacity:1;fill-rule:nonzero;stroke:none"
         id="path50455" />
    </g>
    <g
       id="g50457"
       transform="matrix(0.35277777,0,0,-0.35277777,154.92229,226.70706)">
      <path
         d="M 0,0 C 0.233,0.135 0.613,0.134 0.849,-0.002 1.083,-0.137 1.084,-0.356 0.851,-0.491 0.617,-0.626 0.237,-0.625 0.003,-0.49 -0.232,-0.354 -0.233,-0.135 0,0"
         style="fill:#383738;fill-opacity:1;fill-rule:nonzero;stroke:none"
         id="path50459" />
    </g>
    <g
       id="g50461"
       transform="matrix(0.35277777,0,0,-0.35277777,155.16412,226.79388)">
      <path
         d="m 0,0 h -0.52 v 1.019 c 0.002,0.054 0.118,4.678 -2.398,6.139 l 0.259,0.449 C 0.127,5.99 0.007,1.213 0,1.01 Z"
         style="fill:#919292;fill-opacity:1;fill-rule:nonzero;stroke:none"
         id="path50463" />
    </g>
    <g
       id="g50465"
       transform="matrix(0.35277777,0,0,-0.35277777,164.48846,246.22593)">
      <path
         d="m 0,0 v 0 c 0.374,0.498 1.529,0.44 2.569,-0.128 l 9.817,-5.364 c 1.039,-0.568 1.583,-1.44 1.21,-1.937 -0.374,-0.497 -1.53,-0.44 -2.569,0.128 L 1.21,-1.937 C 0.17,-1.368 -0.374,-0.497 0,0"
         style="fill:#8ad02a;fill-opacity:1;fill-rule:nonzero;stroke:none"
         id="path50467" />
    </g>
    <g
       id="g50469"
       transform="matrix(0.35277777,0,0,-0.35277777,151.51682,238.6078)">
      <path
         d="M 0,0 V 0 C 0.327,0.522 0.951,0.752 1.387,0.511 L 5.508,-1.771 C 5.943,-2.013 6.033,-2.638 5.706,-3.16 5.379,-3.684 4.754,-3.913 4.319,-3.672 L 0.198,-1.39 C -0.238,-1.148 -0.327,-0.523 0,0"
         style="fill:#8ad02a;fill-opacity:1;fill-rule:nonzero;stroke:none"
         id="path50471" />
    </g>
    <g
       id="g50473"
       transform="matrix(0.35277777,0,0,-0.35277777,166.3719,243.68759)">
      <path
         d="m 0,0 v -0.633 l -4.333,-2.645 -2.13,-1.297 -0.211,-0.337 -1.518,-2.426 c -0.116,-0.105 -0.222,-0.211 -0.337,-0.315 -0.422,-0.411 -0.833,-0.833 -1.255,-1.255 l -0.01,-0.011 c -0.475,-0.474 -0.949,-0.927 -1.455,-1.37 -0.222,-0.19 -0.496,-0.285 -0.78,-0.369 -2.425,1.138 -11.523,5.513 -12.778,7.569 -0.411,0.675 -0.59,1.277 -0.632,1.792 -0.011,0.085 -0.011,0.169 -0.011,0.254 v 0.011 c 0,1.148 0.643,1.823 0.643,1.823 l 2.351,1.434 10.111,6.146 1.444,-1.227 0.422,-0.211 9.077,-3.97 C -0.559,2.552 -0.011,1.687 -0.011,0.749 0,0.506 0,0.253 0,0"
         style="fill:#352827;fill-opacity:1;fill-rule:nonzero;stroke:none"
         id="path50475" />
    </g>
    <g
       id="g50477"
       transform="matrix(0.35277777,0,0,-0.35277777,166.3719,243.68759)">
      <path
         d="m 0,0 c -0.664,-0.653 -1.571,-1.275 -2.436,-1.907 -0.474,-0.349 -1.149,-0.834 -1.897,-1.371 -0.738,-0.528 -1.561,-1.107 -2.341,-1.634 -1.37,-0.928 -2.635,-1.74 -3.204,-1.941 -1.223,-0.453 -13.695,1.993 -12.072,6.547 0,0 10.775,7.186 11.049,7.249 0.095,0.022 0.221,0.011 0.422,-0.01 l 9.077,-3.97 C -0.559,2.552 -0.011,1.687 -0.011,0.749 0,0.506 0,0.253 0,0"
         style="fill:#312423;fill-opacity:1;fill-rule:nonzero;stroke:none"
         id="path50479" />
    </g>
    <g
       id="g50481"
       transform="matrix(0.35277777,0,0,-0.35277777,162.52631,241.16749)">
      <path
         d="m 0,0 v -0.2 c 0,0 -8.919,-5.678 -11.586,-7.639 -0.433,-0.327 -0.707,-0.527 -0.739,-0.58 -0.263,-0.369 -1.592,-1.212 -2.214,-0.021 0,0.01 -0.01,0.01 -0.01,0.021 v 0.232 0.011 c 0,1.676 0.021,11.49 0,11.659 -0.011,0.137 -0.376,1.287 0.795,2.362 0.316,0.306 0.749,0.612 1.307,0.938 2.033,1.196 7.333,4.057 9.497,5.22 0.695,0.374 1.538,0.387 2.228,0.003 C -0.402,11.827 -0.116,11.603 0,11.338 0.294,10.652 0.052,1.444 0,0"
         style="fill:#352827;fill-opacity:1;fill-rule:nonzero;stroke:none"
         id="path50483" />
    </g>
    <g
       id="g50485"
       transform="matrix(0.35277777,0,0,-0.35277777,162.14598,237.16808)">
      <path
         d="m 0,0 v 0 c -0.304,0.404 -1.245,0.358 -2.091,-0.104 l -7.991,-4.367 c -0.846,-0.462 -1.289,-1.171 -0.985,-1.576 h 10e-4 c 0.304,-0.405 1.245,-0.358 2.091,0.104 l 7.99,4.367 C -0.139,-1.114 0.305,-0.405 0,0"
         style="fill:#413433;fill-opacity:1;fill-rule:nonzero;stroke:none"
         id="path50487" />
    </g>
    <g
       id="g50489"
       transform="matrix(0.35277777,0,0,-0.35277777,162.91662,246.83398)">
      <path
         d="m 0,0 c -0.474,-0.474 -0.949,-0.927 -1.455,-1.37 -0.221,-0.191 -0.495,-0.285 -0.78,-0.369 -2.424,1.138 -11.522,5.513 -12.777,7.569 -0.411,0.675 -0.591,1.276 -0.633,1.792 0,0.011 -0.011,0.011 -0.011,0.022 v 0.232 0.011 c 0,1.676 0.022,11.49 0,11.659 -0.01,0.137 0,2.523 0.981,2.014 h 0.01 c 0,0 1.824,0.411 1.962,-1.561 0.074,-1.128 0.063,-5.397 0.041,-8.855 0,-1.097 -0.01,-2.109 -0.031,-2.92 0,-1.139 0.537,0.39 0.537,0.39 0,0 9.091,-5.497 11.906,-6.551 C 0.15,1.915 -0.232,0.253 0,0"
         style="fill:#2b2020;fill-opacity:1;fill-rule:nonzero;stroke:none"
         id="path50491" />
    </g>
    <g
       id="g50493"
       transform="matrix(0.35277777,0,0,-0.35277777,167.27297,241.23469)">
      <path
         d="m 0,0 c -0.37,0 -1.553,-0.286 -3.5,-1.621 -2.606,-1.785 -4.205,-3.83 -4.205,-4.509 0.169,-0.11 1.395,0.054 3.609,1.571 2.605,1.786 4.205,3.829 4.205,4.509 0,0.026 -0.003,0.035 -0.003,0.035 C 0.087,-0.006 0.051,0 0,0 m -7.564,-7.201 c -0.247,0 -0.471,0.043 -0.661,0.143 -0.339,0.179 -0.535,0.518 -0.535,0.928 0,1.418 2.403,3.83 4.664,5.379 0.796,0.548 3.491,2.278 4.724,1.629 0.34,-0.179 0.536,-0.518 0.536,-0.928 0,-1.418 -2.403,-3.83 -4.664,-5.379 -0.674,-0.462 -2.707,-1.772 -4.064,-1.772"
         style="fill:#2b2020;fill-opacity:1;fill-rule:nonzero;stroke:none"
         id="path50495" />
    </g>
    <g
       id="g50497"
       transform="matrix(0.35277777,0,0,-0.35277777,164.55598,243.57597)">
      <path
         d="M 0,0 -0.571,0.886 4.182,3.953 7.3,7.365 8.077,6.654 4.811,3.104 Z"
         style="fill:#2b2020;fill-opacity:1;fill-rule:nonzero;stroke:none"
         id="path50499" />
    </g>
    <g
       id="g50501"
       transform="matrix(0.35277777,0,0,-0.35277777,167.32754,243.32688)">
      <path
         d="m 0,0 -0.906,-0.559 -2.816,3.047 0.781,0.707 z"
         style="fill:#2b2020;fill-opacity:1;fill-rule:nonzero;stroke:none"
         id="path50503" />
    </g>
    <g
       id="g50505"
       transform="matrix(0.35277777,0,0,-0.35277777,171.37037,251.78427)">
      <path
         d="m 0,0 c -0.316,-1.139 -1.803,-1.18 -3.131,-1.391 -2.204,-0.327 -4.608,-0.296 -4.608,-0.296 0,0 -0.136,0.064 -0.326,0.244 -0.39,0.369 -0.959,1.222 -0.865,2.982 0.137,2.573 3.153,1.688 7.58,2.573 C -0.106,2.003 0.21,0.76 0,0"
         style="fill:#e8eb3c;fill-opacity:1;fill-rule:nonzero;stroke:none"
         id="path50507" />
    </g>
    <g
       id="g50509"
       transform="matrix(0.35277777,0,0,-0.35277777,176.70356,248.17655)">
      <path
         d="m 0,0 c -0.2,-1.539 -0.822,-2.825 -1.276,-3.3 -0.032,-0.031 -0.063,-0.062 -0.095,-0.084 -0.4,-0.211 -0.611,1.023 -0.527,2.13 0.085,1.191 0.264,2.667 0.39,2.815 C -0.359,2.952 0,4.428 0,4.428 0,4.428 0.042,3.722 0.063,2.825 0.095,1.908 0.105,0.78 0,0"
         style="fill:#e8eb3c;fill-opacity:1;fill-rule:nonzero;stroke:none"
         id="path50511" />
    </g>
    <g
       id="g50513"
       transform="matrix(0.35277777,0,0,-0.35277777,171.37037,251.78427)">
      <path
         d="m 0,0 c -0.264,-0.021 -0.517,0.032 -0.738,0.159 -1.297,0.727 -0.77,0.548 -2.088,0.137 -1.317,-0.422 -3.331,-0.137 -4.301,-0.559 -0.664,-0.285 -0.875,-0.854 -0.938,-1.18 -0.39,0.369 -0.959,1.222 -0.865,2.982 0.137,2.573 3.153,1.688 7.58,2.573 C -0.106,2.003 0.21,0.76 0,0"
         style="fill:#d16c1c;fill-opacity:1;fill-rule:nonzero;stroke:none"
         id="path50515" />
    </g>
    <g
       id="g50517"
       transform="matrix(0.35277777,0,0,-0.35277777,176.72579,247.17988)">
      <path
         d="m 0,0 c -0.073,-0.222 -0.168,-0.442 -0.263,-0.632 -0.2,-0.432 -0.401,-0.759 -0.411,-0.907 -0.042,-0.379 -0.18,-0.728 -0.601,-1.286 -0.201,-0.264 -0.307,-0.453 -0.348,-0.696 -0.074,-0.285 -0.074,-0.632 -0.085,-1.233 -0.01,-0.653 0.148,-1.16 0.274,-1.455 -0.4,-0.211 -0.611,1.022 -0.527,2.13 0.085,1.19 0.264,2.667 0.39,2.814 0.127,0.148 0.232,0.295 0.338,0.453 0.369,0.506 0.632,1.012 0.801,1.424 0.274,0.59 0.369,0.991 0.369,0.991 0,0 0.042,-0.707 0.063,-1.603"
         style="fill:#d16c1c;fill-opacity:1;fill-rule:nonzero;stroke:none"
         id="path50519" />
    </g>
    <g
       id="g50521"
       transform="matrix(0.35277777,0,0,-0.35277777,176.63671,247.33595)">
      <path
         d="m 0,0 c 0,-0.063 0,-0.127 -0.011,-0.189 -0.01,-0.37 -0.063,-0.697 -0.148,-0.886 l -0.927,-2.13 c -0.106,-0.221 -0.211,-0.158 -0.285,0.127 -0.032,0.095 -0.063,0.222 -0.073,0.369 -0.011,0.146 -0.022,0.306 -0.022,0.463 0,0.453 0.053,0.896 0.148,1.118 l 0.338,0.759 c 0.368,0.506 0.632,1.012 0.8,1.424 C -0.105,0.959 -0.064,0.77 -0.032,0.506 -0.011,0.348 0,0.169 0,0"
         style="fill:#e8eb3c;fill-opacity:1;fill-rule:nonzero;stroke:none"
         id="path50523" />
    </g>
    <g
       id="g50525"
       transform="matrix(0.35277777,0,0,-0.35277777,170.27535,251.5231)">
      <path
         d="m 0,0 -4.083,-0.448 c -0.57,-0.063 -1.088,0.352 -1.151,0.924 -0.063,0.57 0.353,1.087 0.923,1.151 l 4.082,0.448 C 0.342,2.138 0.86,1.723 0.923,1.152 0.986,0.582 0.57,0.062 0,0"
         style="fill:#e8eb3c;fill-opacity:1;fill-rule:nonzero;stroke:none"
         id="path50527" />
    </g>
  </g>
  <g
     id="g6244"
     transform="matrix(2.4486965,0,0,3.2907657,153.26414,-356.29891)">
    <g
       id="g2506"
       transform="matrix(0.35277777,0,0,-0.35277777,14.374393,166.23077)">
      <g
         id="g2508" />
      <g
         id="g2520">
        <g
           clip-path="url(#clipPath2512)"
           id="g2518">
          <g
             transform="translate(73.772,127.431)"
             id="g2516">
            <path
               d="m 0,0 -52.943,-30.579 c -10.067,-5.812 -8.804,-15.962 2.818,-22.673 l 1.379,-0.796 c 11.623,-6.71 29.204,-7.438 39.27,-1.628 l 52.943,30.58 c 10.067,5.812 8.804,15.962 -2.819,22.672 L 39.27,-1.627 C 27.647,5.083 10.065,5.812 0,0"
               style="fill:#ababaa;fill-opacity:1;fill-rule:nonzero;stroke:none"
               id="path2514" />
          </g>
        </g>
      </g>
    </g>
    <g
       id="g2522"
       transform="matrix(0.35277777,0,0,-0.35277777,41.911203,122.39767)">
      <path
         d="m 0,0 -50.118,-28.948 c -9.528,-5.501 -8.333,-15.111 2.669,-21.463 l 1.305,-0.753 c 11.003,-6.353 27.646,-7.043 37.175,-1.541 l 50.117,28.947 c 9.529,5.501 8.334,15.112 -2.669,21.463 l -1.304,0.753 C 26.173,4.812 9.529,5.5 0,0"
         style="fill:#221b1a;fill-opacity:1;fill-rule:nonzero;stroke:none"
         id="path2524" />
    </g>
    <g
       id="g2526"
       transform="matrix(0.35277777,0,0,-0.35277777,58.816455,123.95346)">
      <path
         d="m 0,0 c 0,0 1.222,-8.416 -0.268,-12.294 -1.489,-3.878 -64.593,-36.677 -64.593,-36.677 l -39.155,13.544 c 0,0 -0.604,5.581 -0.115,10.849 C -100.505,-24.893 -100.578,-24.722 0,0"
         style="fill:#221b1a;fill-opacity:1;fill-rule:nonzero;stroke:none"
         id="path2528" />
    </g>
    <g
       id="g2530"
       transform="matrix(0.35277777,0,0,-0.35277777,25.29223,137.02828)">
      <path
         d="m 0,0 1.304,-0.755 c 11.002,-6.35 27.646,-7.041 37.174,-1.54 l 50.119,28.948 c 6.381,3.684 7.952,9.209 4.99,14.367 -0.439,0.765 -0.98,1.524 -1.619,2.266 -1.014,1.179 -2.277,2.317 -3.785,3.386 -0.699,0.498 -1.451,0.978 -2.255,1.443 l -1.306,0.754 c -3.361,1.941 -7.25,3.354 -11.302,4.222 -5.799,1.243 -11.93,1.373 -17.329,0.344 -3.173,-0.606 -6.094,-1.611 -8.542,-3.025 L 35.53,43.518 c -4.336,-3.689 -13.904,-8.543 -13.904,-8.543 0,0 -0.166,0.094 -0.451,0.254 L 20.27,34.706 12.725,30.351 -2.669,21.463 C -3.105,21.211 -3.52,20.949 -3.91,20.682 -4.732,20.118 -5.456,19.52 -6.08,18.893 -6.405,18.567 -6.704,18.232 -6.977,17.893 -11.377,12.393 -8.892,5.134 0,0"
         style="fill:#2b2020;fill-opacity:1;fill-rule:nonzero;stroke:none"
         id="path2532" />
    </g>
    <g
       id="g2534"
       transform="matrix(0.35277777,0,0,-0.35277777,33.170992,138.44493)">
      <path
         d="m 0,0 c 6.011,0 11.486,1.249 15.415,3.517 l 50.117,28.948 c 2.765,1.597 4.613,3.61 5.343,5.823 0.686,2.08 0.379,4.345 -0.888,6.551 -0.395,0.688 -0.885,1.375 -1.46,2.041 -0.953,1.107 -2.138,2.166 -3.522,3.146 -0.658,0.469 -1.377,0.93 -2.141,1.371 l -1.306,0.754 c -3.115,1.798 -6.876,3.202 -10.877,4.058 -3.098,0.664 -6.269,1.001 -9.424,1.001 -2.552,0 -5.016,-0.224 -7.326,-0.663 -3.116,-0.595 -5.836,-1.556 -8.085,-2.855 L 14.04,46.864 C 9.583,43.121 0.347,38.419 -0.046,38.219 l -0.7,-0.355 -0.405,0.23 -23.121,-13.35 c -0.406,-0.234 -0.79,-0.477 -1.144,-0.72 -0.738,-0.504 -1.397,-1.048 -1.962,-1.616 -0.283,-0.282 -0.548,-0.579 -0.791,-0.882 -1.529,-1.91 -2.093,-4.005 -1.674,-6.228 0.645,-3.421 3.571,-6.79 8.24,-9.486 l 1.305,-0.754 C -14.729,1.843 -7.331,0 0,0"
         style="fill:#352827;fill-opacity:1;fill-rule:nonzero;stroke:none"
         id="path2536" />
    </g>
    <g
       id="g2538"
       transform="matrix(0.35277777,0,0,-0.35277777,55.720865,126.21483)">
      <path
         d="m 0,0 -51.991,-30.019 c -7.207,-4.163 -19.782,-3.666 -28.139,1.111 -0.038,0.023 -0.07,0.039 -0.109,0.062 l -2.244,1.289 -2.913,1.686 c -0.023,0.016 -0.046,0.031 -0.069,0.047 -0.863,0.497 -1.647,1.048 -2.346,1.646 -6.043,5.111 -6.082,13.118 0.388,16.862 l 22.042,11.774 2.563,1.367 27.386,14.633 c 2.516,1.452 5.693,1.988 9.11,1.855 2.594,-0.084 5.321,-0.558 8.023,-1.289 3.977,-1.087 7.868,-2.749 11.122,-4.621 l 5.15,-2.974 C 6.337,8.598 7.246,4.179 0,0"
         style="fill:#f47315;fill-opacity:1;fill-rule:nonzero;stroke:none"
         id="path2540" />
    </g>
    <g
       id="g2542"
       transform="matrix(0.35277777,0,0,-0.35277777,23.156125,132.14556)">
      <path
         d="m 0,0 c 0.001,-0.01 0.003,-0.021 0.003,-0.032 l 0.002,-0.007 c 0.079,-0.705 0.409,0.102 0.409,0.102 l 38.057,-9.385 58.723,32.962 0.005,0.005 c 0,0 0.049,1.752 0.068,3.956 0.019,2.02 0.012,1.535 -0.079,3.305 -0.046,0.911 -0.116,1.656 -0.215,2.096 -0.006,0.023 -0.012,0.047 -0.017,0.07 0,0.004 -0.002,0.01 -0.002,0.01 -0.015,0.056 -0.03,0.107 -0.044,0.159 -0.008,0.03 -0.017,0.06 -0.027,0.089 -0.009,0.036 -0.02,0.07 -0.033,0.107 -0.624,1.992 -2.223,4.383 -2.223,4.383 l -0.003,10e-4 -2.041,1.15 -11.063,6.228 -3.422,1.928 -0.005,10e-4 c -0.004,0.002 -0.007,0.002 -0.007,0.002 -0.014,0.002 -0.023,0.003 -0.034,0.007 -0.518,0.104 -5.51,1.049 -12.715,0.111 -0.086,-0.01 -0.17,-0.02 -0.255,-0.032 -0.31,-0.042 -0.926,-1.275 -1.244,-1.323 -0.557,-0.292 -2.469,0.671 -4.938,-0.779 -1.766,-1.038 -3.401,-0.185 -5.859,-1.643 -1.859,-1.105 -3.882,-2.306 -6.016,-3.577 -0.277,-0.165 -0.557,-0.332 -0.838,-0.499 -0.164,-0.928 -0.394,-1.899 -0.712,-2.832 -0.261,-0.768 -0.583,-1.511 -0.98,-2.188 -0.246,-0.419 -0.52,-0.813 -0.826,-1.169 -0.347,-0.405 -0.797,-0.838 -1.326,-1.286 -4.336,-3.689 -13.905,-8.543 -13.905,-8.543 0,0 -0.165,0.095 -0.451,0.254 -0.528,0.295 -1.462,0.817 -2.504,1.389 -0.57,0.312 -1.173,0.64 -1.759,0.955 -0.333,-0.2 -0.665,-0.399 -0.995,-0.595 C 20.202,23.867 17.762,22.405 15.48,21.037 6.638,15.739 0.158,14.091 0.158,14.091 c 0,0 -0.001,-0.003 0,-0.006 C 0.151,14.016 0.091,13.28 0.02,12.188 -0.045,11.19 -0.117,9.894 -0.164,8.536 -0.243,6.229 -0.246,1.502 0,0"
         style="fill:#f47315;fill-opacity:1;fill-rule:nonzero;stroke:none"
         id="path2544" />
    </g>
    <g
       id="g2546"
       transform="matrix(0.35277777,0,0,-0.35277777,23.211935,127.17672)">
      <path
         d="m 0,0 c -0.001,0.003 -0.001,0.005 -0.001,0.005 0.476,2.13 2.034,3.013 4.725,4.566 l 10.034,4.566 c 0.128,0.157 3.532,4.125 3.532,4.125 l 1.695,-0.141 0.782,-0.173 0.584,-0.172 c 0.488,-0.156 3.403,-1.529 3.974,-1.841 1.042,-0.572 1.976,-1.094 2.504,-1.389 0.286,-0.159 0.451,-0.254 0.451,-0.254 0,0 9.569,4.854 13.905,8.543 0.529,0.448 0.979,0.881 1.326,1.286 0.306,0.357 0.579,0.75 0.825,1.169 0.397,0.677 0.72,1.42 0.98,2.189 0.319,0.932 0.549,1.903 0.713,2.832 0.132,0.751 0.222,1.472 0.284,2.127 l 1.172,0.677 0.89,3.314 c 0,0 16.231,1.662 16.548,1.702 0.086,0.012 0.17,0.022 0.256,0.032 2.115,0.252 4.337,0.287 6.566,0.111 3.297,-0.26 6.611,-0.984 9.616,-2.16 1.266,-0.495 2.477,-1.07 3.61,-1.723 l 5.154,-2.975 c 0.843,-0.486 1.609,-0.999 2.3,-1.53 1.09,-0.838 1.99,-1.724 2.696,-2.637 0.733,-0.946 1.258,-1.92 1.571,-2.897 0.013,-0.037 0.024,-0.071 0.033,-0.107 0.009,-0.029 0.019,-0.058 0.027,-0.089 0.014,-0.052 0.029,-0.103 0.042,-0.155 0,0 0.003,-0.01 0.003,-0.014 0.006,-0.023 0.012,-0.047 0.017,-0.07 0.183,-0.701 0.257,-1.403 0.215,-2.096 -0.075,-1.37 -0.586,0.183 -1.538,-1.038 -0.761,-0.975 -2.044,-1.442 -3.175,-1.907 -1.487,-0.611 -3.021,-1.108 -4.584,-1.489 -1.676,-0.409 -3.459,-0.773 -5.19,-0.824 -0.733,-0.022 -3.766,-0.312 -3.766,-1.068 0,-1.018 -0.18,-6.641 -2.047,-9.261 -1.151,-1.615 -2.589,-3.095 -5.544,-5.077 -3.42,-2.293 -9.97,-5.755 -12.124,-6.595 -6.021,-2.346 -6.664,2.06 -8.149,0.023 -1.451,-1.989 -4.025,-2.731 -6.078,-3.915 -1.556,-0.899 -3.113,-1.797 -4.669,-2.696 -7.242,-4.18 -19.892,-1.415 -28.253,3.412 L 6.76,-10.64 c -2.051,1.184 -3.653,2.517 -4.796,3.915 -0.582,0.713 -1.045,1.443 -1.389,2.177 -0.41,0.88 -0.649,1.77 -0.713,2.651 C -0.186,-1.258 -0.141,-0.623 0,0"
         style="fill:#f79410;fill-opacity:1;fill-rule:nonzero;stroke:none"
         id="path2548" />
    </g>
    <g
       id="g2550"
       transform="matrix(0.35277777,0,0,-0.35277777,55.71261,121.34587)">
      <path
         d="m 0,0 -0.419,-0.241 -0.925,-0.536 -2.221,-1.282 -14.834,0.739 -23.363,-19.907 -7.751,-4.473 -10.011,-3.542 c -4.792,-2.765 -12.606,-2.897 -18.858,-0.574 -0.785,0.287 -1.554,0.621 -2.276,0.994 -0.318,0.155 -0.621,0.326 -0.924,0.497 l -2.423,1.397 c -2.454,1.414 -4.078,3.099 -4.862,4.831 -0.42,0.94 -0.598,1.888 -0.513,2.812 0.163,1.911 1.414,3.713 3.798,5.087 l 10.345,3.736 7.527,4.35 0.908,0.519 c 1.041,-0.574 1.973,-1.094 2.501,-1.389 0.287,-0.156 0.45,-0.257 0.45,-0.257 0,0 9.569,4.854 13.911,8.544 0.528,0.45 0.978,0.885 1.32,1.289 0.311,0.357 0.582,0.746 0.831,1.165 0.396,0.676 0.715,1.422 0.979,2.19 l 0.776,0.45 9.251,5.344 7.044,4.062 3.674,-0.761 c 1.576,0.909 3.549,1.476 5.685,1.701 1.973,0.217 4.085,0.14 6.144,-0.225 h 0.03 c 1.561,-0.28 3.084,-0.715 4.49,-1.313 0.652,-0.271 1.274,-0.574 1.864,-0.916 l 1.646,-0.956 2.618,-1.507 h 0.007 l 2.269,-1.312 C -0.948,10.307 -0.606,10.089 -0.288,9.855 0.885,9.04 1.763,8.14 2.338,7.207 2.641,6.718 2.858,6.221 2.99,5.724 3.557,3.604 2.586,1.491 0,0"
         style="fill:#f9ac15;fill-opacity:1;fill-rule:nonzero;stroke:none"
         id="path2552" />
    </g>
    <g
       id="g2554"
       transform="matrix(0.35277777,0,0,-0.35277777,48.271363,125.70257)">
      <path
         d="m 0,0 c -0.492,-0.554 -1.113,-0.978 -1.743,-1.37 -1.073,-0.67 -2.19,-1.271 -3.34,-1.797 -1.288,-0.589 -2.617,-1.084 -3.949,-1.565 -3.696,-1.337 -7.427,-2.58 -11.186,-3.727 -1.586,-0.484 -3.12,-0.771 -4.534,0.208 -0.585,0.406 -1.198,0.776 -1.806,1.15 -2.862,1.76 -5.77,3.448 -8.674,5.137 -3.247,1.891 -6.503,3.768 -9.757,5.648 -1.669,0.962 -3.459,1.84 -5.042,2.944 -0.907,0.633 -3.358,1.708 -3.035,2.081 l 0.323,0.373 3.465,-1.014 8.662,-4.249 c 0.068,0 0.22,0.283 0.274,0.322 0.239,0.172 0.453,0.1 0.751,0.11 0.673,0.02 1.344,0.003 2.018,0.047 1.389,0.09 2.775,0.306 4.106,0.723 1.599,0.5 3.094,1.279 4.58,2.053 0.834,0.435 1.678,0.876 2.386,1.495 1.206,1.054 1.93,2.54 2.611,3.99 0.522,1.11 1.041,2.236 1.283,3.438 0.201,0.998 0.208,2.023 0.202,3.042 -0.006,1.073 -0.024,2.147 -0.053,3.219 -0.014,0.488 -0.671,2.055 -0.525,2.235 -0.163,0.18 -1.674,1.703 -1.617,1.786 0.053,0.077 1.053,1.499 3.231,1.277 2.238,-0.23 4.408,-1.16 5.515,-1.16 1.106,0 7.209,1.76 7.209,1.76 0,0 9.968,-3.139 16.918,-8.23 6.951,-5.092 10.547,-4.781 9.258,-6.748 C 14.107,12.444 10.472,10.454 6.896,11.538 6.417,11.684 5.945,11.908 5.623,12.289 5.457,12.485 5.335,12.718 5.158,12.905 4.707,13.382 3.984,13.481 3.33,13.433 3.175,13.421 3.01,13.397 2.896,13.292 2.759,13.161 2.744,12.95 2.738,12.761 2.663,10.178 2.625,7.586 2.867,5.014 2.91,4.55 3.079,3.789 2.823,3.363 2.641,3.058 2.214,2.894 1.956,2.65 1.149,1.886 0.733,0.825 0,0"
         style="fill:#f9ac15;fill-opacity:1;fill-rule:nonzero;stroke:none"
         id="path2556" />
    </g>
    <path
       d="m 35.447538,129.36881 2.79788,1.04422 c 0,0 1.527881,-0.9973 1.700037,-1.62242 0.02011,-0.0734 0.06315,-0.13053 0.115358,-0.17886 0.390172,-0.36371 1.303867,-0.26529 -2.802114,-3.24097 -1.252714,-0.90805 -2.32163,-1.51765 -3.215922,-1.92229 -0.513292,0.27729 -0.854075,0.45015 -0.854075,0.45015 0,0 -0.05856,-0.0335 -0.159103,-0.0896 -0.186619,-0.10407 -0.516114,-0.28822 -0.883708,-0.48965 -0.201083,-0.11042 -0.413808,-0.22613 -0.620536,-0.33726 -0.07197,-0.0388 -0.143228,-0.0765 -0.213078,-0.1143 -0.180622,-0.0952 -0.348897,-0.13405 -0.504119,-0.17921 -0.219428,0.0201 -0.327025,0.0582 -0.327025,0.0582 0,0 -0.01693,0.0378 -0.04692,0.10266 -0.193322,0.42051 -0.770114,1.81857 -1.807633,2.50119 -0.363714,0.23989 6.820958,4.01814 6.820958,4.01814"
       style="fill:#f9ac15;fill-opacity:1;fill-rule:nonzero;stroke:none;stroke-width:0.352778"
       id="path2560" />
    <g
       id="g2562"
       transform="matrix(0.35277777,0,0,-0.35277777,55.611151,117.8691)">
      <path
         d="m 0,0 c -0.054,0.008 -0.093,0.008 -0.132,0.008 -0.885,-0.016 -5.537,-0.745 -9.297,-1.352 -4.093,-0.66 -6.982,-1.118 -8.559,-1.289 -0.458,-0.054 -0.807,-0.077 -1.048,-0.077 -1.716,0 -4.94,-0.489 -5.724,-0.606 -11.006,-5.506 -27.448,-13.817 -29.483,-15.076 -0.66,-1.226 -3.184,-5.599 -5.638,-8.131 -1.01,-1.033 -3.69,-2.828 -7.076,-5.095 -3.223,-2.152 -8.489,-5.67 -11.138,-8.054 -0.939,-0.839 -1.553,-1.53 -1.623,-1.973 -0.194,-1.872 -0.163,-6.966 -0.101,-10.92 -0.038,0.023 -0.07,0.039 -0.109,0.062 l -2.244,1.289 c -0.047,3.752 -0.047,8.047 0.14,9.818 0.085,0.784 0.66,1.685 1.662,2.718 2.205,2.291 6.493,5.242 12.116,8.993 3.013,2.02 5.864,3.923 6.695,4.785 2.454,2.532 5.095,7.255 5.359,7.805 0.225,0.451 0.435,0.878 30.189,15.751 0.125,0.063 0.249,0.125 0.373,0.187 l 0.156,0.086 0.178,0.023 c 0.163,0.03 4.124,0.668 6.268,0.668 0.932,0 5.343,0.706 9.242,1.336 2.68,0.435 4.855,0.776 6.493,1.017 h 0.008 L -1.025,0.66 C -0.66,0.451 -0.318,0.233 0,0"
         style="fill:#edeeed;fill-opacity:1;fill-rule:nonzero;stroke:none"
         id="path2564" />
    </g>
    <g
       id="g2566"
       transform="matrix(0.35277777,0,0,-0.35277777,33.880711,124.31072)">
      <path
         d="m 0,0 c -1.041,-1.615 -2.345,-3.44 -3.627,-4.761 -1.002,-1.041 -3.681,-2.835 -7.076,-5.102 -4.364,-2.912 -12.481,-8.342 -12.753,-10.02 -0.209,-1.941 -0.163,-7.331 -0.1,-11.339 -0.862,0.497 -1.647,1.048 -2.346,1.647 -0.055,3.774 -0.062,8.139 0.124,9.933 0.264,2.509 5.631,6.268 13.778,11.72 3.022,2.02 5.872,3.923 6.703,4.784 0.606,0.63 1.227,1.391 1.825,2.199 0.497,0.668 0.972,1.367 1.406,2.035 C -1.693,0.854 -1.305,0.63 -0.909,0.428 -0.613,0.28 -0.311,0.133 0,0"
         style="fill:#edeeed;fill-opacity:1;fill-rule:nonzero;stroke:none"
         id="path2568" />
    </g>
    <g
       id="g2570"
       transform="matrix(0.35277777,0,0,-0.35277777,53.523412,116.64161)">
      <path
         d="m 0,0 c -1.468,-0.132 -5.515,-0.784 -8.839,-1.32 -5.289,-0.855 -8.574,-1.374 -9.623,-1.374 -1.716,0 -4.939,-0.483 -5.724,-0.607 -3.013,-1.507 -6.439,-3.222 -9.856,-4.947 0.109,0.505 0.047,1.057 -0.202,1.476 -0.178,0.31 -0.427,0.528 -0.699,0.683 2.874,1.444 6.144,3.091 9.88,4.955 l 0.155,0.078 0.179,0.032 c 0.17,0.022 4.131,0.66 6.267,0.66 0.94,0 5.352,0.714 9.251,1.343 2.267,0.365 4.178,0.667 5.7,0.893 0.653,-0.271 1.274,-0.574 1.865,-0.916 z"
         style="fill:#edeeed;fill-opacity:1;fill-rule:nonzero;stroke:none"
         id="path2572" />
    </g>
    <g
       id="g2574"
       transform="matrix(0.35277777,0,0,-0.35277777,50.7818,123.65374)">
      <path
         d="m 0,0 c -0.066,-1.373 -0.066,-2.766 -0.286,-4.147 -0.076,-0.401 -0.143,-0.82 -0.257,-1.231 -0.373,-1.592 -1.135,-3.298 -3.051,-5.204 -0.382,-0.392 -0.811,-0.782 -1.297,-1.184 -1.782,-1.458 -4.49,-3.135 -7.245,-4.652 -2.737,-1.516 -5.502,-2.869 -7.37,-3.67 h -0.01 c -1.239,-0.534 -2.964,-0.352 -4.223,-0.048 -0.086,0.03 -0.172,0.048 -0.258,0.077 -0.371,0.105 -0.733,0.228 -1.029,0.486 -0.382,0.334 -0.753,0.677 -1.115,1.03 -0.267,0.247 -0.534,0.505 -0.802,0.772 l -0.009,0.019 c -0.563,0.553 -1.106,1.106 -1.659,1.649 -0.152,0.143 -0.285,0.277 -0.448,0.419 l -1.125,1.793 -1.153,1.85 -8.524,5.196 -1.411,0.867 -0.962,0.582 -1.192,0.734 -2.022,1.229 -4.88,2.985 c 0.295,-0.153 0.457,-0.248 0.457,-0.248 0,0 0.963,0.486 2.421,1.277 0.582,0.315 1.231,0.678 1.936,1.068 2.135,1.192 4.71,2.708 6.883,4.205 1.001,0.686 1.907,1.363 2.67,2.001 0.524,0.449 0.972,0.878 1.315,1.278 0.305,0.363 0.592,0.753 0.839,1.173 0.391,0.676 0.705,1.411 0.973,2.192 0.314,0.935 0.553,1.907 0.705,2.822 0.144,0.753 0.229,1.479 0.296,2.126 0.152,1.754 0.114,3.023 0.114,3.023 0.562,0.286 1.125,0.638 1.707,0.868 0.877,0.361 1.849,0 2.764,-0.22 2.098,-0.515 4.119,-1.278 6.026,-2.278 0.715,-0.372 1.411,-0.782 2.107,-1.183 4.252,-2.508 8.514,-4.996 12.765,-7.494 1.268,-0.753 2.823,-1.506 3.823,-2.611 0.849,-0.945 1.278,-2.308 1.65,-3.518 0.172,-0.515 0.324,-1.03 0.496,-1.545 C -0.076,1.487 0.048,1.097 0,0"
         style="fill:#c33c21;fill-opacity:1;fill-rule:nonzero;stroke:none"
         id="path2576" />
    </g>
    <g
       id="g2578"
       transform="matrix(0.35277777,0,0,-0.35277777,36.220933,125.76317)">
      <path
         d="m 0,0 1.418,-0.862 8.522,-5.2 2.281,-3.642 c 0.153,-0.14 0.292,-0.278 0.445,-0.417 0.556,-0.542 1.098,-1.099 1.654,-1.654 l 0.013,-0.015 c 0.627,-0.626 1.252,-1.224 1.919,-1.807 0.292,-0.251 0.654,-0.376 1.029,-0.487 0.084,-0.027 0.167,-0.042 0.251,-0.069 1.265,-0.306 2.989,-0.487 4.226,0.042 h 0.014 c 1.864,0.806 4.63,2.155 7.369,3.67 2.753,1.516 5.464,3.198 7.243,4.658 0.487,0.402 0.918,0.792 1.293,1.18 -0.305,0.334 -0.611,0.585 -0.847,0.751 C 35.022,-2.572 17.643,9.593 15.641,9.26 14.237,9.023 5.311,3.406 0,0"
         style="fill:#a62820;fill-opacity:1;fill-rule:nonzero;stroke:none"
         id="path2580" />
    </g>
    <g
       id="g2582"
       transform="matrix(0.35277777,0,0,-0.35277777,48.894086,120.3141)">
      <path
         d="m 0,0 c -4.255,2.503 -8.509,4.991 -12.763,7.494 -0.695,0.403 -1.39,0.807 -2.113,1.182 -1.905,1.001 -3.921,1.765 -6.02,2.28 -0.918,0.222 -1.891,0.584 -2.767,0.222 -0.584,-0.237 -1.14,-0.583 -1.711,-0.875 0,0 0.042,-1.266 -0.11,-3.018 -0.07,-0.653 -0.154,-1.376 -0.292,-2.127 -0.154,-0.918 -0.39,-1.89 -0.71,-2.822 -0.264,-0.778 -0.583,-1.516 -0.973,-2.196 -0.249,-0.418 -0.528,-0.807 -0.834,-1.168 -0.347,-0.404 -0.792,-0.834 -1.32,-1.28 -2.962,-2.516 -8.357,-5.588 -11.484,-7.271 -1.272,-0.69 -2.161,-1.147 -2.371,-1.255 l -1.507,0.921 c 0.292,-0.152 0.459,-0.25 0.459,-0.25 0,0 0.959,0.487 2.419,1.279 3.128,1.682 8.523,4.755 11.484,7.272 0.528,0.445 0.974,0.875 1.321,1.279 0.305,0.361 0.584,0.75 0.834,1.168 0.39,0.681 0.709,1.418 0.973,2.196 0.32,0.932 0.556,1.905 0.71,2.823 0.138,0.75 0.222,1.473 0.292,2.126 0.152,1.752 0.11,3.018 0.11,3.018 0.57,0.292 1.127,0.639 1.711,0.875 0.876,0.361 1.849,0 2.766,-0.222 2.1,-0.514 4.115,-1.279 6.021,-2.28 0.722,-0.376 1.417,-0.778 2.112,-1.183 C -9.508,5.687 -5.254,3.198 -0.999,0.695 -0.042,0.127 1.082,-0.443 2.006,-1.169 1.335,-0.749 0.631,-0.374 0,0"
         style="fill:#f79410;fill-opacity:1;fill-rule:nonzero;stroke:none"
         id="path2584" />
    </g>
    <g
       id="g2586"
       transform="matrix(0.35277777,0,0,-0.35277777,30.808016,122.68879)">
      <path
         d="M 0,0 C -0.061,0.018 -0.122,0.036 -0.181,0.055 L 6.297,-3.176 C 5.769,-2.881 4.834,-2.358 3.792,-1.787 3.222,-1.475 2.619,-1.146 2.033,-0.832 1.829,-0.722 1.627,-0.614 1.43,-0.508 0.917,-0.237 0.44,-0.128 0,0"
         style="fill:#ef3423;fill-opacity:1;fill-rule:nonzero;stroke:none"
         id="path2588" />
    </g>
    <g
       id="g2590"
       transform="matrix(0.35277777,0,0,-0.35277777,29.664769,122.4986)">
      <path
         d="M 0,0 3.06,-0.484 C 2.309,-0.246 1.792,-0.144 1.694,-0.14 0.983,-0.11 0.01,0 0,0"
         style="fill:#ef3423;fill-opacity:1;fill-rule:nonzero;stroke:none"
         id="path2592" />
    </g>
    <g
       id="g2594"
       transform="matrix(0.35277777,0,0,-0.35277777,29.817381,128.71081)">
      <path
         d="m 0,0 c -0.657,0.38 -1.726,0.378 -2.387,-0.004 -0.661,-0.383 -0.665,-0.999 -0.008,-1.379 0.658,-0.38 1.727,-0.377 2.388,0.005 C 0.654,-0.997 0.657,-0.38 0,0"
         style="fill:#c33c21;fill-opacity:1;fill-rule:nonzero;stroke:none"
         id="path2596" />
    </g>
    <g
       id="g2598"
       transform="matrix(0.35277777,0,0,-0.35277777,29.148338,128.68703)">
      <path
         d="m 0,0 0.501,-0.004 c 0.662,0.38 1.728,0.382 2.384,0.003 0.013,-0.008 0.022,-0.016 0.034,-0.023 L 3.377,-0.028 V -0.692 H 3.376 C 3.373,-0.94 3.208,-1.189 2.878,-1.379 2.217,-1.762 1.148,-1.763 0.491,-1.384 0.161,-1.193 -0.002,-0.943 0,-0.692 Z"
         style="fill:#1f1e1d;fill-opacity:1;fill-rule:nonzero;stroke:none"
         id="path2600" />
    </g>
    <g
       id="g2602"
       transform="matrix(0.35277777,0,0,-0.35277777,30.166208,128.4531)">
      <path
         d="m 0,0 c -0.657,0.38 -1.725,0.378 -2.387,-0.004 -0.661,-0.382 -0.665,-0.999 -0.008,-1.379 0.658,-0.379 1.727,-0.377 2.388,0.004 0.661,0.383 0.664,1 0.007,1.379"
         style="fill:#383738;fill-opacity:1;fill-rule:nonzero;stroke:none"
         id="path2604" />
    </g>
    <g
       id="g2606"
       transform="matrix(0.35277777,0,0,-0.35277777,29.464956,115.42929)">
      <path
         d="M 0,0 0.234,-0.002 C 0.544,0.177 1.044,0.178 1.352,0 1.357,-0.003 1.362,-0.008 1.367,-0.011 L 1.582,-0.013 V -37.514 H 1.581 c 0,-0.116 -0.079,-0.232 -0.232,-0.322 -0.31,-0.179 -0.811,-0.18 -1.12,-0.002 -0.154,0.089 -0.23,0.207 -0.229,0.324 z"
         style="fill:#1f1e1d;fill-opacity:1;fill-rule:nonzero;stroke:none"
         id="path2608" />
    </g>
    <g
       id="g2610"
       transform="matrix(0.35277777,0,0,-0.35277777,29.941735,115.31936)">
      <path
         d="m 0,0 c -0.308,0.178 -0.809,0.177 -1.118,-0.003 -0.31,-0.178 -0.312,-0.468 -0.004,-0.645 0.308,-0.178 0.809,-0.177 1.119,0.002 C 0.306,-0.467 0.309,-0.178 0,0"
         style="fill:#383738;fill-opacity:1;fill-rule:nonzero;stroke:none"
         id="path2612" />
    </g>
    <g
       id="g2614"
       transform="matrix(0.35277777,0,0,-0.35277777,29.865429,115.48027)">
      <path
         d="m 0,0 h -0.686 v 1.344 c 0.003,0.071 0.156,6.169 -3.163,8.096 l 0.343,0.592 C 0.169,7.899 0.009,1.599 0,1.331 Z"
         style="fill:#919292;fill-opacity:1;fill-rule:nonzero;stroke:none"
         id="path2616" />
    </g>
    <g
       id="g2618"
       transform="matrix(0.35277777,0,0,-0.35277777,39.204903,128.32942)">
      <path
         d="m 0,0 v 0 c -0.493,0.655 -2.018,0.579 -3.388,-0.169 l -12.946,-7.075 c -1.371,-0.749 -2.089,-1.899 -1.596,-2.554 0.493,-0.656 2.018,-0.58 3.388,0.169 l 12.946,7.074 C -0.225,-1.807 0.493,-0.656 0,0"
         style="fill:#fbd625;fill-opacity:1;fill-rule:nonzero;stroke:none"
         id="path2620" />
    </g>
    <g
       id="g2622"
       transform="matrix(0.35277777,0,0,-0.35277777,56.311556,120.09188)">
      <path
         d="m 0,0 v 0 c -0.431,0.689 -1.254,0.993 -1.829,0.675 l -5.434,-3.01 c -0.576,-0.318 -0.693,-1.143 -0.262,-1.832 0.431,-0.689 1.254,-0.993 1.83,-0.675 l 5.433,3.01 C 0.314,-1.514 0.431,-0.689 0,0"
         style="fill:#fbd625;fill-opacity:1;fill-rule:nonzero;stroke:none"
         id="path2624" />
    </g>
    <g
       id="g2626"
       transform="matrix(0.35277777,0,0,-0.35277777,36.721171,125.77284)">
      <path
         d="m 0,0 v -0.835 l 5.714,-3.489 2.808,-1.71 0.279,-0.445 2.002,-3.198 c 0.153,-0.139 0.292,-0.278 0.445,-0.417 0.556,-0.542 1.098,-1.098 1.654,-1.654 l 0.014,-0.015 c 0.626,-0.626 1.251,-1.223 1.918,-1.806 0.292,-0.251 0.654,-0.376 1.029,-0.488 3.198,1.502 12.763,6.429 14.417,9.14 0.542,0.89 0.779,1.683 0.834,2.363 0.014,0.113 -0.476,0.124 -0.476,0.236 l 0.126,1.732 c 0,1.336 -11.534,8.185 -14.281,9.797 -0.377,0.222 -0.818,0.294 -1.246,0.21 L 13.82,9.143 1.849,3.906 C 0.737,3.364 0.014,2.224 0.014,0.987 0,0.667 0,0.333 0,0"
         style="fill:#352827;fill-opacity:1;fill-rule:nonzero;stroke:none"
         id="path2628" />
    </g>
    <g
       id="g2630"
       transform="matrix(0.35277777,0,0,-0.35277777,36.721171,125.77284)">
      <path
         d="m 0,0 c 0.875,-0.862 2.072,-1.683 3.211,-2.517 0.626,-0.459 1.517,-1.098 2.503,-1.807 0.973,-0.696 2.058,-1.459 3.087,-2.155 1.807,-1.223 3.475,-2.294 4.226,-2.559 1.613,-0.598 18.06,2.629 15.919,8.635 0,0 -14.209,9.475 -14.57,9.559 C 14.251,9.184 14.083,9.17 13.82,9.143 L 1.849,3.906 C 0.737,3.364 0.014,2.224 0.014,0.987 0,0.667 0,0.333 0,0"
         style="fill:#312423;fill-opacity:1;fill-rule:nonzero;stroke:none"
         id="path2632" />
    </g>
    <g
       id="g2634"
       transform="matrix(0.35277777,0,0,-0.35277777,41.277473,129.92246)">
      <path
         d="m 0,0 c 0.626,-0.626 1.252,-1.224 1.919,-1.807 0.292,-0.251 0.653,-0.376 1.029,-0.487 0.217,-0.063 1.071,0.507 1.281,0.608 0.578,0.278 1.156,0.558 1.732,0.841 1.468,0.721 2.929,1.46 4.377,2.224 1.538,0.81 3.066,1.648 4.558,2.542 1.27,0.761 3.02,1.545 3.576,3.019 0.167,0.441 0.18,0.922 0.174,1.393 -0.012,0.929 -0.107,1.903 -0.629,2.672 -0.046,0.066 -0.097,0.134 -0.168,0.172 -0.075,0.041 -0.162,0.044 -0.246,0.048 -0.867,0.033 -1.722,-0.083 -2.519,-0.442 C 12.525,9.633 10.118,7.856 7.67,6.479 5.299,5.145 2.888,3.678 0.331,2.72 -0.198,2.525 0.307,0.334 0,0"
         style="fill:#2b2020;fill-opacity:1;fill-rule:nonzero;stroke:none"
         id="path2636" />
    </g>
    <g
       id="g2638"
       transform="matrix(0.35277777,0,0,-0.35277777,41.559801,125.01906)">
      <path
         d="m 0,0 c -0.02,-0.211 0,-11.222 0,-14.673 -0.267,0.247 -0.534,0.505 -0.802,0.772 l -0.009,0.019 c -0.563,0.553 -1.106,1.107 -1.659,1.65 -0.152,0.142 -0.285,0.276 -0.447,0.419 l -1.126,1.792 -1.153,1.85 -8.524,5.196 -1.411,0.868 -0.962,0.581 -1.192,0.734 -2.022,1.229 c -0.037,1.65 -0.057,3.461 -0.066,5.083 0,2.459 0.038,4.48 0.19,4.833 0.153,0.353 0.535,0.648 0.954,0.886 0.906,0.506 2.021,0.487 2.937,-0.01 0.714,-0.38 1.697,-0.915 2.802,-1.505 C -9.2,7.941 -4.777,5.528 -2.765,4.347 -2.222,4.032 -1.774,3.728 -1.401,3.432 -1.269,3.316 -1.154,3.212 -1.04,3.107 0.496,1.696 0.019,0.181 0,0"
         style="fill:#352827;fill-opacity:1;fill-rule:nonzero;stroke:none"
         id="path2640" />
    </g>
    <g
       id="g2642"
       transform="matrix(0.35277777,0,0,-0.35277777,35.294221,121.36622)">
      <path
         d="m 0,0 v 0 c 0.401,0.533 1.642,0.472 2.758,-0.138 l 10.537,-5.758 c 1.116,-0.61 1.7,-1.545 1.299,-2.08 -0.401,-0.533 -1.642,-0.471 -2.758,0.138 L 1.298,-2.08 C 0.184,-1.47 -0.401,-0.534 0,0"
         style="fill:#413433;fill-opacity:1;fill-rule:nonzero;stroke:none"
         id="path2644" />
    </g>
    <g
       id="g2646"
       transform="matrix(0.35277777,0,0,-0.35277777,45.648813,121.09748)">
      <path
         d="M 0,0 C -2.188,0.382 -3.827,1.581 -4.69,2.776 L -0.071,2.288 2.535,0.027 C 1.858,-0.123 1.019,-0.178 0,0 M -0.865,5.637 C 2.034,5.131 3.976,3.193 4.414,1.729 L 0.664,4.937 -4.019,5.43 c 0.749,0.28 1.801,0.442 3.154,0.207 M 5.807,2.514 C 5.744,5.597 2.679,7.79 -0.172,8.285 -1.021,8.434 -3.58,8.702 -5.249,6.977 -5.552,6.663 -5.826,6.283 -6.055,5.825 -6.465,5.003 -6.69,4.019 -6.672,3.124 -6.608,0.041 -3.544,-2.152 -0.693,-2.648 0.311,-2.827 3.702,-3.169 5.19,-0.187 5.6,0.634 5.826,1.619 5.807,2.514"
         style="fill:#2b2020;fill-opacity:1;fill-rule:nonzero;stroke:none"
         id="path2648" />
    </g>
    <g
       id="g2650"
       transform="matrix(0.35277777,0,0,-0.35277777,48.037294,123.88389)">
      <path
         d="M 0,0 1.061,0.921 -5.153,11.195 -6.35,10.492 Z"
         style="fill:#2b2020;fill-opacity:1;fill-rule:nonzero;stroke:none"
         id="path2652" />
    </g>
    <path
       d="m 41.559801,125.01906 c -0.0071,0.0744 0,3.95887 0,5.17631 -0.09419,-0.0871 -0.188383,-0.17815 -0.282928,-0.27235 l -0.0032,-0.007 c -0.198614,-0.19509 -0.390172,-0.39052 -0.585258,-0.58208 -0.05362,-0.0501 -0.100542,-0.0974 -0.157692,-0.14782 l -0.397228,-0.63217 c -0.0032,-1.55082 -0.0067,-3.43394 0.01693,-3.87456 0.04374,-0.77682 0.915105,-0.87136 0.915105,-0.87136 0.04657,0.0409 0.08714,0.0776 0.127353,0.11465 0.541867,0.49777 0.373592,1.03223 0.366889,1.09608"
       style="fill:#2b2020;fill-opacity:1;fill-rule:nonzero;stroke:none;stroke-width:0.352778"
       id="path2656" />
    <g
       id="g2658"
       transform="matrix(0.35277777,0,0,-0.35277777,23.087545,131.22745)">
      <path
         d="m 0,0 c 0.01,-0.521 0.023,-1.03 0.044,-1.483 0.093,-2.057 0.581,-3.365 1.812,-5.025 1.229,-1.659 1.415,-2.413 9.717,-7.215 8.3,-4.804 16.501,-4.17 18.357,-4.228 1.151,-0.037 2.407,1.794 2.479,2.833 0.159,2.316 1.018,7.412 -4.771,7.979 -0.585,0.058 -1.207,0.212 -1.892,0.293 C 16.117,-5.716 13.992,-3.891 6.953,0.227 -0.086,4.344 0.076,8.031 0.076,8.031 L -0.009,6.07 C -0.009,6.07 -0.033,1.848 0,0"
         style="fill:#c33c21;fill-opacity:1;fill-rule:nonzero;stroke:none"
         id="path2660" />
    </g>
    <g
       id="g2662"
       transform="matrix(0.35277777,0,0,-0.35277777,23.184206,130.04646)">
      <path
         d="m 0,0 c 0,-0.085 0,-0.168 0.014,-0.251 0.014,-0.486 0.083,-0.917 0.194,-1.168 l 1.224,-2.808 c 0.139,-0.293 0.278,-0.209 0.375,0.166 0.042,0.125 0.084,0.292 0.097,0.488 0.014,0.193 0.029,0.402 0.029,0.611 0,0.598 -0.07,1.182 -0.195,1.474 L 1.292,-0.487 C 0.807,0.181 0.458,0.847 0.236,1.39 0.139,1.265 0.083,1.015 0.042,0.666 0.014,0.458 0,0.222 0,0"
         style="fill:#80171b;fill-opacity:1;fill-rule:nonzero;stroke:none"
         id="path2664" />
    </g>
    <g
       id="g2666"
       transform="matrix(0.35277777,0,0,-0.35277777,23.184206,131.43965)">
      <path
         d="m 0,0 c 0,-0.084 0,-0.167 0.014,-0.251 0.014,-0.486 0.083,-0.917 0.194,-1.167 l 1.224,-2.809 c 0.139,-0.292 0.278,-0.209 0.375,0.166 0.042,0.126 0.084,0.292 0.097,0.488 0.014,0.194 0.029,0.402 0.029,0.611 0,0.598 -0.07,1.182 -0.195,1.474 L 1.292,-0.486 C 0.807,0.181 0.458,0.848 0.236,1.39 0.139,1.265 0.083,1.015 0.042,0.667 0.014,0.458 0,0.222 0,0"
         style="fill:#80171b;fill-opacity:1;fill-rule:nonzero;stroke:none"
         id="path2668" />
    </g>
    <g
       id="g2670"
       transform="matrix(0.35277777,0,0,-0.35277777,31.573332,135.47388)">
      <path
         d="M 0,0 5.384,-0.592 C 6.136,-0.674 6.82,-0.126 6.903,0.626 6.985,1.379 6.437,2.062 5.685,2.145 L 0.301,2.736 C -0.452,2.819 -1.135,2.271 -1.218,1.519 -1.3,0.766 -0.752,0.083 0,0"
         style="fill:#80171b;fill-opacity:1;fill-rule:nonzero;stroke:none"
         id="path2672" />
    </g>
    <g
       id="g2674"
       transform="matrix(0.35277777,0,0,-0.35277777,31.573332,136.65381)">
      <path
         d="M 0,0 5.384,-0.592 C 6.136,-0.674 6.82,-0.126 6.903,0.626 6.985,1.379 6.437,2.062 5.685,2.145 L 0.301,2.737 C -0.452,2.819 -1.135,2.271 -1.218,1.52 -1.3,0.766 -0.752,0.083 0,0"
         style="fill:#80171b;fill-opacity:1;fill-rule:nonzero;stroke:none"
         id="path2676" />
    </g>
  </g>
</svg>
