<?xml version="1.0" encoding="UTF-8" standalone="no"?>
<!-- Created with Inkscape (http://www.inkscape.org/) -->

<svg
   width="210mm"
   height="210mm"
   viewBox="0 0 210 210"
   version="1.1"
   id="svg3074"
   inkscape:version="1.1 (c68e22c387, 2021-05-23)"
   sodipodi:docname="drawing_tramp.svg"
   xmlns:inkscape="http://www.inkscape.org/namespaces/inkscape"
   xmlns:sodipodi="http://sodipodi.sourceforge.net/DTD/sodipodi-0.dtd"
   xmlns="http://www.w3.org/2000/svg"
   xmlns:svg="http://www.w3.org/2000/svg"
   xmlns:rdf="http://www.w3.org/1999/02/22-rdf-syntax-ns#"
   xmlns:cc="http://creativecommons.org/ns#"
   xmlns:dc="http://purl.org/dc/elements/1.1/">
  <defs
     id="defs3069" />
  <sodipodi:namedview
     id="base"
     pagecolor="#ffffff"
     bordercolor="#666666"
     borderopacity="1.0"
     inkscape:pageopacity="0.0"
     inkscape:pageshadow="2"
     inkscape:zoom="0.35"
     inkscape:cx="144.28571"
     inkscape:cy="561.42857"
     inkscape:document-units="mm"
     inkscape:pagecheckerboard="0"
     showgrid="false"
     height="210mm"
     inkscape:window-width="1920"
     inkscape:window-height="1009"
     inkscape:window-x="1912"
     inkscape:window-y="-8"
     inkscape:window-maximized="1"
     inkscape:current-layer="svg3074" />
  <metadata
     id="metadata3072">
    <rdf:RDF>
      <cc:Work
         rdf:about="">
        <dc:format>image/svg+xml</dc:format>
        <dc:type
           rdf:resource="http://purl.org/dc/dcmitype/StillImage" />
      </cc:Work>
    </rdf:RDF>
  </metadata>
  <g
     id="g6374"
     transform="matrix(3.2774159,0,0,3.6799185,-366.18519,-202.48132)">
    <g
       id="g2678"
       transform="matrix(0.35277777,0,0,-0.35277777,138.41844,86.619918)">
      <path
         d="m 0,0 h 0.774 c -2.181,0 -3.949,-1.539 -3.949,-3.438 v -35.095 c 0,-1.9 1.768,-3.439 3.949,-3.439 l 30.215,0.163 c 2.181,0 3.949,1.539 3.949,3.438 V -3.438 C 34.938,-1.539 33.17,0 30.989,0 h 0.774 c 3.911,0 7.082,-2.761 7.082,-6.166 v -32.561 c 0,-3.404 -3.171,-6.165 -7.082,-6.165 L 0,-45.055 c -3.911,0 -7.082,2.761 -7.082,6.166 V -6.166 C -7.082,-2.761 -3.911,0 0,0"
         style="fill:#1d3559;fill-opacity:1;fill-rule:nonzero;stroke:none"
         id="path2680" />
    </g>
    <g
       id="g2682"
       transform="matrix(0.35277777,0,0,-0.35277777,159.27075,92.227144)">
      <path
         d="m 0,0 h 0.674 c -1.899,0 -3.438,-1.54 -3.438,-3.438 v -41.593 c 0,-1.9 1.539,-3.439 3.438,-3.439 l 26.304,6.661 c 2.057,0.502 3.438,1.539 3.438,3.438 V -3.438 C 30.416,-1.54 28.877,0 26.978,0 h 0.674 c 3.405,0 6.165,-2.761 6.165,-6.166 v -32.561 c 0,-3.405 -2.663,-5.267 -6.165,-6.165 L 0,-51.552 c -3.405,0 -6.166,2.76 -6.166,6.165 V -6.166 C -6.166,-2.761 -3.405,0 0,0"
         style="fill:#1d3559;fill-opacity:1;fill-rule:nonzero;stroke:none"
         id="path2684" />
    </g>
    <g
       id="g2686"
       transform="matrix(0.35277777,0,0,-0.35277777,119.01637,92.227144)">
      <path
         d="m 0,0 h 0.673 c -1.898,0 -3.438,-1.54 -3.438,-3.438 v -34.933 c 0,-1.899 1.162,-2.575 3.438,-3.438 l 26.305,-6.661 c 1.898,0 3.438,1.539 3.438,3.439 V -3.438 C 30.416,-1.54 28.876,0 26.978,0 h 0.673 c 3.406,0 6.166,-2.761 6.166,-6.166 v -39.221 c 0,-3.405 -2.76,-6.165 -6.166,-6.165 L 0,-44.892 c -3.294,0.954 -6.166,2.76 -6.166,6.165 V -6.166 C -6.166,-2.761 -3.405,0 0,0"
         style="fill:#1d3559;fill-opacity:1;fill-rule:nonzero;stroke:none"
         id="path2688" />
    </g>
    <g
       id="g2690"
       transform="matrix(0.35277777,0,0,-0.35277777,112.82036,93.035358)">
      <path
         d="m 0,0 c 0,-11.902 39.597,-21.551 88.443,-21.551 48.846,0 88.443,9.649 88.443,21.551 0,0.132 0.01,3.287 0,3.419 -0.864,11.72 -40.138,18.132 -88.443,18.132 C 39.931,21.551 0.536,15.209 0,3.419 -0.004,3.338 0,0.082 0,0"
         style="fill:#b53421;fill-opacity:1;fill-rule:nonzero;stroke:none"
         id="path2692" />
    </g>
    <g
       id="g2694"
       transform="matrix(0.35277777,0,0,-0.35277777,112.82036,91.829246)">
      <path
         d="m 0,0 c 0,-11.902 39.597,-21.551 88.443,-21.551 48.846,0 88.443,9.649 88.443,21.551 0,11.902 -39.597,21.551 -88.443,21.551 C 39.597,21.551 0,11.902 0,0"
         style="fill:#f25b4b;fill-opacity:1;fill-rule:nonzero;stroke:none"
         id="path2696" />
    </g>
    <g
       id="g2698"
       transform="matrix(0.35277777,0,0,-0.35277777,120.36564,91.142635)">
      <path
         d="m 0,0 c 0,-8.938 30.021,-16.186 67.055,-16.186 37.033,0 67.054,7.248 67.054,16.186 0,8.939 -30.021,16.186 -67.054,16.186 C 30.021,16.186 0,8.939 0,0"
         style="fill:#1c3357;fill-opacity:1;fill-rule:nonzero;stroke:none"
         id="path2700" />
    </g>
    <g
       id="g2702"
       transform="matrix(0.35277777,0,0,-0.35277777,144.78206,89.906184)">
      <path
         d="M 0,0 C 13.57,-5.022 22.097,-4.423 22.097,-4.423 30.376,-4.444 41.974,0.402 41.974,0.402 30.928,-6.899 20.95,-6.643 14.018,-5.365 7.084,-4.088 3.416,-2.387 0,0"
         style="fill:#151f2d;fill-opacity:1;fill-rule:nonzero;stroke:none"
         id="path2704" />
    </g>
    <g
       id="g2706"
       transform="matrix(0.35277777,0,0,-0.35277777,144.02105,85.432715)">
      <path
         d="m 0,0 c 37.033,0 67.055,-7.246 67.055,-16.186 0,-1.333 -0.669,-2.628 -1.928,-3.868 0.304,0.632 0.461,1.276 0.461,1.928 0,8.939 -29.364,16.186 -65.588,16.186 -36.224,0 -65.589,-7.247 -65.589,-16.186 0,-0.652 0.158,-1.296 0.462,-1.928 -1.26,1.24 -1.928,2.535 -1.928,3.868 C -67.055,-7.246 -37.034,0 0,0"
         style="fill:#b53421;fill-opacity:1;fill-rule:nonzero;stroke:none"
         id="path2708" />
    </g>
    <g
       id="g2710"
       transform="matrix(0.35277777,0,0,-0.35277777,152.64086,69.248717)">
      <path
         d="m 0,0 c 3.838,-0.255 13.564,-5.412 14.631,-6.739 3.613,-4.491 2.099,-5.81 2.803,-9.323 0.703,-3.512 -4.152,-5.79 -7.802,-5.374 -3.651,0.416 -4.302,3.907 -5.412,5.35 -0.893,1.161 -2.102,3.104 -2.939,4.274 -1.227,-0.403 -2.709,-0.402 -4.355,0.466 -2.233,1.177 -2.785,3.423 -2.806,5.287 C -5.918,-2.832 -3.315,0.221 0,0"
         style="fill:#192a31;fill-opacity:1;fill-rule:nonzero;stroke:none"
         id="path2712" />
    </g>
    <g
       id="g2714"
       transform="matrix(0.35277777,0,0,-0.35277777,151.33791,91.623224)">
      <path
         d="m 0,0 c 0.561,0.562 2.403,1.952 2.403,1.952 0,0 1.396,1.539 1.517,2.338 0.032,0.211 0.026,0.549 0.004,0.897 L 0.938,30.217 14.114,33.83 30.892,18.901 c 0.372,-0.297 0.753,-0.561 1.03,-0.66 0.76,-0.271 2.509,-0.035 2.509,-0.035 0,0 3.062,0.878 3.68,0.261 0.56,-0.562 -4.919,-4.31 -6.228,-5.097 -0.577,-0.347 -1.361,1.19 -1.421,1.711 l -0.151,0.315 -0.243,0.191 c -0.111,0.089 -0.506,0.344 -0.897,0.593 0,0 -17.328,10.048 -18.231,10.17 C 10.038,26.472 8.621,26.153 8.45,25.495 8.28,24.836 6.986,4.29 6.985,4.288 6.98,4.021 6.977,3.806 6.977,3.721 V 3.412 L 7.128,3.098 C 7.499,2.727 8.119,0.588 7.451,0.503 5.97,0.315 2.282,-0.728 0.427,-0.451 -0.15,-0.365 -0.133,-0.133 0,0"
         style="fill:#f79387;fill-opacity:1;fill-rule:nonzero;stroke:none"
         id="path2716" />
    </g>
    <g
       id="g2718"
       transform="matrix(0.35277777,0,0,-0.35277777,156.31708,79.688716)">
      <path
         d="M 0,0 6.104,-5.09 C 5.15,-6.709 2.935,-9.524 1.801,-10.53 c -2.586,1.558 -4.609,2.698 -4.896,2.799 -1.331,0.468 -2.254,-0.367 -2.425,-1.025 -0.059,-0.225 -0.209,-2.911 -0.315,-6.015 -1.304,-0.202 -4.317,-0.172 -6.505,0.426 l -0.976,10.497 z"
         style="fill:#5bc69e;fill-opacity:1;fill-rule:nonzero;stroke:none"
         id="path2720" />
    </g>
    <g
       id="g2722"
       transform="matrix(0.35277777,0,0,-0.35277777,147.78963,72.49847)">
      <path
         d="m 0,0 c -1.241,0.813 -4.157,3.943 -5.145,5.008 -0.011,0.126 -0.105,0.849 -0.899,1.769 -0.561,0.65 -0.986,2.132 -1.354,1.712 -0.368,-0.421 0.545,-1.597 0.127,-1.605 -0.418,-0.008 -2.493,2.324 -2.826,1.943 -0.334,-0.381 1.773,-2.454 1.399,-2.461 -0.374,-0.007 -2.084,2.093 -2.555,1.555 -0.472,-0.539 2.241,-2.284 1.988,-2.572 -0.253,-0.289 -1.934,0.855 -2.313,0.422 -0.38,-0.434 2.371,-1.455 2.151,-1.459 -0.22,-0.003 -1.807,0.039 -1.819,-0.266 -0.013,-0.346 4.016,-0.884 4.509,-1.482 1.052,-1.675 2.926,-4.737 4.823,-6.081 2.322,-1.642 7.688,-5.129 7.688,-5.129 l 2.665,3.444 c 0,0 -6.967,4.237 -8.439,5.202"
         style="fill:#f79387;fill-opacity:1;fill-rule:nonzero;stroke:none"
         id="path2724" />
    </g>
    <g
       id="g2726"
       transform="matrix(0.35277777,0,0,-0.35277777,145.22459,70.331498)">
      <path
         d="M 0,0 C -0.104,-0.204 -0.148,-0.425 -0.162,-0.647 -0.154,-0.684 -0.252,-1.403 0.362,-1.95 0.123,-1.505 -0.141,-1.011 0,0"
         style="fill:#f57676;fill-opacity:1;fill-rule:nonzero;stroke:none"
         id="path2728" />
    </g>
    <g
       id="g2730"
       transform="matrix(0.35277777,0,0,-0.35277777,156.4668,71.169698)">
      <path
         d="M 0,0 C 0.985,1.11 2.982,4.894 3.657,6.18 3.634,6.304 3.536,7.026 4.062,8.122 4.434,8.896 4.456,10.438 4.921,10.128 5.386,9.819 4.812,8.444 5.218,8.546 5.624,8.647 7.016,11.441 7.437,11.161 7.859,10.88 6.368,8.328 6.73,8.42 7.093,8.511 8.195,10.984 8.791,10.588 9.386,10.191 7.224,7.798 7.544,7.585 7.863,7.373 9.187,8.917 9.667,8.598 10.146,8.278 7.758,6.574 7.971,6.628 8.185,6.682 9.706,7.138 9.797,6.846 9.9,6.517 6.152,4.943 5.832,4.237 5.254,2.345 4.247,-1.101 2.766,-2.893 0.955,-5.087 -3.312,-9.854 -3.312,-9.854 l -3.473,2.626 c 0,0 5.617,5.913 6.785,7.228"
         style="fill:#f79387;fill-opacity:1;fill-rule:nonzero;stroke:none"
         id="path2732" />
    </g>
    <g
       id="g2734"
       transform="matrix(0.35277777,0,0,-0.35277777,158.37607,68.407413)">
      <path
         d="M 0,0 C 0.153,-0.169 0.253,-0.371 0.326,-0.582 0.327,-0.619 0.61,-1.288 0.161,-1.977 0.275,-1.484 0.4,-0.938 0,0"
         style="fill:#f57676;fill-opacity:1;fill-rule:nonzero;stroke:none"
         id="path2736" />
    </g>
    <g
       id="g2738"
       transform="matrix(0.35277777,0,0,-0.35277777,155.47391,72.066459)">
      <path
         d="M 0,0 3.132,-4.086 -0.756,-9.87 c 0,0 0.366,-4.299 0.927,-5.64 0.561,-1.341 3.804,-6.852 3.804,-6.852 0,0 -7.877,-4.829 -15.583,-4.121 0,0 -2.17,11.169 -2.78,12.242 -0.61,1.072 -6.487,6.388 -6.487,6.388 l 2.853,4.61 4.926,-2.732 c 0,0 9.005,1.455 9.438,1.889 C -3.225,-3.652 0,0 0,0"
         style="fill:#f25b4b;fill-opacity:1;fill-rule:nonzero;stroke:none"
         id="path2740" />
    </g>
    <g
       id="g2742"
       transform="matrix(0.35277777,0,0,-0.35277777,151.45609,71.889012)">
      <path
         d="m 0,0 c 0.247,-0.689 0.07,-1.384 -0.396,-1.551 -0.466,-0.167 -1.044,0.256 -1.291,0.946 -0.248,0.689 -0.07,1.383 0.396,1.55 C -0.825,1.112 -0.247,0.689 0,0"
         style="fill:#f79487;fill-opacity:1;fill-rule:nonzero;stroke:none"
         id="path2744" />
    </g>
    <g
       id="g2746"
       transform="matrix(0.35277777,0,0,-0.35277777,154.3489,71.29197)">
      <path
         d="m 0,0 c 0.035,-0.731 -0.338,-1.344 -0.833,-1.367 -0.494,-0.024 -0.923,0.551 -0.958,1.282 -0.034,0.731 0.339,1.344 0.833,1.366 C -0.463,1.305 -0.035,0.731 0,0"
         style="fill:#f79487;fill-opacity:1;fill-rule:nonzero;stroke:none"
         id="path2748" />
    </g>
    <g
       id="g2750"
       transform="matrix(0.35277777,0,0,-0.35277777,153.12247,73.001426)">
      <path
         d="M 0,0 C 0,-0.047 0.395,-1.745 0.604,-2.643 0.683,-2.978 0.513,-3.319 0.2,-3.462 c -0.836,-0.382 -2.479,-0.915 -3.616,0.115 -0.103,0.094 -0.159,0.23 -0.154,0.369 l 0.139,4.051 z"
         style="fill:#f79487;fill-opacity:1;fill-rule:nonzero;stroke:none"
         id="path2752" />
    </g>
    <g
       id="g2754"
       transform="matrix(0.35277777,0,0,-0.35277777,153.19705,73.336635)">
      <path
         d="m 0,0 c -0.884,-0.445 -1.997,-0.455 -3.245,0.276 -0.158,0.093 -0.307,0.192 -0.447,0.296 l 0.05,1.451 3.431,-1.073 C -0.211,0.928 -0.119,0.519 0,0"
         style="fill:#f57676;fill-opacity:1;fill-rule:nonzero;stroke:none"
         id="path2756" />
    </g>
    <g
       id="g2758"
       transform="matrix(0.35277777,0,0,-0.35277777,152.2643,69.701401)">
      <path
         d="m 0,0 c 0,0 -1.497,-0.396 -2.377,-1.853 -0.88,-1.456 -1.366,-5.667 1.776,-7.508 3.142,-1.842 5.427,1.01 5.368,3.709 C 4.708,-2.954 3.508,0.495 0,0"
         style="fill:#f79487;fill-opacity:1;fill-rule:nonzero;stroke:none"
         id="path2760" />
    </g>
    <g
       id="g2762"
       transform="matrix(0.35277777,0,0,-0.35277777,151.56185,69.76409)">
      <path
         d="m 0,0 c 0,0 2.107,-3.12 4.228,-2.921 2.121,0.198 2.23,-0.374 2.23,-0.374 0,0 0.037,3.007 -1.888,3.501 C 2.645,0.701 0,0 0,0"
         style="fill:#192a31;fill-opacity:1;fill-rule:nonzero;stroke:none"
         id="path2764" />
    </g>
    <g
       id="g2766"
       transform="matrix(0.35277777,0,0,-0.35277777,137.52151,80.412863)">
      <path
         d="m 0,0 c -0.196,0.129 -0.651,0.614 -0.651,0.614 -0.384,0.655 -1.413,1.802 -1.413,1.802 -0.078,0.131 -1.257,1.333 -1.29,1.84 -0.007,0.106 0.329,0.931 0.869,2.187 0.003,0.005 7.089,10.553 6.647,12.484 -0.816,3.568 -11.783,8.282 -11.783,8.282 l -4.13,-0.596 -1.844,-6.103 c 0,0 10.311,-3.112 11.207,-3.864 0,0 -0.357,-0.671 -0.887,-1.819 C -4.419,12.353 -5.473,7.354 -5.473,7.354 -5.571,6.99 -5.661,6.658 -5.738,6.37 -5.987,5.972 -6.219,5.629 -6.4,5.415 -6.82,4.917 -7.026,4.987 -7.536,3.978 -7.652,3.747 -7.626,3.497 -7.547,3.275 c 0.14,-0.396 0.443,-0.668 0.815,-0.773 0.53,-0.15 1.409,-0.416 1.598,-0.566 0.274,-0.218 1.943,-1.368 2.328,-1.568 l 2.342,-1.213 c 0.264,-0.179 0.722,0.083 0.89,0.444 0.02,0.043 0.032,0.079 0.032,0.101 C 0.455,-0.161 0.197,-0.129 0,0"
         style="fill:#f57676;fill-opacity:1;fill-rule:nonzero;stroke:none"
         id="path2768" />
    </g>
    <g
       id="g2770"
       transform="matrix(0.35277777,0,0,-0.35277777,131.48728,81.106707)">
      <path
         d="m 0,0 c 1.095,1.259 8.812,10.104 9.033,12.452 0.193,2.047 -1.53,15.553 -1.53,15.553 l -9.988,0.459 c 0,0 -0.884,-1.397 0.735,-5.13 C -0.689,20.887 2.668,13.73 2.583,13.586 0.208,9.568 -2.503,1.676 -2.503,1.675 -2.557,1.58 -2.607,1.488 -2.656,1.401 -2.994,1.074 -3.301,0.799 -3.528,0.634 -4.056,0.253 -4.24,0.371 -4.978,-0.485 -5.147,-0.682 -5.182,-0.93 -5.159,-1.164 c 0.04,-0.419 0.268,-0.756 0.604,-0.948 0.478,-0.275 1.267,-0.744 1.414,-0.936 0.213,-0.278 1.554,-1.796 1.88,-2.083 l 1.979,-1.743 c 0.214,-0.238 0.72,-0.095 0.971,0.215 0.03,0.037 0.05,0.068 0.055,0.091 0.031,0.134 -0.212,0.229 -0.371,0.402 -0.16,0.172 -0.483,0.753 -0.483,0.753 -0.215,0.726 -0.936,2.09 -0.936,2.09 -0.044,0.145 -0.898,1.597 -0.808,2.096 C -0.839,-1.146 -0.523,-0.699 0,0"
         style="fill:#f57676;fill-opacity:1;fill-rule:nonzero;stroke:none"
         id="path2772" />
    </g>
    <g
       id="g2774"
       transform="matrix(0.35277777,0,0,-0.35277777,135.08808,70.744918)">
      <path
         d="m 0,0 c 0.185,0 5.717,-2.924 7.719,-4.188 0,0 -3.695,-5.242 -4.802,-6.48 l -5.892,2.528 -2.158,7.328 z"
         style="fill:#324d95;fill-opacity:1;fill-rule:nonzero;stroke:none"
         id="path2776" />
    </g>
    <g
       id="g2778"
       transform="matrix(0.35277777,0,0,-0.35277777,131.82697,75.372339)">
      <path
         d="m 0,0 c 0,0 6.952,1.686 8.085,1.923 0,0 -1.063,8.803 -1.545,9.827 -0.481,1.024 -9.988,0.459 -9.988,0.459 0,0 -0.582,-0.777 -0.108,-3.675 C -3.082,5.637 0,0 0,0"
         style="fill:#4b67ba;fill-opacity:1;fill-rule:nonzero;stroke:none"
         id="path2780" />
    </g>
    <g
       id="g2782"
       transform="matrix(0.35277777,0,0,-0.35277777,131.51413,61.29192)">
      <path
         d="m 0,0 c -1.121,-2 -1.062,-5.325 -0.129,-6.598 0.933,-1.273 3.152,-1.673 3.152,-1.673 l 3.258,-1.086 c 0,0 2.344,3.322 2.991,5.365 0.251,0.79 0.293,1.304 0,2.979 C 8.894,1.152 7.669,2.261 6.389,2.572 4.146,3.117 1.356,2.418 0,0"
         style="fill:#214152;fill-opacity:1;fill-rule:nonzero;stroke:none"
         id="path2784" />
    </g>
    <g
       id="g2786"
       transform="matrix(0.35277777,0,0,-0.35277777,135.02881,62.951069)">
      <path
         d="m 0,0 c -0.113,-0.728 -0.615,-1.257 -1.121,-1.183 -0.506,0.075 -0.824,0.725 -0.711,1.452 0.113,0.726 0.615,1.255 1.121,1.181 C -0.205,1.376 0.113,0.727 0,0"
         style="fill:#f79487;fill-opacity:1;fill-rule:nonzero;stroke:none"
         id="path2788" />
    </g>
    <g
       id="g2790"
       transform="matrix(0.35277777,0,0,-0.35277777,137.04988,57.98738)">
      <path
         d="M 0,0 C 0.195,-0.12 0.35,-0.287 0.482,-0.473 0.495,-0.509 0.962,-1.08 0.743,-1.899 0.704,-1.379 0.659,-0.801 0,0"
         style="fill:#f57676;fill-opacity:1;fill-rule:nonzero;stroke:none"
         id="path2792" />
    </g>
    <g
       id="g2794"
       transform="matrix(0.35277777,0,0,-0.35277777,133.05495,61.086921)">
      <path
         d="m 0,0 c 0,0 -1.54,-0.396 -2.445,-1.851 -0.905,-1.456 -1.405,-5.662 1.827,-7.503 3.231,-1.839 5.583,1.01 5.521,3.707 C 4.842,-2.952 3.609,0.494 0,0"
         style="fill:#f79487;fill-opacity:1;fill-rule:nonzero;stroke:none"
         id="path2796" />
    </g>
    <g
       id="g2798"
       transform="matrix(0.35277777,0,0,-0.35277777,132.22469,63.061665)">
      <path
         d="M 0,0 C 0.255,-0.692 0.072,-1.39 -0.41,-1.557 -0.892,-1.725 -1.489,-1.3 -1.745,-0.607 -2,0.085 -1.816,0.782 -1.335,0.95 -0.853,1.117 -0.255,0.692 0,0"
         style="fill:#f79487;fill-opacity:1;fill-rule:nonzero;stroke:none"
         id="path2800" />
    </g>
    <g
       id="g2802"
       transform="matrix(0.35277777,0,0,-0.35277777,138.61448,57.778606)">
      <path
         d="m 0,0 c -0.174,0.259 -1.473,-0.666 -1.658,-0.786 -0.186,-0.119 1.559,2.307 1.011,2.473 -0.549,0.165 -1.336,-1.772 -1.702,-1.663 -0.365,0.111 0.96,3.147 0.279,3.351 C -2.751,3.58 -3.051,0.796 -3.367,0.593 -3.682,0.39 -3.038,3.372 -3.519,3.517 -4.001,3.662 -4.48,0.472 -4.833,0.245 -5.185,0.018 -5.055,1.553 -5.587,1.713 c -0.532,0.159 -0.091,-1.368 -0.21,-2.247 -0.169,-1.245 0.14,-1.927 0.198,-2.042 -0.252,-1.48 -1.005,-5.834 -1.603,-7.237 -0.348,-0.817 -1.378,-3.063 -2.336,-5.137 -10e-4,-0.002 -3.146,-5.762 -3.9,-5.762 -1.358,0 -3.091,0.167 -4.176,0.289 -0.667,0.074 -1.296,0.344 -1.812,0.774 -2.236,1.863 -8.555,7.144 -9.127,7.801 -0.998,1.149 -3.046,5.058 -3.739,6.387 0.021,0.127 0.106,0.872 -0.435,2.004 -0.382,0.8 -0.431,2.389 -0.888,2.072 -0.457,-0.317 0.136,-1.737 -0.268,-1.631 -0.405,0.108 -1.837,2.994 -2.251,2.706 -0.414,-0.287 1.112,-2.924 0.749,-2.829 -0.362,0.096 -1.498,2.651 -2.084,2.244 -0.586,-0.406 1.604,-2.882 1.29,-3.1 -0.314,-0.218 -1.656,1.379 -2.127,1.053 -0.471,-0.328 1.931,-2.095 1.718,-2.038 -0.213,0.055 -1.732,0.533 -1.818,0.232 -0.097,-0.34 3.655,-1.977 3.985,-2.706 0.606,-1.954 1.666,-5.51 3.168,-7.364 1.386,-1.713 3.2,-3.963 4.005,-4.964 0.21,-0.613 4.078,-3.71 4.078,-5.345 0,0 0.77,-3.724 0.691,-6.602 -0.111,-3.987 -0.281,-6.074 -0.281,-6.074 0,0 4.423,-1.129 8.763,-0.474 4.339,0.654 4.51,1.069 4.51,1.069 0,0 -0.021,3.232 -0.021,6.394 0,3.162 0.482,5.882 0.482,5.882 l 3.031,7.611 c 0.793,1.873 1.734,4.128 2.272,5.52 0.861,2.231 0.782,5.943 0.76,7.989 C -2.872,-3.015 0.196,-0.293 0,0"
         style="fill:#f79487;fill-opacity:1;fill-rule:nonzero;stroke:none"
         id="path2804" />
    </g>
    <g
       id="g2806"
       transform="matrix(0.35277777,0,0,-0.35277777,130.5273,71.097696)">
      <path
         d="m 0,0 0.059,0.851 c 0,0 5.035,-0.72 7.985,-0.473 2.95,0.248 5.469,1.064 5.469,1.064 l 0.109,-0.83 C 13.481,0.512 12.191,-0.39 8.037,-0.633 3.882,-0.876 0.944,-0.357 0,0"
         style="fill:#364e8e;fill-opacity:1;fill-rule:nonzero;stroke:none"
         id="path2808" />
    </g>
    <g
       id="g2810"
       transform="matrix(0.35277777,0,0,-0.35277777,133.76809,65.040501)">
      <path
         d="m 0,0 c -2.369,-0.147 -3.751,0.151 -3.751,0.151 -0.667,0.209 -1.246,0.337 -1.246,0.337 0.269,-2.116 -1.9,-8.973 -4.19,-7.082 0.018,-6.859 -0.396,-11.827 -0.396,-11.827 6.209,-1.359 15.079,1.624 15.079,1.624 C 4.668,-12.566 4.467,-6.131 4.467,-6.131 2.155,-5.529 1.633,-2.296 0.7,0.137 0.352,0.012 0,0 0,0"
         style="fill:#5bc69e;fill-opacity:1;fill-rule:nonzero;stroke:none"
         id="path2812" />
    </g>
    <g
       id="g2814"
       transform="matrix(0.35277777,0,0,-0.35277777,133.76809,64.112061)">
      <path
         d="m 0,0 c 0,0 -0.279,-1.973 0.033,-3.336 0.245,-1.07 -0.379,-1.764 -1.476,-1.805 -1.162,-0.043 -2.14,0.884 -2.313,1.677 -0.192,0.878 0.496,4.755 0.496,4.755 z"
         style="fill:#f79487;fill-opacity:1;fill-rule:nonzero;stroke:none"
         id="path2816" />
    </g>
    <g
       id="g2818"
       transform="matrix(0.35277777,0,0,-0.35277777,132.61793,63.656625)">
      <path
         d="m 0,0 3.26,-1.291 c 0,0 -0.119,-0.844 -0.114,-1.81 C 2.348,-3.214 1.442,-3.048 0.463,-2.49 0.181,-2.329 -0.076,-2.152 -0.308,-1.962 -0.163,-0.918 0,0 0,0"
         style="fill:#f57676;fill-opacity:1;fill-rule:nonzero;stroke:none"
         id="path2820" />
    </g>
    <g
       id="g2822"
       transform="matrix(0.35277777,0,0,-0.35277777,133.05495,61.086921)">
      <path
         d="m 0,0 c 0,0 -1.54,-0.396 -2.445,-1.851 -0.905,-1.456 -1.405,-5.662 1.827,-7.503 3.231,-1.839 5.583,1.01 5.521,3.707 C 4.842,-2.952 3.609,0.494 0,0"
         style="fill:#f79487;fill-opacity:1;fill-rule:nonzero;stroke:none"
         id="path2824" />
    </g>
    <g
       id="g2826"
       transform="matrix(0.35277777,0,0,-0.35277777,133.13867,63.556718)">
      <path
         d="m 0,0 2.704,0.513 c 0,0 0.132,-1.04 -1.05,-1.3 C 0.211,-1.104 0,0 0,0"
         style="fill:#ffffff;fill-opacity:1;fill-rule:nonzero;stroke:none"
         id="path2828" />
    </g>
    <g
       id="g2830"
       transform="matrix(0.35277777,0,0,-0.35277777,131.95288,62.741943)">
      <path
         d="M 0,0 C 0,0 3.821,2.566 4.715,4.636 5.609,6.705 3.077,5.15 3.077,5.15 3.077,5.15 0.789,4.729 0.736,4.571 0.684,4.413 -1.002,2.855 -1.002,2.855 Z"
         style="fill:#214152;fill-opacity:1;fill-rule:nonzero;stroke:none"
         id="path2832" />
    </g>
  </g>
</svg>
