<svg xmlns="http://www.w3.org/2000/svg" xmlns:xlink="http://www.w3.org/1999/xlink" id="visual" width="900" height="600" version="1.1" viewBox="0 0 900 600"><rect width="900" height="600" x="0" y="0" fill="#d9dc41"/><path fill="#9c653a" d="M0 199L21.5 212C43 225 86 251 128.8 236C171.7 221 214.3 165 257.2 138.8C300 112.7 343 116.3 385.8 118.5C428.7 120.7 471.3 121.3 514.2 138C557 154.7 600 187.3 642.8 185.2C685.7 183 728.3 146 771.2 147.8C814 149.7 857 190.3 878.5 210.7L900 231L900 601L878.5 601C857 601 814 601 771.2 601C728.3 601 685.7 601 642.8 601C600 601 557 601 514.2 601C471.3 601 428.7 601 385.8 601C343 601 300 601 257.2 601C214.3 601 171.7 601 128.8 601C86 601 43 601 21.5 601L0 601Z"/><path fill="#895328" d="M0 352L21.5 340.2C43 328.3 86 304.7 128.8 279.2C171.7 253.7 214.3 226.3 257.2 228.3C300 230.3 343 261.7 385.8 269.3C428.7 277 471.3 261 514.2 258.2C557 255.3 600 265.7 642.8 281C685.7 296.3 728.3 316.7 771.2 302C814 287.3 857 237.7 878.5 212.8L900 188L900 601L878.5 601C857 601 814 601 771.2 601C728.3 601 685.7 601 642.8 601C600 601 557 601 514.2 601C471.3 601 428.7 601 385.8 601C343 601 300 601 257.2 601C214.3 601 171.7 601 128.8 601C86 601 43 601 21.5 601L0 601Z"/><path fill="#764116" d="M0 408L21.5 404.5C43 401 86 394 128.8 376C171.7 358 214.3 329 257.2 326.8C300 324.7 343 349.3 385.8 360.5C428.7 371.7 471.3 369.3 514.2 374.5C557 379.7 600 392.3 642.8 378.7C685.7 365 728.3 325 771.2 321.3C814 317.7 857 350.3 878.5 366.7L900 383L900 601L878.5 601C857 601 814 601 771.2 601C728.3 601 685.7 601 642.8 601C600 601 557 601 514.2 601C471.3 601 428.7 601 385.8 601C343 601 300 601 257.2 601C214.3 601 171.7 601 128.8 601C86 601 43 601 21.5 601L0 601Z"/><path fill="#663815" d="M0 371L21.5 377.2C43 383.3 86 395.7 128.8 410.5C171.7 425.3 214.3 442.7 257.2 449C300 455.3 343 450.7 385.8 437.2C428.7 423.7 471.3 401.3 514.2 400.7C557 400 600 421 642.8 428.5C685.7 436 728.3 430 771.2 420.3C814 410.7 857 397.3 878.5 390.7L900 384L900 601L878.5 601C857 601 814 601 771.2 601C728.3 601 685.7 601 642.8 601C600 601 557 601 514.2 601C471.3 601 428.7 601 385.8 601C343 601 300 601 257.2 601C214.3 601 171.7 601 128.8 601C86 601 43 601 21.5 601L0 601Z"/><path fill="#573014" d="M0 453L21.5 468C43 483 86 513 128.8 514C171.7 515 214.3 487 257.2 476.8C300 466.7 343 474.3 385.8 485.5C428.7 496.7 471.3 511.3 514.2 518.8C557 526.3 600 526.7 642.8 517.2C685.7 507.7 728.3 488.3 771.2 489.7C814 491 857 513 878.5 524L900 535L900 601L878.5 601C857 601 814 601 771.2 601C728.3 601 685.7 601 642.8 601C600 601 557 601 514.2 601C471.3 601 428.7 601 385.8 601C343 601 300 601 257.2 601C214.3 601 171.7 601 128.8 601C86 601 43 601 21.5 601L0 601Z"/></svg>