<svg xmlns="http://www.w3.org/2000/svg" xmlns:xlink="http://www.w3.org/1999/xlink" id="visual" width="900" height="600" version="1.1" viewBox="0 0 900 600"><rect width="900" height="600" x="0" y="0" fill="#42a08f"/><path fill="#7b471d" d="M0 241L21.5 253C43 265 86 289 128.8 297.7C171.7 306.3 214.3 299.7 257.2 289C300 278.3 343 263.7 385.8 267.3C428.7 271 471.3 293 514.2 309.3C557 325.7 600 336.3 642.8 340.2C685.7 344 728.3 341 771.2 338.3C814 335.7 857 333.3 878.5 332.2L900 331L900 601L878.5 601C857 601 814 601 771.2 601C728.3 601 685.7 601 642.8 601C600 601 557 601 514.2 601C471.3 601 428.7 601 385.8 601C343 601 300 601 257.2 601C214.3 601 171.7 601 128.8 601C86 601 43 601 21.5 601L0 601Z"/><path fill="#6e401a" d="M0 331L21.5 341.3C43 351.7 86 372.3 128.8 372.2C171.7 372 214.3 351 257.2 343.2C300 335.3 343 340.7 385.8 339.2C428.7 337.7 471.3 329.3 514.2 336C557 342.7 600 364.3 642.8 367C685.7 369.7 728.3 353.3 771.2 357.2C814 361 857 385 878.5 397L900 409L900 601L878.5 601C857 601 814 601 771.2 601C728.3 601 685.7 601 642.8 601C600 601 557 601 514.2 601C471.3 601 428.7 601 385.8 601C343 601 300 601 257.2 601C214.3 601 171.7 601 128.8 601C86 601 43 601 21.5 601L0 601Z"/><path fill="#613918" d="M0 434L21.5 436.7C43 439.3 86 444.7 128.8 442.5C171.7 440.3 214.3 430.7 257.2 424.8C300 419 343 417 385.8 416.7C428.7 416.3 471.3 417.7 514.2 426.8C557 436 600 453 642.8 461.3C685.7 469.7 728.3 469.3 771.2 471.5C814 473.7 857 478.3 878.5 480.7L900 483L900 601L878.5 601C857 601 814 601 771.2 601C728.3 601 685.7 601 642.8 601C600 601 557 601 514.2 601C471.3 601 428.7 601 385.8 601C343 601 300 601 257.2 601C214.3 601 171.7 601 128.8 601C86 601 43 601 21.5 601L0 601Z"/><path fill="#543216" d="M0 484L21.5 483.5C43 483 86 482 128.8 482.7C171.7 483.3 214.3 485.7 257.2 490.5C300 495.3 343 502.7 385.8 501.5C428.7 500.3 471.3 490.7 514.2 485.8C557 481 600 481 642.8 484.2C685.7 487.3 728.3 493.7 771.2 499.5C814 505.3 857 510.7 878.5 513.3L900 516L900 601L878.5 601C857 601 814 601 771.2 601C728.3 601 685.7 601 642.8 601C600 601 557 601 514.2 601C471.3 601 428.7 601 385.8 601C343 601 300 601 257.2 601C214.3 601 171.7 601 128.8 601C86 601 43 601 21.5 601L0 601Z"/></svg>