<svg id="visual" viewBox="0 0 960 540" width="960" height="540" xmlns="http://www.w3.org/2000/svg" xmlns:xlink="http://www.w3.org/1999/xlink" version="1.1"><path d="M0 330L13.3 310.3C26.7 290.7 53.3 251.3 80 237C106.7 222.7 133.3 233.3 160 215.3C186.7 197.3 213.3 150.7 240 139C266.7 127.3 293.3 150.7 320 178.5C346.7 206.3 373.3 238.7 400 233.2C426.7 227.7 453.3 184.3 480 186.2C506.7 188 533.3 235 560 256.7C586.7 278.3 613.3 274.7 640 247.7C666.7 220.7 693.3 170.3 720 140.7C746.7 111 773.3 102 800 120.8C826.7 139.7 853.3 186.3 880 189.8C906.7 193.3 933.3 153.7 946.7 133.8L960 114L960 0L946.7 0C933.3 0 906.7 0 880 0C853.3 0 826.7 0 800 0C773.3 0 746.7 0 720 0C693.3 0 666.7 0 640 0C613.3 0 586.7 0 560 0C533.3 0 506.7 0 480 0C453.3 0 426.7 0 400 0C373.3 0 346.7 0 320 0C293.3 0 266.7 0 240 0C213.3 0 186.7 0 160 0C133.3 0 106.7 0 80 0C53.3 0 26.7 0 13.3 0L0 0Z" fill="#42a08f"></path><path d="M0 422L13.3 402.2C26.7 382.3 53.3 342.7 80 340C106.7 337.3 133.3 371.7 160 349.2C186.7 326.7 213.3 247.3 240 229.3C266.7 211.3 293.3 254.7 320 301.5C346.7 348.3 373.3 398.7 400 387C426.7 375.3 453.3 301.7 480 285.5C506.7 269.3 533.3 310.7 560 337.7C586.7 364.7 613.3 377.3 640 353C666.7 328.7 693.3 267.3 720 245.7C746.7 224 773.3 242 800 266.3C826.7 290.7 853.3 321.3 880 326.8C906.7 332.3 933.3 312.7 946.7 302.8L960 293L960 112L946.7 131.8C933.3 151.7 906.7 191.3 880 187.8C853.3 184.3 826.7 137.7 800 118.8C773.3 100 746.7 109 720 138.7C693.3 168.3 666.7 218.7 640 245.7C613.3 272.7 586.7 276.3 560 254.7C533.3 233 506.7 186 480 184.2C453.3 182.3 426.7 225.7 400 231.2C373.3 236.7 346.7 204.3 320 176.5C293.3 148.7 266.7 125.3 240 137C213.3 148.7 186.7 195.3 160 213.3C133.3 231.3 106.7 220.7 80 235C53.3 249.3 26.7 288.7 13.3 308.3L0 328Z" fill="#72c574"></path><path d="M0 541L13.3 541C26.7 541 53.3 541 80 541C106.7 541 133.3 541 160 541C186.7 541 213.3 541 240 541C266.7 541 293.3 541 320 541C346.7 541 373.3 541 400 541C426.7 541 453.3 541 480 541C506.7 541 533.3 541 560 541C586.7 541 613.3 541 640 541C666.7 541 693.3 541 720 541C746.7 541 773.3 541 800 541C826.7 541 853.3 541 880 541C906.7 541 933.3 541 946.7 541L960 541L960 291L946.7 300.8C933.3 310.7 906.7 330.3 880 324.8C853.3 319.3 826.7 288.7 800 264.3C773.3 240 746.7 222 720 243.7C693.3 265.3 666.7 326.7 640 351C613.3 375.3 586.7 362.7 560 335.7C533.3 308.7 506.7 267.3 480 283.5C453.3 299.7 426.7 373.3 400 385C373.3 396.7 346.7 346.3 320 299.5C293.3 252.7 266.7 209.3 240 227.3C213.3 245.3 186.7 324.7 160 347.2C133.3 369.7 106.7 335.3 80 338C53.3 340.7 26.7 380.3 13.3 400.2L0 420Z" fill="#d9dc41"></path></svg>