<?xml version="1.0" encoding="UTF-8" standalone="no"?>
<svg
   version="1.1"
   id="svg2"
   xml:space="preserve"
   width="1235"
   height="938.97333"
   viewBox="0 0 1235 938.97333"
   sodipodi:docname="kids.svg"
   inkscape:version="1.1 (c68e22c387, 2021-05-23)"
   xmlns:inkscape="http://www.inkscape.org/namespaces/inkscape"
   xmlns:sodipodi="http://sodipodi.sourceforge.net/DTD/sodipodi-0.dtd"
   xmlns="http://www.w3.org/2000/svg"
   xmlns:svg="http://www.w3.org/2000/svg"
   xmlns:rdf="http://www.w3.org/1999/02/22-rdf-syntax-ns#"
   xmlns:cc="http://creativecommons.org/ns#"
   xmlns:dc="http://purl.org/dc/elements/1.1/"><metadata
     id="metadata8"><rdf:RDF><cc:Work
         rdf:about=""><dc:format>image/svg+xml</dc:format><dc:type
           rdf:resource="http://purl.org/dc/dcmitype/StillImage" /></cc:Work></rdf:RDF></metadata><defs
     id="defs6"><clipPath
       clipPathUnits="userSpaceOnUse"
       id="clipPath1910"><path
         d="m 2934.13,6491.02 c 1.76,2.03 3.54,4.07 5.33,6.11 0,0 0,0 0,0 -1.79,-2.04 -3.57,-4.08 -5.33,-6.11"
         id="path1908" /></clipPath></defs><sodipodi:namedview
     pagecolor="#ffffff"
     bordercolor="#666666"
     borderopacity="1"
     objecttolerance="10"
     gridtolerance="10"
     guidetolerance="10"
     inkscape:pageopacity="0"
     inkscape:pageshadow="2"
     inkscape:window-width="1920"
     inkscape:window-height="1009"
     id="namedview4"
     inkscape:pagecheckerboard="0"
     showgrid="false"
     inkscape:zoom="0.80193971"
     inkscape:cx="617.87687"
     inkscape:cy="469.48666"
     inkscape:window-x="1912"
     inkscape:window-y="-8"
     inkscape:window-maximized="1"
     inkscape:current-layer="g10" /><g
     id="g10"
     inkscape:groupmode="layer"
     inkscape:label="ink_ext_XXXXXX"
     transform="matrix(1.3333333,0,0,-1.3333333,0,938.97333)"><g
       id="g4006"
       transform="matrix(2.2887444,0,0,2.0490107,-1191.8341,4.6761621)"><path
         d="m 632.036,93.7832 c 0,0 19.065,7.0858 19.522,7.4588 l 0.376,-0.753 -16.07,-8.1851 -3.828,1.4793"
         style="fill:#ffae85;fill-opacity:1;fill-rule:nonzero;stroke:none;stroke-width:0.1"
         id="path672" /><path
         d="m 636.101,97.1 -12.224,-4.6391 c -4.264,-2.3308 -0.062,-6.8191 4.287,-5.7097 l 9.292,2.2648 -1.355,8.084"
         style="fill:#5bb1d3;fill-opacity:1;fill-rule:nonzero;stroke:none;stroke-width:0.1"
         id="path674" /><path
         d="m 654.206,83.482 15.053,9.0891 -0.263,0.4988 c 0,0 -16.057,-7.0469 -16.589,-8.082 -0.535,-1.0367 0.23,-2.543 1.799,-1.5059"
         style="fill:#ffcd9c;fill-opacity:1;fill-rule:nonzero;stroke:none;stroke-width:0.1"
         id="path676" /><path
         d="m 588.356,89.5531 c 5.262,5.2571 1.753,13.9549 2.391,17.3509 0.569,3.015 6.057,9.446 5.656,15.082 -0.546,7.668 -5.583,8.2 -10.52,6.312 -7.564,-2.895 -8.674,-20.466 -2.493,-26.885 4.99,-5.186 4.966,-11.8599 4.966,-11.8599"
         style="fill:#d35a35;fill-opacity:1;fill-rule:nonzero;stroke:none;stroke-width:0.1"
         id="path678" /><path
         d="m 589.49,122.136 c 2.668,0.458 4.958,1.431 6.447,2.602 0.229,-0.793 0.39,-1.704 0.466,-2.752 0.401,-5.636 -5.087,-12.067 -5.656,-15.082 -0.638,-3.396 2.871,-12.0938 -2.391,-17.3509 0,0 0.024,6.6739 -4.966,11.8599 -4.479,4.651 -5.128,15.156 -2.267,21.691 1.723,-1.133 4.892,-1.568 8.367,-0.968"
         style="fill:#bc4124;fill-opacity:1;fill-rule:nonzero;stroke:none;stroke-width:0.1"
         id="path680" /><path
         d="m 622.849,139.739 c -5.899,3.66 -27.332,-2.879 -29.967,-14.933 -2.635,-12.056 2.238,-32.34 26.603,-29.9318 24.363,2.409 11.11,40.0608 3.364,44.8648"
         style="fill:#d35a35;fill-opacity:1;fill-rule:nonzero;stroke:none;stroke-width:0.1"
         id="path682" /><path
         d="m 609.916,122.91 c 6.227,2.531 10.882,7.075 12.171,11.377 4.837,-9.279 17.718,-37.4042 -2.602,-39.4128 -24.333,-2.4074 -30.184,16.7418 -26.614,29.8808 2.44,-3.984 9.593,-4.871 17.045,-1.845"
         style="fill:#bc4124;fill-opacity:1;fill-rule:nonzero;stroke:none;stroke-width:0.1"
         id="path684" /><path
         d="m 625.581,92.3621 -3.228,5.45 -3.635,-1.6363 3.155,-7.0707 3.708,3.257"
         style="fill:#ffcd9c;fill-opacity:1;fill-rule:nonzero;stroke:none;stroke-width:0.1"
         id="path686" /><path
         d="m 621.873,89.1051 -2.566,5.7519 -0.589,1.3188 3.635,1.6363 3.228,-5.45 -3.384,-2.9723 -0.324,-0.2847"
         style="fill:#dd8962;fill-opacity:1;fill-rule:nonzero;stroke:none;stroke-width:0.1"
         id="path688" /><path
         d="m 610.397,98.448 c 3.52,-4.4898 11.09,-6.3121 21.351,2.097 9.487,7.497 1.279,15.543 -3.075,27.708 -3.64,7.17 -8.832,11.206 -19.336,4.67 -7.055,-4.392 -2.803,-29.552 1.06,-34.475"
         style="fill:#ffcd9c;fill-opacity:1;fill-rule:nonzero;stroke:none;stroke-width:0.1"
         id="path690" /><path
         d="m 656.785,83.4422 c -0.806,0.3617 -9.876,-7.1762 -9.876,-7.1762 l 2.044,-1.782 c 0,0 9.119,6.7121 9.244,7.564 0.127,0.854 -0.606,1.0321 -1.412,1.3942"
         style="fill:#ffae85;fill-opacity:1;fill-rule:nonzero;stroke:none;stroke-width:0.1"
         id="path692" /><path
         d="m 673.166,89.352 -0.219,0.525 c 0,0 -16.496,-5.7231 -17.119,-6.7071 -0.243,-0.389 0.523,-1.5301 1.418,-1.6277 1.692,-0.1863 4.462,1.5687 15.92,7.8098"
         style="fill:#ffcd9c;fill-opacity:1;fill-rule:nonzero;stroke:none;stroke-width:0.1"
         id="path694" /><path
         d="m 653.719,85.825 c -0.836,0.293 -9.457,-8.6121 -9.457,-8.6121 l 2.193,-1.591 c 0,0 7.785,7.214 7.834,8.073 0.049,0.861 0.264,1.841 -0.57,2.1301"
         style="fill:#ffae85;fill-opacity:1;fill-rule:nonzero;stroke:none;stroke-width:0.1"
         id="path696" /><path
         d="m 649.561,82.7738 c 0,0 -7.631,-6.2058 -9.543,-5.5539 -2.503,0.8531 -5.665,-9.2031 -5.665,-9.2031 0,0 4.478,-0.2008 10.285,-0.4598 3.651,1.127 6.881,5.4828 10.591,8.1758 0,0 -0.352,3.8942 -5.668,7.041"
         style="fill:#403b4f;fill-opacity:1;fill-rule:nonzero;stroke:none;stroke-width:0.1"
         id="path698" /><path
         d="m 652.505,81.7551 c 0,0 -9.012,-5.4852 -11.635,-5.3801 -2.644,0.0988 -5.893,-8.8699 -5.893,-8.8699 0,0 4.477,-0.202 10.284,-0.459 3.652,1.1258 8.309,3.0719 12.019,5.766 0,0 0.543,5.7949 -4.775,8.943"
         style="fill:#4a4459;fill-opacity:1;fill-rule:nonzero;stroke:none;stroke-width:0.1"
         id="path700" /><path
         d="m 640.87,76.375 c 0.306,-0.0121 0.702,0.0539 1.158,0.177 -1.151,-9.02 9.122,-2.2418 14.111,1.421 1.376,-2.6289 1.141,-5.1609 1.141,-5.1609 -3.71,-2.6941 -8.367,-4.6402 -12.019,-5.766 -5.807,0.257 -10.284,0.459 -10.284,0.459 0,0 3.249,8.9687 5.893,8.8699"
         style="fill:#3d384c;fill-opacity:1;fill-rule:nonzero;stroke:none;stroke-width:0.1"
         id="path702" /><path
         d="m 627.878,93.1602 c -2.004,3.3707 -8.924,-1.6993 -7.795,-6.2383 1.132,-4.5367 5.919,-14.0457 14.894,-19.4168 4.927,1.7168 5.713,4.7668 6.867,10.141 -8.013,2.9059 -10.896,10.357 -13.966,15.5141"
         style="fill:#7ac4ea;fill-opacity:1;fill-rule:nonzero;stroke:none;stroke-width:0.1"
         id="path704" /><path
         d="m 623.449,93.4488 c 5.766,-2.9539 9.259,-20.266 11.439,-21.1519 2.37,-0.9629 4.508,2.448 6.376,5.5761 0.191,-0.0761 0.384,-0.1539 0.58,-0.2269 -1.154,-5.3742 -1.94,-8.4242 -6.867,-10.141 -8.975,5.3711 -13.762,14.8801 -14.894,19.4168 -0.629,2.5281 1.238,5.2191 3.366,6.5269"
         style="fill:#5bb1d3;fill-opacity:1;fill-rule:nonzero;stroke:none;stroke-width:0.1"
         id="path706" /><path
         d="m 669.757,92.1781 -0.605,5.2801 c 0,0 -1.021,-3.9934 -0.85,-4.8113 0.177,-0.8149 1.455,-0.4688 1.455,-0.4688"
         style="fill:#e5cdb7;fill-opacity:1;fill-rule:nonzero;stroke:none;stroke-width:0.1"
         id="path708" /><path
         d="m 673.678,88.7398 0.378,5.3012 c 0,0 -1.741,-3.739 -1.719,-4.573 0.02,-0.8328 1.341,-0.7282 1.341,-0.7282"
         style="fill:#e5cdb7;fill-opacity:1;fill-rule:nonzero;stroke:none;stroke-width:0.1"
         id="path710" /><path
         d="m 631.7,96.277 c 0,0 18.098,9.278 18.508,9.701 l 0.46,-0.705 -14.993,-10.016 -3.975,1.02"
         style="fill:#ffcd9c;fill-opacity:1;fill-rule:nonzero;stroke:none;stroke-width:0.1"
         id="path712" /><path
         d="m 636.358,98.673 0.361,-1.2589 13.764,8.1469 0.185,-0.288 -15.947,-10.9628 -3.021,1.9668 c 0,0 1.99,1.021 4.658,2.396"
         style="fill:#ffae85;fill-opacity:1;fill-rule:nonzero;stroke:none;stroke-width:0.1"
         id="path714" /><path
         d="m 635.177,99.0641 -11.821,-5.5852 c -4.067,-2.6598 0.475,-6.8051 4.722,-5.3578 l 7.416,2.4398 -0.317,8.5032"
         style="fill:#7ac4ea;fill-opacity:1;fill-rule:nonzero;stroke:none;stroke-width:0.1"
         id="path716" /><path
         d="m 623.356,93.4789 0.171,0.0801 c -0.327,-2.25 3.061,-4.3711 6.286,-3.2738 l 5.62,1.8507 0.061,-1.575 -7.625,-3.0371 c -4.247,-1.4476 -8.58,3.2953 -4.513,5.9551"
         style="fill:#5bb1d3;fill-opacity:1;fill-rule:nonzero;stroke:none;stroke-width:0.1"
         id="path718" /><path
         d="m 630.571,80.1289 c 0.449,-0.809 2.841,-6.916 1.869,-6.9937 -0.974,-0.0793 -1.869,6.9937 -1.869,6.9937"
         style="fill:#7ac4ea;fill-opacity:1;fill-rule:nonzero;stroke:none;stroke-width:0.1"
         id="path720" /><path
         d="m 612.143,100.936 c 1.506,4.783 0.535,11.937 -0.459,15.054 -0.993,3.116 9.78,19.932 2.858,20.565 -6.924,0.633 -16.072,-12.377 -12.478,-22.4 3.594,-10.02 10.079,-13.219 10.079,-13.219"
         style="fill:#bc4124;fill-opacity:1;fill-rule:nonzero;stroke:none;stroke-width:0.1"
         id="path722" /><path
         d="m 610.827,104.067 c -2.247,2.456 -6.367,2.224 -6.637,-0.19 -0.269,-2.41 4.911,-5.877 7.484,-6.152 2.574,-0.2789 0.539,4.826 -0.847,6.342"
         style="fill:#ffcd9c;fill-opacity:1;fill-rule:nonzero;stroke:none;stroke-width:0.1"
         id="path724" /><path
         d="m 609.807,103.018 c -1.432,1.199 -3.705,0.764 -3.676,-0.596 0.029,-1.363 3.165,-2.906 4.616,-2.87 1.455,0.039 -0.056,2.723 -0.94,3.466"
         style="fill:#ef8f6f;fill-opacity:1;fill-rule:nonzero;stroke:none;stroke-width:0.1"
         id="path726" /><path
         d="m 611.396,101.401 c -0.872,0.731 -2.262,0.467 -2.242,-0.366 0.017,-0.829 1.931,-1.7721 2.817,-1.7479 0.885,0.0207 -0.037,1.6619 -0.575,2.1139"
         style="fill:#ffcd9c;fill-opacity:1;fill-rule:nonzero;stroke:none;stroke-width:0.1"
         id="path728" /><path
         d="m 601.246,128.833 c 2.833,5.746 11.52,10.161 13.989,8.923 2.468,-1.242 2.172,-6.903 -0.664,-12.649 -2.832,-5.744 -7.131,-9.396 -9.601,-8.157 -2.467,1.239 -6.559,6.136 -3.724,11.883"
         style="fill:#d35a35;fill-opacity:1;fill-rule:nonzero;stroke:none;stroke-width:0.1"
         id="path730" /><path
         d="m 623.06,113.029 c -0.922,2.135 -2.901,3.34 -4.417,2.695 -1.519,-0.645 -2.003,-2.896 -1.08,-5.031 0.918,-2.133 2.269,-1.891 3.788,-1.245 1.519,0.642 2.63,1.448 1.709,3.581"
         style="fill:#af6345;fill-opacity:1;fill-rule:nonzero;stroke:none;stroke-width:0.1"
         id="path732" /><path
         d="m 631.735,116.212 c -0.718,2.165 -2.485,3.535 -3.941,3.061 -1.46,-0.48 -2.066,-2.62 -1.346,-4.784 0.718,-2.167 1.995,-2.065 3.456,-1.59 1.462,0.475 2.547,1.148 1.831,3.313"
         style="fill:#af6345;fill-opacity:1;fill-rule:nonzero;stroke:none;stroke-width:0.1"
         id="path734" /><path
         d="m 626.311,117.357 -0.886,0.555 0.223,0.983 0.95,-0.903 -0.287,-0.635"
         style="fill:#af6345;fill-opacity:1;fill-rule:nonzero;stroke:none;stroke-width:0.1"
         id="path736" /><path
         d="m 627.273,118.403 -0.585,0.965 0.63,0.664 0.497,-1.277 -0.542,-0.352"
         style="fill:#af6345;fill-opacity:1;fill-rule:nonzero;stroke:none;stroke-width:0.1"
         id="path738" /><path
         d="m 628.872,119.026 -0.079,1.12 0.878,0.118 -0.149,-1.306 -0.65,0.068"
         style="fill:#af6345;fill-opacity:1;fill-rule:nonzero;stroke:none;stroke-width:0.1"
         id="path740" /><path
         d="m 617.4,114.002 -0.911,0.586 0.229,0.976 0.978,-0.932 -0.296,-0.63"
         style="fill:#af6345;fill-opacity:1;fill-rule:nonzero;stroke:none;stroke-width:0.1"
         id="path742" /><path
         d="m 618.394,115.019 -0.605,0.991 0.647,0.646 0.512,-1.303 -0.554,-0.334"
         style="fill:#af6345;fill-opacity:1;fill-rule:nonzero;stroke:none;stroke-width:0.1"
         id="path744" /><path
         d="m 620.038,115.596 -0.081,1.123 0.905,0.096 -0.154,-1.31 -0.67,0.091"
         style="fill:#af6345;fill-opacity:1;fill-rule:nonzero;stroke:none;stroke-width:0.1"
         id="path746" /><path
         d="m 629.885,122.96 c -2.153,0.949 -4.164,0.244 -4.475,-0.102 l -0.791,0.789 c 0.568,0.625 2.978,1.261 5.371,0.208 l -0.105,-0.895"
         style="fill:#d35a35;fill-opacity:1;fill-rule:nonzero;stroke:none;stroke-width:0.1"
         id="path748" /><path
         d="m 618.276,120.002 c -2.095,-0.272 -3.579,-2.403 -3.738,-3.012 l -0.902,0.422 c 0.296,1.096 2.136,3.406 4.46,3.708 l 0.18,-1.118"
         style="fill:#d35a35;fill-opacity:1;fill-rule:nonzero;stroke:none;stroke-width:0.1"
         id="path750" /><path
         d="m 629.747,108.807 -5.441,-2.19 c 0,0 1.245,-4.314 3.868,-2.92 2.626,1.394 1.573,5.11 1.573,5.11"
         style="fill:#512e26;fill-opacity:1;fill-rule:nonzero;stroke:none;stroke-width:0.1"
         id="path752" /><path
         d="m 624.831,106.482 c 0,0 0.253,-0.872 0.769,-1.6 l 3.715,1.283 c 0.176,1.067 -0.108,2.081 -0.108,2.081 l -4.376,-1.764"
         style="fill:#fff9e9;fill-opacity:1;fill-rule:nonzero;stroke:none;stroke-width:0.1"
         id="path754" /><path
         d="m 616.195,108.506 c -0.987,1.731 0.401,4.382 3.1,5.921 2.698,1.536 5.686,1.374 6.673,-0.359 0.988,-1.732 -0.4,-4.386 -3.098,-5.919 -2.701,-1.537 -5.689,-1.377 -6.675,0.357"
         style="fill:#ffcd9c;fill-opacity:1;fill-rule:nonzero;stroke:none;stroke-width:0.1"
         id="path756" /><path
         d="m 624.896,113.348 c -0.635,1.894 1.07,4.17 3.81,5.091 2.74,0.921 3.691,-0.34 4.326,-2.229 0.633,-1.892 0.714,-3.697 -2.026,-4.617 -2.74,-0.92 -5.475,-0.133 -6.11,1.755"
         style="fill:#ffcd9c;fill-opacity:1;fill-rule:nonzero;stroke:none;stroke-width:0.1"
         id="path758" /><path
         d="m 625.581,112.111 0.037,-0.121 c 0.246,-0.571 1.021,-0.749 1.731,-0.4 0.279,0.139 0.505,0.345 0.662,0.575 0.153,-0.553 -0.208,-1.221 -0.865,-1.547 -0.707,-0.349 -1.482,-0.171 -1.73,0.401 -0.147,0.34 -0.07,0.746 0.165,1.092"
         style="fill:#ef8f6f;fill-opacity:1;fill-rule:nonzero;stroke:none;stroke-width:0.1"
         id="path760" /><path
         d="m 654.781,99.7891 c 0.69,0.055 1.431,0.3149 1.454,0.5989 0.022,0.245 -0.533,0.05 -1.008,0.079 -0.427,0.027 -0.574,0.03 -0.553,0.139 0.014,0.073 0.574,0.145 1.192,0.241 0.778,0.125 1.283,0.327 1.296,0.613 0.003,0.268 -0.493,0.064 -1.188,0.031 -0.614,-0.033 -0.886,-0.085 -0.881,0.192 -0.003,0.126 0.413,0.194 1.044,0.423 0.715,0.255 1.127,0.576 1.074,0.788 -0.079,0.294 -0.362,-0.038 -1.197,-0.22 -1.119,-0.246 -1.385,-0.476 -1.962,-0.179 -0.538,0.284 1.464,1.221 1.041,1.547 -0.56,0.431 -3.73,-2.205 -3.723,-3.045 0.013,-1.2091 1.211,-1.3779 3.411,-1.2079"
         style="fill:#ffae85;fill-opacity:1;fill-rule:nonzero;stroke:none;stroke-width:0.1"
         id="path762" /><path
         d="m 653.248,105.637 c 0.647,0.251 1.284,0.714 1.224,0.993 -0.051,0.24 -0.525,-0.105 -0.991,-0.216 -0.413,-0.096 -0.556,-0.135 -0.569,-0.026 -0.007,0.076 0.508,0.304 1.074,0.575 0.708,0.341 1.135,0.679 1.065,0.959 -0.074,0.259 -0.49,-0.078 -1.148,-0.31 -0.577,-0.211 -0.824,-0.337 -0.898,-0.071 -0.039,0.122 0.338,0.306 0.879,0.705 0.613,0.45 0.915,0.876 0.804,1.062 -0.162,0.263 -0.337,-0.141 -1.087,-0.553 -1,-0.557 -1.187,-0.853 -1.825,-0.734 -0.597,0.118 1.051,1.59 0.552,1.781 -0.66,0.252 -2.941,-3.184 -2.694,-3.987 0.361,-1.155 1.559,-0.973 3.614,-0.178"
         style="fill:#ffcd9c;fill-opacity:1;fill-rule:nonzero;stroke:none;stroke-width:0.1"
         id="path764" /><path
         d="m 807.471,74.682 30.116,-13.2179 0.652,1.4488 -28.838,15.7301 -1.93,-3.961"
         style="fill:#ffb882;fill-opacity:1;fill-rule:nonzero;stroke:none;stroke-width:0.1"
         id="path766" /><path
         d="m 824.031,70.6629 -14.63,7.9801 -1.93,-3.9602 13.671,-6.0008 c 0.803,0.7219 1.773,1.391 2.889,1.9809"
         style="fill:#ff9566;fill-opacity:1;fill-rule:nonzero;stroke:none;stroke-width:0.1"
         id="path768" /><path
         d="m 812.758,66.884 5.592,9.425 -12.586,7.2551 -5.814,-10.436 12.808,-6.2441"
         style="fill:#54b7e2;fill-opacity:1;fill-rule:nonzero;stroke:none;stroke-width:0.1"
         id="path770" /><path
         d="m 807.796,74.777 0.084,4.8839 -2.116,3.9032 -7.191,-11.095 14.185,-5.5851 1.932,3.2551 -6.894,4.6379"
         style="fill:#339ec4;fill-opacity:1;fill-rule:nonzero;stroke:none;stroke-width:0.1"
         id="path772" /><path
         d="m 759.68,78.4941 -31.398,9.043 -0.469,-1.5301 30.437,-11.714 1.43,4.2011"
         style="fill:#ffb882;fill-opacity:1;fill-rule:nonzero;stroke:none;stroke-width:0.1"
         id="path774" /><path
         d="m 745.579,82.5551 c -1.465,-0.5992 -3.059,-1.1199 -4.744,-1.5602 l 17.415,-6.7019 1.43,4.2011 -14.101,4.061"
         style="fill:#ff9566;fill-opacity:1;fill-rule:nonzero;stroke:none;stroke-width:0.1"
         id="path776" /><path
         d="m 758.923,57.957 -31.166,-8.566 0.316,-1.5902 31.594,5.7121 -0.744,4.4441"
         style="fill:#ffb882;fill-opacity:1;fill-rule:nonzero;stroke:none;stroke-width:0.1"
         id="path778" /><path
         d="m 743.048,50.509 16.619,3.0051 -0.743,4.4429 -11.037,-3.0332 c -0.895,-1.3808 -2.589,-2.9269 -4.839,-4.4148"
         style="fill:#ff9566;fill-opacity:1;fill-rule:nonzero;stroke:none;stroke-width:0.1"
         id="path780" /><path
         d="m 752.716,82.802 -1.038,-16.2731 11.035,-1.423 0.056,-3.2129 -11.626,-4.5891 2.201,-14.325 c 0,0 22.855,8.7723 27.807,14.4781 l -3.89,18.3379 -24.545,7.0071"
         style="fill:#ffdf99;fill-opacity:1;fill-rule:nonzero;stroke:none;stroke-width:0.1"
         id="path782" /><path
         d="m 762.769,61.893 -3.307,-1.3051 c 2.177,0.607 4.401,-0.4981 6.265,-0.341 -1.029,2.3281 -1.271,6.9043 -1.64,9.7383 -3.624,-0.7684 -8.475,-0.8122 -12.17,0.2886 l -0.239,-3.7449 11.035,-1.423 0.056,-3.2129"
         style="fill:#f4c76c;fill-opacity:1;fill-rule:nonzero;stroke:none;stroke-width:0.1"
         id="path784" /><path
         d="m 777.261,75.7949 -8.105,2.3141 c 9.429,-16.2059 1.68,-29.0219 -16.37,-31.4918 l 0.558,-3.6383 c 0,0 25.283,7.5512 30.236,13.257 l -6.319,19.559"
         style="fill:#f4c76c;fill-opacity:1;fill-rule:nonzero;stroke:none;stroke-width:0.1"
         id="path786" /><path
         d="m 771.087,78.3691 9.155,-28.5871 c 0,0 25.599,12.4282 28.015,30.166 0.59,4.3321 -10.808,11.8059 -13.69,8.434 -2.881,-3.373 -11.498,-7.3511 -23.48,-10.0129"
         style="fill:#54b7e2;fill-opacity:1;fill-rule:nonzero;stroke:none;stroke-width:0.1"
         id="path788" /><path
         d="m 793.325,85.1512 c 4.077,5.2008 1.642,5.0027 0.429,3.5828 -2.611,-3.057 -9.133,-6.9602 -19.401,-9.5809 9.28,0.7059 16.744,3.1559 18.972,5.9981"
         style="fill:#339ec4;fill-opacity:1;fill-rule:nonzero;stroke:none;stroke-width:0.1"
         id="path790" /><path
         d="m 778.047,55.823 1.979,-6.1691 c 0,0 22.574,10.732 27.601,26.6293 -7.36,-11.0281 -23.561,-16.7684 -29.58,-20.4602"
         style="fill:#339ec4;fill-opacity:1;fill-rule:nonzero;stroke:none;stroke-width:0.1"
         id="path792" /><path
         d="m 791.781,90.659 -28.188,20.354 -0.926,-1.354 26.431,-22.668 2.683,3.668"
         style="fill:#ffb882;fill-opacity:1;fill-rule:nonzero;stroke:none;stroke-width:0.1"
         id="path794" /><path
         d="m 784.06,96.234 c -0.604,-1.1141 -1.428,-2.066 -2.433,-2.836 l 7.471,-6.407 2.683,3.668 -7.721,5.575"
         style="fill:#ff9566;fill-opacity:1;fill-rule:nonzero;stroke:none;stroke-width:0.1"
         id="path796" /><path
         d="m 787.832,95.441 -7.54,-8.3801 10.983,-5.0328 9.82,4.2699 -13.263,9.143"
         style="fill:#54b7e2;fill-opacity:1;fill-rule:nonzero;stroke:none;stroke-width:0.1"
         id="path798" /><path
         d="m 782.829,89.9102 -2.652,-2.8633 7.6,-5.252 3.941,1.561 -8.889,6.5543"
         style="fill:#339ec4;fill-opacity:1;fill-rule:nonzero;stroke:none;stroke-width:0.1"
         id="path800" /><path
         d="m 809.408,81.4641 -1.92,1.1058 c -1.526,2.4461 -4.997,5.0153 -8.053,6.1082 l -2.035,1.3578 c -3.611,-7.8289 6.252,-10.257 12.008,-8.5718"
         style="fill:#ffdf99;fill-opacity:1;fill-rule:nonzero;stroke:none;stroke-width:0.1"
         id="path802" /><path
         d="m 808.207,87.677 -5.864,3.9429 -2.87,-3.773 c -0.831,-2.366 2.933,-4.959 6.406,-4.6449 l 2.328,4.475"
         style="fill:#ffb288;fill-opacity:1;fill-rule:nonzero;stroke:none;stroke-width:0.1"
         id="path804" /><path
         d="m 807.831,76.7879 0.017,1.0121 c 0.173,0.7078 0.31,1.423 0.409,2.148 0.053,0.386 0.01,0.7969 -0.113,1.2231 0.438,0.0769 0.86,0.175 1.264,0.293 l 5.482,-3.1602 c -2.598,-1.043 -4.949,-1.5 -7.059,-1.516"
         style="fill:#3b5e74;fill-opacity:1;fill-rule:nonzero;stroke:none;stroke-width:0.1"
         id="path806" /><path
         d="m 807.711,76.7871 c -0.046,0 -0.091,8e-4 -0.136,8e-4 0.099,0.334 0.19,0.6742 0.273,1.0121 l -0.017,-1.0121 c -0.04,0 -0.08,-8e-4 -0.12,-8e-4"
         style="fill:#245165;fill-opacity:1;fill-rule:nonzero;stroke:none;stroke-width:0.1"
         id="path808" /><path
         d="m 807.575,76.7879 c -5.819,0.0531 -9.773,3.4699 -11.967,7.1242 l 1.594,0.693 c 1.373,-2.491 4.982,-3.6481 8.427,-3.6481 0.861,0 1.712,0.0719 2.515,0.2141 0.123,-0.4262 0.166,-0.8371 0.113,-1.2231 -0.099,-0.725 -0.236,-1.4402 -0.409,-2.148 -0.083,-0.3379 -0.174,-0.6781 -0.273,-1.0121 m -0.747,6.7043 c -0.017,0.0207 -0.034,0.041 -0.051,0.0617 0.015,-0.018 0.031,-0.0371 0.046,-0.0547 l 0.005,-0.007"
         style="fill:#3b5e74;fill-opacity:1;fill-rule:nonzero;stroke:none;stroke-width:0.1"
         id="path810" /><path
         d="m 806.333,84.0738 v 0 l 1.874,3.6032 -1.874,-3.6032"
         style="fill:#b58383;fill-opacity:1;fill-rule:nonzero;stroke:none;stroke-width:0.1"
         id="path812" /><path
         d="m 806.331,84.0691 v 0 l 0.002,0.0047 v 0 l -0.002,-0.0047"
         style="fill:#3b5e74;fill-opacity:1;fill-rule:nonzero;stroke:none;stroke-width:0.1"
         id="path814" /><path
         d="m 799.962,88.4891 h -10e-4 l 2.382,3.1308 -2.381,-3.1308"
         style="fill:#b58383;fill-opacity:1;fill-rule:nonzero;stroke:none;stroke-width:0.1"
         id="path816" /><path
         d="m 799.954,88.4789 v 0 l 0.007,0.0102 h 10e-4 l -0.008,-0.0102 m -0.313,0.1231 c -0.069,0.0261 -0.137,0.0511 -0.206,0.0761 l 0.003,-0.0011 c 0.068,-0.0239 0.136,-0.0489 0.203,-0.075"
         style="fill:#3b5e74;fill-opacity:1;fill-rule:nonzero;stroke:none;stroke-width:0.1"
         id="path818" /><path
         d="m 797.065,89.2211 c -0.075,0.0051 -0.15,0.007 -0.223,0.009 l -3.201,2.2058 c 0.083,0.35 0.213,0.6371 0.389,0.8493 l 3.37,-2.2493 c -0.129,-0.2789 -0.24,-0.55 -0.335,-0.8148"
         style="fill:#b58383;fill-opacity:1;fill-rule:nonzero;stroke:none;stroke-width:0.1"
         id="path820" /><path
         d="m 797.024,89.1039 -0.182,0.1262 c 0.073,-0.002 0.148,-0.0039 0.223,-0.009 -0.014,-0.0391 -0.028,-0.0781 -0.041,-0.1172"
         style="fill:#3b5e74;fill-opacity:1;fill-rule:nonzero;stroke:none;stroke-width:0.1"
         id="path822" /><path
         d="m 795.608,83.9121 c -1.722,2.866 -2.36,5.8777 -1.967,7.5238 l 3.201,-2.2058 0.182,-0.1262 c -0.625,-1.816 -0.478,-3.3098 0.178,-4.4988 l -1.594,-0.693"
         style="fill:#3b5e74;fill-opacity:1;fill-rule:nonzero;stroke:none;stroke-width:0.1"
         id="path824" /><path
         d="m 805.629,80.957 c -3.445,0 -7.054,1.1571 -8.427,3.6481 -0.656,1.189 -0.803,2.6828 -0.178,4.4988 0.013,0.0391 0.027,0.0781 0.041,0.1172 0.095,0.2648 0.206,0.5359 0.335,0.8148 v 0 l 2.035,-1.3578 c 0.069,-0.025 0.137,-0.05 0.206,-0.0761 0.104,-0.0399 0.208,-0.0809 0.312,-0.1239 l 10e-4,8e-4 v 0 l -0.481,-0.632 c -0.785,-2.234 2.528,-4.6711 5.825,-4.6711 0.194,0 0.388,0.0094 0.581,0.0262 l 0.452,0.8671 v 0 l -0.005,-0.0101 c 0.154,-0.168 0.31,-0.336 0.451,-0.5051 0.017,-0.0207 0.034,-0.041 0.051,-0.0617 l 0.073,-0.1012 c 0.216,-0.275 0.417,-0.548 0.587,-0.8211 l 1.919,-1.1058 c -0.403,-0.118 -0.825,-0.2161 -1.263,-0.293 -0.803,-0.1422 -1.654,-0.2141 -2.515,-0.2141"
         style="fill:#b5734f;fill-opacity:1;fill-rule:nonzero;stroke:none;stroke-width:0.1"
         id="path826" /><path
         d="m 805.298,83.1758 c -3.297,0 -6.61,2.4371 -5.825,4.6711 l 0.481,0.632 0.008,0.0102 2.381,3.1308 5.864,-3.9429 -1.874,-3.6032 -0.002,-0.0047 -0.452,-0.8671 c -0.193,-0.0168 -0.387,-0.0262 -0.581,-0.0262"
         style="fill:#b55c46;fill-opacity:1;fill-rule:nonzero;stroke:none;stroke-width:0.1"
         id="path828" /><path
         d="m 800.089,98.566 c -3.67,12.005 0.822,23.533 5.346,25.847 0,0 0.253,5.994 7.175,6.188 6.922,0.195 7.991,-1.807 7.991,-1.807 0,0 3.981,3.647 9.078,-0.481 5.098,-4.128 3.894,-8.156 3.894,-8.156 0,0 5.271,0.349 6.382,-7.205 1.11,-7.554 -1.186,-13.3168 -1.186,-13.3168 0,0 1.563,-9.1192 -4.737,-13.859 -9.394,-7.068 -20.326,-1.8071 -20.326,-1.8071 L 800.089,98.566"
         style="fill:#cc5444;fill-opacity:1;fill-rule:nonzero;stroke:none;stroke-width:0.1"
         id="path830" /><path
         d="m 840.851,113.105 c -1.11,7.554 -6.88,7.321 -6.88,7.321 0,0 -0.012,1.038 -0.616,2.923 -0.725,-7.545 -8.056,-7.457 -12.941,-5.505 -6.086,2.432 -10.574,-23.317 -15.76,-24.1702 l 9.052,-9.7047 c 0,0 11.096,-5.6179 20.49,1.4508 6.301,4.7403 4.969,14.0231 4.969,14.0231 0,0 2.796,6.109 1.686,13.662"
         style="fill:#b2352b;fill-opacity:1;fill-rule:nonzero;stroke:none;stroke-width:0.1"
         id="path832" /><path
         d="m 800.316,106.713 c -4.851,-9.2872 -6.673,-16.19 6.38,-23.0028 9.999,-5.2192 17.496,-0.0571 21.061,9.9488 3.566,10.005 0.726,19.987 -5.956,24.509 -12.2,8.257 -18.283,-5.325 -21.485,-11.455"
         style="fill:#ffb882;fill-opacity:1;fill-rule:nonzero;stroke:none;stroke-width:0.1"
         id="path834" /><path
         d="m 817.774,84.5609 c 0,0 1.362,5.9621 6.017,11.6981 4.655,5.734 2.82,14.214 2.181,17.475 -0.638,3.261 5.772,4.273 6.005,-8.129 0.232,-12.4011 -1.46,-15.555 -5.948,-18.596 -4.489,-3.0399 -8.255,-2.4481 -8.255,-2.4481"
         style="fill:#b2352b;fill-opacity:1;fill-rule:nonzero;stroke:none;stroke-width:0.1"
         id="path836" /><path
         d="m 823.942,85.1988 c 0.226,1.2063 0.405,3.0012 -1.862,2.8953 -2.268,-0.107 -6.124,-2.075 -6.35,-3.2812 -0.228,-1.2051 1.428,-2.0949 3.695,-1.9891 2.268,0.1071 4.289,1.1703 4.517,2.375"
         style="fill:#ffb882;fill-opacity:1;fill-rule:nonzero;stroke:none;stroke-width:0.1"
         id="path838" /><path
         d="m 822.184,84.9102 c 0.133,0.7019 0.236,1.7468 -1.084,1.6847 -1.32,-0.0617 -3.565,-1.2078 -3.697,-1.9097 -0.132,-0.7012 0.831,-1.2192 2.151,-1.1582 1.32,0.0628 2.498,0.682 2.63,1.3832"
         style="fill:#ea7b59;fill-opacity:1;fill-rule:nonzero;stroke:none;stroke-width:0.1"
         id="path840" /><path
         d="m 820.403,84.6891 c 0.087,0.4629 0.155,1.1519 -0.714,1.1109 -0.87,-0.041 -2.349,-0.7961 -2.436,-1.2578 -0.088,-0.4621 0.547,-0.8043 1.417,-0.7633 0.869,0.0402 1.646,0.4481 1.733,0.9102"
         style="fill:#ffb882;fill-opacity:1;fill-rule:nonzero;stroke:none;stroke-width:0.1"
         id="path842" /><path
         d="m 812.533,101.93 c 1.141,1.688 3.025,2.376 4.208,1.539 1.182,-0.838 1.215,-2.885 0.075,-4.5721 -1.142,-1.686 -2.492,-1.6289 -3.675,-0.791 -1.183,0.8382 -1.749,2.1381 -0.608,3.8241"
         style="fill:#fffbdd;fill-opacity:1;fill-rule:nonzero;stroke:none;stroke-width:0.1"
         id="path844" /><path
         d="m 813.138,101.772 c 0.529,0.956 1.529,1.429 2.233,1.056 0.703,-0.373 0.843,-1.451 0.314,-2.407 -0.53,-0.9569 -1.529,-1.43 -2.232,-1.0562 -0.704,0.3731 -0.844,1.4512 -0.315,2.4072"
         style="fill:#3f7fa5;fill-opacity:1;fill-rule:nonzero;stroke:none;stroke-width:0.1"
         id="path846" /><path
         d="m 813.57,102.581 c 0.205,0.369 0.591,0.552 0.862,0.407 0.273,-0.144 0.326,-0.561 0.122,-0.93 -0.205,-0.369 -0.591,-0.551 -0.862,-0.408 -0.272,0.145 -0.326,0.561 -0.122,0.931"
         style="fill:#fffbdd;fill-opacity:1;fill-rule:nonzero;stroke:none;stroke-width:0.1"
         id="path848" /><path
         d="m 822.171,103.782 -1.346,-0.635 c 0,1.143 -1.862,5.374 -4.963,6.481 l 1.496,2.179 c 0,0 4.835,-2.58 4.813,-8.025"
         style="fill:#b74941;fill-opacity:1;fill-rule:nonzero;stroke:none;stroke-width:0.1"
         id="path850" /><path
         d="m 803.237,109.153 c 1.127,1.672 2.951,2.319 4.073,1.446 1.121,-0.873 1.117,-2.935 -0.011,-4.606 -1.128,-1.672 -2.425,-1.58 -3.547,-0.707 -1.122,0.873 -1.643,2.196 -0.515,3.867"
         style="fill:#fffbdd;fill-opacity:1;fill-rule:nonzero;stroke:none;stroke-width:0.1"
         id="path852" /><path
         d="m 803.722,108.85 c 0.524,0.949 1.517,1.414 2.219,1.039 0.702,-0.375 0.847,-1.447 0.323,-2.396 -0.522,-0.948 -1.516,-1.413 -2.218,-1.038 -0.702,0.374 -0.847,1.447 -0.324,2.395"
         style="fill:#3f7fa5;fill-opacity:1;fill-rule:nonzero;stroke:none;stroke-width:0.1"
         id="path854" /><path
         d="m 804.149,109.652 c 0.202,0.367 0.586,0.546 0.857,0.401 0.271,-0.144 0.327,-0.558 0.125,-0.925 -0.202,-0.367 -0.586,-0.546 -0.857,-0.402 -0.272,0.146 -0.327,0.56 -0.125,0.926"
         style="fill:#fffbdd;fill-opacity:1;fill-rule:nonzero;stroke:none;stroke-width:0.1"
         id="path856" /><path
         d="m 804.976,114.968 0.043,-1.503 c 0.706,0.604 3.919,1.227 5.606,-0.875 l 0.862,2.448 c 0,0 -3.157,2.826 -6.511,-0.07"
         style="fill:#b74941;fill-opacity:1;fill-rule:nonzero;stroke:none;stroke-width:0.1"
         id="path858" /><path
         d="m 809.212,94.7191 -6.911,4.2579 c 0,0 -0.916,-3.268 1.289,-4.9559 2.506,-1.9191 5.622,0.698 5.622,0.698"
         style="fill:#763224;fill-opacity:1;fill-rule:nonzero;stroke:none;stroke-width:0.1"
         id="path860" /><path
         d="m 808.399,94.891 -5.759,3.5942 c 0,0 -0.498,-2.1231 1.453,-3.5493 2.179,-1.5918 4.306,-0.0449 4.306,-0.0449"
         style="fill:#fffbdd;fill-opacity:1;fill-rule:nonzero;stroke:none;stroke-width:0.1"
         id="path862" /><path
         d="m 805.776,101.547 c 0.744,0.675 1.998,0.716 1.998,0.716 l 0.135,-3.447 c -2.127,-0.1129 -3.084,1.866 -2.133,2.731"
         style="fill:#ea7b59;fill-opacity:1;fill-rule:nonzero;stroke:none;stroke-width:0.1"
         id="path864" /><path
         d="m 806.349,101.355 c 0.538,0.55 1.516,0.623 1.516,0.623 l 0.12,-2.762 c -1.578,-0.007 -2.286,1.475 -1.636,2.139"
         style="fill:#ffb882;fill-opacity:1;fill-rule:nonzero;stroke:none;stroke-width:0.1"
         id="path866" /><path
         d="m 802.408,92.9609 c 0.087,0.127 0.598,-0.116 1.143,-0.5398 0.545,-0.4262 0.917,-0.8731 0.83,-1 -0.087,-0.127 -0.598,0.1148 -1.144,0.5398 -0.545,0.425 -0.916,0.8731 -0.829,1"
         style="fill:#ea7b59;fill-opacity:1;fill-rule:nonzero;stroke:none;stroke-width:0.1"
         id="path868" /><path
         d="m 765.412,107.378 c -1.815,0.776 -3.802,0.248 -4.839,1.314 -0.807,0.83 -0.113,3.979 0.632,4.112 0.745,0.134 5.07,-3.874 5.07,-3.874 l -0.863,-1.552"
         style="fill:#ffb882;fill-opacity:1;fill-rule:nonzero;stroke:none;stroke-width:0.1"
         id="path870" /><path
         d="m 765.039,109.92 c -0.8,1.489 -1.381,4.424 -1.594,4.95 -0.213,0.524 -0.782,0.194 -0.651,-1.356 0.131,-1.549 0.581,-1.933 -0.025,-2.376 -0.669,-0.488 2.656,-1.937 2.27,-1.218"
         style="fill:#ffb882;fill-opacity:1;fill-rule:nonzero;stroke:none;stroke-width:0.1"
         id="path872" /><path
         d="m 761.41,111.496 c -1.056,0.93 -3.576,3.104 -3.28,3.46 0.296,0.355 4.167,-2.682 4.167,-2.682 l -0.887,-0.778"
         style="fill:#ffb882;fill-opacity:1;fill-rule:nonzero;stroke:none;stroke-width:0.1"
         id="path874" /><path
         d="m 760.872,110.201 c -1.184,0.731 -4.003,2.432 -3.77,2.836 0.234,0.405 4.518,-1.906 4.518,-1.906 l -0.748,-0.93"
         style="fill:#ffb882;fill-opacity:1;fill-rule:nonzero;stroke:none;stroke-width:0.1"
         id="path876" /><path
         d="m 761.361,108.227 c -1.302,0.433 -4.393,1.425 -4.252,1.878 0.14,0.452 4.78,-0.789 4.78,-0.789 l -0.528,-1.089"
         style="fill:#ffb882;fill-opacity:1;fill-rule:nonzero;stroke:none;stroke-width:0.1"
         id="path878" /><path
         d="m 832.606,63.8941 c 1.6,-1.198 2.287,-3.2691 3.683,-3.6109 1.086,-0.2672 3.137,2.0898 2.831,2.8297 -0.307,0.741 -5.79,2.4101 -5.79,2.4101 l -0.724,-1.6289"
         style="fill:#ffb882;fill-opacity:1;fill-rule:nonzero;stroke:none;stroke-width:0.1"
         id="path880" /><path
         d="m 834.777,64.9602 c 1.593,0.1027 4.181,1.1988 4.704,1.2976 0.523,0.0973 0.582,-0.5949 -0.689,-1.3308 -1.27,-0.7348 -1.815,-0.5418 -1.823,-1.3301 -0.008,-0.868 -2.961,1.314 -2.192,1.3633"
         style="fill:#ffb882;fill-opacity:1;fill-rule:nonzero;stroke:none;stroke-width:0.1"
         id="path882" /><path
         d="m 837.996,62.5762 c 1.299,-0.4344 4.37,-1.493 4.481,-1.0321 0.111,0.461 -4.369,2.2567 -4.369,2.2567 l -0.112,-1.2246"
         style="fill:#ffb882;fill-opacity:1;fill-rule:nonzero;stroke:none;stroke-width:0.1"
         id="path884" /><path
         d="m 837.29,61.382 c 1.218,-0.6601 4.086,-2.2492 4.27,-1.8172 0.184,0.4332 -3.963,2.9981 -3.963,2.9981 L 837.29,61.382"
         style="fill:#ffb882;fill-opacity:1;fill-rule:nonzero;stroke:none;stroke-width:0.1"
         id="path886" /><path
         d="m 835.495,60.7328 c 1.051,-0.9277 3.522,-3.1508 3.794,-2.7758 0.273,0.375 -3.243,3.8481 -3.243,3.8481 l -0.551,-1.0723"
         style="fill:#ffb882;fill-opacity:1;fill-rule:nonzero;stroke:none;stroke-width:0.1"
         id="path888" /><path
         d="m 724.418,93.0871 c 0,0 0.754,-5.9551 2.144,-7.816 0,0 2.31,-0.1031 2.29,1.4867 -0.019,1.5883 -4.434,6.3293 -4.434,6.3293"
         style="fill:#ffe5b8;fill-opacity:1;fill-rule:nonzero;stroke:none;stroke-width:0.1"
         id="path890" /><path
         d="m 721.854,43.2328 c 0,0 2.816,6.7031 5.004,8.1723 0,0 2.245,-1.3762 1.597,-3.2199 -0.621,-1.7622 -6.601,-4.9524 -6.601,-4.9524"
         style="fill:#ffe5b8;fill-opacity:1;fill-rule:nonzero;stroke:none;stroke-width:0.1"
         id="path892" /><path
         d="m 719.312,271.234 0.186,6.902 c 0.646,0.085 35.507,0.234 73.383,6.517 31.779,5.272 65.76,16.198 82.657,22.01 l 0.142,-6.823 C 843.78,288.866 750.139,275.311 719.312,271.234"
         style="fill:#c675c1;fill-opacity:1;fill-rule:nonzero;stroke:none;stroke-width:0.1"
         id="path894" /><path
         d="m 559.335,292.975 0.191,6.842 c 0.653,-0.125 35.978,-11.329 74.359,-17.38 32.201,-5.077 66.635,-5.217 83.757,-4.908 l 0.145,-6.869 c -32.326,-0.585 -127.213,16.354 -158.452,22.315"
         style="fill:#c675c1;fill-opacity:1;fill-rule:nonzero;stroke:none;stroke-width:0.1"
         id="path896" /><path
         d="m 721.942,296.371 c -4.171,0.261 -7.655,-4.15 -8.046,-10.19 L 699.603,65.368 713.222,45.343 727.986,286.345 c 0.151,2.467 -0.418,4.958 -1.568,6.865 -1.149,1.907 -2.774,3.055 -4.476,3.161"
         style="fill:#ffbd39;fill-opacity:1;fill-rule:nonzero;stroke:none;stroke-width:0.1"
         id="path898" /><path
         d="m 558.642,302.131 0.124,6.883 c 0.429,0.024 23.608,-3.143 48.792,-0.463 21.129,2.249 43.723,9.942 54.958,14.146 l 0.095,-6.837 c -21.21,-7.938 -83.472,-12.585 -103.969,-13.729"
         style="fill:#9072aa;fill-opacity:1;fill-rule:nonzero;stroke:none;stroke-width:0.1"
         id="path900" /><path
         d="m 668.647,312.429 0.238,6.855 c 0.823,-0.078 45.278,-8.731 93.576,-12.01 40.524,-2.751 83.856,-0.404 105.403,1.141 l 0.181,-6.859 c -40.677,-2.92 -160.088,7.167 -199.398,10.873"
         style="fill:#9072aa;fill-opacity:1;fill-rule:nonzero;stroke:none;stroke-width:0.1"
         id="path902" /><path
         d="m 737.245,142.335 c 0,2.988 -2.279,5.411 -5.09,5.411 -2.811,0 -5.09,-2.423 -5.09,-5.411 0,-2.989 2.279,-5.411 5.09,-5.411 2.811,0 5.09,2.422 5.09,5.411"
         style="fill:#9072aa;fill-opacity:1;fill-rule:nonzero;stroke:none;stroke-width:0.1"
         id="path904" /><path
         d="m 660.206,73.9609 c 0,2.9879 -2.279,5.4102 -5.089,5.4102 -2.811,0 -5.09,-2.4223 -5.09,-5.4102 0,-2.9898 2.279,-5.4109 5.09,-5.4109 2.81,0 5.089,2.4211 5.089,5.4109"
         style="fill:#e563ad;fill-opacity:1;fill-rule:nonzero;stroke:none;stroke-width:0.1"
         id="path906" /><path
         d="m 655.348,112.575 c 0,2.988 -2.278,5.41 -5.09,5.41 -2.81,0 -5.089,-2.422 -5.089,-5.41 0,-2.988 2.279,-5.411 5.089,-5.411 2.812,0 5.09,2.423 5.09,5.411"
         style="fill:#ff5444;fill-opacity:1;fill-rule:nonzero;stroke:none;stroke-width:0.1"
         id="path908" /><path
         d="m 714.11,79.8629 c 0,2.9883 -2.279,5.4109 -5.089,5.4109 -2.812,0 -5.09,-2.4226 -5.09,-5.4109 0,-2.9879 2.278,-5.4109 5.09,-5.4109 2.81,0 5.089,2.423 5.089,5.4109"
         style="fill:#9072aa;fill-opacity:1;fill-rule:nonzero;stroke:none;stroke-width:0.1"
         id="path910" /><path
         d="m 699.714,121.094 c 0,2.531 -1.93,4.584 -4.311,4.584 -2.382,0 -4.312,-2.053 -4.312,-4.584 0,-2.532 1.93,-4.584 4.312,-4.584 2.381,0 4.311,2.052 4.311,4.584"
         style="fill:#54b7e2;fill-opacity:1;fill-rule:nonzero;stroke:none;stroke-width:0.1"
         id="path912" /><path
         d="m 676.169,66.3359 c 0,2.9879 -2.279,5.411 -5.089,5.411 -2.811,0 -5.09,-2.4231 -5.09,-5.411 0,-2.989 2.279,-5.4101 5.09,-5.4101 2.81,0 5.089,2.4211 5.089,5.4101"
         style="fill:#c0cc50;fill-opacity:1;fill-rule:nonzero;stroke:none;stroke-width:0.1"
         id="path914" /><path
         d="m 595.661,71.5012 c 0,2.9879 -2.279,5.4109 -5.09,5.4109 -2.811,0 -5.089,-2.423 -5.089,-5.4109 0,-2.9891 2.278,-5.4114 5.089,-5.4114 2.811,0 5.09,2.4223 5.09,5.4114"
         style="fill:#e563ad;fill-opacity:1;fill-rule:nonzero;stroke:none;stroke-width:0.1"
         id="path916" /><path
         d="m 608.385,81.8309 c 0,2.9882 -2.279,5.4113 -5.09,5.4113 -2.811,0 -5.089,-2.4231 -5.089,-5.4113 0,-2.9879 2.278,-5.411 5.089,-5.411 2.811,0 5.09,2.4231 5.09,5.411"
         style="fill:#c0cc50;fill-opacity:1;fill-rule:nonzero;stroke:none;stroke-width:0.1"
         id="path918" /><path
         d="m 631.982,71.7469 c 0,2.9883 -2.278,5.4113 -5.089,5.4113 -2.812,0 -5.09,-2.423 -5.09,-5.4113 0,-2.9879 2.278,-5.411 5.09,-5.411 2.811,0 5.089,2.4231 5.089,5.411"
         style="fill:#54b7e2;fill-opacity:1;fill-rule:nonzero;stroke:none;stroke-width:0.1"
         id="path920" /><path
         d="m 640.87,126.855 c 0,2.989 -2.28,5.411 -5.09,5.411 -2.811,0 -5.09,-2.422 -5.09,-5.411 0,-2.988 2.279,-5.411 5.09,-5.411 2.81,0 5.09,2.423 5.09,5.411"
         style="fill:#54b7e2;fill-opacity:1;fill-rule:nonzero;stroke:none;stroke-width:0.1"
         id="path922" /><path
         d="m 647.945,77.8949 c 0,2.9891 -2.279,5.411 -5.089,5.411 -2.812,0 -5.09,-2.4219 -5.09,-5.411 0,-2.9879 2.278,-5.4097 5.09,-5.4097 2.81,0 5.089,2.4218 5.089,5.4097"
         style="fill:#9072aa;fill-opacity:1;fill-rule:nonzero;stroke:none;stroke-width:0.1"
         id="path924" /><path
         d="m 615.789,120.445 c 0,2.988 -2.28,5.411 -5.09,5.411 -2.812,0 -5.09,-2.423 -5.09,-5.411 0,-2.988 2.278,-5.411 5.09,-5.411 2.81,0 5.09,2.423 5.09,5.411"
         style="fill:#9072aa;fill-opacity:1;fill-rule:nonzero;stroke:none;stroke-width:0.1"
         id="path926" /><path
         d="m 653.96,68.3031 c 0,2.9891 -2.279,5.4117 -5.089,5.4117 -2.812,0 -5.09,-2.4226 -5.09,-5.4117 0,-2.9883 2.278,-5.4113 5.09,-5.4113 2.81,0 5.089,2.423 5.089,5.4113"
         style="fill:#ffca55;fill-opacity:1;fill-rule:nonzero;stroke:none;stroke-width:0.1"
         id="path928" /><path
         d="m 630.131,90.6852 c 0,2.9886 -2.278,5.4097 -5.09,5.4097 -2.81,0 -5.089,-2.4211 -5.089,-5.4097 0,-2.9883 2.279,-5.4114 5.089,-5.4114 2.812,0 5.09,2.4231 5.09,5.4114"
         style="fill:#ffcc5a;fill-opacity:1;fill-rule:nonzero;stroke:none;stroke-width:0.1"
         id="path930" /><path
         d="m 769.744,73.9602 c 0.572,2.9257 3.366,4.782 6.241,4.1457 2.875,-0.6348 4.741,-3.5219 4.169,-6.4477 -0.573,-2.9262 -3.366,-4.782 -6.241,-4.1473 -2.875,0.6352 -4.742,3.5231 -4.169,6.4493"
         style="fill:#e563ad;fill-opacity:1;fill-rule:nonzero;stroke:none;stroke-width:0.1"
         id="path932" /><path
         d="m 751.958,70.1031 c 0.573,2.9258 3.367,4.7828 6.242,4.1481 2.875,-0.6364 4.741,-3.5231 4.169,-6.4492 -0.573,-2.925 -3.367,-4.7829 -6.242,-4.1469 -2.875,0.6359 -4.741,3.5219 -4.169,6.448"
         style="fill:#c0cc50;fill-opacity:1;fill-rule:nonzero;stroke:none;stroke-width:0.1"
         id="path934" /><path
         d="m 798.185,65.4121 c 0.572,2.9258 3.366,4.782 6.241,4.1457 2.875,-0.634 4.741,-3.5219 4.169,-6.4476 -0.572,-2.9262 -3.366,-4.7821 -6.241,-4.1461 -2.875,0.6339 -4.741,3.5218 -4.169,6.448"
         style="fill:#54b7e2;fill-opacity:1;fill-rule:nonzero;stroke:none;stroke-width:0.1"
         id="path936" /><path
         d="m 783.037,75.041 c 0.572,2.925 3.367,4.782 6.242,4.1461 2.874,-0.6351 4.74,-3.5223 4.169,-6.448 -0.573,-2.9262 -3.367,-4.7821 -6.242,-4.1461 -2.875,0.634 -4.742,3.5211 -4.169,6.448"
         style="fill:#9072aa;fill-opacity:1;fill-rule:nonzero;stroke:none;stroke-width:0.1"
         id="path938" /><path
         d="m 775.048,67.009 c 0.573,2.925 3.367,4.782 6.242,4.1469 2.874,-0.636 4.741,-3.5219 4.169,-6.4477 -0.572,-2.9262 -3.367,-4.7824 -6.241,-4.148 -2.875,0.6359 -4.742,3.523 -4.17,6.4488"
         style="fill:#ffca55;fill-opacity:1;fill-rule:nonzero;stroke:none;stroke-width:0.1"
         id="path940" /><path
         d="m 803.705,83.5352 c 0.572,2.9257 3.366,4.782 6.241,4.1457 2.874,-0.634 4.741,-3.5207 4.169,-6.4481 -0.573,-2.925 -3.368,-4.7816 -6.242,-4.1457 -2.875,0.6348 -4.741,3.5219 -4.168,6.4481"
         style="fill:#ffcc5a;fill-opacity:1;fill-rule:nonzero;stroke:none;stroke-width:0.1"
         id="path942" /><path
         d="m 847.712,121.306 c 0,2.988 -2.278,5.411 -5.09,5.411 -2.81,0 -5.089,-2.423 -5.089,-5.411 0,-2.989 2.279,-5.411 5.089,-5.411 2.812,0 5.09,2.422 5.09,5.411"
         style="fill:#8c5cbf;fill-opacity:1;fill-rule:nonzero;stroke:none;stroke-width:0.1"
         id="path944" /><path
         d="m 771.252,156.845 c 0,2.174 -1.657,3.936 -3.701,3.936 -2.045,0 -3.702,-1.762 -3.702,-3.936 0,-2.172 1.657,-3.934 3.702,-3.934 2.044,0 3.701,1.762 3.701,3.934"
         style="fill:#9072aa;fill-opacity:1;fill-rule:nonzero;stroke:none;stroke-width:0.1"
         id="path946" /><path
         d="m 839.731,99.5391 c 0,2.1739 -1.657,3.9349 -3.701,3.9349 -2.045,0 -3.702,-1.761 -3.702,-3.9349 0,-2.1731 1.657,-3.9352 3.702,-3.9352 2.044,0 3.701,1.7621 3.701,3.9352"
         style="fill:#e26dd7;fill-opacity:1;fill-rule:nonzero;stroke:none;stroke-width:0.1"
         id="path948" /><path
         d="m 732.938,66.5891 c -0.18,-1.5559 1.039,-2.9532 2.724,-3.12 1.684,-0.1671 3.196,0.9579 3.377,2.5137 0.182,1.5551 -1.039,2.9524 -2.721,3.1172 -1.685,0.1691 -3.198,-0.957 -3.38,-2.5109"
         style="fill:#ed4a71;fill-opacity:1;fill-rule:nonzero;stroke:none;stroke-width:0.1"
         id="path950" /><path
         d="m 717.711,65.8961 c -0.18,-1.5531 1.038,-2.95 2.723,-3.118 1.686,-0.166 3.195,0.959 3.378,2.5149 0.18,1.555 -1.038,2.9511 -2.724,3.1179 -1.683,0.1661 -3.195,-0.9578 -3.377,-2.5148"
         style="fill:#ed4a71;fill-opacity:1;fill-rule:nonzero;stroke:none;stroke-width:0.1"
         id="path952" /><path
         d="m 738.233,67.4871 c -0.182,-1.5562 1.039,-2.95 2.723,-3.1191 1.684,-0.166 3.197,0.959 3.376,2.5148 0.183,1.5531 -1.036,2.9524 -2.721,3.1184 -1.684,0.1668 -3.197,-0.9582 -3.378,-2.5141"
         style="fill:#ed4a71;fill-opacity:1;fill-rule:nonzero;stroke:none;stroke-width:0.1"
         id="path954" /><path
         d="m 743.333,66.7211 c -0.182,-1.5551 1.039,-2.9492 2.722,-3.118 1.685,-0.166 3.197,0.9578 3.379,2.5141 0.181,1.5558 -1.038,2.9519 -2.724,3.1187 -1.683,0.1661 -3.196,-0.9589 -3.377,-2.5148"
         style="fill:#ed4a71;fill-opacity:1;fill-rule:nonzero;stroke:none;stroke-width:0.1"
         id="path956" /><path
         d="m 741.158,63.7012 c -0.181,-1.5563 1.038,-2.952 2.722,-3.1192 1.686,-0.1672 3.199,0.9578 3.379,2.5121 0.181,1.5579 -1.039,2.9528 -2.723,3.1219 -1.685,0.166 -3.197,-0.959 -3.378,-2.5148"
         style="fill:#ed4a71;fill-opacity:1;fill-rule:nonzero;stroke:none;stroke-width:0.1"
         id="path958" /><path
         d="m 724.669,70.2578 c -0.179,-1.5547 1.039,-2.9527 2.724,-3.1187 1.685,-0.1692 3.197,0.957 3.378,2.5129 0.183,1.555 -1.039,2.9519 -2.723,3.1179 -1.683,0.168 -3.196,-0.9558 -3.379,-2.5121"
         style="fill:#ed4a71;fill-opacity:1;fill-rule:nonzero;stroke:none;stroke-width:0.1"
         id="path960" /><path
         d="m 747.943,67.5508 c -0.18,-1.5567 1.038,-2.952 2.723,-3.1199 1.686,-0.1661 3.198,0.9582 3.378,2.5152 0.18,1.5539 -1.038,2.9508 -2.723,3.118 -1.685,0.166 -3.196,-0.959 -3.378,-2.5133"
         style="fill:#ed4a71;fill-opacity:1;fill-rule:nonzero;stroke:none;stroke-width:0.1"
         id="path962" /><path
         d="m 722.322,64.5332 c -0.182,-1.5551 1.037,-2.9523 2.721,-3.1184 1.685,-0.1668 3.198,0.9582 3.378,2.5133 0.182,1.5571 -1.038,2.952 -2.721,3.1199 -1.686,0.1661 -3.198,-0.9582 -3.378,-2.5148"
         style="fill:#ed4a71;fill-opacity:1;fill-rule:nonzero;stroke:none;stroke-width:0.1"
         id="path964" /><path
         d="m 712.417,64.998 c -0.182,-1.5558 1.039,-2.9519 2.723,-3.1179 1.684,-0.168 3.196,0.957 3.379,2.5117 0.18,1.5562 -1.039,2.9523 -2.724,3.1191 -1.685,0.1672 -3.195,-0.9589 -3.378,-2.5129"
         style="fill:#ed4a71;fill-opacity:1;fill-rule:nonzero;stroke:none;stroke-width:0.1"
         id="path966" /><path
         d="m 709.358,66.5629 c -0.182,-1.5559 1.036,-2.952 2.723,-3.1188 1.683,-0.166 3.196,0.9579 3.377,2.5129 0.181,1.5559 -1.038,2.952 -2.722,3.12 -1.685,0.1671 -3.197,-0.959 -3.378,-2.5141"
         style="fill:#ed4a71;fill-opacity:1;fill-rule:nonzero;stroke:none;stroke-width:0.1"
         id="path968" /><path
         d="m 703.969,67.1309 c -0.18,-1.5539 1.038,-2.952 2.723,-3.12 1.684,-0.1668 3.197,0.959 3.379,2.5141 0.181,1.5559 -1.038,2.952 -2.723,3.1191 -1.684,0.168 -3.197,-0.957 -3.379,-2.5132"
         style="fill:#ed4a71;fill-opacity:1;fill-rule:nonzero;stroke:none;stroke-width:0.1"
         id="path970" /><path
         d="m 752.013,64.1781 c -0.182,-1.5551 1.038,-2.9519 2.724,-3.1191 1.684,-0.168 3.197,0.959 3.377,2.514 0.18,1.554 -1.038,2.9508 -2.723,3.118 -1.685,0.168 -3.195,-0.9582 -3.378,-2.5129"
         style="fill:#ed4a71;fill-opacity:1;fill-rule:nonzero;stroke:none;stroke-width:0.1"
         id="path972" /><path
         d="m 736.243,64.3828 c -0.182,-1.5558 1.039,-2.9527 2.721,-3.118 1.686,-0.1687 3.198,0.9571 3.38,2.5122 0.18,1.557 -1.038,2.9519 -2.723,3.121 -1.686,0.1649 -3.198,-0.9589 -3.378,-2.5152"
         style="fill:#ed4a71;fill-opacity:1;fill-rule:nonzero;stroke:none;stroke-width:0.1"
         id="path974" /><path
         d="m 729.339,65.7801 c -0.182,-1.5563 1.037,-2.9531 2.721,-3.1192 1.686,-0.1668 3.198,0.959 3.379,2.5149 0.182,1.5551 -1.036,2.9512 -2.722,3.1183 -1.685,0.1668 -3.198,-0.9589 -3.378,-2.514"
         style="fill:#ed4a71;fill-opacity:1;fill-rule:nonzero;stroke:none;stroke-width:0.1"
         id="path976" /><path
         d="m 739.699,71.1621 c -0.182,-1.5551 1.036,-2.95 2.721,-3.118 1.686,-0.1679 3.198,0.959 3.378,2.5129 0.183,1.5559 -1.037,2.952 -2.72,3.12 -1.686,0.1671 -3.199,-0.959 -3.379,-2.5149"
         style="fill:#ed4a71;fill-opacity:1;fill-rule:nonzero;stroke:none;stroke-width:0.1"
         id="path978" /><path
         d="m 717.186,70.548 c -0.181,-1.5558 1.039,-2.9531 2.723,-3.1199 1.685,-0.1672 3.197,0.959 3.378,2.5129 0.18,1.5559 -1.039,2.952 -2.723,3.118 -1.685,0.1691 -3.198,-0.957 -3.378,-2.511"
         style="fill:#ed4a71;fill-opacity:1;fill-rule:nonzero;stroke:none;stroke-width:0.1"
         id="path980" /><path
         d="m 758.175,70.868 c -0.179,-1.5559 1.038,-2.952 2.724,-3.12 1.685,-0.166 3.197,0.959 3.378,2.5141 0.179,1.5559 -1.038,2.952 -2.721,3.1188 -1.686,0.1679 -3.198,-0.9579 -3.381,-2.5129"
         style="fill:#ed4a71;fill-opacity:1;fill-rule:nonzero;stroke:none;stroke-width:0.1"
         id="path982" /><path
         d="m 763.185,68.9391 c -0.182,-1.5551 1.037,-2.952 2.722,-3.12 1.684,-0.1671 3.197,0.9579 3.378,2.5141 0.179,1.5559 -1.038,2.952 -2.721,3.1199 -1.686,0.1668 -3.198,-0.959 -3.379,-2.514"
         style="fill:#ed4a71;fill-opacity:1;fill-rule:nonzero;stroke:none;stroke-width:0.1"
         id="path984" /><path
         d="m 753.553,68.8191 c -0.18,-1.5562 1.038,-2.95 2.724,-3.1191 1.684,-0.1668 3.197,0.959 3.378,2.5148 0.179,1.5551 -1.039,2.95 -2.721,3.1192 -1.687,0.166 -3.198,-0.959 -3.381,-2.5149"
         style="fill:#ed4a71;fill-opacity:1;fill-rule:nonzero;stroke:none;stroke-width:0.1"
         id="path986" /><path
         d="m 671.094,65.4969 c -0.277,-1.5438 0.855,-3.002 2.527,-3.2571 1.67,-0.2546 3.25,0.7891 3.527,2.3321 0.275,1.5441 -0.856,3.0019 -2.526,3.257 -1.672,0.2543 -3.251,-0.7891 -3.528,-2.332"
         style="fill:#ed4a71;fill-opacity:1;fill-rule:nonzero;stroke:none;stroke-width:0.1"
         id="path988" /><path
         d="m 655.848,65.6059 c -0.276,-1.545 0.855,-3.002 2.526,-3.2571 1.672,-0.2547 3.251,0.7891 3.528,2.3321 0.276,1.5429 -0.855,3.0019 -2.527,3.257 -1.671,0.2551 -3.251,-0.7879 -3.527,-2.332"
         style="fill:#ed4a71;fill-opacity:1;fill-rule:nonzero;stroke:none;stroke-width:0.1"
         id="path990" /><path
         d="m 676.435,66.116 c -0.277,-1.5422 0.854,-3 2.525,-3.2551 1.673,-0.257 3.251,0.7891 3.529,2.3313 0.276,1.5437 -0.856,3.0008 -2.527,3.2566 -1.672,0.2563 -3.251,-0.7898 -3.527,-2.3328"
         style="fill:#ed4a71;fill-opacity:1;fill-rule:nonzero;stroke:none;stroke-width:0.1"
         id="path992" /><path
         d="m 681.479,65.0859 c -0.275,-1.5437 0.855,-3.0019 2.527,-3.257 1.671,-0.2551 3.25,0.7891 3.527,2.332 0.276,1.5442 -0.855,3.002 -2.527,3.2571 -1.671,0.255 -3.25,-0.7891 -3.527,-2.3321"
         style="fill:#ed4a71;fill-opacity:1;fill-rule:nonzero;stroke:none;stroke-width:0.1"
         id="path994" /><path
         d="m 679.122,62.1828 c -0.276,-1.5437 0.854,-3.0027 2.527,-3.2558 1.672,-0.2559 3.25,0.789 3.527,2.332 0.276,1.543 -0.854,3.0012 -2.526,3.2558 -1.672,0.2551 -3.251,-0.7886 -3.528,-2.332"
         style="fill:#ed4a71;fill-opacity:1;fill-rule:nonzero;stroke:none;stroke-width:0.1"
         id="path996" /><path
         d="m 663.064,69.5941 c -0.276,-1.5441 0.854,-3.0023 2.526,-3.257 1.672,-0.2551 3.251,0.7879 3.528,2.3328 0.276,1.5442 -0.855,3.0012 -2.527,3.2571 -1.672,0.2531 -3.25,-0.7911 -3.527,-2.3329"
         style="fill:#ed4a71;fill-opacity:1;fill-rule:nonzero;stroke:none;stroke-width:0.1"
         id="path998" /><path
         d="m 686.133,65.6711 c -0.276,-1.5441 0.855,-3.002 2.527,-3.257 1.671,-0.2551 3.251,0.789 3.528,2.332 0.275,1.5437 -0.857,3.0019 -2.528,3.257 -1.672,0.2547 -3.25,-0.7902 -3.527,-2.332"
         style="fill:#ed4a71;fill-opacity:1;fill-rule:nonzero;stroke:none;stroke-width:0.1"
         id="path1000" /><path
         d="m 660.367,64.0031 c -0.277,-1.5441 0.854,-3.0019 2.526,-3.257 1.672,-0.2563 3.252,0.7891 3.527,2.3328 0.277,1.543 -0.854,3.002 -2.526,3.2563 -1.672,0.2546 -3.251,-0.7883 -3.527,-2.3321"
         style="fill:#ed4a71;fill-opacity:1;fill-rule:nonzero;stroke:none;stroke-width:0.1"
         id="path1002" /><path
         d="m 650.508,64.9852 c -0.278,-1.543 0.854,-3 2.526,-3.2571 1.672,-0.2551 3.251,0.7887 3.527,2.3321 0.276,1.5437 -0.855,3.0027 -2.526,3.257 -1.672,0.2558 -3.251,-0.7891 -3.527,-2.332"
         style="fill:#ed4a71;fill-opacity:1;fill-rule:nonzero;stroke:none;stroke-width:0.1"
         id="path1004" /><path
         d="m 647.548,66.709 c -0.275,-1.543 0.856,-3.002 2.527,-3.257 1.672,-0.2551 3.251,0.789 3.528,2.3332 0.275,1.5437 -0.856,3 -2.526,3.2558 -1.672,0.2559 -3.252,-0.789 -3.529,-2.332"
         style="fill:#ed4a71;fill-opacity:1;fill-rule:nonzero;stroke:none;stroke-width:0.1"
         id="path1006" /><path
         d="m 642.205,67.557 c -0.276,-1.5441 0.854,-3.0019 2.526,-3.2562 1.672,-0.2547 3.251,0.789 3.527,2.3332 0.277,1.543 -0.854,3.0012 -2.526,3.2558 -1.672,0.2551 -3.25,-0.7898 -3.527,-2.3328"
         style="fill:#ed4a71;fill-opacity:1;fill-rule:nonzero;stroke:none;stroke-width:0.1"
         id="path1008" /><path
         d="m 689.989,62.0898 c -0.276,-1.5429 0.855,-3.0019 2.527,-3.2558 1.672,-0.2551 3.25,0.7879 3.527,2.332 0.276,1.543 -0.854,3.002 -2.526,3.257 -1.673,0.254 -3.252,-0.789 -3.528,-2.3332"
         style="fill:#ed4a71;fill-opacity:1;fill-rule:nonzero;stroke:none;stroke-width:0.1"
         id="path1010" /><path
         d="m 674.256,63.1219 c -0.276,-1.543 0.856,-3.002 2.527,-3.2571 1.671,-0.2546 3.251,0.7891 3.527,2.3332 0.276,1.5442 -0.854,3 -2.526,3.2571 -1.672,0.2551 -3.251,-0.7891 -3.528,-2.3332"
         style="fill:#ed4a71;fill-opacity:1;fill-rule:nonzero;stroke:none;stroke-width:0.1"
         id="path1012" /><path
         d="m 667.45,64.8781 c -0.277,-1.5429 0.854,-3.0011 2.525,-3.2562 1.672,-0.2559 3.252,0.789 3.527,2.3332 0.278,1.5429 -0.854,3.0019 -2.525,3.257 -1.672,0.2539 -3.251,-0.7891 -3.527,-2.334"
         style="fill:#ed4a71;fill-opacity:1;fill-rule:nonzero;stroke:none;stroke-width:0.1"
         id="path1014" /><path
         d="m 678.123,69.709 c -0.276,-1.543 0.855,-3 2.528,-3.2559 1.671,-0.257 3.25,0.7879 3.526,2.3321 0.277,1.5429 -0.854,3.0019 -2.526,3.257 -1.672,0.2539 -3.251,-0.7891 -3.528,-2.3332"
         style="fill:#ed4a71;fill-opacity:1;fill-rule:nonzero;stroke:none;stroke-width:0.1"
         id="path1016" /><path
         d="m 655.611,70.2762 c -0.278,-1.5442 0.854,-3.0024 2.525,-3.2582 1.672,-0.2539 3.251,0.7898 3.528,2.332 0.276,1.543 -0.855,3.002 -2.527,3.2578 -1.671,0.2563 -3.251,-0.7898 -3.526,-2.3316"
         style="fill:#ed4a71;fill-opacity:1;fill-rule:nonzero;stroke:none;stroke-width:0.1"
         id="path1018" /><path
         d="m 696.555,68.4449 c -0.277,-1.5429 0.853,-3.0008 2.525,-3.2558 1.671,-0.2563 3.251,0.789 3.527,2.3328 0.277,1.5429 -0.855,3 -2.526,3.2562 -1.671,0.2551 -3.25,-0.7883 -3.526,-2.3332"
         style="fill:#ed4a71;fill-opacity:1;fill-rule:nonzero;stroke:none;stroke-width:0.1"
         id="path1020" /><path
         d="m 701.436,66.257 c -0.278,-1.5429 0.853,-3.0019 2.525,-3.2558 1.671,-0.2551 3.25,0.7879 3.527,2.3328 0.277,1.543 -0.855,3.0012 -2.526,3.2558 -1.672,0.2543 -3.25,-0.789 -3.526,-2.3328"
         style="fill:#ed4a71;fill-opacity:1;fill-rule:nonzero;stroke:none;stroke-width:0.1"
         id="path1022" /><path
         d="m 691.813,66.6418 c -0.277,-1.5438 0.854,-3 2.526,-3.2559 1.671,-0.255 3.25,0.7891 3.528,2.3332 0.275,1.5418 -0.856,3.0008 -2.528,3.2559 -1.672,0.2551 -3.25,-0.7891 -3.526,-2.3332"
         style="fill:#ed4a71;fill-opacity:1;fill-rule:nonzero;stroke:none;stroke-width:0.1"
         id="path1024" /><path
         d="m 697.109,64.4359 c 0,-1.564 1.373,-2.8339 3.068,-2.8339 1.695,0 3.068,1.2699 3.068,2.8339 0,1.5653 -1.373,2.8321 -3.068,2.8321 -1.695,0 -3.068,-1.2668 -3.068,-2.8321"
         style="fill:#7ccbd8;fill-opacity:1;fill-rule:nonzero;stroke:none;stroke-width:0.1"
         id="path1026" /><path
         d="m 682.048,62.2469 c 0,-1.5649 1.374,-2.8309 3.069,-2.8309 1.693,0 3.067,1.266 3.067,2.8309 0,1.564 -1.374,2.832 -3.067,2.832 -1.695,0 -3.069,-1.268 -3.069,-2.832"
         style="fill:#ff6464;fill-opacity:1;fill-rule:nonzero;stroke:none;stroke-width:0.1"
         id="path1028" /><path
         d="m 702.268,65.852 c 0,-1.5641 1.374,-2.8321 3.069,-2.8321 1.694,0 3.067,1.268 3.067,2.8321 0,1.564 -1.373,2.8308 -3.067,2.8308 -1.695,0 -3.069,-1.2668 -3.069,-2.8308"
         style="fill:#ff6464;fill-opacity:1;fill-rule:nonzero;stroke:none;stroke-width:0.1"
         id="path1030" /><path
         d="m 707.428,65.5941 c 0,-1.5652 1.373,-2.8332 3.067,-2.8332 1.695,0 3.07,1.268 3.07,2.8332 0,1.5649 -1.375,2.8317 -3.07,2.8317 -1.694,0 -3.067,-1.2668 -3.067,-2.8317"
         style="fill:#afc437;fill-opacity:1;fill-rule:nonzero;stroke:none;stroke-width:0.1"
         id="path1032" /><path
         d="m 720.954,65.852 c 0,-1.5641 1.375,-2.8321 3.069,-2.8321 1.693,0 3.067,1.268 3.067,2.8321 0,1.564 -1.374,2.8308 -3.067,2.8308 -1.694,0 -3.069,-1.2668 -3.069,-2.8308"
         style="fill:#afc437;fill-opacity:1;fill-rule:nonzero;stroke:none;stroke-width:0.1"
         id="path1034" /><path
         d="m 705.615,62.375 c 0,-1.5641 1.374,-2.832 3.068,-2.832 1.695,0 3.068,1.2679 3.068,2.832 0,1.5641 -1.373,2.834 -3.068,2.834 -1.694,0 -3.068,-1.2699 -3.068,-2.834"
         style="fill:#7ccbd8;fill-opacity:1;fill-rule:nonzero;stroke:none;stroke-width:0.1"
         id="path1036" /><path
         d="m 688.463,67.268 c 0,-1.5649 1.373,-2.8321 3.068,-2.8321 1.695,0 3.068,1.2672 3.068,2.8321 0,1.5652 -1.373,2.832 -3.068,2.832 -1.695,0 -3.068,-1.2668 -3.068,-2.832"
         style="fill:#afc437;fill-opacity:1;fill-rule:nonzero;stroke:none;stroke-width:0.1"
         id="path1038" /><path
         d="m 695.853,71.6449 c 0,-1.564 1.375,-2.832 3.068,-2.832 1.695,0 3.069,1.268 3.069,2.832 0,1.5653 -1.374,2.8321 -3.069,2.8321 -1.693,0 -3.068,-1.2668 -3.068,-2.8321"
         style="fill:#7ccbd8;fill-opacity:1;fill-rule:nonzero;stroke:none;stroke-width:0.1"
         id="path1040" /><path
         d="m 686.789,61.3449 c 0,-1.564 1.374,-2.832 3.069,-2.832 1.693,0 3.067,1.268 3.067,2.832 0,1.5653 -1.374,2.8332 -3.067,2.8332 -1.695,0 -3.069,-1.2679 -3.069,-2.8332"
         style="fill:#7ccbd8;fill-opacity:1;fill-rule:nonzero;stroke:none;stroke-width:0.1"
         id="path1042" /><path
         d="m 658.481,68.8129 c 0,-1.5637 1.374,-2.832 3.067,-2.832 1.695,0 3.069,1.2683 3.069,2.832 0,1.5652 -1.374,2.832 -3.069,2.832 -1.693,0 -3.067,-1.2668 -3.067,-2.832"
         style="fill:#7ccbd8;fill-opacity:1;fill-rule:nonzero;stroke:none;stroke-width:0.1"
         id="path1044" /><path
         d="m 676.888,60.8309 c 0,-1.5649 1.374,-2.8329 3.068,-2.8329 1.695,0 3.068,1.268 3.068,2.8329 0,1.5632 -1.373,2.8332 -3.068,2.8332 -1.694,0 -3.068,-1.27 -3.068,-2.8332"
         style="fill:#7ccbd8;fill-opacity:1;fill-rule:nonzero;stroke:none;stroke-width:0.1"
         id="path1046" /><path
         d="m 665.872,74.8648 c 0,-1.564 1.374,-2.8328 3.067,-2.8328 1.695,0 3.068,1.2688 3.068,2.8328 0,1.5633 -1.373,2.8313 -3.068,2.8313 -1.693,0 -3.067,-1.268 -3.067,-2.8313"
         style="fill:#ff6464;fill-opacity:1;fill-rule:nonzero;stroke:none;stroke-width:0.1"
         id="path1048" /><path
         d="m 682.187,74.477 c 0,-1.5629 1.374,-2.8321 3.068,-2.8321 1.695,0 3.069,1.2692 3.069,2.8321 0,1.5652 -1.374,2.8339 -3.069,2.8339 -1.694,0 -3.068,-1.2687 -3.068,-2.8339"
         style="fill:#ff6464;fill-opacity:1;fill-rule:nonzero;stroke:none;stroke-width:0.1"
         id="path1050" /><path
         d="m 668.242,62.1191 c 0,-1.566 1.374,-2.8339 3.068,-2.8339 1.694,0 3.067,1.2679 3.067,2.8339 0,1.5637 -1.373,2.8321 -3.067,2.8321 -1.694,0 -3.068,-1.2684 -3.068,-2.8321"
         style="fill:#ff6464;fill-opacity:1;fill-rule:nonzero;stroke:none;stroke-width:0.1"
         id="path1052" /><path
         d="m 718.026,71.002 c 0,-1.5649 1.373,-2.8321 3.067,-2.8321 1.696,0 3.069,1.2672 3.069,2.8321 0,1.564 -1.373,2.832 -3.069,2.832 -1.694,0 -3.067,-1.268 -3.067,-2.832"
         style="fill:#ff6464;fill-opacity:1;fill-rule:nonzero;stroke:none;stroke-width:0.1"
         id="path1054" /><path
         d="m 716.353,63.9219 c 0,-1.5668 1.375,-2.834 3.067,-2.834 1.695,0 3.069,1.2672 3.069,2.834 0,1.5633 -1.374,2.8312 -3.069,2.8312 -1.692,0 -3.067,-1.2679 -3.067,-2.8312"
         style="fill:#ff6464;fill-opacity:1;fill-rule:nonzero;stroke:none;stroke-width:0.1"
         id="path1056" /><path
         d="m 692.368,80.2719 c 0,-1.5649 1.373,-2.8328 3.067,-2.8328 1.694,0 3.068,1.2679 3.068,2.8328 0,1.564 -1.374,2.832 -3.068,2.832 -1.694,0 -3.067,-1.268 -3.067,-2.832"
         style="fill:#795ecc;fill-opacity:1;fill-rule:nonzero;stroke:none;stroke-width:0.1"
         id="path1058" /><path
         d="m 725.471,64.757 c 0,-1.564 1.372,-2.832 3.067,-2.832 1.695,0 3.068,1.268 3.068,2.832 0,1.5649 -1.373,2.8328 -3.068,2.8328 -1.695,0 -3.067,-1.2679 -3.067,-2.8328"
         style="fill:#795ecc;fill-opacity:1;fill-rule:nonzero;stroke:none;stroke-width:0.1"
         id="path1060" /><path
         d="m 700.649,62.568 c 0,-1.5641 1.373,-2.8321 3.068,-2.8321 1.694,0 3.067,1.268 3.067,2.8321 0,1.5648 -1.373,2.832 -3.067,2.832 -1.695,0 -3.068,-1.2672 -3.068,-2.832"
         style="fill:#795ecc;fill-opacity:1;fill-rule:nonzero;stroke:none;stroke-width:0.1"
         id="path1062" /><path
         d="m 746.11,66.0461 c 0,-1.5652 1.373,-2.834 3.067,-2.834 1.695,0 3.069,1.2688 3.069,2.834 0,1.5617 -1.374,2.8309 -3.069,2.8309 -1.694,0 -3.067,-1.2692 -3.067,-2.8309"
         style="fill:#795ecc;fill-opacity:1;fill-rule:nonzero;stroke:none;stroke-width:0.1"
         id="path1064" /><path
         d="m 662.385,63.0199 c 0,-1.5648 1.374,-2.834 3.068,-2.834 1.695,0 3.068,1.2692 3.068,2.834 0,1.5653 -1.373,2.8321 -3.068,2.8321 -1.694,0 -3.068,-1.2668 -3.068,-2.8321"
         style="fill:#795ecc;fill-opacity:1;fill-rule:nonzero;stroke:none;stroke-width:0.1"
         id="path1066" /><path
         d="m 693.622,63.277 c 0,-1.5649 1.374,-2.8329 3.068,-2.8329 1.694,0 3.068,1.268 3.068,2.8329 0,1.5648 -1.374,2.8308 -3.068,2.8308 -1.694,0 -3.068,-1.266 -3.068,-2.8308"
         style="fill:#795ecc;fill-opacity:1;fill-rule:nonzero;stroke:none;stroke-width:0.1"
         id="path1068" /><path
         d="m 652.122,73.127 c 0,-1.5641 1.374,-2.8329 3.068,-2.8329 1.694,0 3.068,1.2688 3.068,2.8329 0,1.5628 -1.374,2.8332 -3.068,2.8332 -1.694,0 -3.068,-1.2704 -3.068,-2.8332"
         style="fill:#ff8c36;fill-opacity:1;fill-rule:nonzero;stroke:none;stroke-width:0.1"
         id="path1070" /><path
         d="m 657.002,63.343 c 0,-1.5649 1.374,-2.834 3.068,-2.834 1.695,0 3.069,1.2691 3.069,2.834 0,1.5621 -1.374,2.832 -3.069,2.832 -1.694,0 -3.068,-1.2699 -3.068,-2.832"
         style="fill:#ff8c36;fill-opacity:1;fill-rule:nonzero;stroke:none;stroke-width:0.1"
         id="path1072" /><path
         d="m 733.002,67.848 c 0,-1.564 1.373,-2.8332 3.069,-2.8332 1.694,0 3.067,1.2692 3.067,2.8332 0,1.5629 -1.373,2.8321 -3.067,2.8321 -1.696,0 -3.069,-1.2692 -3.069,-2.8321"
         style="fill:#ff8c36;fill-opacity:1;fill-rule:nonzero;stroke:none;stroke-width:0.1"
         id="path1074" /><path
         d="m 703.299,69.65 c 0,-1.5641 1.375,-2.832 3.07,-2.832 1.693,0 3.067,1.2679 3.067,2.832 0,1.5648 -1.374,2.832 -3.067,2.832 -1.695,0 -3.07,-1.2672 -3.07,-2.832"
         style="fill:#ff8c36;fill-opacity:1;fill-rule:nonzero;stroke:none;stroke-width:0.1"
         id="path1076" /><path
         d="m 680.988,66.818 c 0,-1.5641 1.374,-2.8321 3.067,-2.8321 1.695,0 3.069,1.268 3.069,2.8321 0,1.5648 -1.374,2.832 -3.069,2.832 -1.693,0 -3.067,-1.2672 -3.067,-2.832"
         style="fill:#ff8c36;fill-opacity:1;fill-rule:nonzero;stroke:none;stroke-width:0.1"
         id="path1078" /><path
         d="m 755.734,66.818 c 0,-1.5641 1.373,-2.8321 3.068,-2.8321 1.695,0 3.067,1.268 3.067,2.8321 0,1.5648 -1.372,2.832 -3.067,2.832 -1.695,0 -3.068,-1.2672 -3.068,-2.832"
         style="fill:#ff8c36;fill-opacity:1;fill-rule:nonzero;stroke:none;stroke-width:0.1"
         id="path1080" /><path
         d="m 642.917,65.659 c 0,-1.5641 1.374,-2.832 3.069,-2.832 1.694,0 3.067,1.2679 3.067,2.832 0,1.5629 -1.373,2.8332 -3.067,2.8332 -1.695,0 -3.069,-1.2703 -3.069,-2.8332"
         style="fill:#ff8c36;fill-opacity:1;fill-rule:nonzero;stroke:none;stroke-width:0.1"
         id="path1082" /><path
         d="m 737.461,75.1871 c 0,-1.5652 1.373,-2.8332 3.069,-2.8332 1.693,0 3.067,1.268 3.067,2.8332 0,1.5629 -1.374,2.832 -3.067,2.832 -1.696,0 -3.069,-1.2691 -3.069,-2.832"
         style="fill:#afc437;fill-opacity:1;fill-rule:nonzero;stroke:none;stroke-width:0.1"
         id="path1084" /><path
         d="m 736.765,64.8859 c 0,-1.564 1.373,-2.8328 3.067,-2.8328 1.694,0 3.068,1.2688 3.068,2.8328 0,1.5641 -1.374,2.8332 -3.068,2.8332 -1.694,0 -3.067,-1.2691 -3.067,-2.8332"
         style="fill:#afc437;fill-opacity:1;fill-rule:nonzero;stroke:none;stroke-width:0.1"
         id="path1086" /><path
         d="m 667.874,68.2328 c 0,-1.5629 1.374,-2.8308 3.069,-2.8308 1.694,0 3.068,1.2679 3.068,2.8308 0,1.566 -1.374,2.8332 -3.068,2.8332 -1.695,0 -3.069,-1.2672 -3.069,-2.8332"
         style="fill:#afc437;fill-opacity:1;fill-rule:nonzero;stroke:none;stroke-width:0.1"
         id="path1088" /><path
         d="m 650.444,65.273 c 0,-1.564 1.374,-2.832 3.068,-2.832 1.694,0 3.068,1.268 3.068,2.832 0,1.5649 -1.374,2.8321 -3.068,2.8321 -1.694,0 -3.068,-1.2672 -3.068,-2.8321"
         style="fill:#afc437;fill-opacity:1;fill-rule:nonzero;stroke:none;stroke-width:0.1"
         id="path1090" /><path
         d="m 765.212,68.877 c 0,-1.5641 1.373,-2.8309 3.068,-2.8309 1.694,0 3.068,1.2668 3.068,2.8309 0,1.564 -1.374,2.8332 -3.068,2.8332 -1.695,0 -3.068,-1.2692 -3.068,-2.8332"
         style="fill:#afc437;fill-opacity:1;fill-rule:nonzero;stroke:none;stroke-width:0.1"
         id="path1092" /><path
         d="m 873.704,329.899 c -4.181,0.046 -7.698,-5.155 -8.122,-12.012 L 845.464,58.8918 863.598,45.3449 879.707,318.918 c 0.165,2.8 -0.391,5.584 -1.534,7.673 -1.141,2.088 -2.764,3.289 -4.469,3.308"
         style="fill:#ffd345;fill-opacity:1;fill-rule:nonzero;stroke:none;stroke-width:0.1"
         id="path1094" /><path
         d="m 851.017,62.3262 20.117,258.9948 c 0.212,3.414 1.192,6.416 2.637,8.565 l -0.067,0.012 c -4.181,0.047 -7.697,-5.154 -8.122,-12.011 l -20.118,-258.9952 18.134,-13.5469 0.666,11.3133 -13.247,5.668"
         style="fill:#ffaa3b;fill-opacity:1;fill-rule:nonzero;stroke:none;stroke-width:0.1"
         id="path1096" /><path
         d="m 556.025,326.56 c -1.554,0.789 -3.244,0.222 -4.487,-1.506 -1.244,-1.726 -1.87,-4.376 -1.663,-7.035 l 19.278,-247.2131 7.075,-13.7551 5.716,12.9191 -20.288,245.6541 c -0.425,5.142 -2.622,9.41 -5.631,10.936"
         style="fill:#ffd345;fill-opacity:1;fill-rule:nonzero;stroke:none;stroke-width:0.1"
         id="path1098" /><path
         d="M 570.084,97.0719 554.403,322.196 c -0.114,1.644 0.116,3.251 0.577,4.667 -1.248,0.163 -2.501,-0.448 -3.484,-1.796 -1.26,-1.726 -1.907,-4.384 -1.72,-7.067 l 17.327,-248.7469 12.545,-28.2992 2.992,31.7781 -2.799,22.7008 -9.757,1.6391"
         style="fill:#ffaa3b;fill-opacity:1;fill-rule:nonzero;stroke:none;stroke-width:0.1"
         id="path1100" /><path
         d="m 857.544,58.7121 c -16.261,10.5629 -158.24,13.2809 -166.106,2.459 -6.941,8.8539 -113.957,9.8527 -119.973,5.4258 -6.014,-4.4258 1.524,-54.616 1.524,-54.616 h 288.719 c 0,0 12.082,36.1781 -4.164,46.7312"
         style="fill:#ff4848;fill-opacity:1;fill-rule:nonzero;stroke:none;stroke-width:0.1"
         id="path1102" /><path
         d="m 854.797,56.202 c -10.28,6.6781 -75.344,9.9351 -117.142,8.0648 11.645,-11.0539 35.703,-22.6379 64.636,-30.0039 22.92,-5.8348 44.246,-7.8379 59.624,-6.309 1.417,10.1789 1.181,22.857 -7.118,28.2481"
         style="fill:#ff847b;fill-opacity:1;fill-rule:nonzero;stroke:none;stroke-width:0.1"
         id="path1104" /><path
         d="m 689.684,46.6758 c -1.146,8.4312 2.178,14.2812 4.626,15.4953 -6.939,8.8527 -119.471,11.298 -125.485,6.8711 -6.015,-4.4281 4.164,-57.0613 4.164,-57.0613 h 124.097 l -7.402,34.6949"
         style="fill:#f23030;fill-opacity:1;fill-rule:nonzero;stroke:none;stroke-width:0.1"
         id="path1106" /><path
         d="m 672.455,149.135 c -3.735,2.909 -0.977,9.993 -1.001,13.185 -0.025,3.193 -2.748,4.842 -2.748,4.842 1.469,-2.862 0.22,-6.663 -2.327,-11.558 -2.547,-4.894 -0.622,-11.743 6.013,-17.914 l 0.063,11.445"
         style="fill:#7a2f25;fill-opacity:1;fill-rule:nonzero;stroke:none;stroke-width:0.1"
         id="path1108" /><path
         d="m 706.405,161.575 c -2.977,3.62 -9.504,7.879 -9.307,19.851 0.197,11.971 -9.642,14.503 -9.642,14.503 1.249,-1.899 0.225,-3.549 -5.611,-9.618 -5.837,-6.067 -4.458,-10.28 -3.706,-16.722 0.752,-6.444 -8.606,-14.406 -8.473,-23.349 0.134,-8.942 14.98,-20.27 27.606,-19.044 l 8.557,10.187 c 12.335,8.383 3.551,20.571 0.576,24.192"
         style="fill:#893d30;fill-opacity:1;fill-rule:nonzero;stroke:none;stroke-width:0.1"
         id="path1110" /><path
         d="m 692.097,181.072 c 1.189,5.617 -1.66,7.423 -1.66,7.423 0.666,-5.476 -2.76,-9.469 -6.626,-13.559 -3.867,-4.089 -3.343,-11.388 1.379,-19.721 l 9.074,3.215 c -10.778,8.259 -3.355,17.024 -2.167,22.642"
         style="fill:#7a2f25;fill-opacity:1;fill-rule:nonzero;stroke:none;stroke-width:0.1"
         id="path1112" /><path
         d="m 682.03,186.506 -0.185,-0.195 c -5.837,-6.067 -5.795,-10.593 -5.043,-17.036 0.752,-6.443 -8.64,-14.191 -8.507,-23.135 0.134,-8.942 16.351,-20.17 28.977,-18.944 l 8.557,10.187 c 0.747,0.506 1.413,1.029 2.01,1.561 -19.282,1.161 -33.293,34.149 -25.809,47.562"
         style="fill:#7a2f25;fill-opacity:1;fill-rule:nonzero;stroke:none;stroke-width:0.1"
         id="path1114" /><path
         d="m 710.047,96.118 c 0.788,-0.2489 18.67,-3.1719 33.459,-5.0239 l 0.454,1.4368 c 0,0 -24.019,6.3992 -30.106,6.975 -2.43,-0.752 -3.807,-3.3879 -3.807,-3.3879"
         style="fill:#ffb882;fill-opacity:1;fill-rule:nonzero;stroke:none;stroke-width:0.1"
         id="path1116" /><path
         d="m 723.872,94.6211 c 0.106,0.9629 0.792,1.8047 1.905,2.4898 -5.009,1.1813 -9.682,2.1832 -11.923,2.395 -2.43,-0.752 -3.806,-3.3879 -3.806,-3.3879 0.442,-0.1399 6.254,-1.1188 13.882,-2.2789 -0.056,0.2597 -0.086,0.5211 -0.058,0.782"
         style="fill:#ff9566;fill-opacity:1;fill-rule:nonzero;stroke:none;stroke-width:0.1"
         id="path1118" /><path
         d="m 714.232,103.94 c 0.788,-0.248 18.67,-3.172 33.458,-5.024 l 0.455,1.437 c 0,0 -24.021,6.401 -30.107,6.975 -2.429,-0.752 -3.806,-3.388 -3.806,-3.388"
         style="fill:#ffb882;fill-opacity:1;fill-rule:nonzero;stroke:none;stroke-width:0.1"
         id="path1120" /><path
         d="m 728.598,103.502 c 0.015,0.566 0.23,1.106 0.607,1.609 -4.719,1.103 -9.04,2.016 -11.167,2.217 -2.429,-0.752 -3.806,-3.388 -3.806,-3.388 0.467,-0.147 6.932,-1.232 15.197,-2.478 -0.55,0.636 -0.849,1.326 -0.831,2.04"
         style="fill:#ff9566;fill-opacity:1;fill-rule:nonzero;stroke:none;stroke-width:0.1"
         id="path1122" /><path
         d="m 700.087,117.326 c 0.669,0.485 13.654,13.124 23.938,23.912 l -0.887,1.221 c 0,0 -19.429,-15.506 -23.511,-20.058 -0.839,-2.4 0.46,-5.075 0.46,-5.075"
         style="fill:#ffb882;fill-opacity:1;fill-rule:nonzero;stroke:none;stroke-width:0.1"
         id="path1124" /><path
         d="m 707.651,129.72 c -3.53,-3.007 -6.649,-5.786 -8.024,-7.319 -0.839,-2.4 0.46,-5.075 0.46,-5.075 0.269,0.195 2.528,2.355 5.798,5.564 0.13,1.941 0.734,4.303 1.766,6.83"
         style="fill:#ff9566;fill-opacity:1;fill-rule:nonzero;stroke:none;stroke-width:0.1"
         id="path1126" /><path
         d="m 690.022,122.308 c 0,0 -0.791,-24.6252 20.407,-36.333 0,0 9.914,9.0539 16.267,21.269 0,0 -14.024,2.898 -18.567,7.151 -4.543,4.252 -7.182,8.468 -8.808,9.214 -1.626,0.747 -7.406,1.963 -9.299,-1.301"
         style="fill:#505aa5;fill-opacity:1;fill-rule:nonzero;stroke:none;stroke-width:0.1"
         id="path1128" /><path
         d="m 691.479,122.438 c -0.751,2.333 -1.685,0.651 -2.02,0.073 0,0 -0.228,-24.8282 20.97,-36.536 0,0 2.454,2.2418 5.701,5.9961 -18.93,8.3129 -23.525,25.2689 -24.651,30.4669"
         style="fill:#3a478e;fill-opacity:1;fill-rule:nonzero;stroke:none;stroke-width:0.1"
         id="path1130" /><path
         d="m 690.591,117.738 c -0.751,0.329 -15.263,10.494 -26.713,18.477 l 0.682,0.778 c 0,0 19.134,-11.762 26.313,-14.209 0.89,-1.984 -0.282,-5.046 -0.282,-5.046"
         style="fill:#ffb882;fill-opacity:1;fill-rule:nonzero;stroke:none;stroke-width:0.1"
         id="path1132" /><path
         d="m 686.144,124.685 c -0.386,-0.838 -2.641,-0.718 -5.938,0.145 5.673,-3.946 9.985,-6.916 10.385,-7.092 0,0 1.173,3.062 0.282,5.046 -1.256,0.428 -2.884,1.146 -4.707,2.032 l -0.022,-0.131"
         style="fill:#ff9566;fill-opacity:1;fill-rule:nonzero;stroke:none;stroke-width:0.1"
         id="path1134" /><path
         d="m 690.414,123.56 c 2.733,-1.568 5.103,-6.258 6.97,-6.292 3.726,-0.067 3.804,3.926 1.699,6.439 -1.504,0.912 -6.209,2.03 -8.669,-0.147"
         style="fill:#ffb882;fill-opacity:1;fill-rule:nonzero;stroke:none;stroke-width:0.1"
         id="path1136" /><path
         d="m 691.597,124.304 0.171,3.68 5.303,0.398 0.091,-4.566 -5.565,0.488"
         style="fill:#ffb882;fill-opacity:1;fill-rule:nonzero;stroke:none;stroke-width:0.1"
         id="path1138" /><path
         d="m 702.912,119.988 c -0.001,0 -0.001,0.001 -0.001,0.001 0,0 0,0 0.001,10e-4 0,-10e-4 0,-10e-4 0,-0.002"
         style="fill:#b58383;fill-opacity:1;fill-rule:nonzero;stroke:none;stroke-width:0.1"
         id="path1140" /><path
         d="m 702.911,119.989 c 0,0 0,0 -10e-4,0 0.204,0.197 0.417,0.403 0.638,0.619 -0.221,-0.216 -0.434,-0.421 -0.637,-0.618 v 0 c 0,-10e-4 0,-10e-4 0,-10e-4 m 0.871,0.846 c 0.307,0.299 0.63,0.613 0.967,0.943 l -0.063,-0.062 c -0.315,-0.307 -0.616,-0.601 -0.904,-0.881 m 2.103,2.055 v 0 c 0.01,0.144 0.022,0.289 0.037,0.437 0.049,-0.087 0.097,-0.173 0.144,-0.259 l -0.181,-0.178"
         style="fill:#b55f43;fill-opacity:1;fill-rule:nonzero;stroke:none;stroke-width:0.1"
         id="path1142" /><path
         d="m 702.91,119.989 c -1.097,1.287 -1.99,2.347 -2.723,3.006 l 0.158,0.159 c 0.158,0.16 0.327,0.327 0.508,0.503 l 0.188,0.184 c 0.249,0.239 0.511,0.488 0.793,0.752 l 0.038,0.034 c 0.277,0.258 0.571,0.527 0.875,0.803 l 0.216,0.196 c 0.262,0.236 0.534,0.479 0.812,0.727 0.854,-1.005 1.583,-2.037 2.147,-3.026 -0.015,-0.148 -0.027,-0.293 -0.037,-0.437 v 0 l -0.037,-0.036 c -0.38,-0.373 -0.745,-0.73 -1.096,-1.073 l -0.003,-0.003 c -0.337,-0.33 -0.66,-0.644 -0.967,-0.943 -0.035,-0.034 -0.07,-0.067 -0.104,-0.101 l -0.103,-0.1 c -0.009,-0.009 -0.018,-0.018 -0.027,-0.026 -0.221,-0.216 -0.434,-0.422 -0.638,-0.619"
         style="fill:#b54d35;fill-opacity:1;fill-rule:nonzero;stroke:none;stroke-width:0.1"
         id="path1144" /><path
         d="m 689.872,123.154 c -1.075,0.424 -2.336,0.996 -3.706,1.662 l -0.001,-0.001 c -1.114,0.542 -2.304,1.149 -3.529,1.793 0,10e-4 0,0.002 -10e-4,0.003 1.228,-0.646 2.419,-1.254 3.535,-1.797 0.899,-0.436 1.748,-0.832 2.532,-1.172 l 0.101,-0.044 c 0.319,-0.137 0.623,-0.263 0.918,-0.381 l 0.153,-0.061 c -10e-4,-0.001 -10e-4,-0.001 -0.002,-0.002"
         style="fill:#b58383;fill-opacity:1;fill-rule:nonzero;stroke:none;stroke-width:0.1"
         id="path1146" /><path
         d="m 698.574,116.871 c -1.738,0 -3.821,0.416 -5.908,1.176 -0.595,1.828 -0.961,3.347 -1.187,4.391 -0.065,0.203 -0.132,0.375 -0.199,0.521 2.369,-1.918 4.437,-5.66 6.104,-5.691 0.031,0 0.062,0 0.093,-0.001 3.635,0 3.694,3.948 1.606,6.44 v 0 l 0.238,-0.098 c 0.256,-0.117 0.548,-0.347 0.858,-0.623 l 0.008,0.009 c 0.733,-0.659 1.626,-1.719 2.723,-3.006 10e-4,0 10e-4,0 10e-4,0 0,0 0,-0.001 0.001,-0.001 0.135,-2.162 -1.706,-3.117 -4.338,-3.117"
         style="fill:#392e55;fill-opacity:1;fill-rule:nonzero;stroke:none;stroke-width:0.1"
         id="path1148" /><path
         d="m 692.666,118.047 c -0.59,0.215 -1.178,0.456 -1.761,0.724 0.269,1.07 0.532,2.757 -0.032,4.013 v 0 c -0.299,0.102 -0.619,0.22 -0.957,0.353 -0.015,0.006 -0.029,0.011 -0.044,0.017 0.001,0.001 0.001,0.001 0.002,0.002 l 10e-4,-0.001 c 0.18,0.233 0.391,0.43 0.615,0.471 -0.025,-0.022 -0.05,-0.043 -0.076,-0.066 0.293,-0.168 0.581,-0.371 0.866,-0.601 0.067,-0.146 0.134,-0.318 0.199,-0.521 0.226,-1.044 0.592,-2.563 1.187,-4.391"
         style="fill:#292549;fill-opacity:1;fill-rule:nonzero;stroke:none;stroke-width:0.1"
         id="path1150" /><path
         d="m 690.873,122.784 v 0 c -0.299,0.102 -0.619,0.22 -0.957,0.353 0.338,-0.133 0.658,-0.251 0.957,-0.353 v 0 m -6.375,1.331 c -0.177,0 -0.366,0.008 -0.566,0.022 -0.56,0.778 -1.003,1.604 -1.296,2.471 1.225,-0.644 2.415,-1.251 3.529,-1.793 l -0.021,-0.13 c -0.178,-0.387 -0.754,-0.57 -1.646,-0.57"
         style="fill:#b55f43;fill-opacity:1;fill-rule:nonzero;stroke:none;stroke-width:0.1"
         id="path1152" /><path
         d="m 690.905,118.771 c -2.758,1.268 -5.354,3.114 -6.973,5.366 0.2,-0.014 0.389,-0.022 0.566,-0.022 0.892,0 1.468,0.183 1.646,0.57 l 0.021,0.13 0.001,0.001 c 1.37,-0.666 2.631,-1.238 3.706,-1.662 0.015,-0.006 0.029,-0.011 0.044,-0.017 0.338,-0.133 0.658,-0.251 0.957,-0.353 v 0 c 0.564,-1.256 0.301,-2.943 0.032,-4.013"
         style="fill:#b54d35;fill-opacity:1;fill-rule:nonzero;stroke:none;stroke-width:0.1"
         id="path1154" /><path
         d="m 697.477,117.267 c -0.031,0.001 -0.062,0.001 -0.093,0.001 -1.667,0.031 -3.735,3.773 -6.104,5.691 -0.285,0.23 -0.573,0.433 -0.866,0.601 0.026,0.023 0.051,0.044 0.076,0.066 0.011,0.002 0.021,0.003 0.031,0.005 0.338,0.281 0.716,0.498 1.119,0.669 l -0.043,0.004 5.565,-0.488 -0.013,0.627 c 0.813,-0.212 1.507,-0.477 1.932,-0.735 l 0.002,-0.001 v 0 c 2.088,-2.492 2.029,-6.44 -1.606,-6.44"
         style="fill:#b55f43;fill-opacity:1;fill-rule:nonzero;stroke:none;stroke-width:0.1"
         id="path1156" /><path
         d="m 697.162,123.816 -5.565,0.488 0.171,3.68 5.303,0.398 0.078,-3.939 v 0 l 0.013,-0.627"
         style="fill:#b55f43;fill-opacity:1;fill-rule:nonzero;stroke:none;stroke-width:0.1"
         id="path1158" /><path
         d="m 710.823,143.123 c 0.486,9.076 -5.951,14.604 -13.871,15.315 -7.922,0.711 -16.146,-5.205 -16.958,-14.259 -0.813,-9.052 7.039,-17.014 14.961,-17.725 7.92,-0.712 15.088,2.12 15.868,16.669"
         style="fill:#ffb882;fill-opacity:1;fill-rule:nonzero;stroke:none;stroke-width:0.1"
         id="path1160" /><path
         d="m 684.194,135.59 c 2.437,6.171 -2.49,11.749 1.933,19.791 0,0 -5.8,3.062 -8.943,-6.232 -3.143,-9.293 7.01,-13.559 7.01,-13.559"
         style="fill:#7a2f25;fill-opacity:1;fill-rule:nonzero;stroke:none;stroke-width:0.1"
         id="path1162" /><path
         d="m 681.842,138.247 c -3.345,3.121 -5.847,0.48 -5.174,-1.595 0.674,-2.076 6.462,-3.586 6.839,-2.49 0.376,1.096 -0.614,3.105 -1.665,4.085"
         style="fill:#ffb882;fill-opacity:1;fill-rule:nonzero;stroke:none;stroke-width:0.1"
         id="path1164" /><path
         d="m 681.248,137.743 c -2.174,1.584 -3.448,-0.136 -2.907,-1.3 0.541,-1.164 4.03,-1.633 4.171,-0.967 0.142,0.667 -0.58,1.77 -1.264,2.267"
         style="fill:#ea7b59;fill-opacity:1;fill-rule:nonzero;stroke:none;stroke-width:0.1"
         id="path1166" /><path
         d="m 682.235,136.831 c -1.543,1.123 -2.446,-0.096 -2.062,-0.921 0.384,-0.825 2.857,-1.158 2.957,-0.686 0.101,0.473 -0.411,1.254 -0.895,1.607"
         style="fill:#ffb882;fill-opacity:1;fill-rule:nonzero;stroke:none;stroke-width:0.1"
         id="path1168" /><path
         d="m 742.409,89.7578 8.402,5.0871 c 0,0 -7.591,-0.291 -8.837,-1.7058 -1.247,-1.4161 0.435,-3.3813 0.435,-3.3813"
         style="fill:#f9e7c5;fill-opacity:1;fill-rule:nonzero;stroke:none;stroke-width:0.1"
         id="path1170" /><path
         d="m 747.727,97.6551 8.401,5.0879 c 0,0 -7.589,-0.292 -8.837,-1.707 -1.247,-1.4161 0.436,-3.3809 0.436,-3.3809"
         style="fill:#f9e7c5;fill-opacity:1;fill-rule:nonzero;stroke:none;stroke-width:0.1"
         id="path1172" /><path
         d="m 694.967,143.557 c -0.052,2.15 -1.308,3.998 -2.807,4.131 -1.499,0.134 -2.673,-1.501 -2.621,-3.649 0.052,-2.149 1.262,-3.028 2.761,-3.16 1.499,-0.134 2.72,0.53 2.667,2.678"
         style="fill:#fffbdd;fill-opacity:1;fill-rule:nonzero;stroke:none;stroke-width:0.1"
         id="path1174" /><path
         d="m 694.352,143.844 c 0.072,1.138 -0.534,2.206 -1.356,2.386 -0.822,0.181 -1.547,-0.595 -1.62,-1.733 -0.073,-1.138 0.534,-2.206 1.356,-2.387 0.821,-0.18 1.547,0.597 1.62,1.734"
         style="fill:#3f7fa5;fill-opacity:1;fill-rule:nonzero;stroke:none;stroke-width:0.1"
         id="path1176" /><path
         d="m 694.427,144.795 c 0.029,0.439 -0.206,0.852 -0.523,0.922 -0.318,0.07 -0.598,-0.231 -0.626,-0.67 -0.029,-0.44 0.206,-0.852 0.523,-0.921 0.318,-0.071 0.598,0.229 0.626,0.669"
         style="fill:#fffbdd;fill-opacity:1;fill-rule:nonzero;stroke:none;stroke-width:0.1"
         id="path1178" /><path
         d="m 687.601,151.669 0.819,-1.439 c 0.639,0.926 4.626,3.074 7.95,1.843 l -0.087,2.791 c 0,0 -5.658,1.228 -8.682,-3.195"
         style="fill:#893d30;fill-opacity:1;fill-rule:nonzero;stroke:none;stroke-width:0.1"
         id="path1180" /><path
         d="m 707.109,143.028 c -0.048,2.127 -1.277,3.902 -2.742,3.965 -1.466,0.063 -2.615,-1.61 -2.567,-3.737 0.049,-2.126 1.232,-2.943 2.697,-3.005 1.466,-0.063 2.661,0.65 2.612,2.777"
         style="fill:#fffbdd;fill-opacity:1;fill-rule:nonzero;stroke:none;stroke-width:0.1"
         id="path1182" /><path
         d="m 706.516,143.116 c 0.074,1.127 -0.531,2.186 -1.352,2.363 -0.823,0.178 -1.548,-0.591 -1.623,-1.718 -0.074,-1.126 0.532,-2.185 1.354,-2.363 0.821,-0.179 1.547,0.591 1.621,1.718"
         style="fill:#3f7fa5;fill-opacity:1;fill-rule:nonzero;stroke:none;stroke-width:0.1"
         id="path1184" /><path
         d="m 706.593,144.058 c 0.029,0.436 -0.206,0.844 -0.523,0.913 -0.318,0.069 -0.598,-0.228 -0.626,-0.664 -0.03,-0.435 0.205,-0.843 0.522,-0.913 0.318,-0.068 0.598,0.229 0.627,0.664"
         style="fill:#fffbdd;fill-opacity:1;fill-rule:nonzero;stroke:none;stroke-width:0.1"
         id="path1186" /><path
         d="m 708.843,148.929 -0.878,-1.187 c -0.277,0.974 -2.73,3.683 -5.376,3.137 l 0.618,2.573 c 0,0 4.332,0.123 5.636,-4.523"
         style="fill:#893d30;fill-opacity:1;fill-rule:nonzero;stroke:none;stroke-width:0.1"
         id="path1188" /><path
         d="m 693.831,135.44 8.405,-1.293 c 0,0 -1.029,-3.275 -3.895,-3.129 -3.257,0.166 -4.51,4.422 -4.51,4.422"
         style="fill:#763224;fill-opacity:1;fill-rule:nonzero;stroke:none;stroke-width:0.1"
         id="path1190" /><path
         d="m 694.636,135.021 7.029,-1.04 c 0,0 -0.753,-2.06 -3.251,-1.876 -2.789,0.205 -3.778,2.916 -3.778,2.916"
         style="fill:#fffbdd;fill-opacity:1;fill-rule:nonzero;stroke:none;stroke-width:0.1"
         id="path1192" /><path
         d="m 700.643,138.61 c -0.271,1.059 -1.341,1.952 -1.341,1.952 l -2.045,-2.699 c 1.791,-1.55 3.733,-0.604 3.386,0.747"
         style="fill:#ea7b59;fill-opacity:1;fill-rule:nonzero;stroke:none;stroke-width:0.1"
         id="path1194" /><path
         d="m 700.037,138.849 c -0.163,0.816 -0.973,1.545 -0.973,1.545 l -1.649,-2.155 c 1.372,-1.088 2.818,-0.374 2.622,0.61"
         style="fill:#ffb882;fill-opacity:1;fill-rule:nonzero;stroke:none;stroke-width:0.1"
         id="path1196" /><path
         d="m 698.78,129.348 c -0.005,0.163 -0.587,0.318 -1.3,0.347 -0.713,0.03 -1.286,-0.077 -1.281,-0.239 0.005,-0.163 0.586,-0.319 1.298,-0.348 0.713,-0.029 1.288,0.078 1.283,0.24"
         style="fill:#ea7b59;fill-opacity:1;fill-rule:nonzero;stroke:none;stroke-width:0.1"
         id="path1198" /><path
         d="m 721.04,138.849 c 1.77,0.844 4.242,0.526 5.23,1.624 0.769,0.856 -0.032,3.944 -0.774,4.045 -0.743,0.102 -4.881,-4.044 -4.881,-4.044 l 0.425,-1.625"
         style="fill:#ffb882;fill-opacity:1;fill-rule:nonzero;stroke:none;stroke-width:0.1"
         id="path1200" /><path
         d="m 721.803,141.506 c 0.738,1.506 1.208,4.436 1.4,4.964 0.192,0.529 0.767,0.225 0.693,-1.315 -0.074,-1.539 -0.506,-1.937 0.11,-2.351 0.681,-0.455 -2.559,-2.026 -2.203,-1.298"
         style="fill:#ffb882;fill-opacity:1;fill-rule:nonzero;stroke:none;stroke-width:0.1"
         id="path1202" /><path
         d="m 725.34,143.215 c 1.012,0.963 3.428,3.22 3.122,3.559 -0.306,0.34 -4.03,-2.825 -4.03,-2.825 l 0.908,-0.734"
         style="fill:#ffb882;fill-opacity:1;fill-rule:nonzero;stroke:none;stroke-width:0.1"
         id="path1204" /><path
         d="m 725.919,141.955 c 1.147,0.772 3.877,2.571 3.631,2.963 -0.247,0.39 -4.405,-2.074 -4.405,-2.074 l 0.774,-0.889"
         style="fill:#ffb882;fill-opacity:1;fill-rule:nonzero;stroke:none;stroke-width:0.1"
         id="path1206" /><path
         d="m 725.506,139.98 c 1.274,0.483 4.299,1.592 4.143,2.034 -0.155,0.443 -4.704,-0.976 -4.704,-0.976 l 0.561,-1.058"
         style="fill:#ffb882;fill-opacity:1;fill-rule:nonzero;stroke:none;stroke-width:0.1"
         id="path1208" /><path
         d="m 668.525,133.162 c -1.815,0.763 -4.294,0.33 -5.331,1.384 -0.808,0.82 -0.117,3.949 0.627,4.086 0.744,0.135 5.664,-4.835 5.664,-4.835 l -0.96,-0.635"
         style="fill:#ffb882;fill-opacity:1;fill-rule:nonzero;stroke:none;stroke-width:0.1"
         id="path1210" /><path
         d="m 667.664,135.63 c -0.8,1.474 -1.393,4.542 -1.607,5.061 -0.214,0.521 -0.782,0.19 -0.649,-1.348 0.133,-1.539 0.584,-1.916 -0.023,-2.359 -0.668,-0.487 2.666,-2.066 2.279,-1.354"
         style="fill:#ffb882;fill-opacity:1;fill-rule:nonzero;stroke:none;stroke-width:0.1"
         id="path1212" /><path
         d="m 663.72,137.377 c -0.946,1.029 -3.21,3.444 -2.877,3.763 0.334,0.32 3.846,-3.09 3.846,-3.09 l -0.969,-0.673"
         style="fill:#ffb882;fill-opacity:1;fill-rule:nonzero;stroke:none;stroke-width:0.1"
         id="path1214" /><path
         d="m 663.491,136.046 c -1.185,0.719 -4.005,2.394 -3.772,2.798 0.235,0.402 4.518,-1.873 4.518,-1.873 l -0.746,-0.925"
         style="fill:#ffb882;fill-opacity:1;fill-rule:nonzero;stroke:none;stroke-width:0.1"
         id="path1216" /><path
         d="m 663.982,134.088 c -1.302,0.423 -4.393,1.394 -4.252,1.844 0.14,0.45 4.777,-0.76 4.777,-0.76 l -0.525,-1.084"
         style="fill:#ffb882;fill-opacity:1;fill-rule:nonzero;stroke:none;stroke-width:0.1"
         id="path1218" /><path
         d="m 658.331,335.956 c -2.523,-1.186 -2.769,-7.024 -2.285,-11.524 L 683.479,59.166 c 1.841,-14.2379 13.623,-12.6281 14.812,0.791 l -29.839,270.301 c -0.282,2.549 -1.165,4.795 -2.435,6.188 -1.27,1.393 -2.808,1.803 -4.238,1.13 l -3.448,-1.62"
         style="fill:#ffd345;fill-opacity:1;fill-rule:nonzero;stroke:none;stroke-width:0.1"
         id="path1220" /><path
         d="M 689.209,62.2441 660.041,328.88 c -0.382,3.502 0.482,6.893 2.068,8.797 -0.187,-0.051 -0.376,-0.071 -0.561,-0.159 l -3.445,-1.637 c -2.521,-1.199 -4.069,-5.547 -3.577,-10.045 L 682.584,57.702 c 1.405,-10.7141 9.536,-10.911 13.419,-5.3649 -3.028,0.2668 -5.943,3.416 -6.794,9.907"
         style="fill:#ffaa3b;fill-opacity:1;fill-rule:nonzero;stroke:none;stroke-width:0.1"
         id="path1222" /><path
         d="m 551.281,313.116 c 0,-4.108 2.019,-7.439 4.511,-7.439 2.492,0 4.511,3.331 4.511,7.439 0,4.107 -2.019,7.437 -4.511,7.437 -2.492,0 -4.511,-3.33 -4.511,-7.437"
         style="fill:#ff4848;fill-opacity:1;fill-rule:nonzero;stroke:none;stroke-width:0.1"
         id="path1224" /><path
         d="m 656.601,323.7 c 0,-4.107 2.02,-7.438 4.511,-7.438 2.492,0 4.511,3.331 4.511,7.438 0,4.108 -2.019,7.438 -4.511,7.438 -2.491,0 -4.511,-3.33 -4.511,-7.438"
         style="fill:#ff4848;fill-opacity:1;fill-rule:nonzero;stroke:none;stroke-width:0.1"
         id="path1226" /><path
         d="m 868.283,313.401 c 0,-4.107 2.019,-7.437 4.51,-7.437 2.493,0 4.512,3.33 4.512,7.437 0,4.109 -2.019,7.439 -4.512,7.439 -2.491,0 -4.51,-3.33 -4.51,-7.439"
         style="fill:#ff4848;fill-opacity:1;fill-rule:nonzero;stroke:none;stroke-width:0.1"
         id="path1228" /><path
         d="M 527.123,12.7641 H 926.254 C 926.254,12.7641 824.906,0 723.656,0 622.405,0 527.123,12.7641 527.123,12.7641"
         style="fill:#efeb60;fill-opacity:1;fill-rule:nonzero;stroke:none;stroke-width:0.1"
         id="path1230" /></g></g></svg>
