<?xml version="1.0" encoding="UTF-8" standalone="no"?>
<svg
   xmlns:dc="http://purl.org/dc/elements/1.1/"
   xmlns:cc="http://creativecommons.org/ns#"
   xmlns:rdf="http://www.w3.org/1999/02/22-rdf-syntax-ns#"
   xmlns:svg="http://www.w3.org/2000/svg"
   xmlns="http://www.w3.org/2000/svg"
   xmlns:sodipodi="http://sodipodi.sourceforge.net/DTD/sodipodi-0.dtd"
   xmlns:inkscape="http://www.inkscape.org/namespaces/inkscape"
   version="1.1"
   id="svg2"
   xml:space="preserve"
   width="1600"
   height="1066.6667"
   viewBox="0 0 1600 1066.6667"
   sodipodi:docname="v642-nap-26-fastfood.eps"><metadata
     id="metadata8"><rdf:RDF><cc:Work
         rdf:about=""><dc:format>image/svg+xml</dc:format><dc:type
           rdf:resource="http://purl.org/dc/dcmitype/StillImage" /></cc:Work></rdf:RDF></metadata><defs
     id="defs6" /><sodipodi:namedview
     pagecolor="#ffffff"
     bordercolor="#666666"
     borderopacity="1"
     objecttolerance="10"
     gridtolerance="10"
     guidetolerance="10"
     inkscape:pageopacity="0"
     inkscape:pageshadow="2"
     inkscape:window-width="640"
     inkscape:window-height="480"
     id="namedview4" /><g
     id="g10"
     inkscape:groupmode="layer"
     inkscape:label="ink_ext_XXXXXX"
     transform="matrix(1.3333333,0,0,-1.3333333,0,1066.6667)"><g
       id="g12"
       transform="scale(0.1)"><path
         d="M 12000,0 H 0 V 8000 H 12000 V 0"
         style="fill:#f9e09d;fill-opacity:1;fill-rule:nonzero;stroke:none"
         id="path14" /><path
         d="m 3715.88,2669.8 c -16.25,-84.22 -32.28,-170.14 -21.97,-255.3 10.3,-85.16 51.28,-170.97 125.26,-214.42 75.56,-44.38 174.56,-36.53 251.11,6.12 76.55,42.66 132.52,115.71 170.15,194.85 63.98,134.56 79.24,291.65 42.37,435.99 -25.44,99.57 -232.52,555.84 -355.8,546.54 -145.71,-10.98 -188.7,-597.62 -211.12,-713.78"
         style="fill:#fffde0;fill-opacity:1;fill-rule:nonzero;stroke:none"
         id="path16" /><path
         d="m 3750.25,2663.17 c -14.75,-76.4 -31.46,-163 -21.6,-244.46 10.19,-84.18 50.65,-154.63 108.24,-188.46 60.53,-35.51 145.44,-32.98 216.35,6.54 79.07,44.05 128.25,121.81 155.58,179.29 60.11,126.41 74.71,276.69 40.06,412.31 -11.51,45.08 -67.21,179.84 -137.81,305.61 -97.07,172.94 -159.57,216.41 -181.44,214.68 -8.69,-0.65 -54.43,-13.51 -101.18,-202.95 -30.34,-122.96 -49.87,-274.24 -62.79,-374.33 -6.18,-47.87 -11.06,-85.68 -15.41,-108.23 z m 184.13,-527.67 c -47.65,0 -93.82,11.42 -132.94,34.4 -76.3,44.81 -129.49,134.68 -142.28,240.39 -11.18,92.37 6.64,184.69 22.36,266.15 v 0 c 3.93,20.41 8.69,57.25 14.72,103.91 13.12,101.68 32.95,255.33 64.25,382.16 41.8,169.36 93.87,250.69 163.88,255.98 164.14,12.18 374.83,-504.28 392.33,-572.78 38.63,-151.2 22.35,-318.75 -44.66,-459.68 -45.48,-95.65 -109.36,-168.4 -184.73,-210.4 -47.93,-26.7 -101.29,-40.13 -152.93,-40.13"
         style="fill:#42210b;fill-opacity:1;fill-rule:nonzero;stroke:none"
         id="path18" /><path
         d="M 8266.09,8000 H 0 V 287.121 C 80.0195,183.91 199.379,109.059 327.984,115.781 c 240.567,12.578 379.121,283.098 413.325,521.539 66.254,461.92 -67.723,925.41 -153.184,1384.16 -85.457,458.75 -114.43,964.84 133.293,1360.3 70.922,113.22 211.926,222.67 325.932,153.02 71.09,-43.42 91.21,-135.64 105.73,-217.66 54.39,-307.22 121.42,-612.2 200.88,-913.9 45.27,-171.86 130.61,-374.95 307.31,-393.95 223.38,-24.03 340.84,264.89 333.72,489.45 -12.49,394 -171.3,766.05 -285.13,1143.46 -113.83,377.42 -180.82,797.79 -16.68,1156.19 128.77,281.17 463.89,501.91 746.25,375.81 267.86,-119.62 339.06,-464.63 339.78,-757.99 0.34,-132.53 -5.18,-271.26 53.27,-390.2 58.45,-118.94 207.32,-205.91 325.84,-146.62 107.2,53.64 136.81,193.57 129.81,313.24 -16.5,282.15 -161.65,538.61 -239.82,810.21 -78.18,271.59 -68.09,609.79 156.41,781.48 49.39,37.77 109.37,65.55 171.5,63.34 139.97,-5 231.75,-156.78 244.43,-296.27 12.69,-139.48 -25.82,-279.57 -15.89,-419.28 9.92,-139.71 94.3,-293.84 233.73,-307.13 150.69,-14.36 266.98,150.63 266.66,301.99 -0.33,151.37 -78.39,289.78 -141.47,427.38 -155.51,339.24 -228.92,715.78 -212.24,1088.59 8.94,200.03 49.99,412.29 189.82,555.61 221.65,227.17 662.98,158.18 804.73,-125.8 81.81,-163.91 67.81,-357.13 53.94,-539.8 -13.88,-182.67 -23.24,-377.25 65.83,-537.33 89.07,-160.09 315.41,-257.08 462.05,-147.28 121.92,91.31 130.97,271.81 97.67,420.44 -33.3,148.64 -97.66,295.35 -81.84,446.84 15.82,151.5 160.35,304.81 304.42,255.37 117.83,-40.44 159.78,-182.38 185.03,-304.38 51.01,-246.57 102.03,-493.15 153.05,-739.73 38.05,-183.92 127.65,-412.2 315.45,-409.93 171.18,2.06 265.83,206.08 268.18,377.25 4.41,322.5 -163.73,619.86 -233.46,934.76 -69.74,314.9 13.73,721.04 320.8,819.69 197.65,63.49 435,-48.2 512.05,-240.97 89.28,-223.37 17.31,-558.41 241.61,-645.34 149.48,-57.94 318.63,77.67 351.64,234.56 33,156.89 -30.95,317.23 -105.71,459.05 -46.27,87.76 -94.82,203.25 -28.16,276.73 87.85,96.83 247.56,-8.14 310.7,-122.63 63.13,-114.49 128.11,-262.88 258.7,-269.15 165.06,-7.92 229.66,223.48 179.2,380.83 -30.07,93.77 -80.77,185.22 -111.05,278.27"
         style="fill:#fffde0;fill-opacity:1;fill-rule:nonzero;stroke:none"
         id="path20" /><path
         d="m 8352.96,7876.87 c -18.29,41.77 -36.11,82.63 -50.02,123.13 h -73.46 c 15.84,-51.48 37.7,-101.74 59.37,-151.23 19.8,-45.22 40.29,-91.98 54.96,-137.72 30.07,-93.78 13.78,-215.29 -37.88,-282.66 -28.28,-36.87 -64.06,-54.58 -106.31,-52.52 -97.31,4.67 -154.51,111.26 -209.83,214.34 -6.7,12.48 -13.32,24.79 -19.91,36.74 -43.96,79.74 -138.85,166.35 -235.11,177.61 -52.23,6.12 -97.91,-10.61 -132.15,-48.37 -80.6,-88.83 -29.98,-215.84 23.11,-316.56 64.58,-122.5 134.57,-282.7 102.43,-435.52 -16.55,-78.66 -73.72,-154.69 -145.65,-193.69 -37.83,-20.52 -96.13,-39.85 -159.1,-15.44 -126.62,49.07 -144.67,192.22 -165.57,357.97 -11.5,91.28 -23.4,185.68 -56.19,267.71 -84.41,211.22 -338.67,330.88 -555.24,261.31 -324.33,-104.19 -419.44,-521.15 -344.27,-860.57 25.92,-117.05 65.49,-232.53 103.76,-344.22 67.66,-197.46 131.58,-383.98 128.86,-582.49 -2.24,-163.51 -92.18,-341.04 -233.59,-342.74 -0.68,-0.01 -1.36,-0.02 -2.04,-0.02 -75.56,0 -210.14,50.56 -278.72,382.05 l -153.05,739.72 c -28.53,137.88 -75.53,284.95 -207.94,330.4 -63.05,21.63 -131.89,11.8 -193.78,-27.7 -84.58,-53.99 -146.13,-154.92 -156.82,-257.14 -12.1,-115.88 19.59,-227.66 50.24,-335.76 11.39,-40.21 23.18,-81.8 32.27,-122.37 14.47,-64.58 51.14,-283.2 -84.5,-384.77 -62.12,-46.51 -132.45,-44.05 -180.55,-33.79 -93.27,19.89 -183.52,86.65 -229.94,170.06 -81.92,147.25 -75.85,328.89 -61.51,517.67 13.68,180.15 29.19,384.34 -57.52,558.08 -71.62,143.49 -220.53,245.75 -398.33,273.53 -177.8,27.79 -350.79,-24.14 -462.76,-138.92 -122.62,-125.67 -187.95,-314.89 -199.74,-578.49 -16.93,-378.4 57.55,-760.41 215.38,-1104.73 9.42,-20.56 19.18,-41.14 28.97,-61.77 53.62,-113.09 109.07,-230.03 109.32,-351.1 0.17,-79.99 -36.79,-165.45 -94.17,-217.73 -28.16,-25.66 -74.35,-55.02 -134.17,-49.35 -119.42,11.38 -193.28,150.07 -202.15,274.77 -4.62,64.99 1.68,129.64 8.35,198.08 7.04,72.24 14.32,146.94 7.5,221.9 -7.11,78.1 -36.76,156.97 -81.35,216.4 -52.04,69.34 -121.89,109 -196.69,111.67 -80.39,2.8 -149.88,-36.76 -194.01,-70.52 -244.44,-186.93 -247.47,-545.62 -168.79,-818.97 27.33,-94.94 63.03,-188.86 97.54,-279.69 67.1,-176.54 130.47,-343.28 140.98,-522.87 3,-51.19 3.88,-222.66 -110.54,-279.9 -47,-23.51 -94.45,-15.78 -126.01,-5.14 -63.55,21.41 -122.07,73.48 -152.75,135.9 -49.96,101.66 -49.81,223.5 -49.68,341.32 0.01,11.21 0.03,22.39 0,33.53 -0.57,235.12 -48.18,650.37 -360.51,789.86 -141.03,62.97 -305.06,50.02 -461.9,-36.49 -142.08,-78.38 -262.52,-208.4 -330.44,-356.7 -140.33,-306.43 -135.57,-681.66 14.99,-1180.88 26.7,-88.53 56.29,-178.05 84.9,-264.62 93.09,-281.64 189.34,-572.86 198.76,-869.84 4.92,-155.04 -51.61,-318.91 -137.45,-398.51 -46.16,-42.8 -99.18,-61.32 -157.55,-55.04 -123.09,13.24 -216.35,137.08 -277.19,368.08 -78.88,299.43 -146.26,605.96 -200.28,911.07 -16.76,94.72 -39.99,191.38 -121.94,241.44 -127.237,77.73 -287.596,-26.62 -373.838,-164.32 -117.664,-187.83 -182.059,-407.98 -196.875,-673.04 -11.473,-205.17 7.773,-438.15 58.828,-712.24 16.476,-88.48 35.039,-178.51 53,-265.58 C 681.742,1385.64 759.32,1009.4 706.664,642.289 673.832,413.41 540.746,161.949 326.156,150.73 232.645,145.941 94.6523,195.422 0,347.949 V 232.152 C 86.3398,136.762 199.531,80.3711 312.301,80.3711 c 5.828,0 11.679,0.1484 17.508,0.4609 120.754,6.3086 228.273,72.359 310.937,191.02 67.805,97.289 115.82,225.328 135.215,360.5 54.387,379.208 -24.453,761.548 -100.691,1131.278 -17.883,86.74 -36.379,176.45 -52.747,264.26 -69.648,373.94 -132.097,919.19 128.555,1335.3 58.613,93.59 183.633,199.42 278.042,141.74 57.09,-34.87 75.51,-114.91 89.5,-193.89 54.34,-307.01 122.14,-615.42 201.5,-916.71 68.99,-261.93 182.51,-403.18 337.41,-419.85 78.21,-8.4 151.81,16.93 212.63,73.31 116.87,108.36 164.47,305.13 159.82,452.05 -9.74,307.11 -107.62,603.23 -202.26,889.6 -28.48,86.14 -57.92,175.22 -84.36,262.86 -145.35,481.95 -151.18,841.5 -18.35,1131.52 120.68,263.53 437.91,475.55 700.14,358.42 276.36,-123.42 318.53,-507.91 319.06,-726.12 0.03,-11.05 0.01,-22.14 0,-33.26 -0.14,-125.85 -0.3,-255.99 56.86,-372.28 38.6,-78.55 112.64,-144.21 193.21,-171.37 63.3,-21.34 125.44,-18.25 179.7,8.88 103.04,51.55 158.77,181.11 149.09,346.59 -11.13,190.32 -79.4,369.94 -145.42,543.65 -34.01,89.49 -69.19,182.03 -95.71,274.19 -110.25,383.02 2.13,635.46 144.04,744 35.04,26.8 89.32,58.33 148.99,56.16 117.28,-4.19 199.3,-137.75 210.84,-264.46 6.22,-68.38 -0.43,-136.57 -7.47,-208.77 -6.66,-68.31 -13.53,-138.95 -8.5,-209.82 5.57,-78.27 32.68,-157.87 74.4,-218.36 49.71,-72.08 115.74,-113.97 190.93,-121.13 67.58,-6.46 132.58,16.82 187.96,67.29 72.39,65.96 117.24,169.27 117.02,269.62 -0.29,136.75 -59.15,260.88 -116.07,380.94 -9.66,20.36 -19.29,40.66 -28.59,60.95 -153.22,334.25 -225.52,705.09 -209.09,1072.44 10.99,245.65 69.84,419.91 179.91,532.73 96.19,98.59 246.35,142.93 401.86,118.64 155.45,-24.29 284.99,-112.38 346.5,-235.62 78.09,-156.46 63.99,-342.05 50.35,-521.53 -15.16,-199.82 -21.22,-392.78 70.15,-557 56.67,-101.84 162.62,-180.2 276.51,-204.49 88.04,-18.77 172.23,-2.36 237.1,46.22 114.24,85.54 155.68,256.05 110.85,456.11 -9.51,42.47 -21.57,85.01 -33.23,126.15 -30.16,106.41 -58.65,206.92 -47.95,309.4 8.41,80.56 58.59,163.11 124.86,205.41 30.79,19.66 78.94,39.18 133.39,20.49 99.14,-34.03 137.58,-159.81 162.1,-278.37 l 153.06,-739.72 c 58.46,-282.56 181.6,-437.89 346.96,-437.87 1.05,0 2.14,0.01 3.19,0.02 186.01,2.24 299.99,211.13 302.75,411.78 2.88,210.66 -66.02,411.71 -132.64,606.14 -37.65,109.86 -76.57,223.46 -101.64,336.66 -35.14,158.67 -28.52,330.86 18.16,472.41 36.48,110.57 114.5,253.49 279.17,306.39 179.71,57.73 398.79,-45.39 468.84,-220.64 29.46,-73.71 40.79,-163.58 51.75,-250.49 21.71,-172.23 44.16,-350.33 209.72,-414.5 68.58,-26.57 145.91,-19.76 217.76,19.19 90.59,49.12 159.86,141.39 180.78,240.81 36.75,174.72 -38.95,349.68 -109,482.57 -42.45,80.53 -84.59,180.23 -33.2,236.89 18.93,20.86 42.51,29.38 72.17,25.88 63.2,-7.4 141.43,-68.4 181.96,-141.89 6.46,-11.72 12.94,-23.8 19.52,-36.04 58.48,-108.97 131.27,-244.59 268.15,-251.16 65.46,-3.08 122.73,24.45 165.21,79.85 65.43,85.31 86.04,231.09 49,346.62 -15.77,49.17 -36.98,97.6 -57.51,144.45"
         style="fill:#42210b;fill-opacity:1;fill-rule:nonzero;stroke:none"
         id="path22" /><path
         d="m 1121.12,6950.32 c -31.26,-24.92 -72.96,-33.5 -112.92,-32.38 -67.708,1.92 -139.356,35.5 -165.059,98.17 -25.703,62.67 22.011,181.39 89.746,181.71 69.613,24.87 155.263,8.1 202.403,-48.85 47.14,-56.95 43.64,-152.56 -14.17,-198.65 z m 441.26,373.55 c -62.84,106.4 -165.33,185.32 -277.43,237.31 -194.17,90.05 -473.173,136.4 -651.427,17.91 -223.449,-145.46 -314.164,-463.76 -200.964,-705.16 113.195,-241.41 415.91,-375.23 670.631,-296.47 105.32,32.55 198.48,95.4 286.27,162.08 82.61,62.75 164.87,133.34 205.82,228.66 48.78,113.53 29.93,249.28 -32.9,355.67"
         style="fill:#9c2200;fill-opacity:1;fill-rule:nonzero;stroke:none"
         id="path24" /><path
         d="m 1595.99,7319.07 c -134.03,222.72 -418.32,332.55 -668.314,346.09 -121.754,6.59 -245.227,-15.09 -345.598,-87.57 -92.023,-66.46 -160.18,-164.04 -197.781,-270.64 -37.328,-105.82 -45.402,-222.76 -18.984,-332.11 26.957,-111.59 91.914,-208.98 179.085,-282.76 183.407,-155.25 452.727,-199.68 670.962,-95.62 64.43,30.73 124.17,70.38 181.45,112.76 56.53,41.83 112.87,85.55 159.59,138.46 44.1,49.93 78.55,108.54 92.52,174.17 14.22,66.82 8.77,137.8 -11.28,202.86 -10.17,33.04 -24.37,64.45 -41.65,94.36 -7.47,12.92 -25.28,18.29 -39.26,20.19 -4.28,0.59 -34.98,1.55 -27.97,-10.58 63.9,-110.57 83.03,-249.09 25.82,-366.6 -55.86,-114.77 -171.81,-196.88 -274.63,-266.83 -100.78,-68.55 -213.95,-123.07 -338.055,-124.26 -99.508,-0.96 -197.762,28.23 -281.7,81.53 -184.636,117.24 -272.132,331.02 -232.699,544.82 38.406,208.24 190.172,400.28 407.953,431.1 126.809,17.94 258.611,-7.25 377.211,-52.7 126.94,-48.65 244.94,-128.81 316.1,-247.06 7.74,-12.86 25.09,-18.27 39.26,-20.2 4.12,-0.56 35.19,-1.41 27.97,10.59"
         style="fill:#42210b;fill-opacity:1;fill-rule:nonzero;stroke:none"
         id="path26" /><path
         d="m 1089.37,6962.33 c -63.33,-47.27 -166.515,-35.86 -206.659,36.42 -28.516,51.34 -6.832,129.57 35.73,167.31 8.422,7.46 17.481,13.12 28.539,15.65 18.235,4.17 37.489,9.56 56.39,10.85 36.87,2.53 71.07,-10.07 96.21,-37.52 49.02,-53.5 45.48,-145.63 -10.21,-192.71 -13.99,-11.82 47.45,-37.61 63.51,-24.02 57.12,48.28 63.05,135.83 22.98,196.8 -45.85,69.75 -143.16,97.74 -222.645,88.23 -16.762,-2 -35.219,-7.67 -46.633,-9.98 -15.18,-3.08 -28.574,-6.55 -41.609,-15.39 -25.465,-17.26 -42.59,-46.91 -52.528,-75.41 -24.523,-70.35 -0.558,-135.9 62.028,-176.38 78.382,-50.7 200.087,-66.35 278.407,-7.87 11.33,8.45 -14.41,20.81 -19.38,22.76 -11.88,4.69 -32.63,9.85 -44.13,1.26"
         style="fill:#42210b;fill-opacity:1;fill-rule:nonzero;stroke:none"
         id="path28" /><path
         d="m 601.895,5162.33 c 33.609,-79.4 39.316,-143.82 102.91,-202.05 63.593,-58.22 156.148,-85.92 239.648,-64.43 65.187,16.79 126.327,71.65 125.557,138.95 -0.4,35.63 -17.57,68.76 -35.97,99.28 -18.39,30.51 -38.782,60.82 -46.837,95.53 -8.058,34.71 -0.738,75.78 27.857,97.03 28.91,21.5 68.91,16.72 104.48,10.96 27.44,-4.45 54.87,-8.9 82.31,-13.35 13.24,-2.15 26.94,-4.28 39.91,-0.88 18.04,4.72 31.88,19.53 41.05,35.77 27.93,49.49 19.04,113.23 -8.54,162.92 -27.58,49.69 -71.24,88.18 -114.6,124.92 -4.04,3.43 -8.53,7.02 -13.82,7.17 -4.5,0.13 -8.65,-2.28 -12.33,-4.86 -37.36,-26.23 -51.02,-73.98 -70.51,-115.25 -19.5,-41.27 -56.98,-83.33 -102.076,-76.29 -43.848,6.84 -67.465,57.17 -68.375,101.54 -0.387,18.96 1.82,38.65 -5.071,56.33 -11.093,28.46 -44.113,43.87 -74.629,42.25 -30.504,-1.62 -58.605,-17.04 -83.304,-35.02 -138.946,-101.21 -194.668,-302.22 -127.66,-460.52"
         style="fill:#ffd490;fill-opacity:1;fill-rule:nonzero;stroke:none"
         id="path30" /><path
         d="m 568.359,5167.65 c 5.746,-96.77 61.176,-180.54 140.727,-234.69 82.16,-55.91 202.121,-83.97 295.714,-39.95 39.15,18.41 74.46,48.48 90.77,89.48 19.14,48.16 0.89,96.87 -23.78,139.18 -25.71,44.12 -62.05,91.44 -52.08,145.72 4.49,24.43 18.35,46.35 42.6,54.91 25.53,9.01 55.18,1.03 80.93,-3.14 46.73,-7.58 113.86,-31.06 153.94,5.28 37.48,33.96 42.13,92.61 31.3,138.98 -12.23,52.37 -45.93,96.81 -83.62,133.87 -31.23,30.72 -82.42,89.7 -132.77,70.24 -42,-16.23 -60.46,-73.97 -76.85,-111.04 -10.46,-23.68 -22.95,-46.34 -42.513,-63.83 -8.797,-7.87 -17.891,-12.52 -28.481,-17.44 -4.543,-2.12 -12.582,0.79 -4.676,-2.84 -5.074,2.33 -9.547,8.82 -12.656,13.07 -12.488,17.09 -18.723,39.27 -20.269,60.16 -1.954,26.33 2.925,52.41 -11.645,76.07 -23.906,38.84 -80.133,55.45 -123.398,52.27 -102.903,-7.59 -185.082,-116.85 -221.129,-204.67 -39.227,-95.59 -41.535,-205.79 -2.114,-301.63 7.946,-19.32 73.883,-27.2 67.071,-10.63 -57.457,139.68 -22.887,309.99 83.601,417.18 27.828,28.02 66.164,61.89 106.828,66.81 41.551,5.03 31.145,-64.26 34.043,-89.2 8.481,-72.99 82.153,-128.96 155.688,-107.23 39.54,11.67 65.99,47.77 82.69,83.51 15.43,33 33.26,102.18 74.85,111.27 -10.32,0.43 -20.64,0.86 -30.97,1.29 2.45,-0.79 4.92,-1.57 7.38,-2.36 -7.6,3.5 -15.2,6.99 -22.79,10.48 79.57,-59.45 183.97,-174.19 122.3,-280.4 -6.2,-10.66 -16.07,-23.1 -28.01,-27.98 -12.94,-5.3 -29.73,0.17 -42.9,2.3 -29.03,4.71 -58.1,10.32 -87.33,13.71 -44.75,5.17 -99.107,4.42 -125.962,-38.14 -61.821,-97.95 72.612,-182.85 71.342,-277.67 -1.41,-105.11 -131.799,-154.48 -219.1,-127.84 -104.391,31.85 -175.395,138.77 -181.66,244.27 -1.094,18.41 -68.418,33.33 -67.071,10.63 v 0"
         style="fill:#42210b;fill-opacity:1;fill-rule:nonzero;stroke:none"
         id="path32" /><path
         d="m 2649.95,6686.62 c -37.66,-45.47 -61.25,-102.43 -66.77,-161.21 -5.63,-59.98 12.36,-128.32 64.71,-158.1 19.4,-11.03 41.85,-15.77 64.13,-16.96 108.31,-5.81 212.21,77.11 238.45,182.36 14.73,59.06 3.97,129.31 -43.79,167.07 -42.05,33.24 -100.49,33.56 -154.07,32.03 -38.58,-1.1 -84.78,-7.08 -101.37,-41.92 l -1.29,-3.27"
         style="fill:#434f00;fill-opacity:1;fill-rule:nonzero;stroke:none"
         id="path34" /><path
         d="m 2616,6686.82 c -57.7,-71.77 -91.48,-180.09 -51.73,-268.18 40.4,-89.51 152.67,-95.25 235.83,-70.37 81.92,24.49 154.29,87.99 180.47,170.63 25.97,82.01 4.08,179.01 -82.84,211.86 -49.83,18.83 -107.2,18.04 -159.66,14.39 -43.67,-3.04 -97.85,-13.12 -120.79,-55.06 -8.89,-16.25 57.84,-18.81 67.91,-0.41 15.56,28.45 46.21,27.67 74.99,28.1 34.52,0.51 70.64,-0.19 101.48,-17.68 62.59,-35.52 70.75,-121.94 49.87,-184.13 -20.64,-61.51 -68.46,-116.25 -129.21,-140.59 -67.84,-27.18 -135.72,2.15 -156.97,73.24 -24.62,82.32 6.42,172.95 58.55,237.79 8.92,11.1 -21.76,14.51 -26.1,14.6 -14.06,0.28 -32.46,-2.56 -41.8,-14.19 v 0"
         style="fill:#42210b;fill-opacity:1;fill-rule:nonzero;stroke:none"
         id="path36" /><path
         d="m 264.336,1498.96 c -37.656,-45.46 -61.25,-102.43 -66.762,-161.21 -5.633,-59.97 12.348,-128.31 64.707,-158.09 19.395,-11.04 41.852,-15.77 64.129,-16.96 108.313,-5.82 212.211,77.1 238.449,182.35 14.719,59.07 3.969,129.32 -43.789,167.07 -42.047,33.25 -100.488,33.56 -154.066,32.03 -38.582,-1.1 -84.785,-7.07 -101.379,-41.92 l -1.289,-3.27"
         style="fill:#434f00;fill-opacity:1;fill-rule:nonzero;stroke:none"
         id="path38" /><path
         d="m 230.387,1499.17 c -57.699,-71.78 -91.481,-180.1 -51.727,-268.18 40.399,-89.52 152.668,-95.26 235.832,-70.38 81.914,24.5 154.285,88 180.465,170.64 25.973,82 4.086,179 -82.832,211.85 -49.84,18.83 -107.207,18.05 -159.664,14.4 -43.672,-3.05 -97.852,-13.13 -120.789,-55.07 -8.895,-16.25 57.84,-18.81 67.902,-0.41 15.567,28.46 46.219,27.68 74.996,28.1 34.524,0.51 70.633,-0.18 101.477,-17.68 62.59,-35.52 70.75,-121.93 49.875,-184.13 -20.641,-61.5 -68.465,-116.25 -129.219,-140.59 -67.832,-27.17 -135.711,2.16 -156.969,73.25 -24.617,82.32 6.426,172.95 58.555,237.79 8.922,11.09 -21.758,14.51 -26.098,14.59 -14.066,0.28 -32.464,-2.56 -41.804,-14.18 v 0"
         style="fill:#42210b;fill-opacity:1;fill-rule:nonzero;stroke:none"
         id="path40" /><path
         d="M 632.898,4077.47 C 561.84,4197.79 445.934,4287.04 319.164,4345.83 224.922,4389.54 112.996,4424.08 0,4438.75 v -491.29 c 57.1836,-1.22 113.637,-23.94 149.922,-67.78 53.308,-64.41 49.351,-172.53 -16.02,-224.65 -35.3512,-28.18 -82.5114,-37.89 -127.70278,-36.61 -2.0625,0.06 -4.13281,0.24 -6.19922,0.36 v -408.06 c 38.3945,3.74 76.4648,11.16 113.629,22.65 119.098,36.83 224.453,107.89 323.719,183.29 93.429,70.97 186.453,150.8 232.765,258.59 55.164,128.39 33.84,281.9 -37.215,402.22"
         style="fill:#9c2200;fill-opacity:1;fill-rule:nonzero;stroke:none"
         id="path42" /><path
         d="m 699.246,3967.28 c -11.492,36.88 -27.371,71.99 -46.719,105.38 -77.039,128.3 -198.687,221.86 -333.644,283.42 C 217.934,4402.14 110.082,4435.22 0,4451.45 v -28.69 c 62.9023,-8.66 124.977,-24.11 184.32,-44.32 127.211,-43.31 248.375,-110.01 338.496,-211.43 23.36,-26.29 44.379,-54.58 62.489,-84.73 72.035,-124.35 93.797,-280.68 30.168,-413.17 C 553.059,3539.15 422.781,3446.47 306.91,3367.22 213.738,3303.49 111.152,3249.99 0,3231.19 v -34.84 c 78.2422,7.17 155.438,27.67 227.715,62.71 73.363,35.58 141.289,81.25 206.543,129.89 61.797,46.05 123.187,94.17 174.312,152.22 50.332,57.15 89.184,124.19 104.473,199.35 15.223,74.83 8.867,154.08 -13.797,226.76"
         style="fill:#42210b;fill-opacity:1;fill-rule:nonzero;stroke:none"
         id="path44" /><path
         d="M 178.523,3862.97 C 140.492,3921.9 70.1602,3953.94 0,3961.71 v -31.21 c 45.6992,-1.57 88.4336,-21.67 115.055,-64.17 38.984,-62.23 30.136,-151.37 -26.8948,-199.29 C 62.9336,3648.07 31.8359,3637.28 0,3634.73 v -33.13 c 54.6055,-2.7 109.059,9.35 151.676,41.42 63.808,53.61 70.918,151.66 26.847,219.95"
         style="fill:#42210b;fill-opacity:1;fill-rule:nonzero;stroke:none"
         id="path46" /><path
         d="m 5268.65,8000 c 177.69,-252.47 524.66,-381.32 821.98,-289.4 138.22,42.74 260.48,125.22 375.7,212.72 32.18,24.45 64.29,49.84 94.99,76.68 H 5268.65"
         style="fill:#9c2200;fill-opacity:1;fill-rule:nonzero;stroke:none"
         id="path48" /><path
         d="m 6538.53,8000 c -63.48,-56.39 -134.28,-105.68 -201.05,-151.11 -134.43,-91.44 -284.68,-162.87 -450.03,-164.87 -137.42,-1.67 -274.05,38.73 -389.89,112.43 -83.05,52.83 -155.67,122.08 -210.42,203.55 h -50.84 c 37.56,-55.16 82.93,-105.18 134.48,-148.68 114.41,-96.58 256.9,-159.52 404.32,-183.82 157.89,-26.01 315.39,-1.45 458.9,68.83 83.28,40.76 160.42,92.85 234.63,148.15 48.85,36.4 97.39,74.02 142.17,115.52 h -72.27"
         style="fill:#42210b;fill-opacity:1;fill-rule:nonzero;stroke:none"
         id="path50" /><path
         d="m 3255.58,8000 c -5.75,-9.01 -35.25,-44.84 -45.11,-50.24 -33.54,-18.4 -61.52,25.68 -92.73,50.24 h -181.86 c -9.1,-21.97 -16.28,-44.57 -20.07,-68.07 -9.05,-56.11 4.25,-119.08 47.34,-156.13 14.14,-12.16 19,-38.76 37.57,-37.07 13.36,1.21 38.71,25.25 50.43,31.77 24.29,13.52 48.58,27.02 72.87,40.54 31.49,17.51 62.82,7.14 97.32,-3.25 34.12,-10.27 59.63,-17.95 63.85,-53.33 4.21,-35.38 -4.66,-70.82 -11.59,-105.77 -6.92,-34.95 -11.81,-71.94 -0.08,-105.58 22.16,-63.57 93,-114.73 160.02,-108.36 85.84,8.16 168.76,86.03 208.77,162.4 40.02,76.38 23.49,138.9 28.11,225 3.29,61.33 -10.09,122.42 -36.07,177.85 h -378.77"
         style="fill:#ffd490;fill-opacity:1;fill-rule:nonzero;stroke:none"
         id="path52" /><path
         d="m 3152.42,7939.43 c 36.81,-14.75 85.38,-22.43 119.26,3.5 18.32,14.02 27.18,35 30.13,57.07 h -71.08 c -5.8,-19.8 -17.84,-36.22 -39.32,-40.47 -22.87,-4.52 -46.67,23.02 -60.67,37.65 -0.89,0.94 -1.78,1.88 -2.66,2.82 h -59.36 c 24.53,-24.84 50.15,-47.15 83.7,-60.57"
         style="fill:#42210b;fill-opacity:1;fill-rule:nonzero;stroke:none"
         id="path54" /><path
         d="m 3650.07,8000 h -60.71 c 32.9,-59.71 50.26,-127.69 47.3,-196.25 -0.01,-0.18 0.08,-0.36 0.08,-0.55 -0.23,-1 -0.23,-2.11 0.14,-3.36 27.08,-92.26 2.99,-193.23 -59.12,-266.88 -47.31,-56.09 -137.72,-112.73 -213.51,-82.62 -109.33,43.43 -40.8,175.09 -44.47,257.59 -4.18,93.85 -101.61,141.87 -185.05,109.07 -20.37,-8 -39.4,-19.5 -58.48,-30.11 -10.79,-6.01 -21.59,-12.01 -32.38,-18.01 -11.4,-6.34 -28.67,-20.85 -41.74,-21.9 -17.65,-1.42 -33.31,28.29 -39.91,42.56 -9.79,21.15 -14.79,45.01 -15.31,68.28 -1.09,48.56 16.41,95.48 37.76,138.31 0.65,1.31 1.39,2.57 2.05,3.87 h -76.51 c -10.31,-22.17 -19.17,-45.07 -24.7,-68.92 -21.87,-94.4 23.22,-214.33 134.33,-219.01 23.49,-0.98 42.73,7.23 62.88,18.3 27.85,15.31 55.22,31.61 83.41,46.26 12.35,6.41 25.49,12.75 39.02,16.23 13.44,3.46 17.21,2.64 26.39,-8.9 18.19,-22.85 22.36,-53.4 20.37,-81.67 -4.05,-57.49 -30.07,-115.08 -14.52,-173.03 11.12,-41.44 44.38,-72.27 81.74,-91.01 95.38,-47.86 210.25,-31.12 290.56,38.13 87.89,75.78 126.64,200.64 94.54,311.71 2.72,76.04 -17.41,148.76 -54.16,211.91"
         style="fill:#42210b;fill-opacity:1;fill-rule:nonzero;stroke:none"
         id="path56" /><path
         d="m 9054.2,6613.27 c -47.63,68.95 -92.5,142.15 -110.54,223.99 -18.03,81.84 -5.22,174.54 51.42,236.31 44.73,48.77 109.88,72.38 172.34,94.26 104.43,36.58 208.84,73.17 313.25,109.74 82.25,28.82 164.74,57.7 249.83,76.55 84.8,18.78 171.61,27.46 256.33,46.62 99.87,22.58 195.87,59.51 294.17,88.33 112.3,32.94 227.4,55.24 342.4,77.49 86.5,16.76 173.6,33.57 261.7,35.44 98,2.08 195.3,-14.33 291.7,-31.61 86.3,-15.46 177.6,-34.19 241.2,-94.5 75.3,-71.27 93.7,-188.54 66,-288.39 -27.7,-99.86 -94.7,-184.4 -169.9,-255.77 -210.9,-200.42 -492.5,-314.78 -779.2,-364.74 -286.7,-49.96 -580.3,-39.51 -870.44,-17.4 -108.83,8.3 -218.54,18.2 -326.83,4.48 -60.79,-7.7 -121.22,-22.83 -182.43,-19.92 -34.44,1.63 -71.34,10.65 -93.09,37.4 -21.75,26.75 -17.96,74.73 13.84,88.03 l -21.75,-46.31"
         style="fill:#ececec;fill-opacity:1;fill-rule:nonzero;stroke:none"
         id="path58" /><path
         d="m 8360.05,4566.34 c 68.4,-1.74 131.64,31.66 190.99,64.99 372.7,209.27 727.58,450.63 1059.77,720.75 5.08,4.12 10.67,10.56 7.62,16.54 -3.07,5.98 -13.39,-4.02 -6.89,-4.98 153.98,84.54 307.95,169.08 461.96,253.62 128.6,70.59 257.7,141.53 374.4,230.72 127.9,97.7 239,215.92 361.7,320.19 281.9,239.5 631.3,412.76 830.3,727.44 108.5,171.62 157.7,414.57 29.5,577 -132.6,167.93 -379,166.47 -585.5,137.21 -638.9,-90.52 -1253.07,-297.99 -1863.15,-504.48 -78.24,-26.48 -158.95,-54.41 -219.3,-111.16 -60.35,-56.75 -95.04,-150.69 -60.02,-228.21 20.12,-44.54 59.38,-76.96 87.04,-117.2 80.21,-116.7 48.92,-280.16 -26.99,-396.36 -75.89,-116.2 -188.4,-201.2 -282.6,-302.37 -206.86,-222.13 -320.68,-516.21 -429.91,-802.74 -50.68,-132.93 -189.63,-574.34 71.08,-580.96"
         style="fill:#f2a50a;fill-opacity:1;fill-rule:nonzero;stroke:none"
         id="path60" /><path
         d="M 8357.72,5732.63 C 8278.8,5422.16 8113.4,5139.29 8039,4827.46 c -13.23,-55.5 167.68,-162.3 227.62,-112.86 297.02,244.99 619.78,458.64 961.26,636.27 93.49,48.63 211.52,93.42 298.22,33.04 86.21,-60.03 104.34,-203.87 206.11,-229.37 84.12,-21.08 163.61,66.81 167.15,153.59 3.53,86.78 -44.49,166.62 -93.41,238.44 54.57,119.2 249.55,-74.75 360.25,-4.94 82.9,52.27 27.2,178.61 27.5,276.94 0.4,129.74 113.2,226.98 216.1,305.4 260.6,198.69 521.3,397.37 782,596.05 58.7,44.72 122.6,98.88 126.7,172.74 7.5,136.07 -174.6,187.49 -310.6,187.14 -403.6,-1.03 -806.9,-49.82 -1198.84,-145.04 C 9596.95,6883.33 9386.61,6817.61 9194.9,6713.29 8791.94,6494 8471.03,6178.24 8357.72,5732.63"
         style="fill:#fffde0;fill-opacity:1;fill-rule:nonzero;stroke:none"
         id="path62" /><path
         d="m 8326.02,5733.37 c -80.11,-168.71 -150.3,-341.97 -209.72,-519.04 -29.49,-87.89 -56.35,-176.67 -80.46,-266.19 -10.41,-38.67 -28.85,-83.32 -31.23,-123.3 -1.08,-18.26 9.05,-33.82 20.7,-47.1 54.87,-62.5 187.45,-124.62 266.98,-74.84 36.14,22.62 68.45,55.34 102.05,81.74 38.28,30.09 76.97,59.66 116.04,88.72 76.28,56.75 154.02,111.52 233.14,164.24 154.35,102.88 313.89,198 477.83,284.82 66.8,35.38 159.34,92.49 238.37,71.57 67.21,-17.79 99.65,-91.06 132.68,-145.14 30.58,-50.04 67.38,-93.81 127.07,-106.97 63.3,-13.96 128.31,6.52 170.59,55.92 50.05,58.48 52.61,135.28 28.57,205.67 -14.13,41.38 -35.86,79.58 -59.52,116.18 -9.79,15.17 -19.42,22.42 -9.09,38.06 4.94,7.47 12.92,12.06 21.41,13.45 19.2,3.14 47.9,-11.26 65.49,-17.45 25.35,-8.92 50.5,-18.42 76.18,-26.21 48.3,-14.62 103.1,-23.88 152.3,-8.19 139.1,44.31 54.6,217.21 64.8,318.25 16.1,159.96 191.7,262.45 306.6,349.88 162.5,123.63 325,247.27 487.5,370.91 76.5,58.21 155.4,114.26 229.5,175.51 52.3,43.16 106,99.77 100.7,172.87 -9,124.24 -166.8,166.66 -267.8,178.35 -81.9,9.48 -165.9,3.94 -248.1,1.02 -100.8,-3.58 -201.4,-10.13 -301.8,-19.62 -196.2,-18.55 -391.4,-48.14 -584.27,-88.71 -352.98,-74.25 -693.61,-183.38 -992.95,-389.6 -240.16,-165.45 -446.75,-383.8 -564.4,-653.29 -28.99,-66.38 -52.23,-135.09 -70.49,-205.17 -4.06,-15.53 63.79,-23.2 69.41,-1.6 90.72,348.04 320.1,630.89 611.28,835.07 363.41,254.83 795.21,366.17 1228.32,435.45 236.9,37.9 476.8,58.91 716.8,62.62 84.2,1.29 170.6,0.59 247.6,-38.87 72.3,-37.08 111.1,-113.29 70.3,-189.63 -22.2,-41.51 -59.7,-72.69 -96.3,-101.11 -46.7,-36.31 -94.1,-71.69 -141.2,-107.51 -96.3,-73.27 -192.6,-146.54 -288.9,-219.81 -92.3,-70.21 -184.6,-140.43 -276.8,-210.64 -75.8,-57.63 -156.4,-112.76 -220.3,-184.09 -64.9,-72.58 -93.3,-152.17 -80.9,-249.1 8.1,-63.03 43.9,-190.08 -40.6,-218.3 -31,-10.32 -69.7,6.34 -98.7,16.38 -31.83,11.02 -63.27,23.86 -96.03,32.01 -54.15,13.47 -126.46,16.94 -155.57,-40.71 -1.72,-2.42 -1.77,-4.88 -0.18,-7.38 64.59,-95.44 140.63,-231.21 50.36,-335.77 -16.71,-19.35 -45.35,-44.4 -73.24,-40.68 -21.05,2.81 -41.19,22.28 -54.42,37.23 -28.39,32.07 -47.03,71.72 -69.81,107.66 -51.11,80.64 -124.69,120.6 -221.35,113.89 -109.99,-7.63 -209.57,-68.38 -304,-119.95 -227.94,-124.46 -447.11,-264.98 -655.27,-420.26 -52.06,-38.81 -103.42,-78.54 -154.06,-119.18 -17.63,-14.15 -39.57,-41.17 -60.77,-48.3 -13.67,-4.59 -29.09,1.2 -42.32,5.88 -34.58,12.26 -70.83,33.06 -95.62,60.57 -30.7,34.09 -11.76,68.48 -1.31,109.16 73.48,286.27 174.92,564.75 301.67,831.71 9.08,19.11 -58.4,26.55 -66.76,8.92 v 0"
         style="fill:#42210b;fill-opacity:1;fill-rule:nonzero;stroke:none"
         id="path64" /><path
         d="m 8138.99,4714.26 c 23.81,-101.8 153.72,-131.04 242.85,-112.99 67.42,13.66 125.72,51.24 183.01,87.43 65.43,41.32 130.83,82.69 196.25,124.04 263.79,166.71 527.57,333.43 791.36,500.15 21.99,13.9 -41.93,31.31 -57.77,21.29 -225.8,-142.71 -451.6,-285.42 -677.4,-428.13 -111.31,-70.34 -222.26,-141.31 -333.95,-211.04 -49.35,-30.8 -106.21,-68.22 -166.27,-70.36 -53.78,-1.92 -98.85,37.94 -110.71,88.69 -4.24,18.09 -72.43,22.59 -67.37,0.92 v 0"
         style="fill:#42210b;fill-opacity:1;fill-rule:nonzero;stroke:none"
         id="path66" /><path
         d="m 10202.3,5768.04 c 257.1,192.06 514.2,384.12 771.2,576.17 254.5,190.09 513.7,385.1 692.9,647.29 58.8,86 109.5,182.54 113.8,286.62 4.4,104.07 -48.5,216.17 -145.6,253.93 -87.7,34.1 -187.8,1.62 -267.9,-47.65 -46,-28.29 -89.4,-62.96 -118.3,-108.58 -69.9,-110.18 -31.9,-271.31 74.3,-347.11 106.2,-75.81 262.8,-63.98 363.6,18.85 l -1484,-1279.52"
         style="fill:#f2a50a;fill-opacity:1;fill-rule:nonzero;stroke:none"
         id="path68" /><path
         d="m 10228.6,5765.16 c 257.1,192.06 514.2,384.1 771.2,576.18 216,161.37 434.9,325.38 608.4,533.85 82.3,99.01 167,212.9 196,340.79 24.2,106.36 0.8,230.98 -89.5,300.8 -94.6,73.1 -225.4,47.11 -324.6,-1.6 -104.8,-51.41 -203.8,-135.98 -210.1,-260.11 -6.2,-121.39 67.5,-235.28 182.6,-275.56 116.4,-40.74 254.5,-10.27 350,65.17 11.5,9.12 6.5,15.69 -5.3,18.93 -13.7,3.77 -36.5,-4.65 -47.3,-13.17 -85.1,-67.26 -205.1,-74.92 -297.1,-15.32 -82.6,53.56 -128.1,158.95 -114,256.05 16.5,114.26 123.2,197.13 228.8,228.75 116.9,35.02 219.2,-36.56 254.8,-147.42 34.3,-106.66 0.1,-217.4 -52.7,-311.76 -57.1,-102.06 -133.8,-194.44 -214.1,-278.93 -164.5,-173 -358,-314.84 -548.6,-457.23 -247,-184.55 -494,-369.11 -741.1,-553.66 -11.9,-8.89 -6.2,-15.77 5.3,-18.92 14.1,-3.86 36.1,4.83 47.3,13.16 v 0"
         style="fill:#42210b;fill-opacity:1;fill-rule:nonzero;stroke:none"
         id="path70" /><path
         d="m 10489.1,6823.58 c -112.7,-28.01 -216.9,-87.24 -296.6,-172.01 -37.8,-40.21 -76.8,-89.7 -82,-146.75 -4.9,-53.92 21.6,-100.57 70.7,-123.28 54.7,-25.33 118.3,-22.59 174.7,-4.18 64.7,21.16 127.3,52.81 186.7,85.79 53.6,29.73 107.7,63.73 140.6,117.03 29.7,48.2 44,107.68 32.7,163.73 -12.3,61.09 -61.2,98.83 -122.7,101.92 -35.3,1.78 -70.5,-12.77 -104.1,-22.25 -13.2,-3.72 -13.3,-12.57 -2.4,-19.49 12.6,-8.05 34.4,-10.03 48.7,-6 18,5.07 36.2,9.69 54.1,15.24 7.9,2.46 8.8,4 15.8,1.79 9.2,-2.89 18.5,-14.07 23.7,-21.43 14,-19.71 20.1,-44.05 21.5,-67.86 6.3,-106.95 -62.6,-182.36 -149.8,-232.48 -46.6,-26.84 -95,-50.82 -144.5,-72.11 -41.2,-17.75 -99.1,-46.37 -141.2,-16.83 -38.3,26.83 -42.3,80.78 -29.5,121.92 13.8,44.6 46.2,82.54 78.1,115.54 74.1,76.49 168.6,130.56 271.8,156.22 13.5,3.36 13,12.76 2.4,19.5 -13,8.25 -34.1,9.63 -48.7,5.99"
         style="fill:#000000;fill-opacity:1;fill-rule:nonzero;stroke:none"
         id="path72" /><path
         d="m 10512.2,6810.83 c -119.5,-28.8 -229.2,-96.79 -308.2,-190.98 -24.1,-28.74 -45.8,-60.67 -55.2,-97 -9.3,-36.32 -4.6,-77.83 19.5,-106.57 23.9,-28.58 63.5,-40.44 100.7,-38.85 37.3,1.58 73,14.93 107.4,29.44 49.8,21.08 98.5,44.99 145.7,71.57 37.8,21.35 75.3,44.88 104.3,77.29 37.6,41.98 59,98.08 58.9,154.42 0,32.94 -7.9,67.24 -29.5,92.13 -21.6,24.88 -59,37.63 -89,23.93 l -54.6,-15.38"
         style="fill:#9c2200;fill-opacity:1;fill-rule:nonzero;stroke:none"
         id="path74" /><path
         d="m 10489.7,6824.69 c -107.3,-27.1 -206.5,-80.69 -284.9,-159.26 -65.3,-65.46 -148.9,-192.38 -48.7,-267.97 92.6,-69.87 212.6,-21.07 304.2,22.32 102.4,48.5 219.8,106.15 251.3,224.82 14.2,53.52 12.4,121.78 -29,163.39 -36.6,36.88 -96.2,47.14 -144.2,30.23 -15.2,-5.39 2.9,-17.79 9.1,-20.84 13.8,-6.84 33.1,-8.3 47.6,-3.18 30,10.57 49.1,-46.05 52.9,-64.93 5.4,-26.37 3.6,-54.93 -2,-81.12 -11,-51.71 -39.7,-96.31 -80.1,-130.03 -42.6,-35.52 -94.5,-61.19 -144,-85.52 -50.1,-24.6 -111.1,-59.78 -168.1,-60.37 -65.2,-0.68 -83.6,73.31 -70.7,124.71 12.7,50.73 50.3,93.64 86.4,129.82 73.1,73.23 165.1,124.91 265.3,150.22 34.9,8.82 -27.6,32.13 -45.1,27.71 v 0"
         style="fill:#42210b;fill-opacity:1;fill-rule:nonzero;stroke:none"
         id="path76" /><path
         d="m 9810.13,6777.92 c -47.97,-8.27 -87.31,-52.38 -90.05,-100.98 -0.63,-10.99 0.82,-22.97 8.33,-31.02 11.5,-12.31 31.29,-10.18 47.76,-6.62 28.86,6.24 58.24,14.32 81.66,32.31 23.41,17.98 39.7,48.06 33.54,76.93 -6.16,28.88 -40.32,50.8 -66.91,37.99 l -14.33,-8.61"
         style="fill:#434f00;fill-opacity:1;fill-rule:nonzero;stroke:none"
         id="path78" /><path
         d="m 9786.69,6790.15 c -52.17,-11.69 -103.67,-57.68 -101.06,-115.31 2.92,-64.08 87.1,-54.93 130.22,-43.97 50.91,12.93 123,49.59 110.07,114.2 -10.55,52.68 -80.61,69.02 -124.9,53.68 -34.14,-11.81 29.77,-30.38 46.88,-24.45 -9.3,1.11 -8.29,-2.16 3.02,-9.81 4.39,-6.65 6.78,-14.02 7.15,-22.12 1.1,-15.05 -4.48,-29.91 -12.71,-42.21 -17.44,-26.07 -47.23,-37.52 -76.4,-44.84 -20.62,-5.17 -14.89,-6.05 -14.34,18.15 0.33,14.6 5.25,29.75 12.3,42.39 14.47,25.93 37.82,43.37 66.65,49.84 14.4,3.23 11.56,12.96 1.97,19.54 -12.78,8.76 -34.5,8.13 -48.85,4.91 v 0"
         style="fill:#42210b;fill-opacity:1;fill-rule:nonzero;stroke:none"
         id="path80" /><path
         d="m 8815.64,5686.8 c -64.04,-34.82 -123.28,-78.47 -175.49,-129.31 -42.19,-41.08 -82.42,-96.88 -68.22,-154.02 13.46,-54.16 73.65,-86.25 129.44,-85.32 55.8,0.94 107.74,27.25 156.26,54.84 61.29,34.86 123.86,76.02 154.51,139.53 27.33,56.63 22.62,130.37 -20.3,176.33 -42.92,45.96 -124.81,52.79 -168.4,7.46 l -7.8,-9.51"
         style="fill:#9c2200;fill-opacity:1;fill-rule:nonzero;stroke:none"
         id="path82" /><path
         d="m 8795.57,5693.73 c -89.34,-49.51 -195.82,-118.93 -243.84,-212.55 -48.08,-93.72 26.68,-174.08 121.74,-178.9 105.16,-5.34 220.74,61.28 299.18,126.75 72.17,60.24 122.97,163.11 66.25,251.7 -53.85,84.09 -179.15,77.15 -246.22,14.41 -11.93,-11.16 10.45,-14.89 17.04,-15.03 15.72,-0.33 33.11,6.73 44.49,17.37 33.99,31.81 89.71,1.33 113.5,-29.43 27.72,-35.87 33.74,-86.5 22.6,-129.49 -23.9,-92.39 -125.96,-151.64 -207.59,-187.17 -49.74,-21.66 -104.42,-23.96 -147.32,13.45 -36.47,31.81 -39.71,79.55 -19.86,121.68 40.09,85.11 140.88,149.4 220.17,193.35 10.91,6.05 17.56,13.19 6.99,21.62 -9.98,7.94 -38.11,-2.76 -47.13,-7.76 v 0"
         style="fill:#42210b;fill-opacity:1;fill-rule:nonzero;stroke:none"
         id="path84" /><path
         d="m 9000.26,6254.05 c -19.12,-29.9 -38.24,-59.81 -57.36,-89.72 -9.36,-14.63 -19.11,-31.19 -15.82,-48.24 6.43,-33.23 57.11,-36.81 82.44,-14.35 25.32,22.46 34.02,57.64 48.93,88.04 14.9,30.4 44.61,60.17 77.71,53.06 23.13,-4.97 39.47,-26.56 62.11,-33.45 34.63,-10.52 72.43,20.99 75.92,57.02 3.49,36.03 -20.59,70.62 -52.06,88.49 -31.48,17.88 -68.99,21.74 -105.18,21.18 -76.68,-1.17 -153.01,-20.73 -220.82,-56.57 -18.65,-9.86 -37.87,-22.33 -45.39,-42.03 -7.51,-19.71 3.99,-47.26 25.06,-47.97 6.84,-0.23 13.43,2.28 19.81,4.75 23.75,9.22 47.5,18.44 71.25,27.65 l 33.4,-7.86"
         style="fill:#ffc887;fill-opacity:1;fill-rule:nonzero;stroke:none"
         id="path86" /><path
         d="m 8966.66,6256.37 c -17.93,-28.04 -36.01,-55.98 -53.78,-84.11 -11.92,-18.87 -27.47,-42.12 -18,-65.28 14.84,-36.31 69.79,-37.01 101.74,-30.15 56.37,12.11 70.62,58.64 93.05,105.48 5.9,12.33 14.34,31.84 26.66,38.67 13.46,7.45 17.55,-0.24 29.86,-8.19 20.64,-13.3 42.21,-19.84 66.89,-19.1 42.14,1.26 87.17,24.11 94.91,69.3 8.72,50.87 -34.56,93.17 -77.98,110.43 -109.51,43.53 -258.91,8.05 -358.81,-45.1 -33.27,-17.7 -85.68,-63.83 -40.74,-100.43 43.92,-35.77 118.95,8.78 161.33,25.21 14.06,5.46 9.26,14.15 -0.8,19.62 -13.26,7.21 -35.83,3.13 -49.07,-2 -11.87,-4.61 -23.75,-9.22 -35.62,-13.83 -5.94,-2.3 -11.88,-4.6 -17.81,-6.91 -8.4,-1.73 -7.92,-3.44 1.44,-5.12 -16.66,17.93 -0.93,42.77 13.82,54.76 39.28,31.97 100.21,48.14 148.94,56.58 52.36,9.06 121.28,15.35 161.93,-26.55 13.86,-14.29 24.45,-33.69 25.12,-53.91 0.4,-12.2 -2.1,-24.45 -8.9,-34.72 -3.13,-5.75 -7.49,-10.32 -13.07,-13.72 -5.56,-7.84 -8.23,-8.14 -8,-0.9 -14.86,3.42 -29.18,20.59 -44.72,25.73 -16,5.29 -32.84,6.47 -49.55,4.76 -36.2,-3.69 -66.27,-23.67 -85.16,-54.74 -8.69,-14.3 -49.81,-125.66 -68.57,-84.64 -8.69,19.02 19.66,52.21 29.07,66.93 14.35,22.43 28.68,44.87 43.03,67.3 9.84,15.4 -55.99,22.18 -67.21,4.63 v 0"
         style="fill:#42210b;fill-opacity:1;fill-rule:nonzero;stroke:none"
         id="path88" /><path
         d="m 9465.07,5861.16 c -21.95,14.41 -55.24,-3.47 -59.66,-29.36 -4.42,-25.88 15.71,-51.89 40.95,-59.19 25.22,-7.31 53.07,1.34 73.94,17.28 18.04,13.78 32.61,35.58 28.93,57.99 -3.69,22.4 -32.91,39.06 -50.65,24.87 l -33.51,-11.59"
         style="fill:#595700;fill-opacity:1;fill-rule:nonzero;stroke:none"
         id="path90" /><path
         d="m 9484.63,5869.42 c -34.71,17.92 -104.25,19.84 -113.24,-30.7 -9.78,-54.89 59.67,-82.59 102.64,-83.82 45.38,-1.29 116.75,30.21 109.22,86.06 -5.99,44.46 -77.63,65.51 -112.64,44.64 -22.86,-13.62 39.93,-35.24 55.95,-25.68 -16.11,8.84 -21.11,9.26 -15.02,1.26 3.25,-4.22 4.65,-9.13 4.22,-14.75 0.33,-7.73 -2.93,-15.35 -6.4,-21.98 -7.74,-14.75 -23.58,-29.99 -39.89,-34.91 -18.43,-5.58 -30.02,8.48 -30.65,27.6 -0.26,7.85 2.12,15.58 6.76,21.91 7.76,10.58 17.54,4.76 -0.07,13.85 11,-5.68 36.23,-12.45 47.55,-4.58 12.05,8.38 1.27,16.1 -8.43,21.1 v 0"
         style="fill:#42210b;fill-opacity:1;fill-rule:nonzero;stroke:none"
         id="path92" /><path
         d="m 9912.27,6103.48 c 26.65,-6.97 55.01,-11.18 81.61,-4 26.62,7.17 51.02,28 55.32,55.21 4.4,27.21 -17.6,57.68 -45.1,56.3 -18.63,-0.93 -33.76,-14.43 -49.67,-24.11 -15.91,-9.68 -38.6,-15.05 -51.64,-1.75 -15.2,15.49 -4.3,41.97 10.54,57.8 14.84,15.84 34.28,30.95 35.85,52.59 2.57,35.31 -43.7,53.45 -78.7,48.07 -61.48,-9.46 -113.52,-56.84 -136.66,-114.56 -23.15,-57.73 -19.62,-123.94 1.26,-182.52 11.59,-32.51 29.07,-64.04 56.35,-85.18 27.28,-21.13 65.74,-30.07 97.26,-16.04 31.53,14.04 51.01,54.25 36.47,85.55 -10.38,22.36 -33.54,51.8 -12.87,65.23 l -0.02,7.41"
         style="fill:#ffd490;fill-opacity:1;fill-rule:nonzero;stroke:none"
         id="path94" /><path
         d="m 9889.95,6089.3 c 52.84,-12.63 114.75,-13.97 160.35,20.39 34.6,26.09 48.7,78.49 6.8,105.79 -18.1,11.81 -40.4,12.02 -60.99,8.19 -11.26,-2.08 -22.01,-5.35 -32.4,-10.23 -5.43,-2.54 -11.21,-5.72 -16.23,-9.04 -10.89,-7.2 -8.4,-10.86 -15.18,-1.98 -27.19,35.63 88.1,79.65 37.62,132.26 -30.97,32.26 -88.26,27.8 -126.99,16.9 -49.35,-13.87 -92.86,-43.93 -121.82,-86.43 -61.47,-90.25 -49.45,-256.71 47.58,-320.2 44.44,-29.09 110.38,-28.93 155.02,0.19 21.28,13.88 37.81,36.74 40.07,62.48 1.86,21.41 -36.3,71.71 -20.73,87.1 17.62,17.43 -48.19,15.9 -61.52,2.71 -31.17,-30.82 17.1,-65.45 13.45,-100.65 -1.41,-13.46 -8.8,-36.25 -23.15,-41.4 -14.6,-5.25 -37.63,7.93 -48.18,15.76 -20.42,15.15 -35.21,37.64 -45.81,60.35 -42.41,90.96 -36.92,220.38 53.33,280.97 21.64,14.52 46.66,24.3 69.45,6.27 27.97,-22.14 7.65,-46.2 -10.35,-66.55 -20.45,-23.12 -47.92,-63.62 -8.4,-84.63 28.95,-15.4 72.65,-0.8 98.5,14.21 4.56,2.65 27.73,11.58 12.82,13.4 10.71,-1.31 19.01,-19.2 21.11,-28.64 11.4,-50.17 -43.51,-57.52 -79.72,-48.85 -17.39,4.15 -79.69,-19.99 -44.63,-28.37 v 0"
         style="fill:#42210b;fill-opacity:1;fill-rule:nonzero;stroke:none"
         id="path96" /><path
         d="m 11209.3,7202.48 c -153.4,13.22 -307.1,5.54 -458.7,-21.12 -7.4,-1.3 -34.5,-8.72 -31.2,-20.6 3.4,-12.31 28.9,-7.99 36.8,-6.61 140,24.64 282,29.99 423.6,17.78 21.6,-1.86 74.1,26.71 29.5,30.55 v 0"
         style="fill:#42210b;fill-opacity:1;fill-rule:nonzero;stroke:none"
         id="path98" /><path
         d="m 11187.7,7288.5 c -68.4,8.71 -136.1,4.27 -201.8,-17.34 -34.5,-11.36 28.3,-32.43 45.6,-26.73 49.7,16.35 100,23.24 152.1,16.6 8.1,-1.03 34.5,-4.05 36.4,8.56 1.8,12.24 -25.2,18 -32.3,18.91 v 0"
         style="fill:#42210b;fill-opacity:1;fill-rule:nonzero;stroke:none"
         id="path100" /><path
         d="m 10948,7268.89 c -28.6,4.51 -62,1.82 -85.7,-16.42 -11.6,-8.99 2.4,-17.07 11.6,-19.53 13,-3.43 36,-6.18 47.7,2.87 3.7,2.82 8.5,4.53 11.9,7.01 2.1,1.54 0.5,-0.52 -2,0.01 1,0.06 2,0.13 3.1,0.2 -10.3,0.79 -12.4,0.77 -6.3,-0.08 11.4,-1.79 35.5,-3.56 43.1,7.8 7.8,11.51 -17.6,17.23 -23.4,18.14 v 0"
         style="fill:#42210b;fill-opacity:1;fill-rule:nonzero;stroke:none"
         id="path102" /><path
         d="m 8182.97,4874.49 c 9.19,114.49 41.92,223.92 97.51,324.48 9.79,17.72 -57.11,26.19 -66.81,8.64 -56.72,-102.62 -90.75,-214.9 -100.13,-331.82 -1.5,-18.7 67.78,-21.83 69.43,-1.3 v 0"
         style="fill:#42210b;fill-opacity:1;fill-rule:nonzero;stroke:none"
         id="path104" /><path
         d="m 8298.8,5248.49 c 24.03,16.95 41.08,39.08 49.83,67.34 5,16.17 -62.47,29.18 -68.94,8.3 -6.66,-21.53 -20.19,-41.48 -38.74,-54.56 -12,-8.47 0.79,-16.89 10.09,-20.36 12,-4.46 35.99,-9.02 47.76,-0.72 v 0"
         style="fill:#42210b;fill-opacity:1;fill-rule:nonzero;stroke:none"
         id="path106" /><path
         d="m 8190.78,5535.87 c 6.44,52.14 20.57,101.54 42.97,149.09 8.87,18.83 -58.59,24.88 -66.99,7.04 -23.41,-49.69 -38.69,-101.97 -45.41,-156.48 -2.18,-17.63 66.82,-20.83 69.43,0.35 v 0"
         style="fill:#42210b;fill-opacity:1;fill-rule:nonzero;stroke:none"
         id="path108" /><path
         d="m 8073.64,5413.21 c 23.29,96.94 46.58,193.87 69.89,290.82 3.42,14.28 -63.92,17.25 -69.26,-4.99 -23.3,-96.94 -46.59,-193.88 -69.89,-290.82 -3.43,-14.28 63.92,-17.25 69.26,4.99 v 0"
         style="fill:#42210b;fill-opacity:1;fill-rule:nonzero;stroke:none"
         id="path110" /><path
         d="m 10384.3,6640.01 c -21.9,-13.01 -41.2,-30.44 -56.4,-50.95 -6.1,-13.4 6.9,-29.21 21.5,-31.68 14.5,-2.46 28.9,4.01 42.2,10.32 13.8,6.53 27.5,13.05 41.3,19.58 8.1,3.83 16.4,7.88 22,14.88 17.4,21.88 -17.1,58.35 -39.9,42.24 l -30.7,-4.39"
         style="fill:#fffde0;fill-opacity:1;fill-rule:nonzero;stroke:none"
         id="path112" /><path
         d="m 10355.4,6650.6 c -24.8,-15.47 -85.5,-54.13 -53.1,-87.27 35.2,-36.02 92,-18.63 130.6,-0.34 27.1,12.84 79.8,31.02 54.2,69.94 -19.7,29.78 -70.8,38.34 -101,22.06 -13.6,-7.36 2.3,-17.28 10.1,-20.37 13.2,-5.25 34.5,-7.94 47.7,-0.79 -25.1,8.51 -32.7,7.74 -22.6,-2.33 0.8,-1.57 1.6,-3.14 2.4,-4.7 2.1,-6.03 1.8,-11.54 -1.6,-16.93 -7.9,-12.66 -34.7,-19.87 -47,-25.71 -4.2,-1.96 -8.3,-3.92 -12.4,-5.88 -9.6,-2.05 -10.9,-3.83 -4,-5.32 5.7,-3.44 6.4,-1.42 2.2,6.06 1.8,4.64 4.4,8.73 7.8,12.29 11.9,15.44 28.2,27.93 44.6,38.13 12.8,8.01 -1.6,16.99 -10.1,20.36 -12.5,4.95 -35.4,8.52 -47.8,0.8 v 0"
         style="fill:#42210b;fill-opacity:1;fill-rule:nonzero;stroke:none"
         id="path114" /><path
         d="m 8772.23,5553.79 c -30.48,-9.55 -55.22,-35.61 -63.17,-66.55 22.7,-3.24 47.07,-6.22 67.47,4.22 20.4,10.44 32.22,40.16 16.65,56.97 l -20.95,5.36"
         style="fill:#fffde0;fill-opacity:1;fill-rule:nonzero;stroke:none"
         id="path116" /><path
         d="m 8760.67,5565.24 c -39.25,-13.55 -73.3,-39.24 -85.18,-80.59 -2.08,-7.23 5.12,-10.76 11.28,-11.62 39.62,-5.52 84.68,-7.51 119.68,15.68 22.99,15.24 37.74,45.51 18.94,69.57 -12.11,15.49 -77.15,-3.41 -64.42,-19.7 7.86,-10.06 6.04,-23.94 -1.18,-34.04 -2.43,-3.41 -5.82,-5.83 -4.28,-5.28 -6,-2.15 -17.9,1.32 -24.14,2.19 3.76,-3.87 7.52,-7.74 11.28,-11.62 5.88,20.45 19.53,45.06 41.14,52.52 7.54,2.61 28.5,10.02 20.65,21.29 -7.12,10.23 -35.07,4.6 -43.77,1.6 v 0"
         style="fill:#42210b;fill-opacity:1;fill-rule:nonzero;stroke:none"
         id="path118" /><path
         d="m 8198.05,4703.95 c 22.48,-51.45 75.8,-77.28 129.07,-85.45 72.37,-11.1 137.06,18.43 199.12,52.33 112.86,61.65 225.71,123.34 338.39,185.34 134.46,73.99 265.68,151.87 392.78,237.98 116.31,78.78 231.14,159.74 346.33,240.15 13.04,9.1 -46.26,34.03 -63.73,21.83 -156.66,-109.37 -311.94,-221.63 -473.47,-323.81 -128.88,-81.53 -263.85,-153.06 -397.6,-226.15 -61.88,-33.81 -123.73,-67.69 -185.53,-101.63 -62.33,-34.23 -176.49,-103.94 -218.41,-8.01 -8.25,18.89 -74.24,24.1 -66.95,7.42 v 0"
         style="fill:#42210b;fill-opacity:1;fill-rule:nonzero;stroke:none"
         id="path120" /><path
         d="m 9879.97,5531.84 c 19.63,12.58 39.25,25.18 58.87,37.77 10.72,6.88 11.19,15.61 -2.14,19.53 -13.94,4.08 -36.22,2.73 -48.81,-5.35 -19.62,-12.59 -39.24,-25.19 -58.87,-37.78 -10.71,-6.88 -11.19,-15.61 2.14,-19.52 13.94,-4.09 36.22,-2.74 48.81,5.35 v 0"
         style="fill:#42210b;fill-opacity:1;fill-rule:nonzero;stroke:none"
         id="path122" /><path
         d="m 8950.72,6767.33 c 608.25,384.18 1322.08,557.97 2021.58,725.88 141.2,33.9 284.8,68.03 429.8,61.02 60,-2.9 123.9,-12.09 177.1,15.73 -13.1,50.63 -79.1,61.72 -131.4,61.7 -303.8,-0.08 -607.5,-34.96 -903.3,-103.71 -260.1,-60.44 -513.3,-146.75 -764.44,-237.38 -227.6,-82.14 -454.98,-168.46 -665.16,-288.36 -90.67,-51.73 -188.97,-130.78 -179.73,-234.77 l 15.55,-0.11"
         style="fill:#f9c067;fill-opacity:1;fill-rule:nonzero;stroke:none"
         id="path124" /><path
         d="m 11727.2,7482.05 c -113.2,143.82 -282.8,156.98 -453.4,155.4 -245.7,-2.28 -487.8,-27.7 -729.1,-73.98 -249.8,-47.89 -496.5,-111.36 -742.71,-174.54 -230.75,-59.2 -473.46,-119.43 -685.21,-231.79 -86.16,-45.73 -174.35,-110.13 -203.06,-208.15 -35.7,-121.93 35.25,-240.21 98.39,-339.35 10.72,-16.85 77.28,-6.36 66.53,10.53 -56.25,88.34 -119.68,190.43 -102.86,300.04 13.84,90.15 83.56,155.42 157.94,200.88 90.08,55.04 193.37,91.66 292.74,125.96 109.92,37.93 221.83,69.78 334.23,99.45 448.91,118.5 907.61,243.61 1374.01,260.65 97.4,3.56 198.9,9.51 295.7,-4 94.3,-13.14 171.2,-56.61 230.2,-131.63 12.7,-16.15 78,-3.94 66.6,10.53 v 0"
         style="fill:#42210b;fill-opacity:1;fill-rule:nonzero;stroke:none"
         id="path126" /><path
         d="m 8964.38,6899.42 c 89.85,64.02 186.25,116.38 288.89,156.85 13.88,5.48 9.93,13.73 -0.3,19.64 -12.75,7.36 -36.09,4.37 -49.1,-0.77 -106.26,-41.89 -206.63,-96.36 -299.66,-162.64 -20.3,-14.46 44.89,-23.96 60.17,-13.08 v 0"
         style="fill:#42210b;fill-opacity:1;fill-rule:nonzero;stroke:none"
         id="path128" /><path
         d="m 8991.55,6991.36 c 105.1,55.3 212.96,104.93 323.56,148.27 33.83,13.26 -30.1,30.78 -47.06,24.13 -114.41,-44.83 -226.15,-95.63 -334.9,-152.86 -14.05,-7.4 3.46,-17.2 10.64,-20.08 13.48,-5.41 34.51,-6.44 47.76,0.54 v 0"
         style="fill:#42210b;fill-opacity:1;fill-rule:nonzero;stroke:none"
         id="path130" /><path
         d="m 7428.29,3611.66 c 25.91,61.2 49,125.25 49.85,191.71 0.86,66.45 -23.98,136.4 -77.9,175.25 -42.58,30.7 -96.96,38.56 -148.99,45.52 -86.96,11.63 -173.94,23.26 -260.9,34.89 -68.5,9.16 -137.21,18.33 -206.31,19.3 -68.87,0.96 -137.68,-6.25 -206.56,-4.99 -81.19,1.5 -161.68,14.75 -242.62,21.34 -92.54,7.53 -185.52,6.35 -278.36,5.16 -69.91,-0.89 -140.22,-1.83 -208.98,-14.54 -76.39,-14.12 -149.32,-42.5 -221.43,-71.41 -64.53,-25.87 -132.43,-55.1 -172.15,-112.15 -46.96,-67.44 -42.42,-161.47 -4.87,-234.56 37.55,-73.1 103.19,-127.99 173,-171.35 196.03,-121.74 433.12,-165.3 663.75,-158.04 230.64,7.27 457.01,62.56 678.78,126.36 83.19,23.94 166.79,49.25 253.1,56 48.44,3.79 97.81,1.73 144.87,13.83 26.48,6.81 53.69,19.74 66.28,44.01 12.6,24.27 1.94,60.93 -24.89,66.14 l 24.33,-32.47"
         style="fill:#ececec;fill-opacity:1;fill-rule:nonzero;stroke:none"
         id="path132" /><path
         d="m 8296.28,2133.56 c -52.84,-12.33 -107.32,3.44 -158.77,19.78 -323.06,102.64 -637.45,233.05 -938.83,389.44 -4.6,2.4 -9.98,6.5 -8.56,11.62 1.41,5.14 11.03,-0.96 6.14,-2.75 -133.16,40.91 -266.33,81.82 -399.48,122.72 -111.21,34.17 -222.88,68.52 -327.85,119.02 -114.99,55.33 -220.33,129.28 -332.38,190.54 -257.38,140.7 -556.55,219.11 -761.67,431.51 -111.86,115.84 -189.05,296.61 -115.59,443.36 75.95,151.71 267.54,190.17 432.59,200.63 510.75,32.37 1021.04,-30.06 1528,-92.39 65.02,-8 132.19,-16.72 188.17,-51.09 55.98,-34.38 98.02,-101.76 83.29,-167.59 -8.48,-37.82 -33.75,-69.3 -48.76,-104.99 -43.55,-103.53 7.02,-225.44 84.64,-303.48 77.6,-78.04 178.64,-125.98 268.05,-189.4 196.34,-139.28 331.99,-349.37 462.86,-554.34 60.71,-95.09 239.56,-415.55 38.15,-462.59"
         style="fill:#f2a50a;fill-opacity:1;fill-rule:nonzero;stroke:none"
         id="path134" /><path
         d="m 8110.67,3039.67 c 111.2,-228.42 285.09,-421.53 392.97,-651.74 19.2,-40.97 -104.14,-152.98 -158.63,-124.21 -270.03,142.53 -555.01,256.58 -848.75,339.66 -80.41,22.74 -179.28,38.55 -236.9,-22.27 -57.31,-60.47 -48.28,-175.08 -123.21,-211.24 -61.93,-29.89 -137.79,25.6 -154.48,92.42 -16.69,66.83 7.76,136.54 34.22,200.18 -61.53,83.8 -181.77,-98.14 -278.99,-61.73 -72.8,27.28 -49.79,134.35 -65.85,210.66 -21.17,100.68 -124.36,158.09 -216.86,202.46 -234.38,112.4 -468.74,224.81 -703.11,337.21 -52.75,25.31 -111.1,57.1 -126.12,113.8 -27.68,104.48 105.46,173.66 211.11,195.24 313.58,64.05 634.61,90.96 954.32,80 173.01,-5.93 346.91,-23.18 512.56,-73.38 348.17,-105.55 648.14,-299.21 807.72,-627.06"
         style="fill:#fffde0;fill-opacity:1;fill-rule:nonzero;stroke:none"
         id="path136" /><path
         d="m 8135.19,3045.35 c 89.31,-118.15 171.67,-241.42 246.26,-369.39 37.03,-63.52 72.14,-128.16 105.26,-193.8 14.3,-28.35 35.78,-60.07 44.06,-90.72 3.78,-14.02 -1.59,-27.73 -8.5,-39.92 -32.57,-57.35 -125.56,-126.9 -195.31,-101.01 -31.71,11.76 -62.06,31.97 -92.38,47.08 -34.57,17.21 -69.37,33.96 -104.38,50.25 -68.36,31.81 -137.53,61.85 -207.45,90.09 -136.4,55.09 -275.58,103.32 -416.84,144.4 -57.57,16.74 -138.62,46.23 -196.62,17.29 -49.34,-24.62 -62.76,-86.74 -79.73,-134.04 -15.7,-43.77 -37.25,-83.68 -81.48,-103.49 -46.92,-21.02 -100.7,-15.56 -141.46,16.02 -48.27,37.37 -62.6,96.6 -55.24,155.12 4.31,34.42 15.06,67.57 27.55,99.8 5.17,13.35 11.48,20.52 0.94,31 -5.04,5.02 -11.96,7.3 -18.78,7.01 -15.43,-0.64 -35.4,-16.43 -48.06,-24.07 -18.24,-10.99 -36.25,-22.42 -54.98,-32.6 -35.15,-19.12 -76.17,-35.1 -116.94,-30.83 -115.14,12.07 -77.3,159.92 -101.44,236.74 -38.21,121.64 -191.07,173.02 -294.35,222.44 -146.05,69.92 -292.12,139.82 -438.17,209.72 -68.77,32.92 -139.07,63.76 -206.47,99.42 -47.49,25.12 -98.34,60.44 -105.96,118.07 -12.93,97.94 102.74,156.23 179.3,181.53 62.13,20.54 128.22,29.72 192.54,40.67 78.83,13.41 158.05,24.5 237.54,33.26 155.33,17.12 311.71,25.51 467.99,24.99 286.04,-0.95 568.12,-30.96 833.71,-143.01 213.1,-89.9 408.61,-226.28 543.29,-416.65 33.19,-46.89 62.27,-96.52 87.72,-148.01 5.63,-11.4 -45.82,-28.26 -53.66,-12.4 -126.37,255.72 -349.96,438.52 -608.9,550.3 -323.17,139.51 -676.39,156.59 -1023.83,140.8 -190.1,-8.65 -379.81,-30.87 -566.73,-66.56 -65.66,-12.53 -132.61,-26.95 -186.04,-69.97 -50.19,-40.41 -68.15,-105.85 -24.15,-158.56 23.92,-28.67 58.05,-46.86 91.01,-63.06 42.1,-20.69 84.64,-40.55 126.95,-60.8 86.56,-41.42 173.11,-82.85 259.67,-124.28 82.94,-39.69 165.89,-79.39 248.84,-119.1 68.08,-32.58 139.55,-62.43 200.6,-107.57 62.12,-45.93 96.95,-103.17 102.87,-180.45 3.85,-50.24 -3.57,-154.67 66.66,-162.99 25.67,-3.05 53.04,16.11 73.97,28.57 22.96,13.67 45.31,28.69 69.45,40.28 39.89,19.17 95.48,33.49 127.36,-6.61 1.72,-1.61 2.16,-3.5 1.32,-5.7 -34.83,-84.49 -72.07,-202.15 14.83,-268.85 16.1,-12.34 42.36,-27.2 63.43,-19.82 15.89,5.56 28.41,23.92 36.28,37.65 16.89,29.47 25,63.26 36.91,94.83 26.74,70.84 77.45,113.69 153.6,124.01 86.65,11.75 173.74,-19.43 255.36,-44.3 197.01,-60.02 389.8,-133.94 576.41,-221.08 46.65,-21.78 92.93,-44.37 138.78,-67.79 15.98,-8.17 37.36,-25.62 54.96,-27.75 11.36,-1.37 22.41,5.6 31.93,11.37 24.88,15.08 49.69,37.05 64.52,62.39 18.37,31.42 -1.88,55.07 -16.52,84.99 -103.07,210.51 -226.59,410.47 -367.92,597.43 -10.12,13.38 41.09,30 50.42,17.66 v 0"
         style="fill:#42210b;fill-opacity:1;fill-rule:nonzero;stroke:none"
         id="path138" /><path
         d="m 8444.18,2283.96 c -2.13,-82.89 -98.32,-126.47 -170.44,-126.76 -54.55,-0.23 -105.87,19.59 -156.17,38.48 -57.45,21.58 -114.89,43.2 -172.35,64.79 -231.64,87.09 -463.28,174.17 -694.93,261.26 -19.3,7.25 27.54,31.05 41.45,25.82 198.29,-74.54 396.57,-149.09 594.86,-223.63 97.75,-36.75 195.31,-74.04 293.25,-110.24 43.28,-15.99 93.45,-35.92 140.43,-27.93 42.07,7.16 70.68,45.35 71.73,86.67 0.38,14.73 52.62,29.18 52.17,11.54 v 0"
         style="fill:#42210b;fill-opacity:1;fill-rule:nonzero;stroke:none"
         id="path140" /><path
         d="m 6672.5,2770.77 c -230.51,107.84 -461.02,215.69 -691.53,323.54 -228.13,106.73 -460.79,216.51 -642.11,391.33 -59.47,57.35 -114.32,124.17 -134.41,204.3 -20.09,80.13 2.95,175.68 72.27,220.61 62.61,40.56 145.57,31.43 215.71,6.04 40.28,-14.58 79.57,-34.53 109.36,-65.3 71.96,-74.35 68.34,-205.59 -1.95,-281.51 -70.28,-75.94 -193.81,-91.92 -285.41,-43.79 L 6672.5,2770.77"
         style="fill:#f2a50a;fill-opacity:1;fill-rule:nonzero;stroke:none"
         id="path142" /><path
         d="m 6652.55,2764.32 c -230.51,107.84 -461.03,215.66 -691.52,323.52 -193.66,90.62 -390.02,182.81 -558.22,316.85 -79.88,63.64 -163.95,138.48 -207.02,233.14 -35.83,78.72 -37.7,179.26 21.2,247.99 61.68,71.96 167.45,72.8 252.37,50.92 89.61,-23.1 180.1,-72.86 204.96,-168.24 24.31,-93.28 -14.62,-193.56 -97.54,-243.33 -83.89,-50.37 -196.03,-48.89 -282.29,-5.64 -10.42,5.23 -7.61,11.12 1.05,15.54 10.07,5.14 29.1,2.26 38.84,-2.62 76.92,-38.56 171.37,-25.22 233.19,35.84 55.56,54.86 73.98,144.02 47.43,217.18 -31.23,86.06 -127.41,133.28 -214.44,140.88 -96.42,8.41 -164.38,-63.62 -174.24,-155.44 -9.48,-88.34 34.85,-168.85 91.02,-233.65 60.75,-70.08 135.15,-129.5 211.11,-182.21 155.51,-107.92 328.6,-186.97 499.49,-266.93 221.5,-103.63 443.01,-207.26 664.51,-310.88 10.67,-4.99 7.38,-11.24 -1.05,-15.55 -10.31,-5.25 -28.85,-2.05 -38.85,2.63 v 0"
         style="fill:#42210b;fill-opacity:1;fill-rule:nonzero;stroke:none"
         id="path144" /><path
         d="m 6270.21,3519.37 c 73.37,-3.07 144.6,-26.55 206.37,-66.12 53.6,-34.34 142.61,-114.41 81.56,-182.29 -27.51,-30.62 -68.6,-30.73 -106.17,-24.08 -39.87,7.07 -79.57,17.18 -118.22,29.18 -72.73,22.58 -136.91,58.64 -158.2,136.93 -9.39,34.49 -9.09,93.57 32.56,108.43 15.88,5.66 38.37,-0.38 54.78,-1.55 6.47,-0.46 27.43,-2.59 28.68,7.57 1.18,9.63 -20.32,13.9 -25.98,14.3 -23.57,1.66 -49.26,6.43 -72.77,4.48 -41.32,-3.43 -71.4,-34.28 -76.36,-74.98 -11.93,-97.79 71.27,-169.48 154.05,-199.6 50.38,-18.33 103.03,-32.05 155.6,-42.36 45.35,-8.89 94.3,-15.92 138.88,0.34 40.29,14.7 69.81,48.69 66.03,93.49 -4,47.15 -36.99,83.38 -72.44,111.52 -85.44,67.81 -191.97,103.08 -300.31,107.61 -7.46,0.31 -22.51,-0.84 -20.74,-11.1 1.66,-9.61 26.43,-11.51 32.68,-11.77"
         style="fill:#000000;fill-opacity:1;fill-rule:nonzero;stroke:none"
         id="path146" /><path
         d="m 6264.24,3530.8 c 97.44,-3.16 193.58,-38.33 270.07,-98.79 23.34,-18.45 45.32,-39.75 58.41,-66.46 13.1,-26.71 16.14,-59.69 2.04,-85.88 -14.02,-26.06 -42.82,-41.62 -72.02,-46.37 -29.19,-4.76 -59.05,-0.13 -88.06,5.63 -42.11,8.35 -83.75,19.09 -124.66,32.15 -32.84,10.5 -65.72,22.76 -93.45,43.27 -35.92,26.56 -61.54,66.69 -70.54,110.45 -5.27,25.59 -4.66,53.49 8.1,76.28 12.77,22.81 39.81,38.71 65.27,32.89 l 44.84,-3.17"
         style="fill:#9c2200;fill-opacity:1;fill-rule:nonzero;stroke:none"
         id="path148" /><path
         d="m 6279.5,3545.19 c 87.67,-3.81 173.31,-29.5 246.84,-77.9 61.28,-40.35 146.53,-125.49 80.92,-200.28 -60.67,-69.14 -161.72,-50.53 -239.83,-31.55 -87.32,21.21 -187.74,47.12 -231.31,134.21 -19.65,39.28 -29.23,92.58 -3.77,131.54 22.57,34.53 67.14,52.07 107.14,46.65 12.75,-1.73 0.63,-14.28 -3.67,-17.65 -9.63,-7.51 -24.38,-11.76 -36.5,-10.11 -24.98,3.39 -30.66,-43.64 -30.63,-58.92 0.04,-21.36 6.05,-43.24 14.59,-62.68 16.88,-38.39 46.31,-68.42 83.13,-88.11 38.77,-20.74 83.2,-32.33 125.57,-43.27 42.84,-11.06 95.84,-28.58 140.21,-19.88 50.77,9.96 53.18,70.37 34.92,108.22 -18.02,37.35 -54.17,64.62 -88.03,86.92 -68.53,45.13 -148.22,70.49 -230.11,74.05 -28.52,1.24 16.24,29.37 30.53,28.76 v 0"
         style="fill:#42210b;fill-opacity:1;fill-rule:nonzero;stroke:none"
         id="path150" /><path
         d="m 6814.79,3618.07 c 38.58,1.28 76.22,-26.65 86.16,-63.96 2.24,-8.44 3.05,-17.97 -1.5,-25.43 -6.95,-11.41 -22.65,-12.94 -36.02,-12.82 -23.41,0.21 -47.53,1.77 -68.61,11.97 -21.07,10.21 -38.55,30.95 -38.4,54.37 0.13,23.41 23.14,45.92 45.86,40.24 l 12.51,-4.37"
         style="fill:#434f00;fill-opacity:1;fill-rule:nonzero;stroke:none"
         id="path152" /><path
         d="m 6831.03,3631.33 c 42.38,-0.71 89.77,-28.14 97,-73.31 8.02,-50.24 -58.81,-56.66 -94.07,-55.08 -41.61,1.86 -103.48,18.75 -103.81,71.01 -0.28,42.6 51.5,66.55 88.37,61.75 28.4,-3.69 -18.25,-28.38 -32.48,-26.52 7.04,2.35 6.78,-0.34 -0.78,-8.11 -2.34,-5.86 -3,-11.97 -1.99,-18.33 1.55,-11.85 8.28,-22.5 16.65,-30.73 17.74,-17.44 42.72,-21.55 66.54,-22.55 16.84,-0.7 12.53,-2.3 8.22,16.4 -2.61,11.29 -8.87,22.26 -16.37,30.95 -15.4,17.81 -36.34,27.6 -59.77,27.99 -11.69,0.19 -11.05,8.21 -4.66,14.86 8.5,8.86 25.49,11.86 37.15,11.67 v 0"
         style="fill:#42210b;fill-opacity:1;fill-rule:nonzero;stroke:none"
         id="path154" /><path
         d="m 7762.42,2930.5 c 55.33,-16.75 108.35,-41.13 157.07,-72.23 39.37,-25.12 79.57,-61.98 77.73,-108.64 -1.75,-44.22 -43.33,-78.82 -86.82,-87.05 -43.48,-8.24 -88.05,3.85 -130.16,17.47 -53.2,17.23 -108.4,39.14 -142.41,83.53 -30.32,39.59 -38.51,97.61 -12.57,140.2 25.95,42.59 88.45,61.05 129.58,32.85 l 7.58,-6.13"
         style="fill:#9c2200;fill-opacity:1;fill-rule:nonzero;stroke:none"
         id="path156" /><path
         d="m 7776.9,2939.11 c 77.34,-24.1 171.19,-60.9 223.52,-125.89 52.4,-65.06 7.25,-139.47 -65.79,-158.49 -80.81,-21.04 -181.28,12.13 -252.72,50.37 -65.73,35.17 -121.7,106.9 -91.88,184.81 28.3,73.96 126.73,88.7 188.89,50.75 11.05,-6.74 -5.73,-13.24 -10.81,-14.4 -12.16,-2.78 -26.81,-0.1 -37.35,6.34 -31.51,19.24 -69.89,-13.38 -83.42,-41.1 -15.77,-32.3 -12.29,-72.59 3.26,-104.2 33.4,-67.9 122.18,-97.51 191.28,-111.99 42.11,-8.83 84.96,-1.82 112.26,34.12 23.21,30.56 18.05,68.17 -4.14,97.69 -44.81,59.65 -133.4,93.39 -202.05,114.77 -9.44,2.94 -15.75,7.43 -8.9,15.67 6.47,7.77 30.04,3.98 37.85,1.55 v 0"
         style="fill:#42210b;fill-opacity:1;fill-rule:nonzero;stroke:none"
         id="path158" /><path
         d="m 7527.9,3341.36 c 19.66,-20.15 39.32,-40.31 58.97,-60.46 9.61,-9.86 19.85,-21.15 20.03,-34.91 0.35,-26.85 -38.43,-37.78 -61.71,-24.4 -23.29,13.37 -35.69,39.3 -52.14,60.51 -16.47,21.21 -44.32,39.55 -68.88,28.71 -17.17,-7.57 -26.4,-26.96 -42.86,-35.95 -25.21,-13.74 -59.63,4.66 -68.13,32.08 -8.49,27.42 4.64,58.15 26.21,77.09 21.58,18.94 50.08,27.96 78.28,33.35 59.74,11.41 122.16,8.49 180.58,-8.45 16.07,-4.66 33,-11.25 42,-25.36 9.01,-14.09 4.51,-37.33 -11.75,-41.28 -5.27,-1.26 -10.79,-0.38 -16.15,0.52 -19.92,3.34 -39.84,6.68 -59.77,10.02 l -24.68,-11.47"
         style="fill:#ffc887;fill-opacity:1;fill-rule:nonzero;stroke:none"
         id="path160" /><path
         d="m 7553.62,3348.56 c 18.43,-18.89 36.96,-37.69 55.29,-56.69 12.28,-12.73 28.09,-28.29 24.46,-47.8 -5.68,-30.57 -48.24,-39.95 -74.17,-39.75 -45.71,0.34 -64.26,34.2 -89.2,66.97 -6.56,8.62 -16.26,22.41 -26.92,25.73 -11.65,3.63 -13.59,-3.01 -21.88,-11.15 -13.88,-13.65 -29.59,-22.19 -48.87,-25.59 -32.94,-5.79 -71.58,4.72 -84.85,38.57 -14.94,38.1 11.88,77.91 42.82,98.29 78.05,51.4 199.77,47.85 285.9,22.64 28.68,-8.41 76.8,-35.81 47.77,-71.45 -28.35,-34.83 -93.78,-12.3 -129.33,-6.35 -11.81,1.98 -9.47,9.5 -2.53,15.37 9.13,7.73 27.32,8.19 38.42,6.32 9.96,-1.67 19.92,-3.34 29.88,-5.01 4.99,-0.83 9.97,-1.67 14.95,-2.5 6.8,0 6.7,-1.39 -0.3,-4.21 10.06,16.6 -6.15,33.36 -19.53,40.31 -35.64,18.51 -85.55,21.28 -124.76,20.01 -42.12,-1.38 -96.66,-7.58 -121.48,-46.64 -8.47,-13.33 -13.58,-30.1 -10.85,-45.91 1.65,-9.53 5.56,-18.65 12.49,-25.53 3.36,-3.97 7.47,-6.82 12.35,-8.56 5.59,-5.19 7.71,-5 6.36,0.59 10.99,5.05 19.35,20.67 30.59,27.17 11.58,6.68 24.47,10.3 37.73,11.66 28.7,2.95 55.26,-7.74 74.92,-28.83 9.05,-9.71 58.88,-89.59 66.85,-54.71 3.7,16.17 -23.65,37.39 -33.32,47.31 -14.75,15.12 -29.49,30.22 -44.23,45.34 -10.13,10.39 39.91,26.23 51.44,14.4 v 0"
         style="fill:#42210b;fill-opacity:1;fill-rule:nonzero;stroke:none"
         id="path162" /><path
         d="m 7230.07,2961.55 c 14.73,14.72 43.46,6.18 51.04,-13.21 7.6,-19.39 -3.86,-42.82 -22.28,-52.55 -18.42,-9.73 -41.44,-7.49 -60.21,1.54 -16.22,7.81 -31.04,22.4 -31.77,40.38 -0.75,17.99 19.27,35.63 35.33,27.47 l 27.89,-3.63"
         style="fill:#595700;fill-opacity:1;fill-rule:nonzero;stroke:none"
         id="path164" /><path
         d="m 7213.54,2964.82 c 24.09,19.5 77.78,32.16 92.89,-5.64 16.4,-41.06 -33.08,-73.72 -66.25,-81.58 -35.03,-8.3 -95.52,4.69 -98.65,49.27 -2.49,35.5 49.77,63.35 80.32,52.77 19.92,-6.91 -25.36,-33.78 -39.34,-28.94 11.09,9.47 14.91,10.6 11.46,3.4 -1.84,-3.8 -2.14,-7.84 -0.9,-12.13 0.97,-6.06 4.73,-11.45 8.5,-16.04 8.38,-10.21 23.13,-19.49 36.58,-20.71 15.22,-1.36 21.96,11.41 19.37,26.36 -1.06,6.14 -4.15,11.77 -8.77,15.94 -7.72,6.96 -14.38,0.87 -2.17,10.76 -7.63,-6.18 -26.13,-15.49 -36.18,-11.19 -10.71,4.57 -3.57,12.29 3.14,17.73 v 0"
         style="fill:#42210b;fill-opacity:1;fill-rule:nonzero;stroke:none"
         id="path166" /><path
         d="m 6843.84,3077.88 c -19.58,-9.7 -40.93,-17.52 -62.74,-16.22 -21.81,1.3 -44.1,13.55 -51.84,33.98 -7.75,20.43 4.41,47.63 26,50.98 14.6,2.27 28.52,-5.78 42.44,-10.75 13.9,-4.96 32.38,-5.48 40.38,6.94 9.31,14.48 -3.41,33.29 -17.47,43.21 -14.08,9.91 -31.6,18.51 -36.3,35.06 -7.67,27.02 25.36,48.54 53.4,49.98 49.25,2.53 97.29,-25.89 124.54,-67.01 27.24,-41.11 35.15,-93.09 28.35,-141.94 -3.78,-27.11 -12.29,-54.4 -30.08,-75.21 -17.79,-20.8 -46.21,-33.91 -72.96,-28.08 -26.74,5.84 -48.32,33.93 -42.06,60.58 4.47,19.03 17.72,45.62 -0.49,52.73 l -1.17,5.75"
         style="fill:#ffd490;fill-opacity:1;fill-rule:nonzero;stroke:none"
         id="path168" /><path
         d="m 6863.45,3070.46 c -39.02,-18.31 -86.87,-29.29 -127.8,-9.93 -31.07,14.69 -50.44,53.12 -22.32,81.05 12.18,12.09 29.45,15.82 46.07,16.17 9.09,0.19 17.96,-0.62 26.82,-2.74 4.62,-1.1 9.62,-2.64 14.05,-4.41 9.62,-3.85 8.27,-7.09 12.11,0.89 15.39,32.05 -81.25,47.7 -50.47,96.67 18.87,30.03 64.08,35.78 95.91,33.54 40.55,-2.84 79.17,-19.2 108.49,-47.56 62.24,-60.2 79.66,-191.41 14.5,-256.31 -29.83,-29.72 -81.07,-40.2 -120.42,-24.75 -18.76,7.36 -35.27,22.46 -41.15,42.08 -4.89,16.33 16.67,61.52 2.11,70.97 -16.5,10.71 34.85,20.09 47.33,11.99 29.16,-18.92 -2.76,-53.58 5.73,-80.32 3.25,-10.23 12.65,-26.74 24.63,-28.43 12.18,-1.73 27.95,12.2 34.89,19.98 13.41,15.04 21.29,34.89 25.86,54.22 18.34,77.46 -6.73,177.08 -86.56,209.63 -19.13,7.81 -40.13,11.38 -54.93,-6.29 -18.17,-21.69 1.48,-37.11 18.72,-50.02 19.6,-14.66 47.44,-41.69 20.13,-64.37 -20.01,-16.61 -56.3,-12.3 -78.78,-4.8 -3.97,1.33 -23.42,4.55 -12.11,8.35 -8.12,-2.73 -11.66,-17.95 -11.81,-25.63 -0.75,-40.79 43.05,-37.67 69.78,-25.13 12.84,6.03 65.1,-2.71 39.22,-14.85 v 0"
         style="fill:#42210b;fill-opacity:1;fill-rule:nonzero;stroke:none"
         id="path170" /><path
         d="m 5659.98,3722.95 c 117.02,34.92 237.61,53.64 359.63,57.3 5.94,0.18 28.19,-1.23 27.55,-10.98 -0.68,-10.11 -21.2,-10.86 -27.52,-11.05 -112.74,-3.38 -223.81,-22.02 -331.84,-54.26 -16.48,-4.92 -61.82,8.84 -27.82,18.99 v 0"
         style="fill:#42210b;fill-opacity:1;fill-rule:nonzero;stroke:none"
         id="path172" /><path
         d="m 5662.91,3793.2 c 51.72,17.77 105.04,25.21 159.53,18.98 28.63,-3.28 -16.79,-29.74 -31.14,-28.1 -41.22,4.72 -81.36,1.99 -120.77,-11.54 -6.12,-2.1 -26.15,-8.68 -29.65,0.81 -3.39,9.2 16.64,18.01 22.03,19.85 v 0"
         style="fill:#42210b;fill-opacity:1;fill-rule:nonzero;stroke:none"
         id="path174" /><path
         d="m 5852.25,3816.51 c 21.49,8.1 47.79,11.37 69.14,1.01 10.51,-5.11 0.92,-13.63 -5.87,-17.03 -9.48,-4.75 -26.9,-10.58 -37.49,-5.43 -3.29,1.59 -7.31,2.16 -10.33,3.53 -1.87,0.86 -0.3,-0.47 1.53,0.33 -0.8,-0.11 -1.6,-0.23 -2.41,-0.35 7.82,2.27 9.43,2.58 4.84,0.95 -8.57,-3.22 -26.97,-8.47 -34.72,-0.87 -7.85,7.7 10.95,16.22 15.31,17.86 v 0"
         style="fill:#42210b;fill-opacity:1;fill-rule:nonzero;stroke:none"
         id="path176" /><path
         d="m 8384.28,2401.32 c -25.53,87.45 -68.54,167.17 -127.86,236.33 -10.45,12.18 40.13,29.52 50.48,17.45 60.55,-70.59 105.01,-152.32 131.09,-241.6 4.17,-14.28 -49.13,-27.86 -53.71,-12.18 v 0"
         style="fill:#42210b;fill-opacity:1;fill-rule:nonzero;stroke:none"
         id="path178" /><path
         d="m 8234.23,2673.15 c -21.39,9.31 -38.18,23.75 -49.52,44.3 -6.48,11.75 43.83,32.71 52.2,17.52 8.65,-15.64 22.35,-28.96 38.86,-36.15 10.69,-4.64 2.1,-13.24 -4.57,-17.42 -8.59,-5.39 -26.49,-12.8 -36.97,-8.25 v 0"
         style="fill:#42210b;fill-opacity:1;fill-rule:nonzero;stroke:none"
         id="path180" /><path
         d="m 8271.94,2913.7 c -13.38,39.45 -32.28,75.55 -57.32,108.88 -9.92,13.19 41.49,28.73 50.9,16.23 26.16,-34.83 46.41,-72.97 60.4,-114.23 4.52,-13.34 -48.55,-26.91 -53.98,-10.88 v 0"
         style="fill:#42210b;fill-opacity:1;fill-rule:nonzero;stroke:none"
         id="path182" /><path
         d="m 8382.62,2837.26 c -33.66,71.54 -67.34,143.08 -101,214.61 -4.96,10.55 46.87,23.68 54.59,7.27 33.66,-71.54 67.33,-143.09 101,-214.62 4.96,-10.55 -46.86,-23.67 -54.59,-7.26 v 0"
         style="fill:#42210b;fill-opacity:1;fill-rule:nonzero;stroke:none"
         id="path184" /><path
         d="m 6391.01,3418.69 c 19.13,-6.57 36.92,-17.01 51.99,-30.51 6.92,-9.41 -0.66,-23.79 -11.54,-28.03 -10.88,-4.25 -23.1,-1.54 -34.45,1.23 -11.75,2.85 -23.48,5.7 -35.23,8.56 -6.89,1.67 -14.04,3.48 -19.49,8.02 -17.01,14.2 3.88,48.06 24.2,39.22 l 24.52,1.51"
         style="fill:#fffde0;fill-opacity:1;fill-rule:nonzero;stroke:none"
         id="path186" /><path
         d="m 6411.76,3431.56 c 21.74,-8.02 75.1,-28.3 55.29,-59.24 -21.52,-33.62 -68.45,-29.24 -101.36,-21.24 -23.09,5.62 -66.98,11.26 -53.32,45.61 10.46,26.28 48.83,41.15 74.88,33.35 11.76,-3.53 0.98,-13.79 -4.55,-17.43 -9.43,-6.21 -25.54,-11.71 -36.96,-8.29 18.18,10.66 24.17,11.27 17.96,1.83 -0.37,-1.35 -0.74,-2.69 -1.11,-4.04 -0.71,-5.03 0.45,-9.25 3.93,-12.89 8.17,-8.57 30.16,-9.85 40.68,-12.41 3.52,-0.86 7.04,-1.72 10.56,-2.57 7.74,-0.06 9.05,-1.23 3.92,-3.51 -3.82,-3.57 -4.7,-2.12 -2.67,4.37 -2.14,3.31 -4.82,6.07 -8.01,8.29 -11.7,10.08 -26.41,17.16 -40.75,22.44 -11.26,4.16 -1.51,13.45 4.55,17.44 8.88,5.84 26.1,12.3 36.96,8.29 v 0"
         style="fill:#42210b;fill-opacity:1;fill-rule:nonzero;stroke:none"
         id="path188" /><path
         d="m 7817.51,2834.19 c 25.2,-2.53 48.6,-18.79 59.75,-41.54 -17.1,-6.17 -35.56,-12.4 -53.08,-7.56 -17.52,4.82 -31.47,26 -22.08,41.56 l 15.41,7.54"
         style="fill:#fffde0;fill-opacity:1;fill-rule:nonzero;stroke:none"
         id="path190" /><path
         d="m 7824.65,2844.93 c 32.65,-4.22 63.22,-18.7 79.1,-48.89 2.78,-5.29 -2.25,-9.18 -6.89,-10.84 -29.89,-10.66 -64.56,-19.44 -95.46,-7.06 -20.31,8.14 -36.62,29.28 -25.89,50.99 6.91,13.98 60.46,9.74 53.19,-4.95 -4.49,-9.07 -0.84,-19.56 6.38,-26.25 2.44,-2.26 5.46,-3.59 4.18,-3.41 5,-0.7 13.69,3.91 18.4,5.59 -2.3,-3.62 -4.6,-7.23 -6.9,-10.84 -7.85,14.93 -22.41,31.85 -40.39,34.17 -6.27,0.81 -23.74,3.21 -19.45,13.22 3.87,9.08 26.49,9.2 33.73,8.27 v 0"
         style="fill:#42210b;fill-opacity:1;fill-rule:nonzero;stroke:none"
         id="path192" /><path
         d="m 8399.97,2266.46 c -9.19,-43.56 -46.43,-72.19 -86.49,-87.09 -54.43,-20.26 -109.42,-7.72 -163.05,8.64 -97.56,29.74 -195.12,59.51 -292.58,89.56 -116.31,35.85 -230.73,75.25 -343.27,121.69 -102.98,42.5 -205.18,86.92 -307.55,130.86 -11.59,4.97 30.46,33.85 45.99,27.18 139.24,-59.75 277.87,-121.99 419.72,-175.38 113.2,-42.6 229.51,-76.47 345.12,-111.73 53.49,-16.32 106.96,-32.69 160.41,-49.13 53.91,-16.56 153.76,-52.35 170.9,28.88 3.38,16 53.79,30.65 50.8,16.52 v 0"
         style="fill:#42210b;fill-opacity:1;fill-rule:nonzero;stroke:none"
         id="path194" /><path
         d="m 6960.77,2639.13 c -17.26,6.63 -34.52,13.25 -51.79,19.88 -9.42,3.62 -11.2,10.33 -1.47,15.5 10.17,5.42 27.7,7.95 38.76,3.69 17.27,-6.62 34.53,-13.25 51.79,-19.87 9.43,-3.62 11.2,-10.32 1.47,-15.51 -10.15,-5.41 -27.68,-7.94 -38.76,-3.69 v 0"
         style="fill:#42210b;fill-opacity:1;fill-rule:nonzero;stroke:none"
         id="path196" /><path
         d="m 7483.9,3747.93 c -534.1,200.61 -1116.36,220.89 -1686.61,238.88 -115.11,3.62 -232.07,7.07 -343.59,-21.68 -46.11,-11.9 -94.22,-29.29 -140.01,-16.23 2.04,41.42 51.52,60.63 92.14,69.02 235.89,48.75 477.36,70.47 718.16,64.61 211.65,-5.15 422.2,-31.49 631.77,-61.52 189.95,-27.22 380.4,-57.71 562.89,-117.05 78.73,-25.61 167.78,-71.21 177.32,-153.45 l -12.07,-2.58"
         style="fill:#f9c067;fill-opacity:1;fill-rule:nonzero;stroke:none"
         id="path198" /><path
         d="m 5212.88,3856.85 c 64.77,129.87 194.35,167.33 327.09,193.52 191.19,37.71 383.26,56.87 578.13,59.71 201.67,2.94 403.43,-6.71 604.82,-16.2 188.72,-8.9 386.88,-16.67 569.38,-69.91 74.26,-21.67 153.09,-57.51 191.14,-129.02 47.32,-88.95 11.22,-192.21 -21.88,-279.34 -5.62,-14.82 -58.99,-17.37 -53.36,-2.51 29.5,77.63 62.35,167.11 31.67,249.53 -25.23,67.78 -89.86,107.27 -154.93,130.62 -78.8,28.27 -164.9,40.11 -247.59,50.78 -91.45,11.8 -183.48,18.55 -275.53,23.53 -367.66,19.9 -744.01,43.34 -1108.92,-18.36 -76.22,-12.89 -156,-24.58 -229.05,-50.63 -71.1,-25.36 -123.82,-71.47 -157.6,-139.21 -7.28,-14.58 -59.89,-15.58 -53.37,-2.51 v 0"
         style="fill:#42210b;fill-opacity:1;fill-rule:nonzero;stroke:none"
         id="path200" /><path
         d="m 7452.07,3848.32 c -80.07,35.27 -163.35,60.45 -249.56,75.39 -11.65,2.01 -9.92,9.06 -2.92,15.29 8.71,7.77 27.31,9.19 38.25,7.3 89.26,-15.46 175.96,-41.63 258.86,-78.16 18.08,-7.96 -31.02,-25.83 -44.63,-19.82 v 0"
         style="fill:#42210b;fill-opacity:1;fill-rule:nonzero;stroke:none"
         id="path202" /><path
         d="m 7416.19,3915.35 c -90.51,26.06 -182.24,47.27 -275.1,63.16 -28.39,4.86 18.43,28.73 32.67,26.29 96.05,-16.43 190.99,-37.93 284.64,-64.9 12.11,-3.47 0.08,-13.9 -5.03,-17.29 -9.6,-6.38 -25.77,-10.55 -37.18,-7.26 v 0"
         style="fill:#42210b;fill-opacity:1;fill-rule:nonzero;stroke:none"
         id="path204" /><path
         d="m 9548.79,1791.83 c -29.67,40.7 -57.75,83.99 -69.83,132.88 -12.08,48.89 -5.81,104.78 27.28,142.75 26.13,29.99 64.91,45.16 102.1,59.26 62.17,23.57 124.35,47.15 186.51,70.71 48.98,18.57 98.09,37.18 148.92,49.81 50.65,12.57 102.63,19.11 153.33,31.91 59.6,15.1 116.7,38.75 175.3,57.56 67,21.51 135.8,36.66 204.5,51.79 51.8,11.38 103.8,22.82 156.7,25.29 58.8,2.74 117.6,-5.64 175.7,-14.54 52.1,-7.97 107.3,-17.83 146.4,-53.09 46.3,-41.67 59.1,-111.83 44,-172.24 -15.1,-60.41 -54.1,-112.23 -98.1,-156.25 -123.7,-123.63 -291.1,-196.63 -462.6,-231.03 -171.4,-34.38 -348,-32.6 -522.62,-23.74 -65.51,3.32 -131.57,7.6 -196.41,-2.3 -36.41,-5.55 -72.48,-15.57 -109.3,-14.76 -20.71,0.46 -43.02,5.31 -56.49,21.05 -13.48,15.74 -11.93,44.62 6.97,53.1 l -12.36,-28.16"
         style="fill:#ececec;fill-opacity:1;fill-rule:nonzero;stroke:none"
         id="path206" /><path
         d="m 9163.03,551.52 c 41.12,0 78.6,21.031 113.75,41.96 220.7,131.411 430.22,281.829 625.66,449.18 2.98,2.55 6.25,6.51 4.32,10.05 -1.93,3.55 -7.98,-2.61 -4.05,-3.09 91.21,53.14 182.39,106.28 273.59,159.41 76.2,44.38 152.7,88.97 221.4,144.33 75.4,60.64 140.4,133.37 212.5,197.88 165.6,148.19 372.9,257.62 487.7,449.7 62.5,104.75 88.3,251.46 8.8,347.09 -82.1,98.86 -230.1,94.22 -353.8,73.49 -382.4,-64.14 -748.2,-198.16 -1111.57,-331.53 -46.6,-17.1 -94.66,-35.11 -130.05,-70.13 -35.39,-35.01 -54.8,-91.98 -32.57,-138.01 12.76,-26.46 36.85,-45.33 54.07,-69.09 49.97,-68.88 33.68,-167.55 -10.14,-238.52 -43.83,-70.97 -110.12,-123.75 -165.17,-185.97 -120.88,-136.61 -184.76,-315.02 -246.01,-488.821 -28.41,-80.629 -105.15,-347.937 51.57,-347.929"
         style="fill:#f2a50a;fill-opacity:1;fill-rule:nonzero;stroke:none"
         id="path208" /><path
         d="m 9143.83,1252.15 c -42.68,-187.73 -137.73,-360.189 -177.66,-548.658 -7.1,-33.551 103.21,-94.953 138.47,-64.332 174.7,151.719 365.33,285 567.77,396.93 55.41,30.64 125.65,59.35 178.65,24.4 52.71,-34.75 65.8,-120.881 127.33,-134.65 50.81,-11.379 97.31,42.64 98.11,94.82 0.8,52.19 -29.3,99.43 -59.8,141.83 31,72.44 151,-41.1 216.5,2.53 49,32.67 13.6,107.71 12.3,166.8 -1.7,77.94 64.5,138.08 125.1,186.76 153.6,123.34 307.2,246.68 460.7,370.03 34.6,27.76 72.2,61.27 73.5,105.71 2.4,81.86 -107.7,109.97 -189.4,107.68 -242.5,-6.78 -484,-42.24 -718.03,-105.44 -126.64,-34.2 -252,-76.89 -365.58,-142.49 -238.73,-137.89 -426.71,-332.49 -487.96,-601.92"
         style="fill:#fffde0;fill-opacity:1;fill-rule:nonzero;stroke:none"
         id="path210" /><path
         d="m 9124.77,1252.11 c -45.56,-102.58 -85.07,-207.74 -118.07,-315.028 -16.38,-53.25 -31.15,-106.992 -44.27,-161.141 -5.66,-23.39 -16.05,-50.5 -16.88,-74.539 -0.37,-11.004 5.95,-20.191 13.16,-27.992 33.92,-36.711 114.51,-72 161.52,-40.89 21.37,14.152 40.29,34.3 60.06,50.671 22.54,18.661 45.34,37.02 68.36,55.071 44.96,35.258 90.83,69.347 137.55,102.23 91.16,64.168 185.56,123.738 282.72,178.408 39.59,22.27 94.31,57.99 142.11,46.64 40.65,-9.67 61.26,-53.19 81.93,-85.181 19.13,-29.589 41.9,-55.32 77.97,-62.308 38.27,-7.43 76.97,5.871 101.57,36.191 29.2,35.899 29.6,82.078 14.1,123.988 -9.1,24.65 -22.8,47.27 -37.5,68.9 -6.2,8.95 -12.1,13.16 -6.1,22.71 2.9,4.57 7.6,7.45 12.7,8.41 11.4,2.19 28.9,-6.02 39.6,-9.48 15.3,-4.96 30.6,-10.29 46.2,-14.58 29.2,-8.05 62.2,-12.77 91.6,-2.59 82.9,28.74 29.4,131.33 34,192.18 7.3,96.34 111.2,160.59 178.9,214.87 95.7,76.76 191.5,153.52 287.2,230.28 45.1,36.14 91.6,71.01 135.2,108.94 30.7,26.73 62.2,61.55 57.8,105.39 -7.3,74.5 -102.7,97.58 -163.6,103.06 -49.3,4.44 -99.7,-0.17 -149,-3.18 -60.5,-3.69 -120.9,-9.17 -181.1,-16.4 -117.5,-14.13 -234.4,-34.89 -349.6,-62.21 -210.92,-50 -413.9,-120.76 -590.57,-249.22 -141.75,-103.06 -262.53,-237.4 -329.1,-401.09 -16.39,-40.32 -29.3,-81.95 -39.21,-124.33 -2.19,-9.39 38.68,-12.97 41.73,0.09 49.18,210.48 182.67,383.91 354.47,511.02 214.43,158.64 472.13,232.12 731.28,280.35 141.7,26.39 285.6,42.68 429.6,48.57 50.6,2.06 102.5,2.96 149.4,-19.57 44,-21.17 68.5,-66.37 45.1,-112.85 -12.7,-25.27 -34.7,-44.58 -56.3,-62.21 -27.5,-22.53 -55.4,-44.51 -83.2,-66.75 -56.7,-45.48 -113.4,-90.97 -170.2,-136.46 -54.3,-43.59 -108.7,-87.18 -163.1,-130.77 -44.6,-35.77 -92.2,-70.13 -129.4,-113.96 -38,-44.6 -53.8,-92.84 -44.9,-150.88 5.9,-37.75 29.3,-113.53 -21,-131.77 -18.5,-6.67 -42,2.74 -59.6,8.34 -19.3,6.13 -38.3,13.36 -58.1,17.76 -32.8,7.27 -76.3,8.24 -92.9,-26.84 -0.98,-1.48 -0.98,-2.95 0.02,-4.44 40.28,-56.34 87.98,-136.74 35.38,-200.942 -9.7,-11.879 -26.6,-27.359 -43.38,-25.547 -12.68,1.36 -25.08,12.75 -33.26,21.528 -17.54,18.832 -29.35,42.363 -43.58,63.611 -31.94,47.67 -76.75,70.55 -134.72,65.04 -65.96,-6.27 -124.85,-44.28 -180.8,-76.71 C 9461.52,928.262 9332,840.492 9209.32,744.02 c -30.68,-24.11 -60.93,-48.758 -90.74,-73.938 -10.38,-8.781 -23.14,-25.34 -35.77,-29.953 -8.14,-2.969 -17.49,0.269 -25.51,2.891 -20.96,6.832 -43.05,18.781 -58.36,34.921 -18.97,20.008 -8.11,40.961 -2.46,65.571 39.77,173.09 96.46,341.938 168.53,504.248 5.17,11.62 -35.49,15.06 -40.24,4.35 v 0"
         style="fill:#42210b;fill-opacity:1;fill-rule:nonzero;stroke:none"
         id="path212" /><path
         d="m 9027.97,637.012 c 15.86,-60.793 94.35,-76.383 147.62,-64.172 40.29,9.242 74.74,32.711 108.61,55.308 38.67,25.832 77.33,51.68 116.01,77.524 155.92,104.18 311.85,208.367 467.77,312.558 13.01,8.68 -25.67,18.17 -35.03,11.91 -133.48,-89.179 -266.94,-178.359 -400.42,-267.55 -65.79,-43.961 -131.36,-88.289 -197.39,-131.891 -29.18,-19.25 -62.77,-42.597 -98.82,-44.797 -32.28,-1.972 -59.96,21.278 -67.86,51.578 -2.83,10.809 -43.86,12.469 -40.49,-0.468 v 0"
         style="fill:#42210b;fill-opacity:1;fill-rule:nonzero;stroke:none"
         id="path214" /><path
         d="m 10251.4,1301.59 c 151.5,119.31 303.1,238.62 454.6,357.92 149.9,118.08 302.7,239.19 406.3,399.45 34,52.55 63,111.32 64,173.91 1,62.6 -32.4,129.14 -91.3,150.33 -53.2,19.15 -112.9,-1.88 -160.3,-32.71 -27.2,-17.7 -52.7,-39.19 -69.4,-67.03 -40.3,-67.27 -15,-163.49 50,-207.41 64.9,-43.91 158.8,-34.42 218.1,16.89 l -872,-791.35"
         style="fill:#f2a50a;fill-opacity:1;fill-rule:nonzero;stroke:none"
         id="path216" /><path
         d="m 10267.3,1300.26 c 151.5,119.31 303,238.6 454.5,357.92 127.3,100.25 256.3,202.12 357.3,330.01 48,60.74 97.1,130.45 112.6,207.73 12.9,64.27 -3.1,138.77 -58.4,179.33 -57.9,42.48 -136.1,24.87 -195,-5.91 -62.1,-32.49 -120.3,-84.81 -122.2,-159.48 -1.9,-73.01 44.1,-140.31 113.9,-162.75 70.5,-22.7 153,-2.29 209.2,44.5 6.8,5.65 3.7,9.52 -3.4,11.28 -8.3,2.06 -21.9,-3.34 -28.2,-8.62 -50.1,-41.71 -122.1,-48.15 -178.3,-13.74 -50.4,30.91 -79.4,93.52 -72.4,152.08 8.2,68.88 71,120.31 134,140.92 69.7,22.82 132.2,-18.62 155.3,-84.67 22.2,-63.56 3.4,-130.61 -26.9,-188.11 -32.7,-62.18 -77.4,-118.86 -124.3,-170.84 -96.2,-106.43 -210.3,-194.61 -322.6,-283.05 -145.6,-114.65 -291.2,-229.3 -436.8,-343.95 -7,-5.52 -3.5,-9.56 3.5,-11.28 8.5,-2.1 21.6,3.45 28.2,8.63 v 0"
         style="fill:#42210b;fill-opacity:1;fill-rule:nonzero;stroke:none"
         id="path218" /><path
         d="m 10407.8,1940.45 c -69.7,-19.56 -133.3,-58.08 -180.5,-113.3 -23.6,-27.59 -46.7,-62.29 -41.7,-100.42 4.2,-31.35 26.3,-51.71 55.5,-60.96 71.8,-22.79 149.7,25.51 208.9,61.1 60.6,36.38 115.5,97.04 93.7,173.62 -9.5,33.38 -38.4,52.66 -72.3,54.58 -21.9,1.23 -43,-8.25 -63.6,-14.62 -20.7,-6.41 17.5,-18.53 27.8,-15.31 13.6,4.21 35.9,16.12 49.3,7.3 27.3,-17.94 24.1,-66.63 17.1,-93.6 -19.3,-74.33 -101.3,-111.12 -165.1,-140.72 -35,-16.27 -88.6,-38.89 -106.8,11.28 -13.9,38.44 10.3,77 34,105.42 44.6,53.41 104.7,91.55 171.5,110.32 20.8,5.81 -17.4,18.23 -27.8,15.31"
         style="fill:#000000;fill-opacity:1;fill-rule:nonzero;stroke:none"
         id="path220" /><path
         d="m 10421.7,1932.79 c -71.4,-19.13 -136.2,-61.65 -182.3,-119.44 -14,-17.64 -26.5,-37.15 -31.6,-59.12 -5.1,-21.96 -1.6,-46.83 13.3,-63.72 14.8,-16.81 38.8,-23.33 61.1,-21.81 22.4,1.52 43.6,10.09 64,19.33 29.7,13.43 58.5,28.53 86.5,45.22 22.4,13.4 44.6,28.12 61.5,48.03 21.9,25.79 33.9,59.82 33,93.66 -0.5,19.8 -5.8,40.27 -19.1,54.9 -13.4,14.62 -36.1,21.7 -53.9,13.02 l -32.5,-10.07"
         style="fill:#9c2200;fill-opacity:1;fill-rule:nonzero;stroke:none"
         id="path222" /><path
         d="m 10408,1940.77 c -64.1,-17.92 -122.8,-51.63 -168.8,-100.03 -38.2,-40.33 -86.5,-117.85 -25.1,-161.73 56.6,-40.56 128,-9.41 182.4,18.05 60.7,30.7 130.4,67.14 147.5,138.91 7.7,32.37 5.6,73.35 -19.9,97.71 -22.6,21.59 -58.5,26.86 -87.1,15.96 -9.1,-3.47 2,-10.64 5.8,-12.38 8.4,-3.9 20,-4.49 28.7,-1.19 17.8,6.81 30.1,-26.91 32.7,-38.19 3.7,-15.77 3,-32.95 0,-48.77 -5.8,-31.23 -22.3,-58.47 -46.1,-79.34 -25,-21.99 -55.8,-38.2 -85.2,-53.57 -29.7,-15.55 -65.8,-37.62 -100,-38.84 -39.2,-1.4 -51.4,42.77 -44.5,73.84 6.9,30.67 28.9,57.02 50,79.32 42.8,45.1 97.2,77.56 157,94.29 20.9,5.83 -17,18.88 -27.4,15.96 v 0"
         style="fill:#42210b;fill-opacity:1;fill-rule:nonzero;stroke:none"
         id="path224" /><path
         d="m 10000.4,1902.29 c -28.69,-5.7 -51.64,-32.8 -52.55,-62.04 -0.2,-6.61 0.84,-13.79 5.48,-18.5 7.1,-7.23 18.96,-5.65 28.79,-3.25 17.25,4.19 34.78,9.49 48.58,20.65 13.8,11.16 23.1,29.48 19,46.74 -4.2,17.24 -25,29.89 -40.8,21.8 l -8.5,-5.4"
         style="fill:#434f00;fill-opacity:1;fill-rule:nonzero;stroke:none"
         id="path226" /><path
         d="m 9986.13,1909.29 c -31.15,-7.83 -61.39,-36.24 -58.94,-70.82 2.73,-38.46 53.16,-31.67 78.91,-24.44 30.4,8.56 73.1,31.68 64.4,70.3 -7.2,31.48 -49.5,40.23 -75.89,30.34 -20.32,-7.62 18.39,-17.8 28.59,-13.98 -5.7,0.53 -5,-1.42 1.9,-5.85 2.8,-3.92 4.3,-8.32 4.6,-13.17 0.9,-9.02 -2.2,-18.04 -6.9,-25.56 -10.1,-15.92 -27.85,-23.26 -45.25,-28.09 -12.32,-3.43 -8.86,-3.87 -8.9,10.67 -0.02,8.78 2.71,17.96 6.75,25.66 8.29,15.8 22.05,26.64 39.3,30.96 8.6,2.16 6.7,7.96 0.9,11.77 -7.8,5.07 -20.89,4.36 -29.47,2.21 v 0"
         style="fill:#42210b;fill-opacity:1;fill-rule:nonzero;stroke:none"
         id="path228" /><path
         d="m 9419.62,1231.6 c -37.94,-21.89 -72.86,-49.01 -103.46,-80.36 -24.71,-25.32 -48.03,-59.46 -38.62,-93.57 8.91,-32.33 45.56,-50.69 79.06,-49.28 33.51,1.41 64.32,18.02 93.04,35.33 36.29,21.88 73.25,47.57 90.69,86.18 15.56,34.45 11.6,78.67 -14.89,105.63 -26.48,26.95 -75.78,29.8 -101.28,1.91 l -4.54,-5.84"
         style="fill:#9c2200;fill-opacity:1;fill-rule:nonzero;stroke:none"
         id="path230" /><path
         d="m 9407.46,1235.46 c -52.92,-31.1 -115.83,-74.43 -143.25,-131.42 -27.45,-57.03 18.69,-104.161 75.87,-105.61 63.26,-1.598 131.68,40.18 177.8,80.72 42.44,37.29 71.39,99.86 35.96,152.22 -33.63,49.69 -108.81,43.61 -148.15,4.9 -6.99,-6.89 6.52,-8.79 10.47,-8.77 9.46,0.04 19.8,4.54 26.47,11.11 19.94,19.62 53.87,2.17 68.63,-15.95 17.21,-21.12 21.59,-51.45 15.57,-77.45 -12.95,-55.86 -73.36,-93.01 -121.86,-115.61 -29.56,-13.77 -62.37,-15.99 -88.71,5.83 -22.4,18.55 -25.08,47.19 -13.79,72.8 22.78,51.74 82.34,91.91 129.32,119.51 6.46,3.81 10.35,8.2 3.86,13.1 -6.11,4.63 -22.85,-2.24 -28.19,-5.38 v 0"
         style="fill:#42210b;fill-opacity:1;fill-rule:nonzero;stroke:none"
         id="path232" /><path
         d="m 9521.87,1575.21 c -11.03,-18.27 -22.06,-36.52 -33.09,-54.78 -5.39,-8.94 -11.01,-19.03 -8.76,-29.22 4.36,-19.87 34.86,-21.24 49.74,-7.36 14.87,13.87 19.56,35.14 28.05,53.63 8.49,18.49 25.88,36.83 45.87,33.07 13.98,-2.64 24.12,-15.35 37.82,-19.14 20.97,-5.8 43.21,13.71 44.75,35.41 1.53,21.69 -13.45,42.11 -32.63,52.36 -19.19,10.26 -41.77,12.01 -63.51,11.12 -46.05,-1.87 -91.61,-14.79 -131.8,-37.36 -11.04,-6.21 -22.4,-13.99 -26.62,-25.95 -4.21,-11.95 3.11,-28.32 15.79,-28.43 4.1,-0.03 8.03,1.58 11.82,3.16 14.13,5.9 28.26,11.8 42.38,17.69 l 20.19,-4.2"
         style="fill:#ffc887;fill-opacity:1;fill-rule:nonzero;stroke:none"
         id="path234" /><path
         d="m 9501.65,1576.08 c -10.34,-17.11 -20.77,-34.18 -31.02,-51.34 -6.88,-11.53 -15.86,-25.73 -9.82,-39.5 9.46,-21.58 42.49,-21.17 61.58,-16.56 33.67,8.14 41.53,36.31 54.29,64.8 3.35,7.49 8.13,19.34 15.43,23.63 7.97,4.69 10.54,0.13 18.06,-4.46 12.59,-7.68 25.66,-11.27 40.47,-10.45 25.31,1.39 52.01,15.81 55.97,43.07 4.45,30.7 -22.19,55.45 -48.54,65.16 -66.46,24.47 -155.66,0.88 -214.87,-32.58 -19.71,-11.14 -50.5,-39.66 -22.95,-60.96 26.94,-20.82 71.34,7.09 96.55,17.62 8.37,3.49 5.35,8.63 -0.78,11.77 -8.08,4.13 -21.58,1.33 -29.45,-1.95 -7.07,-2.95 -14.13,-5.9 -21.19,-8.85 -3.53,-1.48 -7.07,-2.95 -10.59,-4.43 -5.02,-1.17 -4.71,-2.18 0.94,-3.05 -10.28,10.52 -1.21,25.68 7.46,33.11 23.12,19.8 59.47,30.44 88.62,36.26 31.32,6.24 72.62,11.08 97.68,-13.47 8.55,-8.37 15.21,-19.88 15.92,-32.01 0.42,-7.32 -0.89,-14.71 -4.81,-20.99 -1.8,-3.51 -4.35,-6.32 -7.65,-8.44 -3.22,-4.79 -4.82,-5.02 -4.8,-0.66 -8.97,1.82 -17.84,11.92 -27.25,14.76 -9.69,2.94 -19.83,3.39 -29.85,2.11 -21.68,-2.77 -39.44,-15.23 -50.32,-34.18 -5,-8.73 -28,-76.26 -39.9,-51.89 -5.51,11.29 11.02,31.66 16.45,40.64 8.27,13.7 16.54,27.39 24.81,41.09 5.68,9.41 -33.96,12.48 -40.44,1.75 v 0"
         style="fill:#42210b;fill-opacity:1;fill-rule:nonzero;stroke:none"
         id="path236" /><path
         d="m 9807.11,1346.27 c -13.41,8.32 -33.14,-2.93 -35.39,-18.55 -2.27,-15.62 10.23,-30.93 25.5,-34.94 15.26,-4 31.86,1.62 44.16,11.52 10.63,8.55 19.05,21.87 16.49,35.27 -2.56,13.41 -20.37,22.97 -30.81,14.18 l -19.95,-7.48"
         style="fill:#595700;fill-opacity:1;fill-rule:nonzero;stroke:none"
         id="path238" /><path
         d="m 9818.73,1351.53 c -21.12,10.24 -62.93,10.33 -67.56,-20.17 -5.03,-33.13 37.11,-48.7 62.95,-48.78 27.28,-0.09 69.68,19.92 64.3,53.36 -4.29,26.62 -47.64,38.17 -68.36,25.1 -13.52,-8.53 24.53,-20.56 34.01,-14.58 -9.81,5.07 -12.83,5.25 -9.04,0.53 2.01,-2.48 2.93,-5.42 2.75,-8.8 0.33,-4.64 -1.52,-9.26 -3.5,-13.3 -4.43,-8.97 -13.71,-18.37 -23.43,-21.58 -11,-3.63 -18.16,4.64 -18.84,16.11 -0.27,4.72 1.04,9.4 3.73,13.28 4.5,6.46 10.46,3.12 -0.25,8.31 6.7,-3.25 21.95,-6.93 28.63,-2.03 7.11,5.22 0.52,9.69 -5.39,12.55 v 0"
         style="fill:#42210b;fill-opacity:1;fill-rule:nonzero;stroke:none"
         id="path240" /><path
         d="m 10072.1,1498.68 c 16.1,-3.79 33.2,-5.88 49.1,-1.16 15.8,4.72 30.2,17.6 32.4,34.01 2.2,16.42 -11.5,34.39 -28,33.14 -11.2,-0.84 -20.1,-9.18 -29.5,-15.25 -9.4,-6.06 -22.9,-9.63 -31,-1.83 -9.3,9.07 -3.2,25.14 5.5,34.88 8.6,9.75 20.1,19.11 20.7,32.14 1,21.26 -27.1,31.44 -48,27.68 -36.8,-6.63 -67.33,-35.88 -80.35,-70.91 -13.03,-35.04 -9.9,-74.76 3.54,-109.63 7.46,-19.36 18.44,-38.03 35.11,-50.31 16.8,-12.29 40,-17.07 58.7,-8.16 18.8,8.92 29.8,33.37 20.6,51.95 -6.6,13.29 -20.9,30.61 -8.7,39 l -0.1,4.45"
         style="fill:#ffd490;fill-opacity:1;fill-rule:nonzero;stroke:none"
         id="path242" /><path
         d="m 10058.9,1489.81 c 31.9,-6.77 69.1,-6.63 96,14.7 20.4,16.2 28.1,47.9 2.5,63.66 -11.1,6.83 -24.5,6.61 -36.8,4 -6.7,-1.43 -13.1,-3.56 -19.3,-6.64 -3.2,-1.62 -6.7,-3.62 -9.6,-5.69 -6.5,-4.49 -4.9,-6.66 -9.1,-1.42 -16.9,20.99 51.7,49.2 20.6,80.04 -19.1,18.9 -53.5,15.34 -76.6,8.21 -29.41,-9.09 -55.1,-27.81 -71.83,-53.79 -35.56,-55.16 -25.8,-154.97 33.46,-191.64 27.17,-16.79 66.77,-15.69 93.17,2.48 12.5,8.67 22.1,22.66 23.1,38.15 0.8,12.9 -22.9,42.52 -13.8,52.02 10.3,10.73 -29.2,8.81 -37,0.68 -18.3,-18.99 11.3,-39.05 9.6,-60.25 -0.6,-8.12 -4.7,-21.92 -13.3,-25.24 -8.7,-3.37 -22.7,4.2 -29.2,8.74 -12.5,8.79 -21.68,22.07 -28.39,35.56 -26.87,53.99 -25.54,131.83 27.79,169.61 12.7,9.05 27.6,15.3 41.6,4.82 17.1,-12.87 5.3,-27.63 -5.2,-40.13 -12,-14.2 -27.8,-38.96 -3.8,-50.98 17.7,-8.81 43.7,0.63 59,10.05 2.7,1.66 16.5,7.37 7.5,8.24 6.4,-0.62 11.7,-11.25 13.1,-16.88 7.6,-29.97 -25.3,-35.22 -47.1,-30.57 -10.6,2.24 -47.6,-13.22 -26.4,-17.73 v 0"
         style="fill:#42210b;fill-opacity:1;fill-rule:nonzero;stroke:none"
         id="path244" /><path
         d="m 10834.5,2178.72 c -92.4,5.6 -184.6,-1.37 -275.3,-19.7 -4.4,-0.89 -20.6,-5.76 -18.4,-12.85 2.2,-7.34 17.5,-4.35 22.2,-3.41 83.8,16.95 169,22.33 254.2,17.15 13,-0.78 44.1,17.18 17.3,18.81 v 0"
         style="fill:#42210b;fill-opacity:1;fill-rule:nonzero;stroke:none"
         id="path246" /><path
         d="m 10820.2,2230.07 c -41.2,4.19 -81.8,0.49 -121,-13.51 -20.5,-7.35 17.5,-19.04 27.8,-15.36 29.7,10.59 59.7,15.49 91.2,12.31 4.8,-0.5 20.7,-1.91 21.7,5.69 0.9,7.38 -15.4,10.43 -19.7,10.87 v 0"
         style="fill:#42210b;fill-opacity:1;fill-rule:nonzero;stroke:none"
         id="path248" /><path
         d="m 10676.5,2214.63 c -17.3,2.26 -37.3,0.15 -51.2,-11.17 -6.9,-5.58 1.7,-10.23 7.3,-11.57 7.8,-1.86 21.6,-3.16 28.6,2.46 2.1,1.74 5,2.86 7,4.39 1.2,0.96 0.3,-0.3 -1.2,-0.02 0.6,0.05 1.2,0.11 1.8,0.16 -6.1,0.32 -7.4,0.28 -3.7,-0.14 6.9,-0.9 21.3,-1.6 25.7,5.35 4.5,7.02 -10.8,10.08 -14.3,10.54 v 0"
         style="fill:#42210b;fill-opacity:1;fill-rule:nonzero;stroke:none"
         id="path250" /><path
         d="m 9051.94,733.941 c 3.77,68.918 21.77,135.161 53.63,196.418 5.61,10.801 -34.71,14.86 -40.27,4.172 -32.51,-62.511 -51.24,-130.492 -55.09,-200.871 -0.61,-11.25 41.06,-12.078 41.73,0.281 v 0"
         style="fill:#42210b;fill-opacity:1;fill-rule:nonzero;stroke:none"
         id="path252" /><path
         d="m 9115.82,960.391 c 14.18,10.558 24.08,24.097 28.91,41.219 2.76,9.79 -37.98,16.57 -41.55,3.93 -3.67,-13.028 -11.49,-25.231 -22.44,-33.368 -7.08,-5.274 0.73,-10.141 6.38,-12.07 7.26,-2.5 21.76,-4.883 28.7,0.289 v 0"
         style="fill:#42210b;fill-opacity:1;fill-rule:nonzero;stroke:none"
         id="path254" /><path
         d="m 9046.53,1131.4 c 3.08,31.41 10.81,61.31 23.54,90.21 5.05,11.46 -35.58,14.05 -40.35,3.2 -13.3,-30.2 -21.68,-61.84 -24.9,-94.69 -1.03,-10.63 40.47,-11.5 41.71,1.28 v 0"
         style="fill:#42210b;fill-opacity:1;fill-rule:nonzero;stroke:none"
         id="path256" /><path
         d="m 8978.04,1055.91 c 12.51,58.59 25.03,117.19 37.54,175.78 1.84,8.63 -38.67,9.39 -41.54,-4.05 -12.51,-58.6 -25.03,-117.19 -37.54,-175.78 -1.84,-8.64 38.67,-9.39 41.54,4.05 v 0"
         style="fill:#42210b;fill-opacity:1;fill-rule:nonzero;stroke:none"
         id="path258" /><path
         d="m 10347.5,1828.21 c -13,-8.15 -24.3,-18.91 -33.1,-31.47 -3.5,-8.14 4.6,-17.44 13.3,-18.7 8.8,-1.26 17.3,2.85 25.2,6.84 8.2,4.13 16.4,8.26 24.6,12.4 4.7,2.42 9.7,4.99 12.9,9.27 10.2,13.41 -11.1,34.8 -24.6,24.77 l -18.3,-3.11"
         style="fill:#fffde0;fill-opacity:1;fill-rule:nonzero;stroke:none"
         id="path260" /><path
         d="m 10330,1834.13 c -14.7,-9.67 -50.6,-33.83 -30.6,-53.23 21.6,-21.11 55.5,-9.8 78.4,1.79 16.1,8.12 47.5,19.85 31.5,42.84 -12.2,17.59 -43.1,21.95 -61,11.71 -8.1,-4.63 1.6,-10.36 6.4,-12.08 8,-2.96 20.8,-4.25 28.7,0.25 -15.3,4.73 -19.8,4.15 -13.6,-1.75 0.5,-0.93 1,-1.85 1.5,-2.79 1.4,-3.58 1.3,-6.9 -0.7,-10.19 -4.5,-7.73 -20.5,-12.47 -27.8,-16.17 -2.5,-1.24 -4.9,-2.48 -7.4,-3.71 -5.7,-1.39 -6.5,-2.47 -2.3,-3.26 3.4,-1.98 3.8,-0.75 1.2,3.67 1,2.81 2.5,5.32 4.5,7.51 6.9,9.45 16.6,17.21 26.2,23.58 7.6,5.01 -1.2,10.18 -6.3,12.08 -7.6,2.79 -21.4,4.58 -28.7,-0.25 v 0"
         style="fill:#42210b;fill-opacity:1;fill-rule:nonzero;stroke:none"
         id="path262" /><path
         d="m 9395.58,1151.04 c -18.17,-6.21 -32.63,-22.24 -36.94,-40.95 13.68,-1.6 28.37,-3.02 40.47,3.56 12.1,6.58 18.74,24.62 9.13,34.48 l -12.66,2.91"
         style="fill:#fffde0;fill-opacity:1;fill-rule:nonzero;stroke:none"
         id="path264" /><path
         d="m 9388.46,1157.73 c -23.38,-8.74 -43.44,-24.68 -49.95,-49.71 -1.14,-4.38 3.24,-6.39 6.96,-6.81 23.89,-2.7 50.99,-3.21 71.65,11.25 13.58,9.5 21.98,27.92 10.32,42.08 -7.51,9.13 -46.29,-3.22 -38.4,-12.81 4.88,-5.93 4,-14.3 -0.18,-20.47 -1.42,-2.09 -3.41,-3.59 -2.5,-3.24 -3.57,-1.38 -10.77,0.52 -14.53,0.94 2.31,-2.26 4.63,-4.53 6.95,-6.8 3.22,12.37 11.04,27.37 23.92,32.18 4.48,1.68 16.96,6.46 12.08,13.1 -4.44,6.04 -21.15,2.23 -26.32,0.29 v 0"
         style="fill:#42210b;fill-opacity:1;fill-rule:nonzero;stroke:none"
         id="path266" /><path
         d="m 9063.6,631.719 c 14.3,-30.571 46.72,-45.27 78.85,-49.367 43.64,-5.563 82.06,13.168 118.83,34.48 66.85,38.77 133.71,77.539 200.46,116.508 79.65,46.5 157.28,95.301 232.33,148.961 68.66,49.121 136.42,99.512 204.39,149.569 7.7,5.67 -28.3,19.74 -38.62,12.14 -92.45,-68.088 -184.02,-137.908 -279.5,-201.748 -76.18,-50.953 -156.17,-95.992 -235.41,-141.942 -36.65,-21.261 -73.29,-42.558 -109.9,-63.89 -36.92,-21.52 -104.43,-65.141 -131.08,-8.149 -5.25,11.219 -44.98,13.348 -40.35,3.438 v 0"
         style="fill:#42210b;fill-opacity:1;fill-rule:nonzero;stroke:none"
         id="path268" /><path
         d="m 10061.4,1154.77 c 11.6,7.86 23.2,15.72 34.8,23.59 6.3,4.29 6.5,9.54 -1.6,11.69 -8.4,2.24 -21.8,1.09 -29.2,-3.96 -11.6,-7.86 -23.2,-15.73 -34.8,-23.59 -6.4,-4.3 -6.5,-9.55 1.6,-11.7 8.4,-2.24 21.8,-1.08 29.2,3.97 v 0"
         style="fill:#42210b;fill-opacity:1;fill-rule:nonzero;stroke:none"
         id="path270" /><path
         d="m 9484.27,1882.8 c 359.55,240.09 785.73,355.4 1203.43,466.96 84.3,22.52 170,45.22 257.3,43.22 36,-0.82 74.5,-5.37 106.1,12.16 -8.7,30.21 -48.5,35.87 -79.9,35.06 -182.5,-4.69 -364.4,-30.28 -541.1,-76.11 -155.3,-40.27 -306.1,-95.99 -455.59,-154.28 -135.48,-52.82 -270.76,-108.15 -395.19,-183.38 -53.69,-32.47 -111.54,-81.47 -104.4,-143.79 l 9.35,0.16"
         style="fill:#f9c067;fill-opacity:1;fill-rule:nonzero;stroke:none"
         id="path272" /><path
         d="m 11141.3,2354.59 c -70.1,84.67 -172.2,89.98 -274.7,86.43 -147.6,-5.13 -292.6,-24.1 -436.9,-55.58 -149.3,-32.59 -296.5,-74.48 -443.51,-116.2 -137.72,-39.09 -282.62,-78.98 -408.11,-149.72 -51.07,-28.79 -103.06,-68.82 -118.81,-128.14 -19.59,-73.8 24.84,-143.77 64.28,-202.37 6.71,-9.96 46.54,-2.64 39.82,7.35 -35.15,52.2 -74.81,112.57 -66.38,178.67 6.94,54.37 47.82,94.65 91.82,123.09 53.27,34.45 114.76,58.02 173.93,80.15 65.46,24.46 132.21,45.3 199.28,64.85 267.88,78.04 541.58,160.21 821.48,177.57 58.4,3.63 119.3,8.75 177.7,2.11 56.9,-6.45 103.7,-31.39 140.3,-75.55 7.9,-9.52 46.9,-1.19 39.8,7.34 v 0"
         style="fill:#42210b;fill-opacity:1;fill-rule:nonzero;stroke:none"
         id="path274" /><path
         d="m 9490.46,1962.37 c 53,39.83 110.12,72.77 171.16,98.65 8.25,3.49 5.75,8.39 -0.49,11.78 -7.76,4.23 -21.74,2.08 -29.48,-1.21 -63.2,-26.79 -122.67,-61.04 -177.54,-102.28 -11.97,-9 27.34,-13.71 36.35,-6.94 v 0"
         style="fill:#42210b;fill-opacity:1;fill-rule:nonzero;stroke:none"
         id="path276" /><path
         d="m 9505.37,2018.02 c 62.31,34.83 126.35,66.29 192.12,94.01 20.12,8.49 -18.55,18.03 -28.63,13.78 -68.05,-28.68 -134.41,-60.91 -198.86,-96.94 -8.33,-4.66 2.33,-10.29 6.69,-11.91 8.18,-3.04 20.84,-3.34 28.68,1.06 v 0"
         style="fill:#42210b;fill-opacity:1;fill-rule:nonzero;stroke:none"
         id="path278" /></g></g></svg>
