<svg xmlns="http://www.w3.org/2000/svg" xmlns:xlink="http://www.w3.org/1999/xlink" id="visual" width="900" height="600" version="1.1" viewBox="0 0 900 600"><path fill="#ba7776" d="M0 91L13.7 85C27.3 79 54.7 67 82 69C109.3 71 136.7 87 163.8 92C191 97 218 91 245.2 90C272.3 89 299.7 93 327 96C354.3 99 381.7 101 409 100C436.3 99 463.7 95 491 87C518.3 79 545.7 67 573 72C600.3 77 627.7 99 654.8 107C682 115 709 109 736.2 106C763.3 103 790.7 103 818 107C845.3 111 872.7 119 886.3 123L900 127L900 0L886.3 0C872.7 0 845.3 0 818 0C790.7 0 763.3 0 736.2 0C709 0 682 0 654.8 0C627.7 0 600.3 0 573 0C545.7 0 518.3 0 491 0C463.7 0 436.3 0 409 0C381.7 0 354.3 0 327 0C299.7 0 272.3 0 245.2 0C218 0 191 0 163.8 0C136.7 0 109.3 0 82 0C54.7 0 27.3 0 13.7 0L0 0Z"/><path fill="#914242" d="M0 187L13.7 189C27.3 191 54.7 195 82 191C109.3 187 136.7 175 163.8 178C191 181 218 199 245.2 200C272.3 201 299.7 185 327 182C354.3 179 381.7 189 409 191C436.3 193 463.7 187 491 173C518.3 159 545.7 137 573 146C600.3 155 627.7 195 654.8 208C682 221 709 207 736.2 206C763.3 205 790.7 217 818 225C845.3 233 872.7 237 886.3 239L900 241L900 125L886.3 121C872.7 117 845.3 109 818 105C790.7 101 763.3 101 736.2 104C709 107 682 113 654.8 105C627.7 97 600.3 75 573 70C545.7 65 518.3 77 491 85C463.7 93 436.3 97 409 98C381.7 99 354.3 97 327 94C299.7 91 272.3 87 245.2 88C218 89 191 95 163.8 90C136.7 85 109.3 69 82 67C54.7 65 27.3 77 13.7 83L0 89Z"/><path fill="#723435" d="M0 331L13.7 331C27.3 331 54.7 331 82 325C109.3 319 136.7 307 163.8 307C191 307 218 319 245.2 316C272.3 313 299.7 295 327 292C354.3 289 381.7 301 409 309C436.3 317 463.7 321 491 325C518.3 329 545.7 333 573 338C600.3 343 627.7 349 654.8 369C682 389 709 423 736.2 418C763.3 413 790.7 369 818 359C845.3 349 872.7 373 886.3 385L900 397L900 239L886.3 237C872.7 235 845.3 231 818 223C790.7 215 763.3 203 736.2 204C709 205 682 219 654.8 206C627.7 193 600.3 153 573 144C545.7 135 518.3 157 491 171C463.7 185 436.3 191 409 189C381.7 187 354.3 177 327 180C299.7 183 272.3 199 245.2 198C218 197 191 179 163.8 176C136.7 173 109.3 185 82 189C54.7 193 27.3 189 13.7 187L0 185Z"/><path fill="#914242" d="M0 499L13.7 505C27.3 511 54.7 523 82 525C109.3 527 136.7 519 163.8 515C191 511 218 511 245.2 512C272.3 513 299.7 515 327 516C354.3 517 381.7 517 409 521C436.3 525 463.7 533 491 539C518.3 545 545.7 549 573 549C600.3 549 627.7 545 654.8 546C682 547 709 553 736.2 551C763.3 549 790.7 539 818 534C845.3 529 872.7 529 886.3 529L900 529L900 395L886.3 383C872.7 371 845.3 347 818 357C790.7 367 763.3 411 736.2 416C709 421 682 387 654.8 367C627.7 347 600.3 341 573 336C545.7 331 518.3 327 491 323C463.7 319 436.3 315 409 307C381.7 299 354.3 287 327 290C299.7 293 272.3 311 245.2 314C218 317 191 305 163.8 305C136.7 305 109.3 317 82 323C54.7 329 27.3 329 13.7 329L0 329Z"/><path fill="#ba7776" d="M0 601L13.7 601C27.3 601 54.7 601 82 601C109.3 601 136.7 601 163.8 601C191 601 218 601 245.2 601C272.3 601 299.7 601 327 601C354.3 601 381.7 601 409 601C436.3 601 463.7 601 491 601C518.3 601 545.7 601 573 601C600.3 601 627.7 601 654.8 601C682 601 709 601 736.2 601C763.3 601 790.7 601 818 601C845.3 601 872.7 601 886.3 601L900 601L900 527L886.3 527C872.7 527 845.3 527 818 532C790.7 537 763.3 547 736.2 549C709 551 682 545 654.8 544C627.7 543 600.3 547 573 547C545.7 547 518.3 543 491 537C463.7 531 436.3 523 409 519C381.7 515 354.3 515 327 514C299.7 513 272.3 511 245.2 510C218 509 191 509 163.8 513C136.7 517 109.3 525 82 523C54.7 521 27.3 509 13.7 503L0 497Z"/></svg>