<svg id="visual" viewBox="0 0 900 600" width="900" height="600" xmlns="http://www.w3.org/2000/svg" xmlns:xlink="http://www.w3.org/1999/xlink" version="1.1"><rect x="0" y="0" width="900" height="600" fill="#b78458"></rect><path d="M0 231L129 197L257 88L386 164L514 104L643 227L771 219L900 233L900 601L771 601L643 601L514 601L386 601L257 601L129 601L0 601Z" fill="#b78458"></path><path d="M0 233L129 194L257 283L386 274L514 170L643 240L771 175L900 154L900 601L771 601L643 601L514 601L386 601L257 601L129 601L0 601Z" fill="#ae7b52"></path><path d="M0 268L129 325L257 305L386 262L514 236L643 305L771 333L900 310L900 601L771 601L643 601L514 601L386 601L257 601L129 601L0 601Z" fill="#a4734d"></path><path d="M0 339L129 312L257 321L386 347L514 393L643 349L771 333L900 390L900 601L771 601L643 601L514 601L386 601L257 601L129 601L0 601Z" fill="#9b6a47"></path><path d="M0 395L129 432L257 406L386 411L514 384L643 424L771 396L900 410L900 601L771 601L643 601L514 601L386 601L257 601L129 601L0 601Z" fill="#926241"></path><path d="M0 502L129 430L257 506L386 431L514 440L643 445L771 500L900 461L900 601L771 601L643 601L514 601L386 601L257 601L129 601L0 601Z" fill="#88593c"></path><path d="M0 493L129 516L257 516L386 492L514 510L643 500L771 513L900 532L900 601L771 601L643 601L514 601L386 601L257 601L129 601L0 601Z" fill="#7f5136"></path></svg>