<svg xmlns="http://www.w3.org/2000/svg" xmlns:svg="http://www.w3.org/2000/svg" id="svg4959" width="210mm" height="151mm" version="1.1" viewBox="0 0 210 151"><defs id="defs4956"><clipPath id="clipPath49195" clipPathUnits="userSpaceOnUse"><path id="path49193" d="m 0,45.374 390.762,9.559 V 254.038 L 0,260.625 Z"/></clipPath></defs><g id="layer1"><g id="g56632" transform="matrix(1.8823607,0.05947614,-0.05974996,1.8768664,22.431053,-442.71764)"><g id="g49189" transform="matrix(0.35277777,0,0,-0.35277777,-1.3240459,332.29567)"><g id="g49191" clip-path="url(#clipPath49195)"><g id="g49197" transform="translate(330.5825,35.1836)"><path style="fill:#965f40;fill-opacity:1;fill-rule:nonzero;stroke:none" id="path49199" d="m 0,0 v -16.909 l -48.672,-30.112 -72.074,7.012 -11.067,9.076 -86.797,277.594 c 0,0 36.12,1.648 37.447,0 1.327,-1.651 18.334,-6.598 19.935,-7.424 1.601,-0.826 20.445,-8.251 20.445,-8.251 0,0 39.731,-14.022 40.965,-15.674 1.239,-1.648 36.297,-20.209 36.71,-30.933 0.413,-10.724 0,-22.543 2.478,-29.628 2.473,-7.082 15.262,-46.678 15.262,-46.678 l 1.684,-21.911 2.436,-31.652 31.351,-42.923 z"/></g><g id="g49201" transform="translate(230.7646,250.4951)"><path style="fill:#a66a46;fill-opacity:1;fill-rule:nonzero;stroke:none" id="path49203" d="m 0,0 c 0,0 -6.873,-6.186 -8.524,-7.012 -1.648,-0.826 -17.875,5.499 -18.696,5.499 -0.826,0 -11.277,1.1 -12.413,1.1 -1.142,0 -14.07,-6.599 -14.07,-6.599 l -1.972,-1.099 -48.547,14.575 -14.57,24.886 c 0,0 36.12,1.647 37.447,0 1.327,-1.652 18.334,-6.598 19.935,-7.424 1.6,-0.826 20.445,-8.251 20.445,-8.251 0,0 39.731,-14.023 40.965,-15.675"/></g><g id="g49205" transform="translate(209.8354,21.9863)"><path style="fill:#be8b5d;fill-opacity:1;fill-rule:nonzero;stroke:none" id="path49207" d="m 0,0 c -0.519,1.237 -8.167,34.719 -8.802,39.168 -0.635,4.448 -4.296,10.351 -0.481,13.02 3.815,2.67 0.03,8.89 0.03,8.89 l -3.222,8.635 -9.034,11.43 c 0,0 3.403,22.46 4.313,23.665 0.911,1.205 -0.408,12.004 -0.408,12.004 0,0 -8.994,8.173 -8.909,9.824 0.084,1.651 -3.154,8.799 -1.224,16.311 1.93,7.514 -9.368,31.942 -9.842,34.21 -0.475,2.269 6.076,23.718 5.894,24.955 -0.182,1.238 -1.088,19.386 -1.088,19.386 0,0 -26.315,24.336 -29.616,27.224 -3.3,2.886 -32.586,11.136 -35.473,11.136 -2.888,0 -51.201,-6.187 -54.887,-7.424 -3.685,-1.238 -34.764,-37.536 -34.764,-37.536 l -26.128,-12.539 -4.664,-55.531 V 93.215 l 10.191,-103.439 c 0,0 97.905,-36.753 99.554,-36.753 1.65,0 97.099,20.524 97.099,20.524 z"/></g><g id="g49209" transform="translate(209.8354,184.7119)"><path style="fill:#7f5136;fill-opacity:1;fill-rule:nonzero;stroke:none" id="path49211" d="m 0,0 16.393,-7.161 -16.51,2.258 -14.838,2.779 -11.11,12.1 -11.514,4.456 5.894,24.955 8.116,-16.264 z"/></g><g id="g49213" transform="translate(206.5181,162.6807)"><path style="fill:#7f5136;fill-opacity:1;fill-rule:nonzero;stroke:none" id="path49215" d="m 0,0 c 0,0 18.827,-1.156 19.784,-0.805 0.957,0.352 9.207,4.057 10.857,5.401 1.65,1.343 11.755,8.127 11.755,8.127 l 5.775,-4.322 h 10.105 c 0,0 -13.405,-4.689 -14.436,-4.812 -1.031,-0.124 -7.218,0 -7.218,0 L 29.138,-2.954 19.71,-4.37 Z"/></g><g id="g49217" transform="translate(230.8003,209.5371)"><path style="fill:#7f5136;fill-opacity:1;fill-rule:nonzero;stroke:none" id="path49219" d="m 0,0 c 0.032,-0.052 0.052,-0.088 0.077,-0.13 0.054,-0.05 0.113,-0.105 0.185,-0.177 0.463,-0.454 0.884,-0.95 1.351,-1.402 0.006,-0.005 1.014,-0.911 1.064,-0.998 0.252,-0.178 0.513,-0.349 0.761,-0.515 1.097,-0.734 2.23,-1.415 3.353,-2.11 1.62,-1.004 3.161,-2.034 4.586,-3.152 l 7.158,10.159 11.461,5.951 c 0,0 -8.436,1.925 -10.087,2.74 C 18.26,11.181 11.385,1.576 10.56,1.675 9.872,1.757 -23.591,5.152 -26.081,4.793 -25.997,4.659 -0.044,0.071 0,0"/></g><g id="g49221" transform="translate(221.3242,83.377)"><path style="fill:#7f5136;fill-opacity:1;fill-rule:nonzero;stroke:none" id="path49223" d="m 0,0 c 0.238,0.042 0.478,0.075 0.714,0.123 3.213,0.646 6.091,2.69 9.425,2.81 0.462,0.016 0.907,-0.019 1.338,-0.098 C 10.618,3.397 9.739,3.986 8.922,4.557 6.076,5.047 3.677,6.782 0.794,6.937 -2.373,7.107 -5.243,6.772 -7.985,8.213 l 6.083,-7.111 z"/></g><g id="g49225" transform="translate(240.208,76.584)"><path style="fill:#7f5136;fill-opacity:1;fill-rule:nonzero;stroke:none" id="path49227" d="m 0,0 c -1.616,0.21 -3.299,0.456 -4.736,1.284 -1.402,0.807 -1.888,2.117 -2.873,3.299 -0.93,1.114 -1.994,0.561 -3.319,0.118 -0.942,-0.314 -1.847,-0.628 -2.741,-0.929 L 2.519,-5.605 0.236,-0.028 C 0.156,-0.02 0.077,-0.01 0,0"/></g><g id="g49229" transform="translate(267.063,94.584)"><path style="fill:#7f5136;fill-opacity:1;fill-rule:nonzero;stroke:none" id="path49231" d="m 0,0 c -1.237,-0.822 -21.861,-2.893 -22.686,-1.652 -0.825,1.24 -12.374,12.374 -13.612,12.536 -1.239,0.162 -18.973,2.351 -18.973,2.351 l -19.152,18.975 -4.314,-23.665 11.445,4.322 5.872,-6.864 c 0.594,-0.181 1.27,-0.297 2.172,-0.447 2.616,-0.438 4.242,-1.926 6.2,-3.579 2.82,-2.381 5.941,-1.481 9.34,-1.868 0.603,-0.068 1.179,-0.213 1.742,-0.395 -0.943,2.74 -1.344,5.571 -1.344,5.571 l 11.191,-9.751 14.795,-5.55 15.055,4.726 14.644,-1.309 C 12.375,-6.599 1.238,0.822 0,0"/></g><g id="g49233" transform="translate(289.335,89.6934)"><path style="fill:#7f5136;fill-opacity:1;fill-rule:nonzero;stroke:none" id="path49235" d="m 0,0 c 0,0 -16.497,21.388 -18.148,22.255 -1.648,0.873 -13.198,5.318 -14.436,5.722 -1.235,0.404 -7.012,0.835 -9.769,-0.645 -2.756,-1.48 -20.756,16.06 -20.756,16.06 0,0 18.153,-9.628 19.8,-10.501 1.653,-0.868 18.771,2.139 18.771,2.139 l 18.765,-12.394 -4.125,8.218 c 0,0 -9.898,7.03 -11.137,7.471 -1.22,0.432 -7.828,7.569 -8.037,7.791 l 23.299,-9.851 3.336,-4.613 z"/></g><g id="g49237" transform="translate(179.2949,66.5332)"><path style="fill:#d5a56e;fill-opacity:1;fill-rule:nonzero;stroke:none" id="path49239" d="m 0,0 -31.848,16.107 c 0,0 -10.483,2.588 -11.841,2.521 -1.359,-0.066 -29.352,-5.912 -29.352,-5.912 l -17.414,8.26 c 0,0 15.161,-15.2 18.734,-15.201 3.574,-0.001 27.328,2.838 28.032,2.863 0.703,0.024 28.993,-6.55 28.993,-6.55 0,0 17.947,-15.364 19.783,-15.325 1.836,0.038 11.656,4.921 11.656,4.921 l -17.258,2.115 z"/></g><g id="g49241" transform="translate(3.8467,160.7207)"><path style="fill:#d5a56e;fill-opacity:1;fill-rule:nonzero;stroke:none" id="path49243" d="m 0,0 28.369,-16.662 c 0,0 4.034,-13.961 4.987,-14.938 0.954,-0.977 13.54,-9.863 15.901,-8.383 2.36,1.479 7.96,1.67 13.203,1.163 5.244,-0.508 16.381,2.5 16.381,2.5 l -22.161,2.766 -9.911,0.221 -11.789,16.358 12.013,-3.854 -7.646,9.092 -3.51,9.334 -14.345,-0.19 -10.69,6.487 z"/></g><g id="g49245" transform="translate(166.9937,153.9941)"><path style="fill:#d5a56e;fill-opacity:1;fill-rule:nonzero;stroke:none" id="path49247" d="m 0,0 -28.69,19.598 -14.562,3.959 -20.944,4.63 -11.198,12.907 c 0,0 -7.675,15.42 -8.912,15.615 -1.238,0.196 -19.386,5.823 -19.386,5.823 l 11.136,3.426 -13.222,4.146 -7.027,7.424 5.029,-11.57 1.998,-9.45 15.976,-8.862 17.18,-15.08 -21.859,3.376 18.485,-12.842 c 0,0 17.676,-6.231 18.913,-6.012 1.237,0.22 11.614,-0.544 11.614,-0.544 0,0 8.397,-11.694 12.209,-13.509 3.813,-1.814 9.989,2.258 9.989,2.258 l 10.822,-6.514 z"/></g><g id="g49249" transform="translate(154.1997,231.5225)"><path style="fill:#d5a56e;fill-opacity:1;fill-rule:nonzero;stroke:none" id="path49251" d="m 0,0 c 0,0 -15.138,5.362 -15.896,5.362 -0.757,0 -11.894,3.3 -13.131,3.3 -1.238,0 -13.202,7.837 -13.201,9.487 0.001,1.65 -8.943,7.837 -11.483,7.837 -2.54,0 10.576,-2.474 16.186,-3.712 5.61,-1.238 13.69,-12.101 18.931,-11.413 C -13.354,11.55 0,0 0,0"/></g><g id="g49253" transform="translate(92.5508,155.9932)"><path style="fill:#e9b66a;fill-opacity:1;fill-rule:nonzero;stroke:none" id="path49255" d="M 0,0 C -0.07,-0.249 -0.197,-0.494 -0.394,-0.729 -2.296,-3.002 -6.54,-1.053 -7.82,1.37 -7.855,0.478 -7.167,-0.7 -6.242,-1.455 -4.438,-2.93 -2.92,-3.063 -1.322,-2.706 0.408,-2.319 1.186,-1.307 0,0"/></g><g id="g49257" transform="translate(92.1567,155.2637)"><path style="fill:#fcd691;fill-opacity:1;fill-rule:nonzero;stroke:none" id="path49259" d="M 0,0 C 0.197,0.235 0.324,0.48 0.394,0.729 0.068,1.089 -0.398,1.47 -1.044,1.867 -2.22,2.591 -3.679,3.497 -6.015,3.32 -6.997,3.245 -7.4,2.747 -7.426,2.1 -6.146,-0.323 -1.902,-2.272 0,0"/></g><g id="g49261" transform="translate(128.5845,69.875)"><path style="fill:#4971be;fill-opacity:1;fill-rule:nonzero;stroke:none" id="path49263" d="m 0,0 c -0.11,0.151 -0.227,0.293 -0.35,0.433 -0.333,-0.642 -1.06,-0.812 -1.98,-0.84 -1.924,-0.058 -4.549,0.985 -5.373,2.481 -0.153,-1.201 0.831,-2.368 2.897,-3.089 1.602,-0.559 3.226,-0.842 4.227,-0.694 C 0.083,-1.611 0.688,-0.954 0,0"/></g><g id="g49265" transform="translate(126.2549,69.4678)"><path style="fill:#5d82ca;fill-opacity:1;fill-rule:nonzero;stroke:none" id="path49267" d="M 0,0 C 0.92,0.028 1.646,0.198 1.979,0.84 1.405,1.49 0.618,2.094 -0.994,3.415 -2.952,5.021 -4.068,4.928 -5.034,3.424 -5.234,3.112 -5.333,2.796 -5.374,2.481 -4.549,0.985 -1.924,-0.058 0,0"/></g><g id="g49269" transform="translate(112.9209,147.1953)"><path style="fill:#4971be;fill-opacity:1;fill-rule:nonzero;stroke:none" id="path49271" d="m 0,0 c -0.109,0.151 -0.227,0.293 -0.35,0.433 -0.333,-0.642 -1.06,-0.812 -1.98,-0.839 -1.923,-0.059 -4.548,0.985 -5.373,2.481 -0.153,-1.202 0.832,-2.368 2.898,-3.09 1.601,-0.559 3.225,-0.842 4.226,-0.694 C 0.083,-1.61 0.688,-0.954 0,0"/></g><g id="g49273" transform="translate(110.5913,146.7891)"><path style="fill:#5d82ca;fill-opacity:1;fill-rule:nonzero;stroke:none" id="path49275" d="M 0,0 C 0.92,0.027 1.646,0.197 1.98,0.839 1.405,1.489 0.618,2.093 -0.994,3.415 -2.952,5.021 -4.068,4.927 -5.033,3.423 -5.233,3.111 -5.333,2.795 -5.373,2.481 -4.549,0.985 -1.924,-0.059 0,0"/></g><g id="g49277" transform="translate(131.1196,202.8848)"><path style="fill:#4971be;fill-opacity:1;fill-rule:nonzero;stroke:none" id="path49279" d="m 0,0 c -0.109,0.152 -0.227,0.293 -0.35,0.433 -0.333,-0.642 -1.06,-0.812 -1.98,-0.839 -1.924,-0.058 -4.549,0.985 -5.373,2.481 -0.153,-1.201 0.831,-2.368 2.897,-3.09 1.602,-0.559 3.226,-0.842 4.227,-0.694 C 0.083,-1.61 0.688,-0.954 0,0"/></g><g id="g49281" transform="translate(128.79,202.4785)"><path style="fill:#5d82ca;fill-opacity:1;fill-rule:nonzero;stroke:none" id="path49283" d="M 0,0 C 0.92,0.027 1.646,0.197 1.98,0.839 1.405,1.49 0.618,2.093 -0.994,3.415 -2.952,5.021 -4.068,4.928 -5.033,3.424 -5.233,3.111 -5.333,2.796 -5.374,2.481 -4.549,0.985 -1.924,-0.058 0,0"/></g><g id="g49285" transform="translate(79.8149,202.5781)"><path style="fill:#4971be;fill-opacity:1;fill-rule:nonzero;stroke:none" id="path49287" d="M 0,0 C -0.109,0.151 -0.226,0.293 -0.35,0.432 -0.683,-0.21 -1.409,-0.38 -2.33,-0.407 -4.253,-0.465 -6.878,0.578 -7.703,2.074 -7.856,0.873 -6.871,-0.294 -4.805,-1.016 -3.204,-1.575 -1.58,-1.858 -0.578,-1.709 0.084,-1.611 0.688,-0.955 0,0"/></g><g id="g49289" transform="translate(77.4854,202.1709)"><path style="fill:#5d82ca;fill-opacity:1;fill-rule:nonzero;stroke:none" id="path49291" d="M 0,0 C 0.92,0.027 1.647,0.197 1.98,0.839 1.405,1.49 0.618,2.093 -0.994,3.415 -2.952,5.021 -4.068,4.928 -5.033,3.424 -5.233,3.112 -5.333,2.796 -5.373,2.481 -4.549,0.985 -1.924,-0.058 0,0"/></g><g id="g49293" transform="translate(76.4585,246.0088)"><path style="fill:#4971be;fill-opacity:1;fill-rule:nonzero;stroke:none" id="path49295" d="m 0,0 c -0.11,0.151 -0.227,0.293 -0.35,0.433 -0.333,-0.643 -1.06,-0.812 -1.98,-0.84 -1.924,-0.058 -4.549,0.985 -5.373,2.481 -0.153,-1.201 0.831,-2.368 2.897,-3.09 1.602,-0.558 3.226,-0.842 4.227,-0.693 C 0.083,-1.611 0.688,-0.955 0,0"/></g><g id="g49297" transform="translate(74.1289,245.6016)"><path style="fill:#5d82ca;fill-opacity:1;fill-rule:nonzero;stroke:none" id="path49299" d="M 0,0 C 0.92,0.028 1.646,0.197 1.979,0.84 1.405,1.49 0.618,2.093 -0.994,3.415 -2.952,5.021 -4.068,4.928 -5.034,3.424 -5.234,3.112 -5.333,2.796 -5.374,2.481 -4.549,0.985 -1.924,-0.058 0,0"/></g><g id="g49301" transform="translate(120.9023,251.2021)"><path style="fill:#4971be;fill-opacity:1;fill-rule:nonzero;stroke:none" id="path49303" d="m 0,0 c -0.109,0.152 -0.227,0.293 -0.35,0.433 -0.333,-0.642 -1.06,-0.812 -1.98,-0.839 -1.923,-0.058 -4.548,0.985 -5.373,2.481 -0.153,-1.202 0.831,-2.368 2.898,-3.09 1.601,-0.559 3.225,-0.842 4.226,-0.694 C 0.083,-1.61 0.688,-0.954 0,0"/></g><g id="g49305" transform="translate(118.5728,250.7959)"><path style="fill:#5d82ca;fill-opacity:1;fill-rule:nonzero;stroke:none" id="path49307" d="M 0,0 C 0.92,0.027 1.646,0.197 1.98,0.839 1.405,1.489 0.618,2.093 -0.994,3.415 -2.952,5.021 -4.068,4.927 -5.033,3.424 -5.233,3.111 -5.333,2.795 -5.374,2.481 -4.549,0.985 -1.924,-0.058 0,0"/></g><g id="g49309" transform="translate(62.0542,148.4814)"><path style="fill:#448d8e;fill-opacity:1;fill-rule:nonzero;stroke:none" id="path49311" d="m 0,0 c 0.334,-1.054 0.041,-2.268 -0.857,-3.057 -0.952,-0.836 -2.315,-0.916 -3.388,-0.348 0.231,-0.648 0.673,-1.194 1.316,-1.733 C -1.716,-6.153 0.291,-5.34 0.71,-3.25 1.014,-1.734 0.667,-0.667 0,0"/></g><g id="g49313" transform="translate(61.1973,145.4248)"><path style="fill:#5ba2a4;fill-opacity:1;fill-rule:nonzero;stroke:none" id="path49315" d="M 0,0 C 0.898,0.789 1.191,2.003 0.857,3.057 0.605,3.309 0.311,3.509 -0.017,3.646 -1.494,4.271 -3.152,3.423 -3.479,1.693 -3.633,0.88 -3.592,0.226 -3.388,-0.349 -2.315,-0.916 -0.952,-0.836 0,0"/></g><g id="g49317" transform="translate(133.7881,49.8047)"><path style="fill:#448d8e;fill-opacity:1;fill-rule:nonzero;stroke:none" id="path49319" d="m 0,0 c 0.333,-1.054 0.041,-2.268 -0.857,-3.057 -0.952,-0.836 -2.315,-0.916 -3.388,-0.348 0.231,-0.648 0.673,-1.194 1.316,-1.733 1.213,-1.015 3.22,-0.201 3.639,1.888 C 1.014,-1.734 0.667,-0.667 0,0"/></g><g id="g49321" transform="translate(132.9312,46.748)"><path style="fill:#5ba2a4;fill-opacity:1;fill-rule:nonzero;stroke:none" id="path49323" d="M 0,0 C 0.897,0.789 1.19,2.003 0.857,3.057 0.604,3.309 0.311,3.509 -0.017,3.647 -1.495,4.271 -3.152,3.423 -3.479,1.693 -3.633,0.88 -3.593,0.226 -3.388,-0.349 -2.315,-0.916 -0.952,-0.836 0,0"/></g><g id="g49325" transform="translate(153.5078,129.6113)"><path style="fill:#448d8e;fill-opacity:1;fill-rule:nonzero;stroke:none" id="path49327" d="m 0,0 c 0.333,-1.054 0.041,-2.267 -0.857,-3.056 -0.952,-0.837 -2.315,-0.916 -3.388,-0.348 0.231,-0.649 0.673,-1.194 1.316,-1.733 C -1.716,-6.153 0.29,-5.339 0.709,-3.25 1.014,-1.733 0.667,-0.667 0,0"/></g><g id="g49329" transform="translate(152.6504,126.5557)"><path style="fill:#5ba2a4;fill-opacity:1;fill-rule:nonzero;stroke:none" id="path49331" d="M 0,0 C 0.898,0.789 1.191,2.002 0.857,3.056 0.605,3.309 0.311,3.508 -0.017,3.646 -1.494,4.271 -3.152,3.422 -3.479,1.692 -3.632,0.88 -3.592,0.226 -3.388,-0.349 -2.315,-0.916 -0.951,-0.837 0,0"/></g><g id="g49333" transform="translate(166.7925,153.5283)"><path style="fill:#448d8e;fill-opacity:1;fill-rule:nonzero;stroke:none" id="path49335" d="m 0,0 c 0.333,-1.054 0.041,-2.267 -0.857,-3.057 -0.952,-0.836 -2.315,-0.915 -3.388,-0.348 0.231,-0.648 0.673,-1.193 1.316,-1.732 1.213,-1.016 3.22,-0.202 3.639,1.887 C 1.014,-1.734 0.667,-0.667 0,0"/></g><g id="g49337" transform="translate(165.9355,150.4717)"><path style="fill:#5ba2a4;fill-opacity:1;fill-rule:nonzero;stroke:none" id="path49339" d="M 0,0 C 0.897,0.79 1.19,2.003 0.857,3.057 0.605,3.309 0.311,3.509 -0.017,3.647 -1.494,4.271 -3.152,3.423 -3.479,1.693 -3.633,0.88 -3.592,0.226 -3.388,-0.349 -2.315,-0.915 -0.952,-0.836 0,0"/></g><g id="g49341" transform="translate(107.1626,185.4092)"><path style="fill:#448d8e;fill-opacity:1;fill-rule:nonzero;stroke:none" id="path49343" d="m 0,0 c 0.333,-1.054 0.041,-2.267 -0.857,-3.056 -0.952,-0.837 -2.315,-0.916 -3.388,-0.348 0.231,-0.649 0.673,-1.194 1.316,-1.733 C -1.716,-6.153 0.29,-5.339 0.709,-3.25 1.014,-1.733 0.667,-0.667 0,0"/></g><g id="g49345" transform="translate(106.3052,182.3535)"><path style="fill:#5ba2a4;fill-opacity:1;fill-rule:nonzero;stroke:none" id="path49347" d="M 0,0 C 0.898,0.789 1.191,2.002 0.857,3.056 0.605,3.308 0.311,3.508 -0.017,3.646 -1.494,4.271 -3.152,3.422 -3.479,1.692 -3.632,0.88 -3.592,0.226 -3.388,-0.349 -2.315,-0.916 -0.951,-0.837 0,0"/></g><g id="g49349" transform="translate(105.7729,125.626)"><path style="fill:#ec232a;fill-opacity:1;fill-rule:nonzero;stroke:none" id="path49351" d="m 0,0 c 0.334,-1.054 0.041,-2.267 -0.857,-3.056 -0.951,-0.837 -2.315,-0.916 -3.388,-0.348 0.231,-0.649 0.673,-1.194 1.316,-1.733 1.214,-1.016 3.22,-0.202 3.639,1.887 C 1.014,-1.733 0.667,-0.667 0,0"/></g><g id="g49353" transform="translate(104.916,122.5703)"><path style="fill:#ef3142;fill-opacity:1;fill-rule:nonzero;stroke:none" id="path49355" d="M 0,0 C 0.898,0.789 1.191,2.002 0.857,3.056 0.605,3.309 0.311,3.508 -0.017,3.646 -1.494,4.271 -3.152,3.422 -3.479,1.692 -3.633,0.88 -3.592,0.226 -3.388,-0.349 -2.315,-0.916 -0.951,-0.837 0,0"/></g><g id="g49357" transform="translate(65.9204,140.0342)"><path style="fill:#fabaac;fill-opacity:1;fill-rule:nonzero;stroke:none" id="path49359" d="m 0,0 c 0.95,-0.227 2.072,-0.458 3.06,-0.312 0.32,0.08 0.635,0.178 0.941,0.29 0.07,0.036 0.132,0.087 0.199,0.13 -0.612,0.678 -0.364,3.538 -0.364,3.538 0,0 0.95,0.236 1.351,0.629 C 5.642,4.724 6.3,6.507 4.964,9.109 3.456,12.047 1.642,10.99 1.172,11.114 -0.1,11.45 -1.976,10.521 -2.173,8.421 -2.283,7.258 -1.034,6.371 -0.249,4.536 0.2,3.486 0.098,1.228 0,0"/></g><g id="g49361" transform="translate(66.8745,142.5244)"><path style="fill:#462424;fill-opacity:1;fill-rule:nonzero;stroke:none" id="path49363" d="M 0,0 C 0,0 0.855,0.593 1.617,1.895 2.18,2.857 2.787,3.998 3.066,4.999 3.678,7.191 3.848,8.654 2.28,9.716 0.712,10.777 -2.693,9.241 -3.737,7.081 -4.646,5.202 -2.739,3.13 -1.034,0.979 -0.78,0.657 -0.432,0.202 0,0"/></g><g id="g49365" transform="translate(69.9404,147.5234)"><path style="fill:#fabaac;fill-opacity:1;fill-rule:nonzero;stroke:none" id="path49367" d="m 0,0 c 0,0 -1.312,1.093 -1.157,-0.42 0.144,-1.405 1.424,-1.431 1.424,-1.431 z"/></g><g id="g49369" transform="translate(78.5874,106.2852)"><path style="fill:#f68d84;fill-opacity:1;fill-rule:nonzero;stroke:none" id="path49371" d="m 0,0 c -1.73,-1.399 -3.799,-1.476 -5.221,-1.291 v -0.001 c 0.358,-1.712 0.305,-4.924 1.425,-7.844 1.119,-2.92 2.506,-5.878 2.629,-6.066 0.867,-1.334 3.046,0.1 3.046,0.1 0,0 -1.649,9.358 -1.75,13.358 C 0.116,-1.232 0.07,-0.642 0,0"/></g><g id="g49373" transform="translate(78.5874,106.2852)"><path style="fill:#462424;fill-opacity:1;fill-rule:nonzero;stroke:none" id="path49375" d="m 0,0 c -0.48,4.369 -2.112,11.078 -2.375,11.078 -0.302,0 -6.658,1.571 -7.823,0 C -9.594,7.312 -9.313,6.497 -8.206,3.93 -7.307,1.846 -5.58,0.42 -5.221,-1.291 -3.799,-1.476 -1.73,-1.399 0,0"/></g><g id="g49377" transform="translate(84.6563,129.7959)"><path style="fill:#fabaac;fill-opacity:1;fill-rule:nonzero;stroke:none" id="path49379" d="m 0,0 c 0,0 0.863,-1.112 4.195,-2.265 3.331,-1.152 9.261,-2.715 9.687,-2.876 1.043,-0.392 1.511,-1.067 2.35,-1.617 0.695,-0.454 1.359,-0.27 1.944,0.987 0.586,1.257 2.422,1.969 2.943,3.132 0.521,1.163 0.328,1.537 -0.45,1.967 -0.917,0.506 -1.138,-0.489 -1.372,-0.994 C 19.063,-2.172 16.74,-3.128 15.499,-2.628 14.975,-2.417 3.941,3.801 3.941,3.801 Z"/></g><g id="g49381" transform="translate(67.7085,141.0264)"><path style="fill:#fabaac;fill-opacity:1;fill-rule:nonzero;stroke:none" id="path49383" d="m 0,0 c 0,0 -2.659,-0.886 -3.968,-1.289 -1.309,-0.402 -0.993,-4.677 -0.206,-7.094 0.632,-1.937 2.097,-3.7 3.108,-6.721 1.011,-3.021 1.615,-4.841 1.615,-4.841 0,0 3.962,-0.232 5.639,0.898 2.114,1.426 3.524,3.23 3.524,3.23 0,0 -2.599,3.118 -2.821,3.898 -0.66,2.316 0.48,5.99 -0.023,7.199 C 6.364,-3.512 5.878,-0.213 3.968,0 2.059,0.213 0,0 0,0"/></g><g id="g49385" transform="translate(69.832,141.1816)"><path style="fill:#fabaac;fill-opacity:1;fill-rule:nonzero;stroke:none" id="path49387" d="m 0,0 c 0,0 1.195,-0.206 1.845,0.398 1.156,1.076 1.812,1.309 3.277,1.309 1.075,0 2.987,0.731 4.588,1.747 0.79,0.502 1.407,1.565 1.906,2.153 1.51,1.779 5.558,6.813 5.558,6.813 l 2.415,-0.692 c 0,0 -3.462,-6.806 -5.341,-9.028 C 12.61,0.765 10.29,-0.383 8.88,-1.389 8.196,-1.878 6.025,-2.675 5.355,-3.227 4.647,-3.811 4.15,-4.336 3.505,-5.275 2.252,-7.104 0.076,-2.853 0,0"/></g><g id="g49389" transform="translate(66.6426,140.2451)"><path style="fill:#fabaac;fill-opacity:1;fill-rule:nonzero;stroke:none" id="path49391" d="M 0,0 C 0,0 -0.481,0.232 -1.317,0.479 -1.974,0.673 -2.69,0.755 -3.612,0.378 -4.135,0.164 -4.699,-0.061 -5.681,-0.568 c -1.686,-0.873 -2.606,-1.537 -2.606,-1.537 0,0 0.384,0.559 0.988,2.686 0.604,2.126 0.92,4.362 0.92,4.362 L -8.2,5.211 c 0,0 -1.865,-3.846 -2.923,-6.544 -1.057,-2.699 -0.239,-2.921 -0.087,-4.034 0.073,-0.543 1.111,-0.573 2.136,-0.446 1.465,0.18 3.124,0.722 4.279,0.939 1.963,0.369 4.195,-1.774 4.195,-1.774 z"/></g><g id="g49393" transform="translate(68.8989,114.541)"><path style="fill:#ac424a;fill-opacity:1;fill-rule:nonzero;stroke:none" id="path49395" d="M 0,0 C 0,0 4.884,0.657 5.092,0.759 5.3,0.859 4.467,2.063 4.467,2.063 H -0.385 C -0.385,2.063 -0.769,0.954 0,0"/></g><g id="g49397" transform="translate(67.9966,121.8662)"><path style="fill:#5e3231;fill-opacity:1;fill-rule:nonzero;stroke:none" id="path49399" d="m 0,0 c 0,0 -0.313,-4.985 1.636,-7.055 2.655,-2.819 5.572,0.151 5.572,0.151 0,0 3.311,-1.125 6.168,1.672 2.341,2.291 3.313,4.788 3.782,6.551 0.805,3.031 1.367,5.322 1.367,5.322 l 2.403,1.606 -0.327,3.483 c 0,0 -1.563,0.954 -2.819,1.187 C 16.43,13.169 15.491,12.963 14.584,11.73 13.567,10.347 13.151,8.787 11.873,6.775 11.107,5.57 9.424,3.343 9.424,3.343 L 8.569,4.402 c 0,0 -1.378,-0.705 -3.462,-2.007 C 3.752,1.548 0,0 0,0"/></g><g id="g49401" transform="translate(99.4106,124.3955)"><path style="fill:#fff;fill-opacity:1;fill-rule:nonzero;stroke:none" id="path49403" d="m 0,0 c 0,0 0.773,0.302 1.244,0.864 0.471,0.562 0.317,1.963 0.317,1.963 0,0 1.517,0.466 2.111,0.866 0.594,0.4 0.751,1.245 1.297,1.682 C 5.514,5.812 6.408,5.978 6.727,4.971 7.045,3.964 6.964,2.844 6.008,1.912 5.052,0.98 4.462,-0.142 3.903,-1.092 3.344,-2.041 2.492,-2.188 1.729,-1.695 0.964,-1.202 0,0 0,0"/></g><g id="g49405" transform="translate(100.6704,127.1396)"><path style="fill:#5e3231;fill-opacity:1;fill-rule:nonzero;stroke:none" id="path49407" d="m 0,0 c 0,0 0.421,-1.006 0.203,-1.443 -0.219,-0.437 -1.245,-0.575 -1.586,-0.856 -0.342,-0.281 -0.355,-0.295 -0.413,-0.507 -0.059,-0.212 1.072,-0.555 1.072,-0.555 0,0 0.829,0.613 1.265,1.517 0.436,0.906 0.161,2.038 0.161,2.038 0,0 -0.48,0.097 -0.702,-0.194"/></g><g id="g49409" transform="translate(104.8696,130.1211)"><path style="fill:#5e3231;fill-opacity:1;fill-rule:nonzero;stroke:none" id="path49411" d="M 0,0 C 0,0 0.102,-0.128 0.453,-0.524 0.804,-0.921 1.1,-1.562 0.869,-2.284 0.638,-3.005 -0.106,-4.418 -0.755,-5.186 -1.404,-5.953 -1.763,-6.23 -2.6,-6.726 -3.217,-7.09 -3.471,-7.561 -3.471,-7.561 c 0,0 0.919,-0.327 1.386,-0.315 0.467,0.013 1.086,0.616 1.272,1.489 0.186,0.873 1.231,2.113 1.669,2.508 0.439,0.397 0.905,1.771 0.75,2.611 C 1.451,-0.428 1.219,0.269 0,0"/></g><g id="g49413" transform="translate(102.1099,127.6406)"><path style="fill:#fff;fill-opacity:1;fill-rule:nonzero;stroke:none" id="path49415" d="m 0,0 c 0,0 0.516,-0.737 0.72,-0.956 0.396,0.04 0.458,0.241 0.458,0.241 L 0.443,0.167 Z"/></g><g id="g49417" transform="translate(102.9824,128.0264)"><path style="fill:#fff;fill-opacity:1;fill-rule:nonzero;stroke:none" id="path49419" d="m 0,0 c 0,0 0.193,-0.251 0.702,-0.646 0.356,0.084 0.277,0.365 0.277,0.365 L 0.311,0.24 Z"/></g><g id="g49421" transform="translate(74.8779,136.835)"><path style="fill:#fff;fill-opacity:1;fill-rule:nonzero;stroke:none" id="path49423" d="m 0,0 c -0.176,0.259 -0.318,0.384 -0.436,0.446 -0.111,-0.114 -0.446,-0.537 -0.559,-0.648 0.074,-0.386 0.117,-0.675 -0.062,-1.572 -0.208,-1.047 -1.095,-1.464 -2.144,-0.34 -1.13,1.209 -1.295,6.461 -1.295,6.461 h -0.55 c 0,0 0,-2.761 -1.061,-3.327 -0.86,-0.459 -2.522,-0.616 -2.749,0.895 -0.227,1.511 -0.055,1.981 -0.055,1.981 L -9.553,3.889 c 0,0 -0.435,-2.809 -0.662,-4.395 -0.226,-1.586 -0.719,-3.02 -1.301,-3.095 0.279,-1.96 2.318,-4.503 3.161,-6.965 0,0 3.266,0.888 5.154,1.554 1.888,0.667 2.922,1.284 2.922,1.284 0,0 0.091,3.353 0.128,4.827 C 0.36,-1.644 0.496,-0.729 0,0"/></g><g id="g49425" transform="translate(70.1357,141.1211)"><path style="fill:#5e3231;fill-opacity:1;fill-rule:nonzero;stroke:none" id="path49427" d="m 0,0 c 0,0 0.035,-3.317 0.488,-5.079 0.453,-1.762 1.701,-3.128 2.714,-2.445 1.012,0.683 0.546,3.036 0.546,3.036 L 3.202,-5.215 c 0,0 0.195,-0.431 0,-1.028 C 3.005,-6.841 2.561,-7.244 1.927,-6.489 1.294,-5.733 1.092,-4.122 0.992,-2.864 0.891,-1.605 0.626,0.061 0.626,0.061 Z"/></g><g id="g49429" transform="translate(65.0156,140.8037)"><path style="fill:#5e3231;fill-opacity:1;fill-rule:nonzero;stroke:none" id="path49431" d="m 0,0 c 0,0 -0.36,-2.9 -0.512,-4.071 -0.151,-1.171 -0.757,-2.673 -1.233,-3.136 0.091,-0.362 0.091,-0.362 0.166,-0.651 0.227,0.076 1.209,0.744 1.586,2.518 0.378,1.776 0.566,5.264 0.566,5.264 z"/></g><g id="g49433" transform="translate(73.9907,132.9453)"><path style="fill:#f7eccb;fill-opacity:1;fill-rule:nonzero;stroke:none" id="path49435" d="m 0,0 c 0,0 -1.092,-0.579 -1.928,-0.881 -0.835,-0.302 -2.231,-0.973 -2.231,-0.973 0,0 1.9,0.167 2.856,0.52 C -0.346,-0.981 0,0 0,0"/></g><g id="g49437" transform="translate(67.811,122.4238)"><path style="fill:#fcd691;fill-opacity:1;fill-rule:nonzero;stroke:none" id="path49439" d="m 0,0 0.186,-1.362 c 0,0 1.67,0.352 4.641,1.751 2.97,1.398 4.388,2.884 4.388,2.884 L 8.423,4.261 C 8.423,4.261 6.18,2.858 4.1,1.787 2.163,0.789 0,0 0,0"/></g><g id="g49441" transform="translate(88.5977,133.5967)"><path style="fill:#fcd691;fill-opacity:1;fill-rule:nonzero;stroke:none" id="path49443" d="M 0,0 C 0,0 0,-1.578 -0.544,-2.887 -0.843,-3.604 -2.076,-5.09 -2.076,-5.09 l 1.536,-0.683 c 0,0 0.676,0.314 1.419,1.903 0.674,1.441 0.636,2.292 0.485,3.102 z"/></g><g id="g49445" transform="translate(73.271,105.3486)"><path style="fill:#fcd691;fill-opacity:1;fill-rule:nonzero;stroke:none" id="path49447" d="m 0,0 0.278,-1.592 c 0,0 1.442,-0.416 2.84,0 1.397,0.416 2.32,0.985 2.32,0.985 0,0 0.151,1.128 -0.122,1.735 C 4.854,0.941 4.354,0.259 2.773,-0.043 1.192,-0.345 0,0 0,0"/></g><g id="g49449" transform="translate(77.0327,91.6143)"><path style="fill:#fff;fill-opacity:1;fill-rule:nonzero;stroke:none" id="path49451" d="m 0,0 c 0,0 -0.992,-2.071 -0.884,-3.054 0.107,-0.982 1.826,-1.746 2.381,-2.274 0.554,-0.528 0.044,-1.744 1.215,-2.79 1.172,-1.046 3.367,-0.589 3.679,-0.356 0.82,0.617 -0.721,1.251 -1.49,3.494 -0.77,2.243 -1.439,4.54 -1.439,4.54 0,0 -0.465,-0.388 -0.693,-0.432 C 2.405,-0.943 1.945,-0.168 1.358,0.146 0.679,0.508 0,0 0,0"/></g><g id="g49453" transform="translate(76.395,89.9473)"><path style="fill:#5e3231;fill-opacity:1;fill-rule:nonzero;stroke:none" id="path49455" d="m 0,0 c 0,0 0.52,0.287 1.341,0.09 0.822,-0.198 1.205,-1.02 1.595,-1.875 0.39,-0.856 0.952,-1.92 1.327,-2.299 0.375,-0.378 1.474,-1.55 2.103,-1.648 C 6.995,-5.831 7.706,-6.4 7.345,-6.85 6.984,-7.3 5.686,-7.507 4.695,-7.315 3.703,-7.124 2.679,-6.551 2.475,-5.972 2.27,-5.392 1.937,-4.027 1.83,-3.861 1.454,-3.277 0.203,-2.778 -0.272,-2.212 -0.749,-1.646 0,0 0,0"/></g><g id="g49457" transform="translate(81.0483,89.3496)"><path style="fill:#fff;fill-opacity:1;fill-rule:nonzero;stroke:none" id="path49459" d="m 0,0 -0.613,-0.346 0.295,-0.803 0.58,0.319 z"/></g><g id="g49461" transform="translate(81.4741,88.0117)"><path style="fill:#fff;fill-opacity:1;fill-rule:nonzero;stroke:none" id="path49463" d="m 0,0 -0.517,-0.252 0.353,-0.768 0.417,0.252 z"/></g><g id="g49465" transform="translate(76.9165,91.3584)"><path style="fill:#5e3231;fill-opacity:1;fill-rule:nonzero;stroke:none" id="path49467" d="M 0,0 C 0,0 -0.303,0.353 0,0.769 0.303,1.185 1.549,1.163 2.078,0.532 2.606,-0.1 3.579,-0.185 3.579,-0.185 l 0.133,-0.451 c 0,0 -0.464,-0.358 -1.068,-0.208 C 2.04,-0.692 1.17,0.176 0,0"/></g><g id="g49469" transform="translate(74.4419,137.2812)"><path style="fill:#f68d84;fill-opacity:1;fill-rule:nonzero;stroke:none" id="path49471" d="m 0,0 c 0,0 -1.201,-0.272 -1.704,-0.987 -0.502,-0.716 0.6,-1.416 0.6,-1.416 z"/></g><g id="g49473" transform="translate(86.7305,153.2588)"><path style="fill:#fff;fill-opacity:1;fill-rule:nonzero;stroke:none" id="path49475" d="M 0,0 C 0,0 -0.147,1.862 0.055,3.172 0.256,4.482 -0.157,4.936 0.276,4.985 0.709,5.036 0.86,4.835 0.86,4.104 0.86,3.375 1.011,3.072 1.313,3.476 1.615,3.878 2.055,5.205 2.691,5.348 3.327,5.489 4.845,5.024 4.615,3.722 4.384,2.418 3.954,1.46 3.323,0.556 2.691,-0.35 2.319,-1.068 2.319,-1.068 Z"/></g><g id="g49477" transform="translate(86.709,153.6016)"><path style="fill:#5e3231;fill-opacity:1;fill-rule:nonzero;stroke:none" id="path49479" d="m 0,0 -0.522,-1.017 c 0,0 0.799,-0.105 1.303,-0.394 0.503,-0.289 1.151,-0.956 1.151,-0.956 l 0.533,1.183 C 2.465,-1.184 1.687,0.24 0,0"/></g><g id="g49481" transform="translate(58.2739,145.6982)"><path style="fill:#fff;fill-opacity:1;fill-rule:nonzero;stroke:none" id="path49483" d="m 0,0 c 0,0 0.788,-0.072 1.198,-0.235 0.612,-0.245 0.739,-0.683 0.739,-0.683 0,0 1.362,0.461 1.654,0.859 0.292,0.398 0.335,0.86 0.408,1.411 C 4.072,1.902 3.95,2.4 3.7,2.294 3.43,2.179 3.319,1.967 3.333,1.576 3.337,1.43 3.164,0.812 2.897,0.893 2.762,0.935 2.559,1.422 2.53,1.75 2.489,2.212 2.481,2.565 2.888,2.784 c 0.406,0.22 0.808,0 0.808,0 0,0 -0.037,0.761 -0.731,0.815 C 2.741,3.73 2.378,4.034 1.92,3.935 1.3,4.067 1.001,4.155 0.667,3.952 0.349,3.759 -0.075,2.742 -0.067,2.035 -0.06,1.395 0,0 0,0"/></g><g id="g49485" transform="translate(58.2788,145.7773)"><path style="fill:#5e3231;fill-opacity:1;fill-rule:nonzero;stroke:none" id="path49487" d="m 0,0 -0.058,-0.704 c 0,0 0.587,-0.108 0.99,-0.293 0.402,-0.187 0.918,-0.49 0.918,-0.49 l 0.257,0.552 C 2.107,-0.935 1.586,0.151 0,0"/></g><g id="g49489" transform="translate(63.0811,151.1064)"><path style="fill:#fff;fill-opacity:1;fill-rule:nonzero;stroke:none" id="path49491" d="M 0,0 C 0,0 1.093,-0.014 1.584,-0.467 2.075,-0.92 1.699,-2.183 1.095,-2.56 0.491,-2.938 -0.491,-2.241 -0.491,-2.241 Z"/></g><g id="g49493" transform="translate(62.9077,151.4287)"><path style="fill:#462424;fill-opacity:1;fill-rule:nonzero;stroke:none" id="path49495" d="m 0,0 c -0.721,0.172 -2.01,-0.589 -2.093,-1.882 -0.082,-1.294 1.268,-2.687 1.368,-3.714 0.1,-1.025 -0.882,-2.384 -0.882,-3.404 0,-1.02 1.073,-1.944 1.311,-2.559 0.237,-0.613 -0.422,-1.217 -0.422,-1.217 0,0 1.18,0.266 1.399,1.217 0.301,1.312 -1.129,2.283 -0.368,3.233 0.761,0.95 1.425,2.23 1.462,3.891 C 1.813,-2.773 1.983,-0.472 0,0"/></g><g id="g49497" transform="translate(71.6768,128.2041)"><path style="fill:#fff;fill-opacity:1;fill-rule:nonzero;stroke:none" id="path49499" d="m 0,0 c 0,0 2.553,-5.488 5.105,-7.283 2.552,-1.795 4.364,-0.194 4.364,-0.194 l -0.517,0.796 c 0,0 -0.25,-1.226 -2.579,-0.442 -2.329,0.784 -5.631,7.185 -5.631,7.185 z"/></g><g id="g49501" transform="translate(77.4209,125.209)"><path style="fill:#ac424a;fill-opacity:1;fill-rule:nonzero;stroke:none" id="path49503" d="M 0,0 C 0,0 0.193,1.331 1.167,1.476 2.14,1.62 5.709,-2.378 5.916,-5.155 6.122,-7.934 4.388,-8.781 3.952,-8.575 4.347,-6.91 2.966,-1.431 0,0"/></g><g id="g49505" transform="translate(67.2256,126.375)"><path style="fill:#fff;fill-opacity:1;fill-rule:nonzero;stroke:none" id="path49507" d="M 0,0 C -0.025,-0.075 -0.151,-2.315 -0.327,-4.203 -0.503,-6.092 -0.579,-7.3 -0.126,-7.854 0.327,-8.407 1.076,-8.63 1.076,-8.63 l -0.094,0.727 c 0,0 -0.453,0.16 -0.677,0.603 -0.355,0.705 -0.014,4.849 0.123,5.966 0.137,1.117 0.157,1.436 0.157,1.436 z"/></g><g id="g49509" transform="translate(65.874,127.8848)"><path style="fill:#462424;fill-opacity:1;fill-rule:nonzero;stroke:none" id="path49511" d="m 0,0 0.769,-1.962 c 0,0 2.733,0.477 4.686,1.323 C 7.808,0.382 8.917,0.82 8.917,0.82 L 8.764,2.669 c 0,0 -2.727,-0.982 -4.806,-1.661 C 2.5,0.532 0,0 0,0"/></g><g id="g49513" transform="translate(69.2749,126.5352)"><path style="fill:#fff;fill-opacity:1;fill-rule:nonzero;stroke:none" id="path49515" d="M 0,0 C 0,0 0.389,-1.589 0.933,-3.918 1.477,-6.246 1.666,-8.79 1.666,-8.79 l 0.736,-0.532 c 0,0 -0.062,3.241 -0.736,5.941 -0.674,2.7 -0.965,3.593 -0.965,3.593 z"/></g><g id="g49517" transform="translate(73.231,128.0605)"><path style="fill:#fff;fill-opacity:1;fill-rule:nonzero;stroke:none" id="path49519" d="M 0,0 C 0,0 1.022,-1.702 2.101,-1.27 3.181,-0.836 3.283,0.026 2.78,0.631 2.276,1.235 1.497,1.414 1.497,1.414 L 1.536,0.98 c 0,0 1.63,-0.702 0.753,-1.476 C 1.354,-1.322 0.423,0.178 0.423,0.178 Z"/></g><g id="g49521" transform="translate(42.9526,121.9023)"><path style="fill:#e9b66a;fill-opacity:1;fill-rule:nonzero;stroke:none" id="path49523" d="M 0,0 C -0.07,-0.249 -0.197,-0.494 -0.394,-0.729 -2.297,-3.002 -6.54,-1.053 -7.82,1.37 -7.855,0.478 -7.167,-0.7 -6.242,-1.455 -4.438,-2.93 -2.92,-3.063 -1.322,-2.706 0.408,-2.319 1.186,-1.307 0,0"/></g><g id="g49525" transform="translate(42.5586,121.1729)"><path style="fill:#fcd691;fill-opacity:1;fill-rule:nonzero;stroke:none" id="path49527" d="M 0,0 C 0.197,0.235 0.324,0.48 0.394,0.729 0.068,1.09 -0.398,1.47 -1.044,1.867 -2.22,2.591 -3.679,3.497 -6.015,3.32 -6.997,3.245 -7.4,2.747 -7.426,2.1 -6.146,-0.323 -1.903,-2.272 0,0"/></g><g id="g49529" transform="translate(28.4888,114.6045)"><path style="fill:#4971be;fill-opacity:1;fill-rule:nonzero;stroke:none" id="path49531" d="m 0,0 c -0.067,-0.25 -0.191,-0.497 -0.385,-0.734 -1.876,-2.295 -6.142,-0.397 -7.45,2.011 -0.025,-0.892 0.677,-2.062 1.61,-2.806 1.822,-1.453 3.341,-1.57 4.934,-1.194 C 0.436,-2.314 1.201,-1.293 0,0"/></g><g id="g49533" transform="translate(28.1035,113.8701)"><path style="fill:#5d82ca;fill-opacity:1;fill-rule:nonzero;stroke:none" id="path49535" d="M 0,0 C 0.194,0.237 0.318,0.484 0.385,0.734 0.055,1.09 -0.416,1.465 -1.066,1.854 -2.251,2.563 -3.721,3.453 -6.054,3.248 -7.035,3.162 -7.432,2.659 -7.45,2.012 -6.142,-0.396 -1.875,-2.295 0,0"/></g><g id="g49537" transform="translate(40.8555,184.9082)"><path style="fill:#4971be;fill-opacity:1;fill-rule:nonzero;stroke:none" id="path49539" d="M 0,0 C -0.084,-0.31 -0.443,-0.528 -1.312,-0.81 -4.81,-1.942 -7.74,-0.155 -9.1,1.585 c -0.254,-1.32 0.615,-3.06 1.807,-4.341 1.969,-2.116 4.251,-2.66 6.019,-1.661 C 0.665,-3.322 1.49,-1.604 0,0"/></g><g id="g49541" transform="translate(40.377,183.9971)"><path style="fill:#5d82ca;fill-opacity:1;fill-rule:nonzero;stroke:none" id="path49543" d="m 0,0 c 0.241,0.295 0.395,0.602 0.479,0.911 -0.411,0.442 -2.283,2.173 -3.09,2.657 -1.47,0.88 -4.717,1.837 -6,-0.806 C -9.145,1.663 -2.327,-2.847 0,0"/></g><g id="g49545" transform="translate(17.5771,166.4795)"><path style="fill:#f68d84;fill-opacity:1;fill-rule:nonzero;stroke:none" id="path49547" d="m 0,0 c 0,0 0.097,3.691 1.992,5.478 1.895,1.786 4.893,2.16 4.893,2.16 l 3.442,1.617 c 0,0 1.742,3.354 2.88,5.016 1.218,1.778 1.774,2.749 1.774,2.749 0,0 2.109,-0.402 1.934,-1.509 C 16.74,14.403 14.755,10.503 14.151,8.271 13.837,7.113 13.131,6.95 12.783,6.12 12.535,5.527 11.769,5.706 11.243,5.553 9.703,5.104 7.535,3.762 6.777,3.091 6.02,2.419 0,0 0,0"/></g><g id="g49549" transform="translate(34.2725,188.4062)"><path style="fill:#ef3142;fill-opacity:1;fill-rule:nonzero;stroke:none" id="path49551" d="m 0,0 c -0.748,-0.469 -1.441,-0.932 -1.687,-1.1 -0.245,-0.168 -0.007,-1.482 -0.046,-2.132 -0.039,-0.651 0.003,-1.854 0.003,-1.854 0,0 0.384,0.122 1.035,-0.123 0.461,-0.174 1.026,-0.844 1.026,-0.844 0,0 1.173,0.594 1.22,1.376 0.047,0.782 0.444,1.933 0.586,2.491 0.142,0.559 0.23,0.833 -0.405,0.54 C 1.097,-1.94 0.97,-2.872 0.69,-2.81 0.41,-2.748 0.312,-1.325 0.366,-0.858 0.42,-0.392 1.524,-0.618 1.486,0 1.448,0.618 0.87,0.547 0,0"/></g><g id="g49553" transform="translate(32.5347,183.5869)"><path style="fill:#5e3231;fill-opacity:1;fill-rule:nonzero;stroke:none" id="path49555" d="m 0,0 -0.335,-0.643 c 0,0 0.638,0.038 1.129,-0.278 0.492,-0.316 1.088,-0.993 1.088,-0.993 l 0.509,0.817 c 0,0 -0.374,0.708 -1.101,1.021 C 0.562,0.237 0,0 0,0"/></g><g id="g49557" transform="translate(25.5063,177.8408)"><path style="fill:#fabaac;fill-opacity:1;fill-rule:nonzero;stroke:none" id="path49559" d="M 0,0 C 0.398,-0.276 2.464,0.098 2.88,-3.178 3.248,-6.08 2.03,-7.552 1.44,-7.798 1.115,-7.933 -0.044,-7.929 -0.044,-7.929 c 0,0 -0.149,-1.793 0.367,-2.498 -0.428,-0.804 -2.028,-0.97 -3.519,-0.949 -1.425,0.021 -1.84,1.188 -1.84,1.188 0,0 1.38,1.304 1.29,2.912 -0.111,1.993 -0.817,4.831 -0.318,5.886 C -3.161,0.517 -1.082,0.751 0,0"/></g><g id="g49561" transform="translate(28.0557,139.3926)"><path style="fill:#fabaac;fill-opacity:1;fill-rule:nonzero;stroke:none" id="path49563" d="m 0,0 c -0.126,1.569 -1.998,12.124 -1.998,12.124 0,0 -5.904,-0.375 -5.983,-3.06 -0.079,-2.683 3.17,-11.61 3.725,-13.141 0.253,-0.698 -0.983,-0.598 -2.03,-3.883 -0.043,-0.132 -0.088,-0.328 -0.135,-0.567 -0.304,-1.552 -0.678,-5.084 -0.745,-7.21 -0.048,-1.508 -0.959,-4.367 -0.835,-5.635 0.142,-1.447 1.635,-2.291 2.159,-2.597 0.019,-0.011 0.038,-0.018 0.057,-0.029 0.195,0.055 0.384,0.123 0.56,0.229 0.394,0.237 0.795,0.787 1.188,1.524 -0.408,0.698 -0.963,1.434 -0.95,1.66 0.088,1.587 1.305,4.305 2.13,6.373 0.24,0.602 0.87,1.963 1.531,3.52 0.886,2.084 1.826,4.517 1.963,5.957 C 0.749,-3.546 0.126,-1.569 0,0"/></g><g id="g49565" transform="translate(38.2148,141.7275)"><path style="fill:#fabaac;fill-opacity:1;fill-rule:nonzero;stroke:none" id="path49567" d="m 0,0 c -1.079,1.02 -8.302,7.611 -8.302,7.611 0,0 -5.478,-2.883 -3.094,-5.776 2.384,-2.894 7.741,-5.969 7.741,-5.969 0,0 -0.849,-1.56 -0.977,-3.888 -0.035,-0.619 -0.029,-1.28 0.07,-1.995 0.289,-2.079 1.037,-10.706 1.037,-10.706 l 2.794,2.163 c 0,0 0.976,7.479 1.579,11.841 0.188,1.358 0.34,2.417 0.415,2.851 C 1.659,-1.573 1.36,-1.285 0,0"/></g><g id="g49569" transform="translate(25.0981,124.9316)"><path style="fill:#fff;fill-opacity:1;fill-rule:nonzero;stroke:none" id="path49571" d="m 0,0 c -0.089,0.078 -0.178,0.152 -0.269,0.24 -1.186,1.138 -2.314,1.335 -3.781,0.967 -0.077,-0.899 -0.136,-1.771 -0.158,-2.483 -0.048,-1.508 -0.959,-4.368 -0.835,-5.635 0.141,-1.447 1.634,-2.291 2.159,-2.597 0.019,-0.012 0.037,-0.018 0.056,-0.029 0.195,0.055 0.385,0.123 0.561,0.229 0.393,0.237 0.795,0.787 1.187,1.524 -0.408,0.698 -0.962,1.434 -0.949,1.66 C -1.945,-4.599 -0.82,-2.034 0,0"/></g><g id="g49573" transform="translate(33.8989,129.5361)"><path style="fill:#fff;fill-opacity:1;fill-rule:nonzero;stroke:none" id="path49575" d="m 0,0 c 0.337,-3.297 0.791,-8.531 0.791,-8.531 l 2.794,2.163 c 0,0 0.437,3.348 0.907,6.87 C 3.196,-0.314 1.534,-0.406 0,0"/></g><g id="g49577" transform="translate(18.0747,146.9902)"><path style="fill:#462424;fill-opacity:1;fill-rule:nonzero;stroke:none" id="path49579" d="m 0,0 c 0,0 0.228,-1.954 1.334,-4.035 1.107,-2.08 1.411,-2.754 2.664,-4.444 0.878,-1.186 1.727,-3.196 1.727,-3.196 0,0 1.667,-0.125 2.516,-0.008 1.118,0.155 2.319,0.546 2.319,0.546 0,0 -0.824,8.282 -1.207,10.303 C 8.97,1.187 7.887,2.712 7.887,2.712 Z"/></g><g id="g49581" transform="translate(30.3403,150.5635)"><path style="fill:#5e3231;fill-opacity:1;fill-rule:nonzero;stroke:none" id="path49583" d="m 0,0 c 0,0 2.553,-2.02 5.026,-4.362 2.398,-2.272 3.355,-4.282 3.355,-4.282 0,0 -0.315,-1.241 -1.404,-2.398 -0.973,-1.032 -3.528,-1.939 -3.528,-1.939 0,0 -4.267,1.309 -6.38,4.38 -1.899,-0.15 -3.64,0.664 -4.581,1.561 -1.694,-0.249 -3.022,-0.007 -3.943,1.096 -1.473,1.766 -0.517,5.041 -0.517,5.041 z"/></g><g id="g49585" transform="translate(18.4604,150.4502)"><path style="fill:#fff;fill-opacity:1;fill-rule:nonzero;stroke:none" id="path49587" d="m 0,0 -0.092,-0.79 c 0,0 2.246,-1.763 6.093,-1.418 4.464,0.4 5.879,2.321 5.879,2.321 L 11.452,0.65 C 11.452,0.65 3.281,-1.199 0,0"/></g><g id="g49589" transform="translate(29.3384,163.8643)"><path style="fill:#ef3142;fill-opacity:1;fill-rule:nonzero;stroke:none" id="path49591" d="m 0,0 c -0.699,0.961 -0.473,2.399 -1.127,3.081 -0.824,0.858 -1.482,0.477 -1.912,0.703 -1.423,0.096 -3.02,-0.699 -4.389,-0.257 -0.656,0.212 -0.333,1.852 -0.264,2.291 -0.329,0.19 -1.173,0.5 -2.562,-0.583 -0.695,-0.541 -1.858,-1.369 -1.856,-6.733 0,-1.718 0.555,-3.306 0.831,-5.248 0.505,-3.562 0.404,-6.643 0.401,-6.668 2.308,-1.889 8.827,-1.668 11.452,0.65 C 0.032,-10.803 -0.114,-10.048 0,-8.089 0.312,-2.716 0.484,-0.665 0,0"/></g><g id="g49593" transform="translate(22.1616,170.2715)"><path style="fill:#462424;fill-opacity:1;fill-rule:nonzero;stroke:none" id="path49595" d="m 0,0 c 0,0 -2.857,1.219 -2.919,4.429 -0.048,2.5 0.52,3.79 1.85,3.985 0.567,1.905 3.409,1.235 3.766,1.183 C 3.055,9.544 4.444,9.526 4.973,10.13 5.125,9.735 5.248,9.337 4.645,8.844 4.963,8.639 6.03,8.414 6.672,8.657 6.88,8.441 6.596,7.638 5.841,7.336 5.96,7.125 6.408,6.883 6.974,7.13 7.074,6.431 6.031,5.386 5.248,5.103 4.586,3.533 3.389,1.865 2.127,1.001 0.455,-0.146 0,0 0,0"/></g><g id="g49597" transform="translate(26.9463,173.4619)"><path style="fill:#fabaac;fill-opacity:1;fill-rule:nonzero;stroke:none" id="path49599" d="m 0,0 c 0,0 -0.861,1.475 -1.23,0 -0.344,-1.37 0.85,-1.83 0.85,-1.83 z"/></g><g id="g49601" transform="translate(20.9927,151.1523)"><path style="fill:#ec232a;fill-opacity:1;fill-rule:nonzero;stroke:none" id="path49603" d="m 0,0 c 0,0 0.445,-0.746 2.671,-0.767 2.226,-0.02 3.623,0.657 3.623,0.657 0,0 -0.887,0.437 -2.538,0.417 C 2.105,0.287 0,0 0,0"/></g><g id="g49605" transform="translate(23.0874,119.2656)"><path style="fill:#462424;fill-opacity:1;fill-rule:nonzero;stroke:none" id="path49607" d="m 0,0 c 0,0 -0.013,-0.578 -0.389,-1.14 -0.377,-0.561 -0.628,-0.685 -0.628,-0.685 0,0 0.726,-0.699 1.339,-0.509 0.614,0.191 0.348,0.793 0.348,0.793 0,0 0.023,1.227 -0.67,1.541"/></g><g id="g49609" transform="translate(19.98,120.3809)"><path style="fill:#ef3142;fill-opacity:1;fill-rule:nonzero;stroke:none" id="path49611" d="m 0,0 c 0,0 1.203,-0.109 1.259,-1.133 0.057,-1.023 1.351,-2.083 1.891,-2.008 0.54,0.075 0.628,0.485 0.628,0.485 0,0 0.876,0.534 1.815,0.251 0.938,-0.283 1.447,-1.656 -0.172,-2.842 -1.619,-1.187 -3.022,-0.63 -3.78,-0.166 -1.159,0.71 -1.639,1.815 -2.458,2.824 -0.245,0.304 -0.636,0.41 -0.475,0.882 0.206,0.6 0.919,1.228 1.292,1.707"/></g><g id="g49613" transform="translate(23.3369,114.8369)"><path style="fill:#462424;fill-opacity:1;fill-rule:nonzero;stroke:none" id="path49615" d="m 0,0 c -1.777,0.505 -2.301,2.256 -3.433,3.505 -0.343,0.348 -0.555,0.387 -0.794,0.371 -1.018,-0.067 -0.365,-1.297 0.07,-1.881 2.069,-2.774 3.941,-2.557 4.38,-2.455 0.38,0.089 0.76,0.233 1.079,0.373 C 0.878,-0.142 0.443,-0.125 0,0"/></g><g id="g49617" transform="translate(23.7578,117.7246)"><path style="fill:#462424;fill-opacity:1;fill-rule:nonzero;stroke:none" id="path49619" d="m 0,0 c 0,0 0.353,-0.16 0.651,-0.677 0.161,-0.279 0.216,-0.84 0.216,-0.84 l 0.413,0.216 c 0,0 -0.038,1.092 -0.837,1.495 C 0.335,0.249 0,0 0,0"/></g><g id="g49621" transform="translate(34.3472,123.2178)"><path style="fill:#ef3142;fill-opacity:1;fill-rule:nonzero;stroke:none" id="path49623" d="m 0,0 c 0,0 -0.691,-1.811 0.03,-2.808 0.443,-0.613 1.471,-1.05 2.409,-0.543 0.938,0.509 1.186,0.624 2.854,1.955 1.019,0.812 2.079,1.728 1.776,3.184 C 6.828,2.944 5.892,2.622 5.404,2.459 4.428,2.134 3.354,1.276 3.354,1.276 3.354,1.276 3.203,0.33 2.288,-0.118 1.433,-0.536 0.7,0.118 0,0"/></g><g id="g49625" transform="translate(34.2021,120.7354)"><path style="fill:#462424;fill-opacity:1;fill-rule:nonzero;stroke:none" id="path49627" d="M 0,0 C 0,0 0.592,0.431 1.434,-0.063 2.38,-0.62 3.839,0.256 4.913,1.104 6.347,2.237 7.037,3.197 7.28,3.813 7.256,3.196 7.306,2.771 6.025,1.506 4.538,0.036 3.062,-0.96 1.949,-1.144 0.475,-1.388 0,0 0,0"/></g><g id="g49629" transform="translate(37.9019,124.6455)"><path style="fill:#462424;fill-opacity:1;fill-rule:nonzero;stroke:none" id="path49631" d="M 0,0 C 0,0 0.576,-0.121 0.934,-0.464 1.292,-0.807 1.42,-1.041 1.42,-1.041 l 0.288,0.243 c 0,0 -0.193,0.429 -0.591,0.711 C 0.719,0.196 0.358,0.251 0.358,0.251 Z"/></g><g id="g49633" transform="translate(36.8472,123.2236)"><path style="fill:#462424;fill-opacity:1;fill-rule:nonzero;stroke:none" id="path49635" d="m 0,0 c 0,0 0.816,1.642 0.842,1.939 0.026,0.297 0.031,0.358 0.031,0.358 0,0 0.628,-0.545 0.559,-1.168 C 1.322,0.141 0,0 0,0"/></g><g id="g49637" transform="translate(38.978,138.9805)"><path style="fill:#f68d84;fill-opacity:1;fill-rule:nonzero;stroke:none" id="path49639" d="m 0,0 c 0,0 -0.562,-0.257 -0.664,-0.834 -0.103,-0.578 0.334,-1.059 0.334,-1.059 0,0 0.459,1.25 0.33,1.893"/></g><g id="g49641" transform="translate(27.6606,133.7549)"><path style="fill:#f68d84;fill-opacity:1;fill-rule:nonzero;stroke:none" id="path49643" d="m 0,0 c 0,0 -0.845,-0.422 -0.979,-0.783 -0.133,-0.361 0.118,-1.17 0.118,-1.17 0,0 1.058,1.446 0.861,1.953"/></g><g id="g49645" transform="translate(21.7124,169.876)"><path style="fill:#462424;fill-opacity:1;fill-rule:nonzero;stroke:none" id="path49647" d="m 0,0 c 0,0 -0.913,-0.425 -0.859,-1.787 0.054,-1.362 1.149,-1.225 2.261,-1.001 1.111,0.225 3.185,0.56 3.185,0.56 l -0.646,0.441 c 0,0 -1.647,0.044 -2.565,-0.167 C 0.458,-2.164 -0.366,-1.566 0,0"/></g><g id="g49649" transform="translate(26.6436,167.5654)"><path style="fill:#fabaac;fill-opacity:1;fill-rule:nonzero;stroke:none" id="path49651" d="m 0,0 c -1.501,-0.572 -2.289,-2.367 -1.79,-5.312 0.558,-3.294 1.696,-4.236 3.023,-4.135 1.327,0.099 1.635,0.62 1.635,0.62 0,0 0.064,2.085 0.053,3.515 -0.012,1.699 0.958,2.876 0.348,4.209 C 2.827,-0.134 1.045,0.398 0,0"/></g><g id="g49653" transform="translate(29.5649,162.2539)"><path style="fill:#f68d84;fill-opacity:1;fill-rule:nonzero;stroke:none" id="path49655" d="m 0,0 c 0,0 -1.538,-0.756 -1.915,-1.813 -0.377,-1.058 -0.363,-2.331 -0.363,-2.331 0,0 1.368,-0.394 2.225,0.628 C 0.045,-2.108 0,0 0,0"/></g><g id="g49657" transform="translate(27.2871,160.1455)"><path style="fill:#fabaac;fill-opacity:1;fill-rule:nonzero;stroke:none" id="path49659" d="m 0,0 c 0,0 0.87,1.656 2.278,2.108 1.408,0.453 3.824,0.754 5.712,2.265 1.211,0.969 2.116,1.425 2.609,1.628 0.29,0.119 0.511,0.364 0.603,0.664 0.226,0.734 0.553,2.432 0.435,4.249 -0.172,2.644 -0.483,5.436 -0.629,6.342 -0.146,0.906 -2.16,2.665 -2.198,1.57 C 8.784,18.071 8.519,15.814 8.368,14.605 8.217,13.397 8.292,10.415 8.292,9.962 7.764,9.729 5.793,9.135 4.702,8.266 3.073,8.266 0.927,8.997 -0.644,7.42 -2.214,5.843 -2.224,1.406 0,0"/></g><g id="g49661" transform="translate(36.3477,179.3604)"><path style="fill:#ef3142;fill-opacity:1;fill-rule:nonzero;stroke:none" id="path49663" d="m 0,0 c 0,0 0.69,0.248 1.243,-0.057 0.552,-0.304 0.911,-1.121 0.911,-1.121 0,0 1.076,0.296 2.024,1.289 C 5.126,1.104 6.156,3.023 5.379,3.89 4.602,4.756 3.913,3.506 3.083,2.993 2.064,2.363 1.282,2.618 1.039,2.988 0.782,3.381 1.362,3.873 0.4,4.523 -0.413,5.073 -0.61,4.461 -0.35,3.886 -0.091,3.311 -0.07,2.626 -0.263,1.595 -0.35,1.131 0,0 0,0"/></g><g id="g49665" transform="translate(36.0967,178.9717)"><path style="fill:#5e3231;fill-opacity:1;fill-rule:nonzero;stroke:none" id="path49667" d="m 0,0 c 0,0 0.892,-0.008 1.428,-0.42 0.619,-0.476 0.77,-1.15 0.77,-1.15 l 0.509,0.747 c 0,0 0.042,1.147 -1.143,1.615 -1.071,0.424 -1.44,0.062 -1.44,0.062 z"/></g><g id="g49669" transform="translate(24.4619,152.8887)"><path style="fill:#fff;fill-opacity:1;fill-rule:nonzero;stroke:none" id="path49671" d="m 0,0 c 0,0 0.237,-3.625 1.071,-5.739 0.833,-2.115 3.395,-3.422 4.38,-4.028 0.984,-0.604 1.126,-0.641 1.126,-0.641 l 0.513,0.54 c 0,0 -2.206,0.957 -3.545,2.014 -1.339,1.057 -2.347,2.74 -2.474,4.667 C 0.943,-1.259 0.636,0 0.636,0 Z"/></g><g id="g49673" transform="translate(20.0435,153.4932)"><path style="fill:#fff;fill-opacity:1;fill-rule:nonzero;stroke:none" id="path49675" d="m 0,0 c 0,0 -1.129,-3.581 -2.211,-5.079 -1.007,-1.393 -1.189,-2.404 -0.711,-3.008 0.478,-0.604 1.268,-0.84 1.268,-0.84 l -0.053,0.601 c 0,0 -0.564,0.109 -0.759,0.623 -0.206,0.54 -0.333,0.393 0.934,2.407 1.268,2.015 2.172,5.183 2.172,5.183 z"/></g><g id="g49677" transform="translate(25.8774,152.7783)"><path style="fill:#fff;fill-opacity:1;fill-rule:nonzero;stroke:none" id="path49679" d="M 0,0 C 0,0 0.36,-1.899 1.467,-2.222 2.574,-2.543 3.768,-1.924 3.694,-0.836 3.622,0.251 2.967,0.855 2.967,0.855 L 2.416,0.604 c 0,0 0.668,-0.835 0.733,-1.33 0.077,-0.588 -0.607,-1.28 -1.594,-0.952 -0.986,0.328 -1.13,1.879 -1.13,1.879 z"/></g><g id="g49681" transform="translate(18.1831,156.1416)"><path style="fill:#462424;fill-opacity:1;fill-rule:nonzero;stroke:none" id="path49683" d="m 0,0 0.228,-2.871 c 0,0 2.984,-1.703 6.451,-1.08 3.467,0.623 4.529,1.176 4.529,1.176 L 11.177,0 c 0,0 -3.485,-1.062 -6.695,-0.949 C 2.283,-0.872 0,0 0,0"/></g><g id="g49685" transform="translate(27.4092,141.9629)"><path style="fill:#ac424a;fill-opacity:1;fill-rule:nonzero;stroke:none" id="path49687" d="m 0,0 c 0,0 1.877,-0.251 3.916,2.87 1.132,1.734 0.916,4.161 0.916,4.161 0,0 1.604,-0.668 2.417,-2.132 C 7.465,2.605 4.545,-2.24 1.663,-1.795 0.536,-1.142 0,0 0,0"/></g><g id="g49689" transform="translate(18.6201,153.1611)"><path style="fill:#fff;fill-opacity:1;fill-rule:nonzero;stroke:none" id="path49691" d="m 0,0 c 0,0 -0.618,-0.574 -0.92,-1.027 -0.302,-0.453 -0.189,-1.063 0.019,-1.211 0.208,-0.149 0.751,0 0.751,0 v 0.436 c 0,0 -0.506,-0.321 -0.562,0.019 -0.057,0.34 0.423,0.756 0.712,1.039 0.289,0.283 0.482,0.522 0.482,0.522 z"/></g><g id="g49693" transform="translate(19.9976,174.7373)"><path style="fill:#462424;fill-opacity:1;fill-rule:nonzero;stroke:none" id="path49695" d="m 0,0 -0.711,-0.62 c 0,0 0.723,-2.697 0,-3.852 -0.724,-1.154 -1.383,-1.547 -1.383,-1.547 0,0 0.805,-0.48 1.336,-0.307 0.532,0.172 1.231,0.436 1.231,0.436 0,0 -0.699,-1.51 -0.359,-2.077 0.339,-0.566 0.74,-0.906 0.74,-0.906 0,0 0.133,0.782 0.465,1.241 0.488,0.673 0.909,0.593 0.909,0.593 0,0 0.863,0.224 0.889,-0.61 0.016,-0.53 -0.323,-1.489 -0.323,-1.489 0,0 1.088,0.006 1.399,0.573 0.312,0.566 0.965,1.174 0.701,3.818 -0.162,1.617 0.813,2.605 0.813,2.605 z"/></g><g id="g49697" transform="translate(62.8271,171.0801)"><path style="fill:#f7eccb;fill-opacity:1;fill-rule:nonzero;stroke:none" id="path49699" d="m 0,0 c 0.373,-1.178 0.045,-2.533 -0.958,-3.415 -1.063,-0.935 -2.586,-1.023 -3.785,-0.39 0.258,-0.723 0.752,-1.333 1.471,-1.935 1.355,-1.136 3.597,-0.226 4.065,2.108 C 1.133,-1.937 0.746,-0.745 0,0"/></g><g id="g49701" transform="translate(61.8696,167.665)"><path style="fill:#fff;fill-opacity:1;fill-rule:nonzero;stroke:none" id="path49703" d="M 0,0 C 1.003,0.882 1.331,2.237 0.958,3.415 0.676,3.697 0.348,3.92 -0.019,4.075 -1.67,4.773 -3.522,3.824 -3.888,1.892 -4.059,0.983 -4.014,0.252 -3.786,-0.39 -2.587,-1.023 -1.063,-0.935 0,0"/></g><g id="g49705" transform="translate(99.8032,215.834)"><path style="fill:#f7eccb;fill-opacity:1;fill-rule:nonzero;stroke:none" id="path49707" d="m 0,0 c 0.373,-1.178 0.045,-2.533 -0.958,-3.416 -1.063,-0.935 -2.586,-1.023 -3.785,-0.39 0.258,-0.723 0.752,-1.333 1.47,-1.934 1.356,-1.136 3.598,-0.227 4.066,2.108 C 1.133,-1.938 0.746,-0.746 0,0"/></g><g id="g49709" transform="translate(98.8457,212.418)"><path style="fill:#fff;fill-opacity:1;fill-rule:nonzero;stroke:none" id="path49711" d="M 0,0 C 1.003,0.883 1.331,2.238 0.958,3.416 0.676,3.697 0.347,3.921 -0.019,4.075 -1.67,4.773 -3.522,3.825 -3.888,1.892 -4.06,0.983 -4.014,0.253 -3.786,-0.39 -2.587,-1.023 -1.063,-0.935 0,0"/></g><g id="g49713" transform="translate(101.0791,99.2627)"><path style="fill:#e9b66a;fill-opacity:1;fill-rule:nonzero;stroke:none" id="path49715" d="m 0,0 c -0.072,-0.254 -0.201,-0.504 -0.401,-0.742 -1.936,-2.313 -6.254,-0.33 -7.557,2.137 -0.036,-0.909 0.665,-2.108 1.605,-2.876 1.836,-1.5 3.381,-1.637 5.007,-1.274 C 0.416,-2.36 1.207,-1.33 0,0"/></g><g id="g49717" transform="translate(100.6782,98.5205)"><path style="fill:#fcd691;fill-opacity:1;fill-rule:nonzero;stroke:none" id="path49719" d="M 0,0 C 0.2,0.238 0.329,0.488 0.401,0.742 0.069,1.108 -0.405,1.495 -1.063,1.899 -2.26,2.636 -3.745,3.559 -6.122,3.378 -7.121,3.302 -7.531,2.795 -7.557,2.137 -6.254,-0.33 -1.937,-2.313 0,0"/></g><g id="g49721" transform="translate(137.4561,143.6104)"><path style="fill:#e9b66a;fill-opacity:1;fill-rule:nonzero;stroke:none" id="path49723" d="m 0,0 c -0.072,-0.254 -0.201,-0.504 -0.401,-0.743 -1.936,-2.313 -6.254,-0.329 -7.557,2.137 -0.036,-0.909 0.665,-2.107 1.605,-2.875 1.836,-1.501 3.381,-1.637 5.007,-1.274 C 0.416,-2.361 1.207,-1.33 0,0"/></g><g id="g49725" transform="translate(137.0552,142.8672)"><path style="fill:#fcd691;fill-opacity:1;fill-rule:nonzero;stroke:none" id="path49727" d="M 0,0 C 0.2,0.239 0.329,0.489 0.401,0.743 0.069,1.108 -0.406,1.496 -1.063,1.9 -2.26,2.637 -3.745,3.559 -6.122,3.379 -7.121,3.303 -7.531,2.796 -7.557,2.137 -6.254,-0.329 -1.937,-2.313 0,0"/></g><g id="g49729" transform="translate(151.7871,63.6943)"><path style="fill:#ec232a;fill-opacity:1;fill-rule:nonzero;stroke:none" id="path49731" d="m 0,0 c -0.125,0.174 -0.259,0.335 -0.4,0.495 -0.381,-0.734 -1.212,-0.929 -2.265,-0.96 -2.201,-0.066 -5.203,1.127 -6.147,2.838 -0.174,-1.374 0.952,-2.708 3.315,-3.534 1.832,-0.64 3.69,-0.964 4.835,-0.794 C 0.096,-1.842 0.787,-1.092 0,0"/></g><g id="g49733" transform="translate(149.1226,63.2295)"><path style="fill:#ef3142;fill-opacity:1;fill-rule:nonzero;stroke:none" id="path49735" d="M 0,0 C 1.052,0.031 1.883,0.226 2.265,0.96 1.607,1.704 0.707,2.394 -1.137,3.906 -3.376,5.743 -4.653,5.636 -5.758,3.916 -5.987,3.56 -6.101,3.198 -6.147,2.838 -5.204,1.127 -2.201,-0.066 0,0"/></g><g id="g49737" transform="translate(140.2007,124.7441)"><path style="fill:#448d8e;fill-opacity:1;fill-rule:nonzero;stroke:none" id="path49739" d="m 0,0 c 0.34,-1.072 0.042,-2.307 -0.872,-3.11 -0.968,-0.852 -2.356,-0.932 -3.448,-0.355 0.236,-0.659 0.685,-1.215 1.34,-1.763 1.234,-1.034 3.276,-0.206 3.703,1.92 C 1.032,-1.765 0.679,-0.679 0,0"/></g><g id="g49741" transform="translate(139.3286,121.6338)"><path style="fill:#5ba2a4;fill-opacity:1;fill-rule:nonzero;stroke:none" id="path49743" d="M 0,0 C 0.914,0.804 1.212,2.038 0.872,3.11 0.616,3.367 0.316,3.57 -0.017,3.712 -1.521,4.347 -3.208,3.483 -3.541,1.723 -3.697,0.896 -3.656,0.229 -3.448,-0.354 -2.356,-0.932 -0.968,-0.852 0,0"/></g><g id="g49745" transform="translate(140.0674,227.1816)"><path style="fill:#448d8e;fill-opacity:1;fill-rule:nonzero;stroke:none" id="path49747" d="m 0,0 c 0.34,-1.073 0.042,-2.308 -0.872,-3.11 -0.968,-0.852 -2.356,-0.933 -3.447,-0.356 0.235,-0.659 0.684,-1.214 1.339,-1.763 1.234,-1.034 3.276,-0.205 3.703,1.92 C 1.032,-1.765 0.68,-0.68 0,0"/></g><g id="g49749" transform="translate(139.1953,224.0713)"><path style="fill:#5ba2a4;fill-opacity:1;fill-rule:nonzero;stroke:none" id="path49751" d="M 0,0 C 0.914,0.803 1.212,2.037 0.872,3.11 0.616,3.366 0.317,3.57 -0.017,3.711 -1.521,4.347 -3.208,3.482 -3.541,1.723 -3.697,0.896 -3.656,0.229 -3.447,-0.355 -2.356,-0.933 -0.968,-0.852 0,0"/></g><g id="g49753" transform="translate(169.626,112.5605)"><path style="fill:#e9b66a;fill-opacity:1;fill-rule:nonzero;stroke:none" id="path49755" d="m 0,0 c -0.072,-0.253 -0.201,-0.503 -0.401,-0.742 -1.936,-2.313 -6.254,-0.329 -7.557,2.137 -0.036,-0.909 0.665,-2.107 1.605,-2.875 1.836,-1.501 3.38,-1.638 5.007,-1.274 C 0.415,-2.36 1.207,-1.33 0,0"/></g><g id="g49757" transform="translate(169.2246,111.8184)"><path style="fill:#fcd691;fill-opacity:1;fill-rule:nonzero;stroke:none" id="path49759" d="M 0,0 C 0.2,0.239 0.33,0.489 0.401,0.742 0.069,1.108 -0.405,1.496 -1.063,1.9 -2.259,2.636 -3.745,3.559 -6.122,3.378 -7.12,3.303 -7.531,2.795 -7.557,2.137 -6.254,-0.329 -1.936,-2.313 0,0"/></g><g id="g49761" transform="translate(167.3037,79.4111)"><path style="fill:#e9b66a;fill-opacity:1;fill-rule:nonzero;stroke:none" id="path49763" d="m 0,0 c -0.081,-0.285 -0.226,-0.566 -0.451,-0.835 -2.176,-2.6 -7.029,-0.37 -8.494,2.401 -0.041,-1.02 0.747,-2.368 1.804,-3.231 2.064,-1.687 3.8,-1.84 5.628,-1.432 C 0.467,-2.654 1.356,-1.495 0,0"/></g><g id="g49765" transform="translate(166.853,78.5762)"><path style="fill:#fcd691;fill-opacity:1;fill-rule:nonzero;stroke:none" id="path49767" d="M 0,0 C 0.225,0.269 0.37,0.55 0.451,0.835 0.078,1.246 -0.456,1.681 -1.195,2.136 -2.54,2.963 -4.209,4 -6.881,3.797 -8.003,3.712 -8.465,3.142 -8.495,2.401 -7.03,-0.37 -2.177,-2.6 0,0"/></g><g id="g49769" transform="translate(145.4146,70.2607)"><path style="fill:#fcd691;fill-opacity:1;fill-rule:nonzero;stroke:none" id="path49771" d="m 0,0 c -0.175,-0.065 -0.457,-0.505 -0.58,-0.635 -0.77,-0.807 -0.681,-1.618 -0.116,-2.599 0.23,-0.401 0.919,-0.56 1.296,-0.992 0.4,-0.459 0.494,-1.19 0.915,-1.611 1.363,-1.363 3.237,-0.188 3.507,0.447 0.469,1.103 0,3.891 -1.037,4.104 C 3.284,-0.634 3.43,-0.202 2.133,-0.303 0.836,-0.402 0,0 0,0"/></g><g id="g49773" transform="translate(150.6338,65.4697)"><path style="fill:#5e3231;fill-opacity:1;fill-rule:nonzero;stroke:none" id="path49775" d="m 0,0 c -0.346,0.266 -0.978,0.332 -1.595,-0.1 -0.348,-0.244 -0.829,-0.814 -1.362,-0.748 -0.531,0.067 -1.226,1.688 -1.87,1.878 -0.643,0.192 -1.589,1.212 -1.488,2.062 0.1,0.85 1.247,1.26 1.488,1.561 0.242,0.301 -0.307,0.75 -0.939,0.002 C -6.342,3.973 -6.62,3.509 -6.334,2.17 -6.049,0.831 -4.921,1.041 -4.454,-0.194 -3.987,-1.43 -3.326,-2.561 -1.595,-2.161 0.136,-1.763 0.071,-1.364 0,0"/></g><g id="g49777" transform="translate(144.6924,68.0244)"><path style="fill:#fff;fill-opacity:1;fill-rule:nonzero;stroke:none" id="path49779" d="m 0,0 c 0,0 0.468,-0.645 1.366,-1.114 0.654,-0.342 1.365,-1.115 1.365,-1.115 0,0 -0.194,1.338 -1.185,1.701 C 0.555,-0.167 0,0 0,0"/></g><g id="g49781" transform="translate(137.5791,84.9043)"><path style="fill:#c14b22;fill-opacity:1;fill-rule:nonzero;stroke:none" id="path49783" d="m 0,0 c 0,0 5.84,-11.472 6.928,-13.176 1.088,-1.703 1.608,-2.568 2.293,-3.598 0.37,-0.556 1.077,-0.312 1.742,-0.034 0.573,0.24 1.192,0.193 0.964,0.665 -0.433,0.899 -1.482,6.081 -2.059,7.954 C 8.495,-3.732 7.454,1.845 4.677,-0.62 4.524,-0.756 0,0 0,0"/></g><g id="g49785" transform="translate(135.3579,121.6055)"><path style="fill:#5e3231;fill-opacity:1;fill-rule:nonzero;stroke:none" id="path49787" d="m 0,0 c 0,0 0.958,-0.087 1.455,-0.286 0.744,-0.297 0.899,-0.829 0.899,-0.829 0,0 1.655,0.56 2.01,1.044 C 4.719,0.413 4.771,0.975 4.86,1.644 4.948,2.313 4.8,2.918 4.496,2.788 4.168,2.648 4.033,2.392 4.05,1.917 4.056,1.738 3.845,0.986 3.521,1.086 3.356,1.137 3.11,1.729 3.075,2.127 3.025,2.689 3.016,3.118 3.509,3.385 c 0.494,0.266 0.982,0 0.982,0 0,0 -0.045,0.924 -0.887,0.99 C 3.332,4.535 2.89,4.904 2.333,4.783 1.58,4.943 1.216,5.051 0.811,4.805 0.424,4.569 -0.091,3.334 -0.082,2.475 -0.073,1.695 0,0 0,0"/></g><g id="g49789" transform="translate(143.3809,107.6553)"><path style="fill:#e9b66a;fill-opacity:1;fill-rule:nonzero;stroke:none" id="path49791" d="m 0,0 c -0.794,0.384 -1.122,1.511 -3.218,1.18 -1.8,2.161 -5.527,2.329 -5.527,2.329 0,0 1.226,1.903 1.897,4.055 0.899,2.883 1.251,5.461 1.251,5.461 l -2.586,0.121 c 0,0 -1.34,-2.084 -3.38,-6.162 -1.696,-3.393 -2.034,-3.147 -1.753,-4.649 0.176,-0.937 0.416,-1.58 1.52,-2.389 0.666,-0.489 2.173,-1.832 3.499,-2.831 3.002,-2.263 6.459,-3.655 6.459,-3.655 0,0 2.324,4.881 1.838,6.54"/></g><g id="g49793" transform="translate(158.8931,94.9229)"><path style="fill:#d86738;fill-opacity:1;fill-rule:nonzero;stroke:none" id="path49795" d="m 0,0 c 0.056,1.496 -0.535,1.999 -1.188,2.597 -1.368,1.251 -2.845,0.811 -4.324,-0.423 -1.972,-1.647 -8.443,-8.91 -8.443,-8.91 l 3.616,-4.547 c 0,0 1.953,0.775 4.693,3.116 0.328,0.28 0.623,0.537 0.893,0.783 -0.098,-2.862 0.375,-5.486 1.023,-7.148 1.057,-0.956 3.277,1.226 3.277,1.226 z"/></g><g id="g49797" transform="translate(133.8794,90.9922)"><path style="fill:#5e3231;fill-opacity:1;fill-rule:nonzero;stroke:none" id="path49799" d="m 0,0 c 0,0 -1.39,-5.496 -0.889,-7.353 0.906,-3.356 4.128,-2.749 4.128,-2.749 0,0 1.85,-3.316 5.84,-2.503 4.72,0.96 6.38,2.689 10.252,7.01 0,0 0.677,2.119 -0.666,4.854 -1.375,2.803 -4.752,2.037 -4.752,2.037 l -2.854,-4.102 z"/></g><g id="g49801" transform="translate(146.7212,90.749)"><path style="fill:#ac424a;fill-opacity:1;fill-rule:nonzero;stroke:none" id="path49803" d="m 0,0 c 0,0 -0.993,-0.41 -1.634,-1.694 -0.546,-1.095 0.27,-0.672 1.486,-2.118 1.936,-2.299 1.922,-6.235 1.922,-6.235 0,0 1.386,0.644 1.94,1.248 0.554,0.604 0.772,1.254 0.772,1.254 0,0 -0.999,6.188 -4.486,7.545"/></g><g id="g49805" transform="translate(146.4438,115.9473)"><path style="fill:#d86738;fill-opacity:1;fill-rule:nonzero;stroke:none" id="path49807" d="m 0,0 c 0.379,-0.303 2.466,-0.064 2.666,-3.36 0.176,-2.92 -1.136,-4.309 -1.74,-4.516 -0.334,-0.113 -1.49,-0.033 -1.49,-0.033 0,0 -0.266,-1.779 0.202,-2.517 -0.48,-0.775 -2.087,-0.836 -3.573,-0.717 -1.42,0.115 -1.758,1.307 -1.758,1.307 0,0 1.463,1.211 1.478,2.82 0.02,1.996 -0.499,4.874 0.069,5.895 C -3.121,0.723 -1.03,0.819 0,0"/></g><g id="g49809" transform="translate(144.8081,109.6396)"><path style="fill:#462424;fill-opacity:1;fill-rule:nonzero;stroke:none" id="path49811" d="M 0,0 C 0.819,0.731 0.864,1.424 1.116,2.398 1.667,4.532 2.749,4.6 4.065,4.143 4.526,4.638 4.538,5.85 4.116,6.414 3.242,7.584 1.812,8.591 0.054,8.45 -1.287,8.342 -3.076,8.099 -3.733,5.084 c -0.684,-3.137 1.535,-6.11 1.535,-6.11 0,0 1.03,-0.017 2.198,1.026"/></g><g id="g49813" transform="translate(146.7612,112.5137)"><path style="fill:#d86738;fill-opacity:1;fill-rule:nonzero;stroke:none" id="path49815" d="M 0,0 C 0,0 -0.762,1.528 -1.228,0.081 -1.661,-1.264 -0.5,-1.802 -0.5,-1.802 Z"/></g><g id="g49817" transform="translate(151.3872,104.8184)"><path style="fill:#fcd691;fill-opacity:1;fill-rule:nonzero;stroke:none" id="path49819" d="m 0,0 c -1.833,2.563 -5.576,1.867 -5.576,1.867 0,0 -4.287,-0.354 -3.594,2.025 -0.905,0.531 -1.88,0.981 -3.186,-0.003 -3.04,-2.291 -2.498,-5.524 -4.43,-13.785 -0.896,-3.83 -1.382,-7.076 -1.382,-7.076 0,0 1.692,-1.01 4.54,-2.278 4.41,-1.962 7.677,1.046 7.677,1.046 0,0 -0.34,4.205 1.196,7.312 1.623,3.286 2.731,3.221 3.4,5.488 C -1.061,-4.84 0.468,-0.654 0,0"/></g><g id="g49821" transform="translate(146.7612,106.0713)"><path style="fill:#fcd691;fill-opacity:1;fill-rule:nonzero;stroke:none" id="path49823" d="m 0,0 c 0.43,0.271 2.469,0.392 3.938,-0.703 0.845,-0.63 1.951,-1.675 1.951,-1.675 0,0 3.461,-1.403 4.254,-1.781 1.489,-0.71 2.669,-1.793 2.669,-1.793 0,0 -0.653,-1.489 -1.869,-2.6 C 9.489,-9.879 8.934,-9.224 7.475,-8.878 6.016,-8.533 2.616,-7.01 1.131,-6.557 -0.354,-6.104 -2.242,-1.41 0,0"/></g><g id="g49825" transform="translate(135.3618,121.6768)"><path style="fill:#462424;fill-opacity:1;fill-rule:nonzero;stroke:none" id="path49827" d="m 0,0 -0.164,-0.876 c 0,0 0.793,-0.09 1.272,-0.311 0.479,-0.22 1.142,-0.682 1.142,-0.682 l 0.256,0.757 C 2.506,-1.112 1.887,0.18 0,0"/></g><g id="g49829" transform="translate(162.9785,109.1523)"><path style="fill:#fcd691;fill-opacity:1;fill-rule:nonzero;stroke:none" id="path49831" d="m 0,0 c 0,0 -2.956,-3.097 -4.161,-4.049 -1.199,-0.947 -3.286,-3.527 -3.021,-3.676 0,0 0.232,-4.682 1.093,-4.501 0.861,0.183 1.424,0.587 1.928,0.983 0.367,0.287 1.41,1.828 2.517,3.206 1.108,1.379 4.417,6.922 4.417,6.922 0,0 -0.979,1.591 -2.773,1.115"/></g><g id="g49833" transform="translate(165.374,115.3066)"><path style="fill:#5e3231;fill-opacity:1;fill-rule:nonzero;stroke:none" id="path49835" d="m 0,0 c -0.767,-0.312 -0.955,-0.64 -1.413,-1.463 -0.457,-0.822 -0.74,-2.002 -0.792,-2.804 -0.082,-1.282 0.21,-1.755 0.21,-1.755 L 0.378,-7.27 c 0,0 1.604,2.1 1.604,2.741 0,0.639 0.263,2.244 0.537,3.341 0.098,0.39 -0.153,0.883 -0.61,0.761 C 1.663,-0.211 1.3,0.03 0.843,-0.152 0.512,-0.001 0.308,0.125 0,0"/></g><g id="g49837" transform="translate(163.3369,109.6377)"><path style="fill:#462424;fill-opacity:1;fill-rule:nonzero;stroke:none" id="path49839" d="m 0,0 -0.727,-0.868 c 0,0 0.839,0.21 1.574,-0.198 0.676,-0.377 1.174,-1.19 1.174,-1.19 l 0.557,0.918 C 2.578,-1.338 2.021,0.374 0,0"/></g><g id="g49841" transform="translate(144.4336,88.877)"><path style="fill:#e9b66a;fill-opacity:1;fill-rule:nonzero;stroke:none" id="path49843" d="m 0,0 c 0,0 -1.874,-0.857 -3.586,-1.296 -1.711,-0.438 -3.392,-0.641 -3.392,-0.641 0,0 1.934,-1.006 3.922,-0.301 C -1.068,-1.533 0,0 0,0"/></g><g id="g49845" transform="translate(145.3892,93.3008)"><path style="fill:#e9b66a;fill-opacity:1;fill-rule:nonzero;stroke:none" id="path49847" d="m 0,0 c 0,0 -1.471,0.45 -2.644,1.055 -1.173,0.603 -2.21,1.324 -2.21,1.324 0,0 0.58,-1.521 2.039,-2.113 C -1.356,-0.326 0,0 0,0"/></g><g id="g49849" transform="translate(149.8193,98.8096)"><path style="fill:#e9b66a;fill-opacity:1;fill-rule:nonzero;stroke:none" id="path49851" d="m 0,0 c -0.589,0.417 -2.124,0.605 -3.058,-0.571 -1.325,-1.667 0.672,-2.872 0.672,-2.872 0,0 2.121,1.948 2.386,3.443"/></g><g id="g49853" transform="translate(148.0811,83.7109)"><path style="fill:#fff;fill-opacity:1;fill-rule:nonzero;stroke:none" id="path49855" d="M 0,0 C -1.009,-0.33 -2.52,-0.537 -4.103,0.285 -6.066,1.305 -6.775,4.57 -6.858,6.332 -7.18,6.22 -7.519,6.124 -7.857,6.064 -7.485,3.417 -6.334,0.805 -5.105,-0.206 -3.279,-1.707 -1.09,-1.299 0.18,-0.854 0.12,-0.57 0.059,-0.285 0,0"/></g><g id="g49857" transform="translate(135.3311,91.4717)"><path style="fill:#fff;fill-opacity:1;fill-rule:nonzero;stroke:none" id="path49859" d="m 0,0 c 0,0 -2.152,-2.529 -3.059,-4.078 -0.906,-1.548 0.611,-2.794 0.611,-2.794 l 0.018,0.722 c 0,0 -0.435,0.992 -0.02,1.709 0.415,0.717 1.77,2.252 2.11,2.667 0.34,0.415 0.982,1.51 0.982,1.51 z"/></g><g id="g49861" transform="translate(137.106,90.4902)"><path style="fill:#fff;fill-opacity:1;fill-rule:nonzero;stroke:none" id="path49863" d="m 0,0 c 0,0 -1.116,-3.276 -1.133,-4.765 -0.021,-1.853 0.585,-3.672 0.687,-5.335 0.088,-1.419 -0.271,-3.456 -0.271,-3.456 l 0.868,-0.49 c 0,0 0.397,3.096 0.199,4.946 -0.199,1.85 -0.944,3.283 -0.68,4.855 0.264,1.572 0.803,3.808 0.803,3.808 z"/></g><g id="g49865" transform="translate(142.5811,89.3916)"><path style="fill:#fff;fill-opacity:1;fill-rule:nonzero;stroke:none" id="path49867" d="m 0,0 c 0,0 -0.044,-1.477 0.986,-2.187 1.392,-0.959 2.351,-0.717 2.741,0.026 0.389,0.743 -0.841,1.977 -0.841,1.977 L 2.794,-0.94 c 0,0 0.963,-0.808 0.353,-1.258 -0.61,-0.45 -1.424,0.375 -1.873,1.023 C 0.825,-0.525 0.986,0 0.986,0 Z"/></g><g id="g49869" transform="translate(134.5474,94.6719)"><path style="fill:#462424;fill-opacity:1;fill-rule:nonzero;stroke:none" id="path49871" d="m 0,0 -0.686,-3.2 c 0,0 3.417,-1.956 5.925,-2.303 2.819,-0.391 5.708,0.35 5.708,0.35 l 0.543,2.864 c 0,0 -4.235,-0.364 -6.515,0.26 C 1.803,-1.161 0,0 0,0"/></g><g id="g49873" transform="translate(154.9292,80.9922)"><path style="fill:#fcd691;fill-opacity:1;fill-rule:nonzero;stroke:none" id="path49875" d="m 0,0 c 0,0 0.762,-2.162 1.761,-3.362 1.024,-1.23 2.622,0.064 3.183,0.989 0.562,0.926 3.031,0.144 4.234,2.119 1.203,1.975 0.89,2.889 0.703,3.277 C 9.624,3.562 8.809,3.196 7.817,2.612 7.193,2.245 6.593,1.984 5.572,1.822 4.533,1.656 3.469,1.657 3.469,1.657 3.469,1.657 3.201,1.051 2.928,0.844 2.546,0.553 1.659,0.608 0.924,0.456 0.494,0.367 0,0 0,0"/></g><g id="g49877" transform="translate(156.4541,77.9424)"><path style="fill:#5e3231;fill-opacity:1;fill-rule:nonzero;stroke:none" id="path49879" d="M 0,0 C 0,0 0.912,0.506 1.776,0.435 2.64,0.364 3.18,0.846 3.575,1.157 c 0.613,0.486 0.824,0.436 2.073,0.538 1.249,0.104 2,1.659 2.42,2.586 C 8.314,4.824 8.206,5.859 7.922,6.328 8.324,6.604 9.057,6.007 8.65,4.539 8.16,2.767 7.788,1.845 6.371,1.276 4.954,0.708 4.496,1.114 3.912,0.473 3.327,-0.168 2.528,-1.055 1.612,-1.429 0.856,-1.736 0.372,-0.975 0,0"/></g><g id="g49881" transform="translate(157.897,79.2646)"><path style="fill:#fff;fill-opacity:1;fill-rule:nonzero;stroke:none" id="path49883" d="m 0,0 c 0,0 0.917,-0.08 1.905,0.69 0.988,0.772 1.818,0.219 2.802,0.628 0.984,0.41 1.211,1.368 1.211,1.368 0,0 -0.762,-1.033 -1.626,-0.999 C 3.427,1.721 2.62,1.979 1.801,1.469 0.983,0.959 0.536,0.135 0,0"/></g><g id="g49885" transform="translate(158.2646,82.3838)"><path style="fill:#5e3231;fill-opacity:1;fill-rule:nonzero;stroke:none" id="path49887" d="m 0,0 c 0,0 0.698,-0.485 2.383,-0.279 1.686,0.206 2.311,0.54 2.436,0.931 0.124,0.392 -0.083,0.715 -0.083,0.715 0,0 -1.369,-0.62 -2.295,-0.749 C 1.516,0.489 0.134,0.266 0.134,0.266 Z"/></g><g id="g49889" transform="translate(158.041,95.3662)"><path style="fill:#c14b22;fill-opacity:1;fill-rule:nonzero;stroke:none" id="path49891" d="M 0,0 C 0,0 -0.602,-0.133 -0.54,-0.814 -0.478,-1.496 0,-1.54 0,-1.54 Z"/></g><g id="g49893" transform="translate(154.1401,87.5391)"><path style="fill:#c14b22;fill-opacity:1;fill-rule:nonzero;stroke:none" id="path49895" d="m 0,0 c 0,0 0.901,1.591 1.405,2.504 0.504,0.913 0.909,1.82 0.909,1.82 0,0 0.195,-1.912 -0.258,-3.271 -0.453,-1.359 -2.02,-3.271 -2.02,-3.271 0,0 -0.082,1.469 -0.036,2.218"/></g><g id="g49897" transform="translate(173.8232,55.6846)"><path style="fill:#ec232a;fill-opacity:1;fill-rule:nonzero;stroke:none" id="path49899" d="m 0,0 c 0.357,-1.127 0.044,-2.424 -0.916,-3.269 -1.018,-0.894 -2.476,-0.978 -3.623,-0.372 0.247,-0.693 0.72,-1.276 1.407,-1.852 1.298,-1.087 3.443,-0.216 3.891,2.017 C 1.084,-1.854 0.714,-0.713 0,0"/></g><g id="g49901" transform="translate(172.9072,52.416)"><path style="fill:#ef3142;fill-opacity:1;fill-rule:nonzero;stroke:none" id="path49903" d="M 0,0 C 0.96,0.845 1.273,2.142 0.916,3.269 0.646,3.538 0.333,3.752 -0.018,3.9 -1.598,4.568 -3.371,3.66 -3.721,1.811 -3.885,0.941 -3.842,0.242 -3.623,-0.372 -2.476,-0.979 -1.018,-0.895 0,0"/></g><g id="g49905" transform="translate(135.8062,173.9873)"><path style="fill:#ec232a;fill-opacity:1;fill-rule:nonzero;stroke:none" id="path49907" d="m 0,0 c 0.357,-1.127 0.044,-2.425 -0.917,-3.269 -1.017,-0.894 -2.475,-0.979 -3.622,-0.373 0.247,-0.693 0.72,-1.276 1.407,-1.852 1.298,-1.087 3.443,-0.216 3.891,2.017 C 1.084,-1.854 0.714,-0.714 0,0"/></g><g id="g49909" transform="translate(134.8896,170.7187)"><path style="fill:#ef3142;fill-opacity:1;fill-rule:nonzero;stroke:none" id="path49911" d="M 0,0 C 0.96,0.844 1.273,2.142 0.917,3.269 0.647,3.538 0.333,3.751 -0.018,3.899 -1.598,4.567 -3.371,3.66 -3.72,1.81 -3.884,0.94 -3.841,0.241 -3.623,-0.373 -2.476,-0.979 -1.017,-0.895 0,0"/></g><g id="g49913" transform="translate(41.2559,101.6846)"><path style="fill:#ec232a;fill-opacity:1;fill-rule:nonzero;stroke:none" id="path49915" d="m 0,0 c 0.356,-1.127 0.043,-2.424 -0.917,-3.269 -1.017,-0.893 -2.475,-0.978 -3.623,-0.372 0.248,-0.693 0.72,-1.276 1.408,-1.852 1.297,-1.087 3.443,-0.216 3.891,2.017 C 1.084,-1.854 0.714,-0.713 0,0"/></g><g id="g49917" transform="translate(40.3394,98.416)"><path style="fill:#ef3142;fill-opacity:1;fill-rule:nonzero;stroke:none" id="path49919" d="M 0,0 C 0.96,0.845 1.273,2.142 0.917,3.269 0.647,3.538 0.333,3.752 -0.018,3.9 -1.598,4.568 -3.371,3.66 -3.72,1.811 -3.885,0.941 -3.842,0.242 -3.623,-0.372 -2.476,-0.979 -1.018,-0.894 0,0"/></g><g id="g49921" transform="translate(89.2036,182.2451)"><path style="fill:#ec232a;fill-opacity:1;fill-rule:nonzero;stroke:none" id="path49923" d="m 0,0 c 0.357,-1.127 0.044,-2.424 -0.917,-3.269 -1.017,-0.893 -2.475,-0.978 -3.622,-0.372 0.247,-0.693 0.72,-1.276 1.407,-1.852 1.298,-1.087 3.443,-0.216 3.891,2.017 C 1.084,-1.854 0.714,-0.713 0,0"/></g><g id="g49925" transform="translate(88.2871,178.9766)"><path style="fill:#ef3142;fill-opacity:1;fill-rule:nonzero;stroke:none" id="path49927" d="M 0,0 C 0.96,0.845 1.273,2.142 0.917,3.269 0.647,3.538 0.333,3.752 -0.018,3.9 -1.598,4.568 -3.371,3.66 -3.72,1.811 -3.884,0.941 -3.841,0.242 -3.623,-0.372 -2.476,-0.979 -1.017,-0.894 0,0"/></g><g id="g49929" transform="translate(46.2744,223.2207)"><path style="fill:#ec232a;fill-opacity:1;fill-rule:nonzero;stroke:none" id="path49931" d="M 0,0 C 0.356,-1.127 0.043,-2.425 -0.917,-3.269 -1.934,-4.163 -3.392,-4.248 -4.54,-3.642 -4.292,-4.334 -3.82,-4.917 -3.132,-5.493 -1.835,-6.58 0.311,-5.71 0.759,-3.476 1.084,-1.854 0.713,-0.714 0,0"/></g><g id="g49933" transform="translate(45.3579,219.9521)"><path style="fill:#ef3142;fill-opacity:1;fill-rule:nonzero;stroke:none" id="path49935" d="M 0,0 C 0.96,0.844 1.273,2.142 0.917,3.269 0.646,3.538 0.333,3.752 -0.018,3.899 -1.598,4.568 -3.371,3.66 -3.721,1.811 -3.885,0.941 -3.842,0.241 -3.623,-0.373 -2.476,-0.979 -1.018,-0.895 0,0"/></g><g id="g49937" transform="translate(53.311,193.3369)"><path style="fill:#ec232a;fill-opacity:1;fill-rule:nonzero;stroke:none" id="path49939" d="m 0,0 c 0.356,-1.127 0.043,-2.425 -0.917,-3.269 -1.017,-0.894 -2.475,-0.979 -3.623,-0.373 0.248,-0.692 0.72,-1.275 1.408,-1.852 1.297,-1.087 3.443,-0.216 3.891,2.017 C 1.084,-1.854 0.714,-0.714 0,0"/></g><g id="g49941" transform="translate(52.3945,190.0684)"><path style="fill:#ef3142;fill-opacity:1;fill-rule:nonzero;stroke:none" id="path49943" d="M 0,0 C 0.96,0.844 1.273,2.142 0.917,3.269 0.647,3.538 0.333,3.752 -0.018,3.899 -1.598,4.567 -3.371,3.66 -3.72,1.811 -3.885,0.94 -3.842,0.241 -3.623,-0.373 -2.476,-0.979 -1.018,-0.895 0,0"/></g></g></g><g id="g56011" transform="matrix(0.81058681,0,0,0.82232636,18.817435,46.476496)"><g id="g49953" transform="matrix(0.35277777,0,0,-0.35277777,66.710982,310.28057)"><path style="fill:#e9b66a;fill-opacity:1;fill-rule:nonzero;stroke:none" id="path49955" d="M 0,0 C 0.163,-0.574 0.455,-1.142 0.909,-1.683 5.298,-6.925 15.085,-2.43 18.039,3.161 18.12,1.102 16.532,-1.615 14.399,-3.357 10.238,-6.758 6.737,-7.067 3.05,-6.243 -0.942,-5.351 -2.735,-3.015 0,0"/></g><g id="g49957" transform="matrix(0.35277777,0,0,-0.35277777,67.031551,310.87415)"><path style="fill:#fcd691;fill-opacity:1;fill-rule:nonzero;stroke:none" id="path49959" d="M 0,0 C -0.454,0.541 -0.746,1.108 -0.909,1.683 -0.156,2.513 0.919,3.39 2.41,4.307 5.122,5.975 8.488,8.066 13.876,7.657 16.14,7.485 17.071,6.336 17.13,4.844 14.176,-0.747 4.389,-5.242 0,0"/></g><g id="g49961" transform="matrix(0.35277777,0,0,-0.35277777,80.738379,251.58233)"><path style="fill:#5d82ca;fill-opacity:1;fill-rule:nonzero;stroke:none" id="path49963" d="M 0,0 C -0.77,-2.432 -0.094,-5.229 1.977,-7.051 4.171,-8.979 7.317,-9.163 9.792,-7.854 9.259,-9.35 8.239,-10.607 6.756,-11.85 3.958,-14.194 -0.67,-12.316 -1.638,-7.498 -2.34,-4 -1.54,-1.539 0,0"/></g><g id="g49965" transform="matrix(0.35277777,0,0,-0.35277777,81.43582,254.0697)"><path style="fill:#65ade3;fill-opacity:1;fill-rule:nonzero;stroke:none" id="path49967" d="M 0,0 C -2.071,1.821 -2.747,4.619 -1.977,7.051 -1.396,7.633 -0.718,8.094 0.038,8.413 3.447,9.854 7.271,7.896 8.025,3.905 8.379,2.03 8.287,0.521 7.814,-0.804 5.34,-2.112 2.194,-1.929 0,0"/></g><g id="g49969" transform="matrix(0.35277777,0,0,-0.35277777,68.484149,279.92411)"><path style="fill:#5d82ca;fill-opacity:1;fill-rule:nonzero;stroke:none" id="path49971" d="M 0,0 C -0.77,-2.432 -0.094,-5.229 1.977,-7.051 4.172,-8.98 7.317,-9.163 9.792,-7.854 9.259,-9.35 8.239,-10.607 6.756,-11.851 3.958,-14.195 -0.67,-12.316 -1.638,-7.498 -2.34,-4.001 -1.54,-1.539 0,0"/></g><g id="g49973" transform="matrix(0.35277777,0,0,-0.35277777,69.181626,282.41148)"><path style="fill:#65ade3;fill-opacity:1;fill-rule:nonzero;stroke:none" id="path49975" d="M 0,0 C -2.071,1.821 -2.747,4.619 -1.977,7.051 -1.396,7.632 -0.718,8.093 0.038,8.413 3.447,9.854 7.271,7.896 8.025,3.905 8.38,2.03 8.287,0.521 7.814,-0.804 5.34,-2.112 2.195,-1.93 0,0"/></g><g id="g49977" transform="matrix(0.35277777,0,0,-0.35277777,81.862329,274.70134)"><path style="fill:#fabaac;fill-opacity:1;fill-rule:nonzero;stroke:none" id="path49979" d="m 0,0 c 0,0 -2.128,5.909 0.889,16.03 3.016,10.12 4.954,15.796 4.954,15.796 0,0 -1.548,8.782 -1.94,11.888 -0.586,4.645 -1.342,12.117 -1.149,14.925 l 4.984,1.515 c 0,0 5.655,-18.837 6.39,-25.705 0.473,-4.423 0.182,-5.13 -0.474,-8.393 C 13.009,22.846 12.061,18.474 11.322,14.397 9.763,5.791 9.214,-1.564 9.214,-1.564 Z"/></g><g id="g49981" transform="matrix(0.35277777,0,0,-0.35277777,77.763862,265.2518)"><path style="fill:#fabaac;fill-opacity:1;fill-rule:nonzero;stroke:none" id="path49983" d="m 0,0 c -0.919,-0.638 -5.685,0.226 -6.643,-7.331 -0.849,-6.693 1.981,-10.042 3.322,-10.655 1.177,-0.54 3.424,-0.304 3.424,-0.304 0,0 0.341,-4.134 -0.847,-5.763 0.988,-1.855 4.678,-2.238 8.117,-2.188 3.287,0.048 4.245,2.741 4.245,2.741 0,0 -3.185,3.008 -2.977,6.715 0.257,4.597 1.886,11.144 0.734,13.579 C 7.292,1.191 2.495,1.732 0,0"/></g><g id="g49985" transform="matrix(0.35277777,0,0,-0.35277777,80.325135,271.78747)"><path style="fill:#462424;fill-opacity:1;fill-rule:nonzero;stroke:none" id="path49987" d="m 0,0 c 0,0 -2.321,0.612 -4.996,2.835 -1.98,1.645 -4.192,3.641 -5.586,5.591 -3.052,4.271 -4.573,7.31 -2.008,10.846 2.565,3.537 11.156,2.885 15.12,-0.977 C 5.979,14.935 3.477,8.941 1.473,2.935 1.174,2.039 0.777,0.777 0,0"/></g><g id="g49989" transform="matrix(0.35277777,0,0,-0.35277777,76.592182,268.81504)"><path style="fill:#fabaac;fill-opacity:1;fill-rule:nonzero;stroke:none" id="path49991" d="M 0,0 C 0,0 1.985,3.401 2.839,0 3.632,-3.161 0.877,-4.224 0.877,-4.224 Z"/></g><g id="g49993" transform="matrix(0.35277777,0,0,-0.35277777,72.848751,293.96424)"><path style="fill:#fabaac;fill-opacity:1;fill-rule:nonzero;stroke:none" id="path49995" d="m 0,0 c 0,0 1.246,-4.53 1.19,-8.823 -0.049,-3.693 -0.813,-11.102 -0.621,-16.719 0.101,-2.976 0.564,-5.197 1.278,-6.582 1.497,-2.905 1.234,-4.673 -2.615,-5.506 -3.849,-0.833 -4.133,0.525 -4.133,0.525 0,0 -2.077,10.192 -2.833,15.234 -1.017,6.778 -2.975,18.881 -2.975,18.881 z"/></g><g id="g49997" transform="matrix(0.35277777,0,0,-0.35277777,87.944464,304.61856)"><path style="fill:#fabaac;fill-opacity:1;fill-rule:nonzero;stroke:none" id="path49999" d="m 0,0 c 0,0 1.119,-4.564 0.941,-8.854 -0.152,-3.689 -1.125,-11.074 -1.091,-16.694 0.018,-2.976 0.419,-5.211 1.093,-6.616 1.414,-2.945 1.101,-4.705 -2.769,-5.43 -3.871,-0.723 -4.117,0.641 -4.117,0.641 0,0 -1.789,10.247 -2.404,15.308 -0.825,6.804 -2.442,18.957 -2.442,18.957 z"/></g><g id="g50001" transform="matrix(0.35277777,0,0,-0.35277777,87.761902,288.86654)"><path style="fill:#462424;fill-opacity:1;fill-rule:nonzero;stroke:none" id="path50003" d="m 0,0 c 0,0 0.882,-12.021 0.968,-18.66 0.087,-6.639 -1.732,-21.326 -0.919,-23.648 0.812,-2.321 1.115,-5.336 1.115,-5.336 0,0 -0.545,-1.653 -5.416,-2.213 -4.024,-0.463 -5.905,0.998 -5.905,0.998 0,0 -3.382,14.217 -4.281,21.104 -0.883,6.773 -0.818,26.582 -0.818,26.582 z"/></g><g id="g50005" transform="matrix(0.35277777,0,0,-0.35277777,88.016643,292.97827)"><path style="fill:#ac424a;fill-opacity:1;fill-rule:nonzero;stroke:none" id="path50007" d="m 0,0 c 0,0 -5.683,-1.228 -16.096,-1.213 -0.737,1.866 0.016,6.152 0.016,6.152 L -0.335,5.865 C -0.335,5.865 0.901,3.517 0,0"/></g><g id="g50009" transform="matrix(0.35277777,0,0,-0.35277777,78.576557,288.28844)"><path style="fill:#5e3231;fill-opacity:1;fill-rule:nonzero;stroke:none" id="path50011" d="m 0,0 c 0,0 -12.265,0.519 -18.42,0 -6.156,-0.519 -8.643,-1.757 -9.576,-3.875 -0.932,-2.118 1.259,-16.495 1.259,-16.495 0,0 1.073,-0.667 4.181,-0.666 3.727,0.001 6.004,0.971 6.937,1.671 0.057,1.115 -0.43,3.057 -0.43,3.057 0,0 14.167,-3.609 21.317,-3.858 7.149,-0.249 13.367,5.93 13.367,5.93 0,0 7.407,0.349 8.055,7.81 0.65,7.461 -5.373,15.875 -5.373,15.875 z"/></g><g id="g50013" transform="matrix(0.35277777,0,0,-0.35277777,77.50136,273.73706)"><path style="fill:#fabaac;fill-opacity:1;fill-rule:nonzero;stroke:none" id="path50015" d="m 0,0 c 0,0 -7.334,-4.086 -8.059,-5.104 -2.899,-4.074 -1.967,-8.728 -3.522,-15.13 -1.554,-6.403 -1.27,-5.995 -1.892,-10.348 -0.621,-4.352 1.737,-9.481 5.157,-6.004 3.42,3.478 6.787,17.414 6.787,17.414 0,0 3.874,-5.671 4.709,-8.796 2.027,-7.582 -0.132,-13.28 -0.132,-13.28 0,0 7.444,-3.212 15.216,0 7.771,3.212 6.101,9.449 6.101,9.449 0,0 -4.265,3.831 -2.371,18.321 0.855,6.54 -1.555,17.584 -4.974,18.43 C 13.601,5.797 7.401,4.646 0,0"/></g><g id="g50017" transform="matrix(0.35277777,0,0,-0.35277777,78.576557,288.28844)"><path style="fill:#ac424a;fill-opacity:1;fill-rule:nonzero;stroke:none" id="path50019" d="m 0,0 c 0,0 -1.007,-4.375 -0.264,-10.914 0.662,-5.816 3.27,-9.207 3.27,-9.207 0,0 -1.451,-0.524 -3.27,-0.052 -2.065,0.534 -2.459,0.998 -2.459,0.998 0,0 -2.902,4.123 -3.22,11.351 -0.258,5.844 1.812,7.96 1.812,7.96 0,0 2.905,1.16 4.131,-0.136"/></g><g id="g50021" transform="matrix(0.35277777,0,0,-0.35277777,81.432398,272.04828)"><path style="fill:#ef3142;fill-opacity:1;fill-rule:nonzero;stroke:none" id="path50023" d="m 0,0 c 0,0 3.325,-4.294 5.064,-8.173 3.032,-6.762 5.953,-6.598 5.953,-6.598 0,0 0.106,-6.929 0.3,-12.665 0.212,-6.242 4.502,-13.602 4.502,-13.602 0,0 -0.184,-4.364 -7.533,-7.007 -9.326,-3.352 -16.906,-0.607 -16.906,-0.607 0,0 0.714,8.235 0,12.066 -0.714,3.831 -4.052,9.601 -4.052,12.627 2.504,-0.481 5.154,-0.659 6.101,2.449 0.946,3.11 -0.994,8.404 -2.049,10.842 -0.916,2.118 -4.064,4.138 -5.1,4.392 l 2.577,1.489 c 0,0 4.747,-2.383 9.462,0.239 1.976,1.1 0.362,4.247 0.362,4.247 z"/></g><g id="g50025" transform="matrix(0.35277777,0,0,-0.35277777,79.831634,288.0876)"><path style="fill:#ec232a;fill-opacity:1;fill-rule:nonzero;stroke:none" id="path50027" d="m 0,0 c 0,0 4.461,-1.374 7.885,-0.208 3.423,1.166 4.2,2.772 4.2,2.772 0,0 -2.234,-1.154 -5.381,-1.621 C 3.556,0.478 0,0 0,0"/></g><g id="g50029" transform="matrix(0.35277777,0,0,-0.35277777,82.613181,286.23689)"><path style="fill:#ec232a;fill-opacity:1;fill-rule:nonzero;stroke:none" id="path50031" d="m 0,0 c 0,0 -0.773,-1.225 -3.28,-2.332 -2.506,-1.107 -4.605,-1.516 -4.605,-1.516 0,0 2.056,1.341 3.943,2.391 C -2.056,-0.408 0,0 0,0"/></g><g id="g50033" transform="matrix(0.35277777,0,0,-0.35277777,76.900015,274.08465)"><path style="fill:#5e3231;fill-opacity:1;fill-rule:nonzero;stroke:none" id="path50035" d="m 0,0 c 0,0 2.792,-0.99 4.58,-3.313 1.468,-1.908 4.233,-7.413 2.759,-12.793 -1.671,-6.101 -6.943,-3.65 -6.943,-3.65 l -0.22,1.569 c 0,0 4.595,-1.249 5.254,2.387 0.846,4.668 -0.345,9.526 -3.32,12.487 -1.68,1.673 -3.741,2.377 -3.741,2.377 z"/></g><g id="g50037" transform="matrix(0.35277777,0,0,-0.35277777,81.629778,272.00348)"><path style="fill:#5e3231;fill-opacity:1;fill-rule:nonzero;stroke:none" id="path50039" d="m 0,0 c 0,0 2.086,-2.848 3,-4.463 0.914,-1.615 3.077,-6.894 4.475,-8.217 1.399,-1.321 2.978,-1.982 2.978,-1.982 v -1.981 c 0,0 -2.222,0.427 -3.97,2.371 -1.749,1.943 -4.08,7.577 -5.401,9.636 -1.322,2.06 -2.673,4.274 -2.673,4.274 z"/></g><g id="g50041" transform="matrix(0.35277777,0,0,-0.35277777,82.916182,285.16787)"><path style="fill:#fff;fill-opacity:1;fill-rule:nonzero;stroke:none" id="path50043" d="m 0,0 c 0,0 -1.229,-12.371 -4.801,-18.665 -3.476,-6.125 -6.354,-6.777 -6.354,-6.777 l -0.409,1.125 c 0,0 2.308,0.697 5.852,6.598 C -2.169,-11.818 -1.399,0 -1.399,0 Z"/></g><g id="g50045" transform="matrix(0.35277777,0,0,-0.35277777,83.533014,284.95497)"><path style="fill:#fff;fill-opacity:1;fill-rule:nonzero;stroke:none" id="path50047" d="m 0,0 c 0,0 5.362,-9.172 7.868,-11.603 2.196,-2.131 4.811,-3.64 4.811,-3.64 l -0.222,-1.6 c 0,0 -2.692,0.782 -5.637,4.233 -2.344,2.745 -7.784,12.006 -7.784,12.006 z"/></g><g id="g50049" transform="matrix(0.35277777,0,0,-0.35277777,81.538338,285.59957)"><path style="fill:#fff;fill-opacity:1;fill-rule:nonzero;stroke:none" id="path50051" d="m 0,0 c 0,0 -0.553,-3.088 -1.675,-4.721 -1.123,-1.633 -4.608,-1.691 -5.197,0.408 -0.588,2.098 -0.239,3.322 -0.239,3.322 l 1.108,0.117 c 0,0 -0.409,-1.865 0.058,-2.856 0.466,-0.992 1.844,-1.866 2.962,-0.758 1.118,1.107 1.643,4.08 1.643,4.08 z"/></g><g id="g50053" transform="matrix(0.35277777,0,0,-0.35277777,84.376047,284.52571)"><path style="fill:#fff;fill-opacity:1;fill-rule:nonzero;stroke:none" id="path50055" d="m 0,0 c 0,0 1.821,-2.533 3.643,-2.199 1.428,0.262 1.635,1.35 1.603,2.04 -0.029,0.627 -0.698,0.886 -0.698,0.886 0,0 0.232,-1.466 -0.934,-1.686 -1.166,-0.22 -2.681,1.427 -2.681,1.427 z"/></g><g id="g50057" transform="matrix(0.35277777,0,0,-0.35277777,85.571822,282.81421)"><path style="fill:#462424;fill-opacity:1;fill-rule:nonzero;stroke:none" id="path50059" d="m 0,0 0.655,-2.713 c 0,0 -2.393,-2.52 -7.398,-4.697 -4.978,-2.164 -13.35,-2.292 -13.35,-2.292 v 2.525 c 0,0 8.301,0.989 12.215,2.348 C -2.777,-3.058 0,0 0,0"/></g><g id="g50061" transform="matrix(0.35277777,0,0,-0.35277777,73.457504,305.08362)"><path style="fill:#ef3142;fill-opacity:1;fill-rule:nonzero;stroke:none" id="path50063" d="m 0,0 c 0,0 2.245,-4.041 2.719,-7.155 0.486,-3.189 -3.603,-3.87 -5.751,-3.481 -2.148,0.39 -4.27,-4.382 -8.86,-3.555 -4.589,0.826 -5.549,2.52 -5.887,3.323 -0.466,1.106 1.174,1.848 3.381,2.564 1.389,0.45 2.585,1.008 4.196,2.331 1.64,1.347 3.06,2.953 3.06,2.953 0,0 1.274,-0.406 1.954,-0.271 0.95,0.187 2.052,1.602 3.264,2.506 C -1.215,-0.255 0,0 0,0"/></g><g id="g50065" transform="matrix(0.35277777,0,0,-0.35277777,74.362203,307.33466)"><path style="fill:#5e3231;fill-opacity:1;fill-rule:nonzero;stroke:none" id="path50067" d="m 0,0 c 0,0 -1.982,-0.699 -3.032,-2.098 -1.049,-1.399 -2.498,-1.571 -3.497,-1.749 -1.552,-0.277 -1.76,-0.662 -3.585,-2.409 -1.826,-1.748 -5.179,-0.8 -7.14,-0.194 -1.147,0.353 -2.565,1.904 -2.893,2.958 -0.955,-0.238 -1.032,-2.143 1.727,-3.493 3.33,-1.63 5.219,-2.3 7.972,-0.921 2.753,1.378 2.753,2.611 4.502,2.635 1.748,0.025 4.156,0.045 5.946,0.928 1.476,0.73 0.973,2.478 0,4.343"/></g><g id="g50069" transform="matrix(0.35277777,0,0,-0.35277777,72.977268,307.47902)"><path style="fill:#fff;fill-opacity:1;fill-rule:nonzero;stroke:none" id="path50071" d="m 0,0 c 0,0 -1.104,-1.49 -3.59,-1.95 -2.486,-0.46 -2.763,-2.452 -4.696,-3.39 -1.933,-0.937 -3.682,0 -3.682,0 0,0 2.577,-0.229 3.682,1.119 1.105,1.35 1.795,2.915 3.66,3.467 C -2.762,-0.201 -0.92,-0.628 0,0"/></g><g id="g50073" transform="matrix(0.35277777,0,0,-0.35277777,71.143106,306.20295)"><path style="fill:#ec232a;fill-opacity:1;fill-rule:nonzero;stroke:none" id="path50075" d="M 0,0 C 0,0 -0.202,-1.703 -2.767,-3.971 -5.331,-6.239 -6.672,-6.737 -7.43,-6.4 c -0.758,0.337 -0.967,1.081 -0.967,1.081 0,0 2.766,1.237 4.198,2.461 1.432,1.224 3.618,3.011 3.618,3.011 z"/></g><g id="g50077" transform="matrix(0.35277777,0,0,-0.35277777,88.277099,315.9653)"><path style="fill:#ef3142;fill-opacity:1;fill-rule:nonzero;stroke:none" id="path50079" d="m 0,0 c 0,0 2.728,-5.751 2.48,-8.018 -0.248,-2.265 -4.213,-4.026 -5.492,-5.245 -1.279,-1.219 -0.102,-4.024 -2.804,-6.437 -2.703,-2.412 -7.767,-1.359 -8.486,-0.819 -1.893,1.421 1.662,2.884 3.437,8.058 1.775,5.174 3.318,10.471 3.318,10.471 0,0 1.073,-0.894 1.601,-0.996 0.838,-0.162 1.898,1.626 3.252,2.348 C -1.126,0.198 0,0 0,0"/></g><g id="g50081" transform="matrix(0.35277777,0,0,-0.35277777,88.951469,317.66513)"><path style="fill:#5e3231;fill-opacity:1;fill-rule:nonzero;stroke:none" id="path50083" d="m 0,0 c 0,0 -1.199,0.662 -3.095,0.206 -1.894,-0.456 -2.78,-2.352 -3.679,-4.324 -0.899,-1.973 -2.196,-4.428 -3.061,-5.302 -0.864,-0.874 -3.4,-3.576 -4.852,-3.804 -1.45,-0.226 -3.088,-1.54 -2.256,-2.578 0.832,-1.038 3.826,-1.515 6.113,-1.073 2.287,0.441 4.65,1.763 5.122,3.101 0.471,1.336 1.24,4.483 1.486,4.866 0.868,1.348 3.753,2.498 4.85,3.804 C 1.726,-3.797 0,0 0,0"/></g><g id="g50085" transform="matrix(0.35277777,0,0,-0.35277777,86.559036,318.19913)"><path style="fill:#fff;fill-opacity:1;fill-rule:nonzero;stroke:none" id="path50087" d="m 0,0 c 0,0 -0.223,-1.223 -1.5,-2.655 -1.278,-1.433 -1.575,-1.779 -2.294,-3.623 -0.719,-1.845 -1.758,-2.215 -1.758,-2.215 0,0 0.057,1.963 1.217,4.52 C -3.176,-1.414 -1.49,-1.789 0,0"/></g><g id="g50089" transform="matrix(0.35277777,0,0,-0.35277777,81.802568,265.55082)"><path style="fill:#ef3142;fill-opacity:1;fill-rule:nonzero;stroke:none" id="path50091" d="m 0,0 c 0,0 -1.39,1.623 -3.78,0.403 -2.389,-1.218 -2.856,-5.182 -0.233,-6.975 1.773,-1.212 5.142,0.393 5.142,0.393 z"/></g><g id="g50093" transform="matrix(0.35277777,0,0,-0.35277777,82.143281,265.59181)"><path style="fill:#462424;fill-opacity:1;fill-rule:nonzero;stroke:none" id="path50095" d="M 0,0 C 0.872,-0.659 2.431,-1.629 2.197,-3.778 1.964,-5.927 1.258,-6.767 1.608,-7.725 1.931,-8.611 3.877,-11.411 2.976,-12.7 2.074,-13.989 0.52,-15.67 2.191,-16.903 c 1.671,-1.234 1.126,-4.781 0.35,-5.713 -0.777,-0.933 -1.45,-2.06 -0.7,-3.556 0.75,-1.496 1.444,-2.739 1.135,-4.138 -0.281,-1.266 -1.31,-2.973 -1.31,-2.973 0,0 1.511,-1.457 1.31,-3.672 -0.203,-2.215 -1.22,-2.331 -1.644,-3.613 -0.424,-1.284 1.644,-2.099 1.644,-2.099 0,0 -3.467,0 -4.691,3.147 -1.224,3.148 2.235,6.158 2.235,6.158 0,0 -2.176,2.702 -2.235,4.451 -0.058,1.749 1.972,2.829 1.715,3.63 -0.257,0.8 -1.875,3.993 -1.19,5.696 0.685,1.703 1.729,2.165 1.049,3.556 -0.68,1.39 -2.39,3.329 -1.384,6.338 0.47,1.408 -0.346,1.997 -1.521,4.562 C -4.221,-2.564 -2.558,1.934 0,0"/></g><g id="g50097" transform="matrix(0.35277777,0,0,-0.35277777,84.795147,254.16823)"><path style="fill:#ef3142;fill-opacity:1;fill-rule:nonzero;stroke:none" id="path50099" d="m 0,0 c 0,0 -2.252,-0.205 -3.422,-0.673 -1.749,-0.699 -2.113,-1.951 -2.113,-1.951 0,0 -3.892,1.318 -4.726,2.456 -0.835,1.138 -0.957,2.458 -1.166,4.031 -0.209,1.574 0.141,2.997 0.855,2.692 0.77,-0.329 1.088,-0.933 1.049,-2.049 -0.015,-0.42 0.481,-2.187 1.243,-1.953 0.388,0.118 0.967,1.51 1.05,2.448 0.116,1.321 0.139,2.331 -1.022,2.957 -1.161,0.626 -2.309,0 -2.309,0 0,0 0.105,2.172 2.087,2.327 0.641,0.377 1.68,1.245 2.987,0.961 1.773,0.377 2.628,0.629 3.58,0.05 0.91,-0.553 2.121,-3.459 2.098,-5.48 C 0.171,3.985 0,0 0,0"/></g><g id="g50101" transform="matrix(0.35277777,0,0,-0.35277777,84.799098,254.0721)"><path style="fill:#5e3231;fill-opacity:1;fill-rule:nonzero;stroke:none" id="path50103" d="m 0,0 0.375,-1.605 c 0,0 -1.218,-0.06 -3.083,-0.671 -1.888,-0.62 -2.783,-1.615 -2.783,-1.615 l -0.541,1.168 c 0,0 0.12,0.778 2.129,1.742 C -3.063,-0.578 -1.509,-0.083 0,0"/></g><g id="g50105" transform="matrix(0.35277777,0,0,-0.35277777,74.622447,284.26942)"><path style="fill:#fabaac;fill-opacity:1;fill-rule:nonzero;stroke:none" id="path50107" d="m 0,0 c 0,0 -3.464,2.693 -6.262,4.724 -2.799,2.03 -5.085,2.823 -5.085,2.823 0,0 -3.034,-1.361 -1.635,-4.186 1.399,-2.824 4.238,-8.018 7.289,-10.091 3.05,-2.073 4.801,-1.461 6.045,0.598 C 1.596,-4.072 0,0 0,0"/></g><g id="g50109" transform="matrix(0.35277777,0,0,-0.35277777,71.420424,281.89505)"><path style="fill:#ef3142;fill-opacity:1;fill-rule:nonzero;stroke:none" id="path50111" d="M 0,0 C 0,0 -0.173,2.331 0.453,3.547 0.887,4.391 1.47,4.994 0.887,5.818 0.304,6.643 -0.062,6.61 -0.532,5.906 -1.002,5.2 -2.507,4.369 -3.369,5.034 c -0.361,0.28 -1.627,2.141 -2.65,2.744 -1.699,1.002 -5.335,-1.597 -4.827,-3.947 0.51,-2.351 1.968,-3.811 3.331,-5.598 0.829,-1.086 3.609,-1.602 3.609,-1.602 z"/></g><g id="g50113" transform="matrix(0.35277777,0,0,-0.35277777,71.400281,281.87748)"><path style="fill:#5e3231;fill-opacity:1;fill-rule:nonzero;stroke:none" id="path50115" d="m 0,0 0.944,-0.787 c 0,0 -1.755,-0.219 -2.778,-1.137 -1.137,-1.02 -1.563,-2.482 -1.563,-2.482 l -0.82,1.148 c 0,0 -0.156,0.746 1.334,2.15 C -1.394,0.296 0,0 0,0"/></g></g></g></g></svg>