<?xml version="1.0" encoding="UTF-8" standalone="no"?>
<svg
   id="visual"
   viewBox="0 0 900 600"
   width="900"
   height="600"
   version="1.1"
   sodipodi:docname="adv_paintball_bg11.svg"
   inkscape:version="1.1 (c68e22c387, 2021-05-23)"
   xmlns:inkscape="http://www.inkscape.org/namespaces/inkscape"
   xmlns:sodipodi="http://sodipodi.sourceforge.net/DTD/sodipodi-0.dtd"
   xmlns="http://www.w3.org/2000/svg"
   xmlns:svg="http://www.w3.org/2000/svg">
  <defs
     id="defs9" />
  <sodipodi:namedview
     id="namedview7"
     pagecolor="#ffffff"
     bordercolor="#666666"
     borderopacity="1.0"
     inkscape:pageshadow="2"
     inkscape:pageopacity="0.0"
     inkscape:pagecheckerboard="0"
     showgrid="false"
     inkscape:zoom="0.43290647"
     inkscape:cx="113.18842"
     inkscape:cy="493.17812"
     inkscape:window-width="1271"
     inkscape:window-height="1003"
     inkscape:window-x="631"
     inkscape:window-y="38"
     inkscape:window-maximized="0"
     inkscape:current-layer="visual" />
  <rect
     x="0"
     y="0"
     width="900"
     height="600"
     fill="#68a52f"
     id="rect2" />
  <path
     d="m 395.74815,333.66764 -6.31333,1.01333 5.20933,-3.73866 -5.43866,2.31333 4.204,-4.21733 -5.64934,3.59733 3.68534,-5.66533 -5.61734,5.48933 2.25334,-7.608 -3.04,5.46 0.668,-6.26533 -1.93067,5.7 -0.38667,-6.04934 -1.16533,7.42 -2.436,-7.18533 0.76133,7.13467 -3.87466,-6.12134 1.59333,4.43467 -2.98133,-3.69067 3.224,6.52934 -5.86934,-4.43334 5.49334,6.47067 -8.21734,-2.512 6.16934,3.51067 -7.152,-0.46134 6.368,1.86267 -6.62534,0.92533 6.34134,0.08 -3.39467,1.332 3.3,-0.96933 -0.176,0.66 1.56933,-0.56267 -0.24933,1.05734 1.22933,-0.488 -0.212,1.01066 1.256,-1.024 -0.21733,1.24267 0.788,-0.74133 0.432,0.872 0.57067,-1.05734 0.588,1.66534 0.93466,-2.34934 0.77334,2.78534 1.14,-2.744 2.69866,1.22133 -0.88133,-1.90533 2.50667,0.596 -0.82,-1.004 2.80933,0.408 -0.96133,-0.81067 3.06,0.40267 -1.80667,-0.992 0.628,-0.23467 -0.26667,-0.17467 3.34134,0.92134 -3.24934,-1.21467 h 4.176 l -4.07733,-0.35733 0.52133,-0.084 4.716,-1.45467"
     style="fill:#4e792c;fill-opacity:1;fill-rule:nonzero;stroke:none;stroke-width:0.133333"
     id="path590" />
  <path
     d="m 488.03491,309.16674 -6.31334,1.01333 5.20934,-3.73866 -5.43867,2.31333 4.204,-4.21733 -5.64933,3.59733 3.68533,-5.66533 -5.61733,5.48933 2.25333,-7.608 -3.04,5.46 0.668,-6.26533 -1.93067,5.7 -0.38666,-6.04934 -1.16534,7.42 -2.436,-7.18533 0.76134,7.13467 -3.87467,-6.12134 1.59333,4.43467 -2.98133,-3.69067 3.224,6.52934 -5.86933,-4.43334 5.49333,6.47067 -8.21733,-2.512 6.16933,3.51067 -7.152,-0.46134 6.368,1.86267 -6.62533,0.92533 6.34133,0.08 -3.39467,1.332 3.3,-0.96933 -0.176,0.66 1.56934,-0.56267 -0.24934,1.05734 1.22934,-0.488 -0.212,1.01066 1.256,-1.024 -0.21734,1.24267 0.788,-0.74133 0.432,0.872 0.57067,-1.05734 0.588,1.66534 0.93467,-2.34934 0.77333,2.78534 1.14,-2.744 2.69867,1.22133 -0.88134,-1.90533 2.50667,0.596 -0.82,-1.004 2.80933,0.408 -0.96133,-0.81067 3.06,0.40267 -1.80667,-0.992 0.628,-0.23467 -0.26666,-0.17467 3.34133,0.92134 -3.24933,-1.21467 h 4.176 l -4.07734,-0.35733 0.52134,-0.084 4.716,-1.45467"
     style="fill:#4e792c;fill-opacity:1;fill-rule:nonzero;stroke:none;stroke-width:0.133333"
     id="path590-9" />
  <path
     d="m 512.53581,345.9181 -6.31333,1.01333 5.20933,-3.73866 -5.43866,2.31333 4.204,-4.21733 -5.64934,3.59733 3.68534,-5.66533 -5.61734,5.48933 2.25334,-7.608 -3.04,5.46 0.668,-6.26533 -1.93067,5.7 -0.38667,-6.04934 -1.16533,7.42 -2.436,-7.18533 0.76133,7.13467 -3.87466,-6.12134 1.59333,4.43467 -2.98133,-3.69067 3.224,6.52934 -5.86934,-4.43334 5.49334,6.47067 -8.21734,-2.512 6.16934,3.51067 -7.152,-0.46134 6.368,1.86267 -6.62534,0.92533 6.34134,0.08 -3.39467,1.332 3.3,-0.96933 -0.176,0.66 1.56933,-0.56267 -0.24933,1.05734 1.22933,-0.488 -0.212,1.01066 1.256,-1.024 -0.21733,1.24267 0.788,-0.74133 0.432,0.872 0.57067,-1.05734 0.588,1.66534 0.93466,-2.34934 0.77334,2.78534 1.14,-2.744 2.69866,1.22133 -0.88133,-1.90533 2.50667,0.596 -0.82,-1.004 2.80933,0.408 -0.96133,-0.81067 3.06,0.40267 -1.80667,-0.992 0.628,-0.23467 -0.26667,-0.17467 3.34134,0.92134 -3.24934,-1.21467 h 4.176 l -4.07733,-0.35733 0.52133,-0.084 4.716,-1.45467"
     style="fill:#4e792c;fill-opacity:1;fill-rule:nonzero;stroke:none;stroke-width:0.133333"
     id="path590-7" />
  <path
     d="M0 508L100 508L200 554L300 507L400 519L500 534L600 510L700 548L800 569L900 557L900 601L800 601L700 601L600 601L500 601L400 601L300 601L200 601L100 601L0 601Z"
     fill="#b78458"
     stroke-linecap="square"
     stroke-linejoin="bevel"
     id="path4" />
  <path
     d="m 577.05487,178.49523 -6.31333,1.01333 5.20933,-3.73866 -5.43867,2.31333 4.204,-4.21733 -5.64933,3.59733 3.68533,-5.66533 -5.61733,5.48933 2.25333,-7.608 -3.04,5.46 0.668,-6.26533 -1.93066,5.7 -0.38667,-6.04934 -1.16533,7.42 -2.436,-7.18533 0.76133,7.13467 -3.87467,-6.12134 1.59334,4.43467 -2.98134,-3.69067 3.224,6.52934 -5.86933,-4.43334 5.49333,6.47067 -8.21733,-2.512 6.16933,3.51067 -7.152,-0.46134 6.368,1.86267 -6.62533,0.92533 6.34133,0.08 -3.39466,1.332 3.3,-0.96933 -0.176,0.66 1.56933,-0.56267 -0.24933,1.05734 1.22933,-0.488 -0.212,1.01066 1.256,-1.024 -0.21733,1.24267 0.788,-0.74133 0.432,0.872 0.57066,-1.05734 0.588,1.66534 0.93467,-2.34934 0.77333,2.78534 1.14,-2.744 2.69867,1.22133 -0.88133,-1.90533 2.50666,0.596 -0.82,-1.004 2.80934,0.408 -0.96134,-0.81067 3.06,0.40267 -1.80666,-0.992 0.628,-0.23467 -0.26667,-0.17467 3.34133,0.92134 -3.24933,-1.21467 h 4.176 l -4.07733,-0.35733 0.52133,-0.084 4.716,-1.45467"
     style="fill:#4e792c;fill-opacity:1;fill-rule:nonzero;stroke:none;stroke-width:0.133333"
     id="path590-72" />
  <path
     d="m 683.22547,247.09777 -6.31333,1.01333 5.20933,-3.73866 -5.43866,2.31333 4.204,-4.21733 -5.64934,3.59733 3.68534,-5.66533 -5.61734,5.48933 2.25334,-7.608 -3.04,5.46 0.668,-6.26533 -1.93067,5.7 -0.38667,-6.04934 -1.16533,7.42 -2.436,-7.18533 0.76133,7.13467 -3.87466,-6.12134 1.59333,4.43467 -2.98133,-3.69067 3.224,6.52934 -5.86934,-4.43334 5.49334,6.47067 -8.21734,-2.512 6.16934,3.51067 -7.152,-0.46134 6.368,1.86267 -6.62534,0.92533 6.34134,0.08 -3.39467,1.332 3.3,-0.96933 -0.176,0.66 1.56933,-0.56267 -0.24933,1.05734 1.22933,-0.488 -0.212,1.01066 1.256,-1.024 -0.21733,1.24267 0.788,-0.74133 0.432,0.872 0.57067,-1.05734 0.588,1.66534 0.93466,-2.34934 0.77334,2.78534 1.14,-2.744 2.69866,1.22133 -0.88133,-1.90533 2.50667,0.596 -0.82,-1.004 2.80933,0.408 -0.96133,-0.81067 3.06,0.40267 -1.80667,-0.992 0.628,-0.23467 -0.26667,-0.17467 3.34134,0.92134 -3.24934,-1.21467 h 4.176 l -4.07733,-0.35733 0.52133,-0.084 4.716,-1.45467"
     style="fill:#4e792c;fill-opacity:1;fill-rule:nonzero;stroke:none;stroke-width:0.133333"
     id="path590-0" />
  <path
     d="m 675.0585,347.55149 -6.31333,1.01333 5.20933,-3.73866 -5.43867,2.31333 4.204,-4.21733 -5.64933,3.59733 3.68533,-5.66533 -5.61733,5.48933 2.25333,-7.608 -3.04,5.46 0.668,-6.26533 -1.93066,5.7 -0.38667,-6.04934 -1.16533,7.42 -2.436,-7.18533 0.76133,7.13467 -3.87467,-6.12134 1.59334,4.43467 -2.98134,-3.69067 3.224,6.52934 -5.86933,-4.43334 5.49333,6.47067 -8.21733,-2.512 6.16933,3.51067 -7.152,-0.46134 6.368,1.86267 -6.62533,0.92533 6.34133,0.08 -3.39466,1.332 3.3,-0.96933 -0.176,0.66 1.56933,-0.56267 -0.24933,1.05734 1.22933,-0.488 -0.212,1.01066 1.256,-1.024 -0.21733,1.24267 0.788,-0.74133 0.432,0.872 0.57066,-1.05734 0.588,1.66534 0.93467,-2.34934 0.77333,2.78534 1.14,-2.744 2.69867,1.22133 -0.88133,-1.90533 2.50666,0.596 -0.82,-1.004 2.80934,0.408 -0.96134,-0.81067 3.06,0.40267 -1.80666,-0.992 0.628,-0.23467 -0.26667,-0.17467 3.34133,0.92134 -3.24933,-1.21467 h 4.176 l -4.07733,-0.35733 0.52133,-0.084 4.716,-1.45467"
     style="fill:#4e792c;fill-opacity:1;fill-rule:nonzero;stroke:none;stroke-width:0.133333"
     id="path590-4" />
  <path
     d="m 638.30714,405.53697 -6.31333,1.01333 5.20933,-3.73866 -5.43867,2.31333 4.204,-4.21733 -5.64933,3.59733 3.68533,-5.66533 -5.61733,5.48933 2.25333,-7.608 -3.04,5.46 0.668,-6.26533 -1.93066,5.7 -0.38667,-6.04934 -1.16533,7.42 -2.436,-7.18533 0.76133,7.13467 -3.87467,-6.12134 1.59334,4.43467 -2.98134,-3.69067 3.224,6.52934 -5.86933,-4.43334 5.49333,6.47067 -8.21733,-2.512 6.16933,3.51067 -7.152,-0.46134 6.368,1.86267 -6.62533,0.92533 6.34133,0.08 -3.39466,1.332 3.3,-0.96933 -0.176,0.66 1.56933,-0.56267 -0.24933,1.05734 1.22933,-0.488 -0.212,1.01066 1.256,-1.024 -0.21733,1.24267 0.788,-0.74133 0.432,0.872 0.57066,-1.05734 0.588,1.66534 0.93467,-2.34934 0.77333,2.78534 1.14,-2.744 2.69867,1.22133 -0.88133,-1.90533 2.50666,0.596 -0.82,-1.004 2.80934,0.408 -0.96134,-0.81067 3.06,0.40267 -1.80666,-0.992 0.628,-0.23467 -0.26667,-0.17467 3.34133,0.92134 -3.24933,-1.21467 h 4.176 l -4.07733,-0.35733 0.52133,-0.084 4.716,-1.45467"
     style="fill:#4e792c;fill-opacity:1;fill-rule:nonzero;stroke:none;stroke-width:0.133333"
     id="path590-1" />
  <path
     d="m 479.86794,407.17037 -6.31333,1.01333 5.20933,-3.73866 -5.43867,2.31333 4.204,-4.21733 -5.64933,3.59733 3.68533,-5.66533 -5.61733,5.48933 2.25333,-7.608 -3.04,5.46 0.668,-6.26533 -1.93066,5.7 -0.38667,-6.04934 -1.16533,7.42 -2.436,-7.18533 0.76133,7.13467 -3.87467,-6.12134 1.59334,4.43467 -2.98134,-3.69067 3.224,6.52934 -5.86933,-4.43334 5.49333,6.47067 -8.21733,-2.512 6.16933,3.51067 -7.152,-0.46134 6.368,1.86267 -6.62533,0.92533 6.34133,0.08 -3.39466,1.332 3.3,-0.96933 -0.176,0.66 1.56933,-0.56267 -0.24933,1.05734 1.22933,-0.488 -0.212,1.01066 1.256,-1.024 -0.21733,1.24267 0.788,-0.74133 0.432,0.872 0.57066,-1.05734 0.588,1.66534 0.93467,-2.34934 0.77333,2.78534 1.14,-2.744 2.69867,1.22133 -0.88133,-1.90533 2.50666,0.596 -0.82,-1.004 2.80934,0.408 -0.96134,-0.81067 3.06,0.40267 -1.80666,-0.992 0.628,-0.23467 -0.26667,-0.17467 3.34133,0.92134 -3.24933,-1.21467 h 4.176 l -4.07733,-0.35733 0.52133,-0.084 4.716,-1.45467"
     style="fill:#4e792c;fill-opacity:1;fill-rule:nonzero;stroke:none;stroke-width:0.133333"
     id="path590-8" />
  <path
     d="m 336.94598,363.88543 -6.31333,1.01333 5.20933,-3.73866 -5.43866,2.31333 4.204,-4.21733 -5.64934,3.59733 3.68534,-5.66533 -5.61734,5.48933 2.25334,-7.608 -3.04,5.46 0.668,-6.26533 -1.93067,5.7 -0.38667,-6.04934 -1.16533,7.42 -2.436,-7.18533 0.76133,7.13467 -3.87466,-6.12134 1.59333,4.43467 -2.98133,-3.69067 3.224,6.52934 -5.86934,-4.43334 5.49334,6.47067 -8.21734,-2.512 6.16934,3.51067 -7.152,-0.46134 6.368,1.86267 -6.62534,0.92533 6.34134,0.08 -3.39467,1.332 3.3,-0.96933 -0.176,0.66 1.56933,-0.56267 -0.24933,1.05734 1.22933,-0.488 -0.212,1.01066 1.256,-1.024 -0.21733,1.24267 0.788,-0.74133 0.432,0.872 0.57067,-1.05734 0.588,1.66534 0.93466,-2.34934 0.77334,2.78534 1.14,-2.744 2.69866,1.22133 -0.88133,-1.90533 2.50667,0.596 -0.82,-1.004 2.80933,0.408 -0.96133,-0.81067 3.06,0.40267 -1.80667,-0.992 0.628,-0.23467 -0.26667,-0.17467 3.34134,0.92134 -3.24934,-1.21467 h 4.176 l -4.07733,-0.35733 0.52133,-0.084 4.716,-1.45467"
     style="fill:#4e792c;fill-opacity:1;fill-rule:nonzero;stroke:none;stroke-width:0.133333"
     id="path590-92" />
  <path
     d="m 272.42692,314.06692 -6.31333,1.01333 5.20933,-3.73866 -5.43866,2.31333 4.204,-4.21733 -5.64934,3.59733 3.68534,-5.66533 -5.61734,5.48933 2.25334,-7.608 -3.04,5.46 0.668,-6.26533 -1.93067,5.7 -0.38667,-6.04934 -1.16533,7.42 -2.436,-7.18533 0.76133,7.13467 -3.87466,-6.12134 1.59333,4.43467 -2.98133,-3.69067 3.224,6.52934 -5.86934,-4.43334 5.49334,6.47067 -8.21734,-2.512 6.16934,3.51067 -7.152,-0.46134 6.368,1.86267 -6.62534,0.92533 6.34134,0.08 -3.39467,1.332 3.3,-0.96933 -0.176,0.66 1.56933,-0.56267 -0.24933,1.05734 1.22933,-0.488 -0.212,1.01066 1.256,-1.024 -0.21733,1.24267 0.788,-0.74133 0.432,0.872 0.57067,-1.05734 0.588,1.66534 0.93466,-2.34934 0.77334,2.78534 1.14,-2.744 2.69866,1.22133 -0.88133,-1.90533 2.50667,0.596 -0.82,-1.004 2.80933,0.408 -0.96133,-0.81067 3.06,0.40267 -1.80667,-0.992 0.628,-0.23467 -0.26667,-0.17467 3.34134,0.92134 -3.24934,-1.21467 h 4.176 l -4.07733,-0.35733 0.52133,-0.084 4.716,-1.45467"
     style="fill:#4e792c;fill-opacity:1;fill-rule:nonzero;stroke:none;stroke-width:0.133333"
     id="path590-77" />
  <path
     d="m 293.66104,225.04695 -6.31333,1.01333 5.20933,-3.73866 -5.43866,2.31333 4.204,-4.21733 -5.64934,3.59733 3.68534,-5.66533 -5.61734,5.48933 2.25334,-7.608 -3.04,5.46 0.668,-6.26533 -1.93067,5.7 -0.38667,-6.04934 -1.16533,7.42 -2.436,-7.18533 0.76133,7.13467 -3.87466,-6.12134 1.59333,4.43467 -2.98133,-3.69067 3.224,6.52934 -5.86934,-4.43334 5.49334,6.47067 -8.21734,-2.512 6.16934,3.51067 -7.152,-0.46134 6.368,1.86267 -6.62534,0.92533 6.34134,0.08 -3.39467,1.332 3.3,-0.96933 -0.176,0.66 1.56933,-0.56267 -0.24933,1.05734 1.22933,-0.488 -0.212,1.01066 1.256,-1.024 -0.21733,1.24267 0.788,-0.74133 0.432,0.872 0.57067,-1.05734 0.588,1.66534 0.93466,-2.34934 0.77334,2.78534 1.14,-2.744 2.69866,1.22133 -0.88133,-1.90533 2.50667,0.596 -0.82,-1.004 2.80933,0.408 -0.96133,-0.81067 3.06,0.40267 -1.80667,-0.992 0.628,-0.23467 -0.26667,-0.17467 3.34134,0.92134 -3.24934,-1.21467 h 4.176 l -4.07733,-0.35733 0.52133,-0.084 4.716,-1.45467"
     style="fill:#4e792c;fill-opacity:1;fill-rule:nonzero;stroke:none;stroke-width:0.133333"
     id="path590-89" />
  <path
     d="m 354.91331,194.82917 -6.31333,1.01333 5.20933,-3.73866 -5.43866,2.31333 4.204,-4.21733 -5.64934,3.59733 3.68534,-5.66533 -5.61734,5.48933 2.25334,-7.608 -3.04,5.46 0.668,-6.26533 -1.93067,5.7 -0.38667,-6.04934 -1.16533,7.42 -2.436,-7.18533 0.76133,7.13467 -3.87466,-6.12134 1.59333,4.43467 -2.98133,-3.69067 3.224,6.52934 -5.86934,-4.43334 5.49334,6.47067 -8.21734,-2.512 6.16934,3.51067 -7.152,-0.46134 6.368,1.86267 -6.62534,0.92533 6.34134,0.08 -3.39467,1.332 3.3,-0.96933 -0.176,0.66 1.56933,-0.56267 -0.24933,1.05734 1.22933,-0.488 -0.212,1.01066 1.256,-1.024 -0.21733,1.24267 0.788,-0.74133 0.432,0.872 0.57067,-1.05734 0.588,1.66534 0.93466,-2.34934 0.77334,2.78534 1.14,-2.744 2.69866,1.22133 -0.88133,-1.90533 2.50667,0.596 -0.82,-1.004 2.80933,0.408 -0.96133,-0.81067 3.06,0.40267 -1.80667,-0.992 0.628,-0.23467 -0.26667,-0.17467 3.34134,0.92134 -3.24934,-1.21467 h 4.176 l -4.07733,-0.35733 0.52133,-0.084 4.716,-1.45467"
     style="fill:#4e792c;fill-opacity:1;fill-rule:nonzero;stroke:none;stroke-width:0.133333"
     id="path590-2" />
  <path
     d="m 419.43236,183.39541 -6.31333,1.01333 5.20933,-3.73866 -5.43866,2.31333 4.204,-4.21733 -5.64934,3.59733 3.68534,-5.66533 -5.61734,5.48933 2.25334,-7.608 -3.04,5.46 0.668,-6.26533 -1.93067,5.7 -0.38667,-6.04934 -1.16533,7.42 -2.436,-7.18533 0.76133,7.13467 -3.87466,-6.12134 1.59333,4.43467 -2.98133,-3.69067 3.224,6.52934 -5.86934,-4.43334 5.49334,6.47067 -8.21734,-2.512 6.16934,3.51067 -7.152,-0.46134 6.368,1.86267 -6.62534,0.92533 6.34134,0.08 -3.39467,1.332 3.3,-0.96933 -0.176,0.66 1.56933,-0.56267 -0.24933,1.05734 1.22933,-0.488 -0.212,1.01066 1.256,-1.024 -0.21733,1.24267 0.788,-0.74133 0.432,0.872 0.57067,-1.05734 0.588,1.66534 0.93466,-2.34934 0.77334,2.78534 1.14,-2.744 2.69866,1.22133 -0.88133,-1.90533 2.50667,0.596 -0.82,-1.004 2.80933,0.408 -0.96133,-0.81067 3.06,0.40267 -1.80667,-0.992 0.628,-0.23467 -0.26667,-0.17467 3.34134,0.92134 -3.24934,-1.21467 h 4.176 l -4.07733,-0.35733 0.52133,-0.084 4.716,-1.45467"
     style="fill:#4e792c;fill-opacity:1;fill-rule:nonzero;stroke:none;stroke-width:0.133333"
     id="path590-10" />
  <path
     d="m 488.8516,237.29741 -6.31333,1.01333 5.20933,-3.73866 -5.43866,2.31333 4.204,-4.21733 -5.64934,3.59733 3.68534,-5.66533 -5.61734,5.48933 2.25334,-7.608 -3.04,5.46 0.668,-6.26533 -1.93067,5.7 -0.38667,-6.04934 -1.16533,7.42 -2.436,-7.18533 0.76133,7.13467 -3.87466,-6.12134 1.59333,4.43467 -2.98133,-3.69067 3.224,6.52934 -5.86934,-4.43334 5.49334,6.47067 -8.21734,-2.512 6.16934,3.51067 -7.152,-0.46134 6.368,1.86267 -6.62534,0.92533 6.34134,0.08 -3.39467,1.332 3.3,-0.96933 -0.176,0.66 1.56933,-0.56267 -0.24933,1.05734 1.22933,-0.488 -0.212,1.01066 1.256,-1.024 -0.21733,1.24267 0.788,-0.74133 0.432,0.872 0.57067,-1.05734 0.588,1.66534 0.93466,-2.34934 0.77334,2.78534 1.14,-2.744 2.69866,1.22133 -0.88133,-1.90533 2.50667,0.596 -0.82,-1.004 2.80933,0.408 -0.96133,-0.81067 3.06,0.40267 -1.80667,-0.992 0.628,-0.23467 -0.26667,-0.17467 3.34134,0.92134 -3.24934,-1.21467 h 4.176 l -4.07733,-0.35733 0.52133,-0.084 4.716,-1.45467"
     style="fill:#4e792c;fill-opacity:1;fill-rule:nonzero;stroke:none;stroke-width:0.133333"
     id="path590-04" />
  <path
     d="m 394.11476,263.43171 -6.31333,1.01333 5.20933,-3.73866 -5.43866,2.31333 4.204,-4.21733 -5.64934,3.59733 3.68534,-5.66533 -5.61734,5.48933 2.25334,-7.608 -3.04,5.46 0.668,-6.26533 -1.93067,5.7 -0.38667,-6.04934 -1.16533,7.42 -2.436,-7.18533 0.76133,7.13467 -3.87466,-6.12134 1.59333,4.43467 -2.98133,-3.69067 3.224,6.52934 -5.86934,-4.43334 5.49334,6.47067 -8.21734,-2.512 6.16934,3.51067 -7.152,-0.46134 6.368,1.86267 -6.62534,0.92533 6.34134,0.08 -3.39467,1.332 3.3,-0.96933 -0.176,0.66 1.56933,-0.56267 -0.24933,1.05734 1.22933,-0.488 -0.212,1.01066 1.256,-1.024 -0.21733,1.24267 0.788,-0.74133 0.432,0.872 0.57067,-1.05734 0.588,1.66534 0.93466,-2.34934 0.77334,2.78534 1.14,-2.744 2.69866,1.22133 -0.88133,-1.90533 2.50667,0.596 -0.82,-1.004 2.80933,0.408 -0.96133,-0.81067 3.06,0.40267 -1.80667,-0.992 0.628,-0.23467 -0.26667,-0.17467 3.34134,0.92134 -3.24934,-1.21467 h 4.176 l -4.07733,-0.35733 0.52133,-0.084 4.716,-1.45467"
     style="fill:#4e792c;fill-opacity:1;fill-rule:nonzero;stroke:none;stroke-width:0.133333"
     id="path590-5" />
  <path
     d="m 419.43236,236.48071 -6.31333,1.01333 5.20933,-3.73866 -5.43866,2.31333 4.204,-4.21733 -5.64934,3.59733 3.68534,-5.66533 -5.61734,5.48933 2.25334,-7.608 -3.04,5.46 0.668,-6.26533 -1.93067,5.7 -0.38667,-6.04934 -1.16533,7.42 -2.436,-7.18533 0.76133,7.13467 -3.87466,-6.12134 1.59333,4.43467 -2.98133,-3.69067 3.224,6.52934 -5.86934,-4.43334 5.49334,6.47067 -8.21734,-2.512 6.16934,3.51067 -7.152,-0.46134 6.368,1.86267 -6.62534,0.92533 6.34134,0.08 -3.39467,1.332 3.3,-0.96933 -0.176,0.66 1.56933,-0.56267 -0.24933,1.05734 1.22933,-0.488 -0.212,1.01066 1.256,-1.024 -0.21733,1.24267 0.788,-0.74133 0.432,0.872 0.57067,-1.05734 0.588,1.66534 0.93466,-2.34934 0.77334,2.78534 1.14,-2.744 2.69866,1.22133 -0.88133,-1.90533 2.50667,0.596 -0.82,-1.004 2.80933,0.408 -0.96133,-0.81067 3.06,0.40267 -1.80667,-0.992 0.628,-0.23467 -0.26667,-0.17467 3.34134,0.92134 -3.24934,-1.21467 h 4.176 l -4.07733,-0.35733 0.52133,-0.084 4.716,-1.45467"
     style="fill:#4e792c;fill-opacity:1;fill-rule:nonzero;stroke:none;stroke-width:0.133333"
     id="path590-75" />
  <path
     d="m 532.13654,145.01066 -6.31333,1.01333 5.20933,-3.73866 -5.43867,2.31333 4.204,-4.21733 -5.64933,3.59733 3.68533,-5.66533 -5.61733,5.48933 2.25333,-7.608 -3.04,5.46 0.668,-6.26533 -1.93066,5.7 -0.38667,-6.04934 -1.16533,7.42 -2.436,-7.18533 0.76133,7.13467 -3.87467,-6.12134 1.59334,4.43467 -2.98134,-3.69067 3.224,6.52934 -5.86933,-4.43334 5.49333,6.47067 -8.21733,-2.512 6.16933,3.51067 -7.152,-0.46134 6.368,1.86267 -6.62533,0.92533 6.34133,0.08 -3.39466,1.332 3.3,-0.96933 -0.176,0.66 1.56933,-0.56267 -0.24933,1.05734 1.22933,-0.488 -0.212,1.01066 1.256,-1.024 -0.21733,1.24267 0.788,-0.74133 0.432,0.872 0.57066,-1.05734 0.588,1.66534 0.93467,-2.34934 0.77333,2.78534 1.14,-2.744 2.69867,1.22133 -0.88133,-1.90533 2.50666,0.596 -0.82,-1.004 2.80934,0.408 -0.96134,-0.81067 3.06,0.40267 -1.80666,-0.992 0.628,-0.23467 -0.26667,-0.17467 3.34133,0.92134 -3.24933,-1.21467 h 4.176 l -4.07733,-0.35733 0.52133,-0.084 4.716,-1.45467"
     style="fill:#4e792c;fill-opacity:1;fill-rule:nonzero;stroke:none;stroke-width:0.133333"
     id="path590-759" />
  <path
     d="m 348.37973,100.90902 -6.31333,1.01333 5.20933,-3.738662 -5.43866,2.313332 4.204,-4.217332 -5.64934,3.597333 3.68534,-5.665333 -5.61734,5.489333 2.25334,-7.608 -3.04,5.46 0.668,-6.265333 -1.93067,5.7 -0.38667,-6.049333 -1.16533,7.419999 -2.436,-7.185333 0.76133,7.134667 -3.87466,-6.121333 1.59333,4.434666 -2.98133,-3.690666 3.224,6.529333 -5.86934,-4.433334 5.49334,6.470666 -8.21734,-2.511999 6.16934,3.510669 -7.152,-0.46134 6.368,1.86267 -6.62534,0.92533 6.34134,0.08 -3.39467,1.332 3.3,-0.96933 -0.176,0.66 1.56933,-0.56267 -0.24933,1.05734 1.22933,-0.488 -0.212,1.01066 1.256,-1.024 -0.21733,1.24267 0.788,-0.74133 0.432,0.872 0.57067,-1.05734 0.588,1.66534 0.93466,-2.34934 0.77334,2.78534 1.14,-2.744 2.69866,1.22133 -0.88133,-1.90533 2.50667,0.596 -0.82,-1.004 2.80933,0.408 -0.96133,-0.81067 3.06,0.40267 -1.80667,-0.992 0.628,-0.23467 -0.26667,-0.17467 3.34134,0.92134 -3.24934,-1.21467 h 4.176 l -4.07733,-0.35733 0.52133,-0.084 4.716,-1.45467"
     style="fill:#4e792c;fill-opacity:1;fill-rule:nonzero;stroke:none;stroke-width:0.133333"
     id="path590-6" />
  <path
     d="m 344.29625,126.22663 -6.31333,1.01333 5.20933,-3.73866 -5.43866,2.31333 4.204,-4.21733 -5.64934,3.59733 3.68534,-5.66533 -5.61734,5.48933 2.25334,-7.608 -3.04,5.46 0.668,-6.26533 -1.93067,5.7 -0.38667,-6.04934 -1.16533,7.42 -2.436,-7.18533 0.76133,7.13467 -3.87466,-6.12134 1.59333,4.43467 -2.98133,-3.69067 3.224,6.52934 -5.86934,-4.43334 5.49334,6.47067 -8.21734,-2.512 6.16934,3.51067 -7.152,-0.46134 6.368,1.86267 -6.62534,0.92533 6.34134,0.08 -3.39467,1.332 3.3,-0.96933 -0.176,0.66 1.56933,-0.56267 -0.24933,1.05734 1.22933,-0.488 -0.212,1.01066 1.256,-1.024 -0.21733,1.24267 0.788,-0.74133 0.432,0.872 0.57067,-1.05734 0.588,1.66534 0.93466,-2.34934 0.77334,2.78534 1.14,-2.744 2.69866,1.22133 -0.88133,-1.90533 2.50667,0.596 -0.82,-1.004 2.80933,0.408 -0.96133,-0.81067 3.06,0.40267 -1.80667,-0.992 0.628,-0.23467 -0.26667,-0.17467 3.34134,0.92134 -3.24934,-1.21467 h 4.176 l -4.07733,-0.35733 0.52133,-0.084 4.716,-1.45467"
     style="fill:#4e792c;fill-opacity:1;fill-rule:nonzero;stroke:none;stroke-width:0.133333"
     id="path590-3" />
  <path
     d="m 483.95142,111.52608 -6.31333,1.01333 5.20933,-3.73866 -5.43866,2.31333 4.204,-4.21733 -5.64934,3.59733 3.68534,-5.66533 -5.61734,5.48933 2.25334,-7.608 -3.04,5.46 0.668,-6.26533 -1.93067,5.7 -0.38667,-6.04934 -1.16533,7.42 -2.436,-7.18533 0.76133,7.13467 -3.87466,-6.12134 1.59333,4.43467 -2.98133,-3.69067 3.224,6.52934 -5.86934,-4.43334 5.49334,6.47067 -8.21734,-2.512 6.16934,3.51067 -7.152,-0.46134 6.368,1.86267 -6.62534,0.92533 6.34134,0.08 -3.39467,1.332 3.3,-0.96933 -0.176,0.66 1.56933,-0.56267 -0.24933,1.05734 1.22933,-0.488 -0.212,1.01066 1.256,-1.024 -0.21733,1.24267 0.788,-0.74133 0.432,0.872 0.57067,-1.05734 0.588,1.66534 0.93466,-2.34934 0.77334,2.78534 1.14,-2.744 2.69866,1.22133 -0.88133,-1.90533 2.50667,0.596 -0.82,-1.004 2.80933,0.408 -0.96133,-0.81067 3.06,0.40267 -1.80667,-0.992 0.628,-0.23467 -0.26667,-0.17467 3.34134,0.92134 -3.24934,-1.21467 h 4.176 l -4.07733,-0.35733 0.52133,-0.084 4.716,-1.45467"
     style="fill:#4e792c;fill-opacity:1;fill-rule:nonzero;stroke:none;stroke-width:0.133333"
     id="path590-98" />
  <path
     d="m 307.54489,98.458931 -6.31333,1.013333 5.20933,-3.738666 -5.43866,2.313333 4.204,-4.217333 -5.64934,3.597333 3.68534,-5.665333 -5.61734,5.489333 2.25334,-7.608 -3.04,5.46 0.668,-6.265333 -1.93067,5.7 -0.38667,-6.049333 -1.16533,7.419999 -2.436,-7.185333 0.76133,7.134667 -3.87466,-6.121333 1.59333,4.434666 -2.98133,-3.690666 3.224,6.529333 -5.86934,-4.433334 5.49334,6.470667 -8.21734,-2.512 6.16934,3.510669 -7.152,-0.461336 6.368,1.862666 -6.62534,0.92533 6.34134,0.08 -3.39467,1.332 3.3,-0.96933 -0.176,0.66 1.56933,-0.56267 -0.24933,1.05734 1.22933,-0.488 -0.212,1.01066 1.256,-1.024 -0.21733,1.24267 0.788,-0.74133 0.432,0.872 0.57067,-1.05734 0.588,1.66534 0.93466,-2.34934 0.77334,2.78534 1.14,-2.744 2.69866,1.22133 -0.88133,-1.90533 2.50667,0.596 -0.82,-1.004 2.80933,0.408 -0.96133,-0.81067 3.06,0.40267 -1.80667,-0.992 0.628,-0.23467 -0.26667,-0.17467 3.34134,0.92134 -3.24934,-1.21467 h 4.176 l -4.07733,-0.357332 0.52133,-0.084 4.716,-1.454667"
     style="fill:#4e792c;fill-opacity:1;fill-rule:nonzero;stroke:none;stroke-width:0.133333"
     id="path590-59" />
  <path
     d="m 502.73545,34.756571 -6.31333,1.013333 5.20933,-3.738666 -5.43867,2.313333 4.204,-4.217333 -5.64933,3.597333 3.68533,-5.665333 -5.61733,5.489333 2.25333,-7.608 -3.04,5.46 0.668,-6.265333 -1.93066,5.7 -0.38667,-6.049333 -1.16533,7.419999 -2.436,-7.185333 0.76133,7.134667 -3.87466,-6.121333 1.59333,4.434666 -2.98133,-3.690666 3.22399,6.529333 -5.86933,-4.433334 5.49333,6.470667 -8.21733,-2.512 6.16934,3.510667 -7.152,-0.461334 6.368,1.862667 -6.62534,0.925333 6.34134,0.08 -3.39467,1.332 3.3,-0.969333 -0.176,0.66 1.56933,-0.562667 -0.24933,1.057334 1.22933,-0.488 -0.212,1.010666 1.256,-1.024 -0.21733,1.242667 0.788,-0.741333 0.432,0.871999 0.57066,-1.057333 0.588,1.665333 0.93467,-2.349333 0.77333,2.785333 1.14,-2.743999 2.69867,1.221333 -0.88133,-1.905333 2.50666,0.596 -0.82,-1.004 2.80934,0.408 -0.96134,-0.810667 3.06,0.402667 -1.80666,-0.992 0.628,-0.234667 -0.26667,-0.174667 3.34133,0.921334 -3.24933,-1.214667 h 4.176 l -4.07733,-0.357333 0.52133,-0.084 4.716,-1.454667"
     style="fill:#4e792c;fill-opacity:1;fill-rule:nonzero;stroke:none;stroke-width:0.133333"
     id="path590-88" />
  <path
     d="m 715.89334,69.874541 -6.31333,1.013333 5.20933,-3.738666 -5.43866,2.313333 4.204,-4.217333 -5.64934,3.597333 3.68534,-5.665333 -5.61734,5.489333 2.25334,-7.608 -3.04,5.46 0.668,-6.265333 -1.93067,5.7 -0.38667,-6.049333 -1.16533,7.419999 -2.436,-7.185333 0.76133,7.134667 -3.87466,-6.121333 1.59333,4.434666 -2.98133,-3.690666 3.224,6.529333 -5.86934,-4.433334 5.49334,6.470667 -8.21734,-2.512 6.16934,3.510667 -7.152,-0.461334 6.368,1.862667 -6.62534,0.925333 6.34134,0.08 -3.39467,1.332 3.3,-0.969333 -0.176,0.66 1.56933,-0.562667 -0.24933,1.057334 1.22933,-0.488 -0.212,1.010666 1.256,-1.024 -0.21733,1.242667 0.788,-0.741333 0.432,0.871999 0.57067,-1.057333 0.588,1.665333 0.93466,-2.349333 0.77334,2.785333 1.14,-2.743999 2.69866,1.221333 -0.88133,-1.905333 2.50667,0.596 -0.82,-1.004 2.80933,0.408 -0.96133,-0.810667 3.06,0.402667 -1.80667,-0.992 0.628,-0.234667 -0.26667,-0.174667 3.34134,0.921334 -3.24934,-1.214667 h 4.176 l -4.07733,-0.357333 0.52133,-0.084 4.716,-1.454667"
     style="fill:#4e792c;fill-opacity:1;fill-rule:nonzero;stroke:none;stroke-width:0.133333"
     id="path590-60" />
  <path
     d="m 706.09298,363.06873 -6.31333,1.01333 5.20933,-3.73866 -5.43866,2.31333 4.204,-4.21733 -5.64934,3.59733 3.68534,-5.66533 -5.61734,5.48933 2.25334,-7.608 -3.04,5.46 0.668,-6.26533 -1.93067,5.7 -0.38667,-6.04934 -1.16533,7.42 -2.436,-7.18533 0.76133,7.13467 -3.87466,-6.12134 1.59333,4.43467 -2.98133,-3.69067 3.224,6.52934 -5.86934,-4.43334 5.49334,6.47067 -8.21734,-2.512 6.16934,3.51067 -7.152,-0.46134 6.368,1.86267 -6.62534,0.92533 6.34134,0.08 -3.39467,1.332 3.3,-0.96933 -0.176,0.66 1.56933,-0.56267 -0.24933,1.05734 1.22933,-0.488 -0.212,1.01066 1.256,-1.024 -0.21733,1.24267 0.788,-0.74133 0.432,0.872 0.57067,-1.05734 0.588,1.66534 0.93466,-2.34934 0.77334,2.78534 1.14,-2.744 2.69866,1.22133 -0.88133,-1.90533 2.50667,0.596 -0.82,-1.004 2.80933,0.408 -0.96133,-0.81067 3.06,0.40267 -1.80667,-0.992 0.628,-0.23467 -0.26667,-0.17467 3.34134,0.92134 -3.24934,-1.21467 h 4.176 l -4.07733,-0.35733 0.52133,-0.084 4.716,-1.45467"
     style="fill:#4e792c;fill-opacity:1;fill-rule:nonzero;stroke:none;stroke-width:0.133333"
     id="path590-43" />
  <path
     d="m 536.22003,392.46982 -6.31334,1.01333 5.20934,-3.73866 -5.43867,2.31333 4.204,-4.21733 -5.64933,3.59733 3.68533,-5.66533 -5.61733,5.48933 2.25333,-7.608 -3.04,5.46 0.668,-6.26533 -1.93067,5.7 -0.38666,-6.04934 -1.16534,7.42 -2.436,-7.18533 0.76134,7.13467 -3.87467,-6.12134 1.59333,4.43467 -2.98133,-3.69067 3.224,6.52934 -5.86933,-4.43334 5.49333,6.47067 -8.21733,-2.512 6.16933,3.51067 -7.152,-0.46134 6.368,1.86267 -6.62533,0.92533 6.34133,0.08 -3.39467,1.332 3.3,-0.96933 -0.176,0.66 1.56934,-0.56267 -0.24934,1.05734 1.22934,-0.488 -0.212,1.01066 1.256,-1.024 -0.21734,1.24267 0.788,-0.74133 0.432,0.872 0.57067,-1.05734 0.588,1.66534 0.93467,-2.34934 0.77333,2.78534 1.14,-2.744 2.69867,1.22133 -0.88134,-1.90533 2.50667,0.596 -0.82,-1.004 2.80933,0.408 -0.96133,-0.81067 3.06,0.40267 -1.80667,-0.992 0.628,-0.23467 -0.26666,-0.17467 3.34133,0.92134 -3.24933,-1.21467 h 4.176 l -4.07734,-0.35733 0.52134,-0.084 4.716,-1.45467"
     style="fill:#4e792c;fill-opacity:1;fill-rule:nonzero;stroke:none;stroke-width:0.133333"
     id="path590-67" />
  <path
     d="m 610.53944,298.54968 -6.31333,1.01333 5.20933,-3.73866 -5.43866,2.31333 4.204,-4.21733 -5.64934,3.59733 3.68534,-5.66533 -5.61734,5.48933 2.25334,-7.608 -3.04,5.46 0.668,-6.26533 -1.93067,5.7 -0.38667,-6.04934 -1.16533,7.42 -2.436,-7.18533 0.76133,7.13467 -3.87466,-6.12134 1.59333,4.43467 -2.98133,-3.69067 3.224,6.52934 -5.86934,-4.43334 5.49334,6.47067 -8.21734,-2.512 6.16934,3.51067 -7.152,-0.46134 6.368,1.86267 -6.62534,0.92533 6.34134,0.08 -3.39467,1.332 3.3,-0.96933 -0.176,0.66 1.56933,-0.56267 -0.24933,1.05734 1.22933,-0.488 -0.212,1.01066 1.256,-1.024 -0.21733,1.24267 0.788,-0.74133 0.432,0.872 0.57067,-1.05734 0.588,1.66534 0.93466,-2.34934 0.77334,2.78534 1.14,-2.744 2.69866,1.22133 -0.88133,-1.90533 2.50667,0.596 -0.82,-1.004 2.80933,0.408 -0.96133,-0.81067 3.06,0.40267 -1.80667,-0.992 0.628,-0.23467 -0.26667,-0.17467 3.34134,0.92134 -3.24934,-1.21467 h 4.176 l -4.07733,-0.35733 0.52133,-0.084 4.716,-1.45467"
     style="fill:#4e792c;fill-opacity:1;fill-rule:nonzero;stroke:none;stroke-width:0.133333"
     id="path590-54" />
  <path
     d="m 542.7536,227.49704 -6.31333,1.01333 5.20933,-3.73866 -5.43867,2.31333 4.204,-4.21733 -5.64933,3.59733 3.68533,-5.66533 -5.61733,5.48933 2.25333,-7.608 -3.04,5.46 0.668,-6.26533 -1.93066,5.7 -0.38667,-6.04934 -1.16533,7.42 -2.436,-7.18533 0.76133,7.13467 -3.87467,-6.12134 1.59334,4.43467 -2.98134,-3.69067 3.224,6.52934 -5.86933,-4.43334 5.49333,6.47067 -8.21733,-2.512 6.16933,3.51067 -7.152,-0.46134 6.368,1.86267 -6.62533,0.92533 6.34133,0.08 -3.39466,1.332 3.3,-0.96933 -0.176,0.66 1.56933,-0.56267 -0.24933,1.05734 1.22933,-0.488 -0.212,1.01066 1.256,-1.024 -0.21733,1.24267 0.788,-0.74133 0.432,0.872 0.57066,-1.05734 0.588,1.66534 0.93467,-2.34934 0.77333,2.78534 1.14,-2.744 2.69867,1.22133 -0.88133,-1.90533 2.50666,0.596 -0.82,-1.004 2.80934,0.408 -0.96134,-0.81067 3.06,0.40267 -1.80666,-0.992 0.628,-0.23467 -0.26667,-0.17467 3.34133,0.92134 -3.24933,-1.21467 h 4.176 l -4.07733,-0.35733 0.52133,-0.084 4.716,-1.45467"
     style="fill:#4e792c;fill-opacity:1;fill-rule:nonzero;stroke:none;stroke-width:0.133333"
     id="path590-33" />
  <path
     d="m 682.40877,166.24478 -6.31333,1.01333 5.20933,-3.73866 -5.43866,2.31333 4.204,-4.21733 -5.64934,3.59733 3.68534,-5.66533 -5.61734,5.48933 2.25334,-7.608 -3.04,5.46 0.668,-6.26533 -1.93067,5.7 -0.38667,-6.04934 -1.16533,7.42 -2.436,-7.18533 0.76133,7.13467 -3.87466,-6.12134 1.59333,4.43467 -2.98133,-3.69067 3.224,6.52934 -5.86934,-4.43334 5.49334,6.47067 -8.21734,-2.512 6.16934,3.51067 -7.152,-0.46134 6.368,1.86267 -6.62534,0.92533 6.34134,0.08 -3.39467,1.332 3.3,-0.96933 -0.176,0.66 1.56933,-0.56267 -0.24933,1.05734 1.22933,-0.488 -0.212,1.01066 1.256,-1.024 -0.21733,1.24267 0.788,-0.74133 0.432,0.872 0.57067,-1.05734 0.588,1.66534 0.93466,-2.34934 0.77334,2.78534 1.14,-2.744 2.69866,1.22133 -0.88133,-1.90533 2.50667,0.596 -0.82,-1.004 2.80933,0.408 -0.96133,-0.81067 3.06,0.40267 -1.80667,-0.992 0.628,-0.23467 -0.26667,-0.17467 3.34134,0.92134 -3.24934,-1.21467 h 4.176 l -4.07733,-0.35733 0.52133,-0.084 4.716,-1.45467"
     style="fill:#4e792c;fill-opacity:1;fill-rule:nonzero;stroke:none;stroke-width:0.133333"
     id="path590-23" />
  <path
     d="m 403.91512,112.34278 -6.31333,1.01333 5.20933,-3.73866 -5.43866,2.31333 4.204,-4.21733 -5.64934,3.59733 3.68534,-5.66533 -5.61734,5.48933 2.25334,-7.608 -3.04,5.46 0.668,-6.26533 -1.93067,5.7 -0.38667,-6.04934 -1.16533,7.42 -2.436,-7.18533 0.76133,7.13467 -3.87466,-6.12134 1.59333,4.43467 -2.98133,-3.69067 3.224,6.52934 -5.86934,-4.43334 5.49334,6.47067 -8.21734,-2.512 6.16934,3.51067 -7.152,-0.46134 6.368,1.86267 -6.62534,0.92533 6.34134,0.08 -3.39467,1.332 3.3,-0.96933 -0.176,0.66 1.56933,-0.56267 -0.24933,1.05734 1.22933,-0.488 -0.212,1.01066 1.256,-1.024 -0.21733,1.24267 0.788,-0.74133 0.432,0.872 0.57067,-1.05734 0.588,1.66534 0.93466,-2.34934 0.77334,2.78534 1.14,-2.744 2.69866,1.22133 -0.88133,-1.90533 2.50667,0.596 -0.82,-1.004 2.80933,0.408 -0.96133,-0.81067 3.06,0.40267 -1.80667,-0.992 0.628,-0.23467 -0.26667,-0.17467 3.34134,0.92134 -3.24934,-1.21467 h 4.176 l -4.07733,-0.35733 0.52133,-0.084 4.716,-1.45467"
     style="fill:#4e792c;fill-opacity:1;fill-rule:nonzero;stroke:none;stroke-width:0.133333"
     id="path590-01" />
  <path
     d="m 403.91512,112.34278 -6.31333,1.01333 5.20933,-3.73866 -5.43866,2.31333 4.204,-4.21733 -5.64934,3.59733 3.68534,-5.66533 -5.61734,5.48933 2.25334,-7.608 -3.04,5.46 0.668,-6.26533 -1.93067,5.7 -0.38667,-6.04934 -1.16533,7.42 -2.436,-7.18533 0.76133,7.13467 -3.87466,-6.12134 1.59333,4.43467 -2.98133,-3.69067 3.224,6.52934 -5.86934,-4.43334 5.49334,6.47067 -8.21734,-2.512 6.16934,3.51067 -7.152,-0.46134 6.368,1.86267 -6.62534,0.92533 6.34134,0.08 -3.39467,1.332 3.3,-0.96933 -0.176,0.66 1.56933,-0.56267 -0.24933,1.05734 1.22933,-0.488 -0.212,1.01066 1.256,-1.024 -0.21733,1.24267 0.788,-0.74133 0.432,0.872 0.57067,-1.05734 0.588,1.66534 0.93466,-2.34934 0.77334,2.78534 1.14,-2.744 2.69866,1.22133 -0.88133,-1.90533 2.50667,0.596 -0.82,-1.004 2.80933,0.408 -0.96133,-0.81067 3.06,0.40267 -1.80667,-0.992 0.628,-0.23467 -0.26667,-0.17467 3.34134,0.92134 -3.24934,-1.21467 h 4.176 l -4.07733,-0.35733 0.52133,-0.084 4.716,-1.45467"
     style="fill:#4e792c;fill-opacity:1;fill-rule:nonzero;stroke:none;stroke-width:0.133333"
     id="path590-28" />
  <path
     d="m 597.47229,83.758391 -6.31333,1.013333 5.20933,-3.738666 -5.43866,2.313333 4.204,-4.217333 -5.64934,3.597333 3.68534,-5.665333 -5.61734,5.489333 2.25334,-7.608 -3.04,5.46 0.668,-6.265333 -1.93067,5.7 -0.38667,-6.049333 -1.16533,7.419999 -2.436,-7.185333 0.76133,7.134667 -3.87466,-6.121333 1.59333,4.434666 -2.98133,-3.690666 3.224,6.529333 -5.86934,-4.433334 5.49334,6.470667 -8.21734,-2.512 6.16934,3.510667 -7.152,-0.461334 6.368,1.862667 -6.62534,0.925333 6.34134,0.08 -3.39467,1.332 3.3,-0.969333 -0.176,0.66 1.56933,-0.562667 -0.24933,1.057334 1.22933,-0.488 -0.212,1.010666 1.256,-1.024 -0.21733,1.242667 0.788,-0.741333 0.432,0.871999 0.57067,-1.057333 0.588,1.665333 0.93466,-2.349333 0.77334,2.785333 1.14,-2.743999 2.69866,1.221333 -0.88133,-1.905333 2.50667,0.596 -0.82,-1.004 2.80933,0.408 -0.96133,-0.810667 3.06,0.402667 -1.80667,-0.992 0.628,-0.234667 -0.26667,-0.174667 3.34134,0.921334 -3.24934,-1.214667 h 4.176 l -4.07733,-0.357333 0.52133,-0.084 4.716,-1.454667"
     style="fill:#4e792c;fill-opacity:1;fill-rule:nonzero;stroke:none;stroke-width:0.133333"
     id="path590-24" />
  <path
     d="m 597.47229,83.758391 -6.31333,1.013333 5.20933,-3.738666 -5.43866,2.313333 4.204,-4.217333 -5.64934,3.597333 3.68534,-5.665333 -5.61734,5.489333 2.25334,-7.608 -3.04,5.46 0.668,-6.265333 -1.93067,5.7 -0.38667,-6.049333 -1.16533,7.419999 -2.436,-7.185333 0.76133,7.134667 -3.87466,-6.121333 1.59333,4.434666 -2.98133,-3.690666 3.224,6.529333 -5.86934,-4.433334 5.49334,6.470667 -8.21734,-2.512 6.16934,3.510667 -7.152,-0.461334 6.368,1.862667 -6.62534,0.925333 6.34134,0.08 -3.39467,1.332 3.3,-0.969333 -0.176,0.66 1.56933,-0.562667 -0.24933,1.057334 1.22933,-0.488 -0.212,1.010666 1.256,-1.024 -0.21733,1.242667 0.788,-0.741333 0.432,0.871999 0.57067,-1.057333 0.588,1.665333 0.93466,-2.349333 0.77334,2.785333 1.14,-2.743999 2.69866,1.221333 -0.88133,-1.905333 2.50667,0.596 -0.82,-1.004 2.80933,0.408 -0.96133,-0.810667 3.06,0.402667 -1.80667,-0.992 0.628,-0.234667 -0.26667,-0.174667 3.34134,0.921334 -3.24934,-1.214667 h 4.176 l -4.07733,-0.357333 0.52133,-0.084 4.716,-1.454667"
     style="fill:#4e792c;fill-opacity:1;fill-rule:nonzero;stroke:none;stroke-width:0.133333"
     id="path590-90" />
  <path
     d="m 662.80805,137.66038 -6.31334,1.01333 5.20934,-3.73866 -5.43867,2.31333 4.204,-4.21733 -5.64933,3.59733 3.68533,-5.66533 -5.61733,5.48933 2.25333,-7.608 -3.04,5.46 0.668,-6.26533 -1.93067,5.7 -0.38666,-6.04934 -1.16534,7.42 -2.436,-7.18533 0.76134,7.13467 -3.87467,-6.12134 1.59333,4.43467 -2.98133,-3.69067 3.224,6.52934 -5.86933,-4.43334 5.49333,6.47067 -8.21733,-2.512 6.16933,3.51067 -7.152,-0.46134 6.368,1.86267 -6.62533,0.92533 6.34133,0.08 -3.39467,1.332 3.3,-0.96933 -0.176,0.66 1.56934,-0.56267 -0.24934,1.05734 1.22934,-0.488 -0.212,1.01066 1.256,-1.024 -0.21734,1.24267 0.788,-0.74133 0.432,0.872 0.57067,-1.05734 0.588,1.66534 0.93467,-2.34934 0.77333,2.78534 1.14,-2.744 2.69867,1.22133 -0.88134,-1.90533 2.50667,0.596 -0.82,-1.004 2.80933,0.408 -0.96133,-0.81067 3.06,0.40267 -1.80667,-0.992 0.628,-0.23467 -0.26666,-0.17467 3.34133,0.92134 -3.24933,-1.21467 h 4.176 l -4.07734,-0.35733 0.52134,-0.084 4.716,-1.45467"
     style="fill:#4e792c;fill-opacity:1;fill-rule:nonzero;stroke:none;stroke-width:0.133333"
     id="path590-68" />
  <path
     d="m 604.82257,207.07962 -6.31334,1.01333 5.20934,-3.73866 -5.43867,2.31333 4.204,-4.21733 -5.64933,3.59733 3.68533,-5.66533 -5.61733,5.48933 2.25333,-7.608 -3.04,5.46 0.668,-6.26533 -1.93067,5.7 -0.38666,-6.04934 -1.16534,7.42 -2.436,-7.18533 0.76134,7.13467 -3.87467,-6.12134 1.59333,4.43467 -2.98133,-3.69067 3.224,6.52934 -5.86933,-4.43334 5.49333,6.47067 -8.21733,-2.512 6.16933,3.51067 -7.152,-0.46134 6.368,1.86267 -6.62533,0.92533 6.34133,0.08 -3.39467,1.332 3.3,-0.96933 -0.176,0.66 1.56934,-0.56267 -0.24934,1.05734 1.22934,-0.488 -0.212,1.01066 1.256,-1.024 -0.21734,1.24267 0.788,-0.74133 0.432,0.872 0.57067,-1.05734 0.588,1.66534 0.93467,-2.34934 0.77333,2.78534 1.14,-2.744 2.69867,1.22133 -0.88134,-1.90533 2.50667,0.596 -0.82,-1.004 2.80933,0.408 -0.96133,-0.81067 3.06,0.40267 -1.80667,-0.992 0.628,-0.23467 -0.26666,-0.17467 3.34133,0.92134 -3.24933,-1.21467 h 4.176 l -4.07734,-0.35733 0.52134,-0.084 4.716,-1.45467"
     style="fill:#4e792c;fill-opacity:1;fill-rule:nonzero;stroke:none;stroke-width:0.133333"
     id="path590-242" />
  <path
     d="m 716.71004,179.31193 -6.31333,1.01333 5.20933,-3.73866 -5.43866,2.31333 4.204,-4.21733 -5.64934,3.59733 3.68534,-5.66533 -5.61734,5.48933 2.25334,-7.608 -3.04,5.46 0.668,-6.26533 -1.93067,5.7 -0.38667,-6.04934 -1.16533,7.42 -2.436,-7.18533 0.76133,7.13467 -3.87466,-6.12134 1.59333,4.43467 -2.98133,-3.69067 3.224,6.52934 -5.86934,-4.43334 5.49334,6.47067 -8.21734,-2.512 6.16934,3.51067 -7.152,-0.46134 6.368,1.86267 -6.62534,0.92533 6.34134,0.08 -3.39467,1.332 3.3,-0.96933 -0.176,0.66 1.56933,-0.56267 -0.24933,1.05734 1.22933,-0.488 -0.212,1.01066 1.256,-1.024 -0.21733,1.24267 0.788,-0.74133 0.432,0.872 0.57067,-1.05734 0.588,1.66534 0.93466,-2.34934 0.77334,2.78534 1.14,-2.744 2.69866,1.22133 -0.88133,-1.90533 2.50667,0.596 -0.82,-1.004 2.80933,0.408 -0.96133,-0.81067 3.06,0.40267 -1.80667,-0.992 0.628,-0.23467 -0.26667,-0.17467 3.34134,0.92134 -3.24934,-1.21467 h 4.176 l -4.07733,-0.35733 0.52133,-0.084 4.716,-1.45467"
     style="fill:#4e792c;fill-opacity:1;fill-rule:nonzero;stroke:none;stroke-width:0.133333"
     id="path590-884" />
  <path
     d="m 733.86068,260.98162 -6.31333,1.01333 5.20933,-3.73866 -5.43866,2.31333 4.204,-4.21733 -5.64934,3.59733 3.68534,-5.66533 -5.61734,5.48933 2.25334,-7.608 -3.04,5.46 0.668,-6.26533 -1.93067,5.7 -0.38667,-6.04934 -1.16533,7.42 -2.436,-7.18533 0.76133,7.13467 -3.87466,-6.12134 1.59333,4.43467 -2.98133,-3.69067 3.224,6.52934 -5.86934,-4.43334 5.49334,6.47067 -8.21734,-2.512 6.16934,3.51067 -7.152,-0.46134 6.368,1.86267 -6.62534,0.92533 6.34134,0.08 -3.39467,1.332 3.3,-0.96933 -0.176,0.66 1.56933,-0.56267 -0.24933,1.05734 1.22933,-0.488 -0.212,1.01066 1.256,-1.024 -0.21733,1.24267 0.788,-0.74133 0.432,0.872 0.57067,-1.05734 0.588,1.66534 0.93466,-2.34934 0.77334,2.78534 1.14,-2.744 2.69866,1.22133 -0.88133,-1.90533 2.50667,0.596 -0.82,-1.004 2.80933,0.408 -0.96133,-0.81067 3.06,0.40267 -1.80667,-0.992 0.628,-0.23467 -0.26667,-0.17467 3.34134,0.92134 -3.24934,-1.21467 h 4.176 l -4.07733,-0.35733 0.52133,-0.084 4.716,-1.45467"
     style="fill:#4e792c;fill-opacity:1;fill-rule:nonzero;stroke:none;stroke-width:0.133333"
     id="path590-32" />
  <path
     d="m 370.43055,56.807391 -6.31333,1.013333 5.20933,-3.738666 -5.43866,2.313333 4.204,-4.217333 -5.64934,3.597333 3.68534,-5.665333 -5.61734,5.489333 2.25334,-7.608 -3.04,5.46 0.668,-6.265333 -1.93067,5.7 -0.38667,-6.049333 -1.16533,7.419999 -2.436,-7.185333 0.76133,7.134667 -3.87466,-6.121333 1.59333,4.434666 -2.98133,-3.690666 3.224,6.529333 -5.86934,-4.433334 5.49334,6.470667 -8.21734,-2.512 6.16934,3.510667 -7.152,-0.461334 6.368,1.862667 -6.62534,0.925333 6.34134,0.08 -3.39467,1.332 3.3,-0.969333 -0.176,0.66 1.56933,-0.562667 -0.24933,1.057334 1.22933,-0.488 -0.212,1.010666 1.256,-1.024 -0.21733,1.242667 0.788,-0.741333 0.432,0.871999 0.57067,-1.057333 0.588,1.665333 0.93466,-2.349333 0.77334,2.785333 1.14,-2.743999 2.69866,1.221333 -0.88133,-1.905333 2.50667,0.596 -0.82,-1.004 2.80933,0.408 -0.96133,-0.810667 3.06,0.402667 -1.80667,-0.992 0.628,-0.234667 -0.26667,-0.174667 3.34134,0.921334 -3.24934,-1.214667 h 4.176 l -4.07733,-0.357333 0.52133,-0.084 4.716,-1.454667"
     style="fill:#4e792c;fill-opacity:1;fill-rule:nonzero;stroke:none;stroke-width:0.133333"
     id="path590-30" />
  <path
     d="m 231.59207,46.190331 -6.31333,1.013333 5.20933,-3.738666 -5.43866,2.313333 4.204,-4.217333 -5.64934,3.597333 3.68534,-5.665333 -5.61734,5.489333 2.25334,-7.608 -3.04,5.46 0.668,-6.265333 -1.93067,5.7 -0.38667,-6.049333 -1.16533,7.419999 -2.436,-7.185333 0.76133,7.134667 -3.87466,-6.121333 1.59333,4.434666 -2.98133,-3.690666 3.224,6.529333 -5.86934,-4.433334 5.49334,6.470667 -8.21734,-2.512 6.16934,3.510667 -7.152,-0.461334 6.368,1.862667 -6.62534,0.925333 6.34134,0.08 -3.39467,1.332 3.3,-0.969333 -0.176,0.66 1.56933,-0.562667 -0.24933,1.057334 1.22933,-0.488 -0.212,1.010666 1.256,-1.024 -0.21733,1.242667 0.788,-0.741333 0.432,0.871999 0.57067,-1.057333 0.588,1.665333 0.93466,-2.349333 0.77334,2.785333 1.14,-2.743999 2.69866,1.221333 -0.88133,-1.905333 2.50667,0.596 -0.82,-1.004 2.80933,0.408 -0.96133,-0.810667 3.06,0.402667 -1.80667,-0.992 0.628,-0.234667 -0.26667,-0.174667 3.34134,0.921334 -3.24934,-1.214667 h 4.176 l -4.07733,-0.357333 0.52133,-0.084 4.716,-1.454667"
     style="fill:#4e792c;fill-opacity:1;fill-rule:nonzero;stroke:none;stroke-width:0.133333"
     id="path590-65" />
  <path
     d="m 169.52311,153.17763 -6.31333,1.01333 5.20933,-3.73866 -5.43866,2.31333 4.204,-4.21733 -5.64934,3.59733 3.68534,-5.66533 -5.61734,5.48933 2.25334,-7.608 -3.04,5.46 0.668,-6.26533 -1.93067,5.7 -0.38667,-6.04934 -1.16533,7.42 -2.436,-7.18533 0.76133,7.13467 -3.87466,-6.12134 1.59333,4.43467 -2.98133,-3.69067 3.224,6.52934 -5.86934,-4.43334 5.49334,6.47067 -8.21734,-2.512 6.16934,3.51067 -7.152,-0.46134 6.368,1.86267 -6.62534,0.92533 6.34134,0.08 -3.39467,1.332 3.3,-0.96933 -0.176,0.66 1.56933,-0.56267 -0.24933,1.05734 1.22933,-0.488 -0.212,1.01066 1.256,-1.024 -0.21733,1.24267 0.788,-0.74133 0.432,0.872 0.57067,-1.05734 0.588,1.66534 0.93466,-2.34934 0.77334,2.78534 1.14,-2.744 2.69866,1.22133 -0.88133,-1.90533 2.50667,0.596 -0.82,-1.004 2.80933,0.408 -0.96133,-0.81067 3.06,0.40267 -1.80667,-0.992 0.628,-0.23467 -0.26667,-0.17467 3.34134,0.92134 -3.24934,-1.21467 h 4.176 l -4.07733,-0.35733 0.52133,-0.084 4.716,-1.45467"
     style="fill:#4e792c;fill-opacity:1;fill-rule:nonzero;stroke:none;stroke-width:0.133333"
     id="path590-984" />
  <path
     d="m 257.72637,108.25929 -6.31333,1.01333 5.20933,-3.73866 -5.43866,2.31333 4.204,-4.21733 -5.64934,3.59733 3.68534,-5.66533 -5.61734,5.48933 2.25334,-7.607999 -3.04,5.459999 0.668,-6.265332 -1.93067,5.700002 -0.38667,-6.049335 -1.16533,7.419995 -2.436,-7.185329 0.76133,7.134669 -3.87466,-6.121335 1.59333,4.434665 -2.98133,-3.69067 3.224,6.52934 -5.86934,-4.43334 5.49334,6.47067 -8.21734,-2.512 6.16934,3.51067 -7.152,-0.46134 6.368,1.86267 -6.62534,0.92533 6.34134,0.08 -3.39467,1.332 3.3,-0.96933 -0.176,0.66 1.56933,-0.56267 -0.24933,1.05734 1.22933,-0.488 -0.212,1.01066 1.256,-1.024 -0.21733,1.24267 0.788,-0.74133 0.432,0.872 0.57067,-1.05734 0.588,1.66534 0.93466,-2.34934 0.77334,2.78534 1.14,-2.744 2.69866,1.22133 -0.88133,-1.90533 2.50667,0.596 -0.82,-1.004 2.80933,0.408 -0.96133,-0.81067 3.06,0.40267 -1.80667,-0.992 0.628,-0.23467 -0.26667,-0.17467 3.34134,0.92134 -3.24934,-1.21467 h 4.176 l -4.07733,-0.35733 0.52133,-0.084 4.716,-1.45467"
     style="fill:#4e792c;fill-opacity:1;fill-rule:nonzero;stroke:none;stroke-width:0.133333"
     id="path590-62" />
  <path
     d="m 275.69371,184.21211 -6.31333,1.01333 5.20933,-3.73866 -5.43866,2.31333 4.204,-4.21733 -5.64934,3.59733 3.68534,-5.66533 -5.61734,5.48933 2.25334,-7.608 -3.04,5.46 0.668,-6.26533 -1.93067,5.7 -0.38667,-6.04934 -1.16533,7.42 -2.436,-7.18533 0.76133,7.13467 -3.87466,-6.12134 1.59333,4.43467 -2.98133,-3.69067 3.224,6.52934 -5.86934,-4.43334 5.49334,6.47067 -8.21734,-2.512 6.16934,3.51067 -7.152,-0.46134 6.368,1.86267 -6.62534,0.92533 6.34134,0.08 -3.39467,1.332 3.3,-0.96933 -0.176,0.66 1.56933,-0.56267 -0.24933,1.05734 1.22933,-0.488 -0.212,1.01066 1.256,-1.024 -0.21733,1.24267 0.788,-0.74133 0.432,0.872 0.57067,-1.05734 0.588,1.66534 0.93466,-2.34934 0.77334,2.78534 1.14,-2.744 2.69866,1.22133 -0.88133,-1.90533 2.50667,0.596 -0.82,-1.004 2.80933,0.408 -0.96133,-0.81067 3.06,0.40267 -1.80667,-0.992 0.628,-0.23467 -0.26667,-0.17467 3.34134,0.92134 -3.24934,-1.21467 h 4.176 l -4.07733,-0.35733 0.52133,-0.084 4.716,-1.45467"
     style="fill:#4e792c;fill-opacity:1;fill-rule:nonzero;stroke:none;stroke-width:0.133333"
     id="path590-36" />
  <path
     d="m 225.8752,246.28107 -6.31333,1.01333 5.20933,-3.73866 -5.43866,2.31333 4.204,-4.21733 -5.64934,3.59733 3.68534,-5.66533 -5.61734,5.48933 2.25334,-7.608 -3.04,5.46 0.668,-6.26533 -1.93067,5.7 -0.38667,-6.04934 -1.16533,7.42 -2.436,-7.18533 0.76133,7.13467 -3.87466,-6.12134 1.59333,4.43467 -2.98133,-3.69067 3.224,6.52934 -5.86934,-4.43334 5.49334,6.47067 -8.21734,-2.512 6.16934,3.51067 -7.152,-0.46134 6.368,1.86267 -6.62534,0.92533 6.34134,0.08 -3.39467,1.332 3.3,-0.96933 -0.176,0.66 1.56933,-0.56267 -0.24933,1.05734 1.22933,-0.488 -0.212,1.01066 1.256,-1.024 -0.21733,1.24267 0.788,-0.74133 0.432,0.872 0.57067,-1.05734 0.588,1.66534 0.93466,-2.34934 0.77334,2.78534 1.14,-2.744 2.69866,1.22133 -0.88133,-1.90533 2.50667,0.596 -0.82,-1.004 2.80933,0.408 -0.96133,-0.81067 3.06,0.40267 -1.80667,-0.992 0.628,-0.23467 -0.26667,-0.17467 3.34134,0.92134 -3.24934,-1.21467 h 4.176 l -4.07733,-0.35733 0.52133,-0.084 4.716,-1.45467"
     style="fill:#4e792c;fill-opacity:1;fill-rule:nonzero;stroke:none;stroke-width:0.133333"
     id="path590-51" />
  <path
     d="m 206.27447,390.01973 -6.31333,1.01333 5.20933,-3.73866 -5.43866,2.31333 4.204,-4.21733 -5.64934,3.59733 3.68534,-5.66533 -5.61734,5.48933 2.25334,-7.608 -3.04,5.46 0.668,-6.26533 -1.93067,5.7 -0.38667,-6.04934 -1.16533,7.42 -2.436,-7.18533 0.76133,7.13467 -3.87466,-6.12134 1.59333,4.43467 -2.98133,-3.69067 3.224,6.52934 -5.86934,-4.43334 5.49334,6.47067 -8.21734,-2.512 6.16934,3.51067 -7.152,-0.46134 6.368,1.86267 -6.62534,0.92533 6.34134,0.08 -3.39467,1.332 3.3,-0.96933 -0.176,0.66 1.56933,-0.56267 -0.24933,1.05734 1.22933,-0.488 -0.212,1.01066 1.256,-1.024 -0.21733,1.24267 0.788,-0.74133 0.432,0.872 0.57067,-1.05734 0.588,1.66534 0.93466,-2.34934 0.77334,2.78534 1.14,-2.744 2.69866,1.22133 -0.88133,-1.90533 2.50667,0.596 -0.82,-1.004 2.80933,0.408 -0.96133,-0.81067 3.06,0.40267 -1.80667,-0.992 0.628,-0.23467 -0.26667,-0.17467 3.34134,0.92134 -3.24934,-1.21467 h 4.176 l -4.07733,-0.35733 0.52133,-0.084 4.716,-1.45467"
     style="fill:#4e792c;fill-opacity:1;fill-rule:nonzero;stroke:none;stroke-width:0.133333"
     id="path590-27" />
  <path
     d="m 258.54307,446.37182 -6.31333,1.01333 5.20933,-3.73866 -5.43866,2.31333 4.204,-4.21733 -5.64934,3.59733 3.68534,-5.66533 -5.61734,5.48933 2.25334,-7.608 -3.04,5.46 0.668,-6.26533 -1.93067,5.7 -0.38667,-6.04934 -1.16533,7.42 -2.436,-7.18533 0.76133,7.13467 -3.87466,-6.12134 1.59333,4.43467 -2.98133,-3.69067 3.224,6.52934 -5.86934,-4.43334 5.49334,6.47067 -8.21734,-2.512 6.16934,3.51067 -7.152,-0.46134 6.368,1.86267 -6.62534,0.92533 6.34134,0.08 -3.39467,1.332 3.3,-0.96933 -0.176,0.66 1.56933,-0.56267 -0.24933,1.05734 1.22933,-0.488 -0.212,1.01066 1.256,-1.024 -0.21733,1.24267 0.788,-0.74133 0.432,0.872 0.57067,-1.05734 0.588,1.66534 0.93466,-2.34934 0.77334,2.78534 1.14,-2.744 2.69866,1.22133 -0.88133,-1.90533 2.50667,0.596 -0.82,-1.004 2.80933,0.408 -0.96133,-0.81067 3.06,0.40267 -1.80667,-0.992 0.628,-0.23467 -0.26667,-0.17467 3.34134,0.92134 -3.24934,-1.21467 h 4.176 l -4.07733,-0.35733 0.52133,-0.084 4.716,-1.45467"
     style="fill:#4e792c;fill-opacity:1;fill-rule:nonzero;stroke:none;stroke-width:0.133333"
     id="path590-25" />
  <path
     d="m 386.76449,490.47345 -6.31333,1.01333 5.20933,-3.73866 -5.43866,2.31333 4.204,-4.21733 -5.64934,3.59733 3.68534,-5.66533 -5.61734,5.48933 2.25334,-7.608 -3.04,5.46 0.668,-6.26533 -1.93067,5.7 -0.38667,-6.04934 -1.16533,7.42 -2.436,-7.18533 0.76133,7.13467 -3.87466,-6.12134 1.59333,4.43467 -2.98133,-3.69067 3.224,6.52934 -5.86934,-4.43334 5.49334,6.47067 -8.21734,-2.512 6.16934,3.51067 -7.152,-0.46134 6.368,1.86267 -6.62534,0.92533 6.34134,0.08 -3.39467,1.332 3.3,-0.96933 -0.176,0.66 1.56933,-0.56267 -0.24933,1.05734 1.22933,-0.488 -0.212,1.01066 1.256,-1.024 -0.21733,1.24267 0.788,-0.74133 0.432,0.872 0.57067,-1.05734 0.588,1.66534 0.93466,-2.34934 0.77334,2.78534 1.14,-2.744 2.69866,1.22133 -0.88133,-1.90533 2.50667,0.596 -0.82,-1.004 2.80933,0.408 -0.96133,-0.81067 3.06,0.40267 -1.80667,-0.992 0.628,-0.23467 -0.26667,-0.17467 3.34134,0.92134 -3.24934,-1.21467 h 4.176 l -4.07733,-0.35733 0.52133,-0.084 4.716,-1.45467"
     style="fill:#4e792c;fill-opacity:1;fill-rule:nonzero;stroke:none;stroke-width:0.133333"
     id="path590-48" />
  <path
     d="m 573.78808,474.13951 -6.31333,1.01333 5.20933,-3.73866 -5.43866,2.31333 4.204,-4.21733 -5.64934,3.59733 3.68534,-5.66533 -5.61734,5.48933 2.25334,-7.608 -3.04,5.46 0.668,-6.26533 -1.93067,5.7 -0.38667,-6.04934 -1.16533,7.42 -2.436,-7.18533 0.76133,7.13467 -3.87466,-6.12134 1.59333,4.43467 -2.98133,-3.69067 3.224,6.52934 -5.86934,-4.43334 5.49334,6.47067 -8.21734,-2.512 6.16934,3.51067 -7.152,-0.46134 6.368,1.86267 -6.62534,0.92533 6.34134,0.08 -3.39467,1.332 3.3,-0.96933 -0.176,0.66 1.56933,-0.56267 -0.24933,1.05734 1.22933,-0.488 -0.212,1.01066 1.256,-1.024 -0.21733,1.24267 0.788,-0.74133 0.432,0.872 0.57067,-1.05734 0.588,1.66534 0.93466,-2.34934 0.77334,2.78534 1.14,-2.744 2.69866,1.22133 -0.88133,-1.90533 2.50667,0.596 -0.82,-1.004 2.80933,0.408 -0.96133,-0.81067 3.06,0.40267 -1.80667,-0.992 0.628,-0.23467 -0.26667,-0.17467 3.34134,0.92134 -3.24934,-1.21467 h 4.176 l -4.07733,-0.35733 0.52133,-0.084 4.716,-1.45467"
     style="fill:#4e792c;fill-opacity:1;fill-rule:nonzero;stroke:none;stroke-width:0.133333"
     id="path590-08" />
  <path
     d="m 728.1438,474.13951 -6.31333,1.01333 5.20933,-3.73866 -5.43866,2.31333 4.204,-4.21733 -5.64934,3.59733 3.68534,-5.66533 -5.61734,5.48933 2.25334,-7.608 -3.04,5.46 0.668,-6.26533 -1.93067,5.7 -0.38667,-6.04934 -1.16533,7.42 -2.436,-7.18533 0.76133,7.13467 -3.87466,-6.12134 1.59333,4.43467 -2.98133,-3.69067 3.224,6.52934 -5.86934,-4.43334 5.49334,6.47067 -8.21734,-2.512 6.16934,3.51067 -7.152,-0.46134 6.368,1.86267 -6.62534,0.92533 6.34134,0.08 -3.39467,1.332 3.3,-0.96933 -0.176,0.66 1.56933,-0.56267 -0.24933,1.05734 1.22933,-0.488 -0.212,1.01066 1.256,-1.024 -0.21733,1.24267 0.788,-0.74133 0.432,0.872 0.57067,-1.05734 0.588,1.66534 0.93466,-2.34934 0.77334,2.78534 1.14,-2.744 2.69866,1.22133 -0.88133,-1.90533 2.50667,0.596 -0.82,-1.004 2.80933,0.408 -0.96133,-0.81067 3.06,0.40267 -1.80667,-0.992 0.628,-0.23467 -0.26667,-0.17467 3.34134,0.92134 -3.24934,-1.21467 h 4.176 l -4.07733,-0.35733 0.52133,-0.084 4.716,-1.45467"
     style="fill:#4e792c;fill-opacity:1;fill-rule:nonzero;stroke:none;stroke-width:0.133333"
     id="path590-58" />
  <path
     d="m 801.23302,181.44949 -6.31333,1.01333 5.20933,-3.73866 -5.43866,2.31333 4.204,-4.21733 -5.64934,3.59733 3.68534,-5.66533 -5.61734,5.48933 2.25334,-7.608 -3.04,5.46 0.668,-6.26533 -1.93067,5.7 -0.38667,-6.04934 -1.16533,7.42 -2.436,-7.18533 0.76133,7.13467 -3.87466,-6.12134 1.59333,4.43467 -2.98133,-3.69067 3.224,6.52934 -5.86934,-4.43334 5.49334,6.47067 -8.21734,-2.512 6.16934,3.51067 -7.152,-0.46134 6.368,1.86267 -6.62534,0.92533 6.34134,0.08 -3.39467,1.332 3.3,-0.96933 -0.176,0.66 1.56933,-0.56267 -0.24933,1.05734 1.22933,-0.488 -0.212,1.01066 1.256,-1.024 -0.21733,1.24267 0.788,-0.74133 0.432,0.872 0.57067,-1.05734 0.588,1.66534 0.93466,-2.34934 0.77334,2.78534 1.14,-2.744 2.69866,1.22133 -0.88133,-1.90533 2.50667,0.596 -0.82,-1.004 2.80933,0.408 -0.96133,-0.81067 3.06,0.40267 -1.80667,-0.992 0.628,-0.23467 -0.26667,-0.17467 3.34134,0.92134 -3.24934,-1.21467 h 4.176 l -4.07733,-0.35733 0.52133,-0.084 4.716,-1.45467"
     style="fill:#4e792c;fill-opacity:1;fill-rule:nonzero;stroke:none;stroke-width:0.133333"
     id="path590-58-0" />
  <path
     d="m 831.2626,75.19097 -6.31333,1.01333 5.20933,-3.73866 -5.43866,2.31333 4.204,-4.21733 -5.64934,3.59733 3.68534,-5.66533 -5.61734,5.48933 2.25334,-7.608 -3.04,5.46 0.668,-6.26533 -1.93067,5.7 -0.38667,-6.04934 -1.16533,7.42 -2.436,-7.18533 0.76133,7.13467 -3.87466,-6.12134 1.59333,4.43467 -2.98133,-3.69067 3.224,6.52934 -5.86934,-4.43334 5.49334,6.47067 -8.21734,-2.512 6.16934,3.51067 -7.152,-0.46134 6.368,1.86267 -6.62534,0.92533 6.34134,0.08 -3.39467,1.332 3.3,-0.96933 -0.176,0.66 1.56933,-0.56267 -0.24933,1.05734 1.22933,-0.488 -0.212,1.01066 1.256,-1.024 -0.21733,1.24267 0.788,-0.74133 0.432,0.872 0.57067,-1.05734 0.588,1.66534 0.93466,-2.34934 0.77334,2.78534 1.14,-2.744 2.69866,1.22133 -0.88133,-1.90533 2.50667,0.596 -0.82,-1.004 2.80933,0.408 -0.96133,-0.81067 3.06,0.40267 -1.80667,-0.992 0.628,-0.23467 -0.26667,-0.17467 3.34134,0.92134 -3.24934,-1.21467 h 4.176 l -4.07733,-0.35733 0.52133,-0.084 4.716,-1.45467"
     style="fill:#4e792c;fill-opacity:1;fill-rule:nonzero;stroke:none;stroke-width:0.133333"
     id="path590-58-1" />
  <path
     d="m 865.91211,151.41991 -6.31333,1.01333 5.20933,-3.73866 -5.43866,2.31333 4.204,-4.21733 -5.64934,3.59733 3.68534,-5.66533 -5.61734,5.48933 2.25334,-7.608 -3.04,5.46 0.668,-6.26533 -1.93067,5.7 -0.38667,-6.04934 -1.16533,7.42 -2.436,-7.18533 0.76133,7.13467 -3.87466,-6.12134 1.59333,4.43467 -2.98133,-3.69067 3.224,6.52934 -5.86934,-4.43334 5.49334,6.47067 -8.21734,-2.512 6.16934,3.51067 -7.152,-0.46134 6.368,1.86267 -6.62534,0.92533 6.34134,0.08 -3.39467,1.332 3.3,-0.96933 -0.176,0.66 1.56933,-0.56267 -0.24933,1.05734 1.22933,-0.488 -0.212,1.01066 1.256,-1.024 -0.21733,1.24267 0.788,-0.74133 0.432,0.872 0.57067,-1.05734 0.588,1.66534 0.93466,-2.34934 0.77334,2.78534 1.14,-2.744 2.69866,1.22133 -0.88133,-1.90533 2.50667,0.596 -0.82,-1.004 2.80933,0.408 -0.96133,-0.81067 3.06,0.40267 -1.80667,-0.992 0.628,-0.23467 -0.26667,-0.17467 3.34134,0.92134 -3.24934,-1.21467 h 4.176 l -4.07733,-0.35733 0.52133,-0.084 4.716,-1.45467"
     style="fill:#4e792c;fill-opacity:1;fill-rule:nonzero;stroke:none;stroke-width:0.133333"
     id="path590-58-8" />
  <path
     d="m 872.84202,280.7781 -6.31333,1.01333 5.20933,-3.73866 -5.43866,2.31333 4.204,-4.21733 -5.64934,3.59733 3.68534,-5.66533 -5.61734,5.48933 2.25334,-7.608 -3.04,5.46 0.668,-6.26533 -1.93067,5.7 -0.38667,-6.04934 -1.16533,7.42 -2.436,-7.18533 0.76133,7.13467 -3.87466,-6.12134 1.59333,4.43467 -2.98133,-3.69067 3.224,6.52934 -5.86934,-4.43334 5.49334,6.47067 -8.21734,-2.512 6.16934,3.51067 -7.152,-0.46134 6.368,1.86267 -6.62534,0.92533 6.34134,0.08 -3.39467,1.332 3.3,-0.96933 -0.176,0.66 1.56933,-0.56267 -0.24933,1.05734 1.22933,-0.488 -0.212,1.01066 1.256,-1.024 -0.21733,1.24267 0.788,-0.74133 0.432,0.872 0.57067,-1.05734 0.588,1.66534 0.93466,-2.34934 0.77334,2.78534 1.14,-2.744 2.69866,1.22133 -0.88133,-1.90533 2.50667,0.596 -0.82,-1.004 2.80933,0.408 -0.96133,-0.81067 3.06,0.40267 -1.80667,-0.992 0.628,-0.23467 -0.26667,-0.17467 3.34134,0.92134 -3.24934,-1.21467 h 4.176 l -4.07733,-0.35733 0.52133,-0.084 4.716,-1.45467"
     style="fill:#4e792c;fill-opacity:1;fill-rule:nonzero;stroke:none;stroke-width:0.133333"
     id="path590-58-6" />
  <path
     d="m 819.71276,423.9961 -6.31333,1.01333 5.20933,-3.73866 -5.43866,2.31334 4.204,-4.21734 -5.64934,3.59734 3.68534,-5.66534 -5.61734,5.48933 2.25334,-7.60799 -3.04,5.45999 0.668,-6.26533 -1.93067,5.7 -0.38667,-6.04933 -1.16533,7.41999 -2.436,-7.18533 0.76133,7.13467 -3.87466,-6.12133 1.59333,4.43467 -2.98133,-3.69068 3.224,6.52935 -5.86934,-4.43335 5.49334,6.47068 -8.21734,-2.51201 6.16934,3.51067 -7.152,-0.46133 6.368,1.86266 -6.62534,0.92533 6.34134,0.08 -3.39467,1.332 3.3,-0.96933 -0.176,0.66 1.56933,-0.56267 -0.24933,1.05734 1.22933,-0.488 -0.212,1.01066 1.256,-1.024 -0.21733,1.24267 0.788,-0.74133 0.432,0.872 0.57067,-1.05734 0.588,1.66534 0.93466,-2.34934 0.77334,2.78534 1.14,-2.744 2.69866,1.22133 -0.88133,-1.90533 2.50667,0.596 -0.82,-1.004 2.80933,0.408 -0.96133,-0.81067 3.06,0.40267 -1.80667,-0.992 0.628,-0.23467 -0.26667,-0.17467 3.34134,0.92134 -3.24934,-1.21467 h 4.176 l -4.07733,-0.35733 0.52133,-0.084 4.716,-1.45467"
     style="fill:#4e792c;fill-opacity:1;fill-rule:nonzero;stroke:none;stroke-width:0.133333"
     id="path590-58-2" />
  <path
     d="m 764.27353,449.40575 -6.31333,1.01333 5.20933,-3.73866 -5.43866,2.31333 4.204,-4.21733 -5.64934,3.59733 3.68534,-5.66533 -5.61734,5.48933 2.25334,-7.608 -3.04,5.46 0.668,-6.26533 -1.93067,5.7 -0.38667,-6.04934 -1.16533,7.42 -2.436,-7.18533 0.76133,7.13467 -3.87466,-6.12134 1.59333,4.43467 -2.98133,-3.69067 3.224,6.52934 -5.86934,-4.43334 5.49334,6.47067 -8.21734,-2.512 6.16934,3.51067 -7.152,-0.46134 6.368,1.86267 -6.62534,0.92533 6.34134,0.08 -3.39467,1.332 3.3,-0.96933 -0.176,0.66 1.56933,-0.56267 -0.24933,1.05734 1.22933,-0.488 -0.212,1.01066 1.256,-1.024 -0.21733,1.24267 0.788,-0.74133 0.432,0.872 0.57067,-1.05734 0.588,1.66534 0.93466,-2.34934 0.77334,2.78534 1.14,-2.744 2.69866,1.22133 -0.88133,-1.90533 2.50667,0.596 -0.82,-1.004 2.80933,0.408 -0.96133,-0.81067 3.06,0.40267 -1.80667,-0.992 0.628,-0.23467 -0.26667,-0.17467 3.34134,0.92134 -3.24934,-1.21467 h 4.176 l -4.07733,-0.35733 0.52133,-0.084 4.716,-1.45467"
     style="fill:#4e792c;fill-opacity:1;fill-rule:nonzero;stroke:none;stroke-width:0.133333"
     id="path590-58-18" />
  <path
     d="m 771.20344,315.42762 -6.31333,1.01333 5.20933,-3.73866 -5.43866,2.31333 4.20399,-4.21733 -5.64934,3.59733 3.68534,-5.66533 -5.61734,5.48933 2.25334,-7.608 -3.04,5.46 0.668,-6.26533 -1.93067,5.7 -0.38666,-6.04934 -1.16534,7.42 -2.436,-7.18533 0.76133,7.13467 -3.87465,-6.12134 1.59333,4.43467 -2.98133,-3.69067 3.224,6.52934 -5.86934,-4.43334 5.49334,6.47067 -8.21734,-2.512 6.16934,3.51067 -7.152,-0.46134 6.368,1.86267 -6.62534,0.92533 6.34134,0.08 -3.39467,1.332 3.3,-0.96933 -0.17601,0.66 1.56934,-0.56267 -0.24933,1.05734 1.22933,-0.488 -0.212,1.01066 1.256,-1.024 -0.21733,1.24267 0.788,-0.74133 0.432,0.872 0.57067,-1.05734 0.58799,1.66534 0.93467,-2.34934 0.77333,2.78534 1.14,-2.744 2.69866,1.22133 -0.88133,-1.90533 2.50667,0.596 -0.82,-1.004 2.80933,0.408 -0.96133,-0.81067 3.06,0.40267 -1.80667,-0.992 0.628,-0.23467 -0.26667,-0.17467 3.34134,0.92134 -3.24934,-1.21467 h 4.176 l -4.07733,-0.35733 0.52133,-0.084 4.71601,-1.45467"
     style="fill:#4e792c;fill-opacity:1;fill-rule:nonzero;stroke:none;stroke-width:0.133333"
     id="path590-58-03" />
  <path
     d="m 861.29218,449.40575 -6.31333,1.01333 5.20933,-3.73866 -5.43866,2.31333 4.204,-4.21733 -5.64934,3.59733 3.68534,-5.66533 -5.61734,5.48933 2.25334,-7.608 -3.04,5.46 0.668,-6.26533 -1.93067,5.7 -0.38667,-6.04934 -1.16533,7.42 -2.436,-7.18533 0.76133,7.13467 -3.87466,-6.12134 1.59333,4.43467 -2.98133,-3.69067 3.224,6.52934 -5.86934,-4.43334 5.49334,6.47067 -8.21734,-2.512 6.16934,3.51067 -7.152,-0.46134 6.368,1.86267 -6.62534,0.92533 6.34134,0.08 -3.39467,1.332 3.3,-0.96933 -0.176,0.66 1.56933,-0.56267 -0.24933,1.05734 1.22933,-0.488 -0.212,1.01066 1.256,-1.024 -0.21733,1.24267 0.788,-0.74133 0.432,0.872 0.57067,-1.05734 0.588,1.66534 0.93466,-2.34934 0.77334,2.78534 1.14,-2.744 2.69866,1.22133 -0.88133,-1.90533 2.50667,0.596 -0.82,-1.004 2.80933,0.408 -0.96133,-0.81067 3.06,0.40267 -1.80667,-0.992 0.628,-0.23467 -0.26667,-0.17467 3.34134,0.92134 -3.24934,-1.21467 h 4.176 l -4.07733,-0.35733 0.52133,-0.084 4.716,-1.45467"
     style="fill:#4e792c;fill-opacity:1;fill-rule:nonzero;stroke:none;stroke-width:0.133333"
     id="path590-58-7" />
  <path
     d="m 886.70182,324.66749 -6.31333,1.01333 5.20933,-3.73866 -5.43866,2.31333 4.204,-4.21733 -5.64934,3.59733 3.68534,-5.66533 -5.61734,5.48933 2.25334,-7.608 -3.04,5.46 0.668,-6.26533 -1.93067,5.7 -0.38667,-6.04934 -1.16533,7.42 -2.436,-7.18533 0.76133,7.13467 -3.87466,-6.12134 1.59333,4.43467 -2.98133,-3.69067 3.224,6.52934 -5.86934,-4.43334 5.49334,6.47067 -8.21734,-2.512 6.16934,3.51067 -7.152,-0.46134 6.368,1.86267 -6.62534,0.92533 6.34134,0.08 -3.39467,1.332 3.3,-0.96933 -0.176,0.66 1.56933,-0.56267 -0.24933,1.05734 1.22933,-0.488 -0.212,1.01066 1.256,-1.024 -0.21733,1.24267 0.788,-0.74133 0.432,0.872 0.57067,-1.05734 0.588,1.66534 0.93466,-2.34934 0.77334,2.78534 1.14,-2.744 2.69866,1.22133 -0.88133,-1.90533 2.50667,0.596 -0.82,-1.004 2.80933,0.408 -0.96133,-0.81067 3.06,0.40267 -1.80667,-0.992 0.628,-0.23467 -0.26667,-0.17467 3.34134,0.92134 -3.24934,-1.21467 h 4.176 l -4.07733,-0.35733 0.52133,-0.084 4.716,-1.45467"
     style="fill:#4e792c;fill-opacity:1;fill-rule:nonzero;stroke:none;stroke-width:0.133333"
     id="path590-58-5" />
  <path
     d="m 805.85295,357.00704 -6.31333,1.01333 5.20933,-3.73866 -5.43866,2.31333 4.204,-4.21733 -5.64934,3.59733 3.68534,-5.66533 -5.61734,5.48933 2.25334,-7.608 -3.04,5.46 0.668,-6.26533 -1.93067,5.7 -0.38667,-6.04934 -1.16533,7.42 -2.436,-7.18533 0.76133,7.13467 -3.87466,-6.12134 1.59333,4.43467 -2.98133,-3.69067 3.224,6.52934 -5.86934,-4.43334 5.49334,6.47067 -8.21734,-2.512 6.16934,3.51067 -7.152,-0.46134 6.368,1.86267 -6.62534,0.92533 6.34134,0.08 -3.39467,1.332 3.3,-0.96933 -0.176,0.66 1.56933,-0.56267 -0.24933,1.05734 1.22933,-0.488 -0.212,1.01066 1.256,-1.024 -0.21733,1.24267 0.788,-0.74133 0.432,0.872 0.57067,-1.05734 0.588,1.66534 0.93466,-2.34934 0.77334,2.78534 1.14,-2.744 2.69866,1.22133 -0.88133,-1.90533 2.50667,0.596 -0.82,-1.004 2.80933,0.408 -0.96133,-0.81067 3.06,0.40267 -1.80667,-0.992 0.628,-0.23467 -0.26667,-0.17467 3.34134,0.92134 -3.24934,-1.21467 h 4.176 l -4.07733,-0.35733 0.52133,-0.084 4.716,-1.45467"
     style="fill:#4e792c;fill-opacity:1;fill-rule:nonzero;stroke:none;stroke-width:0.133333"
     id="path590-58-4" />
  <path
     d="m 207.57129,382.41668 -6.31333,1.01333 5.20933,-3.73866 -5.43866,2.31333 4.204,-4.21733 -5.64934,3.59733 3.68534,-5.66533 -5.61734,5.48933 2.25334,-7.608 -3.04,5.46 0.668,-6.26533 -1.93067,5.7 -0.38667,-6.04934 -1.16533,7.42 -2.436,-7.18533 0.76133,7.13467 -3.87466,-6.12133 1.59333,4.43467 -2.98133,-3.69068 3.224,6.52934 -5.86934,-4.43334 5.49334,6.47067 -8.21734,-2.512 6.16934,3.51067 -7.152,-0.46134 6.368,1.86267 -6.62534,0.92533 6.34134,0.08 -3.39467,1.332 3.3,-0.96933 -0.176,0.66 1.56933,-0.56267 -0.24933,1.05734 1.22933,-0.488 -0.212,1.01066 1.256,-1.024 -0.21733,1.24267 0.788,-0.74133 0.432,0.872 0.57067,-1.05734 0.588,1.66534 0.93466,-2.34934 0.77334,2.78534 1.14,-2.744 2.69866,1.22133 -0.88133,-1.90533 2.50667,0.596 -0.82,-1.004 2.80933,0.408 -0.96133,-0.81067 3.06,0.40267 -1.80667,-0.992 0.628,-0.23467 -0.26667,-0.17467 3.34134,0.92134 -3.24934,-1.21467 h 4.176 l -4.07733,-0.35733 0.52133,-0.084 4.716,-1.45467"
     style="fill:#4e792c;fill-opacity:1;fill-rule:nonzero;stroke:none;stroke-width:0.133333"
     id="path590-58-3" />
  <path
     d="m 133.65232,320.04755 -6.31333,1.01333 5.20933,-3.73866 -5.43866,2.31333 4.204,-4.21733 -5.64934,3.59733 3.68534,-5.66533 -5.61734,5.48933 2.25334,-7.608 -3.04,5.46 0.668,-6.26533 -1.93067,5.7 -0.38667,-6.04934 -1.16533,7.42 -2.436,-7.18533 0.76133,7.13467 -3.87466,-6.12134 1.59333,4.43467 -2.98133,-3.69067 3.224,6.52934 -5.86934,-4.43334 5.49334,6.47067 -8.21734,-2.512 6.16934,3.51067 -7.152,-0.46134 6.368,1.86267 -6.62534,0.92533 6.34134,0.08 -3.39467,1.332 3.3,-0.96933 -0.176,0.66 1.56933,-0.56267 -0.24933,1.05734 1.22933,-0.488 -0.212,1.01066 1.256,-1.024 -0.21733,1.24267 0.788,-0.74133 0.432,0.872 0.57067,-1.05734 0.588,1.66534 0.93466,-2.34934 0.77334,2.78534 1.14,-2.744 2.69866,1.22133 -0.88133,-1.90533 2.50667,0.596 -0.82,-1.004 2.80933,0.408 -0.96133,-0.81067 3.06,0.40267 -1.80667,-0.992 0.628,-0.23467 -0.26667,-0.17467 3.34134,0.92134 -3.24934,-1.21467 h 4.176 l -4.07733,-0.35733 0.52133,-0.084 4.716,-1.45467"
     style="fill:#4e792c;fill-opacity:1;fill-rule:nonzero;stroke:none;stroke-width:0.133333"
     id="path590-58-72" />
  <path
     d="m 78.2131,229.95881 -6.31333,1.01333 5.20933,-3.73866 -5.43866,2.31333 4.204,-4.21733 -5.64934,3.59733 3.68534,-5.66533 -5.61734,5.48933 2.25334,-7.608 -3.04,5.46 0.668,-6.26533 -1.93067,5.7 -0.38667,-6.04934 -1.16533,7.42 -2.436,-7.18533 0.76133,7.13467 -3.87466,-6.12134 1.59333,4.43467 -2.98133,-3.69067 3.224,6.52934 -5.86934,-4.43334 5.49334,6.47067 -8.21734,-2.512 6.16934,3.51067 -7.152,-0.46134 6.368,1.86267 -6.62534,0.92533 6.34134,0.08 -3.39467,1.332 3.3,-0.96933 -0.176,0.66 1.56933,-0.56267 -0.24933,1.05734 1.22933,-0.488 -0.212,1.01066 1.256,-1.024 -0.21733,1.24267 0.788,-0.74133 0.432,0.872 0.57067,-1.05734 0.588,1.66534 0.93466,-2.34934 0.77334,2.78534 1.14,-2.744 2.69866,1.22133 -0.88133,-1.90533 2.50667,0.596 -0.82,-1.004 2.80933,0.408 -0.96133,-0.81067 3.06,0.40267 -1.80667,-0.992 0.628,-0.23467 -0.26667,-0.17467 3.34134,0.92134 -3.24934,-1.21467 h 4.176 l -4.07733,-0.35733 0.52133,-0.084 4.716,-1.45467"
     style="fill:#4e792c;fill-opacity:1;fill-rule:nonzero;stroke:none;stroke-width:0.133333"
     id="path590-58-78" />
  <path
     d="m 99.00281,123.70029 -6.31333,1.01333 5.20933,-3.73866 -5.43866,2.31333 4.204,-4.21733 -5.64934,3.59733 3.68534,-5.66533 -5.61734,5.48933 2.25334,-7.608 -3.04,5.46 0.668,-6.26533 -1.93067,5.7 -0.38667,-6.04934 -1.16533,7.42 -2.436,-7.18533 0.76133,7.13467 -3.87466,-6.12134 1.59333,4.43467 -2.98133,-3.69067 3.224,6.52934 -5.86934,-4.43334 5.49334,6.47067 -8.21734,-2.512 6.16934,3.51067 -7.152,-0.46134 6.368,1.86267 -6.62534,0.92533 6.34134,0.08 -3.39467,1.332 3.3,-0.96933 -0.176,0.66 1.56933,-0.56267 -0.24933,1.05734 1.22933,-0.488 -0.212,1.01066 1.256,-1.024 -0.21733,1.24267 0.788,-0.74133 0.432,0.872 0.57067,-1.05734 0.588,1.66534 0.93466,-2.34934 0.77334,2.78534 1.14,-2.744 2.69866,1.22133 -0.88133,-1.90533 2.50667,0.596 -0.82,-1.004 2.80933,0.408 -0.96133,-0.81067 3.06,0.40267 -1.80667,-0.992 0.628,-0.23467 -0.26667,-0.17467 3.34134,0.92134 -3.24934,-1.21467 h 4.176 l -4.07733,-0.35733 0.52133,-0.084 4.716,-1.45467"
     style="fill:#4e792c;fill-opacity:1;fill-rule:nonzero;stroke:none;stroke-width:0.133333"
     id="path590-58-10" />
  <path
     d="m 131.34236,70.57103 -6.31333,1.01333 5.20933,-3.73866 -5.43866,2.31333 4.204,-4.21733 -5.64934,3.59733 3.68534,-5.66533 -5.61734,5.48933 2.25334,-7.608 -3.04,5.46 0.668,-6.26533 -1.93067,5.7 -0.38667,-6.04934 -1.16533,7.42 -2.436,-7.18533 0.76133,7.13467 -3.87466,-6.12134 1.59333,4.43467 -2.98133,-3.69067 3.224,6.52934 -5.86934,-4.43334 5.49334,6.47067 -8.21734,-2.512 6.16934,3.51067 -7.152,-0.46134 6.368,1.86267 -6.62534,0.92533 6.34134,0.08 -3.39467,1.332 3.3,-0.96933 -0.176,0.66 1.56933,-0.56267 -0.24933,1.05734 1.22933,-0.488 -0.212,1.01066 1.256,-1.024 -0.21733,1.24267 0.788,-0.74133 0.432,0.872 0.57067,-1.05734 0.588,1.66534 0.93466,-2.34934 0.77334,2.78534 1.14,-2.744 2.69866,1.22133 -0.88133,-1.90533 2.50667,0.596 -0.82,-1.004 2.80933,0.408 -0.96133,-0.81067 3.06,0.40267 -1.80667,-0.992 0.628,-0.23467 -0.26667,-0.17467 3.34134,0.92134 -3.24934,-1.21467 h 4.176 l -4.07733,-0.35733 0.52133,-0.084 4.716,-1.45467"
     style="fill:#4e792c;fill-opacity:1;fill-rule:nonzero;stroke:none;stroke-width:0.133333"
     id="path590-58-49" />
  <path
     d="m 170.61181,93.67071 -6.31333,1.01333 5.20933,-3.73866 -5.43866,2.31333 4.204,-4.21733 -5.64934,3.59733 3.68534,-5.66533 -5.61734,5.48933 2.25334,-7.608 -3.04,5.46 0.668,-6.26533 -1.93067,5.7 -0.38667,-6.04934 -1.16533,7.42 -2.436,-7.18533 0.76133,7.13467 -3.87466,-6.12134 1.59333,4.43467 -2.98133,-3.69067 3.224,6.52934 -5.86934,-4.43334 5.49334,6.47067 -8.21734,-2.512 6.16934,3.51067 -7.152,-0.46134 6.368,1.86267 -6.62534,0.92533 6.34134,0.08 -3.39467,1.332 3.3,-0.96933 -0.176,0.66 1.56933,-0.56267 -0.24933,1.05734 1.22933,-0.488 -0.212,1.01066 1.256,-1.024 -0.21733,1.24267 0.788,-0.74133 0.432,0.872 0.57067,-1.05734 0.588,1.66534 0.93466,-2.34934 0.77334,2.78534 1.14,-2.744 2.69866,1.22133 -0.88133,-1.90533 2.50667,0.596 -0.82,-1.004 2.80933,0.408 -0.96133,-0.81067 3.06,0.40267 -1.80667,-0.992 0.628,-0.23467 -0.26667,-0.17467 3.34134,0.92134 -3.24934,-1.21467 h 4.176 l -4.07733,-0.35733 0.52133,-0.084 4.716,-1.45467"
     style="fill:#4e792c;fill-opacity:1;fill-rule:nonzero;stroke:none;stroke-width:0.133333"
     id="path590-58-039" />
  <path
     d="m 66.66326,65.9511 -6.31333,1.01333 5.20933,-3.73866 -5.43866,2.31333 4.204,-4.21733 -5.64934,3.59733 3.68534,-5.66533 -5.61734,5.48933 2.25334,-7.608 -3.04,5.46 0.668,-6.26533 -1.93067,5.7 -0.38667,-6.04934 -1.16533,7.42 -2.436,-7.18533 0.76133,7.13467 -3.87466,-6.12134 1.59333,4.43467 -2.98133,-3.69067 3.224,6.52934 -5.86934,-4.43334 5.49334,6.47067 -8.21734,-2.512 6.16934,3.51067 -7.152,-0.46134 6.368,1.86267 -6.62534,0.92533 6.34134,0.08 -3.39467,1.332 3.3,-0.96933 -0.176,0.66 1.56933,-0.56267 -0.24933,1.05734 1.22933,-0.488 -0.212,1.01066 1.256,-1.024 -0.21733,1.24267 0.788,-0.74133 0.432,0.872 0.57067,-1.05734 0.588,1.66534 0.93466,-2.34934 0.77334,2.78534 1.14,-2.744 2.69866,1.22133 -0.88133,-1.90533 2.50667,0.596 -0.82,-1.004 2.80933,0.408 -0.96133,-0.81067 3.06,0.40267 -1.80667,-0.992 0.628,-0.23467 -0.26667,-0.17467 3.34134,0.92134 -3.24934,-1.21467 h 4.176 l -4.07733,-0.35733 0.52133,-0.084 4.716,-1.45467"
     style="fill:#4e792c;fill-opacity:1;fill-rule:nonzero;stroke:none;stroke-width:0.133333"
     id="path590-58-21" />
  <path
     d="m 18.15394,190.68936 -6.31333,1.01333 5.20933,-3.73866 -5.43866,2.31333 4.204,-4.21733 -5.64934,3.59733 3.68534,-5.66533 -5.61734,5.48933 2.25334,-7.608 -3.04,5.46 0.668,-6.26533 -1.93067,5.7 -0.38667,-6.04934 -1.16533,7.42 -2.436,-7.18533 0.76133,7.13467 -3.87466,-6.12134 1.59333,4.43467 -2.98133,-3.69067 3.224,6.52934 -5.86934,-4.43334 5.49334,6.47067 -8.21734,-2.512 6.16934,3.51067 -7.152,-0.46134 6.368,1.86267 -6.62534,0.92533 6.34134,0.08 -3.39467,1.332 3.3,-0.96933 -0.176,0.66 1.56933,-0.56267 -0.24933,1.05734 1.22933,-0.488 -0.212,1.01066 1.256,-1.024 -0.21733,1.24267 0.788,-0.74133 0.432,0.872 0.57067,-1.05734 0.588,1.66534 0.93466,-2.34934 0.77334,2.78534 1.14,-2.744 2.69866,1.22133 -0.88133,-1.90533 2.50667,0.596 -0.82,-1.004 2.80933,0.408 -0.96133,-0.81067 3.06,0.40267 -1.80667,-0.992 0.628,-0.23467 -0.26667,-0.17467 3.34134,0.92134 -3.24934,-1.21467 h 4.176 l -4.07733,-0.35733 0.52133,-0.084 4.716,-1.45467"
     style="fill:#4e792c;fill-opacity:1;fill-rule:nonzero;stroke:none;stroke-width:0.133333"
     id="path590-58-33" />
  <path
     d="m 55.11342,114.46042 -6.31333,1.01333 5.20933,-3.73866 -5.43866,2.31333 4.204,-4.21733 -5.64934,3.59733 3.68534,-5.66533 -5.61734,5.48933 2.25334,-7.608 -3.04,5.46 0.668,-6.26533 -1.93067,5.7 -0.38667,-6.04934 -1.16533,7.42 -2.436,-7.18533 0.76133,7.13467 -3.87466,-6.12134 1.59333,4.43467 -2.98133,-3.69067 3.224,6.52934 -5.86934,-4.43334 5.49334,6.47067 -8.21734,-2.512 6.16934,3.51067 -7.152,-0.46134 6.368,1.86267 -6.62534,0.92533 6.34134,0.08 -3.39467,1.332 3.3,-0.96933 -0.176,0.66 1.56933,-0.56267 -0.24933,1.05734 1.22933,-0.488 -0.212,1.01066 1.256,-1.024 -0.21733,1.24267 0.788,-0.74133 0.432,0.872 0.57067,-1.05734 0.588,1.66534 0.93466,-2.34934 0.77334,2.78534 1.14,-2.744 2.69866,1.22133 -0.88133,-1.90533 2.50667,0.596 -0.82,-1.004 2.80933,0.408 -0.96133,-0.81067 3.06,0.40267 -1.80667,-0.992 0.628,-0.23467 -0.26667,-0.17467 3.34134,0.92134 -3.24934,-1.21467 h 4.176 l -4.07733,-0.35733 0.52133,-0.084 4.716,-1.45467"
     style="fill:#4e792c;fill-opacity:1;fill-rule:nonzero;stroke:none;stroke-width:0.133333"
     id="path590-58-42" />
  <path
     d="m 57.42339,373.17681 -6.31333,1.01333 5.20933,-3.73866 -5.43866,2.31333 4.204,-4.21733 -5.64934,3.59733 3.68534,-5.66533 -5.61734,5.48933 2.25334,-7.608 -3.04,5.46 0.668,-6.26533 -1.93067,5.7 -0.38667,-6.04934 -1.16533,7.42 -2.436,-7.18533 0.76133,7.13467 -3.87466,-6.12134 1.59333,4.43467 -2.98133,-3.69067 3.224,6.52934 -5.86934,-4.43334 5.49334,6.47067 -8.21734,-2.512 6.16934,3.51067 -7.152,-0.46134 6.368,1.86267 -6.62534,0.92533 6.34134,0.08 -3.39467,1.332 3.3,-0.96933 -0.176,0.66 1.56933,-0.56267 -0.24933,1.05734 1.22933,-0.488 -0.212,1.01066 1.256,-1.024 -0.21733,1.24267 0.788,-0.74133 0.432,0.872 0.57067,-1.05734 0.588,1.66534 0.93466,-2.34934 0.77334,2.78534 1.14,-2.744 2.69866,1.22133 -0.88133,-1.90533 2.50667,0.596 -0.82,-1.004 2.80933,0.408 -0.96133,-0.81067 3.06,0.40267 -1.80667,-0.992 0.628,-0.23467 -0.26667,-0.17467 3.34134,0.92134 -3.24934,-1.21467 h 4.176 l -4.07733,-0.35733 0.52133,-0.084 4.716,-1.45467"
     style="fill:#4e792c;fill-opacity:1;fill-rule:nonzero;stroke:none;stroke-width:0.133333"
     id="path590-58-19" />
  <path
     d="m 115.17258,465.57553 -6.31333,1.01333 5.20933,-3.73866 -5.43866,2.31333 4.204,-4.21733 -5.64934,3.59733 3.68534,-5.66533 -5.61734,5.48933 2.25334,-7.608 -3.04,5.46 0.668,-6.26533 -1.93067,5.7 -0.38667,-6.04934 -1.16533,7.42 -2.436,-7.18533 0.76133,7.13467 -3.87466,-6.12134 1.59333,4.43467 -2.98133,-3.69067 3.224,6.52934 -5.86934,-4.43334 5.49334,6.47067 -8.21734,-2.512 6.16934,3.51067 -7.152,-0.46134 6.368,1.86267 -6.62534,0.92533 6.34134,0.08 -3.39467,1.332 3.3,-0.96933 -0.176,0.66 1.56933,-0.56267 -0.24933,1.05734 1.22933,-0.488 -0.212,1.01066 1.256,-1.024 -0.21733,1.24267 0.788,-0.74133 0.432,0.872 0.57067,-1.05734 0.588,1.66534 0.93466,-2.34934 0.77334,2.78534 1.14,-2.744 2.69866,1.22133 -0.88133,-1.90533 2.50667,0.596 -0.82,-1.004 2.80933,0.408 -0.96133,-0.81067 3.06,0.40267 -1.80667,-0.992 0.628,-0.23467 -0.26667,-0.17467 3.34134,0.92134 -3.24934,-1.21467 h 4.176 l -4.07733,-0.35733 0.52133,-0.084 4.716,-1.45467"
     style="fill:#4e792c;fill-opacity:1;fill-rule:nonzero;stroke:none;stroke-width:0.133333"
     id="path590-58-52" />
  <path
     d="m 221.4311,486.36524 -6.31333,1.01333 5.20933,-3.73866 -5.43866,2.31333 4.204,-4.21733 -5.64934,3.59733 3.68534,-5.66533 -5.61734,5.48933 2.25334,-7.608 -3.04,5.46 0.668,-6.26533 -1.93067,5.7 -0.38667,-6.04934 -1.16533,7.42 -2.436,-7.18533 0.76133,7.13467 -3.87466,-6.12134 1.59333,4.43467 -2.98133,-3.69067 3.224,6.52934 -5.86934,-4.43334 5.49334,6.47067 -8.21734,-2.512 6.16934,3.51067 -7.152,-0.46134 6.368,1.86267 -6.62534,0.92533 6.34134,0.08 -3.39467,1.332 3.3,-0.96933 -0.176,0.66 1.56933,-0.56267 -0.24933,1.05734 1.22933,-0.488 -0.212,1.01066 1.256,-1.024 -0.21733,1.24267 0.788,-0.74133 0.432,0.872 0.57067,-1.05734 0.588,1.66534 0.93466,-2.34934 0.77334,2.78534 1.14,-2.744 2.69866,1.22133 -0.88133,-1.90533 2.50667,0.596 -0.82,-1.004 2.80933,0.408 -0.96133,-0.81067 3.06,0.40267 -1.80667,-0.992 0.628,-0.23467 -0.26667,-0.17467 3.34134,0.92134 -3.24934,-1.21467 h 4.176 l -4.07733,-0.35733 0.52133,-0.084 4.716,-1.45467"
     style="fill:#4e792c;fill-opacity:1;fill-rule:nonzero;stroke:none;stroke-width:0.133333"
     id="path590-58-56" />
  <path
     d="m 124.41245,391.65656 -6.31333,1.01333 5.20933,-3.73866 -5.43866,2.31333 4.204,-4.21733 -5.64934,3.59733 3.68534,-5.66533 -5.61734,5.48933 2.25334,-7.608 -3.04,5.46 0.668,-6.26533 -1.93067,5.7 -0.38667,-6.04934 -1.16533,7.42 -2.436,-7.18533 0.76133,7.13467 -3.87466,-6.12134 1.59333,4.43467 -2.98133,-3.69067 3.224,6.52934 -5.86934,-4.43334 5.49334,6.47067 -8.21734,-2.512 6.16934,3.51067 -7.152,-0.46134 6.368,1.86267 -6.62534,0.92533 6.34134,0.08 -3.39467,1.332 3.3,-0.96933 -0.176,0.66 1.56933,-0.56267 -0.24933,1.05734 1.22933,-0.488 -0.212,1.01066 1.256,-1.024 -0.21733,1.24267 0.788,-0.74133 0.432,0.872 0.57067,-1.05734 0.588,1.66534 0.93466,-2.34934 0.77334,2.78534 1.14,-2.744 2.69866,1.22133 -0.88133,-1.90533 2.50667,0.596 -0.82,-1.004 2.80933,0.408 -0.96133,-0.81067 3.06,0.40267 -1.80667,-0.992 0.628,-0.23467 -0.26667,-0.17467 3.34134,0.92134 -3.24934,-1.21467 h 4.176 l -4.07733,-0.35733 0.52133,-0.084 4.716,-1.45467"
     style="fill:#4e792c;fill-opacity:1;fill-rule:nonzero;stroke:none;stroke-width:0.133333"
     id="path590-58-70" />
  <path
     d="m 189.09155,322.35752 -6.31333,1.01333 5.20933,-3.73866 -5.43866,2.31333 4.204,-4.21733 -5.64934,3.59733 3.68534,-5.66533 -5.61734,5.48933 2.25334,-7.608 -3.04,5.46 0.668,-6.26533 -1.93067,5.7 -0.38667,-6.04934 -1.16533,7.42 -2.436,-7.18533 0.76133,7.13467 -3.87466,-6.12134 1.59333,4.43467 -2.98133,-3.69067 3.224,6.52934 -5.86934,-4.43334 5.49334,6.47067 -8.21734,-2.512 6.16934,3.51067 -7.152,-0.46134 6.368,1.86267 -6.62534,0.92533 6.34134,0.08 -3.39467,1.332 3.3,-0.96933 -0.176,0.66 1.56933,-0.56267 -0.24933,1.05734 1.22933,-0.488 -0.212,1.01066 1.256,-1.024 -0.21733,1.24267 0.788,-0.74133 0.432,0.872 0.57067,-1.05734 0.588,1.66534 0.93466,-2.34934 0.77334,2.78534 1.14,-2.744 2.69866,1.22133 -0.88133,-1.90533 2.50667,0.596 -0.82,-1.004 2.80933,0.408 -0.96133,-0.81067 3.06,0.40267 -1.80667,-0.992 0.628,-0.23467 -0.26667,-0.17467 3.34134,0.92134 -3.24934,-1.21467 h 4.176 l -4.07733,-0.35733 0.52133,-0.084 4.716,-1.45467"
     style="fill:#4e792c;fill-opacity:1;fill-rule:nonzero;stroke:none;stroke-width:0.133333"
     id="path590-58-69" />
  <path
     d="m 152.13207,232.26878 -6.31333,1.01333 5.20933,-3.73866 -5.43866,2.31333 4.204,-4.21733 -5.64934,3.59733 3.68534,-5.66533 -5.61734,5.48933 2.25334,-7.608 -3.04,5.46 0.668,-6.26533 -1.93067,5.7 -0.38667,-6.04934 -1.16533,7.42 -2.436,-7.18533 0.76133,7.13467 -3.87466,-6.12134 1.59333,4.43467 -2.98133,-3.69067 3.224,6.52934 -5.86934,-4.43334 5.49334,6.47067 -8.21734,-2.512 6.16934,3.51067 -7.152,-0.46134 6.368,1.86267 -6.62534,0.92533 6.34134,0.08 -3.39467,1.332 3.3,-0.96933 -0.176,0.66 1.56933,-0.56267 -0.24933,1.05734 1.22933,-0.488 -0.212,1.01066 1.256,-1.024 -0.21733,1.24267 0.788,-0.74133 0.432,0.872 0.57067,-1.05734 0.588,1.66534 0.93466,-2.34934 0.77334,2.78534 1.14,-2.744 2.69866,1.22133 -0.88133,-1.90533 2.50667,0.596 -0.82,-1.004 2.80933,0.408 -0.96133,-0.81067 3.06,0.40267 -1.80667,-0.992 0.628,-0.23467 -0.26667,-0.17467 3.34134,0.92134 -3.24934,-1.21467 h 4.176 l -4.07733,-0.35733 0.52133,-0.084 4.716,-1.45467"
     style="fill:#4e792c;fill-opacity:1;fill-rule:nonzero;stroke:none;stroke-width:0.133333"
     id="path590-58-26" />
  <path
     d="m 191.40152,174.51958 -6.31333,1.01333 5.20933,-3.73866 -5.43866,2.31333 4.204,-4.21733 -5.64934,3.59733 3.68534,-5.66533 -5.61734,5.48933 2.25334,-7.608 -3.04,5.46 0.668,-6.26533 -1.93067,5.7 -0.38667,-6.04934 -1.16533,7.42 -2.436,-7.18533 0.76133,7.13467 -3.87466,-6.12134 1.59333,4.43467 -2.98133,-3.69067 3.224,6.52934 -5.86934,-4.43334 5.49334,6.47067 -8.21734,-2.512 6.16934,3.51067 -7.152,-0.46134 6.368,1.86267 -6.62534,0.92533 6.34134,0.08 -3.39467,1.332 3.3,-0.96933 -0.176,0.66 1.56933,-0.56267 -0.24933,1.05734 1.22933,-0.488 -0.212,1.01066 1.256,-1.024 -0.21733,1.24267 0.788,-0.74133 0.432,0.872 0.57067,-1.05734 0.588,1.66534 0.93466,-2.34934 0.77334,2.78534 1.14,-2.744 2.69866,1.22133 -0.88133,-1.90533 2.50667,0.596 -0.82,-1.004 2.80933,0.408 -0.96133,-0.81067 3.06,0.40267 -1.80667,-0.992 0.628,-0.23467 -0.26667,-0.17467 3.34134,0.92134 -3.24934,-1.21467 h 4.176 l -4.07733,-0.35733 0.52133,-0.084 4.716,-1.45467"
     style="fill:#4e792c;fill-opacity:1;fill-rule:nonzero;stroke:none;stroke-width:0.133333"
     id="path590-58-22" />
  <path
     d="m 627.98543,42.85142 -6.31333,1.01333 5.20933,-3.73866 -5.43866,2.31333 4.204,-4.21733 -5.64934,3.59733 3.68534,-5.66533 -5.61734,5.48933 2.25334,-7.608 -3.04,5.46 0.668,-6.26533 -1.93067,5.7 -0.38667,-6.04934 -1.16533,7.42 -2.436,-7.18533 0.76133,7.13467 -3.87466,-6.12134 1.59333,4.43467 -2.98133,-3.69067 3.224,6.52934 -5.86934,-4.43334 5.49334,6.47067 -8.21734,-2.512 6.16934,3.51067 -7.152,-0.46134 6.368,1.86267 -6.62534,0.92533 6.34134,0.08 -3.39467,1.332 3.3,-0.96933 -0.176,0.66 1.56933,-0.56267 -0.24933,1.05734 1.22933,-0.488 -0.212,1.01066 1.256,-1.024 -0.21733,1.24267 0.788,-0.74133 0.432,0.872 0.57067,-1.05734 0.588,1.66534 0.93466,-2.34934 0.77334,2.78534 1.14,-2.744 2.69866,1.22133 -0.88133,-1.90533 2.50667,0.596 -0.82,-1.004 2.80933,0.408 -0.96133,-0.81067 3.06,0.40267 -1.80667,-0.992 0.628,-0.23467 -0.26667,-0.17467 3.34134,0.92134 -3.24934,-1.21467 h 4.176 l -4.07733,-0.35733 0.52133,-0.084 4.716,-1.45467"
     style="fill:#4e792c;fill-opacity:1;fill-rule:nonzero;stroke:none;stroke-width:0.133333"
     id="path590-58-226" />
  <path
     d="m 803.54298,243.81862 -6.31333,1.01333 5.20933,-3.73866 -5.43866,2.31333 4.204,-4.21733 -5.64934,3.59733 3.68534,-5.66533 -5.61734,5.48933 2.25334,-7.608 -3.04,5.46 0.668,-6.26533 -1.93067,5.7 -0.38667,-6.04934 -1.16533,7.42 -2.436,-7.18533 0.76133,7.13467 -3.87466,-6.12134 1.59333,4.43467 -2.98133,-3.69067 3.224,6.52934 -5.86934,-4.43334 5.49334,6.47067 -8.21734,-2.512 6.16934,3.51067 -7.152,-0.46134 6.368,1.86267 -6.62534,0.92533 6.34134,0.08 -3.39467,1.332 3.3,-0.96933 -0.176,0.66 1.56933,-0.56267 -0.24933,1.05734 1.22933,-0.488 -0.212,1.01066 1.256,-1.024 -0.21733,1.24267 0.788,-0.74133 0.432,0.872 0.57067,-1.05734 0.588,1.66534 0.93466,-2.34934 0.77334,2.78534 1.14,-2.744 2.69866,1.22133 -0.88133,-1.90533 2.50667,0.596 -0.82,-1.004 2.80933,0.408 -0.96133,-0.81067 3.06,0.40267 -1.80667,-0.992 0.628,-0.23467 -0.26667,-0.17467 3.34134,0.92134 -3.24934,-1.21467 h 4.176 l -4.07733,-0.35733 0.52133,-0.084 4.716,-1.45467"
     style="fill:#4e792c;fill-opacity:1;fill-rule:nonzero;stroke:none;stroke-width:0.133333"
     id="path590-58-11" />
  <path
     d="m 752.72369,130.6302 -6.31333,1.01333 5.20933,-3.73866 -5.43866,2.31333 4.204,-4.21733 -5.64934,3.59733 3.68534,-5.66533 -5.61734,5.48933 2.25334,-7.608 -3.04,5.46 0.668,-6.26533 -1.93067,5.7 -0.38667,-6.04934 -1.16533,7.42 -2.436,-7.18533 0.76133,7.13467 -3.87466,-6.12134 1.59333,4.43467 -2.98133,-3.69067 3.224,6.52934 -5.86934,-4.43334 5.49334,6.47067 -8.21734,-2.512 6.16934,3.51067 -7.152,-0.46134 6.368,1.86267 -6.62534,0.92533 6.34134,0.08 -3.39467,1.332 3.3,-0.96933 -0.176,0.66 1.56933,-0.56267 -0.24933,1.05734 1.22933,-0.488 -0.212,1.01066 1.256,-1.024 -0.21733,1.24267 0.788,-0.74133 0.432,0.872 0.57067,-1.05734 0.588,1.66534 0.93466,-2.34934 0.77334,2.78534 1.14,-2.744 2.69866,1.22133 -0.88133,-1.90533 2.50667,0.596 -0.82,-1.004 2.80933,0.408 -0.96133,-0.81067 3.06,0.40267 -1.80667,-0.992 0.628,-0.23467 -0.26667,-0.17467 3.34134,0.92134 -3.24934,-1.21467 h 4.176 l -4.07733,-0.35733 0.52133,-0.084 4.716,-1.45467"
     style="fill:#4e792c;fill-opacity:1;fill-rule:nonzero;stroke:none;stroke-width:0.133333"
     id="path590-58-00" />
  <path
     d="m 879.77192,54.40126 -6.31333,1.01333 5.20933,-3.73866 -5.43866,2.31333 4.204,-4.21733 -5.64934,3.59733 3.68534,-5.66533 -5.61734,5.48933 2.25334,-7.608 -3.04,5.46 0.668,-6.26533 -1.93067,5.7 -0.38667,-6.04934 -1.16533,7.42 -2.436,-7.18533 0.76133,7.13467 -3.87466,-6.12134 1.59333,4.43467 -2.98133,-3.69067 3.224,6.52934 -5.86934,-4.43334 5.49334,6.47067 -8.21734,-2.512 6.16934,3.51067 -7.152,-0.46134 6.368,1.86267 -6.62534,0.92533 6.34134,0.08 -3.39467,1.332 3.3,-0.96933 -0.176,0.66 1.56933,-0.56267 -0.24933,1.05734 1.22933,-0.488 -0.212,1.01066 1.256,-1.024 -0.21733,1.24267 0.788,-0.74133 0.432,0.872 0.57067,-1.05734 0.588,1.66534 0.93466,-2.34934 0.77334,2.78534 1.14,-2.744 2.69866,1.22133 -0.88133,-1.90533 2.50667,0.596 -0.82,-1.004 2.80933,0.408 -0.96133,-0.81067 3.06,0.40267 -1.80667,-0.992 0.628,-0.23467 -0.26667,-0.17467 3.34134,0.92134 -3.24934,-1.21467 h 4.176 l -4.07733,-0.35733 0.52133,-0.084 4.716,-1.45467"
     style="fill:#4e792c;fill-opacity:1;fill-rule:nonzero;stroke:none;stroke-width:0.133333"
     id="path590-58-55" />
  <path
     d="m 412.08209,414.52064 -6.31333,1.01333 5.20933,-3.73866 -5.43866,2.31333 4.204,-4.21733 -5.64934,3.59733 3.68534,-5.66533 -5.61734,5.48933 2.25334,-7.608 -3.04,5.46 0.668,-6.26533 -1.93067,5.7 -0.38667,-6.04934 -1.16533,7.42 -2.436,-7.18533 0.76133,7.13467 -3.87466,-6.12134 1.59333,4.43467 -2.98133,-3.69067 3.224,6.52934 -5.86934,-4.43334 5.49334,6.47067 -8.21734,-2.512 6.16934,3.51067 -7.152,-0.46134 6.368,1.86267 -6.62534,0.92533 6.34134,0.08 -3.39467,1.332 3.3,-0.96933 -0.176,0.66 1.56933,-0.56267 -0.24933,1.05734 1.22933,-0.488 -0.212,1.01066 1.256,-1.024 -0.21733,1.24267 0.788,-0.74133 0.432,0.872 0.57067,-1.05734 0.588,1.66534 0.93466,-2.34934 0.77334,2.78534 1.14,-2.744 2.69866,1.22133 -0.88133,-1.90533 2.50667,0.596 -0.82,-1.004 2.80933,0.408 -0.96133,-0.81067 3.06,0.40267 -1.80667,-0.992 0.628,-0.23467 -0.26667,-0.17467 3.34134,0.92134 -3.24934,-1.21467 h 4.176 l -4.07733,-0.35733 0.52133,-0.084 4.716,-1.45467"
     style="fill:#4e792c;fill-opacity:1;fill-rule:nonzero;stroke:none;stroke-width:0.133333"
     id="path590-69" />
</svg>
