<?xml version="1.0" encoding="UTF-8" standalone="no"?>
<svg
   id="visual"
   viewBox="0 0 900 600"
   width="900"
   height="600"
   version="1.1"
   sodipodi:docname="adv_1_bg.svg"
   inkscape:version="1.1 (c68e22c387, 2021-05-23)"
   xmlns:inkscape="http://www.inkscape.org/namespaces/inkscape"
   xmlns:sodipodi="http://sodipodi.sourceforge.net/DTD/sodipodi-0.dtd"
   xmlns="http://www.w3.org/2000/svg"
   xmlns:svg="http://www.w3.org/2000/svg">
  <defs
     id="defs73" />
  <sodipodi:namedview
     id="namedview71"
     pagecolor="#ffffff"
     bordercolor="#666666"
     borderopacity="1.0"
     inkscape:pageshadow="2"
     inkscape:pageopacity="0.0"
     inkscape:pagecheckerboard="0"
     showgrid="false"
     inkscape:zoom="1.2244444"
     inkscape:cx="449.59165"
     inkscape:cy="169.46461"
     inkscape:window-width="1920"
     inkscape:window-height="1009"
     inkscape:window-x="1912"
     inkscape:window-y="-8"
     inkscape:window-maximized="1"
     inkscape:current-layer="visual" />
  <rect
     width="900"
     height="600"
     fill="#009473"
     id="rect2" />
  <g
     id="g68"
     transform="matrix(0.84716122,0,0,0.89216572,64.650738,45.072892)">
    <g
       transform="translate(742,166)"
       id="g6">
      <path
         d="M 32.6,-37.5 C 45,-28.4 59.8,-20.8 61,-11.1 62.3,-1.5 50,10.2 41.3,22.6 32.7,35.1 27.6,48.4 18.3,53 9,57.6 -4.5,53.4 -11.9,45.3 -19.4,37.1 -20.8,25 -22,16 -23.2,7.1 -24.2,1.3 -29.6,-11.6 -34.9,-24.5 -44.5,-44.5 -40.3,-55 c 4.2,-10.6 22.3,-11.7 36.3,-6.9 14.1,4.8 24.1,15.3 36.6,24.4 z"
         fill="#71d767"
         id="path4" />
    </g>
    <g
       transform="translate(233,315)"
       id="g10">
      <path
         d="m 25.4,-32.1 c 4.2,5.4 2.1,16.5 1.7,25.6 C 26.6,2.6 27.9,9.7 25.4,15.3 22.9,20.9 16.7,24.9 10.9,25 5,25 -0.6,20.9 -5.1,17.7 -9.6,14.4 -13,12 -14.2,8.8 c -1.2,-3.2 0,-7.2 -2.6,-15.1 -2.6,-7.9 -8.9,-19.9 -6.7,-25.6 2.2,-5.7 12.8,-5.3 23.5,-5.2 10.6,0 21.2,-0.4 25.4,5 z"
         fill="#71d767"
         id="path8" />
    </g>
    <g
       transform="translate(53,439)"
       id="g14">
      <path
         d="m 41.9,-45.1 c 9.5,3.3 12.6,19.1 10.5,32.2 C 50.3,0.1 43,10.4 36,19.3 29.1,28.3 22.5,35.9 11.9,45.2 1.3,54.4 -13.2,65.3 -22.8,62 -32.4,58.8 -37.2,41.5 -44.1,26.8 -50.9,12.1 -59.9,0 -61.7,-14.5 c -1.8,-14.5 3.7,-31.2 15.2,-34.2 11.5,-2.9 29,8 45.8,8.8 16.8,0.8 33,-8.5 42.6,-5.2 z"
         fill="#71d767"
         id="path12" />
    </g>
    <g
       transform="translate(150,58)"
       id="g18">
      <path
         d="m 32.7,-38.3 c 10.5,8.1 20.4,17.6 24.9,30.1 4.5,12.4 3.7,27.7 -4.4,36.4 C 45.2,36.8 30,38.8 18.5,37 6.9,35.2 -1,29.8 -7.2,25.2 c -6.3,-4.6 -11,-8.3 -19.5,-14.1 -8.5,-5.8 -20.8,-13.7 -22.8,-22.9 -2.1,-9.2 6.1,-19.7 16.1,-27.9 9.9,-8.3 21.7,-14.3 33.1,-13.9 11.4,0.4 22.5,7.1 33,15.3 z"
         fill="#71d767"
         id="path16" />
    </g>
    <g
       transform="translate(584,47)"
       id="g22">
      <path
         d="m 23.8,-21.5 c 11.4,2.7 27.9,6.1 33.6,14.8 5.6,8.8 0.4,22.9 -9.6,28.8 -9.9,6 -24.6,3.8 -35,3.3 C 2.4,25 -3.9,26.4 -16,28.7 -28.2,30.9 -46.2,34 -57.9,27 -69.6,20 -75,2.9 -68.8,-8.6 c 6.2,-11.5 24.1,-17.5 37.5,-19.8 13.4,-2.2 22.3,-0.8 29.9,0.8 7.6,1.6 13.8,3.5 25.2,6.1 z"
         fill="#71d767"
         id="path20" />
    </g>
    <g
       transform="translate(420,201)"
       id="g26">
      <path
         d="m 33.3,-39 c 12.3,9.6 26.5,17.8 26.3,27 -0.2,9.2 -14.7,19.4 -24.8,27.5 -10.2,8.1 -16,14.1 -23.3,17.4 -7.4,3.2 -16.2,3.8 -28.6,3.7 -12.3,0 -28.3,-0.6 -32,-7.9 -3.6,-7.2 4.9,-21.1 13,-29.5 8.1,-8.5 15.7,-11.4 21.7,-22.1 5.9,-10.7 10.2,-29.1 17.5,-32.8 7.4,-3.7 17.9,7.2 30.2,16.7 z"
         fill="#71d767"
         id="path24" />
    </g>
    <g
       transform="translate(536,367)"
       id="g30">
      <path
         d="m 13.7,-14.6 c 5,2.5 10.6,5.9 12.4,10.8 1.8,4.9 -0.1,11.3 -3.3,17.3 -3.1,6 -7.4,11.6 -13.8,16 -6.5,4.4 -15.1,7.7 -21,4.9 -6,-2.7 -9.3,-11.5 -10.6,-18.9 -1.3,-7.4 -0.6,-13.4 1.4,-18.4 1.9,-4.9 5,-8.7 8.8,-11.4 3.7,-2.6 8.1,-4.1 12.4,-4.1 4.3,0 8.7,1.4 13.7,3.8 z"
         fill="#71d767"
         id="path28" />
    </g>
    <g
       transform="translate(721,461)"
       id="g34">
      <path
         d="m 42.1,-49.1 c 7,4.8 3.3,23.3 4.2,39.3 0.8,16.1 6.3,29.7 2.9,40.7 C 45.8,41.8 33.5,50.2 21.1,52.1 8.7,54 -3.8,49.6 -14.1,43.7 -24.3,37.8 -32.3,30.5 -41.3,20.9 -50.4,11.3 -60.6,-0.6 -58.2,-9.5 c 2.5,-9 17.5,-15 29.3,-18.9 11.8,-3.9 20.4,-5.7 33.4,-11.1 13.1,-5.4 30.7,-14.4 37.6,-9.6 z"
         fill="#71d767"
         id="path32" />
    </g>
    <g
       transform="translate(344,504)"
       id="g38">
      <path
         d="m 28.2,-29 c 13.7,6.9 34,10.7 34.3,17.3 C 62.8,-5.2 43.2,4.2 32.4,14.7 21.6,25.2 19.6,36.8 14.4,38 9.2,39.3 0.8,30.2 -12.7,28.2 c -13.5,-2 -32,3.2 -40,-2 -8,-5.2 -5.5,-20.6 1.8,-30.5 7.3,-10 19.4,-14.4 28.7,-22.1 9.2,-7.8 15.7,-18.8 22.6,-19.2 6.8,-0.5 14,9.7 27.8,16.6 z"
         fill="#71d767"
         id="path36" />
    </g>
    <g
       transform="translate(896,561)"
       id="g42">
      <path
         d="M 42.9,-48.7 C 52,-43.5 53.4,-26.6 57.1,-9.5 60.9,7.6 67,24.9 61.4,36.3 55.8,47.7 38.6,53.1 24.6,50.9 10.7,48.8 0,38.9 -8.6,32.1 c -8.7,-6.8 -15.5,-10.5 -28.6,-18 -13,-7.5 -32.5,-18.6 -33.6,-29 -1.1,-10.4 16.2,-20 31,-24.2 14.9,-4.2 27.3,-3 42,-5.6 14.7,-2.7 31.6,-9.2 40.7,-4 z"
         fill="#71d767"
         id="path40" />
    </g>
    <g
       transform="translate(569,591)"
       id="g46">
      <path
         d="M 44.3,-52 C 58,-41.3 70.2,-27.9 68.7,-15.2 67.2,-2.6 52,9.3 40.1,16.8 28.3,24.3 19.7,27.4 12.3,27.3 4.9,27.2 -1.3,24 -10.9,23.3 c -9.5,-0.6 -22.5,1.4 -28.2,-3.3 -5.7,-4.7 -4.3,-16 -5,-30.6 -0.8,-14.5 -3.7,-32.2 3.3,-44.1 7,-11.9 23.9,-18 40,-17 16.1,1 31.4,9 45.1,19.7 z"
         fill="#71d767"
         id="path44" />
    </g>
    <g
       transform="translate(884,345)"
       id="g50">
      <path
         d="m 37,-45.3 c 6.2,6.4 3.2,22.6 -0.2,34.3 -3.3,11.7 -7,18.9 -11.4,24.8 -4.5,5.9 -9.7,10.5 -17.1,16.4 -7.4,5.9 -17,13 -26.8,12.8 -9.9,-0.1 -20,-7.6 -29,-18.1 -9.1,-10.5 -17.2,-24.1 -14,-34.6 3.2,-10.6 17.6,-18 29.7,-23.3 12.2,-5.4 22,-8.6 34.6,-11.9 12.6,-3.4 28,-6.8 34.2,-0.4 z"
         fill="#71d767"
         id="path48" />
    </g>
    <g
       transform="translate(6,196)"
       id="g54">
      <path
         d="m 33.8,-37.6 c 6.1,2.5 4.5,16.8 5,29.3 0.5,12.5 3,23.2 0,32.7 C 35.7,33.8 27,41.9 17.2,44 7.5,46.1 -3.2,42.1 -9.4,35.6 -15.6,29 -17.3,20 -19.8,12.8 -22.2,5.6 -25.5,0.3 -28.4,-8.8 c -3,-9.1 -5.6,-21.9 -0.8,-24.6 4.8,-2.7 17,4.7 30,3.7 13,-0.9 26.8,-10.3 33,-7.9 z"
         fill="#71d767"
         id="path52" />
    </g>
    <g
       transform="translate(167,599)"
       id="g58">
      <path
         d="m 23.2,-32.5 c 3.7,7.9 1.2,18.3 2,27.4 0.9,9.1 5,17 4.2,25.5 C 28.6,28.9 22.9,38.1 14.3,42.7 5.7,47.4 -5.9,47.6 -12.3,41.8 -18.7,36 -20,24.1 -26.4,14.5 -32.7,5 -44.1,-2.4 -46.3,-11.3 c -2.2,-8.9 4.9,-19.3 14.1,-26.2 9.2,-7 20.7,-10.4 31.4,-9.4 10.6,1 20.4,6.5 24,14.4 z"
         fill="#71d767"
         id="path56" />
    </g>
    <g
       transform="translate(374,9)"
       id="g62">
      <path
         d="m 26.8,-33 c 6.3,6.4 8.8,16.3 8,24.9 C 34,0.5 30,7.8 25.9,15.1 21.8,22.4 17.7,29.7 10.8,34.2 3.9,38.7 -5.6,40.2 -11.5,36.1 -17.3,32 -19.3,22.2 -23.5,14 -27.7,5.9 -34,-0.6 -33.7,-6.6 c 0.2,-6 7.1,-11.5 13.8,-17.8 6.7,-6.4 13.3,-13.7 21.7,-15.8 8.4,-2.2 18.6,0.7 25,7.2 z"
         fill="#71d767"
         id="path60" />
    </g>
    <g
       transform="translate(896,16)"
       id="g66">
      <path
         d="m 38.3,-44.9 c 12.2,9.5 23.5,20.8 22.2,31.5 C 59.2,-2.6 45.3,7.8 35,15.1 24.6,22.4 17.9,26.6 10.4,30 c -7.5,3.3 -15.9,5.6 -20.7,2.2 -4.8,-3.5 -6.1,-12.7 -9.3,-20 -3.1,-7.3 -8.2,-12.7 -9.3,-19.2 -1.1,-6.6 1.6,-14.4 7.1,-25.1 5.5,-10.7 13.6,-24.4 24.2,-27.3 10.6,-2.9 23.7,5 35.9,14.5 z"
         fill="#71d767"
         id="path64" />
    </g>
  </g>
</svg>
