<svg id="visual" viewBox="0 0 900 600" width="900" height="600" xmlns="http://www.w3.org/2000/svg" xmlns:xlink="http://www.w3.org/1999/xlink" version="1.1"><rect x="0" y="0" width="900" height="600" fill="#56a1aa"></rect><defs><linearGradient id="grad1_0" x1="33.3%" y1="0%" x2="100%" y2="100%"><stop offset="20%" stop-color="#315861" stop-opacity="1"></stop><stop offset="80%" stop-color="#315861" stop-opacity="1"></stop></linearGradient></defs><defs><linearGradient id="grad1_1" x1="33.3%" y1="0%" x2="100%" y2="100%"><stop offset="20%" stop-color="#315861" stop-opacity="1"></stop><stop offset="80%" stop-color="#3a6973" stop-opacity="1"></stop></linearGradient></defs><defs><linearGradient id="grad1_2" x1="33.3%" y1="0%" x2="100%" y2="100%"><stop offset="20%" stop-color="#437b85" stop-opacity="1"></stop><stop offset="80%" stop-color="#3a6973" stop-opacity="1"></stop></linearGradient></defs><defs><linearGradient id="grad1_3" x1="33.3%" y1="0%" x2="100%" y2="100%"><stop offset="20%" stop-color="#437b85" stop-opacity="1"></stop><stop offset="80%" stop-color="#4c8e98" stop-opacity="1"></stop></linearGradient></defs><defs><linearGradient id="grad1_4" x1="33.3%" y1="0%" x2="100%" y2="100%"><stop offset="20%" stop-color="#56a1aa" stop-opacity="1"></stop><stop offset="80%" stop-color="#4c8e98" stop-opacity="1"></stop></linearGradient></defs><defs><linearGradient id="grad2_0" x1="0%" y1="0%" x2="66.7%" y2="100%"><stop offset="20%" stop-color="#315861" stop-opacity="1"></stop><stop offset="80%" stop-color="#315861" stop-opacity="1"></stop></linearGradient></defs><defs><linearGradient id="grad2_1" x1="0%" y1="0%" x2="66.7%" y2="100%"><stop offset="20%" stop-color="#3a6973" stop-opacity="1"></stop><stop offset="80%" stop-color="#315861" stop-opacity="1"></stop></linearGradient></defs><defs><linearGradient id="grad2_2" x1="0%" y1="0%" x2="66.7%" y2="100%"><stop offset="20%" stop-color="#3a6973" stop-opacity="1"></stop><stop offset="80%" stop-color="#437b85" stop-opacity="1"></stop></linearGradient></defs><defs><linearGradient id="grad2_3" x1="0%" y1="0%" x2="66.7%" y2="100%"><stop offset="20%" stop-color="#4c8e98" stop-opacity="1"></stop><stop offset="80%" stop-color="#437b85" stop-opacity="1"></stop></linearGradient></defs><defs><linearGradient id="grad2_4" x1="0%" y1="0%" x2="66.7%" y2="100%"><stop offset="20%" stop-color="#4c8e98" stop-opacity="1"></stop><stop offset="80%" stop-color="#56a1aa" stop-opacity="1"></stop></linearGradient></defs><g transform="translate(900, 0)"><path d="M0 432.7C-29.7 396.4 -59.3 360 -92.7 345.8C-126 331.6 -163 339.4 -189 327.4C-215 315.3 -230.2 283.4 -265.2 265.2C-300.2 247 -355.1 242.5 -374.7 216.3C-394.3 190.1 -378.7 142.2 -382.5 102.5C-386.3 62.8 -409.5 31.4 -432.7 0L0 0Z" fill="#5197a1"></path><path d="M0 346.1C-23.7 317.1 -47.5 288 -74.1 276.6C-100.8 265.3 -130.4 271.5 -151.2 261.9C-172 252.2 -184.1 226.7 -212.1 212.1C-240.1 197.6 -284 194 -299.8 173.1C-315.5 152.1 -303 113.7 -306 82C-309 50.2 -327.6 25.1 -346.1 0L0 0Z" fill="#48858e"></path><path d="M0 259.6C-17.8 237.8 -35.6 216 -55.6 207.5C-75.6 198.9 -97.8 203.6 -113.4 196.4C-129 189.2 -138.1 170 -159.1 159.1C-180.1 148.2 -213 145.5 -224.8 129.8C-236.6 114.1 -227.2 85.3 -229.5 61.5C-231.8 37.7 -245.7 18.8 -259.6 0L0 0Z" fill="#3e727c"></path><path d="M0 173.1C-11.9 158.5 -23.7 144 -37.1 138.3C-50.4 132.6 -65.2 135.8 -75.6 130.9C-86 126.1 -92.1 113.3 -106.1 106.1C-120.1 98.8 -142 97 -149.9 86.5C-157.7 76.1 -151.5 56.9 -153 41C-154.5 25.1 -163.8 12.6 -173.1 0L0 0Z" fill="#35616a"></path><path d="M0 86.5C-5.9 79.3 -11.9 72 -18.5 69.2C-25.2 66.3 -32.6 67.9 -37.8 65.5C-43 63.1 -46 56.7 -53 53C-60 49.4 -71 48.5 -74.9 43.3C-78.9 38 -75.7 28.4 -76.5 20.5C-77.3 12.6 -81.9 6.3 -86.5 0L0 0Z" fill="#315861"></path></g><g transform="translate(0, 600)"><path d="M0 -432.7C29.5 -393.4 59.1 -354.1 90.8 -339C122.6 -323.9 156.5 -333 189 -327.4C221.5 -321.7 252.5 -301.3 277.9 -277.9C303.3 -254.5 323.2 -228.2 348.1 -201C373.1 -173.8 403 -145.6 417.9 -112C432.8 -78.3 432.8 -39.2 432.7 0L0 0Z" fill="#5197a1"></path><path d="M0 -346.1C23.6 -314.7 47.3 -283.3 72.7 -271.2C98.1 -259.2 125.2 -266.4 151.2 -261.9C177.2 -257.3 202 -241 222.3 -222.3C242.7 -203.6 258.6 -182.6 278.5 -160.8C298.4 -139 322.4 -116.5 334.3 -89.6C346.3 -62.7 346.2 -31.3 346.1 0L0 0Z" fill="#48858e"></path><path d="M0 -259.6C17.7 -236 35.5 -212.5 54.5 -203.4C73.6 -194.4 93.9 -199.8 113.4 -196.4C132.9 -193 151.5 -180.8 166.7 -166.7C182 -152.7 193.9 -136.9 208.9 -120.6C223.8 -104.3 241.8 -87.4 250.8 -67.2C259.7 -47 259.7 -23.5 259.6 0L0 0Z" fill="#3e727c"></path><path d="M0 -173.1C11.8 -157.4 23.6 -141.7 36.3 -135.6C49 -129.6 62.6 -133.2 75.6 -130.9C88.6 -128.7 101 -120.5 111.2 -111.2C121.3 -101.8 129.3 -91.3 139.3 -80.4C149.2 -69.5 161.2 -58.3 167.2 -44.8C173.1 -31.3 173.1 -15.7 173.1 0L0 0Z" fill="#35616a"></path><path d="M0 -86.5C5.9 -78.7 11.8 -70.8 18.2 -67.8C24.5 -64.8 31.3 -66.6 37.8 -65.5C44.3 -64.3 50.5 -60.3 55.6 -55.6C60.7 -50.9 64.6 -45.6 69.6 -40.2C74.6 -34.8 80.6 -29.1 83.6 -22.4C86.6 -15.7 86.6 -7.8 86.5 0L0 0Z" fill="#315861"></path></g></svg>