<svg id="visual" viewBox="0 0 900 600" width="900" height="600" xmlns="http://www.w3.org/2000/svg" xmlns:xlink="http://www.w3.org/1999/xlink" version="1.1"><rect x="0" y="0" width="900" height="600" fill="#45e370"></rect><defs><linearGradient id="grad1_0" x1="33.3%" y1="0%" x2="100%" y2="100%"><stop offset="20%" stop-color="#6600ff" stop-opacity="1"></stop><stop offset="80%" stop-color="#6600ff" stop-opacity="1"></stop></linearGradient></defs><defs><linearGradient id="grad1_1" x1="33.3%" y1="0%" x2="100%" y2="100%"><stop offset="20%" stop-color="#6600ff" stop-opacity="1"></stop><stop offset="80%" stop-color="#0067ff" stop-opacity="1"></stop></linearGradient></defs><defs><linearGradient id="grad1_2" x1="33.3%" y1="0%" x2="100%" y2="100%"><stop offset="20%" stop-color="#008dff" stop-opacity="1"></stop><stop offset="80%" stop-color="#0067ff" stop-opacity="1"></stop></linearGradient></defs><defs><linearGradient id="grad1_3" x1="33.3%" y1="0%" x2="100%" y2="100%"><stop offset="20%" stop-color="#008dff" stop-opacity="1"></stop><stop offset="80%" stop-color="#00a6ff" stop-opacity="1"></stop></linearGradient></defs><defs><linearGradient id="grad1_4" x1="33.3%" y1="0%" x2="100%" y2="100%"><stop offset="20%" stop-color="#00bafd" stop-opacity="1"></stop><stop offset="80%" stop-color="#00a6ff" stop-opacity="1"></stop></linearGradient></defs><defs><linearGradient id="grad1_5" x1="33.3%" y1="0%" x2="100%" y2="100%"><stop offset="20%" stop-color="#00bafd" stop-opacity="1"></stop><stop offset="80%" stop-color="#00cbc8" stop-opacity="1"></stop></linearGradient></defs><defs><linearGradient id="grad1_6" x1="33.3%" y1="0%" x2="100%" y2="100%"><stop offset="20%" stop-color="#00d996" stop-opacity="1"></stop><stop offset="80%" stop-color="#00cbc8" stop-opacity="1"></stop></linearGradient></defs><defs><linearGradient id="grad1_7" x1="33.3%" y1="0%" x2="100%" y2="100%"><stop offset="20%" stop-color="#00d996" stop-opacity="1"></stop><stop offset="80%" stop-color="#45e370" stop-opacity="1"></stop></linearGradient></defs><defs><linearGradient id="grad2_0" x1="0%" y1="0%" x2="66.7%" y2="100%"><stop offset="20%" stop-color="#6600ff" stop-opacity="1"></stop><stop offset="80%" stop-color="#6600ff" stop-opacity="1"></stop></linearGradient></defs><defs><linearGradient id="grad2_1" x1="0%" y1="0%" x2="66.7%" y2="100%"><stop offset="20%" stop-color="#0067ff" stop-opacity="1"></stop><stop offset="80%" stop-color="#6600ff" stop-opacity="1"></stop></linearGradient></defs><defs><linearGradient id="grad2_2" x1="0%" y1="0%" x2="66.7%" y2="100%"><stop offset="20%" stop-color="#0067ff" stop-opacity="1"></stop><stop offset="80%" stop-color="#008dff" stop-opacity="1"></stop></linearGradient></defs><defs><linearGradient id="grad2_3" x1="0%" y1="0%" x2="66.7%" y2="100%"><stop offset="20%" stop-color="#00a6ff" stop-opacity="1"></stop><stop offset="80%" stop-color="#008dff" stop-opacity="1"></stop></linearGradient></defs><defs><linearGradient id="grad2_4" x1="0%" y1="0%" x2="66.7%" y2="100%"><stop offset="20%" stop-color="#00a6ff" stop-opacity="1"></stop><stop offset="80%" stop-color="#00bafd" stop-opacity="1"></stop></linearGradient></defs><defs><linearGradient id="grad2_5" x1="0%" y1="0%" x2="66.7%" y2="100%"><stop offset="20%" stop-color="#00cbc8" stop-opacity="1"></stop><stop offset="80%" stop-color="#00bafd" stop-opacity="1"></stop></linearGradient></defs><defs><linearGradient id="grad2_6" x1="0%" y1="0%" x2="66.7%" y2="100%"><stop offset="20%" stop-color="#00cbc8" stop-opacity="1"></stop><stop offset="80%" stop-color="#00d996" stop-opacity="1"></stop></linearGradient></defs><defs><linearGradient id="grad2_7" x1="0%" y1="0%" x2="66.7%" y2="100%"><stop offset="20%" stop-color="#45e370" stop-opacity="1"></stop><stop offset="80%" stop-color="#00d996" stop-opacity="1"></stop></linearGradient></defs><g transform="translate(900, 0)"><path d="M0 540.8C-41.5 521.8 -82.9 502.8 -132.5 494.6C-182.1 486.3 -239.8 488.8 -258 446.9C-276.2 405 -254.9 318.8 -287.1 287.1C-319.3 255.4 -405.1 278.3 -453.8 262C-502.5 245.7 -514.1 190.2 -522.4 140C-530.7 89.8 -535.8 44.9 -540.8 0L0 0Z" fill="#00de81"></path><path d="M0 473.2C-36.3 456.6 -72.6 440 -116 432.7C-159.3 425.5 -209.8 427.7 -225.7 391C-241.7 354.4 -223 278.9 -251.2 251.2C-279.4 223.5 -354.5 243.5 -397.1 229.3C-439.7 215 -449.8 166.4 -457.1 122.5C-464.4 78.6 -468.8 39.3 -473.2 0L0 0Z" fill="#00d2ae"></path><path d="M0 405.6C-31.1 391.4 -62.2 377.1 -99.4 370.9C-136.6 364.7 -179.9 366.6 -193.5 335.2C-207.1 303.7 -191.1 239.1 -215.3 215.3C-239.5 191.6 -303.8 208.7 -340.3 196.5C-376.9 184.3 -385.6 142.6 -391.8 105C-398 67.3 -401.8 33.7 -405.6 0L0 0Z" fill="#00c3e3"></path><path d="M0 338C-25.9 326.1 -51.8 314.3 -82.8 309.1C-113.8 303.9 -149.9 305.5 -161.2 279.3C-172.6 253.1 -159.3 199.2 -179.4 179.4C-199.6 159.6 -253.2 173.9 -283.6 163.8C-314.1 153.6 -321.3 118.9 -326.5 87.5C-331.7 56.1 -334.9 28.1 -338 0L0 0Z" fill="#00b1ff"></path><path d="M0 270.4C-20.7 260.9 -41.5 251.4 -66.3 247.3C-91.1 243.1 -119.9 244.4 -129 223.4C-138.1 202.5 -127.4 159.4 -143.5 143.5C-159.7 127.7 -202.6 139.2 -226.9 131C-251.2 122.8 -257 95.1 -261.2 70C-265.4 44.9 -267.9 22.4 -270.4 0L0 0Z" fill="#009bff"></path><path d="M0 202.8C-15.5 195.7 -31.1 188.6 -49.7 185.5C-68.3 182.4 -89.9 183.3 -96.7 167.6C-103.6 151.9 -95.6 119.5 -107.7 107.7C-119.7 95.8 -151.9 104.4 -170.2 98.3C-188.4 92.1 -192.8 71.3 -195.9 52.5C-199 33.7 -200.9 16.8 -202.8 0L0 0Z" fill="#007cff"></path><path d="M0 135.2C-10.4 130.5 -20.7 125.7 -33.1 123.6C-45.5 121.6 -60 122.2 -64.5 111.7C-69 101.2 -63.7 79.7 -71.8 71.8C-79.8 63.9 -101.3 69.6 -113.4 65.5C-125.6 61.4 -128.5 47.5 -130.6 35C-132.7 22.4 -133.9 11.2 -135.2 0L0 0Z" fill="#0049ff"></path><path d="M0 67.6C-5.2 65.2 -10.4 62.9 -16.6 61.8C-22.8 60.8 -30 61.1 -32.2 55.9C-34.5 50.6 -31.9 39.8 -35.9 35.9C-39.9 31.9 -50.6 34.8 -56.7 32.8C-62.8 30.7 -64.3 23.8 -65.3 17.5C-66.3 11.2 -67 5.6 -67.6 0L0 0Z" fill="#6600ff"></path></g><g transform="translate(0, 600)"><path d="M0 -540.8C28.8 -470.5 57.5 -400.1 106.1 -396C154.7 -391.9 223.2 -454.2 259 -448.6C294.8 -443.1 297.9 -369.7 333.8 -333.8C369.6 -297.8 438.1 -299.1 468.4 -270.4C498.7 -241.8 490.8 -183.1 496.5 -133C502.2 -83 521.5 -41.5 540.8 0L0 0Z" fill="#00de81"></path><path d="M0 -473.2C25.2 -411.7 50.3 -350.1 92.9 -346.5C135.4 -343 195.3 -397.4 226.6 -392.5C258 -387.7 260.7 -323.5 292 -292C323.4 -260.5 383.3 -261.7 409.8 -236.6C436.3 -211.5 429.4 -160.2 434.4 -116.4C439.4 -72.6 456.3 -36.3 473.2 0L0 0Z" fill="#00d2ae"></path><path d="M0 -405.6C21.6 -352.9 43.1 -300.1 79.6 -297C116 -294 167.4 -340.6 194.2 -336.5C221.1 -332.3 223.5 -277.3 250.3 -250.3C277.2 -223.3 328.6 -224.3 351.3 -202.8C374 -181.3 368.1 -137.3 372.4 -99.8C376.6 -62.2 391.1 -31.1 405.6 0L0 0Z" fill="#00c3e3"></path><path d="M0 -338C18 -294 35.9 -250.1 66.3 -247.5C96.7 -245 139.5 -283.8 161.9 -280.4C184.3 -276.9 186.2 -231.1 208.6 -208.6C231 -186.1 273.8 -186.9 292.7 -169C311.7 -151.1 306.7 -114.4 310.3 -83.1C313.9 -51.9 325.9 -25.9 338 0L0 0Z" fill="#00b1ff"></path><path d="M0 -270.4C14.4 -235.2 28.8 -200.1 53.1 -198C77.4 -196 111.6 -227.1 129.5 -224.3C147.4 -221.5 149 -184.9 166.9 -166.9C184.8 -148.9 219 -149.5 234.2 -135.2C249.3 -120.9 245.4 -91.5 248.2 -66.5C251.1 -41.5 260.8 -20.7 270.4 0L0 0Z" fill="#009bff"></path><path d="M0 -202.8C10.8 -176.4 21.6 -150 39.8 -148.5C58 -147 83.7 -170.3 97.1 -168.2C110.6 -166.1 111.7 -138.7 125.2 -125.2C138.6 -111.7 164.3 -112.2 175.6 -101.4C187 -90.7 184 -68.7 186.2 -49.9C188.3 -31.1 195.6 -15.6 202.8 0L0 0Z" fill="#007cff"></path><path d="M0 -135.2C7.2 -117.6 14.4 -100 26.5 -99C38.7 -98 55.8 -113.5 64.7 -112.2C73.7 -110.8 74.5 -92.4 83.4 -83.4C92.4 -74.4 109.5 -74.8 117.1 -67.6C124.7 -60.4 122.7 -45.8 124.1 -33.3C125.5 -20.7 130.4 -10.4 135.2 0L0 0Z" fill="#0049ff"></path><path d="M0 -67.6C3.6 -58.8 7.2 -50 13.3 -49.5C19.3 -49 27.9 -56.8 32.4 -56.1C36.9 -55.4 37.2 -46.2 41.7 -41.7C46.2 -37.2 54.8 -37.4 58.5 -33.8C62.3 -30.2 61.3 -22.9 62.1 -16.6C62.8 -10.4 65.2 -5.2 67.6 0L0 0Z" fill="#6600ff"></path></g></svg>