<?xml version="1.0" encoding="UTF-8" standalone="no"?>
<!-- Created with Inkscape (http://www.inkscape.org/) -->

<svg
   width="210mm"
   height="187mm"
   viewBox="0 0 210 187"
   version="1.1"
   id="svg15605"
   inkscape:version="1.1 (c68e22c387, 2021-05-23)"
   sodipodi:docname="army1.svg"
   xmlns:inkscape="http://www.inkscape.org/namespaces/inkscape"
   xmlns:sodipodi="http://sodipodi.sourceforge.net/DTD/sodipodi-0.dtd"
   xmlns="http://www.w3.org/2000/svg"
   xmlns:svg="http://www.w3.org/2000/svg">
  <sodipodi:namedview
     id="namedview15607"
     pagecolor="#ffffff"
     bordercolor="#666666"
     borderopacity="1.0"
     inkscape:pageshadow="2"
     inkscape:pageopacity="0.0"
     inkscape:pagecheckerboard="0"
     inkscape:document-units="mm"
     showgrid="false"
     inkscape:zoom="0.67081229"
     inkscape:cx="263.11384"
     inkscape:cy="561.25984"
     inkscape:window-width="1920"
     inkscape:window-height="1009"
     inkscape:window-x="1912"
     inkscape:window-y="-8"
     inkscape:window-maximized="1"
     inkscape:current-layer="layer1"
     height="296mm" />
  <defs
     id="defs15602">
    <clipPath
       clipPathUnits="userSpaceOnUse"
       id="clipPath28785">
      <path
         d="M 43.3797,62.7765 H 87.5574 V 43.5291 H 43.3797 Z"
         id="path28783" />
    </clipPath>
    <clipPath
       clipPathUnits="userSpaceOnUse"
       id="clipPath28801">
      <path
         d="m 119.932,77.1392 h 66.01 V 35.6307 h -66.01 z"
         id="path28799" />
    </clipPath>
    <clipPath
       clipPathUnits="userSpaceOnUse"
       id="clipPath28877">
      <path
         d="m 111.992,78.0952 h 7.94 V 37.1121 h -7.94 z"
         id="path28875" />
    </clipPath>
    <clipPath
       clipPathUnits="userSpaceOnUse"
       id="clipPath28893">
      <path
         d="m 45.8039,116.471 h 8.0657 V 75.2533 h -8.0657 z"
         id="path28891" />
    </clipPath>
    <clipPath
       clipPathUnits="userSpaceOnUse"
       id="clipPath28909">
      <path
         d="M 24.0069,78.1566 H 53.7437 V 67.3015 H 24.0069 Z"
         id="path28907" />
    </clipPath>
    <clipPath
       clipPathUnits="userSpaceOnUse"
       id="clipPath28925">
      <path
         d="M 90.1953,40.4807 H 119.932 V 28.9263 H 90.1953 Z"
         id="path28923" />
    </clipPath>
    <clipPath
       clipPathUnits="userSpaceOnUse"
       id="clipPath28941">
      <path
         d="M 52.4113,179.651 H 91.9995 V 56.0665 H 52.4113 Z"
         id="path28939" />
    </clipPath>
  </defs>
  <g
     inkscape:label="Layer 1"
     inkscape:groupmode="layer"
     id="layer1">
    <g
       id="g34973"
       transform="matrix(3.5917452,0,0,2.9015609,94.468522,-623.57504)"
       inkscape:export-filename="C:\Users\Karmavir Joshi\g34973.png"
       inkscape:export-xdpi="96"
       inkscape:export-ydpi="96">
      <g
         id="g28779"
         transform="matrix(0.35277777,0,0,-0.35277777,-34.101833,284.39536)">
        <g
           id="g28781" />
        <g
           id="g28793">
          <g
             clip-path="url(#clipPath28785)"
             id="g28791">
            <g
               transform="translate(44.2705,43.5298)"
               id="g28789">
              <path
                 d="m 0,0 c 0,0 7.497,0.147 12.387,1.461 4.89,1.313 17.751,4.529 19.629,6.028 1.879,1.498 11.271,5.23 11.271,5.23 l -10.659,6.528 c 0,0 -22.479,-7.771 -22.527,-7.948 C 10.053,11.123 5.006,12.591 2.948,11.444 0.891,10.297 -2.518,-0.109 0,0"
                 style="fill:#aea28e;fill-opacity:1;fill-rule:nonzero;stroke:none"
                 id="path28787" />
            </g>
          </g>
        </g>
      </g>
      <g
         id="g28795"
         transform="matrix(0.35277777,0,0,-0.35277777,-34.101833,284.39536)">
        <g
           id="g28797" />
        <g
           id="g28809">
          <g
             clip-path="url(#clipPath28801)"
             id="g28807">
            <g
               transform="translate(119.9321,37.1123)"
               id="g28805">
              <path
                 d="M 0,0 65.738,-1.481 66.01,4.366 2.353,40.027 Z"
                 style="fill:#aea28e;fill-opacity:1;fill-rule:nonzero;stroke:none"
                 id="path28803" />
            </g>
          </g>
        </g>
      </g>
      <g
         id="g28811"
         transform="matrix(0.35277777,0,0,-0.35277777,10.464442,232.93475)">
        <path
           d="m 0,0 v -105.36 l -6.397,-3.4 V -3.4 Z"
           style="fill:#582714;fill-opacity:1;fill-rule:nonzero;stroke:none"
           id="path28813" />
      </g>
      <g
         id="g28815"
         transform="matrix(0.35277777,0,0,-0.35277777,8.2077226,234.13419)">
        <path
           d="m 0,0 -80.552,46.507 6.397,3.4 L 6.397,3.401 Z"
           style="fill:#d6b74d;fill-opacity:1;fill-rule:nonzero;stroke:none"
           id="path28817" />
      </g>
      <g
         id="g28819"
         transform="matrix(0.35277777,0,0,-0.35277777,8.2075458,234.13433)">
        <path
           d="m 0,0 v -105.36 l -80.552,46.506 V 46.507 Z"
           style="fill:#b17425;fill-opacity:1;fill-rule:nonzero;stroke:none"
           id="path28821" />
      </g>
      <g
         id="g28823"
         transform="matrix(0.35277777,0,0,-0.35277777,8.2072283,268.38927)">
        <path
           d="m 0,0 v -2.117 l -80.55,46.506 v 2.116 z"
           style="fill:#995820;fill-opacity:1;fill-rule:nonzero;stroke:none"
           id="path28825" />
      </g>
      <g
         id="g28827"
         transform="matrix(0.35277777,0,0,-0.35277777,8.2072283,263.80524)">
        <path
           d="m 0,0 v -2.117 l -80.55,46.506 v 2.116 z"
           style="fill:#995820;fill-opacity:1;fill-rule:nonzero;stroke:none"
           id="path28829" />
      </g>
      <g
         id="g28831"
         transform="matrix(0.35277777,0,0,-0.35277777,8.2072283,259.22117)">
        <path
           d="m 0,0 v -2.116 l -80.55,46.505 v 2.116 z"
           style="fill:#995820;fill-opacity:1;fill-rule:nonzero;stroke:none"
           id="path28833" />
      </g>
      <g
         id="g28835"
         transform="matrix(0.35277777,0,0,-0.35277777,8.2072283,254.63714)">
        <path
           d="m 0,0 v -2.116 l -80.55,46.505 v 2.116 z"
           style="fill:#995820;fill-opacity:1;fill-rule:nonzero;stroke:none"
           id="path28837" />
      </g>
      <g
         id="g28839"
         transform="matrix(0.35277777,0,0,-0.35277777,8.2072283,250.05311)">
        <path
           d="m 0,0 v -2.116 l -80.55,46.505 v 2.116 z"
           style="fill:#995820;fill-opacity:1;fill-rule:nonzero;stroke:none"
           id="path28841" />
      </g>
      <g
         id="g28843"
         transform="matrix(0.35277777,0,0,-0.35277777,8.2072283,245.46905)">
        <path
           d="m 0,0 v -2.116 l -80.55,46.505 v 2.116 z"
           style="fill:#995820;fill-opacity:1;fill-rule:nonzero;stroke:none"
           id="path28845" />
      </g>
      <g
         id="g28847"
         transform="matrix(0.35277777,0,0,-0.35277777,10.464442,232.93475)">
        <path
           d="m 0,0 v -2.116 l -80.55,46.505 v 2.116 z"
           style="fill:#995820;fill-opacity:1;fill-rule:nonzero;stroke:none"
           id="path28849" />
      </g>
      <g
         id="g28851"
         transform="matrix(0.35277777,0,0,-0.35277777,8.2077226,234.13419)">
        <path
           d="m 0,0 v -2.116 l -80.55,46.505 v 2.116 z"
           style="fill:#995820;fill-opacity:1;fill-rule:nonzero;stroke:none"
           id="path28853" />
      </g>
      <g
         id="g28855"
         transform="matrix(0.35277777,0,0,-0.35277777,-23.37813,259.48389)">
        <path
           d="m 0,0 18.443,36.867 v 8.988 L -6.391,-3.313 Z"
           style="fill:#653116;fill-opacity:1;fill-rule:nonzero;stroke:none"
           id="path28857" />
      </g>
      <g
         id="g28859"
         transform="matrix(0.35277777,0,0,-0.35277777,-26.335572,260.23523)">
        <path
           d="m 0,0 1.992,-1.184 24.834,49.169 -1.992,1.184 z"
           style="fill:#d6b74d;fill-opacity:1;fill-rule:nonzero;stroke:none"
           id="path28861" />
      </g>
      <g
         id="g28863"
         transform="matrix(0.35277777,0,0,-0.35277777,-0.0282982,273.02191)">
        <path
           d="m 0,0 18.443,36.867 v 8.988 L -6.391,-3.313 Z"
           style="fill:#653116;fill-opacity:1;fill-rule:nonzero;stroke:none"
           id="path28865" />
      </g>
      <g
         id="g28867"
         transform="matrix(0.35277777,0,0,-0.35277777,-2.9857401,273.77326)">
        <path
           d="m 0,0 1.992,-1.184 24.834,49.169 -1.992,1.184 z"
           style="fill:#d6b74d;fill-opacity:1;fill-rule:nonzero;stroke:none"
           id="path28869" />
      </g>
      <g
         id="g28871"
         transform="matrix(0.35277777,0,0,-0.35277777,-34.101833,284.39536)">
        <g
           id="g28873" />
        <g
           id="g28885">
          <g
             clip-path="url(#clipPath28877)"
             id="g28883">
            <g
               transform="translate(115.0293,78.0952)"
               id="g28881">
              <path
                 d="m 0,0 4.903,-40.983 -5.835,3.369 -2.105,22.555 L 0,-8.988 Z"
                 style="fill:#744667;fill-opacity:1;fill-rule:nonzero;stroke:none"
                 id="path28879" />
            </g>
          </g>
        </g>
      </g>
      <g
         id="g28887"
         transform="matrix(0.35277777,0,0,-0.35277777,-34.101833,284.39536)">
        <g
           id="g28889" />
        <g
           id="g28901">
          <g
             clip-path="url(#clipPath28893)"
             id="g28899">
            <g
               transform="translate(48.8408,116.4707)"
               id="g28897">
              <path
                 d="M 0,0 5.029,-41.217 0,-38.314 -3.037,-15.06 0,-8.988 Z"
                 style="fill:#744667;fill-opacity:1;fill-rule:nonzero;stroke:none"
                 id="path28895" />
            </g>
          </g>
        </g>
      </g>
      <g
         id="g28903"
         transform="matrix(0.35277777,0,0,-0.35277777,-34.101833,284.39536)">
        <g
           id="g28905" />
        <g
           id="g28917">
          <g
             clip-path="url(#clipPath28909)"
             id="g28915">
            <g
               transform="translate(24.0068,67.3018)"
               id="g28913">
              <path
                 d="M 0,0 29.737,8.186 24.834,10.855 7.697,5.925 6.391,3.313 Z"
                 style="fill:#aea28e;fill-opacity:1;fill-rule:nonzero;stroke:none"
                 id="path28911" />
            </g>
          </g>
        </g>
      </g>
      <g
         id="g28919"
         transform="matrix(0.35277777,0,0,-0.35277777,-34.101833,284.39536)">
        <g
           id="g28921" />
        <g
           id="g28933">
          <g
             clip-path="url(#clipPath28925)"
             id="g28931">
            <g
               transform="translate(90.1953,28.9263)"
               id="g28929">
              <path
                 d="M 0,0 29.737,8.186 23.902,11.555 7.698,5.925 6.391,3.313 Z"
                 style="fill:#aea28e;fill-opacity:1;fill-rule:nonzero;stroke:none"
                 id="path28927" />
            </g>
          </g>
        </g>
      </g>
      <g
         id="g28935"
         transform="matrix(0.35277777,0,0,-0.35277777,-34.101833,284.39536)">
        <g
           id="g28937" />
        <g
           id="g28949">
          <g
             clip-path="url(#clipPath28941)"
             id="g28947">
            <g
               transform="translate(76.0117,62.4697)"
               id="g28945">
              <path
                 d="m 0,0 c 0,0 -1.893,20.825 -3.048,24.293 -1.157,3.468 -4.769,16.473 -4.769,16.473 0,0 -4.335,-16.11 -6.647,-18.929 -2.312,-2.819 -4.244,-1.029 -4.89,-0.506 -0.646,0.523 -4.274,6.621 -4.246,11.431 0.028,4.81 4.079,18.552 4.946,19.708 0.867,1.156 -0.7,21.964 -0.7,21.964 l -0.855,22.252 -1.288,14.943 c 0,0 2.12,6.661 2.754,5.392 0.635,-1.27 4.135,-1.406 4.135,-3.429 0,-2.023 2.095,-23.697 2.095,-23.697 0,0 4.276,0.964 6.502,0.461 3.829,-0.864 4.841,-7.946 4.118,-8.972 -0.722,-1.026 -4.551,-10.78 -4.551,-10.78 0,0 12.45,11.777 12.619,13.655 0.169,1.879 2.481,13.294 2.481,13.294 l 7.332,-1.201 -1.804,-9.24 c 0,0 -3.072,-15.424 -5.817,-19.47 -2.746,-4.046 -7.48,-17.628 -7.48,-17.628 0,0 6.468,-21.817 7.046,-27.092 0.578,-5.276 3.157,-29.325 3.157,-29.325 z"
                 style="fill:#975984;fill-opacity:1;fill-rule:nonzero;stroke:none"
                 id="path28943" />
            </g>
          </g>
        </g>
      </g>
      <g
         id="g28951"
         transform="matrix(0.35277777,0,0,-0.35277777,-18.832482,265.15828)">
        <path
           d="m 0,0 c 0,0 4.137,1.787 6.018,0.706 1.88,-1.082 1.645,-2.633 1.551,-4.043 -0.094,-1.411 -3.385,-4.748 -3.385,-4.748 0,0 -0.799,-2.868 -3.197,-2.915 -2.397,-0.047 -2.679,0.611 -3.338,1.692 -0.658,1.081 0.283,3.197 0.283,4.466 0,1.269 0.376,3.587 0.376,3.587 z"
           style="fill:#412114;fill-opacity:1;fill-rule:nonzero;stroke:none"
           id="path28953" />
      </g>
      <g
         id="g28955"
         transform="matrix(0.35277777,0,0,-0.35277777,-14.423536,225.7686)">
        <path
           d="m 0,0 c 0,0 -0.886,1.692 -2.625,1.928 -1.74,0.235 -2.257,-0.282 -2.257,-0.282 0,0 -3.573,-7.475 -4.466,-10.296 -0.893,-2.82 -1.692,-4.56 -2.069,-6.487 -0.375,-1.928 -1.269,-4.513 -1.41,-9.261 -0.141,-4.748 0.471,-7.757 0.705,-8.227 0.236,-0.47 3.95,1.081 6.441,3.854 2.492,2.774 1.551,11.283 1.551,11.283 l 0.094,6.582 c 0,0 4.405,9.902 4.036,10.906"
           style="fill:#9b9a49;fill-opacity:1;fill-rule:nonzero;stroke:none"
           id="path28957" />
      </g>
      <g
         id="g28959"
         transform="matrix(0.35277777,0,0,-0.35277777,-13.691381,253.42705)">
        <path
           d="m 0,0 c 0,0 1.869,-1.234 1.869,-2.186 0,-0.952 -0.036,-2.08 -0.494,-2.327 C 0.917,-4.76 -0.67,-5.782 -2.997,-5.676 -5.324,-5.571 -5.817,-0.105 -4.442,0.67 -3.067,1.446 0,0 0,0"
           style="fill:#744831;fill-opacity:1;fill-rule:nonzero;stroke:none"
           id="path28961" />
      </g>
      <g
         id="g28963"
         transform="matrix(0.35277777,0,0,-0.35277777,-18.832482,264.64203)">
        <path
           d="m 0,0 c 0,0 4.137,1.786 6.018,0.705 1.88,-1.081 1.645,-2.633 1.551,-4.043 -0.094,-1.411 -3.385,-4.748 -3.385,-4.748 0,0 -0.799,-2.868 -3.197,-2.914 -2.397,-0.048 -2.679,0.61 -3.338,1.692 -0.658,1.081 0.283,3.196 0.283,4.466 0,1.269 0.376,3.586 0.376,3.586 z"
           style="fill:#d2892a;fill-opacity:1;fill-rule:nonzero;stroke:none"
           id="path28965" />
      </g>
      <g
         id="g28967"
         transform="matrix(0.35277777,0,0,-0.35277777,-20.320922,245.40428)">
        <path
           d="m 0,0 c 0,0 -1.445,-2.045 -1.269,-6.629 0.176,-4.583 0.987,-6.663 3.385,-8.885 2.397,-2.221 6.663,-2.962 6.946,-5.288 0.281,-2.327 1.974,-5.924 1.974,-5.924 l 6.558,5.924 -1.763,15.443 z"
           style="fill:#65652d;fill-opacity:1;fill-rule:nonzero;stroke:none"
           id="path28969" />
      </g>
      <g
         id="g28971"
         transform="matrix(0.35277777,0,0,-0.35277777,-14.114256,248.28937)">
        <path
           d="m 0,0 c 0,0 3.808,-1.342 3.808,-4.162 0,-2.821 -0.57,-7.334 -1.061,-8.956 -0.491,-1.622 -2.183,-3.384 -2.183,-3.384 z"
           style="fill:#5b5923;fill-opacity:1;fill-rule:nonzero;stroke:none"
           id="path28973" />
      </g>
      <g
         id="g28975"
         transform="matrix(0.35277777,0,0,-0.35277777,-18.442663,247.64325)">
        <path
           d="m 0,0 c 0,0 -2.116,-2.539 -0.635,-8.532 1.481,-5.994 3.103,-7.898 3.103,-7.898 0,0 -0.282,-9.591 -0.423,-11.212 -0.141,-1.622 -3.667,-13.962 -4.09,-16.501 -0.423,-2.539 -0.987,-6.417 -0.847,-7.404 0.142,-0.987 2.539,-1.481 4.655,-1.481 2.115,0 2.186,1.199 2.186,1.199 0,0 4.442,11.071 5.429,15.795 0.988,4.725 4.231,18.123 4.514,18.899 0.281,0.775 1.41,14.738 1.057,15.725 C 14.597,-0.423 0,0 0,0"
           style="fill:#727134;fill-opacity:1;fill-rule:nonzero;stroke:none"
           id="path28977" />
      </g>
      <g
         id="g28979"
         transform="matrix(0.35277777,0,0,-0.35277777,-13.608443,222.74191)">
        <path
           d="m 0,0 c 0,0 0.799,1.293 0.799,1.692 0,0.4 0.283,1.622 0.353,1.716 0.071,0.094 0.94,0.846 1.034,-0.164 0.094,-1.011 0.118,-1.74 0,-2.186 C 2.069,0.611 1.49,-1.246 1.133,-1.763 0.776,-2.28 -0.611,-3.855 -1.128,-4.537 c -0.517,-0.681 -2.045,-4.136 -2.209,-4.465 -0.165,-0.33 -3.55,1.433 -3.55,1.433 0,0 1.81,3.761 1.951,4.231 0.141,0.47 -0.329,2.727 -0.47,4.161 -0.141,1.433 -0.141,2.256 0,2.585 0.141,0.329 0.987,1.293 1.246,1.317 0.258,0.023 0.517,0 0.517,0 0,0 0.306,0.517 0.682,0.517 0.376,0 1.105,-0.376 1.105,-0.376 l 1.034,-0.141 c 0,0 0.799,-0.329 0.634,-1.27 C -0.353,2.515 -0.541,1.904 -0.587,1.81 -0.634,1.716 -0.658,0.587 0,0"
           style="fill:#d1a070;fill-opacity:1;fill-rule:nonzero;stroke:none"
           id="path28981" />
      </g>
      <g
         id="g28983"
         transform="matrix(0.35277777,0,0,-0.35277777,-4.0269284,227.67233)">
        <path
           d="M 0,0 C 0,0 0.486,1.865 0.545,1.995 0.605,2.125 0.899,3.555 0.473,3.599 0.046,3.643 -0.33,3.696 -0.478,3.152 -0.627,2.608 -1.205,1.475 -1.339,1.073 c -0.135,-0.402 -0.119,-2.039 -0.07,-2.662 0.049,-0.622 0.643,-2.369 0.482,-2.958 -0.161,-0.59 -1.81,-5.817 -2.119,-6.414 -0.31,-0.598 3.4,-2.27 4.076,-1.579 0.677,0.693 2.189,5.689 2.189,5.689 l 2.503,3.093 1.026,1.79 1.096,1.334 -0.67,1.206 c 0,0 0.352,0.928 -0.079,1.045 -0.431,0.118 -0.979,0.609 -0.979,0.609 0,0 -0.372,0.955 -0.793,1.021 C 4.902,3.313 4.671,3.182 4.671,3.182 c 0,0 -1.023,0.625 -1.275,0.594 C 3.145,3.746 2.4,3.072 1.993,2.477 1.586,1.881 0.623,0.317 0,0"
           style="fill:#d1a070;fill-opacity:1;fill-rule:nonzero;stroke:none"
           id="path28985" />
      </g>
      <g
         id="g28987"
         transform="matrix(0.35277777,0,0,-0.35277777,-11.999741,235.7399)">
        <path
           d="M 0,0 C 0,0 -0.035,2.362 0.282,2.962 0.6,3.561 1.481,3.597 1.763,4.09 2.045,4.583 3.968,9.238 3.588,12.094 3.208,14.95 0,15.161 -2.644,14.738 -5.289,14.315 -6.946,7.898 -7.051,5.5 -7.157,3.103 -7.58,0.776 -7.58,0.776 Z"
           style="fill:#eaba8a;fill-opacity:1;fill-rule:nonzero;stroke:none"
           id="path28989" />
      </g>
      <g
         id="g28991"
         transform="matrix(0.35277777,0,0,-0.35277777,-9.1867266,238.90407)">
        <path
           d="m 0,0 c 0,0 -3.602,-6.297 -5.012,-11.28 -1.41,-4.984 -4.933,-15.324 -4.933,-15.324 0,0 -2.119,-3.668 -12.931,-1.788 -10.812,1.88 -9.59,10.248 -9.59,10.248 0,0 2.256,6.957 3.196,9.873 0.988,3.06 1.249,6.453 1.663,9.627 0.438,3.351 0.547,7.251 2.747,10.017 1.003,1.26 2.693,3.148 4.451,3.125 1.204,-0.017 2.351,-0.917 3.322,-1.544 1.72,-1.111 3.826,-2.89 6.01,-2.715 0.88,0.07 3.198,-0.07 3.454,-0.316 0.203,-0.195 1.224,-0.061 1.525,-0.118 0.627,-0.12 1.233,-0.353 1.776,-0.69 C -3.848,8.821 -3.424,8.454 -3.003,8.088 -1.647,6.91 -1.436,4.884 -0.945,3.219 -0.628,2.146 -0.313,1.074 0,0"
           style="fill:#8d8d44;fill-opacity:1;fill-rule:nonzero;stroke:none"
           id="path28993" />
      </g>
      <g
         id="g28995"
         transform="matrix(0.35277777,0,0,-0.35277777,-11.614084,233.53832)">
        <path
           d="m 0,0 -2.08,-3.138 c 0,0 -0.741,-0.776 -3.209,-0.634 -2.468,0.141 -3.525,0.564 -4.266,1.375 -0.74,0.811 -1.693,3.032 -1.728,4.336 -0.035,1.305 -0.458,5.324 2.257,8.145 2.715,2.82 6.029,2.609 7.651,1.904 C 0.247,11.283 2.381,10.225 2.495,6.981 2.609,3.737 1.763,1.41 1.763,1.41 1.763,1.41 1.199,2.221 0.74,1.587 0.282,0.952 0,0 0,0"
           style="fill:#35211d;fill-opacity:1;fill-rule:nonzero;stroke:none"
           id="path28997" />
      </g>
      <g
         id="g28999"
         transform="matrix(0.35277777,0,0,-0.35277777,-2.9158894,230.83806)">
        <path
           d="m 0,0 c 0,0 -0.893,0.867 -1.583,1.164 0,0 -2.473,1.115 -3.033,1.024 -0.561,-0.09 -1.614,-2.872 -1.614,-2.872 -0.791,-1.381 -1.587,-2.759 -2.387,-4.135 -0.585,-1.008 -1.172,-2.015 -1.769,-3.016 -0.455,-0.764 -0.885,-1.866 -1.532,-2.446 -0.608,-0.545 -1.373,-0.901 -2.094,-1.267 -2.375,-1.206 -4.551,-2.92 -6.986,-3.966 -2.183,-0.937 -2.137,-4.118 -1.889,-6.131 0.256,-2.067 0.754,-4.342 3.308,-4.387 1.038,-0.018 1.996,0.831 2.873,1.321 1.199,0.669 2.374,1.378 3.526,2.125 1.097,0.722 2.289,1.5 3.292,2.334 0.845,0.702 1.651,1.452 2.406,2.251 0.713,0.756 1.64,1.615 1.987,2.613 0.417,1.201 1.045,2.309 1.495,3.499 0.357,0.939 0.823,1.83 1.242,2.742 0.409,0.892 0.592,1.817 0.962,2.704 C -0.933,-4.369 -0.523,-2.174 0,0"
           style="fill:#9b9a49;fill-opacity:1;fill-rule:nonzero;stroke:none"
           id="path29001" />
      </g>
      <g
         id="g29003"
         transform="matrix(0.35277777,0,0,-0.35277777,-11.978927,235.09672)">
        <path
           d="m 0,0 c 0,0 -2.94,-0.046 -4.121,0.057 -1.18,0.103 -3.236,0.799 -3.236,0.799 l -0.67,-0.387 c 0,0 -0.611,-0.617 0.493,-1.284 1.104,-0.668 3.054,-1.207 4.8,-1.232 1.745,-0.026 3.875,0.224 3.875,0.224 l 0.641,1.088 z"
           style="fill:#babc67;fill-opacity:1;fill-rule:nonzero;stroke:none"
           id="path29005" />
      </g>
      <g
         id="g29007"
         transform="matrix(0.35277777,0,0,-0.35277777,-4.6575534,229.94782)">
        <path
           d="M 0,0 C 0,0 0.784,0.055 2.424,-0.39 4.876,-1.056 5.38,-2.381 5.38,-2.381 L 4.603,-4.758 c 0,0 -1.051,1.102 -3.028,1.846 -1.163,0.438 -2.721,0.431 -2.721,0.431 z"
           style="fill:#babc67;fill-opacity:1;fill-rule:nonzero;stroke:none"
           id="path29009" />
      </g>
      <g
         id="g29011"
         transform="matrix(0.35277777,0,0,-0.35277777,-16.167281,224.90335)">
        <path
           d="m 0,0 c 0,0 0.785,0.028 2.409,-0.474 2.428,-0.75 2.885,-2.091 2.885,-2.091 L 4.436,-4.914 c 0,0 -1.013,1.137 -2.962,1.949 -1.148,0.478 -2.704,0.525 -2.704,0.525 z"
           style="fill:#babc67;fill-opacity:1;fill-rule:nonzero;stroke:none"
           id="path29013" />
      </g>
    </g>
  </g>
</svg>
