<svg xmlns="http://www.w3.org/2000/svg" xmlns:svg="http://www.w3.org/2000/svg" id="svg15605" width="210mm" height="191mm" version="1.1" viewBox="0 0 210 191"><defs id="defs15602"><clipPath id="clipPath28785" clipPathUnits="userSpaceOnUse"><path id="path28783" d="M 43.3797,62.7765 H 87.5574 V 43.5291 H 43.3797 Z"/></clipPath><clipPath id="clipPath28801" clipPathUnits="userSpaceOnUse"><path id="path28799" d="m 119.932,77.1392 h 66.01 V 35.6307 h -66.01 z"/></clipPath><clipPath id="clipPath28877" clipPathUnits="userSpaceOnUse"><path id="path28875" d="m 111.992,78.0952 h 7.94 V 37.1121 h -7.94 z"/></clipPath><clipPath id="clipPath28893" clipPathUnits="userSpaceOnUse"><path id="path28891" d="m 45.8039,116.471 h 8.0657 V 75.2533 h -8.0657 z"/></clipPath><clipPath id="clipPath28909" clipPathUnits="userSpaceOnUse"><path id="path28907" d="M 24.0069,78.1566 H 53.7437 V 67.3015 H 24.0069 Z"/></clipPath><clipPath id="clipPath28925" clipPathUnits="userSpaceOnUse"><path id="path28923" d="M 90.1953,40.4807 H 119.932 V 28.9263 H 90.1953 Z"/></clipPath><clipPath id="clipPath28941" clipPathUnits="userSpaceOnUse"><path id="path28939" d="M 52.4113,179.651 H 91.9995 V 56.0665 H 52.4113 Z"/></clipPath><clipPath id="clipPath29021" clipPathUnits="userSpaceOnUse"><path id="path29019" d="M 44.8959,234.584 H 214.582 v -96.77 H 44.8959 Z"/></clipPath><clipPath id="clipPath39961" clipPathUnits="userSpaceOnUse"><path id="path39959" d="M 0,306 H 1009 V 0 H 0 Z"/></clipPath><clipPath id="clipPath39973" clipPathUnits="userSpaceOnUse"><path id="path39971" d="M 378.489,81.1556 H 427.52 V 46.9722 h -49.031 z"/></clipPath><clipPath id="clipPath39989" clipPathUnits="userSpaceOnUse"><path id="path39987" d="m 378.489,110.169 h 71.065 v -57.42 h -71.065 z"/></clipPath><clipPath id="clipPath40005" clipPathUnits="userSpaceOnUse"><path id="path40003" d="m 384.666,160.289 h 85.202 V 72.6065 h -85.202 z"/></clipPath><clipPath id="clipPath40061" clipPathUnits="userSpaceOnUse"><path id="path40059" d="m 284.906,52.7322 h 11.358 V 40.5777 h -11.358 z"/></clipPath><clipPath id="clipPath40109" clipPathUnits="userSpaceOnUse"><path id="path40107" d="m 323.084,44.5654 h 7.56 V 30.9102 h -7.56 z"/></clipPath><clipPath id="clipPath40161" clipPathUnits="userSpaceOnUse"><path id="path40159" d="m 290.962,190.584 h 37.826 v -55.945 h -37.826 z"/></clipPath><clipPath id="clipPath40229" clipPathUnits="userSpaceOnUse"><path id="path40227" d="m 309.489,214.944 h 23.7 v -6.641 h -23.7 z"/></clipPath><clipPath id="clipPath40249" clipPathUnits="userSpaceOnUse"><path id="path40247" d="m 309.489,213.847 h 23.687 v -5.544 h -23.687 z"/></clipPath><clipPath id="clipPath40305" clipPathUnits="userSpaceOnUse"><path id="path40303" d="m 349.971,169.424 h 9.322 v -51.46 h -9.322 z"/></clipPath><clipPath id="clipPath40321" clipPathUnits="userSpaceOnUse"><path id="path40319" d="m 351.994,157.599 h 6.451 v -10.005 h -6.451 z"/></clipPath><clipPath id="clipPath40337" clipPathUnits="userSpaceOnUse"><path id="path40335" d="m 351.994,138.912 h 6.869 v -10.289 h -6.869 z"/></clipPath><clipPath id="clipPath40361" clipPathUnits="userSpaceOnUse"><path id="path40359" d="m 298.869,176.264 h 3.876 v -4.931 h -3.876 z"/></clipPath><clipPath id="clipPath40393" clipPathUnits="userSpaceOnUse"><path id="path40391" d="m 364.451,135.376 h 4.584 v -2.241 h -4.584 z"/></clipPath></defs><g id="layer1"><g id="g6294" transform="matrix(3.3507673,0,0,3.4731987,-82.54692,-128.2772)"><g id="g2834" transform="matrix(0.35277777,0,0,-0.35277777,60.827391,43.598995)"><path style="fill:#db7a37;fill-opacity:1;fill-rule:nonzero;stroke:none" id="path2836" d="M 0,0 C 0,0 0.85,1.167 0.877,1.705 0.904,2.243 1.438,3.982 2.117,4.558 2.796,5.132 3.431,6.554 3.508,6.82 3.585,7.087 4.049,6.805 4.089,6.273 4.128,5.742 2.977,4.31 3.171,4.093 3.365,3.876 7.266,7.11 7.575,6.898 8.044,6.578 5.271,4.431 5.386,4.24 5.631,3.832 8.355,6.208 8.699,5.9 9.143,5.504 5.944,3.357 6.087,3.188 6.231,3.018 9.236,4.478 9.457,4.077 9.733,3.577 6.478,2.481 6.605,2.203 6.684,2.035 8.746,2.389 8.766,2.014 8.778,1.793 6.574,1.313 6.218,1.191 5.862,1.069 3.203,-0.468 2.83,-0.315 2.457,-0.163 2.03,-1.42 2.03,-1.42 Z"/></g><g id="g2838" transform="matrix(0.35277777,0,0,-0.35277777,46.116982,59.934264)"><path style="fill:#8d431c;fill-opacity:1;fill-rule:nonzero;stroke:none" id="path2840" d="m 0,0 c -0.79,-0.986 -2.229,-1.146 -3.216,-0.356 -0.987,0.79 -1.146,2.229 -0.356,3.215 0.789,0.987 3.087,2.657 4.073,1.867 C 1.488,3.937 0.79,0.986 0,0"/></g><g id="g2842" transform="matrix(0.35277777,0,0,-0.35277777,51.133587,45.378724)"><path style="fill:#8d431c;fill-opacity:1;fill-rule:nonzero;stroke:none" id="path2844" d="M 0,0 -0.445,-4.937 5.934,-2.266 4.458,5.557 Z"/></g><g id="g2846" transform="matrix(0.35277777,0,0,-0.35277777,49.643207,47.304185)"><path style="fill:#741a18;fill-opacity:1;fill-rule:nonzero;stroke:none" id="path2848" d="M 0,0 C 0,0 -2.982,-15.861 -4.322,-17.813 -9.991,-26.075 -11.54,-31.5 -11.54,-31.5 l 2.185,-2.265 c 0,0 8.674,9.406 8.96,10.168 0.286,0.763 5.529,16.449 3.813,19.076 C 1.703,-1.895 0,0 0,0"/></g><g id="g2850" transform="matrix(0.35277777,0,0,-0.35277777,25.252999,68.593512)"><path style="fill:#110f0d;fill-opacity:1;fill-rule:nonzero;stroke:none" id="path2852" d="m 0,0 c 0,0 1.123,-3.997 2.229,-4.477 1.106,-0.48 16.573,-0.888 19.511,-2.295 2.938,-1.408 16.003,-20.36 27.783,-23.504 11.781,-3.145 29.242,-0.475 37.112,6.296 7.87,6.769 27.269,27.068 29.537,31.079 2.267,4.01 14.36,6.58 18.516,8.127 4.156,1.547 15.26,9.281 16.226,9.386 0.966,0.107 11.882,-6.232 14.68,-7.053 2.181,-0.64 6.562,-0.828 8.39,-0.878 0.385,-0.011 0.645,0.386 0.485,0.736 l -2.173,4.722 c -0.415,0.903 -1.317,1.478 -2.312,1.466 -1.832,-0.021 -4.639,0.02 -5.234,0.453 -0.899,0.653 -13.529,11.528 -16.188,11.762 -2.658,0.236 -10.601,7.826 -12.405,11.239 -1.804,3.413 -3.615,8.931 -8.122,9.903 -4.508,0.972 -13.378,0.224 -16.735,-3.117 C 107.943,50.505 87.526,32.541 82.214,30.904 76.902,29.268 50.791,25.307 47.635,24.245 44.479,23.185 35.318,14.806 34.196,15.096 33.073,15.387 27.526,17.598 23.627,16.794 19.729,15.989 15.813,14.995 14.903,13.353 13.992,11.711 14.205,9.778 7.306,7.516 1.929,5.752 -1.938,4.694 0,0"/></g><g id="g2854" transform="matrix(0.35277777,0,0,-0.35277777,66.128019,48.874822)"><path style="fill:#110f0d;fill-opacity:1;fill-rule:nonzero;stroke:none" id="path2856" d="m 0,0 c 0,0 8.961,-7.006 13.552,-7.028 4.592,-0.023 9.574,2.216 10.769,0.581 1.196,-1.637 11.262,-9.032 12.591,-9.15 0.777,-0.068 2.426,0.113 3.662,0.276 0.958,0.126 1.902,-0.294 2.447,-1.092 l 2.966,-4.336 c 0.313,-0.457 -0.029,-1.074 -0.581,-1.036 -2.393,0.164 -7.399,0.606 -10.158,1.56 -3.715,1.286 -11.423,5.777 -13.792,5.986 -2.37,0.209 -11.565,-7.626 -11.565,-7.626 0,0 -12.627,12.445 -12.085,16.417 C -1.652,-1.477 0,0 0,0"/></g><g id="g2858" transform="matrix(0.35277777,0,0,-0.35277777,45.781455,77.464991)"><path style="fill:#110f0d;fill-opacity:1;fill-rule:nonzero;stroke:none" id="path2860" d="m 0,0 c 0,0 -1.649,-12.813 -1.459,-16.523 0.191,-3.71 -3.001,-14.555 -3.001,-14.555 l -2.29,-4.907 c -0.177,-0.378 0.099,-0.812 0.517,-0.812 h 5.251 c 0.925,0 1.745,0.588 2.034,1.467 1.586,4.82 6.718,19.943 9.119,21.309 2.86,1.628 11.439,16.309 11.439,16.309 z"/></g><g id="g2862" transform="matrix(0.35277777,0,0,-0.35277777,49.684906,77.924554)"><path style="fill:#110f0d;fill-opacity:1;fill-rule:nonzero;stroke:none" id="path2864" d="m 0,0 c 0,0 -2.419,-13.29 -2.229,-17 0.191,-3.71 -0.381,-14.235 -0.381,-14.235 l -1.48,-5.498 c -0.151,-0.561 0.271,-1.112 0.851,-1.112 h 4.695 c 0.744,0 1.389,0.501 1.562,1.225 0.935,3.914 3.986,16.357 6.918,24.704 2.016,5.741 3.12,5.829 6.437,11.947 2.865,5.285 7.888,10.368 7.888,10.368 z"/></g><g id="g2866" transform="matrix(0.35277777,0,0,-0.35277777,44.679695,59.503628)"><path style="fill:#553315;fill-opacity:1;fill-rule:nonzero;stroke:none" id="path2868" d="m 0,0 c 0,0 18.661,-17.232 21.538,-24.096 2.877,-6.863 11.199,-24.62 11.199,-24.62 l 3.831,3.572 c 0,0 -5.693,13.93 -10.448,23.082 C 21.365,-12.911 6.113,1.324 6.113,1.324 Z"/></g><g id="g2870" transform="matrix(0.35277777,0,0,-0.35277777,54.325979,46.524899)"><path style="fill:#ec1d27;fill-opacity:1;fill-rule:nonzero;stroke:none" id="path2872" d="m 0,0 -2.63,1.146 c 0,0 -7.522,-2.5 -8.49,-3.262 -0.968,-0.761 -2.839,-1.324 -1.797,-12.759 0.333,-3.638 -1.33,-9.866 -1.33,-9.866 0,0 8.038,-1.376 10.117,-2.23 2.079,-0.853 4.084,-1.885 4.084,-1.885 0,0 0.461,3.32 0.332,12.503 -0.064,4.507 2.463,7.535 2.345,9.557 C 2.368,-2.245 0,0 0,0"/></g><g id="g2874" transform="matrix(0.35277777,0,0,-0.35277777,52.899522,46.149049)"><path style="fill:#ec1d27;fill-opacity:1;fill-rule:nonzero;stroke:none" id="path2876" d="M 0,0 C 4.437,0.612 11.698,0.683 11.698,0.683 L 23.471,9.341 25.7,6.895 c 0,0 -7.159,-9.049 -8.986,-10.334 C 14.883,-4.729 6.282,-8.482 5.57,-9.474 4.857,-10.465 -0.953,-8.854 -1.432,-6.971 -1.911,-5.086 -2.174,-0.301 0,0"/></g><g id="g2878" transform="matrix(0.35277777,0,0,-0.35277777,39.797321,69.509217)"><path style="fill:#553315;fill-opacity:1;fill-rule:nonzero;stroke:none" id="path2880" d="m 0,0 c -0.782,-1.034 6.065,-6.054 9.824,-6.209 0.626,-0.026 2.232,0.636 2.676,0.155 0.285,-0.308 -0.368,-1.609 -0.368,-1.609 l 2.984,-1.409 c 0,0 3.525,2.532 3.62,5.04 0.115,3.023 0.164,3.763 0.164,3.763 l -6.449,2.267 c 0,0 -1.281,-2.114 -2.907,-2.306 C 6.065,-0.718 0.87,1.151 0,0"/></g><g id="g2882" transform="matrix(0.35277777,0,0,-0.35277777,54.365596,56.058189)"><path style="fill:#244d9b;fill-opacity:1;fill-rule:nonzero;stroke:none" id="path2884" d="m 0,0 c 0,0 1.281,-5.738 -6.982,-8.384 -4.666,-1.493 -9.447,-7.077 -9.532,-8.056 -0.221,-2.559 0.302,-4.456 -1.143,-9.608 -2.463,-8.776 -4.576,-13.223 -4.576,-13.223 0,0 -1.293,0 -4.449,0.576 -2.398,0.438 -3.813,1.338 -3.813,1.338 0,0 2.854,22.388 3.478,24.15 0.624,1.762 12.658,15.489 12.658,15.489 0,0 2.511,1.281 5.186,1.192 C -1.897,3.23 0,0 0,0"/></g><g id="g2886" transform="matrix(0.35277777,0,0,-0.35277777,33.58822,62.668962)"><path style="fill:#553315;fill-opacity:1;fill-rule:nonzero;stroke:none" id="path2888" d="M 0,0 C 0,0 3.033,1.838 3.681,4.843 4.329,7.848 1.592,11.534 2.687,12.012 3.781,12.489 6.898,8.77 7.373,5.474 7.848,2.179 6.15,-1.883 5.53,-2.402 4.91,-2.922 1.458,-3 0,0"/></g><g id="g2890" transform="matrix(0.35277777,0,0,-0.35277777,66.128019,48.874822)"><path style="fill:#110f0d;fill-opacity:1;fill-rule:nonzero;stroke:none" id="path2892" d="m 0,0 c 0,0 4.544,3.654 5.835,5.338 1.29,1.683 5.163,7.707 2.796,12.869 -2.366,5.163 -4.869,7.314 -3.94,7.53 0.929,0.215 5.876,-5.514 6.952,-8.996 C 12.719,13.26 10.137,2.959 7.771,1.226 5.405,-0.508 0,0 0,0"/></g><g id="g2894" transform="matrix(0.35277777,0,0,-0.35277777,50.530337,45.861747)"><path style="fill:#244d9b;fill-opacity:1;fill-rule:nonzero;stroke:none" id="path2896" d="m 0,0 c 0,0 -2.562,-3.191 -2.515,-4.089 0.047,-0.897 -0.012,-6.025 -0.012,-6.025 0,0 5.125,4.703 5.982,5.009 0.857,0.305 5.756,3.436 6.057,5.132 0.302,1.696 -2.418,1.992 -2.418,1.992 0,0 1.054,-1.71 -3.366,-2.683 C 1.226,-1.214 0,0 0,0"/></g><g id="g2898" transform="matrix(0.35277777,0,0,-0.35277777,52.666477,43.455661)"><path style="fill:#db7a37;fill-opacity:1;fill-rule:nonzero;stroke:none" id="path2900" d="m 0,0 c 0.786,-3.128 -2.73,-7.981 -4.417,-8.384 -1.875,-0.448 -3.611,2.167 -4.684,5.558 -0.972,3.076 0.764,6.214 3.461,6.891 C -2.942,4.743 -0.786,3.129 0,0"/></g><g id="g2902" transform="matrix(0.35277777,0,0,-0.35277777,50.241801,43.250697)"><path style="fill:#cba15c;fill-opacity:1;fill-rule:nonzero;stroke:none" id="path2904" d="M 0,0 C 0,0 -7.349,0.346 -8.084,0.067 -8.819,-0.211 -8.441,-3.431 -6.058,-4.11 -3.674,-4.79 0,0 0,0"/></g><g id="g2906" transform="matrix(0.35277777,0,0,-0.35277777,49.1387,43.710614)"><path style="fill:#e3af62;fill-opacity:1;fill-rule:nonzero;stroke:none" id="path2908" d="m 0,0 c 0,0 -0.657,7.251 0.457,7.574 1.113,0.322 7.879,1.694 8.339,0.98 0.459,-0.714 2.792,-5.218 2.792,-5.218 0,0 0.043,-0.528 -5.582,-2.169 C 0.792,-0.354 0,0 0,0"/></g><g id="g2910" transform="matrix(0.35277777,0,0,-0.35277777,50.339837,43.82636)"><path style="fill:#553315;fill-opacity:1;fill-rule:nonzero;stroke:none" id="path2912" d="m 0,0 c 0,0 4.111,1.66 4.751,0.271 0.642,-1.389 -0.03,-2.295 0.235,-2.286 0.265,0.009 0.517,2.589 0.89,2.443 0.373,-0.147 0.166,-3.552 0.166,-3.552 0,0 1.729,1.514 1.842,2.597 C 7.996,0.556 8.087,3.027 7.155,3.15 6.223,3.272 0,0 0,0"/></g><g id="g2914" transform="matrix(0.35277777,0,0,-0.35277777,67.782511,40.060175)"><path style="fill:#110f0d;fill-opacity:1;fill-rule:nonzero;stroke:none" id="path2916" d="M 0,0 C 0,0 -2.244,-1.225 -3.006,0.756 -3.769,2.737 -4.913,4.835 -5.58,4.453 -6.247,4.072 -6.724,3.786 -6.724,3.786 c 0,0 0.064,2.288 2.034,2.002 C -2.72,5.502 -0.997,4.93 0,3.69 0.998,2.451 1.768,1.17 0,0"/></g><g id="g2918" transform="matrix(0.35277777,0,0,-0.35277777,49.1387,43.710614)"><path style="fill:#553315;fill-opacity:1;fill-rule:nonzero;stroke:none" id="path2920" d="M 0,0 -0.084,1.123 7.995,2.266 3.752,0.407 C 3.752,0.407 1.013,-0.12 0,0"/></g><g id="g2922" transform="matrix(0.35277777,0,0,-0.35277777,53.059049,42.211308)"><path style="fill:#cba15c;fill-opacity:1;fill-rule:nonzero;stroke:none" id="path2924" d="M 0,0 C 0,0 -1.641,0.442 -2.928,0.11 -4.215,-0.221 -7.041,-2.599 -7.041,-2.599 Z"/></g><g id="g2926" transform="matrix(0.35277777,0,0,-0.35277777,48.616236,44.643217)"><path style="fill:#e3af62;fill-opacity:1;fill-rule:nonzero;stroke:none" id="path2928" d="m 0,0 c 0,0 7.205,6.229 10.045,6.563 2.841,0.333 7.53,1.269 8.131,-0.58 C 18.777,4.134 11.683,4.068 8.341,3.1 5,2.131 0,0 0,0"/></g></g></g></svg>