<svg xmlns="http://www.w3.org/2000/svg" xmlns:xlink="http://www.w3.org/1999/xlink" id="visual" width="900" height="600" version="1.1" viewBox="0 0 900 600"><rect width="900" height="600" x="0" y="0" fill="#42a08f"/><path fill="#543216" stroke-linecap="round" stroke-linejoin="miter" d="M0 319L21.5 297.2C43 275.3 86 231.7 128.8 209.7C171.7 187.7 214.3 187.3 257.2 200.7C300 214 343 241 385.8 251C428.7 261 471.3 254 514.2 254.3C557 254.7 600 262.3 642.8 281.8C685.7 301.3 728.3 332.7 771.2 336.2C814 339.7 857 315.3 878.5 303.2L900 291L900 601L878.5 601C857 601 814 601 771.2 601C728.3 601 685.7 601 642.8 601C600 601 557 601 514.2 601C471.3 601 428.7 601 385.8 601C343 601 300 601 257.2 601C214.3 601 171.7 601 128.8 601C86 601 43 601 21.5 601L0 601Z"/></svg>