<svg id="visual" viewBox="0 0 900 600" width="900" height="600" xmlns="http://www.w3.org/2000/svg" xmlns:xlink="http://www.w3.org/1999/xlink" version="1.1"><rect x="0" y="0" width="900" height="600" fill="#a83b1c"></rect><path d="M0 234L15 232.7C30 231.3 60 228.7 90 206.8C120 185 150 144 180 135.2C210 126.3 240 149.7 270 160.2C300 170.7 330 168.3 360 169.7C390 171 420 176 450 185C480 194 510 207 540 200.5C570 194 600 168 630 163.2C660 158.3 690 174.7 720 186.2C750 197.7 780 204.3 810 198C840 191.7 870 172.3 885 162.7L900 153L900 601L885 601C870 601 840 601 810 601C780 601 750 601 720 601C690 601 660 601 630 601C600 601 570 601 540 601C510 601 480 601 450 601C420 601 390 601 360 601C330 601 300 601 270 601C240 601 210 601 180 601C150 601 120 601 90 601C60 601 30 601 15 601L0 601Z" fill="#c5694e"></path><path d="M0 149L15 155C30 161 60 173 90 175C120 177 150 169 180 184.3C210 199.7 240 238.3 270 235.8C300 233.3 330 189.7 360 191C390 192.3 420 238.7 450 247.3C480 256 510 227 540 225.2C570 223.3 600 248.7 630 240C660 231.3 690 188.7 720 175C750 161.3 780 176.7 810 198C840 219.3 870 246.7 885 260.3L900 274L900 601L885 601C870 601 840 601 810 601C780 601 750 601 720 601C690 601 660 601 630 601C600 601 570 601 540 601C510 601 480 601 450 601C420 601 390 601 360 601C330 601 300 601 270 601C240 601 210 601 180 601C150 601 120 601 90 601C60 601 30 601 15 601L0 601Z" fill="#bd5c40"></path><path d="M0 216L15 225.8C30 235.7 60 255.3 90 262.2C120 269 150 263 180 253.7C210 244.3 240 231.7 270 222.3C300 213 330 207 360 225C390 243 420 285 450 299C480 313 510 299 540 278C570 257 600 229 630 228C660 227 690 253 720 268C750 283 780 287 810 274.2C840 261.3 870 231.7 885 216.8L900 202L900 601L885 601C870 601 840 601 810 601C780 601 750 601 720 601C690 601 660 601 630 601C600 601 570 601 540 601C510 601 480 601 450 601C420 601 390 601 360 601C330 601 300 601 270 601C240 601 210 601 180 601C150 601 120 601 90 601C60 601 30 601 15 601L0 601Z" fill="#b54f32"></path><path d="M0 266L15 265.3C30 264.7 60 263.3 90 281.5C120 299.7 150 337.3 180 340.5C210 343.7 240 312.3 270 306C300 299.7 330 318.3 360 328C390 337.7 420 338.3 450 326.2C480 314 510 289 540 281.5C570 274 600 284 630 295.8C660 307.7 690 321.3 720 325C750 328.7 780 322.3 810 328.2C840 334 870 352 885 361L900 370L900 601L885 601C870 601 840 601 810 601C780 601 750 601 720 601C690 601 660 601 630 601C600 601 570 601 540 601C510 601 480 601 450 601C420 601 390 601 360 601C330 601 300 601 270 601C240 601 210 601 180 601C150 601 120 601 90 601C60 601 30 601 15 601L0 601Z" fill="#ac4223"></path><path d="M0 336L15 342.7C30 349.3 60 362.7 90 368C120 373.3 150 370.7 180 367.3C210 364 240 360 270 365.2C300 370.3 330 384.7 360 385.7C390 386.7 420 374.3 450 368.3C480 362.3 510 362.7 540 362C570 361.3 600 359.7 630 355.7C660 351.7 690 345.3 720 341.5C750 337.7 780 336.3 810 333.2C840 330 870 325 885 322.5L900 320L900 601L885 601C870 601 840 601 810 601C780 601 750 601 720 601C690 601 660 601 630 601C600 601 570 601 540 601C510 601 480 601 450 601C420 601 390 601 360 601C330 601 300 601 270 601C240 601 210 601 180 601C150 601 120 601 90 601C60 601 30 601 15 601L0 601Z" fill="#a2381c"></path><path d="M0 467L15 463.7C30 460.3 60 453.7 90 450.7C120 447.7 150 448.3 180 443.2C210 438 240 427 270 423.7C300 420.3 330 424.7 360 427.5C390 430.3 420 431.7 450 425.8C480 420 510 407 540 401.3C570 395.7 600 397.3 630 400.2C660 403 690 407 720 413.7C750 420.3 780 429.7 810 433.2C840 436.7 870 434.3 885 433.2L900 432L900 601L885 601C870 601 840 601 810 601C780 601 750 601 720 601C690 601 660 601 630 601C600 601 570 601 540 601C510 601 480 601 450 601C420 601 390 601 360 601C330 601 300 601 270 601C240 601 210 601 180 601C150 601 120 601 90 601C60 601 30 601 15 601L0 601Z" fill="#95331b"></path><path d="M0 445L15 444.5C30 444 60 443 90 443.8C120 444.7 150 447.3 180 452C210 456.7 240 463.3 270 472.8C300 482.3 330 494.7 360 489.8C390 485 420 463 450 451.8C480 440.7 510 440.3 540 452.5C570 464.7 600 489.3 630 497.8C660 506.3 690 498.7 720 490C750 481.3 780 471.7 810 475.8C840 480 870 498 885 507L900 516L900 601L885 601C870 601 840 601 810 601C780 601 750 601 720 601C690 601 660 601 630 601C600 601 570 601 540 601C510 601 480 601 450 601C420 601 390 601 360 601C330 601 300 601 270 601C240 601 210 601 180 601C150 601 120 601 90 601C60 601 30 601 15 601L0 601Z" fill="#882f1a"></path><path d="M0 541L15 544.5C30 548 60 555 90 551.7C120 548.3 150 534.7 180 525.3C210 516 240 511 270 508C300 505 330 504 360 509.2C390 514.3 420 525.7 450 536C480 546.3 510 555.7 540 553.5C570 551.3 600 537.7 630 529.3C660 521 690 518 720 516C750 514 780 513 810 520.5C840 528 870 544 885 552L900 560L900 601L885 601C870 601 840 601 810 601C780 601 750 601 720 601C690 601 660 601 630 601C600 601 570 601 540 601C510 601 480 601 450 601C420 601 390 601 360 601C330 601 300 601 270 601C240 601 210 601 180 601C150 601 120 601 90 601C60 601 30 601 15 601L0 601Z" fill="#7c2a19"></path></svg>