<svg id="visual" viewBox="0 0 900 600" width="900" height="600" xmlns="http://www.w3.org/2000/svg" xmlns:xlink="http://www.w3.org/1999/xlink" version="1.1"><rect x="0" y="0" width="900" height="600" fill="#543216"></rect><path d="M0 345L15 342.5C30 340 60 335 90 335.3C120 335.7 150 341.3 180 348C210 354.7 240 362.3 270 360.2C300 358 330 346 360 351C390 356 420 378 450 383C480 388 510 376 540 371.2C570 366.3 600 368.7 630 369.7C660 370.7 690 370.3 720 363.5C750 356.7 780 343.3 810 337.3C840 331.3 870 332.7 885 333.3L900 334L900 601L885 601C870 601 840 601 810 601C780 601 750 601 720 601C690 601 660 601 630 601C600 601 570 601 540 601C510 601 480 601 450 601C420 601 390 601 360 601C330 601 300 601 270 601C240 601 210 601 180 601C150 601 120 601 90 601C60 601 30 601 15 601L0 601Z" fill="#8bc63e"></path><path d="M0 390L15 394.5C30 399 60 408 90 417C120 426 150 435 180 427.5C210 420 240 396 270 394C300 392 330 412 360 413.7C390 415.3 420 398.7 450 399.2C480 399.7 510 417.3 540 424.3C570 431.3 600 427.7 630 431.3C660 435 690 446 720 441.8C750 437.7 780 418.3 810 416.8C840 415.3 870 431.7 885 439.8L900 448L900 601L885 601C870 601 840 601 810 601C780 601 750 601 720 601C690 601 660 601 630 601C600 601 570 601 540 601C510 601 480 601 450 601C420 601 390 601 360 601C330 601 300 601 270 601C240 601 210 601 180 601C150 601 120 601 90 601C60 601 30 601 15 601L0 601Z" fill="#76ca62"></path><path d="M0 444L15 450.2C30 456.3 60 468.7 90 467.5C120 466.3 150 451.7 180 444.8C210 438 240 439 270 446.8C300 454.7 330 469.3 360 465.8C390 462.3 420 440.7 450 431.5C480 422.3 510 425.7 540 435.5C570 445.3 600 461.7 630 471C660 480.3 690 482.7 720 474.2C750 465.7 780 446.3 810 439.3C840 432.3 870 437.7 885 440.3L900 443L900 601L885 601C870 601 840 601 810 601C780 601 750 601 720 601C690 601 660 601 630 601C600 601 570 601 540 601C510 601 480 601 450 601C420 601 390 601 360 601C330 601 300 601 270 601C240 601 210 601 180 601C150 601 120 601 90 601C60 601 30 601 15 601L0 601Z" fill="#67cd81"></path><path d="M0 471L15 480.7C30 490.3 60 509.7 90 519.2C120 528.7 150 528.3 180 529.5C210 530.7 240 533.3 270 530.3C300 527.3 330 518.7 360 508.3C390 498 420 486 450 488.3C480 490.7 510 507.3 540 509.8C570 512.3 600 500.7 630 502.8C660 505 690 521 720 524.3C750 527.7 780 518.3 810 510C840 501.7 870 494.3 885 490.7L900 487L900 601L885 601C870 601 840 601 810 601C780 601 750 601 720 601C690 601 660 601 630 601C600 601 570 601 540 601C510 601 480 601 450 601C420 601 390 601 360 601C330 601 300 601 270 601C240 601 210 601 180 601C150 601 120 601 90 601C60 601 30 601 15 601L0 601Z" fill="#60ce9c"></path><path d="M0 534L15 534.2C30 534.3 60 534.7 90 538.5C120 542.3 150 549.7 180 547.2C210 544.7 240 532.3 270 525.8C300 519.3 330 518.7 360 520.2C390 521.7 420 525.3 450 525.5C480 525.7 510 522.3 540 524.3C570 526.3 600 533.7 630 538.8C660 544 690 547 720 546.8C750 546.7 780 543.3 810 547C840 550.7 870 561.3 885 566.7L900 572L900 601L885 601C870 601 840 601 810 601C780 601 750 601 720 601C690 601 660 601 630 601C600 601 570 601 540 601C510 601 480 601 450 601C420 601 390 601 360 601C330 601 300 601 270 601C240 601 210 601 180 601C150 601 120 601 90 601C60 601 30 601 15 601L0 601Z" fill="#66cdb1"></path></svg>