<svg xmlns="http://www.w3.org/2000/svg" xmlns:xlink="http://www.w3.org/1999/xlink" id="visual" width="960" height="540" version="1.1" viewBox="0 0 960 540"><rect width="960" height="540" x="0" y="0" fill="#a83b1c"/><path fill="#ff591d" d="M0 262L20 261.8C40 261.7 80 261.3 120 256.7C160 252 200 243 240 252.8C280 262.7 320 291.3 360 299.3C400 307.3 440 294.7 480 290.5C520 286.3 560 290.7 600 291.3C640 292 680 289 720 292.5C760 296 800 306 840 307.5C880 309 920 302 940 298.5L960 295L960 0L940 0C920 0 880 0 840 0C800 0 760 0 720 0C680 0 640 0 600 0C560 0 520 0 480 0C440 0 400 0 360 0C320 0 280 0 240 0C200 0 160 0 120 0C80 0 40 0 20 0L0 0Z"/><path fill="#e18000" d="M0 191L20 197.8C40 204.7 80 218.3 120 229.7C160 241 200 250 240 257.7C280 265.3 320 271.7 360 260C400 248.3 440 218.7 480 213.5C520 208.3 560 227.7 600 233.2C640 238.7 680 230.3 720 227.5C760 224.7 800 227.3 840 229.7C880 232 920 234 940 235L960 236L960 0L940 0C920 0 880 0 840 0C800 0 760 0 720 0C680 0 640 0 600 0C560 0 520 0 480 0C440 0 400 0 360 0C320 0 280 0 240 0C200 0 160 0 120 0C80 0 40 0 20 0L0 0Z"/><path fill="#c19b00" d="M0 156L20 166.2C40 176.3 80 196.7 120 198.2C160 199.7 200 182.3 240 175C280 167.7 320 170.3 360 176.5C400 182.7 440 192.3 480 201.2C520 210 560 218 600 213C640 208 680 190 720 184.3C760 178.7 800 185.3 840 188C880 190.7 920 189.3 940 188.7L960 188L960 0L940 0C920 0 880 0 840 0C800 0 760 0 720 0C680 0 640 0 600 0C560 0 520 0 480 0C440 0 400 0 360 0C320 0 280 0 240 0C200 0 160 0 120 0C80 0 40 0 20 0L0 0Z"/><path fill="#a1ae31" d="M0 167L20 169.8C40 172.7 80 178.3 120 181.3C160 184.3 200 184.7 240 177.3C280 170 320 155 360 147.3C400 139.7 440 139.3 480 142.2C520 145 560 151 600 149.3C640 147.7 680 138.3 720 139.2C760 140 800 151 840 155.2C880 159.3 920 156.7 940 155.3L960 154L960 0L940 0C920 0 880 0 840 0C800 0 760 0 720 0C680 0 640 0 600 0C560 0 520 0 480 0C440 0 400 0 360 0C320 0 280 0 240 0C200 0 160 0 120 0C80 0 40 0 20 0L0 0Z"/><path fill="#84bc5f" d="M0 141L20 136.8C40 132.7 80 124.3 120 115.7C160 107 200 98 240 99.2C280 100.3 320 111.7 360 120.3C400 129 440 135 480 138.2C520 141.3 560 141.7 600 143.8C640 146 680 150 720 142C760 134 800 114 840 108.7C880 103.3 920 112.7 940 117.3L960 122L960 0L940 0C920 0 880 0 840 0C800 0 760 0 720 0C680 0 640 0 600 0C560 0 520 0 480 0C440 0 400 0 360 0C320 0 280 0 240 0C200 0 160 0 120 0C80 0 40 0 20 0L0 0Z"/><path fill="#6dc68b" d="M0 66L20 73.7C40 81.3 80 96.7 120 99.8C160 103 200 94 240 91.2C280 88.3 320 91.7 360 87C400 82.3 440 69.7 480 70.8C520 72 560 87 600 88.3C640 89.7 680 77.3 720 74.5C760 71.7 800 78.3 840 77C880 75.7 920 66.3 940 61.7L960 57L960 0L940 0C920 0 880 0 840 0C800 0 760 0 720 0C680 0 640 0 600 0C560 0 520 0 480 0C440 0 400 0 360 0C320 0 280 0 240 0C200 0 160 0 120 0C80 0 40 0 20 0L0 0Z"/><path fill="#66cdb1" d="M0 24L20 25.7C40 27.3 80 30.7 120 36.2C160 41.7 200 49.3 240 48C280 46.7 320 36.3 360 34.7C400 33 440 40 480 39.5C520 39 560 31 600 30.8C640 30.7 680 38.3 720 42.7C760 47 800 48 840 44.3C880 40.7 920 32.3 940 28.2L960 24L960 0L940 0C920 0 880 0 840 0C800 0 760 0 720 0C680 0 640 0 600 0C560 0 520 0 480 0C440 0 400 0 360 0C320 0 280 0 240 0C200 0 160 0 120 0C80 0 40 0 20 0L0 0Z"/></svg>