<?xml version="1.0" encoding="UTF-8" standalone="no"?>
<svg
   version="1.1"
   id="svg2"
   xml:space="preserve"
   width="1235"
   height="938.97333"
   viewBox="0 0 1235 938.97333"
   sodipodi:docname="tramp.svg"
   inkscape:version="1.1 (c68e22c387, 2021-05-23)"
   xmlns:inkscape="http://www.inkscape.org/namespaces/inkscape"
   xmlns:sodipodi="http://sodipodi.sourceforge.net/DTD/sodipodi-0.dtd"
   xmlns="http://www.w3.org/2000/svg"
   xmlns:svg="http://www.w3.org/2000/svg"
   xmlns:rdf="http://www.w3.org/1999/02/22-rdf-syntax-ns#"
   xmlns:cc="http://creativecommons.org/ns#"
   xmlns:dc="http://purl.org/dc/elements/1.1/"><metadata
     id="metadata8"><rdf:RDF><cc:Work
         rdf:about=""><dc:format>image/svg+xml</dc:format><dc:type
           rdf:resource="http://purl.org/dc/dcmitype/StillImage" /></cc:Work></rdf:RDF></metadata><defs
     id="defs6"><clipPath
       clipPathUnits="userSpaceOnUse"
       id="clipPath1910"><path
         d="m 2934.13,6491.02 c 1.76,2.03 3.54,4.07 5.33,6.11 0,0 0,0 0,0 -1.79,-2.04 -3.57,-4.08 -5.33,-6.11"
         id="path1908" /></clipPath></defs><sodipodi:namedview
     pagecolor="#ffffff"
     bordercolor="#666666"
     borderopacity="1"
     objecttolerance="10"
     gridtolerance="10"
     guidetolerance="10"
     inkscape:pageopacity="0"
     inkscape:pageshadow="2"
     inkscape:window-width="1920"
     inkscape:window-height="1009"
     id="namedview4"
     inkscape:pagecheckerboard="0"
     showgrid="false"
     inkscape:zoom="0.80193971"
     inkscape:cx="617.87687"
     inkscape:cy="469.48666"
     inkscape:window-x="1912"
     inkscape:window-y="-8"
     inkscape:window-maximized="1"
     inkscape:current-layer="g10" /><g
     id="g10"
     inkscape:groupmode="layer"
     inkscape:label="ink_ext_XXXXXX"
     transform="matrix(1.3333333,0,0,-1.3333333,0,938.97333)"><g
       id="g3724"
       transform="matrix(2.3121761,0,0,2.6000863,-1216.3436,-1097.9933)"><path
         d="m 592.084,592.414 c -9.495,-1.671 -9.469,-6.968 -9.469,-6.968 0,0 -6.452,2.724 -12.304,1.289 -5.97,-1.462 -0.59,-7.593 -0.59,-7.593 -10.685,-1.448 -5.41,-10.357 -5.41,-10.357 -10.611,-3.041 -14.983,-10.692 -11.202,-18.016 3.745,-7.258 11.698,-4.516 11.698,-4.516 0,0 0.513,-5.32 5.976,-10.171 5.377,-4.78 10.86,0.295 10.86,0.295 0.797,-4.363 8.88,-5.307 12.871,-1.664 l 20.415,28.887 c 6.432,9.945 -17.259,29.798 -22.845,28.814"
         style="fill:#9b4840;fill-opacity:1;fill-rule:nonzero;stroke:none;stroke-width:0.1"
         id="path1232" /><path
         d="m 589.698,560.191 c -12.227,2.831 -21.654,9.699 -24.831,17.167 -3.818,-3.059 -0.556,-8.573 -0.556,-8.573 -10.611,-3.041 -14.983,-10.692 -11.202,-18.016 3.745,-7.258 11.698,-4.516 11.698,-4.516 0,0 0.513,-5.32 5.976,-10.171 5.377,-4.78 10.86,0.295 10.86,0.295 0.797,-4.363 8.88,-5.307 12.871,-1.664 l 12.143,24.604 c -5.145,-0.74 -10.979,-0.511 -16.959,0.874"
         style="fill:#873531;fill-opacity:1;fill-rule:nonzero;stroke:none;stroke-width:0.1"
         id="path1234" /><path
         d="m 606.473,522.094 c 2.253,-0.082 8.903,6.147 12.495,9.208 l -0.391,0.83 c 0,0 -9.584,-7.81 -11.687,-7.932 -2.104,-0.125 -11.094,4.81 -11.094,4.81 l -2.299,-2 c 0,0 10.722,-4.832 12.976,-4.916"
         style="fill:#ffcd9c;fill-opacity:1;fill-rule:nonzero;stroke:none;stroke-width:0.1"
         id="path1236" /><path
         d="m 607.399,524.322 c -0.197,-0.075 -0.37,-0.115 -0.509,-0.122 -2.104,-0.125 -11.094,4.81 -11.094,4.81 l -2.299,-2 c 0,0 10.722,-4.832 12.976,-4.916 0.416,-0.015 0.985,0.186 1.656,0.546 -0.289,0.525 -0.534,1.086 -0.73,1.682"
         style="fill:#ffae85;fill-opacity:1;fill-rule:nonzero;stroke:none;stroke-width:0.1"
         id="path1238" /><path
         d="m 604.832,525.799 -3.155,-5.869 c 0,0 -11.457,6.34 -11.287,7.775 0.17,1.434 3.718,3.271 4.933,2.51 1.213,-0.761 9.509,-4.416 9.509,-4.416"
         style="fill:#5298cc;fill-opacity:1;fill-rule:nonzero;stroke:none;stroke-width:0.1"
         id="path1240" /><path
         d="m 599.212,524.668 c -3.809,1.652 -6.485,3.973 -6.244,5.344 -1.253,-0.519 -2.479,-1.478 -2.578,-2.307 -0.17,-1.435 11.287,-7.775 11.287,-7.775 l 1.814,3.379 c -1.286,0.243 -2.764,0.701 -4.279,1.359"
         style="fill:#3c83af;fill-opacity:1;fill-rule:nonzero;stroke:none;stroke-width:0.1"
         id="path1242" /><path
         d="m 595.543,495.354 11.61,-20.961 0.972,0.143 -9.255,22.272 c -1.036,2.773 -4.921,1.464 -3.327,-1.454"
         style="fill:#ffcd9c;fill-opacity:1;fill-rule:nonzero;stroke:none;stroke-width:0.1"
         id="path1244" /><path
         d="m 601.897,489.516 -3.027,7.292 c -1.036,2.773 -4.921,1.464 -3.327,-1.454 l 5.776,-10.428 c 0.038,1.749 0.241,3.31 0.578,4.59"
         style="fill:#ffae85;fill-opacity:1;fill-rule:nonzero;stroke:none;stroke-width:0.1"
         id="path1246" /><path
         d="m 595.867,490.213 c 0.174,-0.219 5.126,3.131 5.126,3.131 0,0 -5.92,13.548 -6.191,14.428 -0.271,0.876 -7.613,0.82 -7.613,0.82 0,0 -3.882,-2.769 8.678,-18.379"
         style="fill:#ff8d40;fill-opacity:1;fill-rule:nonzero;stroke:none;stroke-width:0.1"
         id="path1248" /><path
         d="m 596.18,494.874 c -1.723,3.972 -1.23,8.209 0.018,8.714 0.102,0.041 0.214,0.054 0.33,0.05 -0.919,2.138 -1.636,3.839 -1.726,4.134 -0.271,0.876 -7.613,0.82 -7.613,0.82 0,0 -3.882,-2.769 8.678,-18.379 0.081,-0.102 1.217,0.583 2.4,1.339 -0.781,0.893 -1.52,2.009 -2.087,3.322"
         style="fill:#f26330;fill-opacity:1;fill-rule:nonzero;stroke:none;stroke-width:0.1"
         id="path1250" /><path
         d="m 601.638,492.892 -0.734,1.569 -6.338,-3.487 1.542,-1.555 5.53,3.473"
         style="fill:#ffd6bb;fill-opacity:1;fill-rule:nonzero;stroke:none;stroke-width:0.1"
         id="path1252" /><path
         d="m 597.531,492.606 -2.965,-1.632 1.542,-1.555 2.642,1.66 c -0.549,0.391 -0.977,0.911 -1.219,1.527"
         style="fill:#d69d80;fill-opacity:1;fill-rule:nonzero;stroke:none;stroke-width:0.1"
         id="path1254" /><path
         d="m 596.803,488.602 -6.818,14.243 -2.246,-1.997 6.221,-13.401 c 1.212,-2.103 3.957,-1.405 2.843,1.155"
         style="fill:#ffae85;fill-opacity:1;fill-rule:nonzero;stroke:none;stroke-width:0.1"
         id="path1256" /><path
         d="m 591.051,489.263 c 0.166,-0.218 5.232,3.115 5.232,3.115 0,0 -5.285,13.44 -5.513,14.31 -0.23,0.874 -7.53,0.804 -7.53,0.804 0,0 -3.976,-2.751 7.811,-18.229"
         style="fill:#ff8d40;fill-opacity:1;fill-rule:nonzero;stroke:none;stroke-width:0.1"
         id="path1258" /><path
         d="m 591.009,493.099 c -1.972,4.458 -0.902,9.289 0.69,9.948 0.125,0.047 0.257,0.069 0.396,0.076 -0.716,1.865 -0.827,3.596 -0.896,3.864 -0.231,0.872 -7.959,0.505 -7.959,0.505 0,0 -3.976,-2.751 7.811,-18.229 0.065,-0.082 0.837,0.352 1.774,0.916 -0.698,0.839 -1.328,1.814 -1.816,2.92"
         style="fill:#f26330;fill-opacity:1;fill-rule:nonzero;stroke:none;stroke-width:0.1"
         id="path1260" /><path
         d="m 596.467,526.883 c 1.133,2.642 -3.832,7.05 -7.402,3.726 -5.844,-5.451 -6.824,-17.567 -8.172,-25.317 5.682,-0.989 11.566,-1.879 16.552,-0.077 -3.448,9.818 -3.052,16.834 -0.978,21.668"
         style="fill:#5298cc;fill-opacity:1;fill-rule:nonzero;stroke:none;stroke-width:0.1"
         id="path1262" /><path
         d="m 589.627,513.944 c -1.088,6.951 -0.246,13.359 1.927,17.505 -0.947,0.031 -1.815,-0.216 -2.489,-0.84 -5.844,-5.451 -7.507,-17.733 -8.854,-25.485 3.947,-0.682 8.318,-1.241 12.293,-0.913 -1.306,2.822 -2.317,6.133 -2.877,9.733"
         style="fill:#3c83af;fill-opacity:1;fill-rule:nonzero;stroke:none;stroke-width:0.1"
         id="path1264" /><path
         d="m 574.849,526.342 c -2.109,-1.379 -3.195,-10.521 -4.607,-15.295 l 0.636,-0.308 c 0,0 3.991,12.442 5.835,13.893 1.845,1.446 13.069,3.234 13.069,3.234 l 0.877,3.091 c 0,0 -13.697,-3.235 -15.81,-4.615"
         style="fill:#ffcd9c;fill-opacity:1;fill-rule:nonzero;stroke:none;stroke-width:0.1"
         id="path1266" /><path
         d="m 574.849,526.342 c -0.186,-0.122 -0.368,-0.303 -0.548,-0.533 0.59,-0.603 1.153,-1.321 1.667,-2.135 0.275,0.448 0.526,0.783 0.745,0.958 1.845,1.446 13.069,3.234 13.069,3.234 l 0.877,3.091 c 0,0 -13.697,-3.235 -15.81,-4.615"
         style="fill:#ffae85;fill-opacity:1;fill-rule:nonzero;stroke:none;stroke-width:0.1"
         id="path1268" /><path
         d="m 578.906,522.853 -1.154,6.591 c 0,0 14.428,2.823 15.243,1.612 0.813,-1.206 -1.096,-4.984 -2.683,-5.215 -1.589,-0.232 -11.406,-2.988 -11.406,-2.988"
         style="fill:#5298cc;fill-opacity:1;fill-rule:nonzero;stroke:none;stroke-width:0.1"
         id="path1270" /><path
         d="m 593.941,525.536 c -1.198,2.532 -2.248,4.854 -4.138,5.746 0,0 1.971,1.353 3.954,0.301 2.482,-1.315 0.184,-6.047 0.184,-6.047"
         style="fill:#9acded;fill-opacity:1;fill-rule:nonzero;stroke:none;stroke-width:0.1"
         id="path1272" /><path
         d="m 580.073,527.244 c -0.172,1.104 1.189,2.297 3.4,3.212 -3.084,-0.498 -5.721,-1.012 -5.721,-1.012 l 1.154,-6.591 c 0,0 4.806,1.35 8.236,2.239 -3.836,-0.199 -6.834,0.651 -7.069,2.152"
         style="fill:#3c83af;fill-opacity:1;fill-rule:nonzero;stroke:none;stroke-width:0.1"
         id="path1274" /><path
         d="m 606.256,473.543 4.749,0.693 c 0,0 -3.005,1.42 -3.723,1.262 -0.717,-0.162 -1.026,-1.955 -1.026,-1.955"
         style="fill:#b7dfe5;fill-opacity:1;fill-rule:nonzero;stroke:none;stroke-width:0.1"
         id="path1276" /><path
         d="m 591.026,531.537 1.176,4.79 3.29,-0.627 -1.388,-7.994 c -0.885,2.346 -1.678,3.143 -3.078,3.831"
         style="fill:#ffcd9c;fill-opacity:1;fill-rule:nonzero;stroke:none;stroke-width:0.1"
         id="path1278" /><path
         d="m 596.633,492.323 -0.733,1.568 -6.341,-3.488 1.544,-1.554 5.53,3.474"
         style="fill:#ffd6bb;fill-opacity:1;fill-rule:nonzero;stroke:none;stroke-width:0.1"
         id="path1280" /><path
         d="m 592.524,492.035 -2.965,-1.632 1.544,-1.554 2.399,1.504 c -0.478,0.437 -0.826,1.011 -0.978,1.682"
         style="fill:#d69d80;fill-opacity:1;fill-rule:nonzero;stroke:none;stroke-width:0.1"
         id="path1282" /><path
         d="m 594.653,489.014 -14.398,-12.367 0.717,-0.103 15.264,9.231 c 1.962,1.152 0.345,4.882 -1.583,3.239"
         style="fill:#ffcd9c;fill-opacity:1;fill-rule:nonzero;stroke:none;stroke-width:0.1"
         id="path1284" /><path
         d="m 596.814,486.325 c 0.965,1.464 -0.508,4.311 -2.19,2.878 l -5.749,-5.15 c 2.839,1.217 5.597,1.984 7.939,2.272"
         style="fill:#ffae85;fill-opacity:1;fill-rule:nonzero;stroke:none;stroke-width:0.1"
         id="path1286" /><path
         d="m 601.801,519.605 3.424,6.248 -1.327,0.921 -3.731,-6.745 1.634,-0.424"
         style="fill:#9acded;fill-opacity:1;fill-rule:nonzero;stroke:none;stroke-width:0.1"
         id="path1288" /><path
         d="m 602.185,523.681 -2.018,-3.652 1.634,-0.424 1.992,3.632 c -0.59,0.093 -1.132,0.245 -1.608,0.444"
         style="fill:#82bbd8;fill-opacity:1;fill-rule:nonzero;stroke:none;stroke-width:0.1"
         id="path1290" /><path
         d="m 580.264,522.866 -1.467,7.264 -1.664,-0.017 1.558,-7.862 1.573,0.615"
         style="fill:#9acded;fill-opacity:1;fill-rule:nonzero;stroke:none;stroke-width:0.1"
         id="path1292" /><path
         d="m 577.849,526.506 0.842,-4.255 1.573,0.615 -0.852,4.223 c -0.527,-0.273 -1.056,-0.467 -1.563,-0.583"
         style="fill:#82bbd8;fill-opacity:1;fill-rule:nonzero;stroke:none;stroke-width:0.1"
         id="path1294" /><path
         d="m 597.625,529.06 c -0.86,0.405 -1.586,0.758 -2.019,0.992 -0.053,0.06 -0.107,0.119 -0.164,0.177 0.055,-0.056 0.108,-0.113 0.16,-0.171 0.429,-0.233 1.16,-0.59 2.023,-0.997 v -0.001"
         style="fill:#ddaaa0;fill-opacity:1;fill-rule:nonzero;stroke:none;stroke-width:0.1"
         id="path1296" /><path
         d="m 596.566,526.025 c -0.121,0.074 -0.241,0.147 -0.357,0.221 0.083,0.217 0.169,0.429 0.258,0.637 0.418,0.975 0.005,2.191 -0.861,3.169 0.433,-0.234 1.159,-0.587 2.019,-0.992 -0.194,-1.092 -0.552,-2.154 -1.059,-3.035"
         style="fill:#476580;fill-opacity:1;fill-rule:nonzero;stroke:none;stroke-width:0.1"
         id="path1298" /><path
         d="m 595.761,524.928 c 0.136,0.456 0.286,0.895 0.448,1.318 0.116,-0.074 0.236,-0.147 0.357,-0.221 -0.236,-0.41 -0.505,-0.781 -0.805,-1.097"
         style="fill:#34576e;fill-opacity:1;fill-rule:nonzero;stroke:none;stroke-width:0.1"
         id="path1300" /><path
         d="m 594.658,530.896 v 0 l 0.834,4.804 -0.834,-4.804 m -6.091,0.268 c 0.43,0.047 0.845,0.087 1.236,0.118 v 0 0 c 10e-4,0 0.002,0 0.002,0 -0.391,-0.032 -0.807,-0.071 -1.238,-0.118 m 2.532,0.68 0.272,1.107 c 10e-4,0 10e-4,0 0.002,0 l -0.272,-1.106 c 0,0 -10e-4,0 -0.002,-10e-4"
         style="fill:#ddaaa0;fill-opacity:1;fill-rule:nonzero;stroke:none;stroke-width:0.1"
         id="path1302" /><path
         d="m 591.371,532.951 0.831,3.376 -0.829,-3.376 c -0.001,0 -0.001,0 -0.002,0"
         style="fill:#75231f;fill-opacity:1;fill-rule:nonzero;stroke:none;stroke-width:0.1"
         id="path1304" /><path
         d="m 593.335,523.8 c -0.051,0 -0.102,0.001 -0.153,0.003 -1.211,0.059 -2.278,0.877 -3.247,1.968 0.153,0.032 0.28,0.055 0.377,0.07 0.823,0.12 1.733,1.194 2.304,2.368 0.455,-0.82 0.88,-1.732 1.325,-2.673 0,0 1.607,3.309 0.682,5.161 l 0.035,0.199 v 0 -0.003 c 0.284,-0.2 0.548,-0.423 0.784,-0.664 0.057,-0.058 0.111,-0.117 0.164,-0.177 0.866,-0.978 1.279,-2.194 0.861,-3.169 -0.089,-0.208 -0.175,-0.42 -0.258,-0.637 -0.162,-0.423 -0.312,-0.862 -0.448,-1.318 -0.662,-0.697 -1.475,-1.128 -2.426,-1.128"
         style="fill:#476580;fill-opacity:1;fill-rule:nonzero;stroke:none;stroke-width:0.1"
         id="path1306" /><path
         d="m 589.935,525.771 c -1.434,1.616 -2.655,3.833 -3.815,5.084 0.841,0.118 1.67,0.225 2.447,0.309 0.431,0.047 0.847,0.086 1.238,0.118 1.187,-0.562 2.042,-1.687 2.811,-3.073 -0.571,-1.174 -1.481,-2.248 -2.304,-2.368 -0.097,-0.015 -0.224,-0.038 -0.377,-0.07"
         style="fill:#476580;fill-opacity:1;fill-rule:nonzero;stroke:none;stroke-width:0.1"
         id="path1308" /><path
         d="m 593.941,525.536 c -0.445,0.941 -0.87,1.853 -1.325,2.673 -0.769,1.386 -1.624,2.511 -2.811,3.073 0,0 -10e-4,0 -0.002,0 0,0 0.523,0.356 1.296,0.562 v 0 c 10e-4,10e-4 0.002,10e-4 0.002,10e-4 l -0.075,-0.308 c 1.4,-0.688 2.193,-1.485 3.078,-3.831 l 0.519,2.991 c 0.925,-1.852 -0.682,-5.161 -0.682,-5.161"
         style="fill:#868995;fill-opacity:1;fill-rule:nonzero;stroke:none;stroke-width:0.1"
         id="path1310" /><path
         d="m 594.104,527.706 c -0.885,2.346 -1.678,3.143 -3.078,3.831 l 0.075,0.308 0.272,1.106 0.829,3.376 3.29,-0.627 -0.834,-4.804 -0.035,-0.199 -0.519,-2.991"
         style="fill:#dd8962;fill-opacity:1;fill-rule:nonzero;stroke:none;stroke-width:0.1"
         id="path1312" /><path
         d="m 603.267,532.077 c 17.895,3.808 12.267,15.009 11.617,32.576 -0.456,12.324 -17.126,12.117 -26.178,6.833 -9.053,-5.283 -14.76,-14.606 -6.51,-28.919 6.432,-11.154 16.836,-11.391 21.071,-10.49"
         style="fill:#ffcd9c;fill-opacity:1;fill-rule:nonzero;stroke:none;stroke-width:0.1"
         id="path1314" /><path
         d="m 588.017,578.88 c 5.029,-2.342 3.967,-12.354 -0.366,-18.198 -4.279,-5.779 -2.862,-12.676 -1.504,-17.945 0.881,-3.424 -1.264,-5.615 0.003,-8.481 0,0 -18.289,15.027 -15.637,28.538 2.65,13.513 10.174,19.498 17.504,16.086"
         style="fill:#873531;fill-opacity:1;fill-rule:nonzero;stroke:none;stroke-width:0.1"
         id="path1316" /><path
         d="m 583.438,538.353 c -1.734,3.319 -1.575,7.424 1.919,6.219 3.493,-1.208 6.367,-7.428 4.322,-8.459 -2.044,-1.035 -4.961,-0.208 -6.241,2.24"
         style="fill:#ffcd9c;fill-opacity:1;fill-rule:nonzero;stroke:none;stroke-width:0.1"
         id="path1318" /><path
         d="m 584.703,538.772 c -1.01,1.931 -0.92,4.319 1.111,3.617 2.031,-0.7 3.703,-4.318 2.517,-4.919 -1.189,-0.603 -2.882,-0.121 -3.628,1.302"
         style="fill:#ef8f6f;fill-opacity:1;fill-rule:nonzero;stroke:none;stroke-width:0.1"
         id="path1320" /><path
         d="m 586.722,537.592 c -0.757,1.447 -0.691,3.235 0.833,2.707 1.526,-0.527 2.784,-3.241 1.894,-3.689 -0.891,-0.449 -2.166,-0.087 -2.727,0.982"
         style="fill:#ffcd9c;fill-opacity:1;fill-rule:nonzero;stroke:none;stroke-width:0.1"
         id="path1322" /><path
         d="m 590.413,578.06 c -2.655,5.513 -8.471,6.671 -12.992,2.59 -4.518,-4.084 -6.03,-11.862 -3.374,-17.375 2.655,-5.514 8.471,-6.673 12.989,-2.589 4.523,4.082 6.035,11.858 3.377,17.374"
         style="fill:#9b4840;fill-opacity:1;fill-rule:nonzero;stroke:none;stroke-width:0.1"
         id="path1324" /><path
         d="m 580.853,479.026 -1.225,-4.493 c 0,0 2.539,2.106 2.673,2.806 0.128,0.698 -1.448,1.687 -1.448,1.687"
         style="fill:#b7dfe5;fill-opacity:1;fill-rule:nonzero;stroke:none;stroke-width:0.1"
         id="path1326" /><path
         d="m 613.967,554.232 c -0.208,3.132 -2.11,5.386 -4.244,5.035 -2.131,-0.348 -3.697,-3.171 -3.491,-6.305 0.211,-3.128 2.366,-3.264 4.5,-2.912 2.132,0.352 3.441,1.053 3.235,4.182"
         style="fill:#ef8f6f;fill-opacity:1;fill-rule:nonzero;stroke:none;stroke-width:0.1"
         id="path1328" /><path
         d="m 600.581,554.12 c -0.119,3.488 -2.195,6.021 -4.636,5.659 -2.438,-0.365 -4.32,-3.486 -4.201,-6.977 0.119,-3.489 2.336,-3.812 4.775,-3.449 2.439,0.365 4.18,1.276 4.062,4.767"
         style="fill:#ef8f6f;fill-opacity:1;fill-rule:nonzero;stroke:none;stroke-width:0.1"
         id="path1330" /><path
         d="m 613.99,553.882 c -0.19,2.866 -2.076,4.901 -4.208,4.552 -2.137,-0.351 -3.717,-2.956 -3.527,-5.819 0.191,-2.865 1.951,-3.038 4.122,-3.168 2.472,-0.151 3.804,1.573 3.613,4.435"
         style="fill:#fff9e9;fill-opacity:1;fill-rule:nonzero;stroke:none;stroke-width:0.1"
         id="path1332" /><path
         d="m 600.462,553.711 c -0.111,3.189 -2.178,5.482 -4.618,5.118 -2.437,-0.364 -4.326,-3.248 -4.218,-6.437 0.108,-3.193 2.062,-3.444 4.56,-3.577 2.476,-0.136 4.383,1.7 4.276,4.896"
         style="fill:#fff9e9;fill-opacity:1;fill-rule:nonzero;stroke:none;stroke-width:0.1"
         id="path1334" /><path
         d="m 598.539,542.598 c -0.032,0.224 10.124,0.405 10.07,0.204 -0.391,-1.427 -1.598,-4.29 -5.034,-4.594 -3.829,-0.337 -4.81,2.747 -5.036,4.39"
         style="fill:#542c23;fill-opacity:1;fill-rule:nonzero;stroke:none;stroke-width:0.1"
         id="path1336" /><path
         d="m 599.524,542.416 c -0.036,0.101 8.036,0.233 7.993,0.141 -0.305,-0.674 0.109,-3.479 -4.087,-3.685 -4.809,-0.231 -3.65,2.797 -3.906,3.544"
         style="fill:#fff7e9;fill-opacity:1;fill-rule:nonzero;stroke:none;stroke-width:0.1"
         id="path1338" /><path
         d="m 603.53,545.445 c -1.097,0.199 -1.77,0.868 -1.693,1.554 -0.154,-0.134 -0.28,-0.286 -0.346,-0.455 -0.303,-0.779 0.45,-1.58 1.678,-1.802 1.228,-0.224 2.467,0.216 2.77,0.99 l 0.014,0.243 c -0.527,-0.472 -1.467,-0.703 -2.423,-0.53"
         style="fill:#ef8f6f;fill-opacity:1;fill-rule:nonzero;stroke:none;stroke-width:0.1"
         id="path1340" /><path
         d="m 613.745,555.247 c -0.304,1.048 -1.22,1.639 -2.06,1.308 -0.835,-0.328 -1.27,-1.449 -0.964,-2.502 0.297,-1.048 1.221,-1.641 2.059,-1.312 0.837,0.332 1.265,1.452 0.965,2.506"
         style="fill:#5795aa;fill-opacity:1;fill-rule:nonzero;stroke:none;stroke-width:0.1"
         id="path1342" /><path
         d="m 599.962,554.649 c -0.291,1.174 -1.316,1.841 -2.289,1.5 -0.973,-0.345 -1.525,-1.575 -1.234,-2.745 0.294,-1.172 1.313,-1.84 2.282,-1.499 0.978,0.344 1.53,1.574 1.241,2.744"
         style="fill:#5795aa;fill-opacity:1;fill-rule:nonzero;stroke:none;stroke-width:0.1"
         id="path1344" /><path
         d="m 599.488,554.353 c -0.11,0.431 -0.49,0.679 -0.848,0.554 -0.358,-0.128 -0.565,-0.583 -0.457,-1.02 0.106,-0.433 0.489,-0.683 0.848,-0.556 0.359,0.127 0.565,0.583 0.457,1.022"
         style="fill:#78c7dd;fill-opacity:1;fill-rule:nonzero;stroke:none;stroke-width:0.1"
         id="path1346" /><path
         d="m 613.169,555.239 c -0.114,0.391 -0.452,0.604 -0.761,0.484 -0.308,-0.12 -0.47,-0.532 -0.359,-0.923 0.112,-0.388 0.45,-0.61 0.759,-0.486 0.314,0.124 0.472,0.539 0.361,0.925"
         style="fill:#78c7dd;fill-opacity:1;fill-rule:nonzero;stroke:none;stroke-width:0.1"
         id="path1348" /><path
         d="m 599.702,560.792 c -3.707,0.963 -7.856,-1.144 -8.607,-1.927 l -1.173,1.194 c 1.354,1.391 6.24,3.544 10.365,2.469 l -0.585,-1.736"
         style="fill:#9b4840;fill-opacity:1;fill-rule:nonzero;stroke:none;stroke-width:0.1"
         id="path1350" /><path
         d="m 614.948,559.493 c -2.248,2.422 -5.852,2.319 -6.631,1.949 l -0.416,1.544 c 1.428,0.66 5.543,0.481 8.042,-2.207 l -0.995,-1.286"
         style="fill:#9b4840;fill-opacity:1;fill-rule:nonzero;stroke:none;stroke-width:0.1"
         id="path1352" /><path
         d="m 620.197,529.923 c 0.606,-0.076 1.328,0.015 1.448,0.254 0.104,0.201 -0.435,0.132 -0.829,0.246 -0.35,0.094 -0.477,0.124 -0.417,0.214 0.036,0.059 0.534,0.016 1.098,-0.007 0.7,-0.032 1.196,0.048 1.311,0.287 0.096,0.228 -0.392,0.145 -0.997,0.238 -0.53,0.083 -0.783,0.086 -0.678,0.32 0.044,0.112 0.42,0.098 1.031,0.173 0.701,0.092 1.164,0.296 1.193,0.481 0.036,0.263 -0.323,0.027 -1.096,0.025 -1.033,-0.01 -1.339,-0.158 -1.722,0.2 -0.359,0.332 1.67,0.771 1.428,1.124 -0.325,0.463 -3.943,-1.213 -4.232,-1.923 -0.419,-1.032 0.539,-1.387 2.462,-1.632"
         style="fill:#ffcd9c;fill-opacity:1;fill-rule:nonzero;stroke:none;stroke-width:0.1"
         id="path1354" /><path
         d="m 568.06,511.501 c -0.603,-0.114 -1.258,-0.423 -1.297,-0.686 -0.026,-0.224 0.461,0.007 0.871,0.022 0.367,0.017 0.496,0.029 0.471,-0.075 -0.018,-0.065 -0.504,-0.182 -1.045,-0.331 -0.678,-0.184 -1.12,-0.415 -1.153,-0.673 -0.015,-0.247 0.422,-0.017 1.028,0.078 0.528,0.088 0.768,0.159 0.748,-0.094 -0.003,-0.12 -0.367,-0.218 -0.923,-0.482 -0.632,-0.3 -1.007,-0.636 -0.973,-0.821 0.053,-0.26 0.319,0.072 1.05,0.313 0.978,0.326 1.217,0.56 1.702,0.344 0.45,-0.207 -1.33,-1.252 -0.984,-1.508 0.463,-0.34 3.343,2.364 3.384,3.127 0.053,1.105 -0.973,1.146 -2.879,0.786"
         style="fill:#ffcd9c;fill-opacity:1;fill-rule:nonzero;stroke:none;stroke-width:0.1"
         id="path1356" /><path
         d="m 690.482,497.17 c 14.98,-14.397 50.389,-12.257 74.707,0.778 0,0 -16.926,-12.451 -41.439,-13.035 -25.321,-0.603 -33.268,12.257 -33.268,12.257"
         style="fill:#704b75;fill-opacity:1;fill-rule:nonzero;stroke:none;stroke-width:0.1"
         id="path1358" /><path
         d="m 655.876,542.369 -7.99,-69.92 h 5.194 l 5.194,69.92 h -2.398"
         style="fill:#5b314b;fill-opacity:1;fill-rule:nonzero;stroke:none;stroke-width:0.1"
         id="path1360" /><path
         d="m 826.879,542.369 7.991,-69.92 h -5.194 l -5.194,69.92 h 2.397"
         style="fill:#5b314b;fill-opacity:1;fill-rule:nonzero;stroke:none;stroke-width:0.1"
         id="path1362" /><path
         d="m 636.706,537.746 c 0,0 30.278,-40.083 80.673,-42.414 51.84,-2.397 109.234,43.204 109.234,43.204 l -189.907,-0.79"
         style="fill:#5b314b;fill-opacity:1;fill-rule:nonzero;stroke:none;stroke-width:0.1"
         id="path1364" /><path
         d="m 634.702,539.972 c 0,0 32.282,-38.713 82.677,-41.044 51.84,-2.397 112.397,41.643 112.397,41.643 l -195.074,-0.599"
         style="fill:#634666;fill-opacity:1;fill-rule:nonzero;stroke:none;stroke-width:0.1"
         id="path1366" /><path
         d="m 649.882,525.724 c 14.2,-11.298 37.685,-26.911 67.507,-28.291 45.501,-2.104 97.701,33.058 109.791,41.324 -60.403,-27.862 -117.546,-40.681 -177.298,-13.033"
         style="fill:#704b75;fill-opacity:1;fill-rule:nonzero;stroke:none;stroke-width:0.1"
         id="path1368" /><path
         d="m 805.904,542.369 7.99,-69.92 h -5.193 l -5.195,69.92 h 2.398"
         style="fill:#9b567c;fill-opacity:1;fill-rule:nonzero;stroke:none;stroke-width:0.1"
         id="path1370" /><path
         d="m 808.961,515.615 -3.057,26.754 h -2.398 l 2.457,-33.074 c 0.887,2.638 1.897,4.784 2.998,6.32"
         style="fill:#5b314b;fill-opacity:1;fill-rule:nonzero;stroke:none;stroke-width:0.1"
         id="path1372" /><path
         d="m 635.201,542.369 -7.992,-69.92 h 5.195 l 5.194,69.92 h -2.397"
         style="fill:#9b567c;fill-opacity:1;fill-rule:nonzero;stroke:none;stroke-width:0.1"
         id="path1374" /><path
         d="m 635.152,509.439 2.446,32.93 h -2.397 l -2.894,-25.319 c 1.107,-1.884 2.074,-4.486 2.845,-7.611"
         style="fill:#5b314b;fill-opacity:1;fill-rule:nonzero;stroke:none;stroke-width:0.1"
         id="path1376" /><path
         d="m 837.565,541.388 c 0.072,2.896 -24.725,-2.115 -110.249,-1.584 -85.525,0.531 -107.746,5.833 -107.818,2.938 -0.072,-2.895 22.032,-13.564 107.557,-14.094 85.525,-0.532 110.438,9.845 110.51,12.74"
         style="fill:#5b314b;fill-opacity:1;fill-rule:nonzero;stroke:none;stroke-width:0.1"
         id="path1378" /><path
         d="m 840.82,543.505 c 0.072,2.896 -25.461,-2.097 -113.539,-1.502 -88.078,0.594 -110.966,5.913 -111.038,3.018 -0.073,-2.895 22.699,-12.908 110.777,-13.503 88.078,-0.594 113.728,9.092 113.8,11.987"
         style="fill:#ffb452;fill-opacity:1;fill-rule:nonzero;stroke:none;stroke-width:0.1"
         id="path1380" /><path
         d="m 618.839,545.864 c 15.882,-3.708 48.195,-7.777 108.068,-8.275 61.661,-0.514 95.365,3.237 111.674,6.766 -7.854,0.546 -37.697,-2.27 -111.204,-1.774 -71.959,0.486 -100.497,3.546 -108.538,3.283"
         style="fill:#ffdb76;fill-opacity:1;fill-rule:nonzero;stroke:none;stroke-width:0.1"
         id="path1382" /><path
         d="m 803.49,539.585 c 0,-1.048 0.849,-1.898 1.897,-1.898 1.048,0 1.898,0.85 1.898,1.898 0,1.048 -0.85,1.898 -1.898,1.898 -1.048,0 -1.897,-0.85 -1.897,-1.898"
         style="fill:#5b314b;fill-opacity:1;fill-rule:nonzero;stroke:none;stroke-width:0.1"
         id="path1384" /><path
         d="m 633.885,541.183 c 0,-1.048 0.85,-1.898 1.899,-1.898 1.047,0 1.897,0.85 1.897,1.898 0,1.048 -0.85,1.898 -1.897,1.898 -1.049,0 -1.899,-0.85 -1.899,-1.898"
         style="fill:#5b314b;fill-opacity:1;fill-rule:nonzero;stroke:none;stroke-width:0.1"
         id="path1386" /><path
         d="m 790.237,653.829 c 1.23,-3.705 0.623,-7.32 -2.477,-12.2 -3.905,-6.148 -2.351,-12.429 3.404,-24.402 L 794,641.86 c 0.783,8.387 -3.763,11.969 -3.763,11.969"
         style="fill:#ff6a36;fill-opacity:1;fill-rule:nonzero;stroke:none;stroke-width:0.1"
         id="path1388" /><path
         d="m 803.81,598.901 -30.077,5.837 -0.229,-0.868 29.159,-8.827 1.147,3.858"
         style="fill:#ffb882;fill-opacity:1;fill-rule:nonzero;stroke:none;stroke-width:0.1"
         id="path1390" /><path
         d="m 792.709,601.056 c -1.094,-0.739 -2.752,-1.267 -4.799,-1.547 l 14.753,-4.466 1.147,3.858 -11.101,2.155"
         style="fill:#ff9566;fill-opacity:1;fill-rule:nonzero;stroke:none;stroke-width:0.1"
         id="path1392" /><path
         d="m 806.417,590.928 -11.771,0.091 2.471,10.763 12.287,-1.91 -2.987,-8.944"
         style="fill:#ff5444;fill-opacity:1;fill-rule:nonzero;stroke:none;stroke-width:0.1"
         id="path1394" /><path
         d="m 795.423,594.408 -0.777,-3.389 11.475,-1.124 1.666,5.137 c -3.635,-1.407 -8.482,-1.647 -12.364,-0.624"
         style="fill:#ea332a;fill-opacity:1;fill-rule:nonzero;stroke:none;stroke-width:0.1"
         id="path1396" /><path
         d="m 784.364,580.646 -30.59,1.717 -0.106,-0.869 30.081,-4.825 0.615,3.977"
         style="fill:#ffb882;fill-opacity:1;fill-rule:nonzero;stroke:none;stroke-width:0.1"
         id="path1398" /><path
         d="m 772.633,581.304 c -1.009,-0.808 -2.421,-1.559 -4.119,-2.191 l 15.235,-2.444 0.615,3.977 -11.731,0.658"
         style="fill:#ff9566;fill-opacity:1;fill-rule:nonzero;stroke:none;stroke-width:0.1"
         id="path1400" /><path
         d="m 784.059,573.143 -33.169,1.706 -0.233,-0.742 32.807,-4.722 0.595,3.758"
         style="fill:#ffb882;fill-opacity:1;fill-rule:nonzero;stroke:none;stroke-width:0.1"
         id="path1402" /><path
         d="m 774.299,573.645 c -0.691,-0.884 -1.583,-1.745 -2.647,-2.56 l 11.812,-1.7 0.595,3.758 -9.76,0.502"
         style="fill:#ff9566;fill-opacity:1;fill-rule:nonzero;stroke:none;stroke-width:0.1"
         id="path1404" /><path
         d="m 805.374,573.378 c 0,0 -8.213,-7.223 -24.157,-15.418 l -3.101,26.028 c 0,0 15.614,3.253 18.653,3.251 3.04,-0.003 11.597,-8.413 8.605,-13.861"
         style="fill:#ffdf99;fill-opacity:1;fill-rule:nonzero;stroke:none;stroke-width:0.1"
         id="path1406" /><path
         d="m 796.769,587.239 c -1.432,10e-4 -5.651,-0.72 -9.717,-1.483 6.466,-13.399 -3.094,-21.617 -6.441,-22.71 l 0.606,-5.086 c 15.944,8.195 24.157,15.418 24.157,15.418 2.992,5.448 -5.565,13.858 -8.605,13.861"
         style="fill:#f9cc73;fill-opacity:1;fill-rule:nonzero;stroke:none;stroke-width:0.1"
         id="path1408" /><path
         d="m 787.843,586.489 10.551,-18.91 c 0,0 19.476,11.116 20.69,25.444 0.363,4.264 -3.806,6.121 -6.359,6.533 -3.386,0.547 -6.701,0.951 -7.465,-1.199 -1.962,-5.529 -6.144,-10.248 -17.417,-11.868"
         style="fill:#ff5444;fill-opacity:1;fill-rule:nonzero;stroke:none;stroke-width:0.1"
         id="path1410" /><path
         d="m 816.888,593.312 c -2.55,-3.795 -5.227,-11.379 -20.963,-21.308 l 2.469,-4.425 c 0,0 20.656,11.352 21.872,25.68 0.255,3.004 -1.284,-0.898 -3.378,0.053"
         style="fill:#ea332a;fill-opacity:1;fill-rule:nonzero;stroke:none;stroke-width:0.1"
         id="path1412" /><path
         d="m 821.923,595.543 24.32,18.626 -0.804,1.206 -25.642,-16.415 2.126,-3.417"
         style="fill:#ffb882;fill-opacity:1;fill-rule:nonzero;stroke:none;stroke-width:0.1"
         id="path1414" /><path
         d="m 828.207,600.955 c -0.61,0.744 -0.559,1.944 0.011,3.396 l -8.421,-5.391 2.126,-3.417 6.641,5.086 c -0.133,0.094 -0.254,0.201 -0.357,0.326"
         style="fill:#ff9566;fill-opacity:1;fill-rule:nonzero;stroke:none;stroke-width:0.1"
         id="path1416" /><path
         d="m 814.991,598.05 9.257,4.474 3.193,-10.571 -12.855,-4.92 0.405,11.017"
         style="fill:#ff5444;fill-opacity:1;fill-rule:nonzero;stroke:none;stroke-width:0.1"
         id="path1418" /><path
         d="m 814.69,589.845 -0.59,-4.438 13.341,6.546 -0.961,3.18 -11.79,-5.288"
         style="fill:#ea332a;fill-opacity:1;fill-rule:nonzero;stroke:none;stroke-width:0.1"
         id="path1420" /><path
         d="m 806.677,600.296 c -1.642,-3.509 3.656,-4.058 9.069,-1.756 -0.787,0.901 -4.429,3.307 -9.069,1.756"
         style="fill:#ffdf99;fill-opacity:1;fill-rule:nonzero;stroke:none;stroke-width:0.1"
         id="path1422" /><path
         d="m 815.678,606.732 -8.034,-1.923 0.205,-4.616 c 1.135,-1.776 3.006,-2.046 6.663,-1.148 l 1.166,7.687"
         style="fill:#ffb288;fill-opacity:1;fill-rule:nonzero;stroke:none;stroke-width:0.1"
         id="path1424" /><path
         d="m 815.874,598.477 c 0,0 0,0 -10e-4,0 l 7.99,3.861 c -0.001,0 -0.001,-10e-4 -0.002,-10e-4 l -7.987,-3.86 m -9.197,1.819 v 0 c 0.022,0.007 0.044,0.014 0.066,0.021 -0.022,-0.007 -0.044,-0.014 -0.066,-0.021"
         style="fill:#d48f8f;fill-opacity:1;fill-rule:nonzero;stroke:none;stroke-width:0.1"
         id="path1426" /><path
         d="m 803.123,594.148 c -0.133,0.103 -0.253,0.221 -0.361,0.352 -1.199,1.459 -1.435,4.16 -1.354,6.615 l 5.268,-0.819 h 10e-4 v 0 0 c -0.114,-0.243 -0.194,-0.472 -0.243,-0.687 -0.553,-0.255 -0.962,-0.655 -1.174,-1.252 -0.523,-1.475 -1.205,-2.893 -2.137,-4.209"
         style="fill:#d42f26;fill-opacity:1;fill-rule:nonzero;stroke:none;stroke-width:0.1"
         id="path1428" /><path
         d="m 805.233,593.549 c -0.883,0 -1.591,0.195 -2.11,0.599 0.932,1.316 1.614,2.734 2.137,4.209 0.212,0.597 0.621,0.997 1.174,1.252 -0.379,-1.643 1.061,-2.456 3.3,-2.456 1.693,0 3.843,0.465 6.012,1.387 v 0 l 0.124,-0.064 0.003,10e-4 c 10e-4,0 10e-4,0 10e-4,0 l -0.883,-0.427 -0.039,-1.052 c -4.181,-2.219 -7.5,-3.449 -9.719,-3.449 m 10.513,4.991 c -0.002,0.003 -0.004,0.005 -0.007,0.008 0.003,-0.003 0.005,-0.005 0.007,-0.008"
         style="fill:#d42f26;fill-opacity:1;fill-rule:nonzero;stroke:none;stroke-width:0.1"
         id="path1430" /><path
         d="m 815.737,598.55 v 0 c -0.004,0.005 -0.007,0.009 -0.011,0.013 0.004,-0.004 0.008,-0.008 0.011,-0.013"
         style="fill:#d48f8f;fill-opacity:1;fill-rule:nonzero;stroke:none;stroke-width:0.1"
         id="path1432" /><path
         d="m 815.739,598.548 c -10e-4,10e-4 -10e-4,0.002 -0.002,0.002 v 0 c 0.001,0 0.002,-10e-4 0.002,-0.002"
         style="fill:#d42f26;fill-opacity:1;fill-rule:nonzero;stroke:none;stroke-width:0.1"
         id="path1434" /><path
         d="m 807.644,604.809 4.73,1.133 h 10e-4 l -4.731,-1.133"
         style="fill:#d48f8f;fill-opacity:1;fill-rule:nonzero;stroke:none;stroke-width:0.1"
         id="path1436" /><path
         d="m 814.952,596.998 0.039,1.052 0.883,0.427 7.987,3.86 c -3.273,-2.135 -6.264,-3.935 -8.909,-5.339"
         style="fill:#d42f26;fill-opacity:1;fill-rule:nonzero;stroke:none;stroke-width:0.1"
         id="path1438" /><path
         d="m 809.734,597.153 c -2.239,0 -3.679,0.813 -3.3,2.456 0.049,0.215 0.129,0.444 0.243,0.687 v 0 c 0.022,0.007 0.044,0.014 0.066,0.021 0.373,0.119 0.73,0.183 1.089,0.257 l 0.017,-0.381 c 0.72,-1.128 1.738,-1.648 3.32,-1.648 0.91,0 2.007,0.172 3.343,0.5 l 0.062,0.409 c 0.543,-0.332 0.941,-0.658 1.152,-0.891 0.004,-0.004 0.007,-0.008 0.011,-0.013 0.001,0 0.001,-10e-4 0.002,-0.002 v 0 c 0.003,-0.003 0.005,-0.005 0.007,-0.008 v 0 c -2.169,-0.922 -4.319,-1.387 -6.012,-1.387"
         style="fill:#d47d56;fill-opacity:1;fill-rule:nonzero;stroke:none;stroke-width:0.1"
         id="path1440" /><path
         d="m 811.169,598.545 c -1.582,0 -2.6,0.52 -3.32,1.648 l -0.017,0.381 v 0 l -0.188,4.235 4.731,1.133 3.164,-0.123 -0.965,-6.365 v 0 l -0.062,-0.409 c -1.336,-0.328 -2.433,-0.5 -3.343,-0.5"
         style="fill:#d4634c;fill-opacity:1;fill-rule:nonzero;stroke:none;stroke-width:0.1"
         id="path1442" /><path
         d="m 813.311,660.022 c 3.246,9.338 -15.05,16.835 -15.05,16.835 0,0 11.218,-10.03 1.32,-21.562 -13.494,-15.725 -12.95,-36.934 -4.685,-43.554 l 23.833,-6.888 c 11.646,5.08 15.558,17.567 11.404,25.641 -4.153,8.074 -20.069,20.19 -16.822,29.528"
         style="fill:#ff6a36;fill-opacity:1;fill-rule:nonzero;stroke:none;stroke-width:0.1"
         id="path1444" /><path
         d="m 816.235,631.534 c -3.98,-8.061 -2.137,-16.406 2.494,-26.681 11.646,5.08 16.802,17.718 12.648,25.791 -4.153,8.074 -17.912,22.067 -16.409,29.257 0.507,2.42 -1.247,5.188 -2.639,6.691 2.867,-8.968 -9.933,-12.495 3.906,-35.058"
         style="fill:#e24a2b;fill-opacity:1;fill-rule:nonzero;stroke:none;stroke-width:0.1"
         id="path1446" /><path
         d="m 794.311,613.563 c 1.404,-8.638 3.727,-13.53 18.768,-11.33 8.125,1.189 14.625,10.669 10.871,20.168 -3.629,9.182 -10.866,13.839 -19.333,11.777 -13.937,-3.393 -11.219,-14.991 -10.306,-20.615"
         style="fill:#ffb882;fill-opacity:1;fill-rule:nonzero;stroke:none;stroke-width:0.1"
         id="path1448" /><path
         d="m 816.432,634.139 c 3.292,-4.676 -4.535,-12.137 4.953,-25.9 0,0 6.484,1.729 5.971,10.847 -0.638,11.346 -10.924,15.053 -10.924,15.053"
         style="fill:#e24a2b;fill-opacity:1;fill-rule:nonzero;stroke:none;stroke-width:0.1"
         id="path1450" /><path
         d="m 820.051,607.136 c 4.639,1.259 7.51,4.104 6.126,6.396 -1.384,2.292 -5.223,-1.027 -5.942,-2.252 -0.72,-1.225 -0.184,-4.144 -0.184,-4.144"
         style="fill:#ffb882;fill-opacity:1;fill-rule:nonzero;stroke:none;stroke-width:0.1"
         id="path1452" /><path
         d="m 821.113,608.254 c 2.684,0.729 4.344,2.375 3.543,3.702 -0.802,1.327 -3.024,-0.594 -3.44,-1.303 -0.416,-0.709 -0.103,-2.399 -0.103,-2.399"
         style="fill:#ea7b59;fill-opacity:1;fill-rule:nonzero;stroke:none;stroke-width:0.1"
         id="path1454" /><path
         d="m 820.794,608.145 c 1.664,0.451 2.694,1.472 2.197,2.294 -0.497,0.822 -1.874,-0.368 -2.132,-0.807 -0.257,-0.44 -0.065,-1.487 -0.065,-1.487"
         style="fill:#ffb882;fill-opacity:1;fill-rule:nonzero;stroke:none;stroke-width:0.1"
         id="path1456" /><path
         d="m 812.242,664.279 c -0.447,-6.214 0.612,-12.997 3.504,-18.644 0,0 -7.09,5.804 -6.949,11.121 0.141,5.317 3.445,7.523 3.445,7.523"
         style="fill:#ff6a36;fill-opacity:1;fill-rule:nonzero;stroke:none;stroke-width:0.1"
         id="path1458" /><path
         d="m 751.916,574.293 c -0.313,-1.366 -2.152,-1.642 -2.152,-1.642 0,0 -2.991,4.133 -3.534,7.55 0,0 6.064,-4.264 5.686,-5.908"
         style="fill:#fff1d4;fill-opacity:1;fill-rule:nonzero;stroke:none;stroke-width:0.1"
         id="path1460" /><path
         d="m 754.664,581.634 c -0.313,-1.366 -2.151,-1.643 -2.151,-1.643 0,0 -2.992,4.133 -3.535,7.55 0,0 6.065,-4.263 5.686,-5.907"
         style="fill:#fff1d4;fill-opacity:1;fill-rule:nonzero;stroke:none;stroke-width:0.1"
         id="path1462" /><path
         d="m 795.893,618.663 c 0.19,2.318 1.699,4.093 3.37,3.966 1.671,-0.127 2.872,-2.109 2.683,-4.426 -0.19,-2.317 -1.586,-3.051 -3.258,-2.923 -1.671,0.127 -2.984,1.066 -2.795,3.383"
         style="fill:#ff6a36;fill-opacity:1;fill-rule:nonzero;stroke:none;stroke-width:0.1"
         id="path1464" /><path
         d="m 807.164,618.613 c 0.189,2.317 1.698,4.093 3.369,3.966 1.672,-0.127 2.873,-2.109 2.683,-4.427 -0.19,-2.317 -1.587,-3.05 -3.258,-2.923 -1.671,0.127 -2.985,1.066 -2.794,3.384"
         style="fill:#ff6a36;fill-opacity:1;fill-rule:nonzero;stroke:none;stroke-width:0.1"
         id="path1466" /><path
         d="m 807.045,617.877 c 0.069,2.473 1.507,4.357 3.211,4.208 1.704,-0.15 3.031,-2.277 2.962,-4.751 -0.068,-2.474 -1.448,-3.245 -3.152,-3.095 -1.705,0.149 -3.089,1.164 -3.021,3.638"
         style="fill:#fffbdd;fill-opacity:1;fill-rule:nonzero;stroke:none;stroke-width:0.1"
         id="path1468" /><path
         d="m 807.747,618.083 c -0.078,1.33 0.618,2.443 1.552,2.485 0.935,0.042 1.756,-1.003 1.833,-2.333 0.078,-1.33 -0.617,-2.442 -1.551,-2.484 -0.935,-0.042 -1.756,1.002 -1.834,2.332"
         style="fill:#3f7fa5;fill-opacity:1;fill-rule:nonzero;stroke:none;stroke-width:0.1"
         id="path1470" /><path
         d="m 807.665,619.198 c -0.03,0.514 0.239,0.943 0.6,0.959 0.361,0.016 0.679,-0.387 0.708,-0.9 0.03,-0.514 -0.238,-0.944 -0.599,-0.96 -0.361,-0.017 -0.678,0.387 -0.709,0.901"
         style="fill:#fffbdd;fill-opacity:1;fill-rule:nonzero;stroke:none;stroke-width:0.1"
         id="path1472" /><path
         d="m 815.254,620.936 -0.705,-0.438 c -0.144,1.057 -2.261,5.841 -5.448,6.438 l 0.411,0.765 c 0,0 5.075,-1.723 5.742,-6.765"
         style="fill:#b74941;fill-opacity:1;fill-rule:nonzero;stroke:none;stroke-width:0.1"
         id="path1474" /><path
         d="m 795.609,617.911 c 0.189,2.317 1.698,4.093 3.37,3.966 1.671,-0.128 2.872,-2.11 2.683,-4.427 -0.19,-2.318 -1.586,-3.05 -3.258,-2.923 -1.671,0.127 -2.985,1.066 -2.795,3.384"
         style="fill:#fffbdd;fill-opacity:1;fill-rule:nonzero;stroke:none;stroke-width:0.1"
         id="path1476" /><path
         d="m 796.289,617.927 c -0.013,1.242 0.743,2.317 1.688,2.402 0.946,0.084 1.723,-0.853 1.736,-2.094 0.013,-1.242 -0.743,-2.316 -1.688,-2.401 -0.945,-0.085 -1.723,0.852 -1.736,2.093"
         style="fill:#3f7fa5;fill-opacity:1;fill-rule:nonzero;stroke:none;stroke-width:0.1"
         id="path1478" /><path
         d="m 796.261,618.967 c -0.005,0.479 0.287,0.895 0.653,0.928 0.365,0.032 0.666,-0.33 0.67,-0.809 0.005,-0.48 -0.287,-0.895 -0.652,-0.927 -0.365,-0.033 -0.666,0.329 -0.671,0.808"
         style="fill:#fffbdd;fill-opacity:1;fill-rule:nonzero;stroke:none;stroke-width:0.1"
         id="path1480" /><path
         d="m 794.887,624.046 0.567,-0.293 c 0.302,0.847 2.452,3.485 4.899,2.681 l 0.006,1.041 c 0,0 -4.042,0.621 -5.472,-3.429"
         style="fill:#b74941;fill-opacity:1;fill-rule:nonzero;stroke:none;stroke-width:0.1"
         id="path1482" /><path
         d="m 808.299,610.083 -7.911,-0.183 c 0,0 0.812,-3.083 3.495,-3.287 3.051,-0.233 4.416,3.47 4.416,3.47"
         style="fill:#763224;fill-opacity:1;fill-rule:nonzero;stroke:none;stroke-width:0.1"
         id="path1484" /><path
         d="m 807.528,609.799 -6.614,-0.116 c 0,0 0.609,-1.952 2.951,-2.079 2.615,-0.141 3.663,2.195 3.663,2.195"
         style="fill:#fffbdd;fill-opacity:1;fill-rule:nonzero;stroke:none;stroke-width:0.1"
         id="path1486" /><path
         d="m 802.079,613.75 c 0.301,0.925 1.341,1.608 1.341,1.608 l 1.787,-2.681 c -1.743,-1.192 -3.513,-0.109 -3.128,1.073"
         style="fill:#ea7b59;fill-opacity:1;fill-rule:nonzero;stroke:none;stroke-width:0.1"
         id="path1488" /><path
         d="m 802.656,613.895 c 0.188,0.719 0.979,1.283 0.979,1.283 l 1.443,-2.142 c -1.331,-0.824 -2.65,-0.008 -2.422,0.859"
         style="fill:#ffb882;fill-opacity:1;fill-rule:nonzero;stroke:none;stroke-width:0.1"
         id="path1490" /><path
         d="m 803.398,605.154 c 0.012,0.146 0.562,0.218 1.229,0.161 0.668,-0.056 1.2,-0.221 1.188,-0.367 -0.012,-0.146 -0.563,-0.219 -1.231,-0.162 -0.667,0.057 -1.198,0.221 -1.186,0.368"
         style="fill:#ea7b59;fill-opacity:1;fill-rule:nonzero;stroke:none;stroke-width:0.1"
         id="path1492" /><path
         d="m 840.957,610.233 c 1.922,0.963 4.174,0.587 5.207,1.784 0.802,0.933 -0.3,4.143 -1.137,4.218 -0.837,0.074 -5.19,-4.464 -5.19,-4.464 l 1.12,-1.538"
         style="fill:#ffb882;fill-opacity:1;fill-rule:nonzero;stroke:none;stroke-width:0.1"
         id="path1494" /><path
         d="m 841.099,612.907 c 0.725,1.616 1.054,4.715 1.233,5.279 0.179,0.564 0.843,0.27 0.864,-1.352 0.019,-1.621 -0.438,-2.058 0.28,-2.466 0.792,-0.448 -2.728,-2.242 -2.377,-1.461"
         style="fill:#ffb882;fill-opacity:1;fill-rule:nonzero;stroke:none;stroke-width:0.1"
         id="path1496" /><path
         d="m 844.941,614.858 c 1.066,1.057 3.618,3.534 3.253,3.878 -0.364,0.343 -4.319,-3.147 -4.319,-3.147 l 1.066,-0.731"
         style="fill:#ffb882;fill-opacity:1;fill-rule:nonzero;stroke:none;stroke-width:0.1"
         id="path1498" /><path
         d="m 845.672,613.559 c 1.231,0.861 4.164,2.871 3.863,3.272 -0.302,0.4 -4.788,-2.371 -4.788,-2.371 l 0.925,-0.901"
         style="fill:#ffb882;fill-opacity:1;fill-rule:nonzero;stroke:none;stroke-width:0.1"
         id="path1500" /><path
         d="m 845.342,611.466 c 1.392,0.562 4.701,1.861 4.498,2.318 -0.204,0.458 -5.197,-1.232 -5.197,-1.232 l 0.699,-1.086"
         style="fill:#ffb882;fill-opacity:1;fill-rule:nonzero;stroke:none;stroke-width:0.1"
         id="path1502" /><path
         d="m 777.334,602.771 c -1.752,-0.153 -3.159,-1.35 -4.39,-0.973 -0.96,0.295 -1.568,2.926 -1.017,3.327 0.552,0.401 6.223,-1.213 6.223,-1.213 l -0.816,-1.141"
         style="fill:#ffb882;fill-opacity:1;fill-rule:nonzero;stroke:none;stroke-width:0.1"
         id="path1504" /><path
         d="m 776.09,604.52 c -1.198,0.789 -2.755,2.746 -3.121,3.053 -0.367,0.306 -0.704,-0.171 -0.022,-1.276 0.68,-1.104 1.186,-1.208 0.86,-1.784 -0.358,-0.635 2.861,-0.374 2.283,0.007"
         style="fill:#ffb882;fill-opacity:1;fill-rule:nonzero;stroke:none;stroke-width:0.1"
         id="path1506" /><path
         d="m 772.662,604.076 c -1.174,0.387 -3.961,1.273 -3.852,1.667 0.108,0.393 4.281,-0.722 4.281,-0.722 l -0.429,-0.945"
         style="fill:#ffb882;fill-opacity:1;fill-rule:nonzero;stroke:none;stroke-width:0.1"
         id="path1508" /><path
         d="m 772.624,603.046 c -1.226,0.068 -4.13,0.198 -4.092,0.595 0.039,0.397 4.351,0.402 4.351,0.402 l -0.259,-0.997"
         style="fill:#ffb882;fill-opacity:1;fill-rule:nonzero;stroke:none;stroke-width:0.1"
         id="path1510" /><path
         d="m 773.751,601.769 c -1.211,-0.202 -4.072,-0.71 -4.126,-0.315 -0.054,0.395 4.148,1.342 4.148,1.342 l -0.022,-1.027"
         style="fill:#ffb882;fill-opacity:1;fill-rule:nonzero;stroke:none;stroke-width:0.1"
         id="path1512" /><path
         d="m 715.489,569.486 -7.009,-0.914 2.618,8.843 z"
         style="fill:#f96d30;fill-opacity:1;fill-rule:nonzero;stroke:none;stroke-width:0.1"
         id="path1514" /><path
         d="m 695.904,569.651 -6.965,1.207 5.126,7.668 z"
         style="fill:#f96d30;fill-opacity:1;fill-rule:nonzero;stroke:none;stroke-width:0.1"
         id="path1516" /><path
         d="m 693.837,569.836 17.104,-35.963 1.623,0.141 -13.125,38.202 -5.602,-2.38"
         style="fill:#ffb882;fill-opacity:1;fill-rule:nonzero;stroke:none;stroke-width:0.1"
         id="path1518" /><path
         d="m 706.57,551.462 -7.131,20.754 -5.602,-2.38 11.369,-23.904 c 0.134,2.392 0.602,4.327 1.364,5.53"
         style="fill:#ff9566;fill-opacity:1;fill-rule:nonzero;stroke:none;stroke-width:0.1"
         id="path1520" /><path
         d="m 704.082,572.219 12.178,-37.711 1.612,0.002 -7.985,39.621 -5.805,-1.912"
         style="fill:#ffb882;fill-opacity:1;fill-rule:nonzero;stroke:none;stroke-width:0.1"
         id="path1522" /><path
         d="m 714.622,550.638 -4.735,23.493 -5.805,-1.912 9.068,-28.078 c 0.334,2.78 0.849,5.044 1.472,6.497"
         style="fill:#ff9566;fill-opacity:1;fill-rule:nonzero;stroke:none;stroke-width:0.1"
         id="path1524" /><path
         d="m 713.938,595.521 18.122,-18.925 0.797,0.331 -16.657,20.868 -2.262,-2.274"
         style="fill:#ffb882;fill-opacity:1;fill-rule:nonzero;stroke:none;stroke-width:0.1"
         id="path1526" /><path
         d="m 723.724,588.369 -7.524,9.426 -2.262,-2.274 9.875,-10.312 c -0.135,1.144 -0.162,2.206 -0.089,3.16"
         style="fill:#ff9566;fill-opacity:1;fill-rule:nonzero;stroke:none;stroke-width:0.1"
         id="path1528" /><path
         d="m 691.946,601.193 -23.496,-11.599 0.076,-0.859 24.909,9.617 -1.489,2.841"
         style="fill:#ffb882;fill-opacity:1;fill-rule:nonzero;stroke:none;stroke-width:0.1"
         id="path1530" /><path
         d="m 684.798,595.018 8.637,3.334 -1.489,2.841 -10.39,-5.129 c 1.339,-0.207 2.447,-0.565 3.242,-1.046"
         style="fill:#ff9566;fill-opacity:1;fill-rule:nonzero;stroke:none;stroke-width:0.1"
         id="path1532" /><path
         d="m 698.285,554.949 8.01,1.266 -1.594,7.096 0.866,-0.067 2.116,-7.05 7.828,0.823 -3.446,18.711 -19.917,2.237 c 0,0 -2.734,-6.481 6.137,-23.016"
         style="fill:#ff5a5a;fill-opacity:1;fill-rule:nonzero;stroke:none;stroke-width:0.1"
         id="path1534" /><path
         d="m 707.327,570.228 c 2.576,-0.302 4.683,-0.925 6.057,-1.662 l -1.318,7.162 -19.918,2.237 c 0,0 -3.477,-6.589 5.393,-23.125 l 3.366,0.523 c -4.18,8.379 -8.947,16.668 6.42,14.865"
         style="fill:#e53c3c;fill-opacity:1;fill-rule:nonzero;stroke:none;stroke-width:0.1"
         id="path1536" /><path
         d="m 707.927,564.964 c -1.255,-0.025 -2.942,-0.72 -4.539,-0.523 0.401,-0.825 1.351,-1.814 1.705,-2.876 l -0.392,1.746 0.866,-0.067 1.793,-7.226 1.695,0.32 c -1.148,2.622 -1.52,6.317 -1.128,8.626"
         style="fill:#e53c3c;fill-opacity:1;fill-rule:nonzero;stroke:none;stroke-width:0.1"
         id="path1538" /><path
         d="m 716.95,586.565 6.001,5.356 c 0,0 -8.552,11.835 -10.367,11.461 -1.813,-0.375 -0.869,-9.87 -0.314,-10.873 0.555,-1.003 4.68,-5.944 4.68,-5.944"
         style="fill:#ffe05c;fill-opacity:1;fill-rule:nonzero;stroke:none;stroke-width:0.1"
         id="path1540" /><path
         d="m 711.53,599.396 c -0.033,-2.862 -0.173,-6.62 0.149,-7.202 0.555,-1.003 5.271,-5.629 5.271,-5.629 l 1.922,1.715 c -3.12,4.088 -6.761,8.933 -7.342,11.116"
         style="fill:#ffcd50;fill-opacity:1;fill-rule:nonzero;stroke:none;stroke-width:0.1"
         id="path1542" /><path
         d="m 688.913,570.85 c 6.72,5.316 23.914,1.032 26.576,-1.364 0,0 -2.814,22.231 -0.667,29.777 2.145,7.546 -15.913,11.705 -20.304,-0.242 -4.391,-11.947 -5.605,-28.171 -5.605,-28.171"
         style="fill:#ffe05c;fill-opacity:1;fill-rule:nonzero;stroke:none;stroke-width:0.1"
         id="path1544" /><path
         d="m 696.203,583.641 c 0.361,9.654 1.672,14.461 4.83,19.491 -3.157,-1.385 -5.08,-0.208 -6.515,-4.111 -4.391,-11.947 -5.605,-28.171 -5.605,-28.171 1.911,1.511 4.669,2.245 7.698,2.469 -0.388,3.196 -0.544,6.672 -0.408,10.322"
         style="fill:#ffcd50;fill-opacity:1;fill-rule:nonzero;stroke:none;stroke-width:0.1"
         id="path1546" /><path
         d="m 689.17,593.104 -3.804,7.983 c 0,0 16.68,6.063 18.634,4.896 1.953,-1.167 -4.953,-8.584 -6.002,-9.24 -1.051,-0.656 -8.828,-3.639 -8.828,-3.639"
         style="fill:#ffe05c;fill-opacity:1;fill-rule:nonzero;stroke:none;stroke-width:0.1"
         id="path1548" /><path
         d="m 687.943,595.681 1.278,-3.196 c 0,0 7.726,3.602 8.776,4.258 0.23,0.144 0.749,0.623 1.386,1.279 -3.912,-0.874 -9.506,-1.967 -11.44,-2.341"
         style="fill:#ffcd50;fill-opacity:1;fill-rule:nonzero;stroke:none;stroke-width:0.1"
         id="path1550" /><path
         d="m 703.255,606.3 c 1.972,-3.769 9.166,-9.1 11.141,-3.668 -1.204,2.943 -6.266,5.154 -11.141,3.668"
         style="fill:#ff5a5a;fill-opacity:1;fill-rule:nonzero;stroke:none;stroke-width:0.1"
         id="path1552" /><path
         d="m 714.065,609.823 -6.865,2.269 -1.804,-5.876 c 1.164,-2.211 5.327,-4.114 7.188,-2.834 l 1.481,6.441"
         style="fill:#ffb288;fill-opacity:1;fill-rule:nonzero;stroke:none;stroke-width:0.1"
         id="path1554" /><path
         d="m 712.87,604.625 v 0 l 1.195,5.198 -1.195,-5.198 m -9.569,1.689 c 0.072,0.021 0.144,0.042 0.216,0.062 -0.071,-0.02 -0.142,-0.04 -0.214,-0.062 -10e-4,0 -10e-4,0 -0.002,0 m 2.255,0.424 1.644,5.354 -1.644,-5.354 v 0"
         style="fill:#d48f8f;fill-opacity:1;fill-rule:nonzero;stroke:none;stroke-width:0.1"
         id="path1556" /><path
         d="m 714.501,597.833 c 0.092,0.52 0.198,0.999 0.321,1.43 0.277,0.974 0.217,1.893 -0.107,2.727 0.534,-0.515 1.124,-1.149 1.733,-1.838 -0.542,-0.849 -1.206,-1.637 -1.947,-2.319"
         style="fill:#d47e34;fill-opacity:1;fill-rule:nonzero;stroke:none;stroke-width:0.1"
         id="path1558" /><path
         d="m 708.969,595.34 c -0.362,0 -0.721,0.036 -1.071,0.112 -3.554,0.768 -5.33,2.772 -6.523,4.787 1.316,1.582 2.572,3.353 2.892,4.537 1.779,-2.236 4.787,-4.46 7.15,-4.46 1.283,-10e-4 2.375,0.654 2.979,2.316 v 0 c 0.119,-0.205 0.223,-0.415 0.307,-0.631 0.004,-0.004 0.008,-0.008 0.012,-0.011 0.324,-0.834 0.384,-1.753 0.107,-2.727 -0.123,-0.431 -0.229,-0.91 -0.321,-1.43 -1.633,-1.504 -3.639,-2.493 -5.532,-2.493 m 5.427,7.292 c -0.003,0.007 -0.006,0.014 -0.009,0.022 0.003,-0.008 0.006,-0.015 0.009,-0.022 m -0.013,0.031 c -0.002,0.004 -0.003,0.007 -0.005,0.011 0.002,-0.004 0.003,-0.007 0.005,-0.011 m -12.167,3.4 c 0.345,0.093 0.692,0.174 1.04,0.237 0.015,0.005 0.03,0.009 0.045,0.014 10e-4,0 10e-4,0 0.002,0 -0.016,-0.005 -0.032,-0.01 -0.048,-0.014 0.03,-0.057 0.061,-0.114 0.093,-0.171 -0.058,0.002 -0.119,0.003 -0.182,0.003 -0.272,0 -0.591,-0.024 -0.95,-0.069"
         style="fill:#d47e34;fill-opacity:1;fill-rule:nonzero;stroke:none;stroke-width:0.1"
         id="path1560" /><path
         d="m 701.375,600.239 c -1.248,2.108 -1.858,4.228 -3.2,4.956 1.55,0.41 2.965,0.73 4.027,0.864 0.004,0.002 0.009,0.003 0.014,0.004 0.359,0.045 0.678,0.069 0.95,0.069 0.063,0 0.124,-10e-4 0.182,-0.003 0.244,-0.44 0.556,-0.896 0.919,-1.353 -0.32,-1.184 -1.576,-2.955 -2.892,-4.537"
         style="fill:#d47e34;fill-opacity:1;fill-rule:nonzero;stroke:none;stroke-width:0.1"
         id="path1562" /><path
         d="m 711.417,600.316 c -2.363,0 -5.371,2.224 -7.15,4.46 -0.363,0.457 -0.675,0.913 -0.919,1.353 -0.032,0.057 -0.063,0.114 -0.093,0.171 0.016,0.004 0.032,0.009 0.048,0.014 0.072,0.022 0.143,0.042 0.214,0.062 0.681,0.187 1.363,0.298 2.036,0.353 l 0.003,0.009 v 0 l -0.16,-0.522 c 0.903,-1.717 3.614,-3.247 5.653,-3.247 0.587,0 1.119,0.127 1.535,0.413 l 0.286,1.243 v 0 -0.003 c 0.686,-0.579 1.209,-1.241 1.508,-1.948 0.002,-0.004 0.003,-0.007 0.005,-0.011 10e-4,-0.003 0.003,-0.006 0.004,-0.009 0.003,-0.008 0.006,-0.015 0.009,-0.022 v 0 c -0.604,-1.662 -1.696,-2.317 -2.979,-2.316"
         style="fill:#d43232;fill-opacity:1;fill-rule:nonzero;stroke:none;stroke-width:0.1"
         id="path1564" /><path
         d="m 711.049,602.969 c -2.039,0 -4.75,1.53 -5.653,3.247 l 0.16,0.522 1.644,5.354 6.865,-2.269 -1.195,-5.198 -0.286,-1.243 c -0.416,-0.286 -0.948,-0.413 -1.535,-0.413"
         style="fill:#d4634c;fill-opacity:1;fill-rule:nonzero;stroke:none;stroke-width:0.1"
         id="path1566" /><path
         d="m 731.916,654.82 c 0,0 0.563,-4.245 -0.25,-4.983 -0.812,-0.739 -2.115,0.855 -4.475,4.954 -3.911,6.792 -15.014,9.105 -15.014,9.105 1.977,-1.771 0.974,-6.674 -0.42,-6.817 -3.51,-0.361 -6.798,4.468 -11.082,4.377 1.899,-2.352 2.149,-11.2 -1.809,-15.465 -3.957,-4.265 -5.096,-11.686 -5.016,-17.347 0.08,-5.662 4.07,-15.937 11.864,-19.137 l 21.786,3.121 c 17.997,19.463 4.416,42.192 4.416,42.192"
         style="fill:#cc5444;fill-opacity:1;fill-rule:nonzero;stroke:none;stroke-width:0.1"
         id="path1568" /><path
         d="m 711.098,619.772 c 3.102,22.391 -7.447,40.262 -10.423,41.684 1.171,-5.785 0.415,-12.185 -2.553,-14.803 -4.362,-3.85 -5.141,-12.375 -5.061,-18.037 0.08,-5.662 4.859,-15.909 12.653,-19.109 l 5.384,10.265"
         style="fill:#b23329;fill-opacity:1;fill-rule:nonzero;stroke:none;stroke-width:0.1"
         id="path1570" /><path
         d="m 731.632,624.489 c 0.694,10.324 -0.557,17.122 -16.51,16.549 -12.219,-0.438 -17.361,-8.531 -16.463,-18.838 0.898,-10.308 8.133,-17.455 16.757,-18.046 15.747,-1.081 15.759,13.521 16.216,20.335"
         style="fill:#ffb882;fill-opacity:1;fill-rule:nonzero;stroke:none;stroke-width:0.1"
         id="path1572" /><path
         d="m 701.003,615.525 c 4.422,2.909 1.862,21.993 9.716,25.135 0,0 -5.294,4.073 -11.578,-3.549 -6.283,-7.622 1.862,-21.586 1.862,-21.586"
         style="fill:#b23329;fill-opacity:1;fill-rule:nonzero;stroke:none;stroke-width:0.1"
         id="path1574" /><path
         d="m 701.54,615.202 c -5.731,-2.146 -7.288,3.425 -5.594,6.589 2.354,4.401 6.489,-6.254 5.594,-6.589"
         style="fill:#ffb882;fill-opacity:1;fill-rule:nonzero;stroke:none;stroke-width:0.1"
         id="path1576" /><path
         d="m 699.933,616.505 c -3.025,-1.132 -3.847,1.808 -2.953,3.477 1.242,2.322 3.425,-3.3 2.953,-3.477"
         style="fill:#ea7b59;fill-opacity:1;fill-rule:nonzero;stroke:none;stroke-width:0.1"
         id="path1578" /><path
         d="m 699.718,616.276 c -1.56,-0.585 -1.985,0.932 -1.524,1.794 0.641,1.199 1.768,-1.704 1.524,-1.794"
         style="fill:#ffb882;fill-opacity:1;fill-rule:nonzero;stroke:none;stroke-width:0.1"
         id="path1580" /><path
         d="m 715.356,622.954 c 0.286,2.258 -0.771,4.305 -2.359,4.572 -1.588,0.268 -3.108,-1.346 -3.394,-3.603 -0.285,-2.257 0.874,-3.282 2.463,-3.55 1.589,-0.267 3.004,0.324 3.29,2.581"
         style="fill:#fffbdd;fill-opacity:1;fill-rule:nonzero;stroke:none;stroke-width:0.1"
         id="path1582" /><path
         d="m 714.74,623.308 c 0.258,1.187 -0.223,2.358 -1.076,2.617 -0.854,0.259 -1.756,-0.492 -2.015,-1.679 -0.26,-1.187 0.223,-2.358 1.076,-2.618 0.854,-0.258 1.756,0.493 2.015,1.68"
         style="fill:#3f7fa5;fill-opacity:1;fill-rule:nonzero;stroke:none;stroke-width:0.1"
         id="path1584" /><path
         d="m 714.972,624.298 c 0.101,0.459 -0.086,0.911 -0.416,1.011 -0.33,0.1 -0.678,-0.19 -0.778,-0.648 -0.1,-0.459 0.086,-0.911 0.416,-1.011 0.33,-0.1 0.678,0.19 0.778,0.648"
         style="fill:#fffbdd;fill-opacity:1;fill-rule:nonzero;stroke:none;stroke-width:0.1"
         id="path1586" /><path
         d="m 708.735,632.438 0.651,-1.579 c 0.833,0.916 5.456,2.829 8.828,1.254 l 0.351,2.933 c 0,0 -5.879,1.771 -9.83,-2.608"
         style="fill:#cc5444;fill-opacity:1;fill-rule:nonzero;stroke:none;stroke-width:0.1"
         id="path1588" /><path
         d="m 728.309,621.362 c 0.285,2.234 -0.751,4.201 -2.314,4.391 -1.565,0.192 -3.065,-1.464 -3.35,-3.699 -0.286,-2.233 0.854,-3.19 2.418,-3.381 1.564,-0.191 2.96,0.455 3.246,2.689"
         style="fill:#fffbdd;fill-opacity:1;fill-rule:nonzero;stroke:none;stroke-width:0.1"
         id="path1590" /><path
         d="m 727.686,621.505 c 0.259,1.175 -0.224,2.336 -1.077,2.593 -0.855,0.257 -1.756,-0.487 -2.015,-1.663 -0.259,-1.174 0.224,-2.336 1.077,-2.593 0.855,-0.257 1.756,0.487 2.015,1.663"
         style="fill:#3f7fa5;fill-opacity:1;fill-rule:nonzero;stroke:none;stroke-width:0.1"
         id="path1592" /><path
         d="m 727.917,622.486 c 0.101,0.454 -0.086,0.902 -0.416,1.002 -0.33,0.099 -0.677,-0.188 -0.778,-0.642 -0.1,-0.455 0.087,-0.903 0.417,-1.003 0.329,-0.098 0.678,0.189 0.777,0.643"
         style="fill:#fffbdd;fill-opacity:1;fill-rule:nonzero;stroke:none;stroke-width:0.1"
         id="path1594" /><path
         d="m 731.109,627.75 -1.132,-1.17 c -0.143,1.044 -2.347,4.094 -5.274,3.749 l 1.072,2.644 c 0,0 4.671,-0.241 5.334,-5.223"
         style="fill:#cc5444;fill-opacity:1;fill-rule:nonzero;stroke:none;stroke-width:0.1"
         id="path1596" /><path
         d="m 712.845,614.541 8.819,-2.074 c 0,0 -1.625,-3.346 -4.678,-2.948 -3.471,0.453 -4.141,5.022 -4.141,5.022"
         style="fill:#763224;fill-opacity:1;fill-rule:nonzero;stroke:none;stroke-width:0.1"
         id="path1598" /><path
         d="m 713.644,614.034 7.382,-1.692 c 0,0 -1.137,-2.096 -3.789,-1.689 -2.962,0.454 -3.593,3.381 -3.593,3.381"
         style="fill:#fffbdd;fill-opacity:1;fill-rule:nonzero;stroke:none;stroke-width:0.1"
         id="path1600" /><path
         d="m 720.664,617.283 c -0.124,1.132 -1.129,2.161 -1.129,2.161 l -2.625,-2.655 c 1.676,-1.779 3.911,-0.953 3.754,0.494"
         style="fill:#ea7b59;fill-opacity:1;fill-rule:nonzero;stroke:none;stroke-width:0.1"
         id="path1602" /><path
         d="m 720.05,617.585 c -0.044,0.869 -0.799,1.703 -0.799,1.703 l -2.112,-2.119 c 1.299,-1.258 2.965,-0.633 2.911,0.416"
         style="fill:#ffb882;fill-opacity:1;fill-rule:nonzero;stroke:none;stroke-width:0.1"
         id="path1604" /><path
         d="m 717.191,607.731 c 0.02,0.171 -0.579,0.383 -1.34,0.475 -0.761,0.092 -1.394,0.029 -1.415,-0.142 -0.021,-0.17 0.58,-0.383 1.341,-0.475 0.76,-0.092 1.393,-0.029 1.414,0.142"
         style="fill:#ea7b59;fill-opacity:1;fill-rule:nonzero;stroke:none;stroke-width:0.1"
         id="path1606" /><path
         d="m 671.642,589.977 c -1.42,-0.886 -2.097,-2.509 -3.304,-2.72 -0.94,-0.165 -2.591,1.805 -2.298,2.383 0.295,0.578 5.801,1.656 5.801,1.656 l -0.199,-1.319"
         style="fill:#ffb882;fill-opacity:1;fill-rule:nonzero;stroke:none;stroke-width:0.1"
         id="path1608" /><path
         d="m 669.832,590.923 c -1.356,0.152 -3.521,1.14 -3.964,1.241 -0.444,0.102 -0.523,-0.448 0.531,-1.091 1.055,-0.643 1.528,-0.513 1.501,-1.142 -0.03,-0.692 2.588,0.918 1.932,0.992"
         style="fill:#ffb882;fill-opacity:1;fill-rule:nonzero;stroke:none;stroke-width:0.1"
         id="path1610" /><path
         d="m 667.116,589.067 c -1.162,-0.179 -3.909,-0.629 -3.986,-0.249 -0.077,0.38 3.942,1.235 3.942,1.235 l 0.044,-0.986"
         style="fill:#ffb882;fill-opacity:1;fill-rule:nonzero;stroke:none;stroke-width:0.1"
         id="path1612" /><path
         d="m 667.529,588.177 c -1.069,-0.472 -3.589,-1.614 -3.728,-1.261 -0.138,0.353 3.517,2.218 3.517,2.218 l 0.211,-0.957"
         style="fill:#ffb882;fill-opacity:1;fill-rule:nonzero;stroke:none;stroke-width:0.1"
         id="path1614" /><path
         d="m 669.036,587.581 c -0.94,-0.695 -3.148,-2.36 -3.364,-2.049 -0.216,0.312 2.939,2.929 2.939,2.929 l 0.425,-0.88"
         style="fill:#ffb882;fill-opacity:1;fill-rule:nonzero;stroke:none;stroke-width:0.1"
         id="path1616" /><path
         d="m 730.038,578.579 c 0.918,-1.1 1.032,-2.593 1.959,-3.091 0.721,-0.388 2.595,0.753 2.511,1.298 -0.085,0.546 -4.278,2.912 -4.278,2.912 l -0.192,-1.119"
         style="fill:#ffb882;fill-opacity:1;fill-rule:nonzero;stroke:none;stroke-width:0.1"
         id="path1618" /><path
         d="m 731.765,578.851 c 1.146,-0.246 3.175,-0.036 3.563,-0.075 0.388,-0.038 0.305,-0.503 -0.726,-0.736 -1.031,-0.232 -1.383,0.001 -1.529,-0.513 -0.161,-0.568 -1.861,1.442 -1.308,1.324"
         style="fill:#ffb882;fill-opacity:1;fill-rule:nonzero;stroke:none;stroke-width:0.1"
         id="path1620" /><path
         d="m 733.478,576.616 c 0.898,-0.46 3.014,-1.568 3.179,-1.283 0.165,0.286 -2.877,2.067 -2.877,2.067 l -0.302,-0.784"
         style="fill:#ffb882;fill-opacity:1;fill-rule:nonzero;stroke:none;stroke-width:0.1"
         id="path1622" /><path
         d="m 732.903,576.011 c 0.743,-0.671 2.488,-2.277 2.696,-2.03 0.208,0.247 -2.268,2.744 -2.268,2.744 l -0.428,-0.714"
         style="fill:#ffb882;fill-opacity:1;fill-rule:nonzero;stroke:none;stroke-width:0.1"
         id="path1624" /><path
         d="m 731.515,575.939 c 0.578,-0.815 1.929,-2.759 2.189,-2.566 0.259,0.193 -1.606,3.16 -1.606,3.16 l -0.583,-0.594"
         style="fill:#ffb882;fill-opacity:1;fill-rule:nonzero;stroke:none;stroke-width:0.1"
         id="path1626" /><path
         d="m 834.319,499.841 c 5.93,-0.375 10.367,-3.227 10.367,-3.227 -8.468,-2.325 -15.824,-1.035 -18.441,-0.435 0,0 2.169,4.034 8.074,3.662"
         style="fill:#c42d51;fill-opacity:1;fill-rule:nonzero;stroke:none;stroke-width:0.1"
         id="path1628" /><path
         d="m 860.37,502.335 c -12.303,3.915 -13.236,10.44 -12.862,17.333 0.373,6.9 -12.117,32.621 -7.267,43.804 4.844,11.182 17.518,17.521 24.974,12.487 7.456,-5.033 6.152,-8.2 6.152,-8.2 0,0 14.967,-0.575 16.216,-11.185 2.236,-19.011 -14.553,-36.733 -19.386,-38.024 -8.6,-2.295 -7.827,-16.215 -7.827,-16.215"
         style="fill:#602c29;fill-opacity:1;fill-rule:nonzero;stroke:none;stroke-width:0.1"
         id="path1630" /><path
         d="m 886.242,560.603 c -4.693,-6.3 -13.672,-10.563 -23.985,-10.563 -9.635,0 -18.109,3.725 -23.007,9.355 -1.312,-12.425 8.59,-33.57 8.258,-39.727 -0.374,-6.893 0.559,-13.418 12.862,-17.333 0,0 -0.773,13.92 7.827,16.215 4.833,1.291 21.622,19.013 19.386,38.024 -0.183,1.549 -0.664,2.878 -1.341,4.029"
         style="fill:#4f201f;fill-opacity:1;fill-rule:nonzero;stroke:none;stroke-width:0.1"
         id="path1632" /><path
         d="m 847.508,519.668 c -0.374,-6.893 0.559,-13.418 12.862,-17.333 0,0 -6.494,14.322 2.426,30.768 3.247,5.985 3.196,13.122 3.718,17.19 -1.389,-0.16 -2.806,-0.253 -4.257,-0.253 -5.588,0 -10.78,1.26 -15.116,3.41 -2.783,-2.581 -4.73,-5.83 -6.029,-9.433 2.546,-10.109 6.611,-20.365 6.396,-24.349"
         style="fill:#3f1919;fill-opacity:1;fill-rule:nonzero;stroke:none;stroke-width:0.1"
         id="path1634" /><path
         d="m 835.54,529.635 c -0.506,1.882 -6.462,18.497 -7.467,21.164 l 0.627,0.267 c 0,0 10.015,-18.824 9.43,-20.684 -0.585,-1.854 -2.153,-2.365 -2.59,-0.747"
         style="fill:#ffcd9c;fill-opacity:1;fill-rule:nonzero;stroke:none;stroke-width:0.1"
         id="path1636" /><path
         d="m 831.184,503.734 c 1.23,-10.356 11.506,-26.037 11.506,-26.037 l -0.905,-0.31 c 0,0 -12.609,15.053 -13.279,25.569 -0.117,1.847 2.186,4.93 2.678,0.778"
         style="fill:#ffcd9c;fill-opacity:1;fill-rule:nonzero;stroke:none;stroke-width:0.1"
         id="path1638" /><path
         d="m 832.454,491.262 c 0.999,-0.064 2.074,-0.362 3.168,-0.86 -2.092,4.42 -3.956,9.282 -4.438,13.332 -0.492,4.152 -2.795,1.069 -2.678,-0.778 0.233,-3.627 1.882,-7.791 3.948,-11.694"
         style="fill:#ffae85;fill-opacity:1;fill-rule:nonzero;stroke:none;stroke-width:0.1"
         id="path1640" /><path
         d="m 836.459,507.129 c 0.912,-10.582 -0.811,-33.803 -0.811,-33.803 l -0.942,-0.172 c 0,0 -0.725,22.529 -1.266,32.033 -0.62,5.982 2.708,5.584 3.019,1.942"
         style="fill:#ffcd9c;fill-opacity:1;fill-rule:nonzero;stroke:none;stroke-width:0.1"
         id="path1642" /><path
         d="m 833.972,493.63 c 0.133,0.057 0.271,0.093 0.414,0.105 0.751,0.06 1.513,-0.529 2.227,-1.615 0.16,5.525 0.182,11.121 -0.154,15.009 -0.311,3.642 -3.639,4.04 -3.019,-1.942 0.169,-2.95 0.353,-7.158 0.532,-11.557"
         style="fill:#ffae85;fill-opacity:1;fill-rule:nonzero;stroke:none;stroke-width:0.1"
         id="path1644" /><path
         d="m 826.311,496.133 c 0,0 7.287,4.049 18.382,0.501 0,0 -9.333,14.366 -3.471,22.085 2.913,3.839 3.725,7.6 2.994,9.71 -0.237,0.687 -5.072,4.661 -6.869,3.776 -1.793,-0.881 -15.95,-13.011 -11.036,-36.072"
         style="fill:#f4536a;fill-opacity:1;fill-rule:nonzero;stroke:none;stroke-width:0.1"
         id="path1646" /><path
         d="m 840.223,531.533 c -1.458,-0.113 -3.661,-2.43 -3.661,-2.43 l 7.193,-0.128 -3.532,2.558"
         style="fill:#ffe6eb;fill-opacity:1;fill-rule:nonzero;stroke:none;stroke-width:0.1"
         id="path1648" /><path
         d="m 838.953,524.729 c -3.983,-7.35 -2.356,-21.489 -0.373,-26.814 1.87,-0.196 3.913,-0.597 6.106,-1.302 0,0 -9.335,14.368 -3.472,22.088 2.914,3.838 3.726,7.596 2.993,9.71 -0.081,0.239 -2.34,1.701 -5.254,-3.682"
         style="fill:#e03f5e;fill-opacity:1;fill-rule:nonzero;stroke:none;stroke-width:0.1"
         id="path1650" /><path
         d="m 843.325,522.828 c 1.171,2.763 1.144,5.224 -0.059,5.499 -1.203,0.275 -3.129,-1.74 -4.298,-4.502 -1.17,-2.762 -1.144,-5.224 0.061,-5.498 1.203,-0.276 3.127,1.74 4.296,4.501"
         style="fill:#ffe6eb;fill-opacity:1;fill-rule:nonzero;stroke:none;stroke-width:0.1"
         id="path1652" /><path
         d="m 843.097,522.882 c 1.045,2.472 1.023,4.672 -0.055,4.92 -1.076,0.246 -2.798,-1.557 -3.846,-4.028 -1.046,-2.473 -1.022,-4.677 0.055,-4.924 1.077,-0.246 2.798,1.559 3.846,4.032"
         style="fill:#ffae85;fill-opacity:1;fill-rule:nonzero;stroke:none;stroke-width:0.1"
         id="path1654" /><path
         d="m 843.414,527.644 c 1.757,-0.821 17.903,-7.782 20.575,-8.727 l -0.446,-0.465 c 0,0 -20.826,4.982 -21.871,6.622 -1.047,1.642 0.23,3.276 1.742,2.57"
         style="fill:#ffcd9c;fill-opacity:1;fill-rule:nonzero;stroke:none;stroke-width:0.1"
         id="path1656" /><path
         d="m 846.275,523.388 c 0.31,0.915 1.593,1.411 3.45,1.497 -3.116,1.345 -5.671,2.459 -6.311,2.759 -1.512,0.706 -3.265,-1.422 -2.22,-3.064 0.289,-0.454 2.561,-0.717 5.012,-1.576 0.004,0.132 0.028,0.259 0.069,0.384"
         style="fill:#ffae85;fill-opacity:1;fill-rule:nonzero;stroke:none;stroke-width:0.1"
         id="path1658" /><path
         d="m 836.111,472.982 h -4.116 c 0,0 2.361,1.771 2.989,1.719 0.627,-0.053 1.127,-1.719 1.127,-1.719"
         style="fill:#f2c0d5;fill-opacity:1;fill-rule:nonzero;stroke:none;stroke-width:0.1"
         id="path1660" /><path
         d="m 843.177,478.499 -0.393,-4.098 c 0,0 -1.552,3.293 -1.441,3.911 0.115,0.621 1.834,0.187 1.834,0.187"
         style="fill:#f2c0d5;fill-opacity:1;fill-rule:nonzero;stroke:none;stroke-width:0.1"
         id="path1662" /><path
         d="m 837.531,529.439 4.634,4.786 2.468,-1.945 -1.606,-3.012 -5.496,0.171"
         style="fill:#ffcd9c;fill-opacity:1;fill-rule:nonzero;stroke:none;stroke-width:0.1"
         id="path1664" /><path
         d="m 826.11,497.137 c 0.063,-0.34 -0.163,-1.061 -0.089,-1.409 0,0 7.569,4.435 18.665,0.886 0,0 -0.241,0.372 -0.617,1.021 -9.72,2.954 -16.48,0.207 -17.959,-0.498"
         style="fill:#ffe6eb;fill-opacity:1;fill-rule:nonzero;stroke:none;stroke-width:0.1"
         id="path1666" /><path
         d="m 838.34,497.939 c 1.934,-0.185 4.527,-0.882 6.816,-1.613 0,0 -0.711,0.66 -1.087,1.309 -2.097,0.637 -4.046,1 -5.845,1.183 0.065,-0.289 0.104,-0.578 0.116,-0.879"
         style="fill:#efc7d0;fill-opacity:1;fill-rule:nonzero;stroke:none;stroke-width:0.1"
         id="path1668" /><path
         d="m 839.817,531.8 h -10e-4 l 2.349,2.425 -2.348,-2.425 m -2.095,0.517 c -0.249,0.71 -0.595,1.568 -1.007,2.522 0.028,0.026 0.055,0.045 0.08,0.056 0.391,-0.975 0.724,-1.851 0.959,-2.574 -0.011,-10e-4 -0.022,-0.003 -0.032,-0.004"
         style="fill:#ddaaa0;fill-opacity:1;fill-rule:nonzero;stroke:none;stroke-width:0.1"
         id="path1670" /><path
         d="m 835.639,530.895 c 0.02,1.823 0.678,3.579 1.076,3.944 0.412,-0.954 0.758,-1.812 1.007,-2.522 -0.136,-0.019 -0.261,-0.056 -0.375,-0.112 -0.29,-0.142 -0.904,-0.579 -1.708,-1.31"
         style="fill:#dd8962;fill-opacity:1;fill-rule:nonzero;stroke:none;stroke-width:0.1"
         id="path1672" /><path
         d="m 839.939,526.34 c -3.417,0.061 -4.324,2.356 -4.3,4.555 0.804,0.731 1.418,1.168 1.708,1.31 0.114,0.056 0.239,0.093 0.375,0.112 0.01,10e-4 0.021,0.003 0.032,0.004 0.002,-0.008 0.005,-0.015 0.007,-0.023 0.065,0.007 0.131,0.011 0.2,0.011 0.526,0 1.169,-0.206 1.838,-0.527 l 0.017,0.018 h 10e-4 l -0.555,-0.573 c -1.305,-0.656 -2.7,-2.124 -2.7,-2.124 l 7.193,-0.128 h -0.003 c 0.229,-0.229 0.386,-0.417 0.436,-0.53 -0.086,0.11 -0.418,0.326 -0.937,0.326 -0.764,0 -1.933,-0.468 -3.312,-2.431 m 4.354,1.792 c -0.026,0.096 -0.054,0.189 -0.086,0.279 0.032,-0.09 0.06,-0.183 0.086,-0.279 m -0.538,0.843 -0.638,0.462 0.045,0.085 c 0.226,-0.196 0.421,-0.374 0.581,-0.537 l 0.012,-0.01"
         style="fill:#d43742;fill-opacity:1;fill-rule:nonzero;stroke:none;stroke-width:0.1"
         id="path1674" /><path
         d="m 843.755,528.975 -7.193,0.128 c 0,0 1.395,1.468 2.7,2.124 l -1.731,-1.788 5.496,-0.171 0.09,0.169 0.638,-0.462"
         style="fill:#dd9a94;fill-opacity:1;fill-rule:nonzero;stroke:none;stroke-width:0.1"
         id="path1676" /><path
         d="m 840.08,526.338 c -0.047,0 -0.094,0.001 -0.141,0.002 1.379,1.963 2.548,2.431 3.312,2.431 0.519,0 0.851,-0.216 0.937,-0.326 0,-0.001 0,-0.002 10e-4,-0.003 l 0.018,-0.031 v 0 c 0.032,-0.09 0.06,-0.183 0.086,-0.279 0.076,-0.291 0.125,-0.61 0.149,-0.949 h 10e-4 c -0.127,0.056 -0.245,0.108 -0.353,0.156 -0.134,0.538 -0.409,0.893 -0.824,0.988 -0.074,0.017 -0.15,0.025 -0.229,0.025 -0.766,0 -1.755,-0.778 -2.657,-2.008 -0.102,-0.004 -0.202,-0.006 -0.3,-0.006"
         style="fill:#c22a3b;fill-opacity:1;fill-rule:nonzero;stroke:none;stroke-width:0.1"
         id="path1678" /><path
         d="m 840.38,526.344 c 0.902,1.23 1.891,2.008 2.657,2.008 0.079,0 0.155,-0.008 0.229,-0.025 0.415,-0.095 0.69,-0.45 0.824,-0.988 -0.306,0.136 -0.536,0.24 -0.676,0.305 -0.037,0.018 -0.075,0.034 -0.112,0.049 -0.079,0.05 -0.165,0.087 -0.26,0.109 -0.065,0.015 -0.134,0.022 -0.205,0.022 -0.051,0 -0.103,-0.003 -0.157,-0.011 -0.426,-0.005 -0.797,-0.198 -1.048,-0.509 -0.034,-0.031 -0.068,-0.063 -0.101,-0.097 -0.269,-0.228 -0.544,-0.513 -0.813,-0.845 -0.115,-0.008 -0.227,-0.014 -0.338,-0.018"
         style="fill:#dd9a94;fill-opacity:1;fill-rule:nonzero;stroke:none;stroke-width:0.1"
         id="path1680" /><path
         d="m 840.718,526.362 c 0.269,0.332 0.544,0.617 0.813,0.845 -0.224,-0.228 -0.406,-0.51 -0.52,-0.82 -0.099,-0.01 -0.197,-0.018 -0.293,-0.025 m 2.584,1.331 c -0.209,0.082 -0.412,0.12 -0.605,0.12 -0.005,0 -0.011,0 -0.017,0 0.054,0.008 0.106,0.011 0.157,0.011 0.071,0 0.14,-0.007 0.205,-0.022 0.095,-0.022 0.181,-0.059 0.26,-0.109"
         style="fill:#dd7453;fill-opacity:1;fill-rule:nonzero;stroke:none;stroke-width:0.1"
         id="path1682" /><path
         d="m 844.446,527.181 c -0.488,0.215 -0.843,0.375 -1.032,0.463 -0.204,0.096 -0.413,0.139 -0.619,0.139 -0.422,0 -0.831,-0.183 -1.163,-0.479 0.251,0.311 0.622,0.504 1.048,0.509 0.006,0 0.012,0 0.017,0 0.193,0 0.396,-0.038 0.605,-0.12 0.037,-0.015 0.075,-0.031 0.112,-0.049 0.14,-0.065 0.37,-0.169 0.676,-0.305 0.108,-0.048 0.226,-0.1 0.353,-0.156 l 0.003,-0.002"
         style="fill:#dd8962;fill-opacity:1;fill-rule:nonzero;stroke:none;stroke-width:0.1"
         id="path1684" /><path
         d="m 841.011,526.387 c 0.114,0.31 0.296,0.592 0.52,0.82 0.033,0.034 0.067,0.066 0.101,0.097 0.332,0.296 0.741,0.479 1.163,0.479 0.206,0 0.415,-0.043 0.619,-0.139 0.189,-0.088 0.544,-0.248 1.032,-0.463 l 0.009,-0.006 c -1.33,-0.438 -2.469,-0.689 -3.444,-0.788"
         style="fill:#dd7453;fill-opacity:1;fill-rule:nonzero;stroke:none;stroke-width:0.1"
         id="path1686" /><path
         d="m 843.027,529.268 -5.496,0.171 1.731,1.788 0.555,0.573 2.348,2.425 2.468,-1.945 -1.471,-2.757 c 0,0 0,0 0,-10e-4 l -0.045,-0.085 -0.09,-0.169"
         style="fill:#dd8962;fill-opacity:1;fill-rule:nonzero;stroke:none;stroke-width:0.1"
         id="path1688" /><path
         d="m 842.202,532.538 c -4.392,4.867 -11.358,15.492 1.022,28.146 12.381,12.655 22.653,8.768 29.599,1.071 6.944,-7.699 9.417,-18.186 -2.548,-29.602 -11.97,-11.421 -23.682,-4.484 -28.073,0.385"
         style="fill:#ffcd9c;fill-opacity:1;fill-rule:nonzero;stroke:none;stroke-width:0.1"
         id="path1690" /><path
         d="m 871.206,564.18 c -6.36,1.312 -7.75,-9.272 -5.977,-16.985 2.21,-9.614 -5.572,-12.227 -11.013,-15.934 -1.678,-1.146 2.513,-4.023 0.909,-4.966 0,0 22.263,-2.373 25.857,10.673 3.595,13.047 -0.504,25.303 -9.776,27.212"
         style="fill:#4f201f;fill-opacity:1;fill-rule:nonzero;stroke:none;stroke-width:0.1"
         id="path1692" /><path
         d="m 856.257,525.354 c 4.227,0.241 8.099,2.408 4.877,4.635 -3.22,2.228 -10.92,1.464 -10.714,-0.7 0.202,-2.166 2.721,-4.112 5.837,-3.935"
         style="fill:#ffcd9c;fill-opacity:1;fill-rule:nonzero;stroke:none;stroke-width:0.1"
         id="path1694" /><path
         d="m 855.578,526.296 c 2.513,0.144 4.814,1.436 2.901,2.756 -1.915,1.325 -6.493,0.87 -6.372,-0.417 0.121,-1.289 1.619,-2.446 3.471,-2.339"
         style="fill:#ef8f6f;fill-opacity:1;fill-rule:nonzero;stroke:none;stroke-width:0.1"
         id="path1696" /><path
         d="m 853.305,527.48 c 1.545,-0.082 2.986,0.565 1.842,1.523 -1.145,0.959 -3.964,0.99 -3.92,0.179 0.046,-0.815 0.938,-1.642 2.078,-1.702"
         style="fill:#ffcd9c;fill-opacity:1;fill-rule:nonzero;stroke:none;stroke-width:0.1"
         id="path1698" /><path
         d="m 886.616,558.714 c -0.152,6.276 -9.912,6.978 -14.452,6.978 -4.541,0 -8.099,-5.087 -7.949,-11.363 0.152,-6.276 3.956,-11.361 8.497,-11.361 4.539,0 14.053,9.472 13.904,15.746"
         style="fill:#602c29;fill-opacity:1;fill-rule:nonzero;stroke:none;stroke-width:0.1"
         id="path1700" /><path
         d="m 833.311,517.879 c 0.374,1.371 -0.146,2.586 -1.161,2.714 -1.016,0.126 -2.141,-0.883 -2.517,-2.255 -0.373,-1.371 0.148,-2.587 1.162,-2.714 1.016,-0.125 2.143,0.884 2.516,2.255"
         style="fill:#ff839b;fill-opacity:1;fill-rule:nonzero;stroke:none;stroke-width:0.1"
         id="path1702" /><path
         d="m 832.653,521.031 -0.355,0.125 0.566,1.635 0.353,-0.12 -0.564,-1.64"
         style="fill:#ff839b;fill-opacity:1;fill-rule:nonzero;stroke:none;stroke-width:0.1"
         id="path1704" /><path
         d="m 833.791,519.98 -0.141,0.345 1.62,0.658 0.141,-0.347 -1.62,-0.656"
         style="fill:#ff839b;fill-opacity:1;fill-rule:nonzero;stroke:none;stroke-width:0.1"
         id="path1706" /><path
         d="m 828.428,515.675 -0.263,0.268 0.701,0.681 0.26,-0.271 -0.698,-0.678"
         style="fill:#ff839b;fill-opacity:1;fill-rule:nonzero;stroke:none;stroke-width:0.1"
         id="path1708" /><path
         d="m 829.131,518.291 -0.497,0.023 0.017,0.376 0.497,-0.026 -0.017,-0.373"
         style="fill:#ff839b;fill-opacity:1;fill-rule:nonzero;stroke:none;stroke-width:0.1"
         id="path1710" /><path
         d="m 830.848,513.319 -0.373,0.03 0.138,1.727 0.372,-0.03 -0.137,-1.727"
         style="fill:#ff839b;fill-opacity:1;fill-rule:nonzero;stroke:none;stroke-width:0.1"
         id="path1712" /><path
         d="m 829.907,519.878 -0.528,0.22 0.142,0.344 0.53,-0.217 -0.144,-0.347"
         style="fill:#ff839b;fill-opacity:1;fill-rule:nonzero;stroke:none;stroke-width:0.1"
         id="path1714" /><path
         d="m 835.405,516.971 -1.672,0.402 0.089,0.366 1.671,-0.404 -0.088,-0.364"
         style="fill:#ff839b;fill-opacity:1;fill-rule:nonzero;stroke:none;stroke-width:0.1"
         id="path1716" /><path
         d="m 833.722,514.146 -0.889,1.465 0.321,0.195 0.885,-1.464 -0.317,-0.196"
         style="fill:#ff839b;fill-opacity:1;fill-rule:nonzero;stroke:none;stroke-width:0.1"
         id="path1718" /><path
         d="m 830.258,552.572 c 0.183,0.538 0.231,1.214 0.028,1.368 -0.172,0.133 -0.207,-0.373 -0.384,-0.708 -0.157,-0.303 -0.207,-0.412 -0.281,-0.342 -0.046,0.045 0.083,0.492 0.209,0.997 0.159,0.634 0.173,1.103 -0.029,1.253 -0.199,0.131 -0.21,-0.331 -0.409,-0.865 -0.175,-0.467 -0.225,-0.697 -0.425,-0.556 -0.096,0.06 -0.013,0.401 0.025,0.973 0.043,0.652 -0.065,1.115 -0.233,1.177 -0.243,0.083 -0.088,-0.29 -0.227,-0.995 -0.18,-0.941 -0.095,-1.248 -0.503,-1.533 -0.378,-0.261 -0.422,1.67 -0.8,1.517 -0.495,-0.209 0.42,-3.823 1.04,-4.222 0.895,-0.575 1.405,0.23 1.989,1.936"
         style="fill:#ffcd9c;fill-opacity:1;fill-rule:nonzero;stroke:none;stroke-width:0.1"
         id="path1720" /><path
         d="m 863.619,516.451 c 0.329,-0.469 0.844,-0.903 1.09,-0.835 0.208,0.063 -0.18,0.391 -0.346,0.731 -0.154,0.304 -0.212,0.409 -0.111,0.429 0.064,0.01 0.349,-0.359 0.684,-0.758 0.417,-0.504 0.786,-0.79 1.028,-0.715 0.221,0.083 -0.143,0.364 -0.457,0.839 -0.278,0.418 -0.43,0.595 -0.199,0.674 0.106,0.042 0.33,-0.228 0.772,-0.596 0.502,-0.42 0.937,-0.605 1.086,-0.506 0.21,0.144 -0.18,0.242 -0.669,0.77 -0.656,0.702 -0.954,0.816 -0.941,1.308 0.01,0.464 1.597,-0.643 1.695,-0.246 0.125,0.524 -3.337,1.915 -4.024,1.652 -0.993,-0.383 -0.643,-1.271 0.392,-2.747"
         style="fill:#ffcd9c;fill-opacity:1;fill-rule:nonzero;stroke:none;stroke-width:0.1"
         id="path1722" /><path
         d="m 852.826,551.351 c 2.353,1.356 4.952,1.23 5.803,-0.27 0.852,-1.502 -0.362,-3.817 -2.717,-5.169 -2.347,-1.352 -3.348,-0.313 -4.204,1.19 -0.852,1.503 -1.232,2.9 1.118,4.249"
         style="fill:#af6345;fill-opacity:1;fill-rule:nonzero;stroke:none;stroke-width:0.1"
         id="path1724" /><path
         d="m 847.586,559.489 c 2.198,1.502 4.732,1.656 5.658,0.343 0.921,-1.319 -0.109,-3.603 -2.306,-5.108 -2.2,-1.505 -3.238,-0.636 -4.165,0.681 -0.927,1.315 -1.384,2.579 0.813,4.084"
         style="fill:#af6345;fill-opacity:1;fill-rule:nonzero;stroke:none;stroke-width:0.1"
         id="path1726" /><path
         d="m 853.14,557.211 1.176,-0.038 0.519,1.016 -1.483,-0.232 -0.212,-0.746"
         style="fill:#af6345;fill-opacity:1;fill-rule:nonzero;stroke:none;stroke-width:0.1"
         id="path1728" /><path
         d="m 853.064,558.736 1.21,0.51 -0.064,0.979 -1.362,-0.846 0.216,-0.643"
         style="fill:#af6345;fill-opacity:1;fill-rule:nonzero;stroke:none;stroke-width:0.1"
         id="path1730" /><path
         d="m 852.124,560.267 0.882,0.958 -0.678,0.641 -0.819,-1.263 0.615,-0.336"
         style="fill:#af6345;fill-opacity:1;fill-rule:nonzero;stroke:none;stroke-width:0.1"
         id="path1732" /><path
         d="m 858.461,548.78 1.217,-0.03 0.511,1.018 -1.53,-0.244 -0.198,-0.744"
         style="fill:#af6345;fill-opacity:1;fill-rule:nonzero;stroke:none;stroke-width:0.1"
         id="path1734" /><path
         d="m 858.333,550.297 1.248,0.519 -0.095,0.972 -1.391,-0.852 0.238,-0.639"
         style="fill:#af6345;fill-opacity:1;fill-rule:nonzero;stroke:none;stroke-width:0.1"
         id="path1736" /><path
         d="m 857.322,551.816 0.887,0.959 -0.72,0.633 -0.819,-1.267 0.652,-0.325"
         style="fill:#af6345;fill-opacity:1;fill-rule:nonzero;stroke:none;stroke-width:0.1"
         id="path1738" /><path
         d="m 852.521,551.092 c 2.047,1.176 4.386,0.944 5.218,-0.524 0.832,-1.468 -0.155,-3.611 -2.201,-4.788 -2.051,-1.177 -2.995,-0.14 -3.83,1.322 -0.829,1.469 -1.232,2.812 0.813,3.99"
         style="fill:#fff9e9;fill-opacity:1;fill-rule:nonzero;stroke:none;stroke-width:0.1"
         id="path1740" /><path
         d="m 847.199,559.365 c 1.915,1.311 4.241,1.268 5.195,-0.085 0.958,-1.359 0.182,-3.521 -1.735,-4.832 -1.917,-1.31 -2.944,-0.38 -3.904,0.977 -0.952,1.358 -1.473,2.631 0.444,3.94"
         style="fill:#fff9e9;fill-opacity:1;fill-rule:nonzero;stroke:none;stroke-width:0.1"
         id="path1742" /><path
         d="m 852.127,550.607 c 0.832,0.659 1.908,0.738 2.4,0.172 0.491,-0.565 0.214,-1.559 -0.618,-2.213 -0.835,-0.662 -1.907,-0.738 -2.402,-0.175 -0.489,0.569 -0.213,1.559 0.62,2.216"
         style="fill:#5795aa;fill-opacity:1;fill-rule:nonzero;stroke:none;stroke-width:0.1"
         id="path1744" /><path
         d="m 847.057,558.999 c 0.859,0.59 1.899,0.575 2.324,-0.027 0.425,-0.601 0.075,-1.568 -0.786,-2.156 -0.86,-0.588 -1.901,-0.576 -2.325,0.03 -0.425,0.602 -0.074,1.564 0.787,2.153"
         style="fill:#5795aa;fill-opacity:1;fill-rule:nonzero;stroke:none;stroke-width:0.1"
         id="path1746" /><path
         d="m 847.494,558.377 c 0.371,0.257 0.82,0.252 1.001,-0.012 0.186,-0.258 0.033,-0.673 -0.338,-0.928 -0.372,-0.254 -0.821,-0.249 -1.001,0.012 -0.188,0.262 -0.033,0.678 0.338,0.928"
         style="fill:#7dc5d8;fill-opacity:1;fill-rule:nonzero;stroke:none;stroke-width:0.1"
         id="path1748" /><path
         d="m 852.633,550.027 c 0.36,0.285 0.825,0.318 1.037,0.074 0.212,-0.245 0.089,-0.668 -0.267,-0.954 -0.36,-0.284 -0.824,-0.318 -1.036,-0.074 -0.211,0.243 -0.092,0.67 0.266,0.954"
         style="fill:#7dc5d8;fill-opacity:1;fill-rule:nonzero;stroke:none;stroke-width:0.1"
         id="path1750" /><path
         d="m 853.52,563.613 c 2.199,-0.288 3.138,-2.001 3.118,-2.486 l 1.117,0.298 c 0.03,0.871 -1.239,2.737 -3.683,3.057 l -0.552,-0.869"
         style="fill:#ad5645;fill-opacity:1;fill-rule:nonzero;stroke:none;stroke-width:0.1"
         id="path1752" /><path
         d="m 861.255,554.589 c 1.509,-1.365 1.28,-3.889 1.002,-4.468 l 1.012,-0.152 c 0.494,1.043 0.555,3.908 -1.12,5.421 l -0.894,-0.801"
         style="fill:#ad5645;fill-opacity:1;fill-rule:nonzero;stroke:none;stroke-width:0.1"
         id="path1754" /><path
         d="m 847.426,551.12 -0.098,-0.108 c -0.545,-0.477 -1.42,-0.345 -1.951,0.291 -0.212,0.253 -0.331,0.55 -0.371,0.841 -0.44,-0.492 -0.425,-1.31 0.068,-1.901 0.529,-0.638 1.403,-0.765 1.949,-0.289 0.327,0.285 0.463,0.723 0.403,1.166"
         style="fill:#ef8f6f;fill-opacity:1;fill-rule:nonzero;stroke:none;stroke-width:0.1"
         id="path1756" /><path
         d="m 841.578,549.664 3.702,-4.931 c 0,0 -3.989,-3.335 -5.554,-0.643 -1.566,2.691 1.852,5.574 1.852,5.574"
         style="fill:#512e26;fill-opacity:1;fill-rule:nonzero;stroke:none;stroke-width:0.1"
         id="path1758" /><path
         d="m 844.7,544.89 c -1.186,-0.989 -3.606,-1.467 -4.406,-0.529 -0.803,0.942 0.025,3.308 1.426,4.497 l 2.98,-3.968"
         style="fill:#fff9e9;fill-opacity:1;fill-rule:nonzero;stroke:none;stroke-width:0.1"
         id="path1760" /><path
         d="m 527.123,473.234 h 399.131 c 0,0 -101.348,-12.765 -202.598,-12.765 -101.251,0 -196.533,12.765 -196.533,12.765"
         style="fill:#ff97c1;fill-opacity:1;fill-rule:nonzero;stroke:none;stroke-width:0.1"
         id="path1762" /></g></g></svg>
